<?xml version="1.0" encoding="utf-8"?>
<!-- Generator: Adobe Illustrator 23.0.5, SVG Export Plug-In . SVG Version: 6.00 Build 0)  -->
<!DOCTYPE svg PUBLIC "-//W3C//DTD SVG 1.1//EN" "http://www.w3.org/Graphics/SVG/1.1/DTD/svg11.dtd" [
	<!ENTITY ns_extend "http://ns.adobe.com/Extensibility/1.0/">
	<!ENTITY ns_ai "http://ns.adobe.com/AdobeIllustrator/10.0/">
	<!ENTITY ns_graphs "http://ns.adobe.com/Graphs/1.0/">
	<!ENTITY ns_vars "http://ns.adobe.com/Variables/1.0/">
	<!ENTITY ns_imrep "http://ns.adobe.com/ImageReplacement/1.0/">
	<!ENTITY ns_sfw "http://ns.adobe.com/SaveForWeb/1.0/">
	<!ENTITY ns_custom "http://ns.adobe.com/GenericCustomNamespace/1.0/">
	<!ENTITY ns_adobe_xpath "http://ns.adobe.com/XPath/1.0/">
]>
<svg version="1.1"
	 id="Layer_1" xmlns:x="&ns_extend;" xmlns:i="&ns_ai;" xmlns:graph="&ns_graphs;" xmlns:v="https://vecta.io/nano"
	 xmlns="http://www.w3.org/2000/svg" xmlns:xlink="http://www.w3.org/1999/xlink" x="0px" y="0px" viewBox="0 0 1280.838 1269.503"
	 style="enable-background:new 0 0 1280.838 1269.503;" xml:space="preserve">
<style type="text/css">
	.st0{fill:#FFA018;}
	.st1{fill:#F7B594;}
</style>
<metadata>
	<sfw  xmlns="&ns_sfw;">
		<slices></slices>
		<sliceSourceBounds  bottomLeftOrigin="true" height="1255.86" width="1267.194" x="1026.386" y="70.294"></sliceSourceBounds>
	</sfw>
</metadata>
<g>
	<g>
		<path class="st0" d="M401.103,535.485l-3.419,4.558c0,0,26.436,3.647,32.59,8.66c6.154,5.014,6.154,5.014,6.154,5.014
			s17.324-3.646,17.436-4.786c0.112-1.139-11.828-35.78-6.884-44.896C448.535,501.169,410.219,509.505,401.103,535.485z"/>
		<path class="st0" d="M365.898,1131.323c-2.398-14.011-1.45-28.225-4.026-42.208c-2.215-12.024-5.022-23.987-8.597-35.703
			c-2.813-7.149-5.746-14.245-8.954-21.147c-4.94-10.627-11.248-22.461-11.771-34.532c-0.168,0.003-0.333,0.004-0.502,0.007
			c-2.888,0.047-5.873,0.093-8.942,0.01c-30.331,0.439-60.093-6.505-82.642-12.608c-17.438-4.719-31.987-8.914-46.311-14.044
			c-6.903-2.472-13.871-4.669-20.61-6.794c-0.662-0.209-1.331-0.423-1.995-0.633c49.965,80.075,118.906,147.066,200.531,194.72
			C369.406,1149.538,367.465,1140.479,365.898,1131.323z"/>
		<path class="st0" d="M899.12,126.159c-6.228,32.289-21.987,61.408-37.386,89.765l-0.208,0.382
			c-16.683,30.723-32.922,63.656-32.946,99.247c0.342,0.549,0.705,1.111,1.077,1.687c0.825,1.28,1.646,2.563,2.403,3.887
			l0.259,0.454c2.63,4.598,5.61,9.811,6.572,16.375c0.511,3.488,0.18,6.564-0.135,9.289c2.92,0.082,5.663,0.458,8.224,0.81
			c1.886,0.259,3.668,0.503,5.381,0.614c1.286,0.083,2.539,0.441,3.676,1.049c1.846,0.986,3.36,1.599,4.908,1.985
			c0.341,0.078,0.706,0.096,1.069,0.136c0.852,0.092,1.704,0.195,2.541,0.357c1.373,0.265,2.667,0.846,3.778,1.696
			c4.103,3.138,8.643,6.525,13.507,10.078c7.37,3.288,12.691,6.91,15.867,10.796l1.847,1.172c3.348,2.119,6.683,4.231,9.939,6.421
			c9.707,6.529,16.806,14.366,23.472,25.979c1.097,0.798,2.188,1.588,3.26,2.362c0.68,0.246,1.361,0.52,2.021,0.859
			c2.247,1.162,4.377,2.454,6.342,3.847c3.024,2.141,5.9,4.704,8.543,7.614c0.801,0.883,1.569,1.78,2.309,2.7
			c6.323,7.87,11.593,17.723,15.242,28.501c0.433,1.275,0.846,2.558,1.259,3.842c1.383,4.294,2.69,8.351,4.635,11.771
			c8.806,15.483,12.153,48.942,10.966,61.275c-0.907,9.418-2.07,13.666-3.004,17.078c-0.435,1.589-0.806,2.94-1.115,4.738
			c4.381,3.457,5.982,8.475,6.789,11.692c4.377-1.777,8.625-4.074,13.119-6.504c5.769-3.119,11.734-6.344,18.408-8.667
			c11.018-3.836,24.39-3.225,39.746,1.817c28.626,9.402,47.148,27.811,66.758,47.303l0.847,0.842
			c1.564,1.554,3.065,3.138,4.554,4.712c4.63,4.892,8.629,9.117,13.874,11.589c3.178,1.497,6.455,2.828,9.923,4.235
			c5.799,2.355,11.796,4.79,17.591,8.159c4.477,2.603,9.18,5.152,13.728,7.619c5.895,3.195,11.99,6.499,17.916,10.082
			c15.717,9.504,28.033,19.558,37.481,30.508c0.212-6.442,0.357-12.901,0.357-19.394
			C1244.514,420.04,1102.573,216.344,899.12,126.159z"/>
		<path class="st0" d="M438.91,425.396c-0.242-0.137-0.568-0.303-0.948-0.483c-0.38-0.181-0.813-0.377-1.267-0.578
			c-2.045-0.903-4.52-1.888-4.52-1.888s-0.246,0.684-0.653,1.634c-0.679,1.585-1.806,3.911-2.993,5.051c0,0,3.947-1.217,7.074-2.185
			c1.876-0.581,3.458-1.072,3.714-1.158C439.443,425.746,439.272,425.602,438.91,425.396z"/>
		<path class="st0" d="M901.878,681.874c1.52-12.762,0.304-18.536,2.735-31.298c2.431-12.762-10.332-25.525-12.155-28.563
			c-1.823-3.039-14.227-6.077-22.915-10.635c-8.688-4.558-21.45-18.232-23.273-18.84c-1.339-0.446-4.474-1.382-6.048-1.849
			c-1.053,14.62-1.893,29.457-4.831,43.857c-0.218,1.575-0.438,3.15-0.674,4.723c-1.162,7.743-2.404,15.582-4.299,23.185
			c-1.083,4.348-2.887,8.629-4.181,12.992c16.001-0.697,45.114-0.037,52.851,9.468c10.635,13.066,43.757,32.21,43.757,32.21
			S900.358,694.636,901.878,681.874z"/>
		<path class="st0" d="M488.406,656.648c-1.805-7.434-4.894-14.454-7.37-21.678c-2.099-6.123-4.046-12.297-5.953-18.482
			c-10.742,2.089-34.028,7.917-42.473,11.906c-10.939,5.166-36.16-12.155-48.619-17.32c-12.459-5.166-47.404,10.028-62.597,24.509
			c-15.193,14.482-62.901,0.712-73.84,1.319c-10.939,0.608-8.812,4.254-10.028,5.166c-1.215,0.911,11.547,4.862,22.183,25.829
			c10.635,20.967-9.42,19.144-26.133,28.26c-16.713,9.116-28.868,7.293-21.879,20.663c1.284,2.456,1.564,5.129,1.177,7.859
			c0.116,1.12,0.005,2.257-0.42,3.351c-1.605,4.132-3.829,7.55-6.066,11.334c-0.417,0.706-0.926,1.434-1.255,2.205
			c5.631,3.206,13.022,3.278,19.019,5.649c9.072,3.587,16.359,8.918,22.803,16.178c2.683,3.023,4.308,4.748,8.353,4.861
			c4.465,0.125,8.934-0.386,13.396-0.488c9.13-0.209,18.241-1.47,27.231,0.81c1.555,0.394,2.813,1.057,3.809,1.895
			c5.514,1.122,17.794,3.98,20.432,5.875c3.343,2.402,4.255-3.921,5.47-5.441c1.216-1.519,36.464-37.072,59.254-59.558
			c19.813-19.549,93.126-21.873,113.342-23.356C492.593,678.589,490.996,667.312,488.406,656.648z"/>
		<path class="st0" d="M1081.901,955.677c-0.431,0.605-0.914,1.177-1.495,1.669c-1.829,1.549-4.133,2.342-6.431,2.342
			c-1.785,0-3.564-0.479-5.117-1.453c-0.297-0.187-0.562-0.406-0.831-0.62c-15.002,2.128-30.192,3.895-45.247,5.218
			c-5.373,0.473-10.697,1.22-15.848,1.943c-7.448,1.044-15.15,2.126-23.383,2.456c-1.169,0.048-10.065,0.726-16.562,1.223
			l-0.569,0.043c1.648,6.404,2.484,13.077,2.583,20.369c0.623,46.007-21.818,91.412-41.617,131.471
			c-1.665,3.37-3.311,6.699-4.921,9.986c-2.365,4.828-5.136,9.444-7.816,13.907c-4.675,7.785-9.089,15.139-11.065,22.918
			c-1.645,6.479-2.742,13.284-3.523,20.113c124.429-55.421,225.74-153.333,285.52-275.316
			c-21.349,13.03-42.825,24.228-65.223,33.953C1108.241,951.895,1094.373,953.974,1081.901,955.677z"/>
		<path class="st0" d="M199.175,561.557c1.437,0.439,2.81,1.006,4.129,1.653c0.491-0.851,0.987-1.709,1.464-2.534
			c3.301-5.713,6.677-11.297,10.199-16.715l0.001-0.005c0,0,0.011-0.015,0.026-0.037c3.683-5.665,7.554-11.121,11.642-16.378
			c12.992-17.629,26.664-30.925,42.323-41.246c10.354-6.825,21.813-11.921,32.895-16.849c3.35-1.489,6.696-2.978,9.997-4.507
			c2.261-1.937,4.68-3.312,7.235-4.116c9.978-12.351,21.463-20.914,37.78-28.273c4.356-1.965,8.713-4.857,12.269-8.141
			c8.293-7.66,16.622-15.606,24.677-23.29l7.638-7.279c0.048-0.048,0.095-0.093,0.138-0.135c0.052-0.05,0.114-0.107,0.177-0.165
			c7.145-6.793,15.591-14.767,24.138-22.489c4.975-4.494,11.122-9.215,18.996-10.16c12.881-1.551,22.528,2.544,30.363,12.861
			c3.471,4.573,6.437,9.439,9.277,14.221c0.594-12.179,1.2-23.591,1.212-23.816l0.017-0.323l0.199,0.099
			c0.017-1.102,0.035-2.259,0.058-3.506c0.088-4.986,0.317-12.281,0.531-20.063c-1.283-0.552-2.071-2.203-0.723-3.352
			c0.275-0.234,0.556-0.46,0.831-0.693c0.222-8.571,0.396-17.347,0.321-24c-0.03-2.664,0.44-5.361-0.007-7.988
			c-2.285-2.675-4.711-4.262-10.393-7.108c-6.375-3.192-13.428-6.566-20.896-10.136c-7.038-3.365-14.316-6.844-20.953-10.151
			c-5.156-2.569-10.903-5.272-16.46-7.886c-8.865-4.169-18.031-8.48-25.846-12.715c-2.798-1.516-5.521-2.925-8.174-4.297
			c-11.757-6.084-22.862-11.83-32.992-22.879c-5.408-5.898-9.737-12.308-13.012-19.184c-4.84-8.286-7.702-17.333-8.693-27.203
			C198.15,275.685,107.103,421.852,87.767,589.852c12.599-11.116,26.787-20.294,42.461-27.431
			c17.568-7.997,34.767-7.078,50.734-4.895C187.071,558.363,193.028,559.682,199.175,561.557z"/>
	</g>
	<g>
		<path d="M694.401,175.224c26.336,6.943,52.669,13.901,79.001,20.86c-19.231-9.629-39.144-17.102-59.76-23.178
			c-0.092-0.169-0.09-0.302-0.278-0.442c-13.884-3.226-28.898-6.143-42.729-7.734c-5.755-0.662-9.373-0.869-14.73-0.703
			c-17.675,0.548-35.056,2.76-52.514,5.668C633.952,168.213,664.245,170.041,694.401,175.224z"/>
		<path d="M1215.574,859.796c-2.155,1.463-4.273,2.857-6.441,4.201c-25.165,15.597-51.099,29.83-78.246,41.662
			c-26.521,11.559-53.648,21.134-81.565,28.779c-26.095,7.146-52.491,12.02-79.299,15.41c-12.975,1.641-26.03,1.676-39.002,3.231
			c-15.02,1.801-29.702,4.595-44.819,6.549c-1.167,0.151-3.031,1.274-3.96,2.183c2.017,3.216,4.233,6.307,6.362,9.45
			c16.372,0.536,32.708,1.01,49.097,1.645c0.061,3.269,1.432,6.744,0.385,9.917c-8.958,27.14-19.326,53.061-30.7,79.418
			c-6.895,15.977-10.544,33.839-16.017,50.612c-7.026,21.533-16.744,42.273-18.797,65.136c-0.834,9.294-0.467,18.898-1.276,28.125
			c-0.875,9.984-0.726,18.133,3.808,27.238c2.028,4.073,5.398,7.865,7.501,11.984c1.283,1.324,2.297,2.75,3.237,4.309
			c0.143,0.237,0.285,0.439,0.397,0.694c0.348,0.798,0.681,1.615,1.024,2.418c2.654,2.241,5.048,4.638,7.279,7.307
			c0.739,0.885,1.363,1.809,2.371,2.458s2.07,0.716,3.188,0.278c-2.379-3.737-4.872-7.376-6.86-11.347
			c-2.199-4.392-3.986-8.906-6.523-13.146c-2.241-3.745-5.369-6.821-6.962-11.017c-1.593-4.196-1.553-8.629-1.24-13.154
			c1.163-16.848,1.46-33.621,5.955-50.048c3.911-14.294,12.645-25.445,19.234-38.781c21.353-43.22,44.942-87.72,45.504-137.086
			c0.121-10.585-3.144-18.905-5.188-28.882c5.14-0.241,23.297-1.693,26.205-1.904c16.096-1.171,27.109-3.022,40.912-4.489
			c17.166-1.824,33.113-3.314,49.92-5.953c15.061-2.365,30.78-3.809,44.561-10.371c26.179-12.465,51.528-24.961,75.939-40.608
			c21.201-13.589,41.943-27.336,61.848-43.522c16.987-13.812,28.428-32.509,30.762-54.761
			C1261.114,824.307,1239.783,843.36,1215.574,859.796z"/>
		<path d="M381.64,1111.567c-1.384-14.27-2.816-28.013-6.787-41.773c-7.695-26.662-16.288-53.094-23.972-79.769
			c8.108-3.408,16.456-6.775,24.4-10.346c-18.755-1.053-40.619,0.139-58.802-1.668c-22.09-2.195-44.568-3.548-65.054-9.261
			c-27.908-7.783-58.124-20.781-82.531-32.12c-43.408-20.167-72.466-56.08-117.309-70.978c-1.668-0.554-3.755,0.149-5.543,0.387
			c5.014,0.861,11.13,8.324,13.994,10.701c5.905,4.903,9.804,7.593,14.819,11.843c16.156,13.689,26.452,29.573,43.403,43.04
			c19.561,15.54,44.566,21.434,68.54,30.174c13.694,4.993,29.631,10.159,44.529,14.41c25.529,7.285,52.098,12.808,78.888,13.505
			c8.815,0.229,17.45,0.109,26.194,1.31c0.845,2.767,1.947,6.583,2.866,9.468c7.412,23.257,17.235,52.783,22.144,74.65
			c5.518,24.58,5.699,35.015,9.419,58.928c1.474,9.472,4.225,23.64,7.63,35.357c5.19,17.863,12.037,38.599,18.509,56.69
			c-3.07,6.603-8.076,13.062-11.479,19.09c-3.402,6.028-5.288,11.301-8.295,17.244c0.631-0.08,1.116-0.036,1.743-0.05
			c0.627-0.014,1.362,0.005,2.006-0.002c2.594-3.906,5.466-7.119,9.329-9.819c2.362-1.651,5.005-2.918,7.514-4.341
			c3.15-5.541,6.331-11.074,9.454-16.629c-7.273-30.467-15.375-60.805-22.277-91.339
			C382.832,1130.802,382.562,1121.073,381.64,1111.567z"/>
		<path d="M1062.906,949.359C1063.3,949.915,1064.691,949.41,1062.906,949.359L1062.906,949.359z"/>
		<path d="M901.194,809.259c0.096,0.315,0.498,0.719,0.779,0.51c0.281-0.209,0.328-0.415,0.551-0.619
			c6.556-0.747,12.812-1.471,19.454-2.385c2.65-0.365,5.173-1.758,6.797-4.058c0.399-0.025,0.768-0.053,1.145-0.03
			c3.432,0.211,6.778,0.761,10.171,1.338c0.118,0.02,0.328,0.055,0.452,0.074c0.124,0.018,0.127,0.023,0.265,0.04
			c0.139,0.017,0.118,0.016,0.358,0.042c0.24,0.025,0.836,0.092,1.15,0.12c0.844,0.075,1.7,0.16,2.535,0.21
			c1.67,0.099,3.429,0.224,5.069,0.143c1.64-0.081,3.123-0.185,4.694-0.578s2.959-1.021,4.26-2.016
			c0.822-0.629,1.468-1.498,1.905-2.441c0.438-0.943,0.76-1.912,0.796-2.958c0.073-2.112-0.211-3.914-1.048-5.908
			c-0.837-1.994-2.107-3.809-3.412-5.618c-0.655-0.908-1.582-1.993-2.249-2.914c-0.333-0.46-0.785-1.149-1.001-1.505
			c-0.216-0.357-0.219-0.417-0.327-0.643c-0.107-0.226-0.13-0.359-0.191-0.524c-0.955-2.577-2.161-4.806-3.237-7.357
			s-1.196-4.95-1-7.746c0.12-1.72,0.243-2.852-0.688-4.814c-0.344-0.726-5.427-1.289-6.515-0.76
			c-1.088,0.53-2.678,1.365-3.151,2.088c-1.391,2.126-1.607,3.927-1.437,6.136s0.644,3.981,0.764,6.101
			c0.152,2.696,0.981,5.063,2.225,7.421c1.244,2.358,2.704,4.496,3.894,6.873c0.039,0.078,0.117,0.222,0.152,0.298
			s0.057,0.1,0.082,0.166c0.025,0.066,0.007,0.023,0.033,0.118c0.026,0.095,0.055,0.176,0.087,0.34
			c0.032,0.163,0.062,0.309,0.123,0.559s0.141,0.542,0.245,0.895c0.104,0.354,0.339,0.89,0.394,1.331s0.11,0.855-0.145,1.293
			c-0.255,0.439-0.648,0.706-1.22,0.733c-0.572,0.028-1.528-0.346-1.94-0.616c-0.412-0.269-0.668-0.366-0.988-0.309
			c-0.32,0.057,0.025,0.061-0.263,0.075c-0.288,0.014-0.438,0.018-0.847,0.01c-0.409-0.008-1.045-0.034-1.568-0.083
			c-1.047-0.099-2.15-0.269-3.227-0.423c-2.155-0.307-4.284-0.641-6.486-0.607c-2.202,0.034-4.278-0.618-6.498-0.057
			c-4.174,1.054-7.847,2.908-12.33,3.181c-1.5,0.091-3.046,0.767-3.954,2.203c-0.356,0.563-0.952,1.082-1.564,1.392
			c-11.402,0.9-22.727,2.13-34.149,2.76c-5.351,0.295-10.665,0.577-16.029,1.072c-2.682,0.248-5.271,0.504-8.063,0.809
			c-1.047,0.115-2.725,0.279-3.846,0.427c-1.505,0.199-2.663,0.234-4.193,0.513c-2.974,0.543-5.953,1.102-8.824,2.412
			s-5.703,3.319-7.821,5.668c-2.118,2.349-3.795,5.045-5.094,7.78s-2.38,5.563-3.056,8.365c-1.882,7.803-2.898,15.68-2.95,23.573
			c-0.052,7.893,0.726,15.513,1.642,23.213s2.298,15.111,3.677,22.684c0.69,3.792,1.548,7.453,2.336,11.244
			c0.148,0.71,0.455,2.023,0.582,2.613s0.191,0.853,0.266,1.206c0.075,0.354,0.069,0.344,0.119,0.598s0.102,0.557,0.14,0.77
			s0.084,0.497,0.105,0.63c0.145,0.929,0.254,1.778,0.295,2.672c0.005,0.113,0.016,0.149-0.011,0.232
			c-0.027,0.083-0.028,0.106-0.133,0.05c-0.105-0.056-0.078-0.016-0.246-0.156c-0.169-0.14-0.426-0.391-0.656-0.66
			c-0.23-0.268-0.774-0.808-1.037-1.069c-0.264-0.261-0.559-0.541-0.762-0.72c-0.203-0.178-0.215-0.197-0.372-0.32
			c-0.157-0.123-0.014-0.031-0.249-0.191s-0.823-0.555-1.135-0.753c-3.863-2.46-7.742-4.816-11.766-6.986
			c-4.507-2.43-9.022-4.714-13.632-7.025c-0.216-0.108-0.533-0.265-0.862-0.42c-0.329-0.155-0.491-0.252-1.007-0.467
			c-0.516-0.215-1.443-0.622-2.124-0.899c-0.681-0.277-1.495-0.533-2.266-0.777c-0.289-0.092-0.769-0.256-1.114-0.348
			c-0.345-0.092-0.79-0.206-1.149-0.277c-2.892-0.575-6.214-1.118-9.081-1.062c-5.755,0.112-11.524,0.998-16.844,2.488
			c-5.32,1.49-10.07,3.474-14.891,5.629c-6.176,2.761-11.827,5.761-17.713,8.904c10.936-13.403,21.655-27.33,30.783-41.926
			c9.446-15.104,17.262-30.34,24.873-46.354c7.84-16.496,15.815-32.591,20.209-50.486c2.243-9.135,1.925-18.326,1.209-27.78
			c-0.345-4.549-1.592-8.625-2.952-13.461c-0.497-1.769-2.687-5.926-3.659-7.836c-0.635-1.247-1.596-3.711-1.335-4.603
			c2.913-9.953,7.539-17.931,12.786-26.608c15.653,1.722,31.701,0.974,47.242,3.185c16.892,2.403,29.676,7.873,43.128,18.625
			c18.236,14.577,37.92,25.992,60.967,31.507c12.354,2.956,24.873,6.16,37.116,9.628c2.025,3.594,4.159,7.107,6.024,10.792
			c0.495,0.979,0.336,2.122,0.511,3.177c-0.573,1.414-1.206,2.732-1.736,4.241c-6.653,18.94-7.566,28.362,5.503,43.871
			c9.928,11.782,21.432,14.084,34.894,18.231c10.625,3.273,20.083-0.201,30.569-1.499c-2.239-1.684-5.046-2.654-7.545-3.642
			c-10.677-4.219-22.644-6.479-32.594-11.94c-8.935-4.905-14.453-11.519-16.62-21.294c-2.788-12.575,1.898-23.069,5.656-34.796
			c6.645,0.528,13.249,0.889,19.756,1.729c10.999,15.93,18.598,30.854,38.306,37.355c17.241,5.688,33.961,0.327,50.299-6.414
			c-1.885-0.405-4.252,0.327-6.145,0.344c-18.927,0.176-36.005-1.079-53.267-9.423c-11.665-5.638-15.476-15.269-18.222-27.277
			c-13.449-6.82-28.327-10.417-42.936-12.725c-26.143-4.131-46.289-14.737-62.059-36.204c-7.051-9.597-10.474-20.316-8.692-32.554
			c2.656-18.236,8.946-35.177,19.932-50.338c9.451-13.043,21.156-25.605,32.782-36.58c15.234-14.38,31.917-21.329,52.438-22.524
			c12.621-0.735,19.987,5.595,28.381,14.157c11.476,11.705,20.387,26.247,33.014,37.13c12.627,10.883,26.694,20.032,41.171,28.369
			c21.006,12.096,42.866,22.687,63.224,35.882c1.825,1.183,3.639,2.388,5.074,4.055c2.039,2.369,3.246,5.172,4.552,7.995
			c11.259,24.333,25.373,46.589,42.969,66.849c-5.705-25.804-10.399-51.891-25.908-73.948
			c-10.81-15.373-25.357-25.977-40.835-36.164c-10.144-6.677-21.083-11.701-31.464-17.736c-8.511-4.947-18.113-7.761-26.67-12.209
			c-8.558-4.448-14.338-11.469-21.04-17.931c-19.551-18.853-38.327-36.401-64.449-45.904c-10.357-3.768-22.538-4.731-33.461-1.778
			c-10.923,2.952-20.922,11.618-31.377,14.374c-16.814,4.433-7.411-7.513-19.731-13.687c0.93-13.665,3.997-15.495,4.754-32.107
			c0.501-11-2.234-39.242-9.686-52.256c-3.036-5.302-4.519-11.776-6.701-17.508c-3.425-8.997-7.934-17.774-13.627-25.581
			c-0.592-0.811-1.426-1.678-1.837-2.173c-0.411-0.494-0.111-0.12-0.146-0.177c-2.205-2.289-4.491-4.436-7.113-6.323
			c-1.692-1.218-3.395-2.194-5.318-3.226c-0.488-0.262-1.345-0.531-2.039-0.764c-1.287-0.432-2.804-0.84-3.841-1.836
			c20.549,29.171,33.149,61.697,41.027,96.43c2.554,11.258,1.325,22.989,1.174,34.661c-0.025,1.894-1.535,4.523-2.607,6.296
			c-0.594,0.983-1.401,2.235-1.996,3.256c5.755,7.983,11.7,15.813,17.506,23.753c-16.788,17.481-31.289,36.444-43.43,57.432
			c-8.221-9.311-16.441-18.623-24.685-27.913c7.337-12.396,16.245-23.475,25.163-34.751c0.066-0.084,0.126-0.168,0.193-0.253
			c-3.761,1.053-7.522,2.106-11.282,3.159c-17.308-13.137-29.251-29.255-40.342-47.765c4.077,23.921,15.92,40.671,36.255,53.705
			c-4.606,4.966-9.202,9.941-13.793,14.922c-14.319-5.887-27.113-13.689-39.91-22.4c-11.494,0.98-23.368-0.82-34.745,1.02
			c-12.975,2.098-21.949,9.622-32.153,17.232c-7.459-0.859-14.926-1.971-22.383-2.978c-6.007,3.463-10.12,7.131-12.985,13.542
			c6.967-2.691,14.229-2.61,21.493-2.936c11.329-0.508,19.873-3.981,29.25-10.139c1.973-1.296,3.612-3.481,5.668-4.738
			c0.543,0.617,1.575,2.253,1.414,3.04c-6.936,33.984-15.419,67.376-29.181,99.213c-5.214,12.061-11.188,24.064-18.904,34.588
			c-17.889,24.398-42.021,40.432-68.532,54.125c8.418-1.442,16.29-3.141,24.234-6.592c7.944-3.451,15.973-7.528,23.87-11.231
			c-0.573,10.877-1.561,21.179-1.58,32.227c-0.019,10.618,1.729,21.059,5.696,31.072c2.097-23.588,4.13-47.225,6.19-70.832
			c9.232-8.785,18.355-17.663,27.739-26.298c3.429,6.684,6.833,13.986,6.218,21.552c-1.451,17.836-5.825,33.73-12.469,50.17
			c-3.462,8.568-7.588,16.578-12.15,24.736c-18.795,33.614-42.869,63.616-68.602,92.172c-19.178,21.282-40.757,39.786-59.549,61.558
			c-13.499-19.105-5.921-8.385-25.942-31.359c-20.021-22.974-53.572-62.748-71.084-95.938
			c-7.871-14.917-18.198-38.897-22.917-56.579c-3.25-12.175-5.286-26.17-4.538-39.088c0.339-5.844,1.53-12.098,2.512-17.831
			c-10.491,16.834-16.401,34.317-13.967,54.141c2.434,19.824,9.582,37.328,18.73,54.525c24.157,45.411,57.339,84.367,91.125,122.717
			c-0.235-0.203-0.569-0.245-0.851-0.374c1.442,1.894,2.808,3.844,4.254,5.735c1.188,1.552,2.467,3.028,3.674,4.565
			c-0.078-0.032-0.151-0.046-0.232-0.076c-0.843-0.304-1.649-0.543-2.483-0.902c-1.668-0.718-3.231-1.369-4.844-2.301
			c-3.218-1.857-6.027-4.032-8.893-6.514s-6.476-4.026-9.683-6.13c-7.065-4.635-13.362-10.613-20.905-14.478
			c-7.542-3.866-14.591-7.994-21.694-12.572c-12.173-7.847-24.653-14.429-38.084-20.062c-7.25-3.041-14.773-5.15-22.737-5.941
			c-3.953-0.393-8.173,0.421-11.999,1.494c-1.966,0.551-3.728,1.489-5.554,2.258c-1.826,0.769-3.559,1.591-5.317,2.449
			c-5.04,2.458-9.921,5.118-14.772,7.936c-1.213,0.704-2.374,1.453-3.604,2.207c-0.351,0.215-0.941,0.591-1.303,0.818
			c-0.361,0.227-0.842,0.533-1.132,0.723c-1.541,1.009-2.977,1.966-4.439,3.019c-1.462,1.053-2.922,2.177-4.248,3.358
			c-0.331,0.295-0.738,0.561-1.03,0.724c-0.292,0.163-0.427,0.164-0.64,0.217c-0.213,0.053-0.221-0.028-0.283-0.151
			s-0.014-0.258,0.016-0.373c0.241-0.933,0.562-1.968,0.839-2.861c1.115-3.59,2.251-7.071,3.424-10.633
			c0.073-0.223,0.182-0.55,0.254-0.78c0.073-0.23,0.066-0.186,0.148-0.466s0.077-0.26,0.221-0.772s0.512-1.789,0.694-2.463
			c0.483-1.797,0.98-3.556,1.416-5.352c0.872-3.591,1.77-7.129,2.497-10.762c1.458-7.278,2.768-14.448,3.766-21.855
			c0.998-7.407,1.63-14.872,1.875-22.43c0.122-3.778-0.077-7.645-0.319-11.556c-0.045-0.735-0.171-1.937-0.273-2.846
			c-0.101-0.909-0.202-1.895-0.362-2.896c-0.321-2.009-0.548-3.882-1.087-5.963c-1.054-4.067-2.601-7.994-4.787-11.697
			c-0.547-0.926-1.285-1.877-2.023-2.755c-0.737-0.878-1.588-1.809-2.496-2.579c-1.814-1.538-3.886-2.945-6.013-3.947
			c-2.127-1.002-4.218-1.605-6.435-2.176c-1.117-0.287-1.967-0.392-3.144-0.601c-0.598-0.106-0.713-0.109-1.594-0.228
			s-0.073-0.012-1.959-0.254c-1.885-0.242-7.1-0.912-9.78-1.255c-14.291-1.83-28.237-4.067-42.442-6.641
			c-8.82-1.598-17.417-2.592-26.667-3.487c-3.386-0.328-7.458,1.567-9.359,4.811c2.518,1.45,5.504,3.292,8.303,4.008
			c16.64,4.261,33.401,6.189,50.216,9.199c5.298,0.948,10.487,1.938,15.848,2.717c2.681,0.39,5.209,0.728,8.057,1.115
			c2.108,0.286,5.489,0.628,7.534,0.975c2.532,0.43,4.61,0.776,6.696,1.8c2.085,1.025,3.605,1.849,4.977,3.73
			c2.817,3.863,4.511,7.749,5.268,12.623c1.08,6.95,1.305,13.968,0.93,21.147s-1.402,14.435-2.537,21.658
			c-1.134,7.224-2.632,14.502-4.192,21.741c-0.779,3.614-1.673,7.144-2.608,10.907c-0.423,1.703-1.168,4.517-1.618,6.24
			c-0.45,1.723-0.856,3.228-1.268,4.76c-0.412,1.532-0.948,3.448-1.296,4.717c-0.348,1.269-0.675,2.418-0.911,3.273
			s-0.343,1.227-0.482,1.723s-0.17,0.609-0.248,0.881c-0.077,0.272-0.088,0.299-0.125,0.45s-0.009,0.191-0.006,0.293
			c0.023,1.146,0.111,2.735,0.164,3.77c0.141,2.765,0.274,5.203,0.438,7.877c0.01,0.158-0.001,0.314,0.04,0.449
			c0.041,0.135,0.069,0.142,0.132,0.269c0.064,0.127,0.168,0.323,0.258,0.447c0.091,0.124,0.142,0.189,0.264,0.298
			c0.122,0.109,0.29,0.217,0.457,0.305c0.167,0.088,0.522,0.237,0.683,0.286c0.622,0.187,1.413,0.276,1.966,0.318
			c0.553,0.042,0.693,0.058,1.207,0.057c0.515-0.001,0.936-0.007,1.536-0.073c0.6-0.066,1.185-0.132,1.897-0.34
			c0.711-0.208,1.529-0.462,2.319-0.857c0.79-0.395,1.596-0.862,2.423-1.456s1.774-1.473,2.605-2.186
			c1.619-1.389,3.422-2.701,5.114-3.978c0.845-0.638,1.725-1.23,2.549-1.811c0.824-0.581,1.774-1.237,2.535-1.744
			c0.761-0.507,1.922-1.277,2.434-1.618c0.512-0.342,0.407-0.268,0.663-0.435s0.201-0.128,0.393-0.25
			c0.193-0.123,0.472-0.303,0.641-0.409c3.62-2.242,7.18-4.465,10.854-6.587c4.116-2.377,8.321-4.483,12.644-6.519
			c0.203-0.095,0.539-0.243,0.794-0.355c0.255-0.112,0.459-0.215,0.776-0.326c0.317-0.111,0.815-0.299,1.166-0.433
			c0.35-0.134,0.888-0.26,1.196-0.341c0.308-0.081,0.418-0.133,0.669-0.181s0.407-0.094,0.654-0.117
			c1.962-0.186,3.484-0.498,5.549-0.278c4.142,0.443,7.915,1.146,12.067,2.589s8.381,3.058,12.598,5.059
			c8.446,4.008,16.423,8.94,24.688,13.705c7.767,4.477,15.764,9.01,23.529,13.814c7.765,4.803,15.391,10.054,22.84,15.522
			c4.981,3.656,10.246,6.99,16.014,9.4c4.676,1.954,8.963,4.628,13.342,7.154c0.391,0.225,0.812,0.462,1.184,0.68
			c0.373,0.218,0.787,0.495,1.122,0.678c0.921,0.503,1.627,0.981,2.624,1.32c0.996,0.339,1.973,0.572,3.091,0.468
			c1.119-0.104,2.098-0.67,2.907-1.47c0.033-0.691,0.009-1.366-0.022-2.053c1.489,2.303,2.959,4.577,4.04,7.114
			c1.831-0.072,0.893,1.614,3.474,0.919c1.115-0.3,6.074-4.625,6.91-6.449c1.314-0.296,2.545-0.445,3.676-0.771
			s2.179-0.8,2.982-1.493c0.803-0.693,1.436-1.378,2.142-2.005s1.564-1.463,2.142-1.99c1.524-1.388,2.884-2.68,4.357-3.928
			c2.953-2.504,5.924-4.554,9.21-6.573c3.286-2.019,5.807-5.079,8.749-7.527c6.492-5.402,13.861-9.852,19.872-15.734
			c6.011-5.882,12.075-11.266,19.05-15.838c5.969-3.913,11.82-7.784,17.921-11.402c6.101-3.617,12.261-7.006,18.843-9.637
			c7.068-2.825,14.185-4.604,21.772-4.953c3.766-0.173,7.053,0.766,10.596,1.956c1.707,0.573,3.327,1.607,4.994,2.439
			s3.343,1.775,5.008,2.714c4.771,2.691,9.375,5.466,14.063,8.455c0.879,0.56,2.383,1.572,3.248,2.149
			c0.865,0.577,1.408,0.958,2.189,1.489c0.78,0.53,1.51,1.044,2.283,1.598c1.535,1.1,3.07,2.241,4.577,3.398
			c0.755,0.58,1.604,1.343,2.318,1.908c0.713,0.565,1.576,1.177,2.234,1.591c1.402,0.882,2.791,1.603,4.133,2.312
			c0.677,0.358,1.177,0.595,1.726,0.923c0.548,0.328,0.988,0.616,1.462,0.913c0.474,0.297,1.103,0.565,1.53,0.695
			c0.427,0.129,0.675,0.113,0.986,0.119s0.374-0.089,0.521-0.255s0.104-0.244,0.148-0.456s0.023-0.538,0.032-0.764
			c0.009-0.226-0.005-0.271-0.022-0.522c-0.017-0.251-0.02-0.219-0.05-0.638s-0.114-1.453-0.152-1.99
			c-0.204-2.871-0.362-5.71-0.493-8.569c-0.976-4.112-1.924-8.169-2.835-12.327c-0.102-0.464-0.278-1.29-0.374-1.745
			c-0.096-0.455-0.125-0.564-0.213-0.994c-0.088-0.43-0.036-0.178-0.171-0.86c-0.135-0.682-0.307-1.526-0.534-2.686
			c-0.227-1.159-0.732-3.648-0.99-4.999c-0.688-3.599-1.412-7.128-2.029-10.662c-1.233-7.058-2.459-14.194-3.336-21.249
			c-0.877-7.055-1.363-14.072-1.339-21.09c0.012-3.506,0.372-6.945,0.848-10.279s1.3-6.645,2.309-9.648
			c1.009-3.003,2.327-5.244,3.942-7.766c0.401-0.627,0.81-0.995,1.248-1.477s0.806-0.829,1.297-1.191
			c0.984-0.726,1.817-1.259,2.989-1.743s2.412-0.817,3.757-1.1c0.666-0.14,1.376-0.246,2.221-0.361
			c0.414-0.057,0.471-0.064,1.262-0.152c0.791-0.088,0.043-0.007,1.9-0.208c1.857-0.202,7.122-0.792,9.794-1.076
			c14.253-1.515,28.479-2.78,42.763-3.465C897.302,809.525,899.25,809.424,901.194,809.259z M943.154,732.774
			c-0.248,0.533-3.025-1.377-3.415-1.671C940.219,731.253,943.402,732.241,943.154,732.774z M827.803,592.078
			c0.023-1.731,0.172-6.357,0.328-8.505c8.929,1.047,19.025-0.464,27.164,3.613c8.139,4.077,13.02,12.615,20.792,16.488
			s14.709,6.101,22.744,8.967c6.492,11.276,19.646,18.638,20.92,32.413c1.274,13.775-3.556,26.728-0.823,40.56
			c2.572,13.019,24.556,29.447,12.766,41.832c-1.188,1.247-33.199-18.791-43.535-28.098c-10.336-9.308-64.232-24.585-79.021-12.35
			C816.275,655.124,827.354,625.249,827.803,592.078z M625.56,981.048c-0.028-0.027,0.051,0.033-0.092-0.208
			c-0.142-0.242-0.482-0.86-0.876-1.241s-1.181-1.018-1.81-1.18c-1.655-1.583-3.288-3.139-4.934-4.711
			c6.67,3.259,10.847,7.518,14.569,13.903C630.126,985.416,627.863,983.283,625.56,981.048z"/>
		<g>
			<path d="M39.419,778.147c-4.8-21.691-10.88-43.563-14.913-62.839c-4.033-19.276-3.34-30.65,3.932-46.291
				c6.599-14.193,17.351-18.289,27.512-29.15c9.692-10.359,19.784-19.197,31.796-28.428c19.164-14.727,42.436-25.89,65.379-34.424
				c13.673,1.942,27.117,3.992,40.781,5.405c12.207,12.949,25.046,25.149,38.326,36.99c-6.865,6.013-13.725,12.033-20.575,18.064
				c-12.992-8.34-26.043-16.311-39.964-23.023c18.571,18.077,37.026,36.234,55.862,54.057c-7.256,5.298-13.606,9.727-22.096,13.538
				c-4.586,2.058-11.169,4.349-15.697,7.188c-13.341,8.362-16.625,13.783-10.963,28.062c4.616,11.641,5.973,16.341,1.753,27.563
				c-2.342,6.229-7.613,9.824-10.839,15.417c-1.535,2.661-3.199,5.194-4.692,7.883c0.571,0.529,1.136,1.081,1.699,1.624
				c4.737-3.267,9.459-6.526,14.089-9.963c14.343-1.698,23.675,2.406,35.296,10.05c4.329,2.848,7.163,4.759,10.868,7.735
				c1.478,1.187,0.876,3.113,2.003,4.385c1.366,1.542,2.556,2.535,4.525,3.286c8.183,3.119,16.106,4.324,25.053,5.768
				c4.571,0.738,9.985,1.751,15.181,1.9c3.94,0.113,7.33-0.657,11.941-1.256c4.997-0.649,11.42-1.728,14.759-6.642
				c0.719-1.813,0.81-5.133,0.525-6.669c-0.285-1.536-0.483-0.872-0.999-1.929c-0.317,1.106-3.232,1.817-3.763,1.934
				c-3.25,0.717-6.457,1.354-9.263,2.011c-5.748,1.347-10.592,1.521-16.302,0.838s-11.672-2.131-17.215-2.997
				c-1.774-0.277-2.929-0.438-4.411-0.77c-1.482-0.332-2.804-0.077-4.08-0.7c-2.151-1.051-2.039-3.291-3.287-5.148
				c-2.471-3.675-5.984-5.3-9.991-7.478c-1.276-0.694-3.109-1.557-4.724-2.349c-3.334-1.636-6.691-2.996-10.184-4.884
				c-6.309-3.409-13.706-6.37-20.693-7.411c-2.281-0.34-5.687,0.754-6.833-0.009c-6.7-4.458,5.774-5.299,7.176-13.755
				s-7.615-17.155-7.774-26.788s8.59-12.985,18.645-16.696c10.055-3.711,29.729-9.785,32.188-23.424s-11.773-16.434-19.357-24.745
				c12.521-8.266,11.42-17.018,28.613-19.921s31.232,3.975,51.177,2.571c19.944-1.404,42.938-18.964,63.515-22.905
				c20.577-3.94,37.494,8.78,56.643,11.17c19.149,2.389,36.751-4.445,54.534-7.572c4.426-0.778,4.503-1,8.157-2.169
				c0.5,2.354,0.738,1.222,1.803,3.492c4.862,10.359,2.884,8.204,8.348,22.763s16.476,43.271,21.966,61.12
				c-32.611,10.876-66.827,11.224-100.447,18.17c-25.471,5.262-41.937,25.372-58.217,44.201c-4.352,5.033-8.382,9.838-12.857,14.601
				c-5.419,5.769-11.028,11.054-16.939,16.355c-2.697,2.419-3.315,5.773-3.797,9.232c2.945-1.215,6.501-2.553,9.03-4.425
				c21.067-15.592,40.757-33.653,61.26-49.551c16.27-12.615,32.944-20.328,52.595-25.136c21.828-5.341,44.197-6.05,66.242-9.877
				c2.231,2.342,4.916,4.347,6.937,6.77c2.021,2.423,3.879,4.877,5.749,7.318c6.484,8.466,13.265,16.713,19.364,25.406
				c3.63,5.174,5.519,10.392,6.695,16.586c0.693,3.647,0.632,7.575,1.026,11.333c0.249,2.376,0.317,4.784,0.497,7.215
				c0.676,9.107,1.196,18.101,2.213,27.28c0.214,1.932,1.211,4.247,1.996,6.132c0.198,0.476,0.593,0.974,0.872,1.409
				c0.221-0.344,0.483-0.728,0.653-1.087c0.17-0.359,0.245-0.661,0.38-1.022c0.135-0.361,0.184-0.542,0.333-0.972
				c0.149-0.43,0.424-1.253,0.569-1.711s0.219-0.718,0.352-1.158c0.133-0.439,0.319-1.093,0.433-1.513
				c0.114-0.419,0.196-0.763,0.284-1.112c0.088-0.349,0.142-0.546,0.219-0.869c0.086,0.292,0.104,0.609,0.26,0.864
				c0.293-5.059,1.429-10.319,0.526-15.656c-0.508-2.999,1.27-21.763,1.587-21.69c28.095,6.421,54.034,20.392,83.893,16.659
				c-3.196-0.27-7.001-1.539-9.961-2.228s-7.244-1.793-9.342-2.323c-1.605-0.405-0.973-0.245-1.052-0.266
				c-6.631-1.748-13.513-3.64-20.161-5.699c-1.555-0.482-3.079-1.078-4.574-1.649c-0.759-0.29-1.549-0.642-2.222-0.962
				c-0.672-0.32-1.304-0.433-1.846-0.852c-1.035-0.799-1.771-1.805-2.747-2.641c-5.54-3.647-11.251-6.806-16.113-11.417
				c-14.519-13.772-27.596-28.718-39.858-44.527c-2.04-2.63-3.835-5.372-5.506-8.222c-3.815-6.506-7.301-13.11-10.089-20.122
				c-3.29-8.275-6.201-16.68-9.049-25.116c-5.4-15.999-10.471-32.109-15.839-48.119c6.093-0.458,12.179-0.901,18.27-1.346
				c1.892-3.575,3.785-7.147,5.676-10.725c30.48,5.965,59.812,2.659,88.645-8.631c1.157,2.918,1.361,6.842,2.581,9.695
				c8.843,20.69,14.171,31.299,37.147,35.645c22.976,4.346,39.249-4.284,54.699-20.044c9.589-9.782,9.82-23.691,14.637-35.729
				c8.146,1.475,16.459,3.336,24.66,5.013c0.575,9.922,2.218,19.134,5.734,28.448c4.253-1.925,6.381-4.367,7.891-8.772
				c-1.645-0.36-3.289-0.722-4.935-1.083c-0.002-4.537-0.031-9.077,0.053-13.611c4.313-3.906,9.162-5.684,14.711-7.03
				c18.027-4.373,35.501-7.875,51.644-17.492c10.966-6.533,19.961-14.967,26.778-25.922c6.455-10.373,10.181-21.596,11.56-33.875
				c2.171-19.326-2.024-35.901-9.809-53.767c-0.508-1.167-1.881-3.698-2.012-5.219c5.642,0.483,11.326,1.267,16.979,1.927
				c9.833,15.422,12.224,16.83,30.528,17.209c-7.944-4.255-15.888-8.512-23.829-12.773c-0.164-2.796-0.323-5.585-0.482-8.386
				c-1.363-0.606-2.751-1.379-4.192-1.805c-22.545-6.667-45.942-11.555-68.641-16.88c-3.343-0.784-6.32-1.894-8.758-2.883
				c-1.794-0.727-0.39-0.185-0.695-0.315c-0.305-0.13-0.105-0.026-0.19-0.089c-9.806-7.229-13.938-15.322-16.535-27.046
				c3.637,0.828,7.339,2.104,10.854,3.207c12.285,3.854,24.189,6.189,37.07,6.777c4.353,0.199,9.014,0.208,13.356,0.919
				c3.804,0.623,7.527,1.034,11.342,1.235c1.271,0.067,2.474,0.07,3.736,0.04c5.047-0.121,10.062-0.478,15.107-0.833
				c0.815-0.057,1.653-0.144,2.49-0.134c8.566,0.104,16.915,0.79,25.39,2.21c4.288,0.718,8.319,1.792,12.727,2.595
				c2.429,0.443,4.499,0.913,7.437,1.339c1.289,0.187,5.061,0.224,6.468,1.409c-0.203-0.647-0.525-1.299-0.914-1.892
				c-6.222-9.478-12.708-17.566-21.769-24.621c-3.916-3.049-8.638-5.551-12.89-8.423c-8.446-5.704-16.921-11.741-25.187-17.77
				c-1.029-0.751-2.088-1.529-3.239-2.043c-2-0.893-4.111-1.136-6.2-1.775c-1.562-0.477-3.25-1.973-4.838-2.098
				c-6.711-0.529-12.685-2.001-19.407-0.73c-7.99,1.51-14.383,6.481-22.581,8.739c-1.211,0.334-5.284-4.759-6.088-5.562
				c-5.469-5.458-10.59-10.109-16.824-14.18c-6.235-4.071-12.926-6.947-19.813-9.711c-7.678-3.081-15.456-5.882-23.508-7.866
				c-16.163-3.982-32.532-6.295-49.039-8.32c-0.811-0.099-1.627-0.159-2.442-0.203c-1.703-0.092-3.384-0.38-5.094-0.437
				c-32.386-1.081-64.393,1.077-95.794,9.52c-27.233,7.323-52.298,19.301-76.765,33.131c-0.307,0.173-0.655,0.081-0.931,0.293
				s-0.35,0.347-0.66,0.58c-2.581,1.948-5.206,3.877-7.369,6.335c-0.075,0.085-0.121,0.287-0.209,0.306
				c-0.088,0.019-0.006-0.162-0.002-0.231c0.456-9.195,0.789-18.377,0.953-27.621c11.949-10.597,23.658-21.358,37.508-29.45
				c14.579-8.518,29.723-15.576,45.729-20.927c16.759-5.603,33.861-9.351,51.304-11.987c19.844-2.998,39.827-3.591,59.853-4.226
				c7.313-0.232,14.604,0.049,21.917,0.252c4.771,0.133,9.481,0.803,14.256,1.093c22.908,1.39,45.628,1.447,68.39-1.815
				c1.878-0.269,3.709-0.828,5.577-1.129c2.234-0.359,4.486-0.61,6.711-0.961c-4.408,21.063-6.319,41.372-3.763,62.837
				c0.271,2.276,2.848,2.864,4.849,2.816c0.149-0.004,0.377-0.063,0.504-0.131c1.184,4.074,1.839,8.082,1.942,12.325
				c1.94,0.293,3.875,0.618,5.804,0.981c0.816-0.141,1.635-0.252,2.445-0.426c0.05-0.011,0.047-0.08,0.048-0.132
				c0.057-3.978,0.987-7.72,0.4-11.75c-0.587-4.03-2.369-7.784-4.244-11.436c-0.889-1.732-2.013-3.361-3.167-5.008
				c-0.759-1.084-2.657-3.256-2.628-4.526c0.879-38.406,16.448-72.756,33.762-106.076c19.018-36.6,38.573-73.115,38.734-115.371
				c0.073-19.225-5.838-37.246-17.37-52.698c-11.25-15.073-26.299-25.403-44.328-30.532c-40.336-11.476-80.731-2.207-121.04,4.069
				c-26.014,4.05-51.879,5.959-78.004,1.746c-10.604-1.71-20.091-7.104-30.869-8.657c-40.779-5.875-80.317,1.812-116.697,21.068
				c-0.307,0.163-0.798,0.45-1.073,0.654c-14.697,10.972-28.663,22.564-42.402,34.719c-13.297,11.763-27.001,23.086-41.256,33.705
				c-3.802,2.006-7.472,4.146-10.991,6.613c-0.675,0.474-1.45,0.865-2.158,1.281c-3.807,2.244-8.144,4.584-11.716,6.963
				c-5.445,3.628-10.271,7.085-14.936,11.501c-0.309,0.293-0.525,0.606-0.742,0.93c-9.897,14.765-16.318,29.145-18.619,46.84
				c-0.37,2.842-0.092,5.775,0.367,8.512c1.626,9.705,4.015,18.558,8.785,27.208c2.447,4.436,5.1,8.647,8.968,12.083
				c12.243,10.876,24.485,17.918,39.398,25.845c12.554,6.673,27.969,13.599,41.233,20.128c13.264,6.528,28.34,13.534,40.971,19.939
				c7.55,3.828,10.79,7.042,16.209,12.498c1.181,1.189,1.305,2.422,1.569,3.931c0.511,2.921,0.102,5.152,0.112,8.236
				c0.025,7.701-0.162,15.905-0.348,23.722c-0.218,0.289-0.616,0.438-0.803,0.728c-0.917,1.424-0.564,2.324,0.691,3.359
				c-0.196,6.52-0.394,13.399-0.559,19.792c-0.041,1.6-0.015,2.33-0.088,3.709c-0.043,0.805-0.055-1.729-0.18,0.217
				c-0.125,1.946,0.118-2.324-0.168,2.843s-0.789,14.611-1.191,22.229c-0.319,6.05-0.883,16.888-1.09,23.702
				c-0.995,0.671-2.024,0.577-3.081,0.86c-2.033-2.748-3.956-5.747-5.907-8.533c-6.015-8.587-10.65-18.715-17.381-26.595
				c-6.256-7.324-12.504-9.783-22.027-9.283c-5.383,0.282-9.765,4.086-13.828,7.558c-8.278,7.074-16.112,14.938-24.153,22.311
				c-0.039,0.035-0.079,0.097-0.117,0.133c-10.814,10.195-21.659,20.676-32.598,30.658c-4.339,3.959-9.638,7.075-14.508,9.721
				c-14.321,7.781-25.833,16.601-36.834,28.423c-2.337,1.232-4.87,2.344-7.261,3.518c-14.168,6.956-29.635,12.827-42.648,21.574
				c-14.484,9.736-25.6,21.644-36.887,34.568c-4.502,5.155-7.872,10.838-11.721,16.466c-3.654,5.343-6.766,11.103-10.142,16.676
				c-0.487,0.804-0.949,1.688-1.449,2.562c-2.533,4.423-5.037,8.965-7.633,13.368c-2.603-2.856-5.957-5.164-9.69-5.955
				c-5.353-1.133-11.554-2.133-16.665-2.27c-15.047-0.401-30.139-1.101-44.201,3.46c-15.4,4.994-30.961,11.526-44.086,19.861
				c-23.56,14.961-40.059,36.403-58.813,55.974c-5.779,6.031-9.38,11.217-11.473,19.124c-4.896,18.495-3.022,34.445-1.862,54.402
				c0.271,4.668,2.85,19.15,4.293,24.134c6.707,23.166,11.774,44.344,19.451,66.751c2.834,8.272,4.844,17.565,6.186,26.535
				c1.149,7.682,1.663,15.258,6.05,22.002c0.902-0.362,2.141-1.009,2.635-1.829c1.106-1.833,1.441-3.957,1.597-6.058
				C50.356,828.241,44.531,801.248,39.419,778.147z M616.84,503.949c-2.211,20.73-6.624,29.058-25.39,40.153
				c-7.045,4.165-14.262,8.431-22.199,10.942c-11.886,3.76-23.459,2.495-35.625,0.71c24.46-19.677,50.809-36.802,75.434-56.258
				c-0.728-1.203-1.428-2.402-2.21-3.591c-2.594,1.124-5.69,1.677-7.947,3.41c-21.778,16.723-43.016,34.017-64.534,51.006
				c-1.184,0.935-2.369,1.79-3.695,2.483c-26.36-12.818-30.268-20.912-27.857-49.462c0.919-10.882,4.895-19.838,11.275-27.317
				c10.813-12.673,22.46-20.581,38.96-20.946c21.096-0.467,37.649,6.218,53.804,19.723
				C615.958,482.411,618.182,491.368,616.84,503.949z M686.935,617.282c-18.722,1.512-37.372,1.157-56.133,0.82
				c-1.963-4.561-3.92-9.139-5.882-13.698c-1.669-3.878-3.325-7.767-5.037-11.607c6.202-11.658,13.113-21.986,20.959-32.775
				c5.918-8.139,10.768-17.75,15.353-26.847c4.02-0.142,8.023-0.095,12.036-0.115c0.098,0.197,0.16,0.422,0.265,0.614
				c8.008,14.714,17.882,26.644,30.375,37.767c0.117,0.104,0.255,0.184,0.379,0.279c0.893,0.685,1.788,1.357,2.694,2.026
				c0.359,0.265,0.727,0.522,1.091,0.785c0.685,0.493,1.363,0.987,2.057,1.474c1.067,0.749,2.151,1.49,3.23,2.226
				C705.364,594.672,698.571,605.491,686.935,617.282z M828.623,521.141c0.163-23.61-2.954-46.225-10.723-68.569
				C840.572,477.229,840.745,490.77,828.623,521.141z M813.488,503.185c-0.193,5.257-1.25,9.295-3.292,13.583
				c-4.908,10.304-10.803,17.137-20.075,23.889c-5.181,3.773-12.317,6.616-17.764,10.347c-7.266,0.015-14.423,0.047-21.647,0.073
				c-0.116,0.574-0.242,1.148-0.361,1.72c8.619,3.104,17.275,6.113,25.846,9.343c-5.333,3.519-10.735,6.586-17.286,6.021
				c-13.617-1.174-25.747-5.463-38.394-10.227c2.473-3.254,4.948-6.426,7.352-9.716c-0.679-1.114-1.491-2.591-2.596-3.42
				c-18.897-14.183-27.843-23.169-23.489-47.315c4.669-25.89,18.731-39.386,41.913-49.979c7.505-3.429,15.92-4.088,25.441-2.112
				C801.356,452.081,814.698,470.2,813.488,503.185z M817.55,363.108c2.688-2.128,6.978-2.379,10.647-1.732
				c8.596,1.515,17.497,3.568,26.1,5.469c0.777,0.172,1.58,0.366,2.355,0.548c0.026,0.006,0.028,0.046,0.04,0.069
				c0.527,1.053,1.083,2.126,1.651,3.148c0.193,0.346,0.421,0.694,0.608,1.008c0.365,0.613,0.813,1.355,1.16,1.886
				c0.348,0.531,0.529,0.762,0.867,1.247c0.337,0.486,0.778,1.112,1.13,1.576c0.352,0.463,0.607,0.764,0.964,1.208
				s0.804,0.994,1.179,1.424c0.374,0.43,0.673,0.747,1.057,1.163c0.384,0.416,0.847,0.913,1.247,1.318
				c0.4,0.404,0.735,0.724,1.146,1.117c0.411,0.394,0.895,0.85,1.321,1.233c0.426,0.383,0.797,0.703,1.234,1.076
				c0.437,0.373,0.952,0.805,1.398,1.164c0.447,0.359,0.86,0.69,1.303,1.025c0.734,0.556,1.448,1.124,2.2,1.65
				c7.403,5.189,14.865,10.288,22.282,15.456c-0.757,0.976-1.501,1.969-2.227,2.964c-4.363-1.142-8.656-2.498-12.991-3.725
				c-8.908-2.522-17.409-3.804-26.744-3.637c-1.327,0.024-2.928-0.039-4.412-0.2c-4.937-0.534-10.027-1.032-15.015-1.545
				c-8.113-0.833-16.396-1.698-24.423-2.565c-0.82-0.089,1.398,0.172-0.689-0.08c-2.087-0.252-4.532-0.439-6.959-0.811
				c-4.954-0.758-10.297-1.95-15.321-2.999C797.833,381.383,806.628,371.756,817.55,363.108z M785.846,376.607
				c-0.012,0.011,0.538-0.474-1.374,1.208s-8.66,7.61-11.459,10.072c-4.715-0.009-9.057-0.673-13.628-1.001
				c-1.906,5.058-3.831,10.123-5.748,15.184c-4.061,1.3-8.155,2.583-12.232,3.789c-0.41,0.121-0.777,0.222-1.156,0.326
				c-1.174,0.321-2.324,0.618-3.49,0.911c-0.284,0.071-0.564,0.141-0.837,0.202c-2.282,0.514-4.563,0.968-6.863,1.355
				c-0.225,0.038-0.443,0.069-0.663,0.096c-2.298,0.281-4.591,0.476-6.904,0.584c-0.182,0.008-0.362,0.01-0.548,0.01
				c-1.185-0.001-2.337-0.005-3.533-0.064s-2.455-0.176-3.648-0.294c-0.162-0.016-0.407-0.055-0.534-0.068
				c-0.918-0.095-2.659-0.387-3.32-0.501c-0.662-0.115-0.228-0.041-0.35-0.062c-0.122-0.021-0.028-0.003-0.069-0.013
				c-1.945-0.42-3.86-0.86-5.78-1.354c-0.044-0.011-0.088-0.022-0.134-0.035c-0.913-0.263-1.821-0.536-2.73-0.821
				c-0.129-0.04-0.256-0.073-0.39-0.119c-1.068-0.361-2.149-0.7-3.199-1.126c9.13-5.205,18.138-11.199,27.419-16.007
				c9.281-4.808,17.813-10.285,27.717-13.591c12.885-4.302,25.961-4.018,39.4-4.021
				C789.838,373.137,787.952,374.727,785.846,376.607z M503.656,372.128c5.9-3.596,11.755-7.244,17.686-10.778
				c3.793-2.26,7.739-4.294,11.688-6.265c18.024-8.996,36.436-16.833,55.399-23.634c39.22-6.861,78.688-8.16,118.22-3.267
				c0.015,0.01-0.007,0.059,0.015,0.062c6.263,0.863,12.299,2.287,18.32,4.223c9.212,2.299,18.119,5.526,27.188,8.31
				c0.012-0.265,0.032-0.246,0.003-0.01c6.577,3.136,13.058,5.898,19.595,9.251c6.826,3.5,13.128,7.924,18.907,13.045
				c-0.645,0.124-1.235,0.18-1.91,0.25c-0.209,0.022-0.38,0.03-0.681,0.054c-0.301,0.024-0.964,0.067-1.296,0.084
				c-0.332,0.017-0.47,0.023-0.801,0.038c-0.331,0.015-1.005,0.032-1.3,0.046s-0.497-0.002-0.689,0.02
				c-0.563,0.063-1.208-0.04-1.712,0.015c-16.299,1.795-31.781,3.348-46.799,10.496c-13.758,6.548-26.716,15.052-39.154,23.906
				c-5.564,3.961-5.062,9.796-4.225,15.869c4.387,2.803,8.78,5.372,13.199,8.037c-14.847,12.679-26.778,26.642-37.141,43.185
				c-6.213,0.882-12.488,1.878-18.672,2.617c-12.999-12.016-23.128-26.2-38.849-35.137c-15.362-8.733-33.326-10.627-50.401-14.49
				c0.169-3.35,0.657-6.79,1.012-10.173c-24.302-1.826-48.205,0.19-72.207,4.163c0.349-5.123,0.657-9.573,1.028-14.858
				s0.803-11.403,1.187-16.85C495.322,377.466,499.429,374.705,503.656,372.128z M491.287,286.855
				c0.252-0.169,0.18-0.533,0.472-0.664c0.293-0.131,0.677,0.059,0.989-0.064c-0.001,0.471-0.023,0.936-0.032,1.405
				C492.239,287.307,491.764,287.09,491.287,286.855z M475.046,33.593c2.243-1.301,4.511-2.556,6.784-3.803
				c-2.656,1.478-5.297,2.977-7.918,4.515C474.292,34.071,474.659,33.817,475.046,33.593z M476.091,279.763
				c-4.213-1.943-8.424-3.893-12.636-5.837c2.903,1.273,5.816,2.508,8.705,3.818c0.228,0.103,0.367,0.336,0.609,0.438
				c1.103,0.465,2.224,0.925,3.319,1.418C476.142,279.624,476.067,279.719,476.091,279.763z M483.962,278.179
				c-2.826-1.356-5.302-2.547-8.277-3.533c-11.701-5.097-24.774-10.774-36.111-15.699c-6.308-2.741-10.301-4.482-16.139-7.02
				c-0.501-0.218-0.809-0.08-1.273-0.263c-0.464-0.183-0.66-0.495-1.132-0.639c-2.598-0.791-5.231-1.541-7.789-2.496
				c-0.766-0.286-1.444-0.773-2.152-1.182c-9.577-5.53-19.301-11.047-28.887-16.489c-4.795-2.722-9.587-5.364-14.129-8.321
				c-4.542-2.957-8.458-6.199-12.434-9.808c-0.617-0.56-1.142-1.108-1.686-1.807c-5.202-6.673-9.264-13.444-10.462-21.873
				c-0.591-4.16-0.467-7.925-0.781-11.994c-0.264-3.433-0.45-6.772,0.065-10.203c1.436-9.58,2.632-18.891,8.143-27.138
				c5.511-8.248,13.728-13.75,21.844-19.059c10.032-6.562,20.952-11.263,30.551-18.295c18.26-13.379,33.123-30.5,50.536-44.856
				c10.09-8.319,20.625-15.937,32.613-21.254c18.455-8.186,37.32-14.108,57.406-16.115s39.691,1.157,59.507,3.627
				c9.227,1.15,18.141,4.47,27.32,5.432c9.179,0.962,18.129,1.534,27.295,0.92c18.234-1.222,36.006-4.212,54.085-7.116
				c38.518-6.188,77.693-13.505,115.226,1.646c16.847,6.8,28.958,19.159,37.173,35.467c8.215,16.308,10.605,34.449,8.062,52.596
				c-5.782,41.261-28.294,76.154-46.612,112.664c-6.397,12.75-11.973,25.951-16.85,39.355c-0.184,0.029-0.353,0.026-0.534,0.063
				c-1.633,0.336-3.288,0.684-4.915,1.017c-0.189,0.039-0.351,0.142-0.518,0.168c-16.913,2.662-33.784,4.14-50.891,4.552
				c-2.268,0.055-4.518-0.219-6.772-0.303c-0.48-0.018-0.759,0.236-1.217,0.248c-1.882,0.05-3.809-0.026-5.713-0.089
				c-17.461-0.585-34.951-1.534-52.411-2.178c-7.545-0.278-15.105-1.131-22.672-0.815c-21.197,0.886-42.07,2.527-62.65,8.041
				c-19.955,5.346-38.812,13.077-57.22,22.474c-16.909,8.632-32.06,19.709-47.488,30.86c0.451-6.457,0.547-9.135,1.087-16.218
				c2.478-32.515,4.832-66.591,4.155-99.646c-5.328,22.717-7.442,45.875-8.449,69.203
				C489.957,280.802,486.788,279.536,483.962,278.179z M496.68,418.981c17.482-5.548,35.547-6.737,53.445-10.085
				c0.306,1.157,0.616,2.201,0.975,3.315c-10.159,6.452-19.905,13.383-30.483,19.22c-4.25,2.346-9.303,2.9-14.051,3.164
				c-15.9,0.885-31.302,2.678-46.981,5.381c-1.877,0.324-4.036,0.175-5.973-0.024C467.901,432.902,481.441,423.817,496.68,418.981z
				 M245.676,521.6c5.208-6.818,11.774-12.317,18.743-17.397c2.734-1.993,6.017-3.5,8.909-5.31c0.585-0.366,1.227-0.691,1.84-1.033
				c2.846-1.583,5.727-3.13,8.605-4.663c0.859-0.458,1.729-0.906,2.595-1.356c2.211-1.149,4.429-2.294,6.647-3.429
				c3.995-2.045,8.001-4.083,11.991-6.132c2.952-1.516,5.886-3.051,8.823-4.59c16.751-18,36.188-30.106,59.725-37.24
				c2.11-3.801,3.881-8.551,6.685-11.797c14.094-16.316,28.82-31.848,43.267-47.642c0.895-0.979,1.973-1.932,2.672-2.523
				c0.699-0.591,0.274-0.22,0.336-0.277c0.707-0.658,1.422-1.171,2.187-1.827c0.403-0.346,0.814-0.636,1.279-1.067
				c0.465-0.431,1.083-1.115,1.701-1.456c0.02-0.011,0.074-0.01,0.098-0.009c4.441,0.122,8.877,0.062,13.318,0.017
				c0.348-0.004,0.694,0.001,1.042,0c0.899,1.801,1.789,3.612,2.67,5.42c0.881,1.808,1.758,3.609,2.645,5.412
				c0.266,0.541,0.528,1.08,0.8,1.618c1.024,2.023,2.018,4.051,3.095,6.05c0.802,1.489,1.575,2.99,2.46,4.439
				c4.504,7.376,9.312,14.562,14.084,21.769c-4.142,2.489-8.289,4.974-12.433,7.461c-12.26-7.727-24.52-15.452-36.774-23.188
				c-0.052,0.212-0.096,0.387-0.137,0.61c-0.041,0.223-0.082,0.476-0.11,0.713c-0.028,0.238-0.051,0.457-0.061,0.711
				s-0.006,0.632,0.016,0.874s0.043,0.365,0.081,0.587c0.038,0.222,0.102,0.489,0.162,0.703c0.06,0.213,0.073,0.283,0.153,0.516
				c0.08,0.234,0.282,0.701,0.393,0.921c0.111,0.22,0.149,0.282,0.254,0.477c0.105,0.195,0.29,0.513,0.395,0.685
				c0.105,0.172,0.163,0.27,0.251,0.404c0.579,0.882,1.135,1.703,1.725,2.596c0.041,0.062,0.062,0.089,0.164,0.25
				c0.102,0.161,0.402,0.641,0.528,0.867c-1.085,1.654-2.221,3.267-3.355,4.881c-0.337,0.481-0.683,0.949-1.025,1.421
				c-0.837,1.153-1.682,2.296-2.536,3.432c-0.373,0.496-0.748,0.989-1.126,1.477c-0.953,1.228-1.92,2.441-2.895,3.649
				c-0.253,0.313-0.501,0.629-0.757,0.936c-1.267,1.517-2.553,3.014-3.858,4.497c-0.17,0.193-0.347,0.378-0.519,0.568
				c-1.139,1.247-2.289,2.483-3.458,3.701c-0.343,0.358-0.691,0.709-1.04,1.058c-1.079,1.081-2.169,2.147-3.274,3.199
				c-0.323,0.308-0.64,0.618-0.972,0.916c-2.927,2.621-5.92,5.128-9.014,7.564c-0.086,0.068-0.154,0.127-0.282,0.222
				c-0.129,0.095-0.323,0.224-0.493,0.347c-1.522,1.106-3.08,2.207-4.647,3.268c-0.339,0.229-0.678,0.462-1.027,0.685
				c-1.833,1.171-3.69,2.305-5.572,3.401c-0.212,0.124-0.435,0.236-0.654,0.355c-1.695,0.921-3.399,1.811-5.131,2.671
				c-0.503,0.25-1.01,0.495-1.527,0.734c-2.004,0.928-4.039,1.803-6.078,2.663c9.688,1.455,18.25,1.606,27.628-1.608
				c2.631-0.902,5.069-2.585,7.665-3.638c0.56-0.227,1.098-0.531,1.646-0.778c2.571-1.159,5.143-2.308,7.739-3.405
				c0.186-0.079,0.373-0.15,0.559-0.224c2.491-0.995,4.993-1.953,7.513-2.871c0.407-0.149,0.813-0.299,1.226-0.438
				c2.691-0.909,5.395-1.761,8.12-2.57c0.114-0.034,0.211-0.071,0.337-0.106c0.784-0.212,1.41-0.372,2.246-0.59
				c0.836-0.218,1.785-0.483,2.695-0.703c1.81-0.436,3.712-0.854,5.548-1.242c15.784,0.776,30.97-1.012,46.593-3.377
				c-15.263,15.46-29.489,25.107-51.323,29.334c-22.741,4.403-43.966,11.909-62.874,26.241c-8.534,6.469-17.957,13.182-26.958,19.37
				c-4.001,2.751-8.159,5.817-11.979,8.892c14.694-3.368,28.285-7.471,41.498-15.022c10.064-5.752,18.92-13.834,29.205-19.437
				c7.317-3.986,14.769-5.757,23.134-7.156c9.884-1.654,20.528-2.895,30.543-4.703c-2.727,5.08-4.858,8.625-10.555,10.88
				c-5.697,2.255-13.033,2.498-18.75,4.932c-22.263,9.48-36.02,24.962-45.325,46.987c8.373,4.87,17.339,6.027,26.28,9.8
				c8.941,3.773,17.226,10.155,25.844,14.815c17.158-3.664,33.435-4.847,50.886-2.718c1.765,0.215,3.505,0.876,5.251,1.231
				c1.015-3.645,2.029-7.305,3.041-10.959c26.142,12.15,52.558,19.521,81.581,16.747c-11.305,6.043-21.021,10.277-34.229,9.222
				c-9.853-0.787-19.916-4.659-29.776-6.316c-0.033-0.006-0.022,0.031-0.024,0.07c-0.434,9.149-1.388,17.837-4.395,26.517
				c-5.21-1.134-10.049-3.226-15.349-4.061c-13.076-2.061-25.399-1.801-38.561,0.243c-14.999,2.33-30.033,3.792-45.38,3.436
				c-3.297-0.077-6.492-2.14-9.664-3.192c-9.648-3.198-19.304-5.631-29.433-6.821c-1.155-0.136-2.242-0.153-3.47-0.083
				c-3.881,0.222-7.451,0.282-11.381,1.123c-10.955,2.344-20.826,6.61-31.404,10.708c-18.768,7.272-36.651,10.688-57.05,9.409
				c-8.292-0.52-17.38-2.425-25.826-2.925c-11.447-10.772-22.837-21.444-34.255-32.211
				C219.176,559.234,231.643,539.97,245.676,521.6z M446.696,425.847c-8.574,3.68-17.328,6.452-26.357,8.779
				c3.593-5.765,7.185-11.53,10.776-17.295C436.31,420.168,441.504,423.007,446.696,425.847z M459.269,552.564
				c-7.686,1.74-15.371,3.478-23.057,5.216c-14.902-7.087-29.725-11.627-46.089-13.818c13.94-31.254,26.695-42.364,61.497-44.238
				C452.82,517.648,454.85,535.124,459.269,552.564z"/>
		</g>
		<path d="M752.195,340.815c0.004-0.121-0.014-0.058-0.014-0.041C752.176,341.146,752.191,340.936,752.195,340.815z"/>
		<path d="M541.061,1129.809c22.723,1.577,45.514,3.46,68.189,4.831c25.999,1.572,51.272-1.533,76.706-6.515
			c4.94-0.968,9.667-2.794,14.156-4.956c9.501-4.574,18.469-9.907,27.748-14.85c-68.131,0.34-135.671,9.401-203.049,18.645
			C530.197,1127.968,535.593,1129.43,541.061,1129.809z"/>
		<path d="M651.65,1163.97c-24.323-2.791-47.835-1.463-71.809,2.741c41.678,12.947,81.451,13.079,123.829,3.591
			c-4.806-0.511-10.938-1.271-15.477-1.765C675.783,1167.187,663.674,1165.349,651.65,1163.97z"/>
		<path d="M106.149,831.694c-4.866,6.719-8.795,14.29-10.507,22.594c10.821-2.162,20.238-4.912,27.311-13.925
			c11.961-15.242,21.529-31.236,32.087-47.741c3.011-4.708,4.198-11.391,2.756-17.138
			C138.973,792.825,121.274,810.808,106.149,831.694z"/>
		<path d="M607.156,690.913c7.249,12.034,16.244,22.411,25.859,32.652c13.855,3.326,26.493,4.213,40.532,1.475
			c-1.212-0.851-2.336-1.847-3.669-2.454c-12.097-5.511-22.461-11.403-33.745-18.949
			C627.658,697.969,617.337,693.436,607.156,690.913z"/>
		<path d="M366.116,1008.202c30.322,11.091,57.588,15.706,84.013-6.745C422.479,1008.665,394.536,1009.8,366.116,1008.202z"/>
		<path d="M549.83,374.046c0.76-0.917,1.519-1.788,2.304-2.692c0.289-0.332,0.503-0.565,0.843-0.945
			c0.34-0.381,0.928-1.028,1.293-1.419c0.364-0.39,0.624-0.665,0.976-1.031c0.352-0.366,0.788-0.802,1.136-1.148
			c0.348-0.346,0.607-0.602,0.946-0.93c0.052-0.05,0.074-0.076,0.151-0.147s0.206-0.176,0.309-0.27
			c0.666-0.605,1.371-1.226,2.064-1.797c0.228-0.188,0.453-0.361,0.673-0.53c0.61-0.467,1.224-0.908,1.851-1.332
			c0.221-0.15,0.437-0.296,0.652-0.429c0.7-0.43,1.401-0.817,2.126-1.189c0.113-0.058,0.22-0.123,0.331-0.174
			c0.846-0.387,1.701-0.728,2.579-1.031c0.118-0.041,0.24-0.066,0.36-0.102c0.751-0.219,1.498-0.414,2.267-0.573
			c0.258-0.054,0.521-0.094,0.79-0.137c0.681-0.108,1.361-0.196,2.057-0.263c0.29-0.028,0.581-0.055,0.887-0.071
			c0.78-0.043,1.571-0.06,2.365-0.063c0.237-0.001,0.47-0.009,0.725-0.003c1.12,0.028,2.264,0.09,3.389,0.171
			c0.012,0.001,0.023,0.001,0.036,0.002c0.915,0.081,1.805,0.17,2.726,0.274c0.329,0.037,0.676,0.081,1.024,0.125
			c0.725,0.092,1.465,0.188,2.201,0.292c0.335,0.047,0.695,0.095,1.041,0.148c1.063,0.162,2.291,0.338,3.32,0.515
			c3.999,0.688,7.887,1.444,11.877,2.038c0.127-1.132,0.385-2.242,0.516-3.374c-1.323-0.619-2.653-1.232-3.982-1.832
			c-0.224-0.101-0.447-0.203-0.666-0.299c-1.304-0.575-2.625-1.142-3.934-1.681c-0.401-0.165-0.813-0.326-1.191-0.475
			c-0.378-0.149-0.701-0.28-1.058-0.414c-0.76-0.286-1.466-0.543-2.239-0.812c-0.311-0.108-0.553-0.183-0.928-0.307
			c-0.375-0.124-1.022-0.334-1.424-0.456s-0.632-0.189-1.04-0.305c-0.408-0.116-0.979-0.273-1.399-0.38s-0.575-0.151-1.035-0.26
			c-0.46-0.109-1.149-0.257-1.679-0.364c-0.2-0.04-0.432-0.096-0.653-0.135c-0.784-0.139-1.533-0.259-2.348-0.367
			c-0.269-0.036-0.456-0.05-0.824-0.09c-0.367-0.04-1.151-0.115-1.555-0.141c-0.404-0.026-0.574-0.034-0.979-0.053
			c-0.404-0.019-1.153-0.033-1.533-0.033c-0.379,0-0.593-0.004-0.891,0.003c-0.741,0.018-1.412,0.059-2.135,0.11
			c-0.121,0.009-0.236,0.011-0.356,0.023c-0.828,0.084-1.66,0.192-2.481,0.321c-0.252,0.04-0.53,0.098-0.769,0.143
			c-0.555,0.104-1.257,0.248-1.744,0.364s-0.529,0.126-1.022,0.256c-0.493,0.13-1.201,0.337-1.763,0.515
			c-0.25,0.079-0.531,0.158-0.812,0.258c-0.902,0.32-1.742,0.613-2.665,1.002s-1.959,0.899-2.87,1.38
			c-0.262,0.138-0.522,0.291-0.769,0.437c-0.663,0.39-1.308,0.801-1.938,1.23c-0.208,0.142-0.418,0.279-0.61,0.424
			c-0.745,0.563-1.453,1.149-2.138,1.771c-0.127,0.115-0.234,0.237-0.351,0.354c-0.527,0.527-1.034,1.068-1.519,1.631
			c-0.172,0.199-0.335,0.4-0.495,0.604c-0.447,0.574-0.868,1.16-1.273,1.762c-0.09,0.134-0.186,0.262-0.27,0.399
			c-0.457,0.747-0.881,1.506-1.28,2.286c-0.102,0.2-0.193,0.406-0.288,0.612c-0.29,0.626-0.565,1.257-0.824,1.899
			c-0.095,0.235-0.189,0.471-0.278,0.713c-0.304,0.832-0.588,1.677-0.851,2.526c-0.005,0.015-0.01,0.029-0.014,0.045
			c-0.502,1.799-0.927,3.608-1.302,5.44c-0.032,0.156-0.063,0.316-0.093,0.48c-0.35,1.911-0.661,3.834-0.944,5.758
			C545.098,379.718,547.465,376.897,549.83,374.046z"/>
		<path d="M740.48,489.679c-5.858,5.676-11.925,12.042-16.48,19.032c22.229-13.378,41.304-29.792,56.893-50.616
			c-0.671-0.825-1.376-1.606-2.014-2.466c-6.624,5.419-13.165,10.307-19.643,16.025C752.758,477.373,746.876,483.482,740.48,489.679
			z"/>
		<path d="M729.465,531.244c20.554-15.167,40.104-31.294,57.342-50.208C766.107,496.023,746.873,512.513,729.465,531.244z"/>
		<path d="M755.658,455.333c-19.992,14.075-37.075,30.541-51.166,50.561C722.016,489.497,739.476,473.075,755.658,455.333z"/>
		<path d="M761.568,516.817c1.556-0.571,3.369-0.755,4.683-1.807c12.064-9.673,23.722-19.043,35.507-29.391
			c0.924-0.811,2.254-4.169,2.338-5.693C788.744,491.006,774.283,502.648,761.568,516.817z"/>
		<path d="M743.417,533.489c6.51-4.687,12.23-9.797,17.305-16.024C753.635,521.706,748.249,526.804,743.417,533.489z"/>
		<path d="M760.995,517.003c-0.097,0.08-0.3,0.265-0.191,0.389c0.108,0.124,0.317-0.068,0.41-0.142
			c0.093-0.074,0.333-0.239,0.226-0.37C761.333,516.749,761.092,516.923,760.995,517.003z"/>
		<path d="M580.579,474.061c-14.552,13.045-28.642,25.906-42.861,39.099c-1.798,1.669-3.104,3.688-4.699,5.533
			c22.466-12.567,42.811-27.068,58.494-47.71C587.331,469.415,583.556,471.393,580.579,474.061z"/>
		<path d="M573.13,463.278c-2.797,0.895-6.357,1.105-8.691,2.947c-18.463,14.573-35.38,30.47-51.323,47.688
			c1.003,1.004,1.965,2.018,2.946,3.031c19.589-16.966,39.165-33.948,58.731-50.942C574.243,465.086,573.757,464.171,573.13,463.278
			z"/>
		<path d="M551.349,550.803c0.783,0.777,1.535,1.555,2.349,2.32c0.796,0.048,2.024,0.394,2.698-0.078
			c15.456-10.811,30.756-21.244,45.656-32.93c2.071-1.624,2.497-5.417,3.163-7.904c-0.789-0.801-1.684-1.361-2.547-2.034
			C585.567,523.729,568.459,537.265,551.349,550.803z"/>
	</g>
	<g>
		<polygon class="st1" points="935.772,428.188 935.77,428.187 935.772,428.189 		"/>
		<path class="st1" d="M943.783,563.601c-3.255-42.986-14.979-85.758-34.449-123.887c-7.333-14.667-21.621-23.01-35.232-31.573
			c-0.459-0.037-0.92-0.059-1.38-0.09c-0.382-0.025-0.762-0.054-1.145-0.074c-1.417-0.077-2.838-0.116-4.265-0.117
			c-0.32,0-0.641,0.007-0.961,0.011c-0.697,0.008-1.395,0.026-2.095,0.051c-0.831,0.03-1.663,0.072-2.499,0.138
			c-5.172,0.409-10.141,0.81-15.098,0.856c-1.239,0.011-2.478,0-3.719-0.038c-3.723-0.116-7.466-0.482-11.311-1.243
			c-4.389-0.869-9.03-0.973-13.477-0.868c-13.156,0.311-24.701-2.163-36.966-6.779c-3.51-1.321-7.343-2.475-10.908-3.257
			c1.738,14.188,6.333,22.24,16.516,27.049c0.001,0.001,0.003,0.002,0.005,0.002c0.001,0,0.001,0.001,0.002,0.001
			c2.699,1.274,5.786,2.324,9.323,3.196c24.011,5.923,45.994,9.557,69.042,16.943c1.473,0.472,2.723,1.119,4.168,1.831
			c0.14,2.788,0.319,5.585,0.477,8.377c7.943,4.261,15.887,8.517,23.835,12.769c-18.335,0.761-21.598-1.24-30.534-17.2
			c-5.673-0.665-11.384-1.458-17.036-2.01c0.267,1.548,1.519,4.445,2.215,5.552c10.651,16.958,12.781,34.385,10.117,53.719
			c-1.693,12.284-5.168,23.564-11.601,34.022c-6.793,11.043-16.112,19.285-26.978,26.055c-15.998,9.966-33.353,13.791-51.77,16.98
			c-5.669,0.982-10.929,2.322-14.786,7.063c-0.1,4.54-0.022,9.08-0.032,13.62c1.647,0.359,3.29,0.723,4.936,1.081
			c-1.009,4.99-2.938,7.395-7.894,8.776c-4.705-9.246-5.625-18.192-5.725-28.448c-8.256-1.705-16.57-3.539-24.792-5.151
			c-3.29,12.675-5.255,25.769-13.668,36.299c-13.555,16.967-34.111,25.122-55.221,20.927c-21.11-4.195-31.057-17.434-37.49-36.893
			c-0.887-2.683-1.346-6.991-2.47-9.796c-28.49,12.932-58.152,16.476-88.635,8.793c-1.131,2.141-2.262,4.276-3.394,6.412
			c0.303,4.396,0.845,8.82,1.791,13.311c3.402,17.009,9.355,30.616,15.308,46.775c14.087,36.331,31.413,74.595,58.728,102.97
			c0.88,0.914,1.77,1.818,2.671,2.71c0.6,0.286,1.224,0.527,1.835,0.795c0.752,0.33,1.496,0.677,2.262,0.98
			c1.508,0.598,3.037,1.153,4.582,1.657c6.606,2.155,13.375,3.971,20.176,5.696c0,0,0.001,0,0.001,0
			c3.398,0.862,6.803,1.701,10.2,2.549c3.396,0.847,6.783,1.703,10.145,2.597c0.269-0.015,0.539-0.026,0.808-0.043
			c-22.962,4.252-47.625,7.654-70.587,0.85c-13.607,14.458-0.85,39.971-9.355,57.83c-1.358-12.904-3.818-25.798-6.913-38.269
			c-0.073-0.293-0.141-0.589-0.214-0.881c-0.062,0.272-0.141,0.546-0.208,0.819c-0.089,0.363-0.179,0.726-0.277,1.091
			c-0.143,0.532-0.3,1.073-0.462,1.611c-0.104,0.348-0.205,0.694-0.317,1.047c-0.191,0.602-0.401,1.223-0.614,1.844
			c-0.104,0.303-0.199,0.598-0.308,0.906c-0.117,0.332-0.24,0.672-0.362,1.011c-0.22,0.611-0.446,1.231-0.685,1.873
			c-0.259-0.687-0.565-1.418-0.881-2.168c-0.887-2.107-1.851-4.369-2.059-6.281c0,0,0,0,0-0.001
			c-0.987-9.084-1.533-18.139-2.121-27.158c-0.157-2.408-0.317-4.813-0.49-7.216c-0.273-3.8-0.578-7.593-0.95-11.377
			c-0.632-6.428-2.918-11.44-6.672-16.558c-6.308-8.599-12.873-16.916-19.453-25.333c0,0.001-0.001,0.001-0.001,0.002
			c-2.965,5.582-4.239,16.63-4.239,16.63s-2.529,8.552-5.429,17.224c-0.943,13.185,0.43,26.311,4.529,39.206
			c5.952,18.728,13.099,39.647,22.812,56.73c21.611,38.01,75.706,101.153,75.706,101.153s18.086,15.582,20.645,24.813
			c20.109-19.23,40.776-39.298,60.339-60.5c23.1-29.989,51.005-67.268,68.77-92.184c4.432-8.068,8.516-16.296,12.184-24.699
			c7.037-16.123,11.569-32.084,12.557-50.035c0.419-7.614-2.293-15.297-6.48-21.781c-9.336,8.671-18.461,17.562-27.69,26.348
			c-2.056,23.617-4.11,47.279-6.188,70.869c-4.991-9.899-5.871-20.552-5.774-31.267c0.101-11.149,0.965-21.151,1.671-32.052
			c-7.93,3.757-15.988,7.697-23.926,11.302c-7.938,3.604-15.643,5.534-24.225,6.466c26.999-12.902,51.196-29.132,68.714-53.893
			c7.556-10.68,13.593-22.717,18.877-34.746c13.949-31.755,22.383-65.204,29.058-99.198c0.155-0.788-0.98-2.531-1.46-3.19
			c-2.042,1.357-3.711,3.397-5.651,4.858c-9.223,6.941-17.462,10.357-29.163,10.183c-7.502-0.112-14.543-0.463-21.587,2.823
			c2.275-7.109,6.577-10.199,12.997-13.527c7.465,1.008,14.921,2.125,22.397,3.02c9.943-8.2,18.83-16.024,32.058-17.582
			c11.598-1.365,23.229,0.221,34.836-0.68c12.901,8.76,25.009,17.367,39.903,22.338c4.593-4.98,9.178-9.961,13.789-14.922
			c-21.39-11.964-33.828-29.092-36.271-53.695c10.75,18.647,21.748,36.091,40.357,47.755c3.76-1.054,7.521-2.108,11.281-3.161
			c-0.065,0.085-0.13,0.169-0.195,0.254C934.211,571.148,938.963,567.334,943.783,563.601z M633.063,723.586
			c-9.76-10.298-19.34-20.016-25.92-32.673c10.491,2.083,21.004,6.811,29.333,12.887c11.089,8.09,21.086,13.62,33.42,18.77
			c1.359,0.568,2.479,1.629,3.697,2.491C659.177,729.161,647.301,727.642,633.063,723.586z"/>
		<path class="st1" d="M836.048,397.987c5.019,0.508,10.036,1.012,15.069,1.54c1.513,0.159,3.111,0.356,4.469,0.189
			c9.552-1.174,17.694,0.666,26.646,3.623c4.357,1.439,8.589,2.522,12.976,3.748c0.723-1.002,1.467-2.007,2.232-2.97
			c-7.421-5.27-14.842-10.12-22.289-15.447c-0.495-0.355-0.983-0.712-1.464-1.072c-20.492-8.227-43.394-6.095-62.198,7.817
			l0.013,0.001C819.714,396.33,827.882,397.161,836.048,397.987z"/>
		<path class="st1" d="M792.849,724.171c1.393,3.134,3.405,6.783,3.885,8.355C799.862,729.375,796.487,726.296,792.849,724.171z"/>
		<path class="st1" d="M703.103,574.512c-0.363-0.262-0.733-0.52-1.093-0.784c-0.909-0.667-1.804-1.343-2.693-2.024
			c-0.123-0.094-0.25-0.186-0.372-0.28c-13.113-10.105-23.843-21.769-30.388-37.763c-0.001-0.002-0.002-0.004-0.003-0.006
			c-6.827,26.112-29.617,43.548-42.418,67.645c-0.503,1.005-0.87,2.01-1.14,3.015c0.012,0.028,0.024,0.056,0.036,0.084
			c1.959,4.568,3.915,9.139,5.878,13.701c18.792-0.182,37.463,2.261,56.134-0.836c14.341-13.882,20.242-18.143,21.348-39.051
			c-1.09-0.736-2.168-1.478-3.234-2.226C704.464,575.499,703.785,575.005,703.103,574.512z"/>
		<path class="st1" d="M214.968,543.957l-0.001,0.005c0.009-0.014,0.018-0.028,0.027-0.042
			C214.979,543.941,214.968,543.957,214.968,543.957z"/>
		<path class="st1" d="M397.165,399.325c-0.014,0.014-0.037,0.039-0.053,0.054c0.038-0.036,0.076-0.072,0.114-0.109
			C397.209,399.288,397.181,399.31,397.165,399.325z"/>
		<path class="st1" d="M306.243,471.641c2.44-1.143,4.857-2.31,7.229-3.524C310.616,468.259,308.273,469.662,306.243,471.641z"/>
		<path class="st1" d="M486.515,566.232c-17.226-3.738-33.724-2.316-50.877,2.891c-8.761-4.612-16.862-11.3-25.869-15.228
			c-9.007-3.928-18.256-2.952-26.091-9.386c7.394-23.445,21.584-39.3,45.154-47.238c6.052-2.039,12.993-2.772,19.124-4.702
			c5.864-1.846,8.315-5.402,10.285-10.991c-10.057,1.808-20.704,3.346-30.7,4.664c-8.46,1.115-15.778,2.761-23.007,7.022
			c-10.161,5.99-19.006,13.616-28.956,19.841c-13.062,8.173-26.244,12.637-41.462,14.757c3.748-3.193,8.004-6.115,12.014-8.903
			c9.021-6.271,18.675-12.559,26.977-19.485c18.394-15.345,39.626-23.577,62.995-25.936c22.437-2.264,37.525-11.82,50.777-29.543
			c-15.845,2.333-30.421,6.152-46.402,3.429c-1.884,0.377-3.735,0.796-5.567,1.244c-0.921,0.224-1.823,0.477-2.733,0.718
			c-0.723,0.192-1.456,0.368-2.172,0.571c-0.115,0.032-0.224,0.075-0.339,0.107c-2.741,0.781-5.435,1.641-8.099,2.567
			c-0.408,0.142-0.815,0.293-1.222,0.439c-2.519,0.899-5.015,1.852-7.494,2.872c-0.185,0.076-0.373,0.146-0.558,0.223
			c-2.581,1.072-5.148,2.217-7.716,3.409c-0.547,0.254-1.097,0.514-1.645,0.772c-2.535,1.199-5.071,2.434-7.625,3.737
			c-9.104,4.647-17.86,3.624-27.589,1.485c2.078-0.822,4.089-1.718,6.071-2.649c0.511-0.24,1.017-0.487,1.522-0.734
			c1.739-0.852,3.448-1.737,5.115-2.67c0.215-0.121,0.439-0.232,0.653-0.354c1.9-1.08,3.748-2.219,5.559-3.4
			c0.344-0.224,0.682-0.457,1.023-0.685c1.58-1.056,3.129-2.147,4.644-3.276c0.169-0.126,0.349-0.238,0.517-0.365
			c0.087-0.066,0.169-0.138,0.256-0.204c3.121-2.368,6.108-4.891,8.979-7.552c0.326-0.302,0.646-0.611,0.969-0.917
			c1.105-1.046,2.195-2.113,3.267-3.2c0.347-0.352,0.695-0.702,1.038-1.058c1.169-1.212,2.32-2.445,3.45-3.703
			c0.172-0.191,0.348-0.375,0.519-0.567c1.307-1.469,2.59-2.97,3.85-4.497c0.255-0.309,0.503-0.627,0.755-0.937
			c0.975-1.201,1.94-2.416,2.889-3.649c0.377-0.489,0.751-0.983,1.124-1.477c0.854-1.132,1.697-2.277,2.531-3.434
			c0.341-0.473,0.686-0.943,1.023-1.421c1.135-1.603,2.259-3.222,3.361-4.869c-0.195-0.34-0.397-0.664-0.599-0.982
			c-0.04-0.064-0.081-0.12-0.122-0.183c-0.344-0.532-0.691-1.048-1.027-1.54c-0.235-0.344-0.459-0.682-0.676-1.018
			c-0.08-0.124-0.155-0.248-0.231-0.372c-0.154-0.248-0.296-0.498-0.433-0.748c-0.073-0.134-0.15-0.267-0.216-0.402
			c-0.169-0.337-0.316-0.68-0.441-1.032c-0.051-0.143-0.085-0.294-0.127-0.44c-0.07-0.24-0.127-0.485-0.171-0.736
			c-0.031-0.176-0.059-0.353-0.076-0.536c-0.029-0.299-0.031-0.612-0.019-0.932c0.008-0.225,0.03-0.457,0.061-0.693
			c0.031-0.238,0.061-0.476,0.113-0.726c0.005-0.024,0.005-0.046,0.011-0.07c-5.265,2.733-10.331,5.855-15.146,9.278
			c0.051-0.036,0.099-0.076,0.15-0.112c-3.624,0.957-6.971,1.901-7.969,4.897c-3.402,9.355-6.804,17.859-13.607,24.663
			c-11.906,9.355-27.214,10.205-39.971,19.56c-9.332,6.221-17.756,11.535-26.599,17.267c0.26-0.05,0.522-0.094,0.783-0.143
			c-0.528,0.101-1.054,0.207-1.581,0.31c-1.692,0.332-3.375,0.688-5.052,1.059c-0.604,0.134-1.209,0.265-1.81,0.404
			c-2.159,0.502-4.305,1.035-6.417,1.636c-3.975,2.041-7.966,4.067-11.952,6.102c-2.214,1.13-4.421,2.268-6.625,3.414
			c-0.863,0.449-1.727,0.897-2.587,1.349c-2.883,1.516-5.746,3.061-8.588,4.638c-0.613,0.341-1.221,0.688-1.832,1.032
			c-3.019,1.701-6.016,3.433-8.958,5.245c-7.496,4.618-13.562,10.536-18.779,17.366c-14.054,18.403-26.403,37.725-39.688,56.608
			c11.312,10.786,22.486,21.597,33.809,32.38c8.526,0.855,17.827,1.829,26.151,3.179c20.48,3.323,38.797-0.616,57.056-9.445
			c10.291-4.976,20.305-8.86,31.21-10.813c3.913-0.701,7.658-1.024,11.304-1.04c0.009-0.001,0.018-0.003,0.026-0.003
			c1.234-0.114,2.364-0.071,3.407,0.081c9.955,0.482,19.286,3.198,29.351,6.834c3.309,1.195,6.397,3.309,9.748,3.384
			c15.594,0.349,30.302-0.085,45.388-3.687c13.239-3.161,25.391-3.244,38.589-0.398c5.35,1.154,10.026,2.889,15.262,4.165
			c4.586-8.574,3.867-17.133,4.409-26.537c-3.766-1.241-7.5-2.584-11.323-3.65C495.774,571.094,490.89,569.39,486.515,566.232z
			 M326.798,477.804c0.065-0.011,0.129-0.024,0.194-0.035c0.031-0.005,0.062-0.011,0.093-0.016
			C326.988,477.769,326.893,477.787,326.798,477.804z"/>
		<path class="st1" d="M472.11,418.732c-4.693-7.233-9.774-14.296-14.058-21.767c-0.842-1.468-1.65-2.95-2.437-4.44
			c-11.173,1.764-22.047,5.535-32.207,10.746c12.102,7.643,24.203,15.289,36.305,22.933
			C463.844,423.713,467.989,421.224,472.11,418.732z"/>
		<path class="st1" d="M453.864,440.198c1.945,0.14,4.18,0.35,6.052-0.024c15.638-3.128,30.665-5.363,46.677-5.386
			c4.782-0.007,10.038-0.729,14.276-3.112c10.546-5.931,20.167-12.846,30.258-19.386c-0.344-1.087-0.649-2.095-0.953-3.23
			c-17.906,3.162-35.895,4.036-53.382,9.61C481.55,423.528,468.068,432.936,453.864,440.198z"/>
		<path class="st1" d="M561.291,407.964c-0.362,3.411-0.85,6.893-1.099,10.259c17.529,2.796,35.368,5.17,51.001,13.854
			c15.999,8.887,25.41,23.334,38.241,35.685c6.195-0.823,12.511-1.804,18.751-2.705c9.136-17.486,21.037-31.686,37.104-43.188
			c-4.392-2.653-8.791-5.181-13.156-7.948c-1.95-6.234-1.736-12.356,3.985-16.284c12.789-8.78,25.449-16.913,39.21-23.957
			c15.021-7.688,30.075-9.627,46.912-10.099c0.521-0.015,1.096-0.028,1.693-0.043c0.203-0.005,0.421-0.013,0.63-0.019
			c0.478-0.014,0.958-0.03,1.453-0.051c0.232-0.01,0.455-0.021,0.688-0.033c0.489-0.024,0.967-0.057,1.447-0.094
			c0.209-0.016,0.416-0.03,0.62-0.049c0.66-0.061,1.301-0.133,1.886-0.232c-5.348-5.784-12.066-9.732-19-13.161
			c-6.64-3.284-12.885-6.064-19.51-9.127c-0.008,0.265-0.021,0.524-0.017-0.008c-9.015-2.086-18.035-6.99-27.194-8.304
			c-6.018-2.194-11.926-3.728-18.327-4.216c-0.004-0.022-0.007-0.043-0.011-0.065c-39.433-5.802-79.141-4.381-118.215,3.31
			c-19.189,6.239-37.561,14.164-55.354,23.673c-3.969,1.945-7.911,3.962-11.687,6.255c-5.904,3.584-11.728,7.236-17.637,10.807
			c-4.234,2.559-8.354,5.293-12.364,8.196l-1.149,17.185l-0.971,14.536C513.155,407.844,537.007,404.99,561.291,407.964z
			 M543.375,376.621c0.03-0.161,0.062-0.321,0.093-0.48c0.367-1.88,0.784-3.702,1.299-5.441c0-0.002,0.001-0.004,0.001-0.005
			c0.004-0.013,0.009-0.026,0.013-0.039c0.257-0.864,0.544-1.703,0.849-2.529c0.089-0.24,0.184-0.476,0.277-0.713
			c0.255-0.647,0.53-1.28,0.822-1.9c0.096-0.204,0.186-0.412,0.287-0.613c0.392-0.785,0.814-1.549,1.277-2.287
			c0.085-0.136,0.183-0.265,0.271-0.399c0.396-0.605,0.819-1.192,1.27-1.763c0.161-0.204,0.326-0.405,0.494-0.604
			c0.475-0.562,0.98-1.106,1.518-1.632c0.119-0.116,0.227-0.239,0.349-0.354c0.66-0.619,1.375-1.208,2.135-1.772
			c0.196-0.146,0.408-0.282,0.611-0.424c0.612-0.428,1.258-0.839,1.936-1.232c0.253-0.147,0.504-0.295,0.767-0.436
			c0.914-0.493,1.866-0.967,2.902-1.399c0.891-0.371,1.771-0.695,2.645-0.992c0.272-0.093,0.542-0.172,0.813-0.258
			c0.609-0.193,1.214-0.371,1.816-0.53c0.3-0.079,0.6-0.155,0.898-0.226c0.603-0.143,1.201-0.267,1.798-0.377
			c0.257-0.047,0.515-0.103,0.77-0.144c0.833-0.136,1.66-0.247,2.482-0.323c0.119-0.011,0.237-0.013,0.356-0.022
			c0.71-0.058,1.417-0.096,2.12-0.112c0.283-0.006,0.564-0.003,0.845-0.003c0.546,0,1.09,0.01,1.632,0.034
			c0.3,0.013,0.599,0.028,0.898,0.048c0.556,0.038,1.111,0.09,1.664,0.151c0.258,0.028,0.516,0.05,0.773,0.083
			c0.78,0.101,1.557,0.221,2.333,0.364c0.218,0.04,0.436,0.092,0.654,0.135c0.577,0.115,1.154,0.238,1.73,0.374
			c0.318,0.076,0.636,0.158,0.953,0.24c0.484,0.125,0.968,0.255,1.451,0.393c0.328,0.094,0.656,0.188,0.984,0.288
			c0.499,0.152,0.998,0.314,1.496,0.479c0.297,0.099,0.595,0.192,0.892,0.294c0.74,0.256,1.481,0.524,2.223,0.806
			c0.349,0.132,0.698,0.273,1.048,0.41c0.328,0.129,0.655,0.252,0.984,0.385c0.071,0.029,0.144,0.063,0.216,0.092
			c1.306,0.532,2.618,1.095,3.939,1.682c0.221,0.099,0.444,0.199,0.666,0.299c1.319,0.593,2.643,1.201,3.984,1.832
			c-0.069,1.214-0.454,2.228-0.518,3.374c-4.329-0.562-7.299-1.295-11.84-2.03c-1.169-0.189-2.277-0.358-3.358-0.517
			c-0.352-0.052-0.696-0.099-1.039-0.147c-0.754-0.106-1.488-0.202-2.202-0.29c-0.343-0.042-0.693-0.087-1.026-0.125
			c-0.935-0.106-1.846-0.2-2.717-0.271c-0.012-0.001-0.023-0.001-0.036-0.002c-1.189-0.096-2.313-0.15-3.396-0.171
			c-0.247-0.005-0.48,0.005-0.722,0.004c-0.812-0.002-1.604,0.017-2.365,0.064c-0.299,0.019-0.594,0.046-0.886,0.072
			c-0.702,0.063-1.387,0.153-2.053,0.264c-0.263,0.044-0.531,0.085-0.789,0.137c-0.772,0.155-1.526,0.348-2.263,0.576
			c-0.119,0.037-0.243,0.062-0.361,0.101c-0.876,0.288-1.731,0.631-2.576,1.032c-0.111,0.053-0.221,0.12-0.331,0.175
			c-0.712,0.353-1.418,0.747-2.122,1.188c-0.217,0.136-0.435,0.286-0.652,0.43c-0.614,0.409-1.229,0.852-1.848,1.333
			c-0.223,0.173-0.448,0.346-0.672,0.529c-0.681,0.556-1.374,1.162-2.073,1.81c-0.108,0.1-0.212,0.177-0.32,0.28
			c-0.046,0.043-0.094,0.094-0.14,0.137c-0.303,0.287-0.615,0.602-0.922,0.907c-0.383,0.379-0.769,0.767-1.161,1.175
			c-0.309,0.322-0.625,0.656-0.941,0.996c-0.444,0.477-0.898,0.979-1.356,1.492c-0.268,0.301-0.534,0.594-0.808,0.907
			c-0.745,0.852-1.505,1.738-2.297,2.687c-2.462,2.951-4.576,5.757-7.386,8.267C542.714,380.405,543.022,378.486,543.375,376.621z"
			/>
		<path class="st1" d="M752.132,340.767c0.006,0.003,0.011,0.005,0.017,0.008C752.157,340.507,752.159,340.235,752.132,340.767z"/>
		<path class="st1" d="M494.765,368.7c-0.005,0.093-0.01,0.18-0.016,0.274c0.074-0.126,0.15-0.24,0.226-0.359
			C494.905,368.643,494.834,368.672,494.765,368.7z"/>
		<path class="st1" d="M753.615,402.057c1.917-5.066,3.836-10.128,5.752-15.192c4.453,0.411,8.905,0.823,13.358,1.238
			c4.407-3.885,8.831-7.753,13.237-11.639c0.006-0.005,0.012-0.01,0.017-0.015c-30.277-5.684-55.01,12.156-76.518,31.888
			c0.004,0.001,0.007,0.001,0.01,0.002c1.272,0.24,2.515,0.425,3.742,0.577c0.17,0.021,0.341,0.044,0.51,0.063
			c1.246,0.143,2.471,0.242,3.683,0.301c1.184,0.057,2.355,0.076,3.517,0.059c0.183-0.003,0.366-0.005,0.548-0.01
			c2.315-0.059,4.604-0.26,6.9-0.585c0.22-0.031,0.442-0.063,0.662-0.096c2.258-0.342,4.533-0.8,6.859-1.355
			c0.278-0.066,0.558-0.134,0.838-0.203c1.146-0.284,2.302-0.581,3.481-0.908c0.427-0.28,0.854-0.56,1.282-0.841l-0.133,0.517
			C745.187,404.766,749.218,403.476,753.615,402.057z"/>
	</g>
</g>
</svg>
