<svg version="1.1" id="Layer_1" xmlns="http://www.w3.org/2000/svg" x="0" y="0" viewBox="0 0 1158.6 1297.4" xml:space="preserve">
  <style>
    .st0{fill:#f8a475}.st1{fill:#373737}
  </style>
  <path class="st0" d="M954.9 685.8c-.4-.5-.7-1-1-1.5-.7-1.2-1.1-2.5-1.2-3.9-.1-1.2-1.1-2.1-2.3-2.1-2.5-.4-5.3-.8-7.3 1.1-4.4 4-10.2 4.9-15.4 7.1-2.2.9-4.5 1.6-6.7 2.3-6.8 2.3-14.1 2.3-20.9-.1-3.5-1.2-5.2-4.3-7.1-7.2-.2-.4 0-.9.6-1.3 2 .9 2.8 3.2 4.6 4.5 2.5 1.7 5.4 2.7 8.4 2.8-1.8-.3-3.4-.9-5-1.8-4.1-2.2-6.9-6.2-8.7-10.4-.2 0-.5-.1-.7-.2-.2-.5-.2-1 .1-1.5-.1-.3-.2-.7-.3-1-.3-.9-.5-1.8-.7-2.7-1.4-.1-2.6-.7-3.6-1.7-5.7-5.5-6.7-12.8-1.8-18.6.9-1.1 1.8-2.2 2.8-3.2 4.9-5.6 10.3-10.7 16.1-15.4 3.7-3 7.2-6.3 11.2-8.8l5.4-3.4c5.3-3.6 10.9-6.7 16.9-9.1-.1-.4-1-.1-1.1-.4-.1-.1 0-.3.1-.5 1.3-2.4 3.6-3.4 5.8-4.7l-5.2-.1c-1 0-2.1-.1-3.1-.2-3-.3-6-1.3-8.6-2.9l-1.5.9c-.5.4-.9.8-1.2 1.3-1 2.2-1 2.2-3.4 3.5-9.3 4.8-18.8 9.1-28.9 11.8.8.2 1.5.3 2.3.5-3.6.8-6.8 3.3-10.8 1.7-.5-.2-1.3-.3-1-1.2-4.7-.1-9.4-.2-14 0-1.6.1-3.1.2-4.7.3-3.3 1.5-6.9 2.5-10 4.5-.3.7.1 2.1-1.5 1.3l1.4-1.3.2-2.3c-.6.3-1.1.7-1.5 1.3-.4.5-.7 1.1-.9 1.7l-3.5 3.9c-6 6.4-9.4 14.7-15.6 20.9-.2.2-.4.5-.5.8-1.2 3 1.2 11.5 3.8 13.6l11.5 9.2c5.4 4.3 10.2 9.1 12.5 15.9.7 2.1 1.5 4.2 2.5 6.2 1.4 2.3 1.9 5.1 1.2 7.7-.1 0-.3 0-.4-.1-.4-.3-.6-.7-.9-1.1-2.7-5.7-5.8-11.2-9.4-16.3-3.6-5.5-8.2-9.4-13.1-13.2-.9-.6-1.9-1.2-2.9-1.6-6.5-2.9-9.1-8.4-9.5-14.9-.1-2.4-1.5-4.8-.9-6.9 1.2-4.6 1.4-9.4 2.1-14 1.2-7.7 1.7-15.4 0-23.1-.5-2.3-1.3-3.6-3.5-4.5-5.7-2.4-10.6-6.5-14-11.7-1.5-2.4-3.5-4.5-5.1-6.9-.9-1.6-2.7-2.4-4.4-2-1.6.2-3.2.1-4.8.2-4.7.3-7.4 3.3-9.2 7.3-.5.9-.3 2 .6 2.5.1.1.3.2.4.2 4.4 1.6 6.4 5.5 9 8.9 2.4 3.2 3.6 7.1 3.5 11.1-.1 3.7-.7 7.3-1.9 10.7-1 2.9-1.2 6-.3 8.9 2.5 8.9 2.1 18 .6 26.9-.8 4.5-1.8 9.1-4.5 12.9-2 2.7-3.3 5.8-5 8.7-2.4 4-2.9 8.9-1.3 13.3 2.6 7.4 3.6 15.1 5.8 22.5 2.2 7.6 3.9 15.3 7.4 22.5 3.5 7.1 7.8 13.5 14.4 18 1.4 1 2.8 2 4.2 3.1.9.7 1.9 1.5 1.1 2.8-.7 1.2-1.9 1-3 .7-1.1-.3-2.1-.7-3.1-1.3-2.2-1.2-4.3-2.8-6-4.6-.9-1-1.7-2.3-4-1.7 2.2 6.9.2 13.5-1.4 20.1-.1.9-.2 1.9-.2 2.8-.4 3.5-.7 7-1.4 10.3-2.8 13.2-7.3 25.9-12.4 38.4-3.3 8.2-6.3 16.5-9.5 24.7-2.8 7.1-5.6 14.4-7.9 21.8-1.7 5.5-3.7 10.8-5 16.4-2 8.5-3.2 17.1-4.7 25.7-2.3 13.6-2.5 27.2-2 40.8 0 1 .9 2.1-.4 3-1.7-.5-2-1.9-2.2-3.3-2-11.9-2.4-24-1.3-36.1 1.2-13.9 4-27.7 8.3-41-1.3 1-2.6 1.8-4.2.2-7.1-7.4-16.7-10.8-25.4-15.7-2.2-1.2-4.6-2.1-6.7-3.6-1.5-1.2-3.4-1.7-5.3-1.6-1.3.1-1.6-.6-1.7-1.7-4.7 4.8-9.7 9.3-14 14.3-.9 1.1-1.8 2.2-2.7 3.4-1.7 2.2-3.1 4.5-4.4 7-1.5 2.9-3.8 5.3-.5 9.1-.7-.1-1.3-.1-2-.1-1.4 0-2.7.4-3.9 1.1-.1.1-.3.2-.4.3-.7.6-1.3 1.3-1.8 2.2-.5.9-.9 1.9-1.1 2.9 1.3 3-.3 5.4-1.6 7.9-2.3 4.8-4.6 9.6-2.7 15.2.3.8.4 2-1.1 1.9-.3 1 .1 1.8.3 2.8 1.4 7.7 4.4 15.1 5.8 22.9 1 5.7 3 11.2 4.6 16.7.6-1.2-.3-2.7.9-4.3 1.2 3.5 2.1 7 2.8 10.6 1 5.4 1.9 10.9 4.4 15.9 1.5 2.9 1.5 6.1 1.4 9.3-.3 5.9 1.9 11.6 6 15.9.6.7 2.2 1.4.2 2.4.7.8 1.5 1.4 2.5 1.8.9.4 1.8.9 2.7 1.4 11 7 22.6 12.8 34.4 18.3 8.2 3.9 16.8 6.8 25.1 10.3 10.7 4.8 22 8.3 33.5 10.5 5 .9 10.1 1.2 15 2.7 6.9-.3 13.8-.7 20.8-.5h.4c5.2-1.8 10.3-3.8 15.3-5.9 6.8-3 13.3-6.8 19.3-11.3 2.5-1.8 5.1-3.8 6.7-6.6-.1-.5.1-.8.5-1 .1-1.2.6-1.9 1.9-1.9-.4-2.1 1.3-4.8-1.2-6.1-2.2-1.1-3.6 1.4-5.4 2.2-9.4 4.2-18.2 9.6-28.5 11.8-4.3.9-8.7 1.8-12.9 3-4.8 1.4-9.4 0-13.8-2-2.2-1-4.2-2.1-6.7-2.1-2.2 0-2.7-1.4-2.2-3.2.2-.9.6-1.8 1.2-2.6 4.3-6 6.7-12.8 9.5-19.6 3.3-7.9 5.6-16.1 9.3-23.8 3.1-6.6 4.7-13.7 6.7-20.7 1.3-4.5 2.1-9.2 4-13.4 2.2-4.7 3-9.7 4.5-14.5 2.5-7.8 4.4-15.9 5.5-24 .9-6.4 1.9-12.9 1.5-19.4-.9-12.4-.1-24.7.6-37.1.7-12.5 1-25-.5-37.5-.8-7.2-.7-14.6-1.8-21.8-.4-2.3.9-4.5 3-5.5 6.1-3.3 11.9-7.4 19.1-8 1.7-.2 3.4-.8 4.9-1.7 3.7-1.8 7.3-3.8 10.9-5.7-1.4-.1-2.8 0-4.1 0l-4.1.1c-2.8.1-5.5 0-8.3-.4-3.3-.6-6.8-.1-10.4-2.8l8.4.8c7.7.6 15.5-.3 22.9-2.6-3 .1-5.9-.7-8.4-2.3-3-2-7.1-2.4-10.8-3.3-2.8-.7-4.8-2.2-5.6-5.2-1-3.7.4-8.2 3.7-9.9 5.6-2.9 9.9-7.6 15.3-10.9 2.2-1.3 3.8-3.6 5.3-5.9 2.3-3.5 5.1-6.8 8.1-9.8 2-1.8 3.7-3.8 5.2-6 4.4-7.3 8.7-14.6 11.6-22.7 1.3-3.9 4.2-7.1 8.1-8.7 6.3-2.5 12.8-4.5 19.5-5.9.4-.1.8-.1 1.1-.1h1.3c.8.1 1.5.2 2.3.2-1.3-1.3-2.4-2.5-3.3-3.9zm-53.2-58.5c.4.6.8 1.5.3 2.2-.6.7-1.5.2-2.2 0-1.1-.2-2.1-.8-2.8-1.6-1.8-2.5-4.2-4.1-6.7-6.1 4.5.3 8.8 1.4 11.4 5.5zM448.4 994.8c-.5-2.2-.8-4.3-1-6.6-.7.4-.7 1.4-1.4 2-.3.2-.7.4-1 .4.3-3 .2-5.9-1.8-8.3-1.7-1.9-4-3.2-6.4-3.7-5.3-1.5-7.8-4.8-8.1-10.3-.1-3.2.2-6.4.9-9.4.8-3.9-.8-6.4-4-8.2-1.4-.8-2.9-1.4-4.3-2-5.5-2.4-8.7-6.2-8-12.5.1-1.1.1-2.2.1-3.3.1-4.9-1.3-6.6-6.3-7-2.9-.1-5.7-.8-8.3-2-2.1-1-4.4-2.3-3.3-5.4-.9-4.2-2-8.4-5.2-11.6-1.5-1.5-.9-3.2-1-4.8-1 .9-1.7 1.9-2.2 3.1-.1.2-.1.3-.2.5-.4 1-.8 2-1.1 3l-12.5 38c-6.3 20.7-10.6 41.7-11.9 63.3-.2 2.6-.5 5.2-1 7.7-.7-.4-.6-1-.6-1.4-.3-5.1-.8-5.5-5.7-4.3-.8.2-1.5.4-2.3.7l-18.8 6.9a92.4 92.4 0 01-19.3 4.8c-13.1 2.1-26.4 3.6-39.6 5.5-14.9 2.1-29.7 5-44.9 5.2-.5 0-.9 0-1.4.1-.5.1-.9.4-1.2.7 1.2.2 2.5.3 3.7.5-2.8.2-5.1 2.2-7.8 1.9-4.6-.4-9.2.3-13.7.9-4.1.6-9.2-.6-12.4 3.7l11.4 24.2c5.6 11.6 11.9 22.9 18.8 33.9 3.3 5.2 6.9 10.3 10.6 15.2l1 1.3 1.2 1.5c1.1 1.4 2.2 2.7 3.4 4 2 2.3 4 4.6 6 6.8 8.3 9.3 17.1 18.3 26.3 26.7l1.4 1.2 3.2 2.6c.2.2 2.6 2 3 2.3 2.6 1.9 5.2 3.8 7.9 5.7 2.9 2 5.7 3.9 8.7 5.7 7.7-4 15.3-8.1 23.4-11.6 5.3-2.3 11-4.3 15.4-8.4 2-2 4.4-3.5 7.1-4.4 1.8-.7 3.5-1.5 5.1-2.6 6.9-4.1 12.9-9.7 20.4-13.1 7.4-3.3 13.6-8.5 20.5-12.7 4-2.5 8.2-4.5 11.9-7.6 4.5-3.8 9.9-5.5 16-6.2 10.5-1.1 17-8.3 22.7-16.5.2-.3.2-.9.2-1.4-2.7 2-6 3-9.4 2.8-2.8-.2-3.3-.6-3.2-3.5.1-3.8 1-7.6 2.6-11 2.6-5.5 3.8-11.4 6.4-16.8 3.6-7.3 5.7-15.1 8.8-22.6 2.7-6.6 3.1-13.9 3.3-21 .1-7.6.1-15.2-2.1-22.6z"/>
  <path class="st0" d="M374 692.1c0-2.5.4-5-.7-7.5-4.4-9.5-9.3-18.7-14.9-27.6-3.4-5.6-3.4-6 1.5-10.3 1.7-1.4 3.6-2.6 5.4-3.9 1.2-.7 2.4-1.6 3.5-2.5 4.5-4.3 9.5-7.9 15-10.7 4-1.9 7.8-4.2 11.4-6.8 4.4-3.1 8.9-6 13.6-8.6 5.7-3.4 12-5.9 16.8-10.6.8-.7 1.8-1.3 2.9-1.7 1.8-.7 3.4-1.8 4.9-3 .8-.7 1.6-1.5 2.2-2.4 1.3-1.7 2.3-3.7 2.8-5.8-.5 0-.9.1-1.4.3-12 7.1-24.4 12.5-38.6 13.4-7.3.5-14.6.5-21.9.3-7.4-.2-14.4-2.2-21.3-4.4-6.8-2.2-13.8-3.7-20.2-7.6-4.5-2.8-9.3-5.3-13.8-8.2-3.8-2.5-7-5.7-9.5-9.4 1-.6 1.4-.4 1.8-.1 6.5 5.2 13.3 9.9 21.1 13.1 7 2.9 14.2 5.6 21.5 7.1 11.2 2.4 22.6 3.3 34 2.9 2-.1 4-.2 5.9-.4 4.7-.4 9.4-1.2 13.9-2.5 1.2-.3 2.3-.6 3.5-1l-21.8-7.7c-5.2-1.9-10.1-4.1-14.3-8.1-3.1-3.1-6.1-6.4-8.8-9.8-6.6-7.9-13.4-15.6-18.9-24.4-6.6-10.8-12.2-22.2-16.8-34-3.9-10.1-7.1-20.4-9.8-30.8-4.4-16.8-7.4-33.8-10.1-50.8-1.6-9.9-2.2-19.9-3.6-29.8-2.7-17.6-4.1-35.3-4.1-53.1 0-8.2.4-16.5-.7-24.7-.1-1.4.3-2.8 1.2-4-.6 0-1.4-.1-1.8.2-3.8 3.1-8.3 5.1-12.4 7.9-7.3 5-13.7 11.1-21 16.2-2 1.4-3.9 2.9-5.7 4.5-1.5 1.4-3 2.9-4.3 4.6-.2.3-.5.5-.7.8 2.1.6 3.6-1.9 5.7-1.2.2 1.3-.4 2.6-1.6 3.2-1 .7-2.2 1.2-2.5 2.6 3.4-.6 6.1-2.9 9.3-4.3-.4.8-.9 1.5-1.5 2.1-.5.5-1.1.9-1.7 1.3-1.5 1-3.1 1.9-4 3.5.3.4 1.5-.4 1.1.8-.9 2.5-1.2 5.2-2.7 7.4 1.8-.2 3.4-.8 5.2-1 .6-.1 1.2-.1 1.8 0 2.7.3 3.4 1.4 1.9 3.7-1.7 2.7-3.6 5.2-5.6 7.7-3.1 3.7-6.5 7.3-9.8 10.9-.6.7-1.4 1.4-.4 2.9 3.1-1 5.5-3.3 8-5.3 1.5-1.4 3.3-2.3 5.3-2.9 2.4-.6 3.7.7 3.2 3.1-.3 2.4-1.5 4.6-3.4 6.1-3.6 2.7-7.1 5.8-11.6 7.1l-1.9 2.5c.8.3 1.5-.4 2.3-.4h.1c.3 0 .7.1.9.3-2.8 3.4-5.3 7-7.5 10.7-.5.9-1.4.8-2.2.9-.3 0-.5.1-.8.2.7.8 1.4 1.6 2.1 2.5.7 1 .8 1.7 1 3.6l-1.9-1.5c-.7-.6-1.7-.9-2.6-.8-1.7 3.5-5.3 4.5-7.5 1.8-2-2.4-4.4-4.4-7.1-6-1.9-1.4-4.4-1.7-6.6-.9-3.1 1.1-6.5 1.1-9.7.1-1.3.8-2.5 1.7-3.6 2.7-5.3 4.6-9 10.8-10.6 17.6-.7 2.8-1.2 5.7-1.5 8.5-.6 8.4.4 16.8 3.2 24.8 3.5 10.9 7.6 21.3 15.5 30.2 4.6 5.2 10 8.1 15.9 10.7 2.8 1.3 5.4 1.6 7.5-1.1 2 .9 2.2 3.6 4.6 3.5 3.8-.1 7.6.1 11.2-1.5 4.9-2.2 8.5-5.6 11.3-11.5.2 4-1 6.2-2.8 8-2.8 2.8-5.6 5.9-9.2 7.4-6.5 2.8-13.3 4.2-20.2.9-1.4-.7-2.7-1.1-3.9.1s-.8 2.6-.1 4c3.9 7.5 5.9 15.6 8.3 23.7 2.1 7 4 14 7 20.7l6.5 14.3c4 9.3 8.9 17.7 16.7 24.3.6.5 1.1 1.1 1.5 1.8 3.4 5.6 7.9 10.3 13.3 13.9 1.7 1.1 3.4 2.4 4.8 3.8 7.3 7 15.1 13.5 23.4 19.5 2.1 1.5 4.4 2.7 6.2 4.4 8.5 8 18.4 14.6 26.5 23.1 4.4 4.6 9.1 8.8 13.8 13 4.9 4.2 9.4 8.7 13.6 13.4zM243.7 473.8c-2.1 1.1-3.1-.3-3.8-1.6-1.4-2.6-2.6-5.4-2.4-8.5.4-5.8 3-10.5 7.1-14.5.7-.8 2-.9 2.8-.2-6.1 7.4-8.2 15.6-3.7 24.8zm13.8-11.4c0 .2-.4.4-.8.8-1-1.3-.7-2.7-.8-4-.2-4.3-.8-8.5-3.4-12.1-.7-1.2-1.3-2.5-1.7-3.9-2.7-7.1-7.6-12.2-13.4-16.7-6-4.7-12.6-4.2-19.4-3.1-.9.2-1.8.5-2.7.9-.4.3-.7 1.4-1.3.4-.3-.4.2-.8.7-1 1.8-2.4 4.7-2.7 7.2-3.1 9-1.6 17.5-.3 23.9 6.9 2.9 3.1 5.3 6.7 7.1 10.6 3.4 7.5 5.5 15.7 4.6 24.3zm73.6 184c3.9-4.7 5.8-5.4 12.1-4.8-4.9-.4-7.9 3.3-12.1 4.8zm548-35.1l7-.8c1.7-.1 3.5-.1 4.6-1.7-.4-.3-.6-.8-.5-1.2.1-.1.2-.3.3-.4 5-3.5 8.3-8.4 11.1-14 1.2 4 .4 6.6-3.3 11.5 2.1 1.1 3.9.9 5.4-1.1 1.4-1.7 3.1-3.2 5-4.3 3.4-2.1 6.2-5 8.2-8.5 3.8-6.4 8.6-12.1 14.4-16.8 2.8-2.3 4.8-5.5 5.8-9 .4-.9.9-1.7 1.4-2.4l.1-1.4c-1.4-.2-2.6-1.2-3.2-2.5-.8-1.7-1.7-3.3-3.9-3.6-2-.3-1-2.8-2.4-3.7-.1.8-.2 1.7-.2 2.5 0 1.3.1 2.6.1 3.9 0 1.4-.2 2.8-.7 4.1-.7-.8-1.1-1.9-1.1-2.9v-2c0-.5 0-1-.1-1.5 0-.4-.2-.8-.3-1.2-2.5-1.5-5.3-1.8-8.1-2.1-5.8-.5-11 2.3-16.8 2.4-2 0-4.1 1.7-5.7 3.1-1.4 1.2-.6 3.3-.7 5 0 .5-.1 1.1-.1 1.6-.1.6-.3 1.1-.7 1.5-.1.2-.2.4-.2.7v.1c0 .3 0 .5.1.8.6.9.9 1.9 1 3 0 .8-.3 1.5-.8 2.1-.2.2-.4.5-.7.7-.7 5.1-1.4 10.3-2.2 15.4-.6 4.1-2.9 7.7-3.7 11.7-.3.9-.9 1.7-1.6 2.3-.7.7-1.3 2.2-2.6 1.3-1-.7-.1-1.8.3-2.5 1.3-2.2 2.3-4.5 3.1-6.9.8-2.6 1.5-5.3 2.1-8 1.1-5.3 1.6-10.7 1.7-16.2v-.8c0-2.5 0-4.9-.2-7.4-.1-.4-.2-.9-.3-1.3-.5-1.7-.8-3.4-.8-5.2v-.4c0-1.1.1-2.3.2-3.4.2-1.2.4-2.3.8-3.4.3-.7.1-1.5-.3-2.2-.3-.1-.8-.1-1.1-.2-.1 0-.2-.1-.2-.1-.4-1.9-2.3-3.2-4.3-2.9-2.1.1-4 .1-5.7 1.7-3.1 3-5.9 6.2-7.6 10.3-1 2.9-3 5.3-5.5 6.9-3.8 2.4-4 7.1-5.9 10.6-.5 1 .3 1.8.9 2.6 3.5 5.2 8.8 8.9 14.9 10.4 3.4 1 6.8 2.3 10 3.9-3 .2-5.4 1.8-8.3 2-12.8.9-24.9-1.9-36.4-7.6-2.4-1.2-4.5-3-6.2-5.1-6.7-8.7-9-19-9.4-29.5-.6-13.6 3.8-26.2 10.1-38.2 2.2-4.2 5.3-7.9 6.9-12.5.3-.8.6-1.6-.2-2.1-.5-.4-1.3-.3-1.8 0-2.1 1.4-4.5 2.3-6.4 4-8.1 6.9-14.9 15.3-20 24.6-4.8 9-7.8 18.5-7.8 28.6 0 16.6 6.9 30 20 40.2.9.7 1.7 1.5 3 .9l-6.2-11.5c-2.8-5-3.5-10.5-3.2-16.2 1.8 9.3 6 17.3 11.8 24.6.7-.1 1.5.1 2 .6.2.2.5.5.7.8.2.3.4.5.7.8 3.5 3.5 7.3 6.5 11.5 9 3.3 1.8 6.8 3.2 10.2 4.8 1.6.8 3.4 1.5 4.6 3.7l-4.5.3c1 .9 2.2 1.4 3.5 1.4.4 0 .8.1 1.3.1 4.3.1 8.7 0 13 0l-2.9-1.5 7-.3zm-50.2 32.8c-.2 1 0 1.9 1.5 1.9 2-.5 2.8-2.3 3.7-4 3.3-6.7 8.9-11.8 12.5-18.4.7-.9 1.5-1.6 2.4-2.3 2.3-2.3 2.1-3.5-1.1-4.6l-10.8-3.6c-1.7-.5-3.6-2.2-5.3-.7s-.9 3.8-.6 5.8c.9 5.9.8 12-.4 17.9-.6 2.7-1.3 5.3-1.9 8zm112.5-35.5c-1.2-.5-2.5-.1-3.3 1h1.8c.6-.1 1.2-.4 1.5-1 .8-.1 1.5-.2 2.3-.4 2.3-.6 4.5-1.5 6.8-2.2-3.3-.1-6.7-.4-9.1 2.6zm9.9-6.7l-4.3.8c-1.4.3-2.8.7-4.2 1.2 3.1.4 6.1.4 8.5-2zM695.4 969.1v4.1c0 1.4.4 2.8.9 4 .2-2.7.8-5.5-.9-8.1zm1.6 47.5c0-.1.1-.3.1-.4-.1-.3-.2-.5-.3-.8-.3.2-.3.7-.1 1 .1.1.2.2.3.2z"/>
  <g>
    <path class="st1" d="M1135.1 640.6c-28.6-181.2-145.9-336.1-312.6-412.8-32.6-15-66.7-26.7-101.6-35a548.49 548.49 0 00-281.5 7.9l1.5 2.1C638.7 147.1 851.1 207.5 990 359c147.6 161.2 183.5 395.4 91 593.4-30 64.1-72.3 121.7-124.5 169.6-26 23.8-54.3 45-84.5 63.3-186.2 112.2-421.5 102.1-597.4-25.8-28.5-20.7-55-44.1-79-69.8C72.2 957.7 22.8 773 63.7 597.1c8.1-34.7 19.7-68.4 34.6-100.8 7.4-16.2 15.7-32 24.7-47.4 9-15.4 18.8-30.3 29.2-44.7l4.2-5.7-.4-1.9c-1.7 2.2-3.3 4.4-5 6.7-21.2 28.8-39.5 59.6-54.8 92-78.4 165.7-69.1 359.4 24.6 516.9 18.5 31 40.1 60.1 64.5 86.8 12.2 13.3 25 26.1 38.4 38.2 13.4 12.1 27.5 23.5 42 34.2a560.8 560.8 0 0093.2 55.3c65.8 30.7 137 48 209.6 50.8 222.9 8.5 429.1-117.9 522.8-320.4 45.7-98.8 60.9-209 43.8-316.5zm-172.8 44.9c1.1-6 3.2-11.8 6.2-17.2-21.3 4.5-42.3 10.2-62.9 17 17.1 7.8 37.9 4.2 56.7.2z"/>
    <path class="st1" d="M905.6 685.3c-.7-.3-1.4-.7-2.1-1.1l-1.2 2.1 3.3-1zm-490.1 7.4c-.4.2-.3.4.1.5.1 0 .3-.1.4-.1 0-.1 0-.3-.1-.3-.1-.1-.3-.1-.4-.1zm-41.6-360.9c-13.5 1.5-22.7 13-26.7 25.1l-1.8 5.4-.2 14.2c-.1 5.2 1.2 10.4 3.7 15 1.5 2.7 3.2 5.4 5 8 .7 1 1.6 1.9 2.6 2.7 8.9 7.5 23.3 7.1 32.1-.2 2.7-2.3 5-5 7-8 3.1-4.5 6.5-9.8 7.5-15.2.2-1 .3-2 .4-3h.2c6.2-27.9-11.9-39.1-11.9-39.1-5.2-3.8-11.6-5.5-17.9-4.9zM354 389.7c-1.3.5-2.8.3-3.8-.6.5-2.2 1.8-4.2 3.7-5.4 1.2 0 1.5.7 1.6 1.5.3 1.6-.3 3.3-1.5 4.5zm44.7-42.2c1.7 3.3 2.9 6.9 3.5 10.6.5 4.6.4 9.3-.3 13.8-.1.7-.1 1.3-.3 1.9-.9 4.8-2.3 9.4-4.4 13.8-3.4 7-8.9 13.3-16.1 16.6-7.7 3.5-17 1-23.2-4.3l-.3-2.7c.2-.4.5-.7.8-1l2.4-1.5c3-2.4 4.9-5.4 4.6-9.4-.1-1.1-.1-2.2-.1-3.3.1-3.9-1.9-6.6-5.2-8.4-1.1-.6-2.3-1.1-3.2-1.6-2.5-.5-5-.2-7.3.8-.5-.8-1.2-1.4-1.3-2-.2-1.4-.3-2.8-.2-4.3.3-8 4.2-16.6 8.8-22.6 1.4-1.9 3.1-3.7 4.9-5.2 5.6-4.4 12.8-6.1 19.7-4.7 7.6 1.4 13.6 6.7 17.2 13.5zm71.7 389.2c.3-.4.6-.8.8-1.2 1-2.8 1.8-5.7 2.4-8.6 1-6.4 3.8-12.4 4.9-18.7.1-.5.3-.9.5-1.3l4.5-11c2-5.3 3.7-10.7 5.1-16.1-2.2 1.4-3.9 3.3-5 5.7-.7 1.6-1.5 3.1-2.4 4.6-3.2 5-5 10.5-6.5 16.1-1.2 4.7-2.1 9.5-2.6 14.4-.4 3.4-1.5 6.8-1.2 10.3.1.9-.5 1.8-.7 2.7-.3.9-.7 2 .2 3.1zm-1.2-82.9c2.2-1.4 4.8-1.7 7.3-.9 2 .7 4.1.7 6.1.2 2.5-.8 5-.5 7.4-.5 18.4 7.7 22.4 9.1 26.4 8.8-3.6-2-6.9-3.7-10.2-5.7-3.3-1.9-6.7-3.5-10.2-4.9-4.9-2.1-9.9-4.3-15.4-4.2-.6 0-1.3-.1-1.9-.3-5-.7-10-1.1-15.7.8l-2.4 3.7c3.2 6.7 8.8 11.9 15.7 14.7 4.1 1.7 8.1 3.6 12 5.6.3.1.8-.1 1.2-.1-1.2-2.3-3.4-3-5-4.5-3.3-2.9-7.1-5.2-11.2-6.8-2.4-.7-4.3-2.4-5.3-4.6.3-.4.7-.9 1.2-1.3zm-84.6-357.1c-2.4.2-4.7.5-7 1-3.1.7-6.1 1.8-9 3-3 1.4-5.8 3.1-8.4 5.2-1.9 1.5-4.1 2.3-5.9 3.9-8.2 7.3-15.2 15.5-19.2 26-.2.6-.2 1.3.9 1.3 1.2-1.5 1.8-3.5 2.9-5.3 1.7-3 3.8-5.8 6.4-8.2 1.7-1.4 3.5-2.7 5.1-4.3 3.1-3 6.8-5.1 10.4-7.3 2.3-1.4 4.5-3 7.1-3.6 4.6-1 9-2.7 13.6-3.9 2.4-.6 4.9-1.2 7.1-1.7 1.5-1.4 1.5-3 1.1-4.7-1.3-1.2-3.2-1.8-5.1-1.4zM258 460.4c0 .1.1.2.1.3.3.8 1 1.6 1.7 1.1.4-.3.6-.8.6-1.3 1.1-12.2-3.6-24.1-10.6-33.9-3.4-4.7-7.4-5.5-12.2-8.1-1.2-.6-2.4-1-3.6-1.3-2.5-.1-4.9-.1-7.4.2-2.5.3-5.5 2.3-7.8 3.3-3.8 1.6 1.3 2.7 3 2.4 1.5-.3 2.9-.8 4.4-.9 1.8 0 3.7.2 5.4.7 6.7 1.3 12.6 5.2 16.4 10.8 4.2 5.9 7.3 12.5 9.2 19.4.8 2.4.3 4.8.8 7.3zm14.2 242.9c2.4-5.2 5.1-10.3 8.2-15.2 5.6-9.5 12-18.4 18.4-27.3-14.3-1.8-28.8 2.9-41 10.5s-22.4 18-32 28.7c-8.4 9.3-16.6 19.1-22.2 30.3-1.1 2.1-2.1 4.5-1.8 6.8 3-1.9 5.1-4.9 7.2-7.7 2.2-3.1 4.5-6 6.9-8.9 18.8-22.9 42.7-41.1 69.8-53.3 1.3-.6 3.3-.7 3.5.6 0 .6-.2 1.1-.6 1.5-4.9 6.9-10.9 13-15.4 20-5.1 7.9-8.4 16.9-9.5 26.2-.5 3.9-.4 8.4 2.4 11.1 7.6 7.5 22.1-2 29.6-5 21.3-8.7 47.9-10.7 69 0 .6.2 1.3.3 1.9.2-.5-1.4-1.6-2.6-3-3-3.3-1.6-6.5-3.2-9.9-4.6-3.3-1.4-6.8-2.4-10.2-3.6-4.1-1.3-8.3-2-12.6-2.1-10.3-.1-20.5 1.3-30.3 4.2-9.7 2.7-18.5 7.6-28 10.8-1.6.5-3.7.2-4.3-1.3-.2-.6-.2-1.3-.1-1.9.8-5.8 1.7-11.5 4-17zm-23.4-252.5c.3-.2.6-.4.8-.7.5-.7.6-1.7.2-2.5-.1-.2-.2-.3-.4-.5-.2-.1-.3-.1-.5-.1-7.7-.7-8.9 11.7-8.3 17 .2 2.2 1.2 4.2 2.8 5.6.3.3 3.2 2.3 3 2.8.2-.8 0-1.7-.4-2.5-1.6-3.3-1.5-7.1-.9-10.6.3-2.9.9-6.8 3.7-8.5zm231.9 21.9c-.3-.3-.7-.7-1.1-.8-3.4-.7-6.9-.6-10.3.1-3.1.8-6.1 1.8-9 3-1.5.6-2.9 1.3-4.1 2.3-3 2.2-6 4.6-9 7-.5.5-1 1.1-1.4 1.7.9.9 2.3 1.2 3.5.6 3.8-1.6 7.8-2.6 11.2-5 1.1-.6 2.2-1.1 3.5-1.5 4.9-1.7 9.6-4 14.8-5 1.2-.1 2.1-1.1 1.9-2.4.1.1 0 .1 0 0zm-20 72.2c-.5.8-1.6 1.1-2.5.7-1.2-.9-1.5-2.8-3.5-3.1-1.2 1-2.2 2.1-3 3.4-1 2-2.8 3.4-4.9 4.1-.2.1-.3.5-.5.9l1.5 1.6 3.6-1.9 3.6-2.2 4.6.9c2.2-.4 4.1-1.9 5-4 .7-1.7 2-3.6.8-6-1.7 1.8-3.3 3.6-4.7 5.6zm459.7 83.6l2-.1c-.3-1.5-1.4-1.4-2.3-1.5l.3 1.6zM920 626.8h.1v-.1l-.1.1zm16.3 47.5l-.4-.3c0 .1.1.2.4.3zM924 629.9l1.1 4.7c.8.7 1.5 1.4 2.2 2.2.6.8.2 2.2 1.9 2.9.9-2.7-.5-4.7-1.2-7.2l-2.6-2.3c-.1-.3-.6-.2-1.4-.3zm-97.9-39.7c-2-3.8-4-7.7-6-11.6-.9-1.8-1.8-3.7-2.7-5.5l-1.7-3.7c-4.9-11.8-2.2-24.2 4.9-34.4 1.7-2.5 4.5-4.2 7.5-4.4l.6-3.9c1.1-4.9 2.8-9.7 5.1-14.1 2.5-5.1 6-9.9 8.8-14.8.1-.2.2-.3.2-.5 0-.7-1.2-.6-1.8-.2-.5.3-.9.6-1.4.9-15.9 11.1-26.1 27.9-30.4 46.7-.6 2.3-.9 4.6-1 7 0 2.3.2 4.7.6 7 2.2 12.7 8.3 22.2 17.3 31.5zm59.5-60.8c0 .1 0 .1 0 0l1.6 4.3.3.4v.2c.5 1.6 1.1 3.1 1.5 4.7l.3.6c.1.3.1.6.1.9 4 13.8 6.8 27.9 8.3 42.2l3.9.1c-.8-3.3-2-6.5-3-9.8-.4-1.3-.4-2.6-.2-3.9-1.8-9.3-3-18.7-3.6-28.2l-.8-5.1c-1.6-1.9-2.6-4.2-2.9-6.6-.3-1.4-.7-2.7-1.4-4l-7.5-16.3c-1.2.9-1.2.9-1.1 5.4 2.3 4.9 3.4 9.8 4.5 15.1zM568.2 955.2l.6-1.4c-.7 1-1.5 1.9-2.3 2.8.5-.5 1.1-.9 1.7-1.4zm3.7-5l-.1-.9-1.4 2.2 1.5-1.3zM526.1 680c8.3 6.6 16.5 13.2 24.8 19.8-7.1-7.6-16.2-14-24.8-19.8z"/>
    <path class="st1" d="M568.8 953.8c.6-.8 1.1-1.5 1.7-2.3l-1.1 1-.6 1.3zM112.6 322.2c28.4 15.7 58.6 33.4 74.8 62.6v7.7c0 4.4.1 9 2 12.9 1.5 3 4.1 5.4 6 8.3 7.9 11.8 2.5 27.6 3.4 41.7 1.3 19.9 14.9 36.4 26.2 52.9s20.8 37.4 13 55.8c-2.8 6.6-7.6 12.1-11.9 17.8-16.6 22-27.2 47.9-30.7 75.2l9.1-25.3c9.3-24.1 20.8-47.4 39.4-64.9 26.3 40.5 61.4 74.5 102.7 99.5 27.2 27.7 54.4 55.3 81.6 83-26-34.6-55.8-66.2-88.8-94.2-21.4-18.1-44.2-34.8-63-55.7s-33.6-46.7-35-74.7c4.9-1.1 7.6-7.6 4.9-11.8 11 1 22.2-6.9 24.9-17.6-7.6 11.5-24.8 13.6-37.1 7.5s-20.5-18.5-25.8-31.2c-6.5-15.8-9.1-34.9.3-49.2s34-17.9 42.8-3.3c.5-7.3-6.4-13.5-13.6-14.6s-14.5 1.6-21.1 4.7c-3.4 1.6-7 3.4-10.6 2.7-5.6-1-8.2-6.6-9.2-12.6 2-.3 3.4-2.2 3.1-4.2 0-.1-.1-.3-.1-.4-11.5-32-39.6-53.7-68-70.2-30.5-17.8-64.8-32.5-87.5-60.7-10-12.4-17.9-27.6-19.6-43.6-1.7-15.8 2.8-31 11.7-44.1 19.8-29.1 54.1-41.9 85.5-54.1 28.5-11.1 58.7-24 78.2-48.4h.2c.4-.4.7-.8 1.1-1.2 1.8-1.7 3.8-3.3 5.9-4.6l.3-.3c31-31.4 77.3-47 121-40.6 19.5 2.9 38.4 9.8 58.1 10.4 18 .6 36.4-4 53.6.8 21.2 5.9 37 27.1 36.9 49-.2 19-10.8 36.2-21.1 52.1-16.4 25.4-32.8 50.8-49.2 76.3-12.4-18.7-25.1-37.7-42-52.4 16.8 27 35.1 53 54.5 78.2l23 34.3c-2.7-.2-5.3-.3-8-.4-.2-.1-.4-.1-.6-.1-.3 0-.6 0-.9.1-83.9-1.5-167.4 44.5-210.1 116.8 0 .3-.1.6-.1.9 12.1-17 27-31.8 44.2-43.7-11.3 10-20.6 22-27.5 35.4 8.7-6.9 18.4-12.5 28.7-16.6-6.3 8.1-12.6 16.3-18.9 24.5 7-.2 13.7-2.2 19.7-5.8l-12 12.6c5.1-1.9 10.4-4 13.8-8.2s3.9-11.2-.3-14.6c2.6-10.3 1.6-21.2-2.7-30.9 25.9-23.1 56.4-40.8 89-52.8 7.9-2.2 56-14.8 89.9-4.7 9.9 6.2 17.5 15.7 19.3 27.1-14.8 17.7-23.3 39.8-24.2 62.9-.1 2.2 0 4.6 1.4 6.3 1.8 2.1 4.9 2.2 7.6 2.1 7.5-.2 15-.4 22.6-.6 7-.2 14.2.9 21.3 1.1 1.3 0 2.5 0 3.8.1 5.8.7 11.5 2.1 17.3 2.7 2.2.2 4.3 1.1 5.3 3.5-.6 3.4-3.2 5-6 6.2-2 .9-4.1 1.6-6.6 2.5h-6.7c-.9.1-1.9 0-2.8-.3-1.7-.5-3.4-.7-5.2-.6-18.1 0-36-.6-53.6 4.1-1.2.2-2.3.7-3.4 1.3-1.1.8-1.9 1.9-2.5 3.1-1.5 2.9-2 6.7.1 9.2 1.5 1.4 3.3 2.3 5.4 2.6 3.4.7 6.8.8 10.2.4 1.5-.2 2.9-.6 4.4-.7 1.3-.1 3 .4 4.2-.1 2.5-.8 3.9-1.7 5.4-1.7 2.5 0 4.6-1 6.9-2h3.2c1.1 0 2 .7 2.3 1.7-1.5 5.1-.8 10.6-.5 15.9.2 3.6 1.4 7.1 2.1 10.7.8 4.2 1.6 8.4 2.3 12.5 0 .5-.1 1.1-.3 1.6-.9.2-1.8.4-2.7.5-9.6.2-19.1 1.9-28.5 3.7-9.3 1.8-18.1 4-27.6 2.4-11.9-2-23.5-5.1-34.2-10.7-.8-.4-1.3-1.4-2-2.2l.4-3.4 3.7-2.8c3.4-2.6 6.4-5.6 10.3-7.6.7-.4 1.7-.8 1.5-2.2-.5 0-1-.2-1.3 0a104 104 0 00-10.5 5.4c-4.9 3-9 7.1-12 11.9-.5.8-1 1.6-1.7 2.3-1.4 1.7-2.5 3.7-3.2 5.8-1 2.6-1.9 5.4-2.6 8.1-.7 2.9-1.6 5.8-1.2 8.9 0 .8.6 1.5 1.4 1.5h.2l2.7-7.9c1.9-5.9 4.1-11.6 8-16.5.2-.2.5-.5.8-.7h3.1c6.2 5.2 13.8 8.4 21.4 11 7.9 2.7 16.2 4.3 24.5 4.6 7.4.2 14.8-.6 22-2.5 7.3-1.9 14.6-3.6 22-5.3 2.4-.5 5.6-.5 7.6-2.1 4.7-2.4 2.1-11.5 2.1-11.5-2.3-4.9-2.8-10.1-3.7-15.2-.7-3.8-1.6-7.7-1.1-11.8.3-2.1.5-4.1 1.7-5.7l4.3-3.1c.7-.6 1.8-.5 2.5.1.6 1.1 1 2.4 1.2 3.7.7 3.9 1.4 7.8 2.3 11.6 5.1 23.5 4.3 50.4-.3 73.9-2.6 13.6-7.2 26.6-13.8 38.8-8.3 15-22.4 28.8-36.4 38.5-9.1 6.4-19.3 10.9-30.1 13.3-11.4 2.3-23 3.1-34.5 2.4-11.6-.6-22.9-3.9-33.5-8.7-9.1-4.1-17.6-9.2-25.5-15.3-1.1-.8-3.2-1.3-3.4 0 0 .6.3 1.2.8 1.5 5.2 5.2 11.7 8.8 18.1 12.3 13.2 7.2 26.9 14.2 41.7 16.6 14.4 2.3 29.1.2 43.4-2.5 1.4-.3 3.2-.3 3.9.9.8 1.4-.8 3-2.3 3.7s-3.3 1.5-3.4 3.1c9.1-4.1 17.2-10 23.9-17.4 1.1-1.2 4.9-3.5 4.2.2-5.3 28.1-10.6 56.4-21 83-.4.6-.4 1.4-.1 2 .9 1.2 2.6-.3 3.3-1.7 3.4-7.5 6.8-14.9 10.3-22.4 6.5 19.1 14.5 37.8 18.9 57.5s5 41-3.1 59.5c10.8-18.1 13.8-40.4 9.3-61-3.2-14.9-10-28.6-15.8-42.7-2.8-6.8-5.4-13.8-6.4-21.1-1.4-10.3 2.4-19.8 4.5-29.8l6.1-23.9c2.3 1 4.7 3.2 6.3 3.9 12 5.6 21.9 16 31.5 25.1 6.8 6.5 13.5 13.1 20.1 19.8 3.2 3.2 6.2 7 9.7 9.9 2.8 2.3 5.9 4.1 8.5 6.6 2.5 2.6 5.7 3.9 8.7 5.9l.5-1.4c-1-1-2-2.1-2.8-3.3-1.3-2.3-3.2-3.9-5-5.8-2.6-2.7-5.4-5.3-8.1-8-2.7-2.7-5.1-5.6-7.9-8.2-2.7-2.7-5.2-5.5-7.6-8.4-.6-.7-1-1.5-1.2-2.5 9.4 1 47.5 6.4 94.5 30.7.6.4 1.2.7 1.7 1.1.8.6 1.6 1.1 2.4 1.5l3.3 1.5c7.1 3.9 14 8 20.8 12.4.2.2.5.4.7.6.9.7 1.8 1.3 2.8 1.8.2.1.5.3.7.5l6.1 4.1c1.5 1.1 2.9 2.3 4.3 3.6.7.7 1.4 1.3 2.2 1.8l2.9 2 52.2 43.4c2.5 2.3 4.9 4.8 7.4 7.3 1.9 2.1 4 4.1 6.2 5.9 3.5 2.9 6.9 6 10.2 9.3.5.6 1.1 1.2 1.7 1.7 3.3 2.2 6 5.2 8.8 8 9.7 11.5 8.2 9.2 5.2 5.2.8.7 1.5 1.5 2.3 2.1 2.5 2 4.8 4.1 7.1 6.3 1.9 1.9 3.7 3.9 5.8 5.7 1.5 1.3 2.9 2.5 4.4 3.8l17.8 17.7c-1.2 2.1-2.7 4.1-4.4 5.8-2.3 2.4-4.5 4.8-6.7 7.4-3 3.7-6.5 6.9-10.4 9.7-21.1 14.3-39.9 32.1-54.5 53.1-3.7 5.2-5.8 10.8-8.4 16.5-1.8 3.8-2.9 7.9-3.4 12.1 0-.2 2.6-2 3-2.5.7-1.3 1.3-2.6 1.9-3.9 4.5-8.3 11-16.5 16.7-24.1 6.6-8.8 14.2-20.1 23.5-26.3 1.5-1.1 2.8-2.5 3.9-4.1.7-.8 1.5-1.6 2.3-2.3 5.8-4.9 12.2-9.1 17.3-14.8.6-.7 1.3-1.3 2.1-1.9 3-2.1 5.6-4.7 7.6-7.7.6-.8 1.3-1.4 2.1-2l2.3.2c1.9 2.8 4.4 5.1 7.4 6.7 2.4 1.4 5.1 2.7 6.5 5.5.4 2 .1 4.1-.8 5.9-2.8 6.7-5.3 13.5-8 20.3-1.7 4.2-2.6 8.8-4.8 12.8-.2.4-.4.9-.5 1.3-1 4-2.3 7.9-4 11.6-.3.6-.4 1.2-.6 1.8-.3 1.9-.8 3.7-1.3 5.5-1.4 3.9-2.3 7.9-2.7 12-.3 2.3-.8 4.7-1.5 6.9-4.3 15.4-3 34.8-.7 50.7.2 1.6 1.2 3.7 2.7 3.2 1.2-.3 1.4-2 1.4-3.3-.9-19.7.8-39.4 4.9-58.6 2.1-9.6 4.8-19.1 8.1-28.4 3.3-9.1 7.7-17.8 10.7-27 2.2-6.6 4.6-13.1 7.2-19.6l2.7-7.1c1.1-3 2-6 3-9l3-9c.4-1.5.7-3.1 1-4.6.7-4.2 1.7-8.4 2.1-12.6.4-4 1-8 1.6-12h.6c.1-1.6 0-3.2-.3-4.7s-.8-3.1-.2-4.7c1.9-.2 2.8 1.2 3.9 2.4 2 2 4.3 3.7 6.9 5 1 .6 2.1.8 3.2.8 1.6-.1 2.3-1.4 1.3-2.6-1-1-2.1-2-3.3-2.7-9-5.9-14.4-14.4-18.1-24.2-3.8-9.9-6.1-20.2-8.4-30.5-.3-1.5-.8-3-1.3-4.5 0 0-3.2-11.2 0-17.8s6.7-4.7 9.3-17.6 2-19.7.9-22.8l-.1-.4c-.3-3.2-.9-6.3-1.7-9.4-.8-2.9-.2-5.8.8-8.7 2.5-7.5 3-14.9-2.4-21.5-2.4-2.9-4.2-6.4-8.1-7.7-1.5-.6-1.6-1.8-.9-3.1 1.7-3.7 4.4-6.1 8.4-6.7 0-.1-.1-.2-.1-.3 12.8-2.2 27.7 14.1 29.5 29.5 2.2 18.5-1.8 40.3 11.5 53.4 9.5 9.4 27.7 15.7 24.5 28.7 5.5-18.6-24.4-29.8-27-49-2.5-18.8 20.8-29.3 39.4-33.3l62.4-13.8-30.1 22.3-15-8c3.3 4.4 6.7 8.9 10 13.3-20.8 4.7-19.4 38.6-1.4 50.1 1 .7 2.2 1.1 3.2 1.7 12.5-24.6 37.7-42.4 65.1-45.7-26.8.3-52.4 11-71.5 29.8-9.7-1.6-5.5-16.7 1.4-23.7 11-11.1 23.2-20.8 36.5-28.9 11.3-7 25.3-12.9 37.6-7.7s15.3 26.7 2.6 30.5c11.5 65-37.4 134.7-102.4 145.9l40.3-3.5c7.7 40.7 16.3 81.2 16.9 122.9.3 23.7-1.8 47.5-7.7 70.4-3 11.8-7 23.3-12 34.4-2.2 4.8-4.3 10.7-7.9 14.6-8.7 9.4-17.9 18.6-28.7 25.6-9.2 6-19.9 9.5-30.4 12.8-9.5 1-19.1.2-28.4-2.2-5-2.1-9.8-4.4-14.5-6.1-14.7-5.2-29.9-9.1-44.5-14.6-19.7-7.5-39.2-18.9-49.7-37.2-7.8-13.5-10-29.3-12.8-44.6-10.2-54-30.5-105.6-59.8-152.1-15.2-24-33.2-47.7-37.9-75.8-2.8-16.6-1.1-35.4-11.8-48.4-4.7 11.3-9.4 22.7-14.1 34l-18.8-15c5.9 6.3 10.4 13.6 12.2 22.1 2.6 12.4-1.3 25.1-5.1 37.1l-33.1 104.1c-41.3-7-88.2-7.3-119.7 20.3-30 26.3-36.7 69.5-42.5 109-.7 5-1.6 10.4-5 14.2-4.2 4.8-11 6-17.3 7L206 1033.4c53.1.6 106-6.4 157.1-20.9l17.7-76.4c1.3-5.5 3-11.6 7.9-14.4 8.5-4.8 18.1 3.8 23.8 11.7 12.2 16.7 23.6 33.9 34.2 51.7-7.7-25.8-22.7-48.8-43-66.3-5.1-4.4-11-9.5-10.6-16.2.3-5.5 4.8-9.7 9.2-12.9 39.3-29.4 95.5-34.3 139.3-12 4.2 2.1 8.6 4.8 10.5 9.1s.2 10.5-4.4 11.5c-2.8.6-5.5-.8-8.1-2-35.7-17.2-80.5-14.1-113.5 7.9 24.7-5.5 49.8-10.8 75.1-9.8s51.2 9 69.2 26.8c1.5 1.5 3 3.2 3.4 5.3.8 4.1-3.4 7.8-7.5 8.2s-8.2-1.5-12-3.2c-17.9-8.3-36.9-15.4-56.6-16.2s-40.5 5.4-53.8 20c32.4-12.6 68.1-13.4 101-2.2-25.4 16.4-63.6 8.1-84.1 30.3 31.2-4.5 61.6-13.7 90-27.4 3.2 14.4-11.3 26.7-25.3 31.5s-30 6.5-40.5 16.9c-14.2 14-12.2 36.9-16.7 56.4-8.3 35.9-40.1 61.3-72.7 78.5s-68.3 29.7-96.1 53.8c3.5 3 8.8 1 12.9-1.2 41.8-22.8 82.5-47.4 122.1-74 17.1-11.5 35.3-25.2 39.8-45.3 3.7-16.7-2.9-35.4 5-50.7 9.7-18.7 34.5-21.4 54.8-27.1 12-3.3 24.1-9.2 32.3-18.1-3.6 2.7-8.3 3.4-12.5 2 .2-2.2 1.3-4 2-5.8 1.7-3.6 2.6-7.5 2.5-11.5 0-.3.2-.6.3-.9.7-.9 1.7-.7 2.6-.4.8.2 1.5.5 2.2.9 2 1.2 4 2.5 6 3.8.7.5 1.4 1.1 2.1 1.7l.2 2.9c1.1-1.8 2-3.7 2.7-5.7 6.1-16.6-5.7-39.2-23.3-38 9.3-53 22.9-105.1 40.7-155.9 77.2 94 99.1 220.3 117.5 340.5l-.9-67.8c0 2.2 12.7 8.7 14.7 10 5.3 3.2 10.6 6.3 16.2 9 19.5 9.8 40.4 16.6 62 20.1.5.1 34.9 15.4 59.5 1.3h.1c.2-.1.5-.1.7-.2 3.7-1.3 7.1-3.8 10.8-5.4 10-4.1 19.2-9.9 27.2-17.2 8.6-8.1 13.6-18.3 18.4-29.1 2-4.4 3.8-8.9 5.5-13.3 7.3-18.7 11.4-38.4 13.3-58.3 3.8-39.2-.6-79-8.4-117.4l-.2-.9c-3-14.6-6.1-29.8-1.2-43.2 3.3-9 10.1-16.6 16.7-23.9l5-5.7C983 708.1 996 649.7 982 598.8c9.2-7.1 12.5-20.9 7.1-31.3-4.1-7.9-13.2-13.3-22.6-13.3-1.2 0-2.5.1-3.7.3l3.3-10.5c.1-.3.1-.6.1-.9 0-10-1.2-17-2.8-25.7-.4-2.3-.9-4.5-1.5-6.8-.3-1.1-.6-2.1-.9-3.1l-.1-.5c-.1-.3-.2-.5-.3-.7l-.2-.4c-.8-1.5-1.6-3.1-2.2-4.7-.2-.5-.6-1-1-1.3l-1.3-.9c-8.4-14.7-34.3-23.4-39.1-25-18.1-13.5-28.4-28.2-31.3-44.7.1-.8.1-1.6-.1-2.4-.1-.3-.2-.5-.3-.7l-.1-1.2 3.6-4c.5-.5.7-1.2.7-1.9v-1.4c0-.2 0-.3-.1-.5-.1-.3-.1-.5-.2-.8-.1-.2-.1-.4-.2-.5l-.5-.8c-.1-.1-.2-.3-.3-.4l-.5-.5c-.6-.7-1.5-1.1-2.5-1.2-10.4.5-12.8 2.4-13.8 4.2-.7 1.4-.6 3 .2 4.3.8 1.2 1.4 2.5 1.6 3.9v1c-1 3.3-1.7 6.6-2 10l-.5 3.5c-3.1 19.6-21.8 32.3-39.9 44.6-19.2 13-39 26.5-41 48.6-.1.2-.2.5-.2.8l-.1 1.8v.5c-.2 5.5-.5 25.5 6.1 39.6.8 5.4.5 7.8-1 8.2-.4.1-.8.3-1.1.5-.3.1-.5.3-.8.5-4.3 2-7.1 5.7-9.6 9l-.5.6c-2.4 3.1-1.9 6.8 1.1 9.3l.8.6c.3.3.7.5 1 .8 8.9 8.3 11.5 16.1 8.5 25.3-.6 1.8-.7 3.8-.3 5.7.6 3.1 1 6.3 1.1 9.6l.4 5.2c1.3 12-.8 21.1-6.6 28.5-1.3 1.8-2.4 3.9-3.2 6-2.5 6.2-2.1 12.3-1.7 18.2l.1.9c.4 3.8 1.1 7.5 2.1 11.2.4 1.8.9 3.6 1.3 5.4 2.7 13.7 6.3 24.8 11.1 34.9 1.9 3.8 3.4 7.8 4.3 12-.4.8-.8 1.5-1.1 2.4l-.3.9-3.5 10.4-.3.8c-.9 2.7-1.6 5.4-2.2 8.1-.4 1.7-1 3.4-1.7 5-.5 1.2-1 2.4-1.4 3.6l-5.1 15.3-2.7 8.2-.2.5c-3.8-2.3-7.5-4.9-11-7.7-.2-.2-.3-.5-.5-.7 1.1-2.6 2.8-4.9 5-6.6 1.3-1.1 3.1-2.6 3.3-5.4 0-.6-.1-1.1-.4-1.6-.1-.3-.3-.5-.5-.7-.1-.1-.2-.3-.3-.4-.1-.3-.3-.5-.5-.8-1.2-1.8-2.7-3.4-4.4-4.7-.6-.5-1.2-1-1.8-1.6l-.7-.7-6.1-5.8-38-36.8-15.5-15.4c-1.4-1.4-2.7-2.7-4-3.8l-10-8.1c-21-19-36.8-32.2-47-39.2l-.7-.5-.5-.3c-8.1-6.3-14.9-11.2-21.3-15.5-8.3-5.5-16.7-10.6-25.4-15.3-13.7-7.5-28-13.9-42.7-19.3-9.3-3.4-18.8-6.2-28.5-8.5l-2.4-.6-2.9-.7c-1.6-.4-3.2-.8-4.9-1.2-3.9-.8-8.1-1.5-12.8-2.1a34.013 34.013 0 00-9 0l-.4-.4c-1-1.3-2.1-2.5-3.3-3.7-2-1.8-4.1-3.6-6.1-5.3l-2.6-2.2c-8.7-7.4-18.1-13.9-28-19.6-2.9-1.7-5.9-3.3-8.9-4.7.6-.6 1.2-1.1 1.9-1.7l.7-.6c6.9-6 13.3-12.5 19.3-19.4 15.3-17.8 24.6-41.7 27.6-70.9 2.3-22 3.1-53.3-5.9-77.8-.1-.3-.2-.6-.2-.9l.6-.3c1.2-.4 2.4-.8 3.6-1 4.1-.7 8.1-1.6 12.1-2.8l5.2-1.4c3.2-.9 6-2.8 8-5.4 2.2-2.8 3.5-6.3 3.5-9.9 0-.4 0-.9-.2-1.3-1.2-2.9-3.8-5-6.8-5.7-3.5-1.1-7-1.9-10.6-2.5-2.2-.3-4.5-.5-6.8-.7-2-.2-3.9-.3-5.9-.6l-5.7-.8c-.6-.1-1.2-.1-1.8-.2-.9 0-1.8-.2-2.7-.5l-.9-.3-3-.5 1.2-6.5c.1-.2.1-.4.1-.6l.3-1.7c.6-3.8 1.3-7.7.8-11.8-.6-4.6-1.7-9.2-3.3-13.6-2.4-6.9-6-13.3-10.5-19 4.1-4.2 9-7.5 14.4-9.8 1.4-.6 2.1-2.2 1.5-3.7-.1-.2-.2-.3-.3-.5-2.7-3.8-7.1-6.1-11.7-6-1.4 0-2.7.2-4 .6l-49.2-74.3c-1.8-2.8-3.9-5.9-4.4-9.2-.8-5.1 2.1-10.2 5.4-15.5l44.2-70.8c6.6-10.5 14-22.4 16.9-35.7 3.2-14.6-.1-30.9-9-44.5s-22.4-23.2-37.1-26.2c-5.3-1-10.7-1.5-16.1-1.4-4.1 0-8.2.2-12.3.4l-11.8.4c-16.2 0-32.3-3-47.8-5.8-15.4-2.8-31.3-5.8-47.4-5.9h-1c-37 0-74.4 15.8-100.1 42.4-4.2 4.2-7.9 9-11 14.1-16.4 18-39.8 29.3-62.2 38.2-32.8 13.1-68.3 24.5-92 52.4-10.6 12.4-18 27.4-19.4 43.8-1.4 16.8 3.9 33.7 12.5 48 18.9 31.2 51.7 48.9 82.8 66.1zm124.3 191.2c1.8-.9 1.8-.9 3.3.9l-1.9 1.8c-1.2-.7-1.7-1.5-1.4-2.7zm26.9-148.2l-9.9 6.6c-.7.4-1.5.7-2.2 1 1.2-3.4 1.8-4.5 3.5-5.4 2.6-1.2 4.8-3 6.7-5.1.8-.8 1.8-1.3 3.4-.2l-1.5 3.1zm635.6 309.3l1.5 1.3-2.5 2.5-2.8-1.5c-.1-1.3.5-1.6 3.8-2.3zM557.2 850.6c-1.8 6.5-3.9 13-5.9 19.5-.6 1.8-1.1 3.6-1.8 5.4-.4.9-.8 1.8-1.3 2.7-.8-.2-1.5-.4-2.2-.8-.8-.6-1.1-1.6-.9-2.6.2-1.2.6-2.5 1-3.6 2.2-6.1 3.8-12.3 5.7-18.5.8-2.7 1.6-5.5 3.3-7.9l1.7.1c.3.5.5.7.5 1 .3 1.6.2 3.1-.1 4.7zm35.1-129.4c-.3 3.8-1 7.5-1.6 11.2-.5 3-.9 5.9-1.6 8.8-1.8 7.9-3.8 15.8-6 23.6l-6 20.1c-5.5 17.1-7.8 35.3-14.2 52.1-.4.7-.8 1.4-1.3 2-1.6-.6-3.3-.9-4.4-1.8-1.4-1.1-3-.8-4.5-1.2-1.5-.5-2.9-1.4-4.3-1.9-1.4-.6-3.2-.6-4.4-1.5-1.4-1.1-3-.8-4.5-1.7-.1-.6 0-1.2.1-1.8 8.2-20.2 12.9-42 18.7-63.1 4.5-16.5 10.7-32.8 14.4-49.4l3.4-11.3c.1-.2.2-.4.2-.6l.7-2.3 7.5-20.4 4.7 10.4c.1.5.2.9.3 1.4 1.2 4.2 2 8.6 2.3 13 0 .8.1 1.6.2 2.4 1.1 3.8.7 7.9.3 12zm256.1-101.3c-2.1 1.6-3.7 3.8-4.5 6.3-.6 1.6-1.5 3.1-2.6 4.5-2.1 2.6-3.9 5.4-5.3 8.4-.9 1.8-2.2 3.4-3.8 4.7-1.2.1-1.5-.6-1.3-1.4.2-1.2.7-2.4.1-3.7-.2-.8-.1-1.6.2-2.3.4-1.7.9-3.3 1.4-5.3-.5-1.6-1.1-3.4-.1-5.3.2-.6.2-1.3.1-1.9 0-1.9-.3-3.9.1-5.7.3-1.7.3-3.4-.1-5.1-.1-.6.3-1 1.7-2.2 2.4.8 4.9 1.5 7.2 3 1.9 1.3 4 2.6 6.5 2.6.6 0 1.2.8 2 1.5-.6.7-1.1 1.3-1.6 1.9zm91.3-13.1c1.1-2.9 2.7-2.9 4.4-2.5-1.3.6-2.5 1.4-4.4 2.5zm26.7-44.6c4.6-2.1 9.9-1.5 13.9 1.7 2.4 1.6 4.3 4 5.3 6.7.4 2.5.1 5-.9 7.3-.8 2.1-1.4 4.2-2.1 6.3-1.5 5-4.4 9-7.7 12.9l-3.9 4.6c-.8.2-1.7.3-2.5.3-4.3.1-8.5.7-12.6 1.7-2.8.6-5.6.3-8.7.4 1.5-1.6 1.5-1.7 2.4-1.8 1.3-.1 2.5-.5 3.4-1.4.5-.4 1-.7 1.6-.9l16-7.1c1.7-.8 3.4-1.6 5.1-2.6.7-.4 1.2-1 1.7-1.6.2-.2.2-.6.2-.9-.7-1.3-1.9-1-2.9-.7-2.6.7-5.1 1.6-7.7 2.3-.3.1-.7.1-1 .1l-.7-1.4c1-1.2 1.9-2.4 2.8-3.7.8-1.3 1.4-2.7 2-4.1v-8.7c-1.8-2.4-3.6-4.7-5.5-7.1.1-1.3.9-1.9 1.8-2.3zm-6.8 7.4c1.8 1.2 3.1 2.9 3.9 4.9l2 1.5c-.8 3.2-.8 3.2.3 6.6l-1.8 4.1.7 2.3c-3.5 3-9.1 5.3-14.8 5.9-.8.5-1.8 1.2-2.7 1.7-1 .6-2.1.8-3.2.5-4-.9-8.1-1.1-11.9-3l-3.5-3.9-.8-3.5c3.8-3.2 6.6-7.3 11-9.8 4.2-2.4 7.7-6.1 12.4-7 .7-.9 1.6-1.8 2.4-2.7 1.1-.8 2.2-1.5 3.3-2.1.4.5.7 1.1 1 1.7.1 1.2.8 2.2 1.7 2.8zm-77.5-146.1l1.4-4.1-1.4 4.1zm-.3-3.2c-1.6.6-3 1.7-4 3 1-1.4 2.4-2.4 4-3zm-6.5-2.8c-.6.2-1.1.6-1.5 1.1.4-.5.9-.9 1.5-1.1zm-.2 12c-.8 3.1-1.1 6.5-1.6 9.7.5-3.2.8-6.6 1.6-9.7zm-37 53.5c-7 4.8-14.2 9.5-20.7 14.5 6.5-5 13.7-9.7 20.7-14.5zm-39.9 58.6c0-6.4 1.5-12.5 3.7-18.5 1.3-3.2 2.8-6.4 4.7-9.3.7-1.2 1.6-2.3 2.7-3.3 3.2-3 6.2-6.3 9-9.7 1.4-2.1 3.5-3.7 5.8-4.7 1.9-.7 3.3-2.3 5-3.5 4-2.8 7.9-5.8 12-8.5 3-2 6.2-3.7 9.6-5.2 3-1.2 5.3-3.4 7.9-5.1 1.4-1 2.7-2.1 4.1-3.1 1.3-.9 2.6-1.8 3.9-2.6 2.3-1.4 4-3.7 4.9-6.2.7-2.1 1.6-4.1 2.5-6.2.6-1.4 1.3-2.9 2.8-3.6 1-.2 2 .5 2.2 1.5v.4c.1.8 0 1.6-.1 2.4-1.3 7.5-3.7 14.7-7 21.6-1.5 3.3-2.7 6.7-3.8 10.2-.4 1.2-.5 2.5-.4 3.7.2 1.1.6 2.2 1 3.3 1.3.5 1.9 0 2.2-.8 1.1-2.6 2.1-5.3 3.3-7.9 1-2.3 2.1-4.6 3.3-6.8.5-.7 1-1.3 1.6-1.9 1.3-.6 2.8-.5 4 .3 2.5 1.5 5 3.2 7.2 5.1 0 .3.1.6.2.9 3.3 5.6 6.3 11.1 10.5 16.1 4.6 5.3 8.8 10.9 12.7 16.7 8 12.3 11.1 25.9 14.7 39.9 1.5 6.1 3.2 13-.2 18.2 3.9-2.5 6-6.8 5.7-11.4 1.5-.5 3.1.3 4.6.3 3 0 5-2.9 6.1-5.7 3.6-9.5.9-20-1.8-29.8-.4-1.4-1.1-3-2.5-3 1.3 5.7 1.9 11.6 1.7 17.5-.1 2.5-.4 5.2-1.9 7.2s-4.7 3-6.7 1.3c-1.4-1.2-1.7-3.2-2-5-1.5-10.1-5.7-19.5-10.8-28.3-4.9-8.5-10.3-17-18.2-23-3-2.3-5.7-5-8-8.1-1-1.6-2.3-2.9-3.8-4l-.7-4.1c.3-.9 1.1-1.6 2.1-1.5h15.7c.9 0 1.9.2 2.8.5 1.2.4 2.5.8 3.7 1.2 20.6 6.5 31.7 15.7 34.7 18.5-.4.1-.8-.1-1.1 0 1.1 1.6 2.2 3.3 3.1 5 2.3 4.7 4 9.6 5.2 14.7 1.1 3.9 1.8 8 2 12.1.1 1.3.3 2.5.4 3.8.2.6.2 1.2.2 1.8-.8 3-.4 6-.4 9 0 1.9-.3 3.8-.9 5.6-1.3 3.9-2.2 7.9-3.4 12.1l-8.2 4.2c-1.7.8-3.3 1.9-4.7 3.2-3 2.8-6.2 5.3-9.8 7.4-3.6 2.2-6.6 5.4-8.4 9.2v2.7l.1.3c.2 1 .3 2.1.2 3.1 1 2.6 3.2 4.2 3.5 6.7-.1 1.2-.8 2.2-1.9 2.6l-8.8 3.6c-1.6.6-3.3 1-4.9 1.7-5.1 2.3-10.6 3-15.8 4.9-.2 0-.3.1-.5.1l-13.2.9c-.5 0-.9-.1-1.4-.2-.2 0-.3.1-.4.1-5.6.1-11.2-.4-16.7-1.5h-.3c-2.6-.1-5.3-.5-7.8-1.1-4.2-.2-8.4-1.1-12.3-2.6l-.9-.3c-6-1.2-11.1-4.4-16.6-6.8-.4-.2-.9-.4-1.2-.7-5.7-5-11.9-9.5-16-16-1.7-2.6-3.2-5.4-4.4-8.3-3.2-8.3-5.4-16.8-5.2-25.8l-.2-7.5zm135 16.7l1-2.5c1.4.1 2.7.7 3.6 1.8l.8 4.1c-.5 0-1.2.3-1.6.1-1.6-.6-2.6-2-3.8-3.5zm-140.8-23.7l.3-3-.3 3zm-5.8 59.6c2.2-2.7 4.5-5.2 7.7-6.5-3.2 1.3-5.5 3.8-7.7 6.5zM504.9 622c.9 0 1.8.1 2.7.1-1-.1-2-.1-3-.1h.3zm-29-314.2c.6 0 1.2.1 1.8.2-.9-.1-1.7-.1-2.6-.1.2 0 .5-.1.8-.1zm-3.8 28.4c2.2 5.7 3.8 11.7 4.6 17.8.3 2.2.7 4.3.8 6.5.4 6-1.1 11.6-2.8 17.2-.4 1.5-1.4 2.8-2.7 3.6-5.1 0-10 .3-15-.1-.2-.6-.4-1.3-.4-1.9.5-2.9 1.1-5.9 1.7-8.8l-1.3-5.2-3.1-3.3-5.8-2c-1.1-.8-1.5-2.2-1-3.5 1.1-4.2 1.3-8.8 4.2-12.4.4-.7.7-1.4.8-2.2 2-4.5 5-8.4 8.8-11.5.8-.5 1.8-1 2.7-1.3l8.5 7.1zM422.6 30.7c1.2 0 2.3.1 3.5.1-2-.1-3.9-.1-5.9-.1h2.4zM302 19.7h1.2c-2.7 0-5.3.2-8 .3 2.2-.1 4.5-.3 6.8-.3zm-96.2 207.1c19.2-18.5 41-34.2 64.7-46.5-14.7 5-28.7 11.8-41.7 20.3-3.4 1.9-6.6 4.2-9.6 6.7-10.5 7.8-20.1 16.6-28.8 26.4l.1.4c-12.4 13.2-24.9 29-33.4 45l48.7-52.3z"/>
  </g>
</svg>
