<?xml version="1.0" encoding="utf-8"?>
<!-- Generator: Adobe Illustrator 23.0.5, SVG Export Plug-In . SVG Version: 6.00 Build 0)  -->
<!DOCTYPE svg PUBLIC "-//W3C//DTD SVG 1.1//EN" "http://www.w3.org/Graphics/SVG/1.1/DTD/svg11.dtd" [
	<!ENTITY ns_extend "http://ns.adobe.com/Extensibility/1.0/">
	<!ENTITY ns_ai "http://ns.adobe.com/AdobeIllustrator/10.0/">
	<!ENTITY ns_graphs "http://ns.adobe.com/Graphs/1.0/">
	<!ENTITY ns_vars "http://ns.adobe.com/Variables/1.0/">
	<!ENTITY ns_imrep "http://ns.adobe.com/ImageReplacement/1.0/">
	<!ENTITY ns_sfw "http://ns.adobe.com/SaveForWeb/1.0/">
	<!ENTITY ns_custom "http://ns.adobe.com/GenericCustomNamespace/1.0/">
	<!ENTITY ns_adobe_xpath "http://ns.adobe.com/XPath/1.0/">
]>
<svg version="1.1"
	 id="Layer_1" xmlns:x="&ns_extend;" xmlns:i="&ns_ai;" xmlns:graph="&ns_graphs;" xmlns:v="https://vecta.io/nano"
	 xmlns="http://www.w3.org/2000/svg" xmlns:xlink="http://www.w3.org/1999/xlink" x="0px" y="0px" viewBox="0 0 853.6 1280.1"
	 style="enable-background:new 0 0 853.6 1280.1;" xml:space="preserve">
<style type="text/css">
	.st0{fill:#F8A475;}
	.st1{fill:#373737;}
</style>
<metadata>
	<sfw  xmlns="&ns_sfw;">
		<slices></slices>
		<sliceSourceBounds  bottomLeftOrigin="true" height="1230.4" width="790.2" x="31.6" y="25.4"></sliceSourceBounds>
	</sfw>
</metadata>
<g>
	<path class="st0" d="M331.3,570.3c2.4-5.1,5.2-10.1,7.9-14.8l0,0l0,0c1-1.8,2-3.5,2.9-5.2c10-1,19.1-0.4,27.6,6.2
		c0.9-4.7,1.7-8.8,2.5-13.3c-5.4-0.7-8.6-3-9.3-7.9c9.1-0.9,16.1-4.5,20.4-12.8c1.8-3.5,4.4-6.7,7.1-9.7c4.7-5.1,9.6-10.1,14.4-15
		c7.9-8.1,19.5-11.4,29.3-16.4c2.6-1.3,5-2.7,7.5-4.1c3.5-2,6.5-4.6,10.8-4.6c0.3,0,3.3,0.3,3.3,0.4s-0.1,0.2-0.1,0.4
		c4-1.3,8.1-2.8,11.2-3.9c3.2-2.5,6.4-4.9,9.8-7.5c-3.2-2.3-4.7,1.5-7.9,1.3c0.1,0,1.5-2.1,1.9-2.4c1-0.6,2.4-0.8,3.6-1.2
		c2.8-0.8,5.7-1.7,8.6-2.4c5.6-1.4,11.4-2.2,17.1-1.1c3.9,0.8,7.7,2.4,10.9,4.9c1.6,1.2,3,2.7,4.1,4.3c0.8,1,2.9,3.7,2.7,5.1
		c-0.1,1.1-0.3,2.9-0.6,5.4c2,1.3,4.1,2.6,6.7,4.3c2.4-5.2,4.4-10.1,3.4-14.9c-1-4.4-3.9-8.4-6.3-13.3c3.9,1.2,7.4,3.6,9.5,7.1
		c2.2,3.6,3.3,8.5,3.5,12.7c0.1,2.3-0.2,4.6-1.2,6.8c-0.3,0.8-2.3,4.8-3.4,4.6c4,0.8,17.7-11,19.7-13c2.1-1.9,3.9-4.1,6.5-7
		c0.6,4.1,1,7.4,1.6,11.3c-1,2.1-2.2,4.7-3.4,7.3c-3.9,2.5-7.8,5-12.4,7.9c1.2,3.5,4.5,5.3,7.3,7.3c1.7,1.2,3.3,2.7,4.8,4.2
		c2,1.5,4.1,3.8,5.8,7.4c10.2,16,12,37.1,9.2,55.4c-1.3,8.5-3.4,16.9-5.1,25.4c-1.6,7.8-2,16.4-6.4,23.3c-0.9,1.3-0.5,3.4-0.8,5.9
		c4.9-2.3,8.3-0.8,11.9,1.4c0.5,1.1,0.9,2.3,1.5,3.4c-1.1,4.3-1.5,8.4-2,12.6c-0.1-0.1-0.2-0.1-0.3-0.2c-0.5,0.9-0.9,1.8-1.4,2.7
		c-2.3,2.9-4.1,6.1-5.3,9.7c-0.4,2.1-0.9,4.2-1.3,6.3c-0.1,0.1-0.2,0.1-0.2,0.2c-3.6,6.9-9,12.3-14.1,18c-3.1,3.5-4.5,8.4-8.8,11.1
		c1.2,0.9,2.3,1.8,3.5,2.6c11.2,8.3,22.3,16.9,33.4,25.6c16.4,14.1,35.4,33.5,43.4,53.2c0.9,2.2,1.7,4.5,2.3,6.8
		c1.9,7.2,2.2,14.4,0.1,21.4c-0.9,1.9-1.6,3.6-2,5.2c0,0,0,0.1-0.1,0.1c-2.6,5.3-3.8,8.4-4,9.7c-1.4,2.8-2.8,5.6-4.3,8.5l0,0l0,0
		c-0.4,0.3-19.9,14.9-26.5,24.3c-0.8,1.2-1.5,2.3-1.9,3.3c-3.4,8.8-15.4,28.2-13.8,36.8c0.5,2.5,1.7,4.2,3.1,5.4
		c1.6,0.9,4,1.4,5.5,0.8c0.9-0.3,1.3-0.8,1.5-1.5c-0.5-0.8-0.9-1.7-1.2-2.7c-0.7-2.7-0.5-5.7,0.3-8.6c0,0,0,0,0-0.1
		c0.1-1.4,0.5-2.6,0.9-3.8c0.4-3.2,1.6-6.5,4.3-9.9c6.9-8.8,30.7-22,34.1-23.4c0.4-0.2,1-0.5,1.8-0.9c2.6-0.8,5.4-1.7,8.1-2.7
		c9.1-3.4,17.7-7.4,19.6-8.1l0,0c3.5-1.3,16.3-7.9,25.1-14.3c0,0,0.1,0,0.1,0.1c1.2-0.8,2.4-1.5,2.9-2s0.9-1,1.4-1.6
		c2.1-1.9,3.7-3.6,4.3-5.2l0,0c36.8-46.8,31.6-109.9,32.5-166.3c1-62.2,22.8-114.6,63.5-161.4c96.6-111.1,34.2-278.3-72.3-359.4
		c-75.2-57.2-170.1-86-263.7-90.8C221.8,14.1,40,132.9,31.9,290.4c-7,137.5,120.6,259.1,296.9,295.2
		C328.7,580.4,329,575.2,331.3,570.3z M618.8,793.8c-0.3,0.9-0.6,1.8-1,2.7C618.2,795.6,618.5,794.7,618.8,793.8z"/>
	<path class="st1" d="M774.4,1103.6c-0.6-8-3.2-15.9-5.1-23.7c-2.7-11.6-5.6-23.1-8.3-34.7c-3.2-13.2-8.5-25.4-16.7-36.3
		c-6-8-12.4-15.9-18.6-23.8c-8.4-10.6-15-22.1-19.6-34.9c-3.8-10.6-7.4-21.2-9.8-32.2c-0.5-2.6-1.7-5-2.3-7.5
		c-0.5-2.1-0.7-4.3-1-6.6c-0.6-2.5-0.9-5-0.9-7.7c-1.5,1.5-3.1,2.8-4.7,4.2c0,0.8-0.1,1.6-0.1,2.5c0,2.5,0.1,5.3-0.3,7.9
		c0.2,3.3,0.4,6.4,0.9,9.4c3.6,24.6,11.5,47.3,27.4,67c8.2,10.1,14.2,21.6,18.7,33.9c3.3,9.2,7.3,18.2,10.9,27.4
		c5.5,13.9,7.6,28.7,10.8,43.2c2.3,10.7,3.8,21.6,5.3,32.4c0.5,3.5,0,7.2-0.1,10.8c-0.1,2.4-0.2,4.7-0.4,7.3
		c2.5,1.2,4.6,2.2,6.8,3.3l-0.1,2.1c0.6,0.3,1.2,0.7,1.8,1c-0.3-2.2,0.8-4.2,2.1-6.1c2.1-3.1,3-6.4,3.1-10.1
		C774.1,1122.9,775.2,1113.2,774.4,1103.6z"/>
	<path class="st1" d="M545.1,1143.4c-7,4.3-14.4,8.2-21.6,12.2c-1,0.6-2.2,1-3.4,1.1c-4.8,0.6-9.2,2.1-12.6,5.9
		c-0.9,1-2.4,1.5-3.7,2c-3.8,1.4-7.6,2.6-11.4,4.1c-2.5,1-4.9,3.1-7.4,3.4c-7.7,0.9-14.1,5.1-21.4,7c-5.2,1.4-10.2,3.5-15.2,5.3
		c-8.2,2.9-16.9,4.4-25.3,6.6c-10.1,2.6-20.1,5.2-30.2,7.9c-4.1,1.1-8.1,3.3-12.2,3.5c-6.2,0.2-12,1.9-18.1,2.5
		c-11.2,1.1-22.3,2.2-33.5,3.3c-0.1,0.2-0.2,0.5-0.3,0.7c6.4,0.8,12.7,1.7,19.1,2.3c10.9,1,21.5-1.4,32-3.3
		c12.7-2.2,25.2-5.5,37.7-8.6c14.1-3.5,28.1-7.4,42.2-11c19.3-5,38.3-10.9,56.4-19.2c10.2-4.7,21.2-8.4,29.5-16.9
		c3.6-3.7,8-6.8,12.5-9.3c4.6-2.6,7.5-7.3,12.5-9.3c0.8-0.3,1.3-1.3,2.1-2.2c-2-0.9-3.6-1.7-5.4-2.5
		C560,1133.6,552.7,1138.7,545.1,1143.4z"/>
	<path class="st1" d="M593.5,1114.5c-4-20.3-5.2-40.6-7.9-61c-1.1-8.6-2.8-18.5-6.1-26.5c-0.9-2.3-2.9-4.9-5.3-4.3
		c3.5,19.2,3.4,38.8,4.5,58.3c1.1,21.2,4.9,40.9,12.2,60.8c2.4,6.6,4.3,13.4,6.9,19.9c1.1,2.6,2.4,5.2,4.4,7.3c1.2,1.3,7.7,4,8,4.8
		c-3.3-8.9-6.3-18-8.9-27.1C598.2,1135.9,595.6,1125.2,593.5,1114.5z"/>
	<path class="st1" d="M608.4,817.1C608.4,817,608.5,817,608.4,817.1C608.4,817,608.4,817.1,608.4,817.1L608.4,817.1z"/>
	<path class="st1" d="M644.3,825.9c7-2.4,13.7-5.7,20.5-8.8c1-0.5,2.2-0.7,4.1-1.3c1.8,3.7,4.1,7.1,5.2,10.9c3.5,11.9,6.5,24,9.6,36
		c0.9,3.5,1.6,7,2.4,10.7c-0.2,0.3-0.4,0.5-0.6,0.8c2,1.3,3.5,3.2,4.1,5.5c1-0.9,1.9-1.8,2.8-2.8c0.3-4.9,0.5-9.7,0.8-14.6
		c0.1-1,0.2-2,0.3-3c-1.2-4-2.3-7.8-3-11.8c-2.2-12.3-7.2-23.2-15.8-32.9c-1.8-0.8-3.6-1.8-5.3-3c0,0-0.1,0-0.1-0.1
		C660.5,818,647.7,824.6,644.3,825.9z"/>
	<path class="st1" d="M617.8,796.5c0.4-0.9,0.7-1.8,1-2.7C618.5,794.7,618.2,795.6,617.8,796.5z"/>
	<path class="st1" d="M436.3,572c-3.2,1.8-7.3,4.2-7.7,10.4c4.2-4.6,8-7,13.3-5.7c1.9,2,3.8,3.9,5.8,6c-1.9,1.6-3.4,2.8-4.8,4.1
		c-1.2,1.1-2.3,2.3-3.4,3.5c0.3,0.4,0.7,0.7,1,1.1c3.6-2.2,7.1-4.4,11-6.8c1.9,1,3.9,2,5.9,3c-1.8,9.2-4.9,17.8-4.5,26.5
		c1.4,1.9,2.5,3.4,3.6,4.9c-4.2,4-9.4,1.8-15.2,2.8c2.3,1,3.3,1.6,4.4,1.9c1.4,0.4,2.8,0.5,4.3,0.7c5.5,0.5,9.5-1,10.9-6.8
		c1.1-4.4,2-8.8,2.8-13.2c1-5.8,1.8-11.6,2.8-18.3c0.5-0.3,1.8-1.8,3.3-2c7.6-0.9,10.2-6.2,12-13.2c-2.5-3.3-3.6-7.6-9-8.6
		c-3.8,3.3-8,6.9-11.7,10.1c-4.8-1.1-8.9-2-13.1-3C443.8,568.3,439.7,570.1,436.3,572z"/>
	<path class="st1" d="M502.1,654.5c-4,5-4,5-10.9,6.4c-6.8-2.9-10.2-8.8-13-15.3c-1.8-4.2-3.7-8.4-5.5-12.5c-0.5,0.1-1,0.2-1.6,0.3
		c-0.1,1.8-0.4,3.6-0.2,5.4c1.6,13.5,11.1,24.6,26,28.3c1.7,0.4,3.8,0,5.6-0.5c5.7-1.6,7.1-6.5,8.4-12.1c-1.5-2.7-3.3-5.8-5.1-8.9
		c-0.8-1.4-2.1-2.9-2.3-4.4c-0.8-6.1-2.2-12.4-1.7-18.4c1-11.7,2.4-23.5,6.5-34.7c0.2-0.4-0.9-1.3-2.1-2.8c-0.9,2.7-1.5,4.6-2.2,6.5
		c-1.1,0.4-2.2,0.8-3.4,1.3c-0.5,7-5.1,12.6-5.6,20c-0.4,7.4-0.2,14.5,0.2,21.8C495.6,642.4,500.5,647.8,502.1,654.5z"/>
	<path class="st1" d="M443.3,740.1c9.2,6,19.2,9.7,30.5,6.9c3-0.7,5.2-2.5,6.6-4.9c0.5-0.8,0.9-1.6,1.2-2.6c0.6-1.8,1.4-3.6,1.5-5.4
		c0.4-6.2,3.2-12.4,0.8-18.9c-3.4,4.9-6.5,9.7-9.9,14.3c-3.1,4-6.7,7.6-12.1,8.3c-10.7,1.2-18.8-4-22.8-14.5
		c-0.7-1.7-1.6-3.3-3.1-6.4c-1.4,8.9-0.3,15.5,3.7,20.1C440.7,738.1,441.9,739.1,443.3,740.1z"/>
	<path class="st1" d="M543.7,602.6c2.1-4.5,2.2-8-1.3-12.5c-4.3-5.5-6.3-11.6-7.8-18.3c-0.9-4.1-2.3-8.5-6.6-9.4
		c-3,1.2-5.3,2.1-8.1,3.1C517.7,585.8,526.6,599.6,543.7,602.6z"/>
	<path class="st1" d="M521.7,598.3c1.5,3.9,2.8,7.2,4.1,10.4c-4,8.2-8.4,15.4-8.1,24.4c1.9,1.9,3.7,3.6,6.6,6.5
		c4-8.6,8.2-15.9,6.9-24.9c-0.1-0.7-0.3-1.5-0.7-2c-2.5-2.6-3.1-6-3.4-9.2c-0.6-7.4-8.3-9.4-13.1-4.3c-1,1-2,2.1-3,3.1
		c0.3,0.3,0.5,0.6,0.8,0.8C514.8,601.6,517.9,600.1,521.7,598.3z"/>
	<path class="st1" d="M494.5,560.5c1-6.5,1.8-13.2,1.6-19.8c-0.1-4.3-0.7-9.1-5.8-12.5c1,12.7,0.5,24.4-4.7,35.4
		c-1,2.2-1.7,4.9,0.6,7.5C491,569.1,493.8,565.3,494.5,560.5z"/>
	<path class="st1" d="M491.8,680c-1.7-1.2-3.7-2.1-5.7-2.9c-8.9-3.6-18.3-3.5-27.5-2.7c-6.5,0.6-12.9,2.9-19.3,4.5
		c1.8,1.1,3.4,1.3,5,1.3c9-0.3,18-0.7,27.1-0.9c4.8-0.1,9.4,0.7,13.8,3.2c2.3,1.3,5,3,8.5,1.1C493,682.2,492.7,680.7,491.8,680z"/>
	<path class="st1" d="M507.5,563.3c3-9.4,6.1-18.8,3-29.1c-2,9.6-3.4,19.4-8.4,28.1c1.3,0.6,1.9,1.1,2.5,1.2
		C505.2,563.7,506,563.5,507.5,563.3z"/>
	<path class="st1" d="M469.6,1115c-6.3,1.8-12.9,3-19.7,7.6c2.8,0,4.2,0.2,5.5-0.1c11.9-2.4,23.8-5,35.7-7.3
		c8.2-1.5,16.5-2.3,24.7-3.9c11.3-2.2,21.6-7.5,32.4-11.5c3.5-1.3,6.6-3.5,9.9-5.2c-0.2-0.6-0.4-1.2-0.7-1.7
		c-7.7,0-14.9,2.7-21.9,5.3C514,1105.9,491.4,1108.8,469.6,1115z"/>
	<path class="st1" d="M497.1,1089.7c5.1,0.5,65.3-8,70.1-9.8C542.7,1079.9,519.7,1083.5,497.1,1089.7z"/>
	<path class="st1" d="M567.8,907.8c-1.2,0.5-2.7,1.1-4.6,1.9c6.5,2.1,7.3,2.8,9.1,8.5c1.1,3.4,1.9,6.9,2.6,10.4
		c1,5.4,1.8,10.9,2.6,16.5c3.3-0.9,3.7-3.2,3.9-5.7c0.9-8.2-2-15.5-5.3-22.7C574.5,912.7,572.4,909.5,567.8,907.8z"/>
	<path class="st1" d="M755.3,1106.7c-1.1-0.5-1.3-1.2-1.5-1.8c-6.3-21.8-26.6-36.3-43-50.3c-6.3-5.4-11.7-11.7-17.2-17.9
		c-8-9.2-14.9-19.1-22.6-28.5c-8.5-10.5-17.2-21-25.7-31.5c-1.3-1.6-2.2-3.6-3.3-5.5c0.8-1.3,1.3-2.7,2.2-3.2c5-2.8,6.7-7.8,9-12.5
		c4.8-9.7,8.8-19.7,11.9-30c0.9-3,1.5-6,0.9-9.2c4.1-2.2,8-7,5.2-22.7l-3.7,0.7c0.4-3.6,1-7.3,1.8-10.9c-1.2-5.7-4.6-10-8.9-14
		c-1.3,0.6-2.6,1.2-4,1.8c-0.4-0.6-0.7-1.2-1.1-1.7c-1.9-2.7-3.6-5.6-5.8-8.1c-2.7-3-4.3-6.1-4.5-10.2c-0.4-6.5-2.6-12.2-9.5-16.6
		l-10.9-0.6c-2.7,1-5.5,1.9-8.1,2.7c-0.7,0.4-1.3,0.7-1.8,0.9c-3.4,1.4-27.2,14.6-34.1,23.4c-2.7,3.4-3.9,6.7-4.3,9.9
		c-0.4,1.2-0.7,2.4-0.9,3.8c0,0,0,0,0,0.1c-0.7,2.9-1,6-0.3,8.6c0.3,1,0.7,1.9,1.2,2.7c-0.2,0.6-0.6,1.1-1.5,1.5
		c-1.5,0.6-4,0.1-5.5-0.8c-1.5-1.2-2.7-2.9-3.1-5.4c-1.6-8.5,10.4-27.9,13.8-36.8c0.4-1,1-2.1,1.9-3.3c-1.6-3.1-3.3-6.2-4.5-8.5
		c-8.7-4.5-15.1,0.2-22.1,3.8c0.1,4.8,0.2,10.5,0.2,16.1c0,5.9-1.5,11.3-5.6,16.3c-6.2-34.3-10.9-68.3-24.4-100.1
		c5.1-2.4,23.8-1.7,31.9,1.2c4.8,20.1,11.5,39.7,22.2,57.7c0.6,1.1,2.1,1.6,3.2,2.4c2.3-2.2,1.4-4.3,0.7-6.3
		c-2.8-7.4-5.5-14.8-8.3-22.2c-2.4-6.3-5.1-12.4-7.4-18.7c-1.8-4.9-3.1-10-7.1-14.3c3,0.4,6.1,0.8,9.1,1.1c4.3,0.4,8.6,0.9,12.9,1.1
		c11.4,0.4,22.8,0.7,34.2,1c0.6,0,1.2,0,1.9,0.1c-0.6-2.2-1.4-4.5-2.3-6.8c-2.5-0.4-5.1-0.9-7.7-1.5c-1.3-0.3-2.6-0.8-3.8-1.3
		c-7.5-0.7-14.9-0.8-22.3-0.3c-5,0.4-10.1-0.2-15.1-0.4c-13-0.6-25.9-1.6-38.9-1.9c-9.8-0.2-19.6,0.4-29.4,0.7
		c-0.7-1-1.5-2.1-2.4-3.2c-16.7,4.3-32.5,10.5-47.3,19.1c-5.3-5.5-2.7-12.1-4.3-18.1c1.7-0.9,3.1-1.7,4.7-2.5
		c9.4,4.9,19.5,4.5,29.6,3.6c5.2-0.5,9.9-2.8,14.2-5.6c6.3-4.2,11.2-8.5,15.2-15.1c3.7-6.1,6.6-12.9,7.4-20c0.3-2.6,0.9-5,1.7-7.3
		c0.6-1.7,1.3-3.4,2.1-5c2.9-5.9,6.8-11.2,10-16.8c0.8-0.1,1.4-0.2,2-0.3c0.8-1.1,1.6-2.1,2.5-3.1c0.4-1,0.8-1.8,1.5-2.2
		c0.1,0,0.1-0.1,0.2-0.2c4.3-2.8,5.6-7.7,8.8-11.1c5.1-5.7,10.5-11.1,14.1-18c0-0.1,0.2-0.2,0.2-0.2c0.4-2.1,0.9-4.2,1.3-6.3
		c1.2-3.6,3-6.8,5.3-9.7c0.5-0.9,0.9-1.8,1.4-2.7c0.1,0.1,0.2,0.1,0.3,0.2c0.5-4.2,0.9-8.3,2-12.6c-0.6-1.2-1-2.4-1.5-3.4
		c-3.6-2.2-7-3.6-11.9-1.4c0.3-2.5-0.1-4.6,0.8-5.9c4.5-6.9,4.8-15.5,6.4-23.3c1.8-8.4,3.8-16.9,5.1-25.4
		c2.9-18.3,1.1-39.4-9.2-55.4c-0.7-1.1-1.5-2.2-2.3-3.3c-1.1-1.4-2.2-2.8-3.5-4.1c-1.5-1.5-3.1-2.9-4.8-4.2c-2.8-2-6.1-3.8-7.3-7.3
		c4.6-2.9,8.5-5.4,12.4-7.9c1.2-2.6,2.5-5.2,3.4-7.3c-0.5-3.9-1-7.2-1.6-11.3c-2.7,2.9-4.5,5.1-6.5,7c-2,1.9-15.7,13.8-19.7,13
		c1.1,0.2,3-3.8,3.4-4.6c0.9-2.1,1.2-4.5,1.2-6.8c-0.1-4.2-1.2-9.1-3.5-12.7c-2.2-3.5-5.6-5.9-9.5-7.1c2.4,4.9,5.4,8.9,6.3,13.3
		c1.1,4.8-1,9.6-3.4,14.9c-2.6-1.7-4.7-3-6.7-4.3c0.3-2.5,0.5-4.4,0.6-5.4c0.1-1.4-2-4-2.7-5.1c-1.2-1.6-2.6-3.1-4.1-4.3
		c-3.2-2.5-6.9-4.1-10.9-4.9c-5.7-1.1-11.6-0.3-17.1,1.1c-2.9,0.7-5.7,1.6-8.6,2.4c-1.1,0.3-2.6,0.5-3.6,1.2
		c-0.4,0.2-1.8,2.4-1.9,2.4c3.2,0.2,4.7-3.6,7.9-1.3c-3.3,2.6-6.5,5-9.8,7.5c-0.2,0.2-0.5,0.3-0.7,0.5c2.6,0.4,4.8,1.3,7.7,0.8
		c3.7-0.7,7.5,1.3,9.8,4.9c1.2,1.8,2.4,3.6,3.7,5.7c0.3,2.3,0.7,4.9,1.1,7.5c-0.8,3.4-2.6,6.5-2.6,10.4c2.6-0.1,4.7-0.2,6.9-0.4
		c1-0.9,2-1.9,3-3c0.1-8.7-0.9-16.9-7.6-23.7c-2.8-1.3-5.9-2.8-9.5-4.5c6.2-4.2,12.8-5.9,19.8-6.5c3-0.2,5.7,0.4,7.2,3.6
		c-0.5,1.3-0.9,2.6-1.5,4.3c4.3,1.6,4.4,5.1,3.8,8.9c-0.4,2.5-0.3,5.1-0.7,7.7c-0.2,1.3-0.8,2.7-1.4,3.9c-2.3,4.6-4.7,9.1-7,13.7
		c-0.5,1-0.4,2.2-0.6,3.4l0.9,0.3c4.3-5.1,8.6-10.3,12.6-15.1c4.3,1.2,7.9,2.8,11.5,3c3.7,0.2,7.5-1,11.9-1.7
		c6.9,6.5,12.9,13.6,16.2,22.9c4.4,12,5.1,24.4,3.4,36.9c-2.1,15.4-3.3,30.9-6.2,46.2c-2.4,12.7-4.9,25.4-8.1,37.9
		c-3.3,12.7-7.7,25.1-11.8,37.6c-2.6,7.9-5.4,15.6-8.1,23.4c-0.8-0.4-1.7-0.8-2.7-1.3c-1.4,4.5-2.8,9.1-4.3,13.5
		c-3.6,10.5-8,20.5-14.8,29.5c-0.3,0.3-0.5,0.7-0.8,1c-6.2,7.9-13.7,11.5-23.3,12.1c-17.7,1.1-35.4,0.9-53-1.2
		c-5.4-0.6-10.6-2.7-15.9-4.1c-0.6-0.2-1.1-0.8-1.6-1.3c1.9-1.3,3.5-2.5,6.1-4.3c-2.3,0-3.6,0.4-3.9,0c-3-3.3-7.4-5.8-8.2-10.4
		c-0.5-2.9-1.2-5.9-1.8-8.8c-1.1-5.6-2-11.2-1.1-17.1c0.2-1.3-0.7-2.8-1.1-4.5c-4.8,3.1-0.3,6.1-1.3,8.8c-0.4,0.9-1.5,1.8-1.6,2.7
		c-0.1,2.3-0.1,4.6,0.1,6.8c0.6,6.9,2.7,13.5,5.4,19.5c-1.6,2.6-3.2,2.6-4.7,1.5c-8.4-5.7-14.6-13.1-16.3-23.4
		c-0.4-2.6-0.5-5.2-0.7-7.8c-0.1-1.1-0.2-2.3-0.3-3.4c-0.1-1.1-1-2.2-1.6-3.3c-0.6,1.6-1,3.2-1.4,4.7c-0.6,2.7-0.9,5.3-0.7,7.9
		c0.3,4.4,1.5,8.7,2.4,13.1c-9.4-2.1-32.9-15.3-38.6-21.9c0.6-4,1-8.7,2-13.3c0.4-1.7,0.8-3.3,1.3-4.9c1-3.1,2-6.2,2.4-9.4
		c0.5-4.6,1.4-9,2.9-13.3c1.6-4.7,3.2-9.4,4.7-14.2c1.4-4.5,2.7-9.1,4-13.6c2.1-0.6,4.2-1,6.1-1.8c0.5-0.2,0.4-1.6,0.7-2.5l-5.9-0.3
		c-0.9-2.2-1.7-4.1-2.5-6.2c-1,0.6-1.7,1-2.4,1.4c-0.7-0.7-1.4-1.3-2-2c-4.9-6.3-9.4-12.8-9.9-21.1c-0.4-6.4-0.4-12.8-0.5-19.3
		c-0.1-6.6,0.7-12.9,5-18.4c2.5-0.6,5-1.3,8-2c2.2,2.6,4.2,5.1,6.4,7.7c-2.2,7.7-4.3,15-6.4,22.6l5.7,0.3c4.2-2.1,7-3.6,10.1-5.1
		c4.4-7.3,4.3-11.9,0.1-19.1c-2.6-4.3-6.4-7-10.5-9.6c-2.1-1.4-4.3-2.7-6.4-4.1c3.8-1.5,7.6-2.6,10.7-1.7c5,1.4,10,3.5,12.6,9
		c1.2,2.5,3.6,4.4,5.2,6.4c12.2-0.5,21-10.3,18.7-23.7c-1.5-8.5,1-15.7,5.8-21.9c3.6-4.7,6.3-9,5.8-15c-0.6,0-1.2,0.1-1.8,0.1
		c0-0.8-0.1-1.3,0.1-1.7c6-8.6,14-14.9,23.1-19.8c8-4.3,16.2-8.2,24.2-12.4c1.7-0.9,3.5-1.9,4-4.5c0-0.1,0.1-0.2,0.1-0.4
		c0-0.1-3-0.4-3.3-0.4c-4.2,0-7.3,2.6-10.8,4.6c-2.5,1.4-5,2.8-7.5,4.1c-9.9,5-21.4,8.3-29.3,16.4c-4.9,5-9.7,9.9-14.4,15
		c-2.7,2.9-5.3,6.2-7.1,9.7c-4.3,8.4-11.3,11.9-20.4,12.8c0.7,5,3.9,7.2,9.3,7.9c-0.9,4.5-1.6,8.6-2.5,13.3
		c-8.5-6.6-17.7-7.2-27.6-6.2c-0.9,1.7-1.9,3.5-2.9,5.2c-2.7,4.8-5.5,9.7-7.9,14.8c-2.3,4.8-2.5,10-2.4,15.2c0,2.7,0.2,5.4,0.1,8
		c-0.1,7.7,1,15.1,4,22.4c3.1,7.4,9.8,11.8,12.7,19.1c0.5-0.2,1.1-0.4,1.6-0.7c-0.6,2.7-1,5.6-2,8.2c-2.2,5.7-4.8,11.2-7.1,16.8
		c-1.1,2.6-1.8,5.4-3,8c-2.6,5.9-5.5,11.7-8.1,17.6c-1.8,4.1-3.3,8.4-4.4,11.3c-0.2,8.5,3.6,13.6,8.4,17.9c-3,10.2-5.9,20-9.2,30.9
		c-2.4,0.8-5.5,1.8-8.7,2.7c-8.1,2.4-15.5,4.7-23.9,5.3c-16.5,1.2-32.3,3.8-46.8,12.3c-2.3,1.4-4.6,2.8-6.9,4.1
		c-10,5.9-20.4,11.5-28.6,19.9c-7.9,8.1-15.6,16.2-22.9,24.8c-6.2,7.4-11.9,15.3-16.4,23.9c-2.5,4.2-4.3,8.7-6.4,13
		c-1.7,4.5-3.7,8.9-5.1,13.5c-6.8,19.7-9.9,40.5-11.7,61.2c-1.3,15.5-1.6,30.9-2,46.4c-0.6,15.5-0.5,31-1,46.4
		c-0.3,9.8-0.7,19.5-1.4,29.1c-0.8,9.6-2.1,19.3-3.4,29c-2.7,19.4-5.3,39.3-3.9,59.4c1.2,19.4,4.7,38.8,10.9,57.6
		c3.1,9.4,7.1,18.5,12.1,27.3c7.5,13.1,15.2,23.2,29.6,29.1c13.4,5.5,28.6,6.5,42.7,3.8c22.6-4.4,42.8-17.3,60.1-32.5
		c17.4-15.2,32.5-32.7,49.3-48.4c4.3-4,8.8-8,14.3-10.4c8.2-3.6,17.6-3.2,26.5-2.8c33.7,1.2,67.7-0.2,100.3-8.8s63.7-24.9,86.3-49.9
		c-67.1,27.4-136.5,54.5-209,54.2c14.5-23.9,30.7-49.2,56.7-59.7c9.5-3.8,19.8-5.4,29.2-9.4c15.2-6.5,27.4-19.6,32.8-35.3
		c5.8,5.7,16.3,3.3,21.4-3c5.2-6.3,6.2-14.9,6.3-23.1c0.2-20.1-4.4-40.3-13.2-58.4c-3.2-6.6-7.3-13.3-13.8-16.7
		c-12.3-6.5-27.1,1-38.9,8.3c11.5,0.6,23.3-9.7,33.5-4.3c8.2,4.3,9,15.8,14.7,23.1c-11,2.2-22.1,4.4-33.1,6.7c8.8-1.3,18-2.6,26.5,0
		c8.5,2.6,16.2,10.4,15.5,19.3c-5.4,1.8-10.9,3.7-16.3,5.5c4.4,0,8.9,0,13.3,0c2.7,8,4.7,16.6,2.7,24.8s-9.2,15.6-17.6,15.3
		c4.4-7.3,5.6-16.5,3.3-24.6c-20.5,17.1-28.1,48.7-52.7,59.1c-5.3,2.2-10.9,3.3-16.4,5c-16.7,5.2-30.9,16.7-42.2,30.1
		c-13.5-11.7-23.8-27.2-29.2-44.2c-1.4-4.4-2.5-9.3-0.7-13.5c1.6-3.8,5.1-6.3,8.3-9c18.3-15.1,28.5-39.4,26.6-63.1
		c-2.3,3.2-4.7,6.3-7,9.5c-2.5-4.1-1-9.5,1.2-13.8c2.2-4.3,5-8.6,5.1-13.4c0.1-4.8-4.3-10.1-8.9-8.6c3.2-16.2-7.8-33.9-23.8-38.2
		c6.8-7.5,19.6-6.9,27.9-1c8.3,5.9,12.8,15.7,15.8,25.5c3,9.7,4.9,19.9,9.5,28.9c10.8-13,21.7-26,32.5-38.9c2.2-2.6,4.5-5.3,7.6-6.7
		c8.6-3.8,17.5,4.1,23.7,11.2c0.3-9.9-11-17.2-20.8-15.8c-9.8,1.3-17.8,8.7-23.8,16.6c-6,7.9-10.9,16.8-18.1,23.6
		c-2.1-15.5-5.8-31.9-16.9-42.9c-11.1-11-32-13.4-41.5-0.9c9.2,5.8,19.3,12.7,21.4,23.3c0.9,4.3,0.3,8.7,1.1,13s3.6,8.7,7.9,9.3
		c-9.3,17.9-1.9,40.9-10.2,59.3c-4.8,10.8-14.4,18.7-24.5,25c-34.3,21.5-77.3,29.5-105.9,58.2c27-11.3,54-22.7,81-34
		c8.5-3.6,17.6-7.6,22.4-15.5c2.5,22.5,13.5,44,30.4,59.2c2.4,2.2,5.2,4.8,5.1,8.1c-0.1,2.5-2,4.6-3.8,6.4
		c-25.9,26.1-51.9,52.2-77.8,78.3c-11.1,11.2-22.5,22.5-36.4,29.9c-16.5,8.7-35.6,9.6-52.5,1.4c-2.9-1.4-5.7-2.9-8.5-4.5
		c-11.2-6.3-18.9-14.6-24.7-26c-1.3-2.5-2.4-5.1-3.5-7.7c-2.1-6.2-4.1-13.2-5.8-21.1c-5.4-24.7-7.6-52.2-8.5-70.8
		c-0.4-8-0.2-17,0.4-27.4c0.7-4.9,1.4-9.8,2.1-14.7c1.4-10,2.7-20.3,3.3-30.5c0.6-9.5,0.8-19,0.9-28.6c2.5-28.8,5.1-63.1,6.7-104.8
		c0.2-5,0.6-9.9,1.2-14.7c14.3-70.1,73.6-109,110.2-126.8c2.3-0.4,4.6-0.8,6.9-1.1c1.1-0.1,15.5-2.1,15.7-1.5
		c1.8,6,3.5,11.4,5.1,16.8c2.2,7.3,4.8,14.6,6.5,22c3.1,13.7,7.3,27.2,9.1,41.3c2,15.7,2.8,31.4,3.4,47.2c0.3,6.5-1,12.7-1.1,19.1
		c-0.1,6.2-1.3,12.3-2.2,18.5c-0.9,6.4-0.8,12.9-3.1,19.1c-4.8,12.7-10.9,24.9-16.9,37.1c-3.7,7.5-7.9,14.7-12.2,21.8
		c-2.7,4.4-4.3,9.6-6.5,14.8c1.2,0.4,2.4,0.9,4.2,1.6c2.1-2,4.9-3.8,6.6-6.3c7-10.2,14.5-20.2,20.2-31.1c8.3-15.7,15.5-32,19.5-49.4
		c1.9-8.2,4.6-16.8,2-25.5c-0.3-0.9,0-1.9,0.1-2.9c2.3-17.3,1.4-34.6-0.7-51.8c-1.2-10.3-2.4-20.8-6.6-30.7c-4-9.4-6.5-19.5-10-29.2
		c-3-8.3-6.3-16.6-9.4-24.8c-0.9-2.5-1.9-4.9-2.9-7.4c7.3-2.7,14.4-5.3,21.8-7.9c5.4,4.4,9.2,9.7,11.9,15.6
		c4.2,9.2,8.1,18.5,11.5,27.9c5.3,14.4,10.5,28.8,15,43.5c2.3,7.5,5,15,5,23c0,0.3,0.6,0.6,1.4,1.5c1.5-4.9,3.2-9.2,2.7-14.3
		c-0.8-7.9-2.2-15.7-3.5-23.6c-2.3-13.7-6.6-26.6-12.8-38.9c-1.4-2.7-2.4-5.6-4.2-10.1c2.2,1.6,3.4,2.2,4.1,3.1
		c5.9,7,11.5,14.2,17.6,20.9c9.3,10.1,20.6,16.9,34,20.2c2,0.5,3.9,1.7,6.2,2.7c2.4-0.7,4.2-2.5,4.1-5.5c-0.1-4,2.4-6.7,4.4-9.6
		c2.8-3.9,6.1-7.4,9.8-11.8c3.3-1.4,7.5-3.1,12.5-5.1c1.6,3.1,3.3,6.2,4.7,9.4c1.4,3.3,2.3,6.8,3.7,10.1c3,6.9,10.1,11.8,18.6,4.6
		c2-1.7,3.8-3.6,6.1-5.9c1.7,0.7,3.5,1.8,5.5,2.4c1.8,0.6,3.6,0.7,5,0.9c3.2-2.2,1.7-6.9,6.3-7.6c2.2,0.9,2.8,6,7,3.5
		c4.9-7.2,8.3-31,6.8-47.9l19.6,1c1.6,7.7,3.3,15.1,4.8,22.6c3.4,17.1,6.8,34.2,9.9,51.4c1.2,6.8,1.3,13.8,1.9,20.7
		c0.2,2.8,0.4,5.7,0.6,8.8c-4.4,0.8-8.4,1.8-12.8,1.4c-24-2.4-48.2-3.1-72.3-3.3c-23.4-0.1-46.8-0.6-70.2-0.4h-0.1
		c-8,0.1-16.3,0.3-24.3,4.7c1,0.5,1.4,0.9,1.9,0.9c19.8,1.7,39.7,3.6,59.5,4.9c13.4,0.9,26.9,0.5,40.3,1.3
		c18.2,1.1,36.3,3.1,54.5,4.3c10,0.7,20,0.5,30.8,0.7c-0.3,2.1-0.5,4.7-1.2,7.1c-2.1,7.5-5.8,14.2-10.4,20.4
		c-9,12.2-10.5,25.5-6.5,39.6c2.4,8.5,4.7,17.2,10.3,24.4c7,9,15.8,15.3,27.1,16.6c2.9,3.7,5.6,7,8.7,10.9
		c0.5,4.8,1.1,10.5,1.8,16.7c1.5-0.1,2.8-0.1,4.5-0.2c-1.5-3.1-1.2-10.7-1.1-10.8c-0.6-1.5-1.2-2.9-1.8-4.4
		c10.4,2.5,20.6,4.5,30.8,3.5c3.7-1.1,7.4-2,11.2-3.1c9-2.7,14.1-8.6,19.8-15.6c0.4-0.5,0.8-0.8,1.3-1c0.7-1.7,1.4-3.3,2.1-5.2
		c0.9,1.9,27.4,39.4,37.9,52.1c5,6.1,10.4,12,15.6,18c5.1,5.9,9.4,12.6,15.4,17.8c7.4,6.4,16.6,10.4,23,18
		c6.6,7.8,10.6,17.5,13.2,27.3c0.6,2.4,2,5.4,4.5,5.2c1.5-0.2,2.6-1.6,3.2-3C756.1,1115.2,756.2,1110.8,755.3,1106.7z M515.6,486.8
		c0-2.9-0.1-4.8-0.1-7.8c2,1.9,3.1,3,4.6,4.5C518.7,484.5,517.6,485.3,515.6,486.8z M553.6,621.4c3.1-1.7,6.5-1.5,10.1-0.7
		c-0.1,6.6-2.7,11.1-8.5,13.7c-2.1,0.9-3.9,2.5-6.5,4.3C550.5,632.4,552,627.1,553.6,621.4z M542.3,656.3c0.7-1.5,1.4-3,2-4.5
		c3-7.9,3-7.9,13-10.6c-5.4,8.1-10.9,16.3-16.3,24.4C539.6,661.9,541,659.1,542.3,656.3z M406.6,819.5c-2.3-0.9-4.2-2-6.3-2.4
		c-10-1.8-17.2-8.3-23.9-15.1c-13.8-13.9-27.3-28.2-42.2-41c-3.1-2.6-5.8-5.7-8.4-8.3c-0.2-4.2,5.7-28.5,8.5-35.9
		c0.8,0.5,1.6,0.9,2.3,1.5c11.8,9,24.9,15.3,39.2,18.8c3.4,0.8,6.2,2,9,4.2c3.3,2.6,7,4.4,11,2c3.4,3.2,6.5,6.2,10.1,9.6
		c1.3,5.8-1.1,11.7-2.4,17.7c-1.4,6.3-3.4,12.5-4.7,18.8c-1.2,6-1.9,12.1,4.4,15.8c4.5-0.2,8.7-0.4,14.4-0.7
		C413.3,810.3,410,814.8,406.6,819.5z M433.7,759.4c2.8-0.6,4.1-0.8,6.2-1.3c0,1.9,0.1,2.8,0.1,4.4
		C438,761.6,436.5,760.9,433.7,759.4z M454.3,819.4c-4.7-3.3-3.8-9.5-6.9-13.7c-3-4.2-5.6-8.6-8.9-13.6c3.7,0.7,6.6,1.2,9.5,1.7
		c0.3-0.3,0.6-0.6,1-0.9c4.5,6.1,9.1,12.2,14,18.8C460.7,815.9,460.7,815.9,454.3,819.4z M664.5,911.8c-0.1-0.3-0.3-0.6-0.4-0.9
		c-0.2,0.5-0.4,0.9-0.5,1.4c-0.1,0-0.1,0.1-0.2,0.1c-0.4,0.2-0.7,0.3-1,0.5c-4.7,2.8-29.8,13.4-33.8,9.2c-0.2-0.3-0.3-0.4-0.2-0.7
		c0.4-3.5,10.5-10.2,16.5-14.2c3.5-2.3,6.5-4.4,8.2-5.9l-0.9-1c1.9-0.9,3.9-1.6,6.2-1.8c3.1-0.2,5.9-0.9,8.6-2
		C668.5,907.3,666.3,910.6,664.5,911.8z M659.4,874.6c5.1,5,5.6,10.9,5.3,17.7c-2.2,0.9-4.3,1.7-6.6,2.6c-0.4-1.3-0.6-2.2-0.9-3.1
		c-0.4,0-0.8-0.1-1.1,0.1c-9.3,7.6-19.5,13.6-30.9,17.5c-2.9,1-5.8,2.1-9,0c0.6-4.4,4-6.9,6.8-9
		C634.8,891.5,645.2,880.5,659.4,874.6z M576.9,876.4c1-4.7,3.3-9,6.5-12.6c1-1.1,2-2.1,2.9-3.2c10-14,24.6-19.8,40.8-22.6
		c1.6-0.3,3.3,0.2,4.9,0.1c1.4-0.1,2.7-0.4,4-0.6c6.3,5.9,4,14.4,7.5,20.7c3,4.7,6.1,9.4,9.4,14.6c-8.3,5.2-15.8,10.2-23.5,14.8
		c-4.9,3-8.6,7.7-14.4,9.2c-2.8,0.7-5.4,2.1-8.2,2.6c-1.6,0.3-3.5-0.5-6.3-1.1c1.7-3.4,2.7-6.1,4.2-8.3
		c7.5-11.1,17.7-19.5,28.2-27.4c1.9-1.4,4.3-2.1,4.8-5.8c-2.7,1.3-5,2.3-7.2,3.4c-5.1,2.5-10.2,5.1-15.2,7.7
		c-5.5,2.8-11,5.8-16.4,8.7c-3.2,1.7-6.4,3.3-9.4,5.2c-3.5,2.2-7,2.8-12.4,1.4C576.9,880.8,576.4,878.5,576.9,876.4z M578,889.3
		c2.7,0.9,5.4,1.6,8.1,2.4c-3.7,7.4-3.7,7.4-8.2,10.5C575.5,898,575.5,896.2,578,889.3z M635.1,961.7c-5.1,6.9-13.6,8.2-20.4,12.4
		c-0.5,0.3-0.8,1.1-1.5,2c7.3,1,14.2,5.2,21.4-0.8l0.6,1.7c-1,1.3-1.9,2.7-3,4c-7.6,9.2-17,15.1-28.9,17.3
		c-9.3,1.7-18.5,2.3-27.7-0.3c-2.8-0.8-4.8-2.1-5.4-5.5c6.5-4.6,12.4-10,16.6-18.3c-0.2-4-0.4-8.8-0.7-14.3
		c-3.4,4.9-6.1,9.6-9.5,13.6c-2.5,3-5.9,5.1-9.3,6.9c-3.2,1.6-7.2,3.8-10.9,3.3c-2.8-0.4-5.4-2.3-7.5-4c-2.9-2.3-5.2-5.3-7-8.5
		c-6-10.7-10.5-22.1-9.7-34.9c0.3-4.4,1.4-8.4,3.5-12.3c3.8-7.2,7.1-14.6,10.8-21.9c3.1-5.9,4.1-12.1,3.6-19
		c10.2-10,10.3-22.2,9.5-34.6c-0.2-2.6-0.4-5.1-0.6-7.6c3.1-1.9,5.7-3.5,9.3-5.7c2.1,0.5,5,1.2,7.2,1.8c3.3,6.6,2.6,11.7-0.5,17.3
		c-4.3,7.7-7.4,16.1-11,24.2c-1.6,3.6-2.2,7.3-1.2,11c2,3.6,5.3,4.1,9.1,4.4c0.1,3,0.3,5.8,0.4,8.5c1.8,3.1,3.7,5.8,8.1,6
		c1.5-0.9,3.3-2,5.4-3.2c1.5-4.4,3.1-8.9,4.6-13.2c2.3-2.1,4.5-3.7,7.7-4.1c-0.5,3.6-0.9,6.8-1.3,9.9c1.7,2.5,3.2,4.6,4.8,7.1
		l8.2,0.4c6.2,9.9,8.9,12.5,17.1,10.1c-1.7,1.9-2.7,3.7-2.9,5.5c-0.2,1.7,0.3,3.2,1.5,4.4c1.4,1.4,3.5,2.1,6,2.2
		c8.8,0.5,23-5.6,29.7-8.7c-0.2,0.4-0.3,0.8-0.5,1.2c-4.5,10.1-8.4,20.5-13.8,30C644,954.5,642.1,960.9,635.1,961.7z"/>
</g>
<g>
	<path class="st1" d="M319.3,324.6c0-0.4,0-1-0.2-1.9c-1.2-3.3-2.1-6.3-2.7-9c-0.5-2.2-1.5-4.8-3-7.8c-0.1-0.1-0.1-0.2-0.2-0.3
		c-1.7-4.2-4.9-6.2-10.4-6.7c-1.5-0.1-2.9-1-3.8-2.3s-1-2.9-0.5-4.4c5-14.4,9.8-28.3,14.4-41.3c4.6-13.1,9-24.9,13-35.3
		c0-0.1,0.1-0.2,0.1-0.3c2-4.3,1.6-5.9,1.4-6.2c-0.2-0.5-1.2-2.5-5.8-6c-2.3-1.5-5.5-3.4-9.6-5.7c-4.2-2.4-8.6-4.8-13-7.3
		c-4.4-2.4-8.7-4.7-12.8-6.7c-4.2-2-7.3-3.5-9.6-4.5c-4.8-1.5-7.5-1.6-8.9-1.4c-1.4,0.2-3.8,1.1-8,4.1c-5.2,4.3-10.7,9.4-16.6,15
		c-6,5.7-12.2,11.9-18.4,18.3c-6.3,6.4-12.6,13.1-18.7,19.9c-6.2,6.8-12.1,13.7-17.8,20.4c-5.6,6.7-10.9,13.2-15.6,19.4
		c-4.7,6.1-8.7,11.9-11.9,17.1c0,0,0,0.1-0.1,0.1c-1.9,2.8-2.7,5.2-2.7,7.2c0.1,2.1,1,4.5,2.6,7c3.1,3.8,6.4,7.7,9.9,11.5
		s7.1,7.2,10.8,10.2c0.1,0.1,0.2,0.2,0.3,0.3c2.5,2.4,4.7,3.8,6.6,3.9c2.7,0.2,5.7,0.1,8.9-0.4c0.1,0,0.1,0,0.2,0
		c6.7-0.7,13.8-1.4,21.1-2c7.2-0.6,14.5-1.1,22-1.7c1.6-0.1,3.2,0.5,4.2,1.7s1.4,2.9,1.1,4.4c-3.7,15.1-6.3,26.9-7.9,35.1
		c0,0.1,0,0.1,0,0.2c-1,4.3-0.5,6-0.2,6.6c0.4,0.8,1.5,2.5,4.9,5c3.3,1.8,6.7,3.4,10.3,4.8c3.6,1.5,7,2.6,10.1,3.5
		c3.2,0.8,4.7,0.7,5.2,0.7c0.2-0.3,0.6-1,1.1-2.5c2.1-7.9,4.7-16.8,7.7-26.6c3-9.7,6.4-20.4,10.1-31.9c0.7-2,2.6-3.4,4.7-3.5
		l23.2-0.2C317.3,325.2,318.7,324.8,319.3,324.6z M277.8,228.7c-3.8,10.7-7.4,21.8-10.7,33c-3.3,11.4-6.9,22.8-10.6,34
		c-0.7,2-2.5,3.3-4.5,3.4c-8.5,0.4-17,0.7-25.5,1c-8.4,0.3-16.2,0.7-23.2,1.3c-0.1,0-0.3,0-0.4,0c-1.9,0-3.6-1.1-4.5-2.8
		c-0.9-1.8-0.6-4.1,0.8-5.6c4.8-5.3,10-11,15.5-17s11.3-12.1,17.3-18.2c5.9-6,12.2-12,18.6-17.9c6.4-5.8,12.8-11.5,19.2-16.8
		c1.7-1.4,4.2-1.5,6.1-0.2S278.5,226.5,277.8,228.7z"/>
	<path class="st1" d="M446.9,382.8c9.3-7.5,17.5-17.1,24.3-28.6c6.9-11.7,12.5-24.4,16.7-37.8s7-27.2,8.5-40.9
		c1.4-13.7,1.5-26.4,0.2-38c-1-6.3-2.7-12.2-5.1-17.5c-2.3-5.1-6.4-10.2-12-15.2c-4.9-4.1-11.2-7.7-18.9-10.7
		c-8-3.1-16.6-5.5-25.6-7.3c-6.2-1.3-13.1-1.1-20.5,0.5s-13.9,4.5-19.5,8.5c-8.6,6.5-16.2,14.1-22.6,22.6c-6.4,8.6-12,18-16.4,27.8
		c-4.4,9.8-7.9,20.1-10.3,30.6s-3.9,21-4.4,31.2c-0.5,10.1-0.1,20,1.4,29.3c1.4,9.2,3.6,17.5,6.6,24.7c2.2,4.1,5.2,7.9,8.9,11.2
		c3.9,3.5,7.7,6.3,11.1,8.2c5.5,2.8,11.3,5.1,17.3,6.7c6.1,1.6,12.1,2.8,17.8,3.5c8.9,1.1,16.8,1.1,23.4-0.1
		C434.2,390.6,440.6,387.6,446.9,382.8z M411.9,367.7c-3.5,2.1-6.9,3.1-10.2,3.1c-1.7,0-3.3-0.3-5-0.8h-0.1
		c-5-1.8-8.8-5.9-11.2-12.1c-2.1-5.4-3.3-11.8-3.7-19.2c-0.4-7.2,0.1-15.1,1.4-23.7c1.2-8.4,3.1-17,5.6-25.4
		c2.7-8.8,6.2-17.6,10.5-26.2s8.9-16.3,13.8-22.9c5-6.7,10-12.1,15-15.8l0,0c6-4.5,11.6-6,16.6-4.3c5.1,1.7,8.5,6.5,10,14.2
		c1.2,6.3,1.5,13.9,0.8,22.7c-0.5,8.3-1.5,17.1-3.1,25.9s-3.5,17.3-5.8,25.2c-2.6,9.6-5.7,18.4-9.4,26.3c-3.7,8-7.7,14.8-11.8,20.2
		C420.9,360.7,416.4,365,411.9,367.7z"/>
	<path class="st1" d="M672.8,227.8c2-4.3,1.6-5.9,1.4-6.2c-0.2-0.5-1.2-2.5-5.8-6c-2.3-1.5-5.5-3.4-9.6-5.7c-4.2-2.4-8.6-4.8-13-7.3
		c-4.4-2.4-8.7-4.7-12.8-6.7c-4.2-2-7.3-3.5-9.6-4.5c-4.8-1.5-7.5-1.6-8.9-1.4c-1.4,0.2-3.8,1.1-8,4.1c-5.2,4.3-10.7,9.4-16.6,15
		c-6,5.7-12.2,11.9-18.4,18.3c-6.2,6.4-12.5,13.1-18.7,19.9c-6.2,6.8-12.1,13.7-17.8,20.4s-10.9,13.2-15.6,19.4
		c-4.7,6.1-8.7,11.9-11.9,17.1c0,0,0,0.1-0.1,0.1c-1.9,2.8-2.7,5.2-2.7,7.2c0.1,2.1,1,4.5,2.6,7c3.1,3.8,6.4,7.6,9.9,11.5
		c3.5,3.8,7.1,7.2,10.8,10.2c0.1,0.1,0.2,0.2,0.3,0.3c2.5,2.4,4.8,3.8,6.6,3.9c2.7,0.2,5.7,0.1,8.9-0.4c0.1,0,0.1,0,0.2,0
		c6.7-0.7,13.8-1.4,21.1-2c7.2-0.6,14.5-1.1,22-1.7c1.6-0.1,3.2,0.5,4.2,1.7s1.4,2.9,1.1,4.4c-3.7,15.1-6.3,26.9-7.9,35.1
		c0,0.1,0,0.1,0,0.2c-1,4.3-0.5,6-0.2,6.6c0.4,0.8,1.5,2.5,4.9,5c3.3,1.8,6.7,3.4,10.3,4.8c3.6,1.5,7,2.6,10.1,3.5
		c3.2,0.8,4.7,0.7,5.2,0.7c0.2-0.3,0.6-1,1.1-2.5c2.1-7.9,4.7-16.8,7.7-26.6c3-9.8,6.4-20.5,10.1-31.9c0.7-2,2.6-3.4,4.7-3.5
		l23.2-0.2c2.7-0.2,4-0.6,4.6-0.9c0-0.4,0-1-0.2-1.9c-1.2-3.3-2.1-6.3-2.7-9c-0.5-2.2-1.5-4.8-3-7.8c-0.1-0.1-0.1-0.2-0.2-0.3
		c-1.7-4.2-4.9-6.2-10.4-6.7c-1.5-0.1-2.9-1-3.8-2.3c-0.8-1.3-1-2.9-0.5-4.4c5.1-14.6,9.9-28.5,14.4-41.3
		C664.4,250,668.8,238.1,672.8,227.8C672.7,228,672.8,227.9,672.8,227.8z M624.5,241c-3.8,10.7-7.4,21.8-10.7,33
		c-3.3,11.4-6.9,22.8-10.6,34c-0.7,2-2.5,3.3-4.5,3.4c-8.5,0.4-17,0.7-25.5,1c-8.4,0.3-16.2,0.7-23.2,1.3c-0.1,0-0.3,0-0.4,0
		c-1.9,0-3.6-1.1-4.5-2.8c-0.9-1.8-0.6-4.1,0.8-5.6c4.8-5.3,10-11,15.5-17s11.3-12.1,17.3-18.2c6-6,12.2-12.1,18.6-17.9
		c6.4-5.8,12.8-11.5,19.2-16.8c1.7-1.4,4.2-1.5,6.1-0.2S625.3,238.9,624.5,241z"/>
</g>
</svg>
