<?xml version="1.0" encoding="utf-8"?>
<!-- Generator: Adobe Illustrator 23.0.5, SVG Export Plug-In . SVG Version: 6.00 Build 0)  -->
<!DOCTYPE svg PUBLIC "-//W3C//DTD SVG 1.1//EN" "http://www.w3.org/Graphics/SVG/1.1/DTD/svg11.dtd" [
	<!ENTITY ns_extend "http://ns.adobe.com/Extensibility/1.0/">
	<!ENTITY ns_ai "http://ns.adobe.com/AdobeIllustrator/10.0/">
	<!ENTITY ns_graphs "http://ns.adobe.com/Graphs/1.0/">
	<!ENTITY ns_vars "http://ns.adobe.com/Variables/1.0/">
	<!ENTITY ns_imrep "http://ns.adobe.com/ImageReplacement/1.0/">
	<!ENTITY ns_sfw "http://ns.adobe.com/SaveForWeb/1.0/">
	<!ENTITY ns_custom "http://ns.adobe.com/GenericCustomNamespace/1.0/">
	<!ENTITY ns_adobe_xpath "http://ns.adobe.com/XPath/1.0/">
]>
<svg version="1.1"
	 id="Layer_1" xmlns:x="&ns_extend;" xmlns:i="&ns_ai;" xmlns:graph="&ns_graphs;" xmlns:v="https://vecta.io/nano"
	 xmlns="http://www.w3.org/2000/svg" xmlns:xlink="http://www.w3.org/1999/xlink" x="0px" y="0px" viewBox="0 0 1334.1 1141.4"
	 style="enable-background:new 0 0 1334.1 1141.4;" xml:space="preserve">
<style type="text/css">
	.st0{fill:#97B7DD;}
</style>
<metadata>
	<sfw  xmlns="&ns_sfw;">
		<slices></slices>
		<sliceSourceBounds  bottomLeftOrigin="true" height="1072.5" width="1313" x="11.3" y="51.5"></sliceSourceBounds>
	</sfw>
</metadata>
<path class="st0" d="M1323.8,557.2c-0.5-5.9-1.7-11.4-3.6-17c-4.3-12.5-12.5-22.5-20.8-32.3c-2.1-2.5-5-4.5-7.9-6
	c-10.8-5.3-21.7-10.6-32.7-15.4c-8.8-3.8-17.9-6.9-26.9-10.1c-8.1-2.9-14.7-7.7-20.1-14.3c-15.5-18.9-18.8-46-9.7-68.4
	c2.9-7.2,6.8-14,11-20.5c2.1-3.3,4.4-6.4,6.5-9.7c0.6-1,3.2-7.2,4.1-7.4h0.1c3.7-6.8,6.8-13.7,9.3-20.9c0-0.1,0.1-0.2,0.1-0.2
	c4.5-12.7,7-25.9,7.5-39.8c1.2-33.5-10-62.9-31.4-88.5c-1.9-2.2-3.9-4.3-5.7-6.6c-12.1-16-29.5-25.4-45.6-36.5
	c-1-0.7-2.3-1.1-3.4-1.5c-23.1-8.7-46.5-15.8-71.7-14.6c-13.3,0.6-26.7,0.2-40,0c-17-0.3-31.8-7.2-44.5-17.6
	c-7.9-6.5-14.1-15.2-20.6-23.3c-11.7-14.6-21.2-30.8-33.1-45.3C936.2,51,927,41.5,916.2,33.6c-5.4-3.9-10.9-7.8-16.9-10.5
	c-11.6-5.1-23.7-7.8-36.4-3.6c-10.8,3.6-15.4,10.7-13.2,22c0.8,4.1,2.3,8,3.5,12c1.4,4.8,3.1,9.5,4.1,14.4
	c2,10.2-2.5,18.2-12.2,21.7c-3.5,1.3-7.2,2.1-10.9,2.4c-12.8,1-25.7,2-38.6,2.5c-9.1,0.4-18.3,0.1-27.5,0.1c-20,0-40-1.1-59.8,2.6
	c-13.7,2.6-26.6,7.2-37.7,15.7c-9.4,7.1-8.8,15.4,0.9,22.1c3.4,2.4,7,4.6,10.1,7.4c5.1,4.7,4.7,9.7-0.9,13.5
	c-5.2,3.5-11.1,5.9-17.4,6.6c-252.9,11.4-301,52.3-305.1,53.9c-8,3.2-15.8,6.6-23.3,11c-14,8.1-28.7,15.2-41.6,25.2
	c-12.5,9.7-25.1,19.3-35.5,31.3c-3.2,3.7-6.2,7.9-8.4,12.3c-3.6,7.1-2.6,13.3,6.5,18.9c2.8,1.7,6.1,2.6,9,4.3
	c5.8,3.4,8.5,9.5,7.2,15.9c-1.2,5.8-3.3,11.5-8,15.2c-6.2,4.9-12.2,10-18.6,14.7c-6.3,4.7-12.9,8-19.8,11.7
	c-36.5,19.4-69.9,44.7-102.9,69.4c-2.7,2-5.1,4.3-7.6,6.5c-5.3,4.7-10.4,9.6-15.7,14.3c-13.6,11.7-26.5,24.1-37,38.8
	c-12.5,17.6-25.4,35-34.5,54.8c-10,21.5-15.2,44-16.5,67.5c-1.2,21.3,3.4,41.3,13.6,60.1c8.2,15.2,18.6,28.7,31.3,40.1
	c10.5,9.4,22.1,17.6,34.9,24c5.9,2.9,11.5,6.7,16.9,10.6c7.6,5.4,12.8,12.9,17.1,21.1c3.1,5.9,3.2,11.8,0.5,18
	c-2.7,6.1-5.2,12.3-9.8,17.3c-6.8,7.3-13.4,14.8-20.2,22.1c-8.2,8.9-16.6,17.5-24.5,26.7c-9.3,10.9-16.2,23.3-19.1,37.5
	c-3.9,19.5-3.5,38.2,11.2,54c2.5,2.7,4.4,6.1,6.5,9.2c2.7,4.1,3.6,8.4,1.7,13.1c-2.4,5.8-4.6,11.6-7.4,17.2
	c-4.4,8.8-8.7,17.6-12.5,26.6c-3.4,7.9-6.9,15.9-8.1,24.4c-0.6,4.2-0.9,9.1,0.2,13.2c1.1,4,4.1,7.2,6.7,10.3
	c24.8,27.4,150.5,11.8,150.5,11.8s149.8-18.9,483.8-122.9c275.8-85.9,490.5-215,556.9-257.4c0.2,0.4,0.4,0.8,0.8,1.1
	c7.2-4.6,14-9.7,20.5-15c0.1,0,0.1-0.1,0.1-0.1c7.6-6.1,14.9-12.6,22.2-19.2c1.5-1.4,2.9-3,4.1-4.7
	C1313.1,634.1,1327.2,598.4,1323.8,557.2z"/>
</svg>
