<svg width="100%" xmlns="http://www.w3.org/2000/svg" viewBox="0 0 1143.529 1297.412"  xmlns:v="https://vecta.io/nano"><g fill="#f8a475"><path d="M947.354 685.848a16.85 16.85 0 0 1-1-1.535 9.026 9.026 0 0 1-1.225-3.94 2.392 2.392 0 0 0-2.261-2.121c-2.536-.378-5.28-.785-7.3 1.064-4.415 4.038-10.22 4.878-15.4 7.138-2.17.947-4.47 1.606-6.73 2.34a32.315 32.315 0 0 1-20.917-.1c-3.535-1.2-5.178-4.322-7.07-7.16-.237-.356-.022-.894.58-1.337 1.98.926 2.763 3.2 4.592 4.466a16.012 16.012 0 0 0 8.43 2.812 16.548 16.548 0 0 1-5-1.78c-4.072-2.23-6.87-6.152-8.67-10.377a4.3 4.3 0 0 1-.723-.2 1.621 1.621 0 0 1 .056-1.491q-.182-.507-.347-1.015c-.287-.887-.5-1.8-.727-2.7a5.721 5.721 0 0 1-3.6-1.726c-5.73-5.515-6.7-12.85-1.84-18.623q1.374-1.637 2.792-3.234a130.46 130.46 0 0 1 16.103-15.384c3.715-2.96 7.177-6.313 11.168-8.827l5.386-3.44a96.41 96.41 0 0 1 16.855-9.124h0c-.134-.372-.96-.1-1.12-.413-.053-.1-.032-.27.116-.547 1.25-2.362 3.62-3.4 5.8-4.65l-5.16-.1a26.428 26.428 0 0 1-3.074-.186 20.774 20.774 0 0 1-8.576-2.945h0a10.933 10.933 0 0 0-1.511.947 5.838 5.838 0 0 0-1.249 1.275c-.965 2.233-.965 2.233-3.416 3.507-9.276 4.814-18.77 9.1-28.916 11.767q1.146.238 2.294.477c-3.553.764-6.83 3.33-10.762 1.677-.54-.227-1.28-.317-1.014-1.225-4.68-.07-9.367-.23-14.047-.025a74.19 74.19 0 0 0-4.678.344c-3.332 1.488-6.86 2.55-10 4.482-.284.652.142 2.1-1.456 1.3l1.412-1.278.152-2.33a4.113 4.113 0 0 0-1.464 1.287 7.67 7.67 0 0 0-.891 1.734l-3.5 3.9c-5.957 6.394-9.4 14.68-15.626 20.865a2.328 2.328 0 0 0-.465.818c-1.153 3.025 1.173 11.524 3.768 13.625l11.527 9.218c5.386 4.322 10.165 9.146 12.457 15.872a41.4 41.4 0 0 0 2.462 6.171 10.227 10.227 0 0 1 1.226 7.747c-.148-.026-.35 0-.434-.1a4.177 4.177 0 0 1-.88-1.071 108.889 108.889 0 0 0-9.425-16.321c-3.64-5.45-8.168-9.355-13.072-13.2a13.591 13.591 0 0 0-2.869-1.575c-6.457-2.9-9.07-8.386-9.46-14.93-.142-2.4-1.476-4.78-.913-6.878 1.24-4.63 1.375-9.37 2.1-14.035 1.186-7.674 1.744-15.4.01-23.143-.5-2.268-1.3-3.557-3.5-4.5a30.589 30.589 0 0 1-13.956-11.714c-1.548-2.43-3.478-4.53-5.074-6.887a4.057 4.057 0 0 0-4.4-2.007c-1.56.228-3.173.055-4.757.167-4.7.33-7.36 3.277-9.16 7.283a1.844 1.844 0 0 0 1.024 2.747c4.4 1.6 6.427 5.514 8.953 8.922a17.466 17.466 0 0 1 3.492 11.1 34.115 34.115 0 0 1-1.934 10.73 14.5 14.5 0 0 0-.349 8.891c2.468 8.932 2.147 17.953.612 26.922-.766 4.482-1.808 9.055-4.538 12.88-1.955 2.738-3.27 5.807-4.97 8.666A15.506 15.506 0 0 0 780 698.15c2.576 7.38 3.634 15.1 5.84 22.55 2.245 7.585 3.863 15.35 7.38 22.524 3.474 7.083 7.755 13.477 14.428 17.982 1.448.975 2.845 2.03 4.208 3.123.858.688 1.86 1.522 1.146 2.77-.657 1.152-1.94 1.007-3 .732a11.589 11.589 0 0 1-3.056-1.28 24.789 24.789 0 0 1-6.029-4.615c-.864-.978-1.728-2.273-4.013-1.722 2.2 6.888.182 13.453-1.37 20.073a27.73 27.73 0 0 0-.219 2.844c-.436 3.455-.7 6.95-1.4 10.348-2.762 13.232-7.33 25.9-12.417 38.384-3.332 8.177-6.25 16.52-9.484 24.733-2.815 7.147-5.642 14.4-7.9 21.82-1.66 5.455-3.662 10.827-5 16.38-2.036 8.48-3.184 17.13-4.67 25.718-2.342 13.552-2.453 27.175-2.044 40.846.03.977.913 2.115-.373 2.994-1.717-.494-2.007-1.9-2.245-3.3a140.631 140.631 0 0 1-1.34-36.07 185.51 185.51 0 0 1 8.308-40.956c-1.336.95-2.6 1.817-4.15.2-7.106-7.426-16.707-10.844-25.417-15.682-2.2-1.222-4.593-2.078-6.674-3.564a7.628 7.628 0 0 0-5.339-1.585c-1.3.144-1.64-.6-1.667-1.683-4.684 4.78-9.7 9.27-14.035 14.348a66.37 66.37 0 0 0-2.7 3.353 48.545 48.545 0 0 0-4.382 6.962c-1.5 2.92-3.807 5.3-.507 9.08a12.948 12.948 0 0 0-2.01-.123 7.029 7.029 0 0 0-3.872 1.145c-.146.1-.313.17-.446.278h0a7.18 7.18 0 0 0-1.762 2.157 13.646 13.646 0 0 0-1.142 2.865c1.275 3-.337 5.38-1.564 7.915-2.314 4.785-4.56 9.614-2.7 15.188.264.8.378 1.96-1.14 1.92-.325.968.117 1.843.3 2.764 1.44 7.742 4.42 15.078 5.8 22.864 1.014 5.674 3.02 11.17 4.584 16.748.642-1.214-.266-2.717.918-4.342a66.6 66.6 0 0 1 2.774 10.641c1.028 5.407 1.878 10.857 4.36 15.86 1.458 2.94 1.525 6.126 1.387 9.263a21.474 21.474 0 0 0 5.958 15.894c.606.67 2.154 1.434.223 2.422a7.119 7.119 0 0 0 2.454 1.833 30.337 30.337 0 0 1 2.738 1.409c10.954 7.047 22.618 12.772 34.386 18.308 8.2 3.853 16.75 6.808 25.052 10.342a155.821 155.821 0 0 0 33.494 10.525c4.986.9 10.143 1.163 14.978 2.735 6.915-.342 13.828-.72 20.758-.492.13 0 .254.02.38.03 5.17-1.768 10.267-3.77 15.306-5.88a100.431 100.431 0 0 0 19.295-11.256c2.508-1.787 5.112-3.78 6.73-6.616-.148-.476.128-.762.45-1.028.087-1.176.6-1.915 1.912-1.874-.414-2.056 1.28-4.8-1.24-6.075-2.188-1.108-3.6 1.428-5.4 2.228-9.392 4.154-18.182 9.626-28.472 11.8-4.3.9-8.657 1.762-12.9 3.02-4.84 1.43-9.415-.042-13.83-2-2.174-.963-4.238-2.127-6.743-2.106-2.18.017-2.672-1.427-2.234-3.242a7.568 7.568 0 0 1 1.2-2.561c4.287-6 6.706-12.818 9.5-19.56 3.27-7.863 5.605-16.065 9.253-23.785 3.1-6.58 4.737-13.735 6.743-20.713 1.3-4.5 2.066-9.15 4.035-13.406 2.156-4.656 2.963-9.7 4.506-14.512a146.3 146.3 0 0 0 5.55-24.05c.9-6.4 1.93-12.912 1.473-19.414-.87-12.386-.12-24.713.616-37.063.746-12.516.963-25.024-.458-37.547-.822-7.233-.74-14.563-1.842-21.8a5.159 5.159 0 0 1 2.985-5.5c6.115-3.255 11.853-7.4 19.12-8.02a14.436 14.436 0 0 0 4.94-1.65c3.693-1.82 7.3-3.815 10.94-5.738-1.38-.057-2.758-.044-4.137-.007l-4.14.135a41.409 41.409 0 0 1-8.261-.414c-3.25-.562-6.8-.106-10.446-2.834l8.426.827a59.607 59.607 0 0 0 22.873-2.617 14.215 14.215 0 0 1-8.4-2.269c-3-2-7.13-2.362-10.8-3.3-2.847-.737-4.808-2.233-5.573-5.193-.95-3.664.4-8.2 3.734-9.93 5.62-2.908 9.9-7.6 15.255-10.86 2.166-1.323 3.8-3.62 5.313-5.93a56.185 56.185 0 0 1 8.132-9.75 30.26 30.26 0 0 0 5.191-6.038c4.42-7.275 8.7-14.573 11.573-22.714a14.36 14.36 0 0 1 8.075-8.732 117.252 117.252 0 0 1 19.482-5.908 5.761 5.761 0 0 1 1.141-.138 11.72 11.72 0 0 1 1.306.047c.76.062 1.523.16 2.272.183-.862-1.38-1.946-2.64-2.892-3.976zm-53.15-58.5c.4.647.826 1.48.252 2.165-.612.73-1.482.183-2.208.03a4.469 4.469 0 0 1-2.8-1.637c-1.758-2.5-4.213-4.117-6.657-6.095 4.5.33 8.75 1.347 11.4 5.54zm-453.36 367.424a44.37 44.37 0 0 1-1-6.552c-.664.443-.68 1.446-1.42 2.035a2.108 2.108 0 0 1-1.029.413c.3-3 .192-5.913-1.84-8.3a12.593 12.593 0 0 0-6.433-3.72c-5.3-1.533-7.782-4.845-8.145-10.3a34.853 34.853 0 0 1 .907-9.444c.82-3.93-.755-6.417-3.957-8.22-1.377-.774-2.85-1.386-4.3-2.02-5.478-2.4-8.673-6.23-8.04-12.55.1-1.1.067-2.22.086-3.33.075-4.853-1.345-6.6-6.272-6.95a21.325 21.325 0 0 1-8.258-1.971c-2.065-1.034-4.353-2.283-3.34-5.382-.946-4.218-2.033-8.437-5.17-11.6-1.537-1.55-.892-3.164-.978-4.808a9.5 9.5 0 0 0-2.244 3.1c-.08.164-.137.336-.212.5-.434.993-.793 2.018-1.13 3l-12.454 37.964c-6.276 20.653-10.6 41.7-11.888 63.3a64.176 64.176 0 0 1-1.009 7.731c-.747-.436-.6-.964-.633-1.42-.3-5.13-.833-5.54-5.666-4.328a22.054 22.054 0 0 0-2.268.71l-18.755 6.92a98.556 98.556 0 0 1-19.321 4.815c-13.142 2.106-26.387 3.6-39.57 5.454-14.918 2.1-29.742 5.005-44.887 5.165a5.832 5.832 0 0 0-1.4.133 2.218 2.218 0 0 0-1.208.747q1.87.258 3.742.512c-2.753.246-5.142 2.182-7.82 1.947-4.63-.408-9.236.266-13.694.874-4.083.556-9.188-.568-12.412 3.7l11.357 24.17a342.918 342.918 0 0 0 18.826 33.863c3.343 5.208 6.87 10.3 10.634 15.225l1.007 1.267q.612.764 1.23 1.522 1.66 2.033 3.37 4.02 2.976 3.46 6.03 6.85c8.336 9.3 17.065 18.256 26.25 26.722l1.4 1.154 3.245 2.57c.228.16 2.623 1.992 3 2.27q3.9 2.9 7.913 5.662 4.275 2.938 8.674 5.7c7.7-4 15.342-8.137 23.35-11.55 5.342-2.278 10.992-4.266 15.376-8.4a19.106 19.106 0 0 1 7.12-4.434 25.237 25.237 0 0 0 5.053-2.593c6.937-4.137 12.93-9.733 20.4-13.05 7.4-3.285 13.608-8.525 20.45-12.727 4.008-2.463 8.243-4.544 11.943-7.6 4.547-3.756 9.94-5.544 15.95-6.2 10.52-1.145 17.05-8.338 22.707-16.466.243-.346.157-.92.227-1.384a14.143 14.143 0 0 1-9.385 2.819c-2.83-.2-3.312-.64-3.237-3.468a28.475 28.475 0 0 1 2.6-11.03c2.577-5.488 3.766-11.435 6.44-16.8 3.62-7.263 5.7-15.1 8.8-22.57 2.737-6.64 3.124-13.9 3.308-21.043.195-7.6.233-15.235-2.022-22.663z"/><path d="M366.462 692.14c-.038-2.514.445-5.028-.657-7.5a238.969 238.969 0 0 0-14.88-27.611c-3.437-5.608-3.44-6 1.474-10.258 1.673-1.446 3.583-2.617 5.392-3.906a31.213 31.213 0 0 0 3.48-2.483 63.653 63.653 0 0 1 15.043-10.72 71.775 71.775 0 0 0 11.425-6.78 144.746 144.746 0 0 1 13.561-8.631c5.686-3.426 11.97-5.888 16.835-10.64a8.731 8.731 0 0 1 2.85-1.668 17.307 17.307 0 0 0 4.883-3.046 15.014 15.014 0 0 0 2.245-2.4 16.635 16.635 0 0 0 2.82-5.811h0a4.689 4.689 0 0 0-1.364.322c-11.96 7.128-24.446 12.467-38.643 13.406-7.307.482-14.562.474-21.855.325-7.4-.15-14.436-2.187-21.33-4.445-6.8-2.227-13.838-3.706-20.17-7.645-4.508-2.805-9.3-5.3-13.785-8.2a34.665 34.665 0 0 1-9.513-9.4c1-.593 1.4-.413 1.785-.112 6.533 5.193 13.27 9.907 21.13 13.13 7.04 2.888 14.154 5.6 21.526 7.093a140.734 140.734 0 0 0 33.972 2.932c1.978-.085 3.953-.2 5.918-.387a80.161 80.161 0 0 0 13.943-2.477c1.152-.315 2.3-.6 3.45-.98l-21.784-7.7c-5.17-1.92-10.1-4.066-14.294-8.1a118.392 118.392 0 0 1-8.8-9.819c-6.588-7.92-13.432-15.58-18.88-24.446a209.87 209.87 0 0 1-16.813-34.045 281.493 281.493 0 0 1-9.811-30.83c-4.376-16.766-7.388-33.756-10.1-50.834-1.57-9.886-2.2-19.878-3.628-29.774a360.576 360.576 0 0 1-4.135-53.1c.037-8.236.357-16.5-.72-24.693a6.032 6.032 0 0 1 1.178-4c-.62.048-1.436-.143-1.825.18-3.784 3.15-8.33 5.1-12.352 7.878-7.28 5.042-13.73 11.122-20.956 16.236a60.494 60.494 0 0 0-5.725 4.543 38.051 38.051 0 0 0-4.254 4.583c-.227.288-.48.55-.7.846 2.077.586 3.56-1.9 5.7-1.225a3.05 3.05 0 0 1-1.617 3.2c-1 .717-2.247 1.2-2.543 2.6 3.434-.612 6.108-2.92 9.258-4.266a6.079 6.079 0 0 1-1.54 2.051 13.684 13.684 0 0 1-1.725 1.26c-1.525.98-3.123 1.86-4.024 3.5.292.388 1.538-.36 1.118.756-.93 2.472-1.24 5.174-2.73 7.442 1.765-.157 3.448-.827 5.212-1.046a7.9 7.9 0 0 1 1.8-.033c2.674.274 3.414 1.437 1.94 3.744a71.639 71.639 0 0 1-5.589 7.679c-3.147 3.725-6.517 7.26-9.77 10.9-.608.68-1.358 1.4-.428 2.852 3.117-1.043 5.536-3.3 8.04-5.3a13.371 13.371 0 0 1 5.276-2.9c2.393-.565 3.7.656 3.223 3.092a9.8 9.8 0 0 1-3.379 6.148c-3.622 2.72-7.055 5.832-11.565 7.144l-1.916 2.52c.76.28 1.474-.352 2.326-.35.024 0 .044-.013.07-.012a1.723 1.723 0 0 1 .943.346A86.765 86.765 0 0 0 243 412.019c-.515.9-1.38.843-2.192.928a2.665 2.665 0 0 0-.777.177 29.715 29.715 0 0 1 2.1 2.488c.7 1.016.783 1.72.994 3.6l-1.874-1.508a3.088 3.088 0 0 0-2.6-.751c-1.7 3.5-5.288 4.54-7.5 1.75a27.443 27.443 0 0 0-7.093-6 6.836 6.836 0 0 0-6.625-.852 15.562 15.562 0 0 1-9.712.126 34.4 34.4 0 0 0-3.627 2.7 33.432 33.432 0 0 0-10.645 17.616 53.753 53.753 0 0 0-1.458 8.547 61.459 61.459 0 0 0 3.19 24.788c3.52 10.916 7.65 21.272 15.515 30.2 4.606 5.226 9.973 8.073 15.883 10.73 2.8 1.253 5.442 1.6 7.507-1.118 1.97.9 2.228 3.563 4.607 3.467 3.794-.15 7.6.122 11.238-1.5 4.875-2.192 8.524-5.625 11.263-11.486.24 3.978-1.024 6.247-2.78 8.007-2.8 2.8-5.6 5.85-9.24 7.406-6.5 2.786-13.313 4.16-20.17.924-1.412-.666-2.738-1.107-3.9.1s-.764 2.63-.056 3.978c3.928 7.478 5.86 15.647 8.257 23.663 2.087 6.976 3.962 14.007 6.966 20.7l6.513 14.252c4 9.25 8.9 17.7 16.694 24.256a7.635 7.635 0 0 1 1.525 1.808 44.063 44.063 0 0 0 13.347 13.915 32.888 32.888 0 0 1 4.845 3.832 209.335 209.335 0 0 0 23.354 19.45c2.06 1.484 4.377 2.683 6.208 4.4 8.543 8.03 18.362 14.553 26.5 23.093 4.36 4.573 9.1 8.763 13.78 13.02a148.174 148.174 0 0 1 13.417 13.415zM236.2 473.785c-2.057 1.107-3.125-.3-3.817-1.594-1.407-2.636-2.575-5.367-2.364-8.538.385-5.835 3.023-10.512 7.06-14.526a1.985 1.985 0 0 1 2.818-.191c-6.16 7.464-8.226 15.632-3.696 24.85zm13.742-11.4c-.022.2-.367.37-.776.757-1-1.27-.716-2.7-.78-4.03-.2-4.3-.765-8.463-3.4-12.1a16.366 16.366 0 0 1-1.73-3.9c-2.654-7.057-7.63-12.156-13.45-16.735-6-4.723-12.614-4.232-19.42-3.116a17.639 17.639 0 0 0-2.709.895c-.42.258-.676 1.358-1.333.4-.308-.446.223-.82.722-.958 1.807-2.4 4.652-2.687 7.2-3.14 9.045-1.6 17.5-.25 23.933 6.883a41 41 0 0 1 7.122 10.592c3.412 7.712 5.56 15.84 4.614 24.454zm73.64 184.037c3.924-4.677 5.753-5.406 12.062-4.818-4.868-.428-7.922 3.296-12.067 4.82zm548.01-35.084l7.05-.77c1.744-.13 3.5-.067 4.638-1.737a1.156 1.156 0 0 1-.522-1.231.756.756 0 0 1 .278-.351c4.972-3.544 8.266-8.443 11.1-14 1.164 3.972.355 6.626-3.287 11.478 2.1 1.1 3.913.947 5.4-1.122a17.917 17.917 0 0 1 4.994-4.32 25.681 25.681 0 0 0 8.205-8.472 62.954 62.954 0 0 1 14.382-16.769 17.944 17.944 0 0 0 5.8-8.983 11.7 11.7 0 0 1 1.424-2.439l.1-1.4a4.072 4.072 0 0 1-3.156-2.53c-.8-1.74-1.714-3.27-3.948-3.568-2.046-.27-1.018-2.808-2.377-3.7h0a13.634 13.634 0 0 0-.183 2.525c.01 1.28.116 2.583.1 3.915a12.379 12.379 0 0 1-.669 4.094 5.11 5.11 0 0 1-1.1-2.949c-.025-.33-.03-.657-.025-.983l.02-.982a9.913 9.913 0 0 0-.073-1.492 4.161 4.161 0 0 0-.331-1.228c-2.52-1.468-5.26-1.812-8.138-2.073-5.806-.524-11.044 2.328-16.764 2.426-1.95.034-4.1 1.676-5.73 3.078-1.4 1.192-.558 3.293-.675 4.992a14.548 14.548 0 0 1-.138 1.636 2.687 2.687 0 0 1-.73 1.461 1.793 1.793 0 0 0-.219.663c0 .036-.033.073-.035.1a1.651 1.651 0 0 0 .146.8 6.818 6.818 0 0 1 .978 3.013 3.211 3.211 0 0 1-.773 2.136 5.074 5.074 0 0 1-.681.678q-1.086 7.692-2.168 15.384c-.572 4.115-2.944 7.653-3.74 11.712a5.411 5.411 0 0 1-1.643 2.288c-.7.714-1.275 2.232-2.585 1.267-.95-.7-.132-1.794.3-2.55a35.423 35.423 0 0 0 3.056-6.949 79.377 79.377 0 0 0 2.054-7.952 85.858 85.858 0 0 0 1.689-16.166c0-.265-.026-.535-.024-.8.008-2.458-.05-4.923-.227-7.4-.146-.432-.215-.865-.337-1.3a22.26 22.26 0 0 1-.846-5.159c0-.124-.034-.248-.036-.372a21.01 21.01 0 0 1 .225-3.426 21.932 21.932 0 0 1 .8-3.435 2.49 2.49 0 0 0-.284-2.192c-.33-.07-.84-.088-1.107-.186-.1-.032-.15-.074-.168-.13a3.773 3.773 0 0 0-4.275-2.909c-2.075.107-4 .06-5.713 1.712-3.12 3.008-5.9 6.175-7.557 10.26a13.777 13.777 0 0 1-5.52 6.919c-3.8 2.37-3.97 7.06-5.928 10.628-.523.95.35 1.78.886 2.555a25.281 25.281 0 0 0 14.895 10.39 60.14 60.14 0 0 1 9.953 3.942c-2.955.16-5.43 1.8-8.3 2-12.85.923-24.92-1.923-36.368-7.6a17.874 17.874 0 0 1-6.173-5.135c-6.736-8.676-8.95-19-9.43-29.453-.623-13.6 3.8-26.242 10.125-38.22 2.218-4.2 5.333-7.905 6.915-12.458.268-.768.58-1.555-.225-2.137a1.543 1.543 0 0 0-1.789.045c-2.107 1.4-4.5 2.332-6.438 4.044a87.888 87.888 0 0 0-20.04 24.618c-4.76 8.963-7.772 18.515-7.795 28.637-.04 16.6 6.944 30 20.04 40.2.876.682 1.707 1.5 2.968.895l-6.2-11.524c-2.78-5.038-3.54-10.47-3.244-16.2 1.77 9.3 6.014 17.347 11.85 24.623a2.212 2.212 0 0 1 1.963.633 8.017 8.017 0 0 1 .694.76 8.853 8.853 0 0 0 .691.761 60.907 60.907 0 0 0 11.509 9.021c3.273 1.845 6.83 3.176 10.232 4.8 1.637.783 3.356 1.535 4.626 3.658l-4.545.348a5.441 5.441 0 0 0 3.511 1.409 20.47 20.47 0 0 0 1.257.066c4.346.124 8.7.042 13.045.042l-2.865-1.456 7.222-.43zm-50.2 32.732c-.2.985.032 1.94 1.535 1.9 1.967-.528 2.84-2.3 3.673-3.974 3.32-6.714 8.94-11.85 12.536-18.378a11.864 11.864 0 0 1 2.376-2.3c2.335-2.256 2.063-3.53-1.1-4.627q-5.393-1.874-10.845-3.56c-1.742-.543-3.615-2.225-5.325-.7s-.884 3.83-.6 5.85a50.763 50.763 0 0 1-.41 17.908c-.57 2.638-1.294 5.236-1.84 7.872zm112.475-35.47a2.829 2.829 0 0 0-3.3.986 18.025 18.025 0 0 0 1.8-.016 1.993 1.993 0 0 0 1.49-.934h0a19.961 19.961 0 0 0 2.31-.48c2.3-.6 4.506-1.537 6.78-2.228-3.3-.06-6.688-.35-9.08 2.672zm9.896-6.7l-4.28.8a27.526 27.526 0 0 0-4.184 1.222c3.076.4 6.05.34 8.464-2.032zm-255.88 367.25l.04 4.133a10.221 10.221 0 0 0 .945 4.023c.077-2.768.72-5.605-.985-8.156zm1.545 47.45c.04-.137.138-.283.113-.407a6.109 6.109 0 0 0-.253-.765h0a.694.694 0 0 0 .14 1.172z"/></g><g fill="#373737"><path d="M1127.583 640.626A548.837 548.837 0 0 0 815.012 227.8a542.336 542.336 0 0 0-101.6-35.011 549.662 549.662 0 0 0-281.512 7.85 14.483 14.483 0 0 1 1.453 2.114 544.665 544.665 0 0 1 549.075 156.241 540.025 540.025 0 0 1 91.024 593.366 542.024 542.024 0 0 1-124.528 169.594 533.645 533.645 0 0 1-84.543 63.263 540.951 540.951 0 0 1-597.371-25.789 549.018 549.018 0 0 1-79.02-69.847A541.541 541.541 0 0 1 56.13 597.086a531.912 531.912 0 0 1 34.552-100.809q11.16-24.258 24.67-47.355 13.52-23.04 29.233-44.708 2.088-2.868 4.22-5.7l-.43-1.85q-2.517 3.322-5 6.68a557.469 557.469 0 0 0-54.763 91.981 550.316 550.316 0 0 0 24.67 516.846A540.417 540.417 0 0 0 177.77 1099q18.264 20.022 38.443 38.195 20.17 18.12 42.033 34.23a557.021 557.021 0 0 0 93.171 55.282 545.45 545.45 0 0 0 209.6 50.812 552.821 552.821 0 0 0 522.754-320.356 548.924 548.924 0 0 0 43.809-316.538zM954.8 685.48a55.8 55.8 0 0 1 6.165-17.169 604.227 604.227 0 0 0-62.9 16.98c17.08 7.8 37.92 4.228 56.735.2z"/><path d="M898.076 685.3c-.722-.326-1.417-.73-2.125-1.1l-1.17 2.1 3.294-1zm-490.114 7.43c-.364.193-.318.413.124.528.1.028.262-.087.395-.137-.027-.1-.018-.286-.092-.323a.505.505 0 0 0-.427-.068zm-41.635-360.937c-13.48 1.48-22.676 12.954-26.674 25.082l-1.812 5.364-.2 14.188a29.3 29.3 0 0 0 3.731 14.965c1.537 2.747 3.234 5.4 5 8.023a13.5 13.5 0 0 0 2.623 2.659c8.883 7.45 23.33 7.113 32.14-.165a39.459 39.459 0 0 0 7.011-8.014c3.124-4.467 6.5-9.8 7.526-15.182.184-.957.267-1.978.387-2.977l.152.033c6.2-27.925-11.906-39.118-11.906-39.118a26.568 26.568 0 0 0-17.977-4.858zm-19.833 57.92a3.829 3.829 0 0 1-3.841-.616 8.854 8.854 0 0 1 3.689-5.448c1.192-.046 1.518.7 1.624 1.463a5.28 5.28 0 0 1-1.472 4.601zm44.706-42.178a33.829 33.829 0 0 1 3.478 10.6 50.392 50.392 0 0 1-.336 13.833c-.1.658-.13 1.25-.258 1.932a56.372 56.372 0 0 1-4.4 13.811c-3.367 7.048-8.925 13.323-16.1 16.594-7.7 3.515-17 .957-23.218-4.343l-.263-2.742a5.685 5.685 0 0 1 .792-1.017c.777-.538 1.647-.952 2.383-1.54 3.008-2.4 4.885-5.36 4.56-9.4-.087-1.105-.083-2.218-.06-3.327.07-3.924-1.942-6.56-5.194-8.414-1.1-.626-2.263-1.132-3.23-1.6a12.629 12.629 0 0 0-7.3.782c-.5-.768-1.173-1.362-1.28-2.043a22.9 22.9 0 0 1-.248-4.255c.253-8 4.24-16.636 8.764-22.625a29.825 29.825 0 0 1 4.9-5.2 24.19 24.19 0 0 1 19.685-4.675c7.685 1.505 13.72 6.832 17.335 13.64zm71.687 389.125a5.033 5.033 0 0 0 .782-1.2 66.981 66.981 0 0 0 2.4-8.617c.994-6.422 3.768-12.352 4.863-18.73a6.633 6.633 0 0 1 .474-1.338l4.45-10.954a138.936 138.936 0 0 0 5.074-16.138 12.893 12.893 0 0 0-5 5.7 36.862 36.862 0 0 1-2.392 4.628c-3.165 4.978-4.987 10.452-6.482 16.1a113.028 113.028 0 0 0-2.645 14.377c-.442 3.418-1.523 6.78-1.224 10.3.074.884-.515 1.808-.658 2.733-.157 1-.584 2.096.36 3.118zm-1.227-82.828a8.3 8.3 0 0 1 7.277-.888 10.148 10.148 0 0 0 6.078.189c2.53-.787 5-.5 7.384-.47 18.443 7.747 22.363 9.077 26.434 8.82-3.58-1.983-6.947-3.708-10.167-5.673a75.82 75.82 0 0 0-10.218-4.931c-4.922-2.07-9.863-4.315-15.4-4.242a11.9 11.9 0 0 1-1.868-.276c-5.033-.727-10.043-1.053-15.715.8l-2.4 3.73a30.2 30.2 0 0 0 15.725 14.744c4.1 1.707 8.06 3.635 12.04 5.567.3.143.76-.07 1.228-.124-1.2-2.25-3.395-3.05-5.028-4.5a35.051 35.051 0 0 0-11.23-6.768 8.543 8.543 0 0 1-5.327-4.591 6.667 6.667 0 0 1 1.199-1.398zm-84.56-357.15a53.612 53.612 0 0 0-7.006 1.03 50.577 50.577 0 0 0-8.953 3.05 41.528 41.528 0 0 0-8.428 5.213c-1.868 1.527-4.127 2.34-5.893 3.914-8.212 7.334-15.246 15.546-19.18 26.035-.234.634-.193 1.26.925 1.26 1.233-1.545 1.83-3.542 2.9-5.276a32.436 32.436 0 0 1 6.353-8.171c1.68-1.43 3.474-2.742 5.066-4.265 3.1-2.98 6.78-5.134 10.4-7.333 2.26-1.37 4.472-3.018 7.144-3.6 4.615-1.026 9.04-2.7 13.6-3.9 2.428-.64 4.9-1.173 7.126-1.707 1.527-1.417 1.463-2.953 1.1-4.67a5.845 5.845 0 0 0-5.143-1.57zM250.517 460.36a2.577 2.577 0 0 0 .1.342c.3.8 1.022 1.56 1.7 1.144a1.6 1.6 0 0 0 .556-1.3c1.084-12.218-3.556-24.1-10.6-33.914-3.387-4.715-7.4-5.52-12.205-8.14a20.214 20.214 0 0 0-3.639-1.335 45.848 45.848 0 0 0-7.393.159c-2.48.277-5.5 2.3-7.822 3.308-3.834 1.646 1.3 2.726 3.038 2.414 1.48-.265 2.92-.783 4.42-.9a18 18 0 0 1 5.447.732 26.309 26.309 0 0 1 16.438 10.77 61.8 61.8 0 0 1 9.234 19.44c.724 2.43.2 4.815.716 7.28zm14.12 242.96a130.439 130.439 0 0 1 8.157-15.172c5.585-9.482 12.017-18.426 18.444-27.346-14.27-1.8-28.8 2.852-41 10.462s-22.4 18.03-32.015 28.72c-8.4 9.334-16.552 19.064-22.248 30.252-1.085 2.126-2.1 4.454-1.77 6.818 3-1.854 5.093-4.858 7.168-7.72q3.318-4.577 6.9-8.944a192.006 192.006 0 0 1 69.794-53.273c1.27-.562 3.312-.732 3.506.644A2.249 2.249 0 0 1 281 669.3c-4.853 6.9-10.852 12.95-15.443 20.026a61.588 61.588 0 0 0-9.464 26.191c-.46 3.9-.36 8.368 2.448 11.133 7.632 7.526 22.073-1.974 29.627-5.047 21.323-8.68 47.914-10.678 69.05.037a6.557 6.557 0 0 0 1.946.239 4.691 4.691 0 0 0-3-3.031c-3.284-1.556-6.542-3.18-9.9-4.6-3.317-1.4-6.8-2.406-10.217-3.552a42.2 42.2 0 0 0-12.564-2.1 104.266 104.266 0 0 0-30.3 4.169c-9.735 2.74-18.5 7.567-27.962 10.825-1.555.538-3.666.243-4.264-1.293a4.167 4.167 0 0 1-.115-1.927c.595-5.862 1.483-11.603 3.787-17.05zm-23.36-252.472a2.326 2.326 0 0 0 .766-.74 2.551 2.551 0 0 0 .2-2.468 1.077 1.077 0 0 0-.369-.455 1.226 1.226 0 0 0-.537-.145c-7.74-.7-8.915 11.7-8.32 16.966a8.338 8.338 0 0 0 2.8 5.63c.323.27 3.2 2.282 2.963 2.762a3.614 3.614 0 0 0-.437-2.457c-1.567-3.28-1.545-7.106-.937-10.62.502-2.907 1.08-6.836 3.872-8.474zm231.938 21.9c-.327-.253-.658-.727-1.058-.8a25.824 25.824 0 0 0-10.337.106 76.682 76.682 0 0 0-8.981 3 17.752 17.752 0 0 0-4.131 2.291c-3.04 2.24-6 4.6-8.957 6.96a10.973 10.973 0 0 0-1.362 1.706 3.06 3.06 0 0 0 3.5.626c3.767-1.587 7.78-2.585 11.2-4.992a13.857 13.857 0 0 1 3.464-1.476c4.9-1.72 9.625-3.975 14.76-5.05a2.114 2.114 0 0 0 1.903-2.38zm-20.02 72.145a2 2 0 0 1-2.508.732c-1.214-.888-1.472-2.834-3.5-3.064A12.75 12.75 0 0 0 444.2 546a8.378 8.378 0 0 1-4.946 4.094c-.207.07-.3.5-.506.916l1.48 1.633 3.63-1.946 3.644-2.153 4.65.9a7.04 7.04 0 0 0 5.028-4c.7-1.74 1.95-3.574.792-6.012a35.561 35.561 0 0 0-4.78 5.46zm459.714 83.614l1.973-.105c-.308-1.45-1.352-1.436-2.318-1.55l.345 1.656z"/><path d="M912.434 626.837l.13.013a1.17 1.17 0 0 1-.023-.115zm16.3 47.5l-.358-.28c0 .014.133.193.262.377zm-12.218-44.395l1.108 4.738a23.989 23.989 0 0 1 2.241 2.154c.64.8.165 2.24 1.858 2.856.865-2.663-.483-4.73-1.15-7.218l-2.558-2.337c-.262-.216-.782-.115-1.5-.193zm-97.986-39.707q-3.07-5.77-5.98-11.62-1.366-2.76-2.714-5.53l-1.73-3.722c-4.9-11.818-2.222-24.194 4.872-34.416a10.3 10.3 0 0 1 7.533-4.446l.635-3.915a57.039 57.039 0 0 1 5.139-14.114c2.457-5.066 5.953-9.882 8.75-14.8a1.059 1.059 0 0 0 .184-.529c-.027-.722-1.155-.57-1.762-.175-.455.3-.906.607-1.352.92-15.94 11.07-26.136 27.93-30.4 46.713a35.375 35.375 0 0 0-1.008 6.97 37.441 37.441 0 0 0 .639 6.97c2.15 12.893 8.25 22.397 17.185 31.695zm59.544-60.79c0 .01 0 .018.01.023l1.6 4.3.3.44-.05.23q.814 2.333 1.55 4.688l.345.6c.055.294.064.575.1.86a243.152 243.152 0 0 1 8.309 42.164l3.9.146c-.814-3.307-2.038-6.523-3-9.8a8.676 8.676 0 0 1-.221-3.882 218.452 218.452 0 0 1-3.639-28.187h0l-.754-5.065a12.951 12.951 0 0 1-2.871-6.57 13.874 13.874 0 0 0-1.426-3.993l-7.508-16.286c-1.247.85-1.247.85-1.1 5.406 2.205 4.637 3.35 9.602 4.446 14.915zm-317.43 425.75l.588-1.383q-1.1 1.428-2.342 2.76a20.332 20.332 0 0 0 1.754-1.378zm3.698-4.993l-.073-.9-1.357 2.175 1.43-1.275zm-45.798-270.185q12.4 9.916 24.8 19.83c-7.07-7.636-16.126-14-24.8-19.83z"/><path d="M561.222 953.8q.882-1.135 1.68-2.332l-1.1.986-.58 1.346zM105.1 322.2c28.374 15.658 58.62 33.35 74.777 62.628q0 3.86.007 7.717c0 4.384.05 8.957 2.02 12.872 1.532 3.05 4.1 5.443 6 8.28 7.885 11.805 2.544 27.553 3.436 41.722 1.256 19.9 14.947 36.44 26.2 52.915s20.817 37.43 13.033 55.8c-2.788 6.578-7.558 12.07-11.878 17.762a157.9 157.9 0 0 0-30.709 75.181l9.1-25.28c9.3-24.135 20.776-47.353 39.43-64.877A321.062 321.062 0 0 0 339.2 666.414q40.8 41.495 81.617 82.984a585.175 585.175 0 0 0-88.836-94.163c-21.378-18.14-44.173-34.844-62.962-55.652s-33.6-46.672-34.968-74.675c4.894-1.072 7.6-7.623 4.9-11.842 11 1.008 22.165-6.86 24.907-17.57-7.64 11.492-24.755 13.65-37.13 7.54s-20.546-18.453-25.8-31.2c-6.5-15.793-9.082-34.932.27-49.23s33.975-17.9 42.835-3.3c.53-7.3-6.4-13.5-13.635-14.63s-14.5 1.583-21.135 4.72c-3.36 1.592-6.956 3.354-10.614 2.715-5.624-.982-8.155-6.573-9.156-12.58a3.7 3.7 0 0 0 3-4.656c-11.454-32.02-39.6-53.664-67.97-70.23-30.55-17.833-64.782-32.492-87.536-60.678-10.008-12.4-17.852-27.6-19.58-43.608-1.7-15.807 2.778-31.02 11.655-44.085 19.776-29.107 54.066-41.88 85.473-54.1 28.494-11.094 58.7-24.006 78.24-48.362.08-.014.16-.033.242-.046a18.99 18.99 0 0 1 1.109-1.218 35.3 35.3 0 0 1 5.947-4.564l.32-.33c30.975-31.435 77.293-46.98 120.96-40.6 19.5 2.852 38.42 9.785 58.118 10.44 17.95.6 36.35-4.02 53.642.828 21.162 5.934 37.043 27.06 36.873 49.037-.152 19.018-10.816 36.15-21.126 52.137q-24.58 38.127-49.17 76.263c-12.426-18.7-25.068-37.674-42.034-52.4 16.842 26.973 35.1 53.04 54.52 78.23l23.03 34.28c-2.673-.166-5.345-.3-8.018-.36a4.834 4.834 0 0 0-.626-.138 48.29 48.29 0 0 0-.92.064c-83.853-1.55-167.413 44.506-210.14 116.8a12.93 12.93 0 0 1-.123.892 179.734 179.734 0 0 1 44.193-43.7 119.369 119.369 0 0 0-27.493 35.424 115.8 115.8 0 0 1 28.712-16.6q-9.44 12.22-18.88 24.452a40.472 40.472 0 0 0 19.7-5.825q-6.018 6.315-12.03 12.63c5.056-1.9 10.36-3.994 13.756-8.2s3.933-11.23-.33-14.552a47.624 47.624 0 0 0-2.706-30.929c25.93-23.067 56.4-40.783 88.965-52.846 7.9-2.2 55.988-14.758 89.917-4.7 9.86 6.24 17.514 15.66 19.3 27.056a103.981 103.981 0 0 0-24.181 62.925c-.073 2.195 0 4.605 1.43 6.27 1.785 2.07 4.9 2.157 7.637 2.084q11.283-.3 22.566-.612c7-.2 14.206.9 21.272 1.137 1.27.04 2.55-.038 3.8.12 5.8.708 11.47 2.148 17.3 2.728 2.208.216 4.3 1.114 5.263 3.5-.616 3.44-3.183 4.973-6.008 6.183-2.03.865-4.136 1.56-6.625 2.5-1.955 0-4.33.018-6.707-.01a7.844 7.844 0 0 1-2.807-.262 12.86 12.86 0 0 0-5.152-.589c-18.08 0-35.958-.566-53.6 4.062a10.226 10.226 0 0 0-3.367 1.343 8.227 8.227 0 0 0-2.452 3.087c-1.477 2.9-2.034 6.7.078 9.164a9.268 9.268 0 0 0 5.359 2.595 32.311 32.311 0 0 0 10.2.405c1.476-.175 2.9-.56 4.38-.667 1.252-.088 2.968.382 4.164-.055 2.452-.824 3.947-1.735 5.433-1.725 2.52.01 4.605-1.017 6.882-2.015 1.012 0 2.12-.033 3.225.01a2.354 2.354 0 0 1 2.259 1.711c-1.467 5.14-.837 10.554-.515 15.9.216 3.584 1.42 7.1 2.12 10.655q1.234 6.26 2.34 12.546a5.169 5.169 0 0 1-.3 1.573 16.231 16.231 0 0 1-2.691.478c-9.6.17-19.115 1.863-28.523 3.68-9.307 1.8-18.08 3.975-27.585 2.374-11.874-2-23.5-5.075-34.195-10.7-.778-.4-1.275-1.352-2.006-2.17l.36-3.44 3.662-2.75c3.395-2.558 6.4-5.64 10.264-7.564.7-.35 1.725-.832 1.453-2.166-.45 0-.975-.157-1.34.023a110.662 110.662 0 0 0-10.512 5.392A36.944 36.944 0 0 0 369.377 455a14.622 14.622 0 0 1-1.652 2.3 17.1 17.1 0 0 0-3.229 5.774 62.767 62.767 0 0 0-2.595 8.134c-.67 2.907-1.6 5.824-1.2 8.88a1.49 1.49 0 0 0 1.656 1.541l2.724-7.945c1.877-5.9 4.057-11.644 8-16.54a5.678 5.678 0 0 1 .764-.653h3.1c6.2 5.24 13.806 8.428 21.443 11.013a85.92 85.92 0 0 0 24.544 4.638 76.588 76.588 0 0 0 22.023-2.471c7.287-1.918 14.583-3.62 21.972-5.254 2.387-.53 5.6-.533 7.576-2.056 4.7-2.383 2.112-11.474 2.112-11.474-2.25-4.863-2.78-10.1-3.726-15.195-.713-3.846-1.62-7.724-1.137-11.75.253-2.084.5-4.07 1.712-5.7l4.292-3.142a1.957 1.957 0 0 1 2.5.092 10.688 10.688 0 0 1 1.21 3.69q.993 5.83 2.25 11.6c5.056 23.458 4.334 50.408-.253 73.866a133.626 133.626 0 0 1-13.76 38.769c-8.258 15.006-22.4 28.775-36.417 38.483a85.419 85.419 0 0 1-30.138 13.337 135.469 135.469 0 0 1-34.541 2.433c-11.57-.58-22.887-3.93-33.45-8.7a130.04 130.04 0 0 1-25.547-15.26c-1.1-.842-3.206-1.348-3.4.018a1.99 1.99 0 0 0 .773 1.542c5.158 5.207 11.658 8.837 18.094 12.338 13.217 7.2 26.862 14.238 41.718 16.64 14.367 2.323 29.052.156 43.364-2.5 1.408-.262 3.23-.345 3.892.93.754 1.444-.8 3.018-2.268 3.735s-3.28 1.518-3.446 3.142a73.879 73.879 0 0 0 23.945-17.362c1.128-1.233 4.9-3.487 4.215.156-5.254 28.1-10.568 56.412-20.988 83.04a2.195 2.195 0 0 0-.1 2.042c.87 1.215 2.64-.313 3.26-1.67q5.135-11.193 10.27-22.38c6.5 19.124 14.514 37.8 18.93 57.524s5 41.005-3.115 59.5c10.756-18.1 13.783-40.392 9.344-60.966-3.207-14.854-10.043-28.633-15.82-42.692-2.8-6.818-5.383-13.8-6.363-21.117-1.385-10.327 2.36-19.837 4.513-29.764l6.054-23.877c2.292.96 4.725 3.17 6.33 3.92 12 5.627 21.935 16.024 31.5 25.064 6.84 6.46 13.5 13.106 20.1 19.814 3.193 3.248 6.225 7.048 9.744 9.933 2.765 2.26 5.88 4.053 8.456 6.63 2.526 2.553 5.658 3.92 8.68 5.925l.47-1.4a23.873 23.873 0 0 1-2.834-3.34c-1.292-2.254-3.206-3.93-4.95-5.75-2.627-2.746-5.406-5.35-8.083-8.05-2.66-2.678-5.08-5.572-7.858-8.152a105.683 105.683 0 0 1-7.632-8.438 5.031 5.031 0 0 1-1.2-2.456c9.4 1.016 47.55 6.44 94.467 30.676.56.4 1.177.67 1.725 1.08a13.785 13.785 0 0 0 2.424 1.481c1.1.52 2.213 1.013 3.327 1.5a328.05 328.05 0 0 1 20.8 12.412c.235.207.506.363.73.58a15.086 15.086 0 0 0 2.779 1.808c.244.148.48.313.722.465l6.078 4.085a35.275 35.275 0 0 1 4.26 3.57 15.556 15.556 0 0 0 2.2 1.785l2.894 2.038 52.234 43.4c2.526 2.35 4.936 4.84 7.4 7.254a75.741 75.741 0 0 0 6.179 5.908 127.651 127.651 0 0 1 10.153 9.3 13.045 13.045 0 0 0 1.7 1.651c3.34 2.213 6 5.167 8.8 7.955 9.66 11.478 8.184 9.173 5.2 5.16.76.718 1.5 1.468 2.3 2.112a82.536 82.536 0 0 1 7.075 6.317c1.9 1.9 3.713 3.928 5.76 5.672q2.208 1.884 4.42 3.763l17.763 17.717a27.923 27.923 0 0 1-4.389 5.833c-2.328 2.37-4.55 4.826-6.7 7.38a51.829 51.829 0 0 1-10.419 9.671c-21.06 14.33-39.928 32.14-54.535 53.062-3.653 5.24-5.75 10.8-8.4 16.488a39.753 39.753 0 0 0-3.441 12.095c.028-.235 2.64-2 3-2.485a31.329 31.329 0 0 0 1.882-3.915c4.48-8.345 10.98-16.543 16.663-24.13 6.6-8.824 14.248-20.127 23.54-26.3a18.011 18.011 0 0 0 3.924-4.086 15.132 15.132 0 0 1 2.323-2.281c5.8-4.895 12.187-9.1 17.26-14.832a13.393 13.393 0 0 1 2.116-1.9 28.688 28.688 0 0 0 7.605-7.719 12.541 12.541 0 0 1 2.066-2.033l2.3.23a19.888 19.888 0 0 0 7.407 6.689c2.442 1.4 5.093 2.668 6.518 5.465a9.346 9.346 0 0 1-.8 5.893c-2.75 6.726-5.277 13.544-7.96 20.3-1.688 4.247-2.618 8.778-4.817 12.836a6.39 6.39 0 0 0-.519 1.32 64.243 64.243 0 0 1-4.017 11.589 8.557 8.557 0 0 0-.575 1.79 52.037 52.037 0 0 1-1.32 5.511 50.766 50.766 0 0 0-2.677 11.985 42.306 42.306 0 0 1-1.459 6.928c-4.343 15.4-3 34.826-.718 50.674.226 1.592 1.183 3.667 2.73 3.23 1.232-.35 1.407-2 1.352-3.28a228.969 228.969 0 0 1 4.927-58.648 226.65 226.65 0 0 1 8.1-28.44c3.266-9.122 7.665-17.8 10.73-27 2.194-6.593 4.614-13.107 7.153-19.57l2.7-7.067c1.054-2.976 2-6 3.013-8.984l3-8.98a40.265 40.265 0 0 0 .953-4.633c.74-4.2 1.66-8.36 2.1-12.582q.642-6.03 1.624-12h.552a19.984 19.984 0 0 0-.326-4.7c-.286-1.532-.814-3.06-.212-4.66 1.914-.2 2.82 1.246 3.865 2.36a26.313 26.313 0 0 0 6.9 4.959 5.626 5.626 0 0 0 3.179.782c1.615-.128 2.323-1.408 1.288-2.6a15.776 15.776 0 0 0-3.271-2.714c-9.035-5.852-14.38-14.38-18.135-24.235-3.782-9.92-6.077-20.22-8.382-30.52-.336-1.518-.8-3-1.293-4.472 0 0-3.234-11.156 0-17.8s6.735-4.678 9.33-17.56 1.955-19.662.924-22.768l-.128-.418a59.605 59.605 0 0 0-1.735-9.436c-.8-2.893-.188-5.75.8-8.7 2.526-7.453 3.027-14.878-2.425-21.544-2.387-2.913-4.227-6.354-8.1-7.747-1.532-.552-1.57-1.836-.943-3.147 1.743-3.658 4.352-6.1 8.368-6.74-.037-.088-.06-.175-.1-.262 12.817-2.2 27.658 14.1 29.475 29.512 2.185 18.54-1.767 40.268 11.478 53.426 9.5 9.426 27.654 15.7 24.46 28.7 5.475-18.627-24.392-29.756-26.96-49-2.516-18.83 20.813-29.254 39.362-33.35l62.443-13.787-30.1 22.33-15.03-8.032q5 6.64 10 13.272c-20.762 4.743-19.363 38.617-1.444 50.118 1.044.667 2.162 1.113 3.24 1.68 12.53-24.578 37.65-42.385 65.067-45.684a103.135 103.135 0 0 0-71.473 29.844c-9.685-1.643-5.526-16.7 1.38-23.68a195.493 195.493 0 0 1 36.45-28.942c11.335-6.98 25.344-12.9 37.595-7.706s15.342 26.7 2.6 30.525c11.52 65.027-37.36 134.652-102.435 145.9l40.263-3.455c7.72 40.73 16.337 81.227 16.944 122.853.34 23.655-1.83 47.458-7.65 70.424a201.587 201.587 0 0 1-12.007 34.43c-2.18 4.77-4.32 10.714-7.908 14.606-8.684 9.42-17.936 18.62-28.722 25.634-9.16 5.954-19.928 9.508-30.375 12.754a81.355 81.355 0 0 1-28.37-2.158c-4.95-2.067-9.8-4.443-14.517-6.116-14.72-5.216-29.9-9.057-44.512-14.594-19.747-7.484-39.194-18.872-49.743-37.164-7.77-13.476-9.96-29.323-12.83-44.612a435.883 435.883 0 0 0-59.792-152.06c-15.2-24.046-33.22-47.692-37.863-75.76-2.75-16.624-1.1-35.354-11.77-48.4q-7.065 17.022-14.13 34.044L543.33 699.82c5.88 6.35 10.4 13.568 12.156 22.072 2.568 12.375-1.3 25.078-5.126 37.124l-33.06 104.08c-41.287-7.05-88.23-7.3-119.694 20.344-29.954 26.317-36.722 69.52-42.522 108.96-.74 5.03-1.623 10.352-4.957 14.2-4.173 4.8-11.028 6.026-17.324 6.954l-134.317 19.8a552.281 552.281 0 0 0 157.11-20.867l17.712-76.4c1.272-5.487 2.988-11.593 7.894-14.36 8.456-4.77 18.052 3.833 23.8 11.665q18.333 25.028 34.23 51.723a141.169 141.169 0 0 0-43.048-66.346c-5.095-4.373-11.034-9.5-10.647-16.193.315-5.465 4.83-9.66 9.2-12.942 39.286-29.44 95.524-34.272 139.257-11.966 4.2 2.147 8.553 4.783 10.53 9.075s.226 10.537-4.4 11.544c-2.757.6-5.517-.756-8.06-1.982-35.744-17.24-80.493-14.14-113.516 7.87 24.718-5.5 49.8-10.813 75.1-9.815s51.227 8.98 69.224 26.8c1.5 1.5 3.024 3.175 3.413 5.264.766 4.1-3.387 7.8-7.55 8.2s-8.163-1.477-11.953-3.244c-17.9-8.35-36.87-15.4-56.614-16.214s-40.53 5.385-53.777 20.05a147.956 147.956 0 0 1 100.98-2.235c-25.44 16.354-63.6 8.06-84.063 30.33a307.474 307.474 0 0 0 89.968-27.4c3.175 14.447-11.35 26.74-25.345 31.533s-29.985 6.5-40.52 16.88c-14.213 14-12.194 36.926-16.682 56.37-8.277 35.864-40.147 61.3-72.675 78.516s-68.26 29.657-96.07 53.772c3.473 3.04 8.843.96 12.9-1.248q62.718-34.157 122.1-74.007c17.116-11.487 35.3-25.173 39.755-45.3 3.7-16.716-2.856-35.445 5-50.66 9.66-18.72 34.516-21.424 54.8-27.073 11.967-3.332 24.06-9.18 32.3-18.123a13.827 13.827 0 0 1-12.531 1.994c.2-2.2 1.28-4 2.043-5.788a25.49 25.49 0 0 0 2.479-11.455c-.013-.28.212-.575.322-.86.737-.94 1.707-.676 2.6-.424a8.779 8.779 0 0 1 2.177.93q3.03 1.836 6 3.782a25.213 25.213 0 0 1 2.061 1.67l.235 2.883a36.887 36.887 0 0 0 2.681-5.715c6.085-16.57-5.746-39.224-23.35-37.97a989.753 989.753 0 0 1 40.742-155.92c77.152 94.012 99.118 220.316 117.5 340.535q-.453-33.908-.907-67.814c.03 2.168 12.693 8.736 14.712 9.983q7.878 4.866 16.164 9.026a217.513 217.513 0 0 0 61.953 20.149c.532.092 34.878 15.4 59.53 1.3l.07-.04c.225-.068.457-.123.678-.2 3.72-1.3 7.106-3.815 10.766-5.37a91.3 91.3 0 0 0 27.224-17.221c8.635-8.13 13.616-18.314 18.4-29.065 1.956-4.393 3.75-8.857 5.5-13.34 7.25-18.67 11.4-38.442 13.34-58.346 3.82-39.22-.566-78.98-8.434-117.44l-.188-.92c-3-14.628-6.1-29.752-1.16-43.194 3.308-9 10.094-16.576 16.654-23.9l5-5.672c34.4-40.06 47.385-98.48 33.38-149.392 9.188-7.1 12.468-20.9 7.076-31.293-4.113-7.93-13.213-13.26-22.634-13.263a24.288 24.288 0 0 0-3.685.276l3.33-10.478a2.689 2.689 0 0 0 .134-.87c-.042-10.024-1.206-16.955-2.843-25.65-.428-2.27-.893-4.537-1.5-6.772-.285-1.06-.6-2.093-.924-3.134l-.138-.453a3.376 3.376 0 0 0-.313-.747l-.24-.407a40.7 40.7 0 0 1-2.195-4.7 2.818 2.818 0 0 0-1.017-1.284l-1.26-.9c-8.387-14.7-34.278-23.437-39.072-24.953-18.13-13.55-28.362-28.178-31.25-44.684a5.6 5.6 0 0 0-.1-2.361 2.612 2.612 0 0 0-.331-.736l-.078-1.218 3.58-4a2.812 2.812 0 0 0 .722-1.919c.023-.75.032-1.07.018-1.387a2.869 2.869 0 0 0-.073-.52c-.06-.257-.124-.513-.2-.77a2.963 2.963 0 0 0-.226-.546l-.483-.827a2.958 2.958 0 0 0-.313-.414l-.5-.52a3.768 3.768 0 0 0-2.457-1.16c-10.4.465-12.794 2.388-13.765 4.208a4.241 4.241 0 0 0 .216 4.28 9.839 9.839 0 0 1 1.588 3.948l-.05.956a52.484 52.484 0 0 0-2.02 10.032l-.483 3.5c-3.1 19.64-21.792 32.344-39.877 44.63-19.2 13.036-39.017 26.508-40.986 48.618a2.478 2.478 0 0 0-.17.771l-.092 1.794v.517c-.24 5.5-.48 25.547 6.058 39.615.8 5.365.5 7.824-.984 8.2a3.622 3.622 0 0 0-1.127.523 3.077 3.077 0 0 0-.773.538c-4.283 2.02-7.07 5.686-9.56 8.962l-.455.6c-2.38 3.106-1.942 6.767 1.113 9.33l.768.623c.322.258.65.513.953.794 8.87 8.274 11.487 16.072 8.483 25.282a11.058 11.058 0 0 0-.336 5.725 60.086 60.086 0 0 1 1.127 9.551l.4 5.166c1.283 12.03-.828 21.075-6.648 28.468a23.774 23.774 0 0 0-3.184 6.008c-2.53 6.218-2.107 12.32-1.693 18.225l.06.895a63.749 63.749 0 0 0 2.1 11.2c.446 1.782.9 3.563 1.26 5.362 2.747 13.72 6.284 24.8 11.13 34.864a55.074 55.074 0 0 1 4.347 11.969 17.1 17.1 0 0 0-1.108 2.365l-.327.933-3.515 10.4-.258.84a82.8 82.8 0 0 0-2.194 8.1 26.317 26.317 0 0 1-1.744 4.985c-.5 1.175-1 2.355-1.4 3.56l-5.06 15.252-2.7 8.166-.157.462a89.126 89.126 0 0 1-10.954-7.735 3.726 3.726 0 0 1-.464-.715 16.763 16.763 0 0 1 4.982-6.609c1.334-1.125 3.115-2.632 3.33-5.4a2.83 2.83 0 0 0-.364-1.616c-.147-.26-.308-.5-.474-.746a3.58 3.58 0 0 1-.271-.435 2.878 2.878 0 0 0-.543-.754 18.166 18.166 0 0 0-4.375-4.654 16.9 16.9 0 0 1-1.813-1.617l-.717-.694-6.132-5.827-38.17-36.6-15.476-15.384c-1.435-1.424-2.678-2.652-4.016-3.752l-9.974-8.1c-20.97-18.982-36.823-32.215-47-39.235l-.726-.492-.516-.346c-8.106-6.3-14.928-11.248-21.332-15.478a358.92 358.92 0 0 0-25.423-15.308 316.341 316.341 0 0 0-42.715-19.32 266.876 266.876 0 0 0-28.477-8.511l-2.393-.584-2.92-.736c-1.6-.414-3.22-.83-4.854-1.17-3.914-.817-8.115-1.5-12.84-2.072a37.421 37.421 0 0 0-4.48-.281 29.129 29.129 0 0 0-4.5.338l-.4-.48a36.578 36.578 0 0 0-3.335-3.652c-1.992-1.827-4.067-3.556-6.142-5.284l-2.617-2.2a188.837 188.837 0 0 0-28.031-19.6 83.982 83.982 0 0 0-8.948-4.651c.6-.576 1.242-1.142 1.9-1.72l.718-.63a199.581 199.581 0 0 0 19.34-19.444c15.278-17.825 24.576-41.7 27.64-70.93 2.3-21.965 3.147-53.294-5.87-77.826a1.638 1.638 0 0 1-.152-.918 3.616 3.616 0 0 1 .593-.3 20.14 20.14 0 0 1 3.57-1.017 88.312 88.312 0 0 0 12.058-2.836l5.245-1.442a15.217 15.217 0 0 0 8.019-5.438 16.48 16.48 0 0 0 3.542-9.9 2.862 2.862 0 0 0-.212-1.274 9.9 9.9 0 0 0-6.845-5.737 82.007 82.007 0 0 0-10.558-2.5c-2.246-.333-4.5-.533-6.754-.73-1.964-.175-3.93-.347-5.884-.617l-5.732-.755a23.8 23.8 0 0 0-1.753-.175 7.413 7.413 0 0 1-2.682-.5 2.849 2.849 0 0 0-.879-.294l-2.95-.476 1.233-6.537a2.087 2.087 0 0 0 .074-.587l.28-1.668c.64-3.784 1.3-7.7.833-11.773a61.648 61.648 0 0 0-3.266-13.583A64.975 64.975 0 0 0 464.341 325a43.077 43.077 0 0 1 14.423-9.789 2.825 2.825 0 0 0 1.269-4.182A14.146 14.146 0 0 0 468.315 305a13.734 13.734 0 0 0-4.016.593l-49.193-74.348c-1.84-2.785-3.933-5.94-4.426-9.187-.768-5.072 2.14-10.24 5.447-15.53l44.24-70.832c6.57-10.516 14.013-22.436 16.9-35.668 3.2-14.63-.078-30.867-8.994-44.544s-22.446-23.232-37.12-26.2a79.85 79.85 0 0 0-16.148-1.419c-4.1 0-8.226.193-12.348.386l-11.84.377c-16.2 0-32.278-2.962-47.836-5.826-15.412-2.836-31.348-5.77-47.353-5.92h-1.2c-36.975 0-74.4 15.835-100.094 42.36a73.693 73.693 0 0 0-10.972 14.117c-16.36 17.963-39.836 29.312-62.152 38.24-32.824 13.13-68.348 24.532-92.034 52.382C18.6 176.42 11.2 191.364 9.82 207.792c-1.42 16.843 3.894 33.67 12.48 48.017 18.864 31.535 51.63 49.203 82.8 66.402zm124.3 191.173c1.812-.86 1.812-.86 3.32.887l-1.867 1.8c-1.3-.622-1.788-1.46-1.46-2.687zm26.9-148.22l-9.877 6.56a16.919 16.919 0 0 1-2.227 1.017c1.23-3.377 1.758-4.55 3.5-5.35a21.837 21.837 0 0 0 6.736-5.1c.786-.828 1.78-1.32 3.386-.2l-1.528 3.073zm635.55 309.32l1.46 1.274-2.452 2.466-2.807-1.5c-.04-1.252.47-1.534 3.8-2.25zM549.712 850.6c-1.85 6.523-3.883 13-5.865 19.483-.557 1.808-1.146 3.6-1.795 5.387a28.584 28.584 0 0 1-1.325 2.7 9.518 9.518 0 0 1-2.24-.81 2.439 2.439 0 0 1-.86-2.563 23.653 23.653 0 0 1 1.007-3.643c2.2-6.082 3.823-12.34 5.718-18.508.815-2.66 1.574-5.45 3.336-7.9l1.67.143c.253.473.53.74.53 1.012a17.959 17.959 0 0 1-.175 4.699zm35.1-129.394c-.3 3.758-.975 7.485-1.56 11.216-.47 2.953-.934 5.916-1.6 8.828q-2.718 11.867-6.044 23.58l-5.983 20.1c-5.515 17.118-7.815 35.293-14.173 52.074a11.5 11.5 0 0 1-1.32 2.011c-1.6-.626-3.262-.916-4.445-1.822-1.426-1.1-3.008-.77-4.466-1.22-1.5-.465-2.853-1.358-4.32-1.933-1.445-.565-3.225-.63-4.37-1.532-1.353-1.062-3.036-.763-4.5-1.743a5.589 5.589 0 0 1 .115-1.758c8.242-20.247 12.924-41.95 18.65-63.07 4.48-16.522 10.66-32.8 14.424-49.433l3.363-11.295c.07-.2.152-.4.212-.607l.662-2.3 7.54-20.422 4.664 10.365c.1.45.17.9.295 1.357a63.9 63.9 0 0 1 2.286 12.983 12.859 12.859 0 0 0 .249 2.355c1.045 4.058.636 8.18.318 12.256zm256.02-101.267a12.855 12.855 0 0 0-4.476 6.266 15.624 15.624 0 0 1-2.632 4.458 46.15 46.15 0 0 0-5.35 8.369 13.429 13.429 0 0 1-3.791 4.66c-1.22.12-1.5-.607-1.348-1.445.22-1.228.7-2.36.142-3.68a4.236 4.236 0 0 1 .157-2.3c.387-1.684.86-3.344 1.362-5.254-.465-1.6-1.1-3.395-.1-5.276a4.457 4.457 0 0 0 .088-1.882c.01-1.9-.3-3.874.1-5.686a12.7 12.7 0 0 0-.088-5.07c-.106-.64.267-1.044 1.72-2.23 2.392.85 4.922 1.477 7.213 3.018 1.92 1.288 3.98 2.57 6.524 2.6.6 0 1.173.846 1.978 1.476a9.8 9.8 0 0 1-1.5 1.977zm91.368-13.157c1.113-2.94 2.654-2.92 4.375-2.48-1.267.645-2.5 1.376-4.375 2.48zm26.65-44.593a13.319 13.319 0 0 1 13.871 1.652 14.181 14.181 0 0 1 5.313 6.749 14.038 14.038 0 0 1-.851 7.269c-.754 2.075-1.42 4.182-2.056 6.3-1.5 4.95-4.435 9.017-7.7 12.895l-3.87 4.555a17.826 17.826 0 0 1-2.5.289 60.806 60.806 0 0 0-12.623 1.656c-2.82.566-5.645.3-8.672.4 1.54-1.574 1.527-1.66 2.447-1.77a5.543 5.543 0 0 0 3.441-1.385 5.713 5.713 0 0 1 1.643-.916l16-7.112c1.73-.777 3.418-1.647 5.065-2.58a7.629 7.629 0 0 0 1.725-1.6c.175-.2.152-.575.23-.9-.676-1.3-1.854-.994-2.875-.713-2.576.713-5.12 1.56-7.688 2.332a5.011 5.011 0 0 1-1.007.069l-.7-1.4a44.743 44.743 0 0 0 2.76-3.681 45.494 45.494 0 0 0 2.048-4.117v-8.74q-2.727-3.553-5.452-7.1c-.2-1.164.56-1.776 1.453-2.148zm-6.795 7.444a9.917 9.917 0 0 1 3.865 4.923l2.05 1.485c-.75 3.225-.75 3.225.267 6.575l-1.762 4.057.745 2.268c-3.473 3.05-9.067 5.277-14.832 5.926-.84.543-1.757 1.16-2.705 1.72a4.237 4.237 0 0 1-3.206.525c-3.966-.94-8.134-1.1-11.883-3.04l-3.478-3.915-.8-3.492c3.78-3.23 6.62-7.347 10.958-9.753 4.237-2.355 7.65-6.146 12.435-6.97a25.366 25.366 0 0 1 2.429-2.673 32.3 32.3 0 0 1 3.308-2.1 5.915 5.915 0 0 1 .957 1.688 3.827 3.827 0 0 0 1.654 2.777zM874.53 423.467l1.43-4.136-1.43 4.14zm-.248-3.2h0a9.02 9.02 0 0 0-4 3.043 8.96 8.96 0 0 1 4-3.043zm-6.5-2.774a3.154 3.154 0 0 0-1.482 1.118 3.133 3.133 0 0 1 1.482-1.118zm-.2 11.98h0c-.768 3.1-1.122 6.52-1.568 9.675.452-3.155.805-6.575 1.57-9.675zM830.6 483c-7 4.83-14.192 9.528-20.748 14.494 6.557-4.97 13.75-9.666 20.748-14.494zm-39.882 58.56c-.037-6.413 1.542-12.48 3.727-18.453a54.36 54.36 0 0 1 4.674-9.3 17.488 17.488 0 0 1 2.65-3.317 102.034 102.034 0 0 0 9.03-9.726 12.977 12.977 0 0 1 5.811-4.706c1.854-.677 3.345-2.323 5-3.52 3.98-2.848 7.876-5.825 11.98-8.488a59.86 59.86 0 0 1 9.555-5.167c3-1.242 5.3-3.362 7.885-5.138 1.426-.98 2.733-2.126 4.14-3.133 1.283-.925 2.626-1.762 3.947-2.637a11.661 11.661 0 0 0 4.863-6.233c.68-2.1 1.587-4.136 2.465-6.165.626-1.444 1.275-2.92 2.752-3.648a1.911 1.911 0 0 1 2.286 1.914 8.479 8.479 0 0 1-.143 2.36 84.364 84.364 0 0 1-6.951 21.6 88.26 88.26 0 0 0-3.75 10.232 9.249 9.249 0 0 0-.367 3.735 15.414 15.414 0 0 0 1.049 3.294c1.283.484 1.9-.037 2.222-.777 1.136-2.6 2.143-5.272 3.284-7.876 1.017-2.314 2.1-4.6 3.267-6.84a9.177 9.177 0 0 1 1.624-1.854 4.273 4.273 0 0 1 3.974.294 56 56 0 0 1 7.246 5.056 2.48 2.48 0 0 0 .157.888c3.252 5.567 6.348 11.124 10.47 16.056a175.622 175.622 0 0 1 12.7 16.718c8.014 12.325 11.147 25.873 14.72 39.923 1.546 6.073 3.152 12.964-.24 18.237a12.4 12.4 0 0 0 5.7-11.391c1.467-.507 3.054.3 4.605.27 2.953-.04 5.028-2.935 6.068-5.7 3.565-9.482.888-20.035-1.822-29.793-.377-1.353-1.113-3-2.516-2.977a67.678 67.678 0 0 1 1.688 17.524c-.087 2.54-.373 5.22-1.914 7.246s-4.73 2.97-6.67 1.334c-1.412-1.187-1.688-3.207-1.964-5.03-1.514-10.1-5.74-19.538-10.834-28.307-4.918-8.464-10.3-17-18.223-22.965a39.807 39.807 0 0 1-8.014-8.051 13.523 13.523 0 0 0-3.823-3.975l-.736-4.145a2.147 2.147 0 0 1 2.121-1.541h15.683a9.46 9.46 0 0 1 2.788.488q1.87.6 3.736 1.2c20.62 6.455 31.688 15.7 34.747 18.55-.377.055-.76-.074-1.136-.05a42.906 42.906 0 0 1 3.1 5.042 71.869 71.869 0 0 1 5.208 14.676 55.868 55.868 0 0 1 1.969 12.1c.055 1.26.253 2.517.4 3.772a5.434 5.434 0 0 1 .2 1.845c-.833 2.972-.354 5.985-.432 8.98a19.541 19.541 0 0 1-.879 5.589c-1.25 3.9-2.245 7.876-3.432 12.14l-8.212 4.2a19.834 19.834 0 0 0-4.669 3.174 52.976 52.976 0 0 1-9.776 7.43 21.463 21.463 0 0 0-8.373 9.229v2.662l.078.345a10.582 10.582 0 0 1 .188 3.1c.976 2.58 3.2 4.2 3.534 6.694a2.914 2.914 0 0 1-1.942 2.609l-8.75 3.63c-1.6.634-3.33 1.007-4.9 1.725-5.06 2.327-10.63 2.967-15.8 4.913a1.745 1.745 0 0 1-.465.074l-13.222.9a5.332 5.332 0 0 1-1.361-.169c-.152.01-.3.092-.447.092a83.541 83.541 0 0 1-16.69-1.5h-.332a42.185 42.185 0 0 1-7.839-1.132 39.229 39.229 0 0 1-12.32-2.6 5.281 5.281 0 0 0-.906-.275c-5.958-1.2-11.124-4.366-16.6-6.75a4.789 4.789 0 0 1-1.237-.672c-5.737-4.95-11.874-9.527-16.03-16.028a48.725 48.725 0 0 1-4.416-8.336c-3.24-8.3-5.43-16.838-5.208-25.846l.045-7.618zm134.984 16.782l1-2.5a4.824 4.824 0 0 1 3.588 1.813l.77 4.127c-.515.05-1.164.322-1.606.13-1.617-.7-2.574-2.145-3.75-3.572zM784.9 534.63h0c.06-1 .173-2 .316-2.97a33.36 33.36 0 0 0-.316 2.97zm-5.8 59.57c2.15-2.7 4.5-5.185 7.74-6.55-3.24 1.36-5.587 3.85-7.74 6.55zm-281.7 27.774c.888 0 1.78.052 2.674.125a36.56 36.56 0 0 0-2.992-.09c.1-.002.212-.034.318-.034zm-29.076-314.15a11.516 11.516 0 0 1 1.8.16 12.791 12.791 0 0 0-2.61-.063c.272-.02.534-.097.8-.097zm-3.78 28.362a79.741 79.741 0 0 1 4.623 17.763c.276 2.175.686 4.338.847 6.55.44 5.976-1.1 11.6-2.8 17.2a6.244 6.244 0 0 1-2.7 3.574c-5.075-.013-9.95.323-15-.15a6.04 6.04 0 0 1-.377-1.928c.515-2.944 1.132-5.866 1.72-8.824l-1.316-5.244-3.1-3.3-5.847-1.973a3.082 3.082 0 0 1-1.04-3.478c1.063-4.242 1.293-8.778 4.24-12.4a8.864 8.864 0 0 0 .838-2.2 30.964 30.964 0 0 1 8.8-11.519 12.2 12.2 0 0 1 2.7-1.284l8.42 7.213zm-49.52-305.5c1.16 0 2.314.092 3.473.13-1.97-.06-3.938-.088-5.916-.053.815-.014 1.63-.076 2.443-.076zM294.44 19.7h1.168c-2.655-.022-5.3.212-7.954.348 2.263-.114 4.518-.348 6.786-.348zm-96.214 207.08a278.213 278.213 0 0 1 64.683-46.491 186.041 186.041 0 0 0-41.651 20.291 67.061 67.061 0 0 0-9.617 6.69 189.452 189.452 0 0 0-28.793 26.386l.084.376c-12.385 13.2-24.95 28.98-33.363 44.978z"/></g></svg>