<svg width="100%" xmlns="http://www.w3.org/2000/svg" viewBox="0 0 1143.529 1327.059"  xmlns:v="https://vecta.io/nano"><path d="M542.043 358.227l5.142-1.2c39.414-9.482-29.8 17.557 5.308 8.574s6.8.817 13.814 0 18.033 2.858 17.625 3.675 13.88-4.9 10.615-3.675 12.714-6.152 10.817-1.86a15.576 15.576 0 0 1 3.081-3.09c6.148-5.084 12.14-10.386 18.577-15.08 3.707-2.7 8.063-4.6 12.3-6.434 1.5-.65 3.557-.03 5.3.01.458 2.88-.586 4.2-2.66 4.883a16.958 16.958 0 0 0-2.454.919c-2.755 1.417-3.326 2.677-1.968 5.575a3.187 3.187 0 0 1-.273 3.629 6.867 6.867 0 0 0-.761 1.269c2.6.755 4.945 1.2 2.952 3.236-4.114 4.2 8.5-4.5 5.27 4.492-1.515 4.216-1.23 7.066-.258 8.7 4.664-7.456 10.808-13.04 19.615-15.4 5.6-1.492 5.856-2.04 5.847-7.94v-9.7l.01-5.25c.1.026.208.052.3.087.108-2.547.183-5.775.1-9.074l-35.57-1.862-7.452.806a13.439 13.439 0 0 1-3.9 5.592c-6.55 5.7-12.234 12.407-18.62 18.316a68.77 68.77 0 0 1-21.611 13.743 6.617 6.617 0 0 1-2.118.451c-1.674.06-4.2-1.58-4.416-3-.3-2 .876-3.27 2.534-4.147a3.965 3.965 0 0 1 1.214-.5c7.947-1.1 14.4-5.336 20.6-10.03 5.457-4.138 10.992-8.2 15.52-13.4 1.666-1.908 3.193-3.94 5.163-6.4-3.93 1.085-10.62 5.58-12.815 8.156a15.3 15.3 0 0 1-3.158 2.924c-4.26 2.776-8.624 5.388-12.9 8.13-3.167 2.04-6.17 4.347-9.43 6.212a48.141 48.141 0 0 1-8.364 3.749 13.93 13.93 0 0 1-5.171.347c-.7-.053-1.848-.816-1.943-1.4a4.8 4.8 0 0 1 .824-2.707 3.012 3.012 0 0 1 1.432-.945c4.927-2.16 10.115-3.86 14.723-6.56 3.94-2.317 8.485-3.983 11.3-8.008a14.088 14.088 0 0 1 2.663-2.17c.93-.763 1.83-1.57 3.35-2.9-1.466-.243-2.1-.564-2.48-.38-3.644 1.787-7.3 3.565-10.845 5.526a60.388 60.388 0 0 1-18.437 6.316c-2.663.486-5.353-1.9-5.614-4.38 0-.07-.008-.14-.008-.208a306.061 306.061 0 0 0-69.71 17.932c-.045.1-1.442 3.3.367 2.026 1.837-1.3 17.76.38 26.947 0s-7.656 4.667 3.914 2.523-9.426 6.737 4.354 3.37a115.135 115.135 0 0 0 11.393-3.491zm122.035 6.15a22.068 22.068 0 0 0-7.849 5.193c3.1-1.325 6.282-2.954 7.85-5.193zm217.562 727.94c-.468 2.195 3.826 6.664 5.96 6.056.625-.182 1.042-1.1 1.753-1.9-1.17-2-2-4.043-3.383-5.613-1.675-1.917-3.792-1.084-4.33 1.466zm-3.853-17.698c.963-1.588 1.154-3.184-.087-4.7a10.864 10.864 0 0 0-8.156 10.55c3.462-.375 6.083-2.276 8.243-5.85zm2.803 4.285c-1.718-1.32-3.713-.043-5.04 1.292a34.2 34.2 0 0 0-3.947 5.128 2.659 2.659 0 0 0 .842 3.826c1.674 1.24 3.453 3.376 5.743 1.883 2.507-1.64 4.85-3.713 5.483-7.626-.84-1.293-1.605-3.358-3.08-4.503zm-5.875-20.997a11.211 11.211 0 0 1-1.257-.407c.616-2.586 2.967-5.085.268-7.644a6.972 6.972 0 0 0-5.656 2.932 25.865 25.865 0 0 1-4 3.922c-2.724 2.265-2.8 5-.053 7.253a15.974 15.974 0 0 0 2.049 1.25c-1.97 7.132-1.97 7.132 2.56 9.84 3.1-3.558 6.334-6.88 9.075-10.568 2.2-2.967.694-5.83-2.985-6.577zm-386.678-152.63c-.668-2.342-.47-4.927-1.06-7.313-1.848-7.53-2.256-15.227-2.785-22.914-.442-6.386-.642-12.8-1-19.183-.034-.712-.372-1.423-.4-2.135-.087-1.735-.026-3.47-.105-5.2a35.71 35.71 0 0 0-.511-6.412c-.174-.8-1.527-1.535-2.5-1.84-.72-.226-1.674.33-2.524.486-5.058.9-6.594.043-7.835-4.954-1.5-6.065-3.132-12.14-4.077-18.307-1.05-6.88-1.58-13.856-2.014-20.814-.6-9.483.634-18.9 1.745-28.294.64-5.474 1.622-10.914 2.394-16.38a23.759 23.759 0 0 0 .191-3.93 50.741 50.741 0 0 1 3.922-20.441c1.327-3.306 2.117-6.828 3.22-10.472-3.5-1.163-5.38.12-7.245 1.64l-11.93 9.535c-2.6 2.116-5.17 4.268-7.626 6.54-2.534 2.36-4.92 4.894-7.366 7.34-2.768 2.767-5.622 5.448-8.286 8.32a105.4 105.4 0 0 0-7.6 8.893c-2.68 3.627-4.58 7.9-7.592 11.183-5.83 6.37-7.322 14.507-9.813 22.168-1.778 5.492-2.394 11.374-3.3 17.127a79.634 79.634 0 0 0-.959 10.831 70.712 70.712 0 0 0 .625 9.561c.6 5.18 1.37 10.35 2.117 15.513a9.4 9.4 0 0 0 .66 1.614l3.565 10.273L420.7 889.15c1.266 3.557 3.3 6.845 4.58 10.4 3.392 9.5 7.522 18.6 13.552 26.75a30.294 30.294 0 0 1 1.5 2.646 42.393 42.393 0 0 0 2.646 4.355c2.03 2.655 4.13 5.267 6.342 7.766a48.456 48.456 0 0 0 5.545 5.552 75.741 75.741 0 0 0 6.845 4.668c4.312 2.82 9.283 3.245 14.177 3.306 3.15.043 4.286-1.987 3.47-5.05-1.4-5.2-4.477-9.4-8.3-13.04-2.437-2.325-2.377-5.136.52-6.785a13.234 13.234 0 0 1 3.722-1.093c1.128-.234 2.334-.182 3.435-.5a2.4 2.4 0 0 0 1.883-3.011c-.815-3.392-1.6-6.785-4.12-9.492-3.765-4.042-7.366-8.225-11.036-12.354-2.316-2.6-4.546-5.3-6.993-7.8-3.9-3.948-7.8-7.87-10.767-12.607a7.835 7.835 0 0 1-1.449-6.464c3.948 4.06 8.173 6.837 11.105 11 3.384 4.8 7.132 9.137 12.832 11.14 3.983-3.167 5.562-2.68 7.132 2.038.27.833.417 1.7.755 2.508.946 2.264 1.666 4.7 3 6.716 2.4 3.574 4.2 7.027 4.216 11.626.018 5.283 4.3 8.016 9.9 7a40.367 40.367 0 0 0-2.629-9.518c-1.623-4.5-3.22-9.04-4.53-13.648zM827.083 635.97c.93 5.883 1.293 11.9 2.742 17.648a63 63 0 0 1 .459 1.992c.047.218.1.435.14.654q.18.868.338 1.74a93.67 93.67 0 0 1 .554 3.422l.2 1.413c.324 2.44.583 4.884.845 7.33q.132 1.23.27 2.46 2.1-4.294 4.374-8.493h0l-.272-.093c.122-1.024-.078-2.238.408-3.037 2.5-4.086 4.963-8.225 7.817-12.05.148-.2.3-.385.46-.58v-.02a19.122 19.122 0 0 1 .574-3.183c1.47-5.333 4.813-8.826 9.1-11.98h0a3.371 3.371 0 0 0-.42-.455c-.032-.03-.068-.058-.1-.087a3.929 3.929 0 0 0-.47-.345l-.106-.07-.138-.08a5.021 5.021 0 0 0-.477-.23 16.447 16.447 0 0 0-4.234-1.042 51.621 51.621 0 0 1-13.917-3.6 23.419 23.419 0 0 0-6.706-1.8c-2.82-.295-3.618 1.068-2.9 3.748a61.611 61.611 0 0 1 1.451 6.741zm243.497 208.696c.6-6.568-.538-13.014-.287-19.53a15.485 15.485 0 0 0-.164-2.612c-1.068-8.355-2.63-16.675-3.115-25.065a74.808 74.808 0 0 0-7.47-28.033c-4.034-8.46-6.065-17.6-9.457-26.27a95.135 95.135 0 0 0-5-11.1c-2.1-3.817-4.962-7.2-7.028-11.045-6.585-12.207-15.035-22.8-26.314-30.956-4.807-3.47-9.24-7.627-15.08-9.492a15.015 15.015 0 0 1-6.178-3.948 18.722 18.722 0 0 0-4.72-2.993c-1.145-.607-2.6-.686-3.67-1.388-7.8-5.206-16.745-6.36-25.725-7.418a71.4 71.4 0 0 1-8.65-1.059c-5.648-1.38-11.2-3.167-16.823-4.676a15.9 15.9 0 0 1-11.036-9.179c-1.24-2.83-3.253-4.235-5.977-5.284l-3.67-1.458a21.551 21.551 0 0 1-6.105 5.84c-3.8 2.388-7.546 4.856-11.267 7.36q-3.75 3.625-7.18 7.58c-.58.673-1.132 1.446-1.7 2.18.72-.648 1.044-.688-1.17 1.33l-.96 1.316q-3.1 4.33-5.854 8.9a174.639 174.639 0 0 0-8.47 15.844c1.02-1.475 2-2.968 2.97-4.472l.4-.622q1.368-2.15 2.664-4.343.237-.4.472-.8 1.283-2.2 2.506-4.413l.368-.68q1.27-2.334 2.48-4.705c3.2-6.273 8.832-10.333 13.5-15.278 1.388-1.467 3.193-2.55 4.573-4.026a13.279 13.279 0 0 1 9.092-4.625 5.225 5.225 0 0 1 2.863.347c1.276.772 3.263 1.154 3.115 3.237-.14 1.882-1.9 2.038-3.218 2.48-7.288 2.43-12.633 7.453-17.56 13.04a6.7 6.7 0 0 1-1.206 1.267c-5.423 3.583-7.844 9.5-11.348 14.567a17.973 17.973 0 0 1-1.97 2.881c-5.56 5.344-7.9 12.46-10.724 19.3a11.977 11.977 0 0 1-1.154 2.82c-5.136 6.646-7.392 14.723-10.845 22.168-2.906 6.28-4.1 13.326-6.733 19.755-3.166 7.687-5.058 15.7-7.47 23.6a85.1 85.1 0 0 0-1.64 6.35c-.494 2.247-.92 4.5-1.353 6.776a60.236 60.236 0 0 1-2.751 9.119 3.761 3.761 0 0 1-1.158 1.426c-1.277 7.136-3.018 18.47-5.834 27.075a51.691 51.691 0 0 1 .1 5.674 5.892 5.892 0 0 1-3.63 5.274l-4.313 13.656a.035.035 0 0 1-.008.026v.008a67.681 67.681 0 0 0-1.475 6.993l-3.688 29.387c-.27 2.16-.893 4.346-.763 6.5.425 7.358-1.848 14.377-2.42 21.612-.477 6.143-.546 12.234.825 18.255.355 1.58 1.12 3.106 3.08 3.263 3.765.312 7.53.694 11.313.824 4.772.165 9.56-.06 14.324.208 2.1.122 4.807.434 6.117 1.76 2.6 2.655 4.876 5.857 5.154 9.882l1.752 27.434c.547 10.646-.355 21.23-1.423 31.825a133.454 133.454 0 0 0-.173 16.962c.1 3.6 2.343 4.754 5.726 3.314 1.536-.65 3.046-1.354 4.564-2.03l.608.885c-2.153 2.482-4.2 5.06-6.482 7.4a4.313 4.313 0 0 0-1.171 5.067c.945 2.716 1.267 5.64 2.152 8.38.408 1.284 1.293 3.02 2.325 3.323.937.277 2.594-.894 3.5-1.84s1.3-2.412 2.03-3.887c-1.18-.425-1.865-.608-2.5-.9-2.4-1.127-2.83-2.568-.7-4.2a52.944 52.944 0 0 0 7.774-8.112c2.333-2.76 2.75-4.06 1.5-7.4-3.03-8.182-6.17-16.338-8.85-24.632a39.96 39.96 0 0 1-1.727-11.149c-.112-4.78.512-9.578.764-14.368l.946-18.306c.286-3.73-.183-7.956 2.516-10.846 2.594-2.76 3.548-5.882 4.26-9.318a6.011 6.011 0 0 0-1.934-6.325c-2.325-1.978-4.746-3.878-6.88-6.047-4.58-4.65-8.9-9.56-13.535-14.16-4.677-4.64-6.776-10.428-8.034-16.65-.174-.86.156-1.822.346-3.53 1.2 1.527 1.822 2.464 2.577 3.28 2.924 3.193 4.46 7.523 8.512 9.813 2.9 1.63 5.466 3.844 8.355 5.492a89.992 89.992 0 0 0 10.125 5c2.386 1 4.3-.243 4.824-2.768a13.761 13.761 0 0 0 .1-3.488c-.173-3.167-.746-6.36-.546-9.5.32-5.223 1.058-10.412 1.76-15.6a14.07 14.07 0 0 1 1.362-3.314l1 .07a13.606 13.606 0 0 1 .92 3.08c.356 6.073.8 12.155.84 18.23a45.146 45.146 0 0 0 1.84 13.786c2.35 7.3 3.86 14.906 8.173 21.5 1.04 1.588 2 2.707 4.05 2.742 10.8.173 21.664.38 32.18-2.282 15.808-4.018 31.616-8.156 47.12-13.18 10.568-3.427 21.318-5.8 32.1-8.173 8.8-1.944 17.682-3.47 26.532-5.214 2.846-.565 5.657-1.38 8.53-1.77l22.93-2.864c3.488-.442 4.52-1.154 5.033-4.9.807-5.9 1.2-11.852 1.7-17.787.13-1.448.035-2.915.165-4.364.486-5.648 1.3-11.28 1.45-16.936.134-5.366-1.03-10.805-.56-16.115zM863.3 895.2c-4.763-4.382-7.93-16.7-5.657-22.038 6.108 4.58 7.435 11.444 8.815 18.246.493 2.426-1.234 3.276-3.158 3.792zm-93.514-114.73c-6.377-4.668-16.858-8.65-26.185-.772-6.307 5.336-13.422 9.717-20.206 14.47-1.423 1-3.08 1.64-4.477 2.664l-25.2 18.715c-2.056 1.56-3.67 3.678-5.63 5.387L667.594 838.6c-5.544 4.946-10.8 10.212-16.285 15.227-1.484 1.353-3.627 2.047-4.945 3.514-2.534 2.794-4.7 5.917-7.02 8.9l-6.672 8.6c-1.076 1.336-2.63 2.352-3.5 3.8-3.427 5.735-8.85 10.1-11.392 16.442-.2.5-.763.867-1.12 1.336-1.223 1.614-2.56 3.167-3.6 4.884-2.273 3.714-4.234 7.618-6.6 11.253-3.592 5.52-6.906 11.132-8.832 17.483-.087.278-.65.408-.928.564-.26-.14-.452-.182-.5-.286-3.653-8.7-4.017-17.813-2.906-27.018.512-4.26.78-8.32-1.45-12.3a52.508 52.508 0 0 1-4.234-9.509c-1.293-4.086-4.052-5.7-7.973-6.36a17.162 17.162 0 0 1-6.551-2.195 73.52 73.52 0 0 1-10.2-8.181c-4.486-4.364-8.746-9-12.832-13.743-2.83-3.3-5.1-7.054-7.818-10.472-2.793-3.523-5.787-6.9-8.737-10.3-.876-1.006-2.064-2.1-3.375-1.093a6.917 6.917 0 0 0-1.978 3.141 11.1 11.1 0 0 0-.078 3.045c-.27 7.106.538 14.2.06 21.326a108.908 108.908 0 0 0 .243 13.561c.32 5.5.9 11 1.38 16.5a52.973 52.973 0 0 0 .72 7.366c1.44 6.212 2.455 12.5 4.068 18.715 1.493 5.743 2.76 11.547 4.634 17.222 3.3 9.986 2.9 10.185 14.914 11.4 7.54.755 14.9 2.412 22.376 3.384 8.1 1.058 16.233 1.24 24.32 2.047 2.837.278 5.778-.625 8.676-.72l35.755-1c5.37-.173 10.758-.46 16.112-.937 7.808-.7 15.582-1.935 23.408-2.395 10.315-.607 20.675-.7 31.008-1 4.087-.122 8.182-.017 12.25-.295 4.633-.313 9.25-1.007 13.882-1.4a13.222 13.222 0 0 1 5.205.234c3.16 1.093 6.065-.27 9.076-.45a2.873 2.873 0 0 0 2.047-1.848 56.058 56.058 0 0 0 .929-10.394c-.165-4-.842-7.982-1.3-11.973 1.424-5.874 1.554-12.138 2-18.194l1.154-7.947a92.713 92.713 0 0 0 .92-9.536 13.538 13.538 0 0 0-.139-2.811c.147-2.74.208-5.483.087-8.233a15.5 15.5 0 0 0-.061-.9c1.65-.452 2.22-1.736 2.637-4.582.5-3.453.616-6.958 1.06-10.42l2.672-19.33c.087-.564.4-1.093.52-1.657l2.924-13.6a25.7 25.7 0 0 1 .911-3.306c.85-2.307 1.735-4.606 2.7-6.87a38.447 38.447 0 0 1 3.08-6.681 7.22 7.22 0 0 0 .79-6.663 27.01 27.01 0 0 0-9.273-13.494z" fill="#f8a475"/><g fill="#373737"><path d="M1131.47 1050.508a19.47 19.47 0 0 1-1.327-4.607l-3.75-14.776a37.124 37.124 0 0 1-.746-6.039l-.156-6.558c-.13-1.562-1.136-3.037-2.733-2.88a5.415 5.415 0 0 0-3.435 2.091c-.694.946-.66 2.48-.773 3.774a90.2 90.2 0 0 0 .035 15.617c.338 3.74.8 7.35 2.585 10.846a31.362 31.362 0 0 1 3.159 9.925c1.987 14.42-4.234 24.762-16.954 30.765-.312.148-.8-.052-1.284-.1l1.892-3.913c-3.115 0-5.7-.1-8.295.026-3.045.148-6.082.5-9.118.746-2.75.235-5.5.608-8.25.668-4.52.1-9.05.06-13.56-.043l-14.828-.538c-1.865-.026-3.765.746-5.6.58l-22.992-2.377a9.419 9.419 0 0 0-3.488.078c-5.275 1.5-10.385-.278-15.565-.65-4.338-.313-8.685-1.328-13-1.18-8.867.3-17.725 1.05-26.567 1.85a150.06 150.06 0 0 0-16.831 2.247c-8.416 1.726-16.7 4.06-25.1 5.9a22.357 22.357 0 0 0-8.381 3.419c-5.345 3.748-10.707 2.984-15.392-2.42a35.822 35.822 0 0 1-6.507-11.27 23.416 23.416 0 0 1-.712-4.087c-.2-1.05-.086-2.672-.7-3.045-2.334-1.4-2.343-3.488-2.326-5.717.035-3.2-.217-6.447.113-9.63a37.909 37.909 0 0 1 1.952-9.8c1.632-4.18 4.078-8.042 6.022-12.112a12.22 12.22 0 0 0 1.24-4.546c.044-.737-.92-1.8-1.692-2.212-.416-.217-1.587.495-2.1 1.067-1.448 1.63-2.654 3.48-4.095 5.1-1.926 2.178-4.372 1.918-5.5-.8a14.6 14.6 0 0 1-1.146-5.892c.183-7.452.044-14.88-1.674-22.167a50.18 50.18 0 0 0-2.351-7.409c-2.68-6.56-5.873-12.85-7.66-19.834-2.2-8.633-3.07-17.153-1.57-25.924.5-2.96.763-5.97 1.318-8.928.347-1.848 1.4-3.22 3.558-3.193 3.062.035 6.273-.5 9.162.234 5.344 1.362 10.446-.225 15.617-.5 6.8-.364 13.56-1.7 20.363-2.264a109.075 109.075 0 0 0 26.046-5.1 46.423 46.423 0 0 1 7.617-1.935 57.61 57.61 0 0 0 16.051-5.5 15.829 15.829 0 0 1 3.161-1.412q12.533-2.992 25.1-5.84c5.527-1.25 11.062-2.472 16.64-3.48 3.42-.625 6.95-.616 10.36-1.258l25.22-5.015c7.036-1.24 14.16-2.013 21.274-.295a26.3 26.3 0 0 0 7.3.339 49.986 49.986 0 0 1 11.608 1.466 6.34 6.34 0 0 1 3.367 2.577c3.245 4.615 6.316 9.353 9.4 14.1a13.144 13.144 0 0 1 1.492 3.158 125.426 125.426 0 0 1 5.805 39.572c-.08 11.582-2.533 22.844-5.5 33.932a51.456 51.456 0 0 0-1.848 14.212v10.95a30.376 30.376 0 0 0 4.451 15.357 9.7 9.7 0 0 0 2.36 1.978c1.76-2.143.893-3.783.373-5.422a22.643 22.643 0 0 1 2.707-19.678c1.752-2.777 2.02-5.692 2.264-8.685.3-3.748-.052-7.565.5-11.262a176.545 176.545 0 0 0 2.282-29.542c-.044-1.735-.46-3.48-.365-5.2.564-10.142 1-20.268-1.926-30.184a12.677 12.677 0 0 1-.278-1.284c-2.377-11.036-5.544-21.726-13.448-30.3a10.7 10.7 0 0 0-3.756-2.828c-4.885-1.848-9.744-3.8-15.132-3.974-3.27-.112-4.425-1.847-4.2-4.815l1.388-20.883c.806-20.2 1.136-43.1-2.23-63.006-3.734-22.1-9.174-43.994-17.533-64.827-7.85-19.563-18.643-44.354-35.712-57.464-7.826-6.03-15.34-12.477-23.86-17.543-2.88-1.718-5.987-3.054-8.85-4.8-8.034-4.9-17.075-7.418-25.716-10.828-5.076-2-10.68-2.638-16.034-3.913-6.25-1.488-14.864-1.84-19.878-6.118-1.77-1.5-3.058-3.5-4.623-5.224-9.055-9.985-24.82-9.23-37-15-11.88-5.626-15.968-3.63-28.174-1.648a29.464 29.464 0 0 1-16.728-2.057c-6.507-2.863-12.77-6.28-19.288-9.118-3.426-1.492-5.647-3.6-5.942-7.34-.907-11.462-6.194-16.247-16.42-19.668-15.2-5.086-22.027-20.3-35.107-28.534-9.145-5.764-16.092-4.818-25.928-4.5-12.9.413-15.547-16.476-20.113-26.363-8.12-17.586-14.158-35.743-20.108-54.136-1.37-4.286-2.238-8.815-4.217-12.806-3.124-6.334-2.3-12.6-.4-18.723 2.16-6.933 5.172-13.605 7.766-20.4 3.68-9.622 4.043-19.53 2.568-29.62-1.3-8.92-4.772-17.065-8.954-24.926a22.452 22.452 0 0 0-4.181-4.963 25.489 25.489 0 0 0-4.33-3.635c-4.954-3.132-7.427-7.427-7.27-13.388.1-3.912-.356-7.886-.348-11.782-.07.044-.14.078-.208.122l-.165-3.974c-.1-1.865-.26-3.713-.434-5.57-.017-.2-.043-.382-.06-.547a76.93 76.93 0 0 0-.589-3.158 20.549 20.549 0 0 1-.373-5.1 41.693 41.693 0 0 0-7.306-8.208q-3.1-2.928-6.212-5.84c-11.392-35.147-2.8-72.9 6.013-107.593 9.683-38.115 20.2-77.877 9.023-116.9-5.076-17.752-14.628-34.748-29.273-46.33-14.3-11.3-31.92-16.624-49.958-17.5-40.354-1.938-76.377 18.086-111.76 34.623-24.06 11.244-50.938 21.6-77.782 21.213a81.453 81.453 0 0 0-19.677-1.831c-40.8.677-81.834 18.88-109.762 48.683l-.9.963c-11.973 13.014-21.646 28.075-31.008 42.643-9.44 14.706-19.2 29.915-31.443 42.964-2.984 3.176-6.116 6.212-9.248 9.258-3.27 3.175-6.542 6.36-9.64 9.665a87.567 87.567 0 0 0-11.053 14.09c-8.693 14.073-11.2 32.2-6.923 49.723s14.905 32.423 29.117 40.9c12.85 7.662 28.084 10.664 41.524 13.32l90.518 17.846c6.768 1.336 13.127 2.9 16.632 7.35 2.247 2.846 3.2 6.915 4.06 10.507l11.686 49.16c1.487 6.255 4.037 12.25 5.267 18.662a116.536 116.536 0 0 1 2.081 23.105 52.558 52.558 0 0 0 .4 10.125c.793 4.288 3.4 7.362 6.528 10.223 5.374 4.93 10.13 11.85 16.648 15.3 1.1.6 1.726 2.1 2.932 3.644l-4.494 1.848c-2.507 1.1-3.35 2.742-2.82 5.2.5 2.317 2.28 2.273 4.078 2.377 4.633.26 6.9 1.892 8.05 5.9a22.55 22.55 0 0 1 .9 5.144c.557 11.053 2 22.165 6.012 32.545 5.03 13 15.785 21.648 26.9 29.285 12.845 8.824 24.734 19.2 36.286 29.626l17.585 16.192c4.427 4.03 8.527 7.458 7.487 14.1-.637 4.068-2.8 7.7-4.938 11.234-3.592 7.184-8.443 13.98-12.6 20.86-3.8 6.3-6.987 15.342-14.18 18.243a7.464 7.464 0 0 0-2.612 1.492 57.84 57.84 0 0 1-14.272 10.68c-28.46 15.714-52.546 42.538-63.137 74.086-4.363 12.988-7.938 28.926-6.793 42.7.7 8.5 1 17.136 3.367 25.456 2.5 8.8 4.285 17.786 7.86 26.27 1.17 2.794 1.7 5.857 2.672 8.755.954 2.88 1.952 5.77 3.167 8.554 1.562 3.566 3.48 6.976 5.032 10.55 3.3 7.565 6.872 14.992 10.6 22.358a76.646 76.646 0 0 0 17.717 22.4c3.27 2.924 6.125 6.585 10.715 7.8a34 34 0 0 1 4.972 1.639 28.253 28.253 0 0 0 19.581 1.683c3.158-.884 4.252-.355 5.466 2.482 1.727 4 3.436 8.017 5 12.1l10.568 28.232c.355.954.572 1.952.885 2.924 1.327 4.155 2.2 8.528 4.112 12.4a79.171 79.171 0 0 0 14.142 20.311 8.469 8.469 0 0 1 1.38 1.683c.98 1.78.6 3.27-1.345 4.25-2.455 1.258-5.05 2.24-7.54 3.427-2.108 1-3.86.477-5.726-.728a21.764 21.764 0 0 0-5.778-2.907c-8.685-2.395-15.7-7.392-22.012-13.57a8.29 8.29 0 0 1-1.839-2.907l-8.58-22.94c-.642-1.726-1.206-3.48-1.84-5.292 2.976-1.458 5.492 0 8.025 0 2.742 0 5.483-.685 8.225-.7a62.645 62.645 0 0 1 7.271.746l.2-.9c-2.152-1.17-4.286-2.4-6.48-3.5a3.891 3.891 0 0 0-2.491-.486c-5.05 1.5-9.8 0-14.636-1.093-2.212-.5-3.375-1.77-4.6-3.575-2.837-4.2-6.02-8.147-9.118-12.155a9.628 9.628 0 0 0-1.753-1.3c-4.2-3.366-6.1-7.565-5.04-13.03a10.36 10.36 0 0 0-1.293-8.009c-1.17-1.76-4.433-3.583-5.925-3.08-2.117.7-2.5 2.776-2.907 4.555a75.436 75.436 0 0 0-1.769 9.882c-.46 4.824-.694 9.847 3.07 13.62a189.715 189.715 0 0 0 15.044 13.934 11.107 11.107 0 0 1 4.468 7.54 166.088 166.088 0 0 0 4.824 22.1 15.739 15.739 0 0 0 1.935 4.234 43.649 43.649 0 0 0 3.6 4.321c1.05 1.2 1.926 2.76 3.245 3.462a28.2 28.2 0 0 1 8.216 7.1c1.45 1.7 3.158 3 5.588 2.976a3.761 3.761 0 0 1 2.108.426c3.514 2.524 7.6 2.68 11.652 3.15a10.506 10.506 0 0 1 2.707 1.223c-2.5 4.7-6.94 5.63-10.924 7.132-.8.3-2.3-.434-3.088-1.1-4.885-4.14-9.7-8.373-14.463-12.642-2.5-2.22-4.7-4.754-7.3-6.836-3.835-3.08-7.956-5.822-11.834-8.84-2.386-1.857-4.442-4.14-6.846-5.952-3.6-2.707-7.4-5.128-11.027-7.8a25.828 25.828 0 0 1-2.985-3.159 64.2 64.2 0 0 0-5.874-5.838c-6.533-5.093-13.222-10-19.85-14.958l-8.73-6.5c-1.9-1.5-3.48-3.488-5.5-4.78-3.53-2.256-7.375-4.035-10.967-6.2-8.086-4.884-17-6.585-26.237-7.1a11.478 11.478 0 0 0-3.028.312l-17.1 3.583a37.6 37.6 0 0 1-4.876.3c0-1.78-.382-3.2.07-4.286a111.963 111.963 0 0 1 5.361-11.41c2.1-3.774 4.9-7.157 6.863-10.983 3.9-7.62 7.262-15.5 11.14-23.114 4.607-9.05 9.544-17.943 14.3-26.922 1.093-2.056 2.542-4.12 2.907-6.334.58-3.6 2.273-6.55 4.043-9.578a49.862 49.862 0 0 0 3.548-7.028c.885-2.255 1.987-4.7.66-7.15-.64-1.18-1.683-2.82-2.7-2.94-1.067-.122-2.516 1.154-3.427 2.15-1.06 1.163-1.648 2.733-2.568 4.043-2.1 2.968-4.4 5.8-6.334 8.85-1.153 1.8-1.657 4-2.68 5.9l-10.48 19.018c-2.082 3.826-3.53 8.13-6.16 11.513-5.6 7.2-9.075 15.583-13.75 23.287-5.588 9.206-10.264 18.958-15.322 28.484-1.362 2.56-2.517 5.258-4.052 7.713-3.453 5.553-7.627 10.654-9.987 16.867-.806 2.116-2.342 3.08-4.824 2.793a8.769 8.769 0 0 0-4.589.851c-8.338 4.138-17.05 7.574-24.354 13.6a105.458 105.458 0 0 1-9.275 6.577c-6.472 4.26-12.815 8.693-17.36 15.087-3.774 5.3-7.956 10.377-10.246 16.676a27.4 27.4 0 0 1-4.529 7.41 6.073 6.073 0 0 1-4.13 1.96c-3.028.052 5.283-1.856 2.255-2.22-6.5-.8-24.328-1.327-30.826-2.1-3.6-.416-7.27.573-10.862.018a209.084 209.084 0 0 0-31.312-2.413q-12.456-.05-24.884-.92c-3.4-.234-32.9-1.466-36.04-2.3a3.754 3.754 0 0 0-3.687.746l-.92-.5-72.527-3.272a2.868 2.868 0 0 0-1.363 1.2 3.739 3.739 0 0 0-.26 1.285c1.45 2.863 3.9 5.38 5.535 8.1a62.39 62.39 0 0 1 3.358 6.524l64.516 105.1c1.032-.356 8.477 8.32 9.145 12.25a4.664 4.664 0 0 1 1.6 1.587q3.526 5.232 7.218 10.334c2.386 3.3 5 6.446 7.306 9.795 2.63 3.826 4.885 7.922 7.583 11.7 3.54 4.962 7.383 9.7 11.036 14.575 1.492 1.97 3.7 3.905 4.07 6.1.755 4.52 3.2 8.12 5.162 11.973a73.553 73.553 0 0 0 5.657 9.231c1.423 2.013 3.462 2.525 5.727.954 1.665-1.145 3.418-1 5.413-.64a118.457 118.457 0 0 0 12.138 1.214c5.232.373 10.464.686 15.695.842a5.871 5.871 0 0 1 5.05 2.811c1.84 2.6 4.07 4.937 6.047 7.444a26.246 26.246 0 0 1 2.915 4.286c1.7 3.375 2.933 7.027 4.9 10.22 3.262 5.3 7.114 10.195 9.214 16.233 1.414 4.087 3.444 4.564 7.626 2.8l13.578-5.9a50.783 50.783 0 0 1 20.059-3.713c9.458.052 18.932-.47 28.4-.738a407.53 407.53 0 0 1 41.941.911c10.255.772 20.45 2.646 30.8 1.692 9.7-.894 19.157 1.04 28.545 2.985a95.171 95.171 0 0 0 20.354 2.212 31.758 31.758 0 0 1 6.065.651l20.163 3.852c6.594 1.05 13.257 1.7 19.894 2.5l16.485 1.78c7.384.694 14.9.624 22.133 2.04 13.36 2.6 27 1.787 40.37 4.026 6.013 1.006 12.12 1.466 18.194 2.1 8.242.833 16.476 1.866 24.736 2.308a171.708 171.708 0 0 0 32.674-1.752c5.18-.712 10.412-1.128 15.626-1.57a39.078 39.078 0 0 1 4.355.234c5.674.174 11.392.816 17.014.313 4.686-.425 9.232-.885 13.874.078a12.143 12.143 0 0 0 3.921-.026 3.145 3.145 0 0 0 2.95-2.794c.538-4.052-1.336-6.464-5.423-7.522-3.947-1.007-7.826-2.247-11.738-3.384-1.58-.468-3.063-1.032-3.367-3.323.72-.642 1.536-1.44 2.43-2.126 5.2-3.956 11.26-6.732 15.877-11.486a15.787 15.787 0 0 0 3.054-3.575 3.529 3.529 0 0 0-.494-3.193c-.53-.582-2.092-.6-3.063-.33-2.1.547-4.13 1.423-6.186 2.17-6.2 2.265-12.46 4.312-19.175 3.14-7.452-1.293-14.95-2.48-22.3-4.3-12.077-2.984-23.426-8.034-34.28-14.046-3.757-2.083-6.967-5.2-10.325-7.956-4.824-3.983-9.292-8.45-14.385-12.043-5.64-3.965-10.342-8.858-15.287-13.526-1.337-1.258-2.516-2.672-4.122-4.4a32.807 32.807 0 0 1 3.992-2.837c2.6-1.3 5.4-2.247 7.955-3.627 5.258-2.828 10.412-5.83 15.592-8.806 2.342-1.345 4.685-2.282 7.46-1.3 3 1.05 6.04 2.04 9.1 2.906a74.8 74.8 0 0 0 10.532 2.586c4.894.642 9.9.494 14.8 1.067a192.86 192.86 0 0 0 26.566 1.561c5.414-.13 10.793-.268 15.66 2.786a19.392 19.392 0 0 0 4.121 1.466l15.322 5.17c7.765 2.872 15.712 5.37 22.376 10.637a14.222 14.222 0 0 0 4.39 1.874l20.3 6.74 31.53 11.748c8.225 2.9 16.6 5.422 24.96 7.86l32.865 9.12c5.63 1.5 11.288 2.984 17.014 4.017l35.72 5.883a15.629 15.629 0 0 0 3.028-.157c3.47-.13 6.96-.5 10.412-.32 6.246.33 12.46 1.075 18.7 1.5 7.55.53 15.1-.928 22.654-.026a7.349 7.349 0 0 0 1.31-.009l16.58-.8c3.773-.243 7.522-.7 11.28-1.1 4.476-.486 8.936-1.354 13.42-1.458a117.928 117.928 0 0 0 28.042-3.87c5.2-1.388 10.325-3.02 15.478-4.572l15.834-4.833a27.491 27.491 0 0 1 3.835-.737 81.417 81.417 0 0 0 13.994-3.288c8.668-2.812 16.893-7.28 26.315-7.436a3.409 3.409 0 0 0 1.675-.469c4.243-2.637 9.17-2.6 13.83-3.617 2.7-.6 5.422-1.067 8.042-1.9a15.325 15.325 0 0 0 10.976-14.081c.087-1.163.034-2.334.078-3.506l.86-21.378a10.353 10.353 0 0 1 .659-2.967q3.93-10.88 7.93-21.725l4.373-11.8a36.291 36.291 0 0 0 1-4.676l1.674-8.1a38.018 38.018 0 0 0 1.024-4.208c.694-6.6 2.152-13.2.928-19.912a3.3 3.3 0 0 1 .061-1.3c1.735-7.557 1.094-15.235-.486-22.558-1.37-6.342.686-8.355 5.527-10.5 1.327-.582 2.707-1.077 4.017-1.7 1.44-.694 3.158-1.2 4.2-2.3 6.438-6.828 13.7-13 14.125-23.7.306-7.742 1.642-15.37-2.384-22.613zm-245.5 40.344c1.38 1.57 2.212 3.6 3.383 5.613-.7.807-1.128 1.727-1.753 1.9-2.134.608-6.428-3.86-5.96-6.056.538-2.55 2.655-3.383 4.33-1.466zm-5.38-11.947c1.475 1.145 2.24 3.2 3.08 4.5-.633 3.913-2.976 5.986-5.483 7.626-2.3 1.493-4.07-.642-5.743-1.883a2.659 2.659 0 0 1-.842-3.826 34.2 34.2 0 0 1 3.947-5.128c1.328-1.332 3.323-2.608 5.04-1.3zm-11.045 1.56a10.864 10.864 0 0 1 8.156-10.55c1.24 1.52 1.05 3.115.087 4.7-2.16 3.577-4.78 5.478-8.243 5.85zm3.914-22.965a11.211 11.211 0 0 0 1.257.407c3.68.747 5.18 3.6 2.985 6.577-2.74 3.687-5.986 7-9.075 10.568-4.53-2.707-4.53-2.707-2.56-9.84a15.974 15.974 0 0 1-2.049-1.25c-2.758-2.264-2.67-4.988.053-7.253a25.865 25.865 0 0 0 4-3.922 6.972 6.972 0 0 1 5.656-2.932c2.7 2.56.348 5.058-.268 7.643zM743.984 562.7c5.83-.78 11.227-.374 16.416 2.056a13.95 13.95 0 0 0 4.077 1.432c5.1.6 8.685 3.93 12.407 6.888a18.4 18.4 0 0 1 3.635 4.85c4.434 7.14 11.436 11.5 17.856 16.442 1.536 1.18 3.73 1.605 5.692 2.108 3.782.954 5.934 3.236 6.993 6.993 15.405 54.66 15.85 114.244 6.567 170.07-.642 3.86-.5 7.886-1.466 11.652a87.582 87.582 0 0 0-1.677 33.3 4.3 4.3 0 0 1-.453 3.182c-1.263 1.644-3.886.75-5.606-.408-16.7-11.243-22-31.72-30.977-48.535-2.8-5.25-5.9-10.36-9.093-15.383-2.87-4.52-7.626-5.56-12.5-3.166a95.227 95.227 0 0 0-19.617 12.953 28.514 28.514 0 0 1-3.574 2.516c-11.116 6.7-20.8 16.7-30.783 25q-16.27 13.5-31.27 28.438a486.469 486.469 0 0 0-60.71 74.244c-2.412 3.618-4.573 7.4-6.846 11.114-.147.25-.338.477-.477.73a3.082 3.082 0 0 1-4.043 1.674c-1.78-.676-1.9-2.438-1.7-4.07.347-2.733.745-5.475 1.275-8.2l3.522-17.526c1.2-6.7 4.477-12.6 6.94-18.793 3.6-9.032 7.644-17.907 11.748-26.73 1.466-3.14 3.74-5.9 5.544-8.9 18.5-30.764 40.54-59.188 63.083-87.06l33.927-41.77c10.414-12.987 21.73-25.782 30.3-40.133a118.7 118.7 0 0 0 5.78-10.884c7.306-15.75 16.314-46.425-.02-59.643-3.852-3.114-7.834-6.828-9.414-12.26-.772-2.664-2.984-4.928-4.66-7.3-1.155-1.63-1.224-1.573-.877-4.882zm18.453 305.455c-2.3 20.542-3.1 41.3-3.982 62.33-.118 2.86.564 6.34-1.67 8.24-2.732 2.32-7.073.8-10.248.645-5.428-.25-11.014.416-16.44.67l-102.72 6.1c-25.025.917-48.554-2.218-73.287-4.695-12.025-1.215-11.617-1.414-14.914-11.4-10.12-30.642-12.2-62.67-11.106-94.692a11.083 11.083 0 0 1 .079-3.048c1.433-4.052 3.656-3.994 6.192-.94 12 14.463 23.012 31 38.75 41.6a17.162 17.162 0 0 0 6.551 2.195c3.92.67 6.68 2.274 7.973 6.36a52.508 52.508 0 0 0 4.234 9.509c2.23 3.983 1.96 8.043 1.45 12.3-1.1 9.205-.747 18.307 2.906 27.018.043.1.234.147.5.286.277-.156.84-.286.928-.564 1.926-6.35 5.24-11.964 8.832-17.483 2.37-3.635 4.33-7.54 6.6-11.253 26.252-42.945 65.75-75.078 105.858-104.478 1.4-1.024 3.054-1.674 4.477-2.664 6.784-4.754 13.9-9.135 20.206-14.47 9.327-7.878 19.808-3.9 26.185.772a24.789 24.789 0 0 1 8.489 11.363c1.973 5.632-1.328 10.53-3.178 16.057-6.67 19.92-10.392 39.984-12.663 60.254zm-196.322-45.12a35.7 35.7 0 0 1-1.588-6.323l-.018-.035a21.346 21.346 0 0 1-2.308-10.559c.14-2.993.755-3.627 3.644-3.653a14.943 14.943 0 0 1 3.037.321c5.406 1.1 10.775 2.42 16.216 3.306a68.991 68.991 0 0 0 11.73.92c6.1-.078 12.2-.625 18.3-.885 3.644-.157 7.3-.278 10.94-.174 3.48.1 4.434 1.762 2.794 4.876-1.7 3.22-3.73 6.264-5.518 9.43l-8.824 16.06c-3.1 5.918-6.168 11.87-8.97 17.934-1.9 4.078-3.253 8.4-4.945 12.58-1.2 2.95-2.473 5.874-3.835 8.745a1.779 1.779 0 0 1-2.932.7 20.856 20.856 0 0 1-4.3-4.841c-3.86-6.854-7.236-13.986-11.27-20.727-3.67-6.143-6.36-12.7-9.275-19.184-1.1-2.433-1.593-3.92-1.35-5.18a19.586 19.586 0 0 1-1.527-3.313zM287.782 115.67c1.466-1.562 3.054-2.985 4.616-4.442-1.866 1.77-3.757 3.5-5.492 5.387.286-.32.58-.633.876-.945zM205.55 221.162c.607-.65 1.275-1.267 1.9-1.9-1.518 1.562-2.984 3.176-4.424 4.807.85-.96 1.647-1.96 2.524-2.898zm182.38 201.52l-10.23-44.465-1.406-8.32c91.152-101.485 207.62-119.87 268.432-121.874a123.44 123.44 0 0 1-3.167-8.217c-130.428-5.17-246.55 99.542-266.853 121q-7.7-43.18-18.88-85.625c-.954 24.8 4.78 49.307 10.472 73.46q-49.3-8.993-98.622-17.977C247 326.9 225.14 322.543 209.7 308.3c-17.847-16.467-22.88-45.23-11.67-66.772 9.154-17.6 26.774-28.944 39.858-43.866 14.35-16.372 23.06-36.857 35.5-54.73 27.84-40.032 75.36-65.618 124.1-66.84.165 0 .34 0 .5-.008a39.18 39.18 0 0 1 8.173-1.345 21.04 21.04 0 0 1 1.822.026c.07-.052.147-.1.217-.157 34.392 2.655 67.62-11.947 98.092-26.53C539.877 32 576.082 14 614.483 20.05c17.24 2.716 32.882 10.6 44.344 23.9 11.6 13.492 17.924 31.295 20.354 48.725 5.535 39.642-8.5 78.312-17.214 116.4-7.82 34.233-11.646 71.874 3.644 104.548l-57.43 7.26-8.267-.147c-3.192 2.022-6.36 4.1-9.717 5.8-.78.408-1.6.772-2.412 1.1-72.4 1.544-144.37 33.16-192.975 86.978l-.746.686a4.7 4.7 0 0 0-.364.616c-1.97 2.2-3.88 4.453-5.77 6.736zm29.412 69.5c-4.355-3.844-8.38-8-13.463-10.992-7.895-4.65 4.1-9.485 8.147-10.608 6.877-1.9 14.184-2.373 21.276-2.88 5.326-.38 9.7 1.048 12.8 5.608 2.177 3.2 4.208 6.5 5.136 10.437.694 2.924.3 4.9-1.883 6.993-4.6 4.42-11.28 7.03-17.5 8.087-5.363.9-10.677-3.244-14.513-6.65zm59.373 279.38l1.274-7.04c6.033-33.638 18.57-65.57 34.14-95.878 2.533-4.954 4.746-9.882 8.113-14.324.008-.1.008-.2.025-.3.4-2.282 1.45-2.95 3.68-2.334a22.766 22.766 0 0 1 2.846 1.119c5.622 2.447 11.227 4.945 17.612 4.182 2.6-.312 5.215-.53 7.8-.946 2.274-.373 4.747-.53 6.733-1.57 3.28-1.7 6.63-1.866 10.16-1.944 2.872-.07 4.46 1.093 5.882 3.55 2.907 5.015 4.07 10.88 7.67 15.54a1.349 1.349 0 0 1 .183.39c2.533 6.863 5.578 13.414 10.714 18.82 3.124 3.288 2.95 7.765 3.948 11.834.547 2.23.73 4.278-.425 6.342-.9 1.64-.712 3.124.93 4.182 1.3.85 3.383.13 4.372-1.744 1.206-2.316 2.178-4.754 3.16-7.184a3.609 3.609 0 0 0 .155-2.116c-1.05-4.035-1.5-8.165-4.294-11.713a86.715 86.715 0 0 1-7.323-11.9c-2-3.618-.9-5.475 3.253-5.752 2.6-.165 5.215-.026 8.32-.026 1.033-3 2.178-5.8 2.933-8.694a84.531 84.531 0 0 0 1.666-9c.525-3.558 3.03-3.957 5.54-6 3.133-2.55 3.908-7.1 5.242-10.688a113.418 113.418 0 0 1 9.715-19.518c3.447-5.655 6.07-11.74 9.083-17.625 2.66-5.2 6.874-9.984 7.9-15.744a13.22 13.22 0 0 0-2.568 1.961c-1.285 1.76-2.412 3.644-3.618 5.466-2.8 4.242-5.25 8.8-8.53 12.623-3.037 3.54-5.856 7.176-8.563 10.95-1.78 2.464-3.6 5.2-6.065 6.828-7.123 4.728-14.012 10-22.367 12.563-4.6 1.4-9.38 2.3-13.752 4.156-5.96 2.542-11.886 2.238-18.02 1.475a24.538 24.538 0 0 0-4.92-.312 12.676 12.676 0 0 1-3.939 1.952c-2.828 1.613-5.925 1.735-8.927 2.073-10.4 1.2-19.2-1.77-25.75-10.533-14.938-19.947-33.8-33.77-53.585-48.346-15.67-11.544-35.3-25-38.417-45.807-.9-6.03-1.3-12.147-1.727-18.238a7.4 7.4 0 0 1 4.546-7.756c2.922-1.327 6.5-2.435 9.515-3.992 3.552-1.832 6.424-4.58 10-6.4 1.708-.876 2.862-.243 3.2 1.63.73 4 1.545 8.017 1.9 12.05l1.9 26.107a15.956 15.956 0 0 0 1.813 5.336c.356.746 1.423 1.145 2.082 1.63 2.24-1.484 2.152-3.453 2.1-5.327l-.7-26.826c-.125-7.9-2.048-16.056-3.448-23.814-1.543-8.55-4.686-15.6-8.567-23.237-3.653-7.2-11.7-11-19.316-12.405-5.806-1.07-11.593.212-17.212 1.645a172.3 172.3 0 0 1-17.62 3.253c-2.443-7.5-3.24-15.993-4.813-23.848-.64-3.2 4.4-8.618 6.084-11.23 3.125-4.813 6.418-9.45 9.935-13.972a189.157 189.157 0 0 1 21.911-22.121 273.436 273.436 0 0 1 35.244-25.984q.563-.348 1.126-.692 13.9-6.94 28.42-12.528a306.061 306.061 0 0 1 69.718-17.934c0 .07.008.14.008.208.26 2.48 2.95 4.867 5.614 4.38a60.388 60.388 0 0 0 18.437-6.316c3.548-1.96 7.2-3.74 10.845-5.526.382-.183 1.015.138 2.48.38l-3.35 2.9a14.088 14.088 0 0 0-2.663 2.17c-2.82 4.025-7.366 5.7-11.3 8.008-4.608 2.7-9.8 4.4-14.723 6.56a3.012 3.012 0 0 0-1.432.945 4.8 4.8 0 0 0-.824 2.707c.1.573 1.232 1.336 1.943 1.4a13.93 13.93 0 0 0 5.171-.347 48.141 48.141 0 0 0 8.364-3.749c3.262-1.865 6.264-4.173 9.43-6.212l12.9-8.13a15.3 15.3 0 0 0 3.158-2.924c2.2-2.577 8.884-7.07 12.815-8.156-1.97 2.464-3.5 4.495-5.163 6.4-4.53 5.2-10.064 9.258-15.52 13.4-6.186 4.694-12.642 8.92-20.6 10.03a3.965 3.965 0 0 0-1.214.5c-1.658.876-2.838 2.143-2.534 4.147.217 1.432 2.742 3.072 4.416 3a6.617 6.617 0 0 0 2.118-.451 68.77 68.77 0 0 0 21.611-13.743c6.386-5.9 12.07-12.615 18.62-18.316a13.439 13.439 0 0 0 3.9-5.592l7.452-.806 35.57 1.862c.093 3.3.018 6.527-.1 9.074-.1-.035-.208-.06-.3-.087l-.01 5.25v9.7c.01 5.9-.25 6.447-5.847 7.94-8.807 2.356-14.95 7.94-19.615 15.4l-.332.526a13.352 13.352 0 0 0-.772 2.039c-.607 1.527-.538 2.845 1.04 3.782 1.5.885 3 1.258 4.373-.2 1.292-1.38 2.56-2.793 3.74-4.268a45.4 45.4 0 0 1 3.71-4.179 22.068 22.068 0 0 1 7.849-5.193 18.389 18.389 0 0 1 3.58-.918c15.77-2.4 29.378 8.788 31.338 24.53a60.017 60.017 0 0 1 .021 10.964c-.626 10.586-2.255 20.3-6.338 30.2-2.478 6.017-4.86 11.9-6.2 18.287-1.3 6.176-1.664 12.795-4.926 18.36-2.473 4.217-5.622 5.614-10.125 3.87-1.085-.416-2.083-1.076-3.176-1.484-2.655-1-4.4-.294-4.868 2.525a14.186 14.186 0 0 0 .591 5.909c1.23 4.468 2.915 8.815 4.1 13.292 2.014 7.6 3.827 15.244 5.622 22.887a12.368 12.368 0 0 1 .478 5.154c-1.666 7.956-3.54 15.877-5.44 23.78-.547 2.3-1.415 4.512-2.256 7.14a4.793 4.793 0 0 0 4.069-2.967 94.766 94.766 0 0 0 8.277-23.365 12.381 12.381 0 0 0 .564-3.844c-.694-5.778-1.423-11.548-2.43-17.266a30.2 30.2 0 0 1-.148-11.677c1.093-5.3 1.328-6.03 6.707-6.94a8.2 8.2 0 0 0 5.665-3.6 45.887 45.887 0 0 1 3.575-3.922c1.024 1.163 2 1.8 2.273 2.655 1.2 3.687 2.17 7.444 3.262 11.158a186.046 186.046 0 0 0 10.854 27.66l13.43 27.9c8.153 16.984 16.8 33.424 27.7 48.848 5.12 7.244 9.093 13.963 8.13 23.1-1.02 9.65-5.286 18.612-9.434 27.255-10.233 21.322-26.784 37.988-38.494 58.263a28.148 28.148 0 0 1-6.064 7.843c-4.373 3.575-7.6 8-10.95 12.4l-10.8 14.237-14.047 18.324c-2.273 3.02-4.078 6.43-6.6 9.206a153.7 153.7 0 0 0-15.053 19.261c-2.836 4.373-6 8.537-9.084 12.754-1.986 2.716-4.858 2.932-7.8 2.655a39.376 39.376 0 0 1-11.114 2.316c-9.36.813-18.764.084-28.1-.78-7.12-.66-16.55-.008-22.84-3.914-7.45-4.625-8.112-17.153-8.986-24.96-3.893-34.767-4.112-70.516 5.66-104.108.648-2.227.724-5.53-1.565-5.9-1.6-.264-2.838 1.332-3.625 2.75a99.42 99.42 0 0 0-9.765 27.024c-7.784 35.362-8.74 77.576 2.667 112.322L560.688 829c1.163 3.444 4.667 9.3 4.667 12.92a19.325 19.325 0 0 0 1.145 2.369l7.27 12.85c.728 1.32 1.865 2.664 1.05 4.6-.668-.06-1.354.086-1.727-.183a96.693 96.693 0 0 1-8.633-6.654 98.911 98.911 0 0 1-13.092-15.088c-3.436-4.84-7.34-9.353-10.6-14.36-5.466-8.355-9.257-17.474-12.676-26.74-2.36-6.412-9.457-9.874-14.576-6.178-.824.6-1.9.85-2.7 1.45-9.55 7.158-20.67 13.906-26.053 25.086-1.62 3.365-2.875 7.4-6.263 8.98-5.46-6.628-3.97-15.775-4.605-23.718-.874-10.744.887-22 2.82-32.783zm-.826 183.032c-4.894-.06-9.865-.486-14.177-3.306a75.741 75.741 0 0 1-6.845-4.668 48.456 48.456 0 0 1-5.545-5.552c-2.212-2.5-4.3-5.1-6.342-7.766a42.393 42.393 0 0 1-2.646-4.355 30.294 30.294 0 0 0-1.5-2.646c-6.03-8.147-10.16-17.248-13.552-26.75-1.276-3.557-3.315-6.845-4.58-10.4l-10.732-31.43-3.565-10.273a9.4 9.4 0 0 1-.66-1.614l-2.117-15.513a70.712 70.712 0 0 1-.625-9.561 79.634 79.634 0 0 1 .963-10.836c.9-5.753 1.52-11.635 3.3-17.127 2.5-7.66 3.983-15.8 9.813-22.168 3-3.28 4.9-7.556 7.592-11.183a105.4 105.4 0 0 1 7.6-8.893c2.664-2.872 5.518-5.553 8.286-8.32 2.446-2.447 4.832-4.98 7.366-7.34 2.455-2.273 5.023-4.425 7.626-6.54l11.93-9.535c1.865-1.52 3.748-2.8 7.245-1.64-1.1 3.644-1.892 7.166-3.22 10.472a50.741 50.741 0 0 0-3.922 20.441 23.759 23.759 0 0 1-.191 3.93l-2.394 16.38c-1.1 9.4-2.334 18.8-1.745 28.294.434 6.958.964 13.934 2.014 20.814.945 6.168 2.576 12.242 4.077 18.307 1.24 5 2.777 5.864 7.835 4.954.85-.157 1.805-.712 2.524-.486.964.3 2.317 1.05 2.5 1.84a35.71 35.71 0 0 1 .511 6.412c.08 1.735.018 3.47.105 5.2.026.712.364 1.423.4 2.135l1 19.183c.53 7.687.937 15.383 2.785 22.914.6 2.386.4 4.97 1.06 7.313 1.3 4.607 2.906 9.137 4.528 13.648a40.367 40.367 0 0 1 2.629 9.518c-5.6 1.006-9.873-1.727-9.9-7-.017-4.6-1.82-8.052-4.216-11.626-1.345-2.014-2.065-4.452-3-6.716-.338-.8-.486-1.675-.755-2.508-1.57-4.72-3.15-5.2-7.132-2.038-5.7-2-9.448-6.342-12.832-11.14-2.932-4.164-7.157-6.94-11.105-11a7.835 7.835 0 0 0 1.449 6.464c2.967 4.737 6.87 8.66 10.767 12.607 2.447 2.48 4.677 5.188 6.993 7.8l11.036 12.354c2.525 2.707 3.306 6.1 4.12 9.492a2.4 2.4 0 0 1-1.883 3.011c-1.1.32-2.307.27-3.435.5a13.234 13.234 0 0 0-3.722 1.093c-2.9 1.65-2.958 4.46-.52 6.785 3.826 3.644 6.906 7.843 8.3 13.04.813 3.065-.324 5.095-3.473 5.052zm42.366 74.294a9.278 9.278 0 0 1-3.653-4.1 109.288 109.288 0 0 1-7.635-21.8 10.741 10.741 0 0 0-1.31-3.209c-3.87-5.97-6-12.58-7.462-19.47a10.2 10.2 0 0 0-.98-2.871 85.729 85.729 0 0 1-6.3-15.8 61.278 61.278 0 0 0-10.012-19.278 28.29 28.29 0 0 1-3.167-5.18c-1.4-2.984-.234-5.145 2.95-4.98 5.188.26 10.36.573 15.46 2.143.93.287 1.866.547 2.8.8a16.5 16.5 0 0 1 3.072-6 9.185 9.185 0 0 1-1.111-2.23c-3-8.77-7.35-17.144-7.92-26.66-.183-3.028-1.085-6.013-1.475-9.032-.486-3.75-.816-7.514-1.17-11.27l-1.458-16.945c-.217-3.34-.044-6.707-.044-10.064-.868-10.16 1.44-19.964 3.4-29.8a9.15 9.15 0 0 1 2.5-4.468 65.682 65.682 0 0 1 15.972-11.314 5.548 5.548 0 0 1 6.23.408 40.249 40.249 0 0 1 6.125 6.221 10.349 10.349 0 0 1 2.109 8.268c-1.12 5.9-1.128 11.878-1.77 17.777-1.068 9.63-.72 19.235-.6 28.83a170.681 170.681 0 0 0 4.624 39.225c1.874 7.488 3.974 14.915 5.97 22.36a14.657 14.657 0 0 1 .615 2.542 5.794 5.794 0 0 1-.043 1.423c.92 1.7 1.857 3.418 2.672 5.18a23.991 23.991 0 0 1 1.735 5.11l8.7 1.457 19.834 2.872c2.585.373 5.162.824 7.765 1.1 4.616.486 9.24 1.015 13.873 1.267 7.262.4 14.533.8 21.8.763 8.6-.035 17.17-.494 25.76-.807q9.735-.365 19.47-.84l34.817-1.883c11.756-.963 23.512-1.58 35.312-1.735 5.058-.06 10.108-1.18 15.174-1.4 6.265-.278 12.607-.668 18.793.026q.82.1 1.64.156a13.63 13.63 0 0 1-.026-.833v-1.223a15.943 15.943 0 0 1 1.145-5.952c-.824-1.093-.894-2.542-.052-4.347 1.874-4.026 1.605-8.312 1.987-12.424.8-8.685.868-17.448 1.04-26.176a200.3 200.3 0 0 1 4.65-39.233c1.562-7.1 2.586-14.316 4.12-21.414 1.693-7.816 3.644-15.573 6.9-22.93.173-.4.2-.97.477-1.206.962-.754 2-1.865 3.054-1.917.78-.035 2.012 1.215 2.386 2.152 2.672 6.715 6.906 12.294 11.86 17.473 4.65 4.86 10.394 7.375 16.77 8.8 1.093.234 2.213.4 3.323.555l1.414.2a6.633 6.633 0 0 0 3.61-.485 5.892 5.892 0 0 0 3.626-5.276 51.691 51.691 0 0 0-.1-5.674 24.875 24.875 0 0 0-.573-3.861 45.807 45.807 0 0 1-1.093-10.316c-.018-3.678.217-7.35.312-11.027.017-.86.573-1.813.338-2.55-1.4-4.416.486-8.667.512-13.005.018-2.308.5-4.616.677-6.933.252-3.46-.01-6.984 1.414-10.3a3.967 3.967 0 0 0 .3-1.709c-.373-8.537 2-16.7 3.315-25.022a12.926 12.926 0 0 0 .173-1.744l.885-29.264c.147-8.573.07-17.153-.035-25.734a71.081 71.081 0 0 0-.72-8.242l-.407-3.42q-.138-1.228-.27-2.46l-.6-5.367-.246-1.962-.2-1.413-.146-1c-.12-.816-.26-1.624-.408-2.433q-.16-.87-.338-1.74c-.043-.217-.093-.436-.14-.654l-.46-1.992c-1.45-5.744-1.813-11.765-2.742-17.648a61.611 61.611 0 0 0-1.449-6.75c-.728-2.68.07-4.043 2.9-3.748a23.419 23.419 0 0 1 6.706 1.8 51.621 51.621 0 0 0 13.917 3.6 16.447 16.447 0 0 1 4.234 1.042 3.722 3.722 0 0 1 .364.164c.04.022.074.045.113.066s.092.054.138.08c.02.012.043.022.062.036s.028.022.044.033a3.929 3.929 0 0 1 .47.345c.034.03.07.057.1.087a3.371 3.371 0 0 1 .42.455h0a3.2 3.2 0 0 1-.366 4.068c-3.053 3.74-6.384 7.27-9.308 11.1v.02c-.15.2-.3.384-.46.58-2.854 3.826-5.327 7.965-7.817 12.05-.486.8-.286 2.013-.408 3.037l.272.093 1.1.372a60.464 60.464 0 0 0 4.2-6.368c2.256-4.546 5.935-7.87 9.215-11.574 5.552-6.282 12.372-10.48 19.963-13.76a13.565 13.565 0 0 1 9.787-.694c5.266 1.7 10.455 3.6 15.617 5.6 4.477 1.736 8.884 3.653 13.335 5.45h0l3.67 1.458c2.724 1.05 4.737 2.455 5.977 5.284a15.9 15.9 0 0 0 11.036 9.179c5.623 1.5 11.175 3.3 16.823 4.676a71.4 71.4 0 0 0 8.65 1.059c8.98 1.058 17.926 2.212 25.725 7.418 1.06.7 2.525.78 3.67 1.388a18.722 18.722 0 0 1 4.72 2.993 15.015 15.015 0 0 0 6.178 3.948c5.84 1.865 10.272 6.02 15.08 9.492 11.28 8.147 19.73 18.75 26.314 30.956 2.066 3.835 4.93 7.228 7.028 11.045a95.135 95.135 0 0 1 5 11.1c3.392 8.667 5.423 17.812 9.457 26.27a74.808 74.808 0 0 1 7.47 28.033c.486 8.4 2.047 16.7 3.115 25.065a15.485 15.485 0 0 1 .164 2.612c-.25 6.516.877 12.962.287 19.53-.47 5.3.694 10.75.564 16.1-.14 5.657-.963 11.288-1.45 16.936-.13 1.45-.034 2.916-.165 4.364-.52 5.935-.9 11.9-1.7 17.787-.512 3.756-1.545 4.468-5.033 4.9l-22.93 2.864c-2.872.4-5.683 1.2-8.53 1.77l-26.532 5.214c-10.784 2.377-21.534 4.746-32.1 8.173-15.5 5.023-31.312 9.16-47.12 13.18-10.516 2.663-21.378 2.455-32.18 2.282-2.047-.035-3-1.154-4.05-2.742-4.313-6.585-5.822-14.186-8.173-21.5a45.146 45.146 0 0 1-1.84-13.786c-.052-6.074-.485-12.156-.84-18.23a13.606 13.606 0 0 0-.92-3.08l-1-.07a14.07 14.07 0 0 0-1.362 3.314c-.7 5.188-1.44 10.377-1.76 15.6-.2 3.14.373 6.333.546 9.5a13.761 13.761 0 0 1-.1 3.488c-.52 2.525-2.438 3.757-4.824 2.768a89.992 89.992 0 0 1-10.125-5c-2.9-1.648-5.457-3.86-8.355-5.492-4.052-2.3-5.588-6.62-8.512-9.813-.755-.815-1.38-1.752-2.577-3.28-.2 1.7-.52 2.672-.346 3.53 1.258 6.22 3.357 12.008 8.034 16.65 4.633 4.6 8.954 9.5 13.535 14.16 2.134 2.17 4.555 4.07 6.88 6.047a6.011 6.011 0 0 1 1.934 6.325c-.7 3.436-1.665 6.56-4.26 9.318-2.7 2.9-2.23 7.115-2.516 10.846-.47 6.1-.617 12.207-.946 18.306-.252 4.8-.876 9.587-.764 14.368a39.96 39.96 0 0 0 1.727 11.149c2.68 8.294 5.82 16.45 8.85 24.632 1.25 3.348.832 4.65-1.5 7.4a52.944 52.944 0 0 1-7.774 8.112c-2.126 1.63-1.7 3.072.7 4.2.633.295 1.318.478 2.5.9-.728 1.475-1.12 2.94-2.03 3.887s-2.568 2.116-3.5 1.84c-1.032-.3-1.917-2.04-2.325-3.323-.885-2.742-1.207-5.665-2.152-8.38a4.313 4.313 0 0 1 1.171-5.067c2.282-2.35 4.33-4.928 6.482-7.4l-.608-.885-4.564 2.03c-3.383 1.44-5.622.295-5.726-3.314a133.454 133.454 0 0 1 .173-16.962c1.068-10.594 1.97-21.18 1.423-31.825l-1.752-27.434c-.278-4.025-2.55-7.227-5.154-9.882-1.3-1.327-4.008-1.64-6.117-1.76-4.763-.27-9.552-.043-14.324-.208-3.782-.13-7.548-.512-11.313-.824-1.96-.157-2.725-1.684-3.08-3.263-1.37-6.02-1.3-12.112-.825-18.255.573-7.235 2.846-14.254 2.42-21.612-.13-2.143.494-4.33.763-6.5l3.688-29.387a67.681 67.681 0 0 1 1.475-6.993v-.008a.035.035 0 0 0 .008-.026.591.591 0 0 0 .018-.061l.642-2.724c.407-1.866.338-3.48-2.143-3.9-2.274 2.186-1.978 5.2-2.516 7.783-1.25 5.96-1.978 12.025-3.02 18.028-.425 2.413-1.25 4.755-1.674 7.167a110.131 110.131 0 0 0-1.788 21.291 19.968 19.968 0 0 1-.268 3.037c-.738 5.17-1.814 10.325-2.134 15.522-.252 4.034.572 8.12.685 12.18a26.131 26.131 0 0 1-.156 5.449l.85 5.648c.182 1.076.4 2.134.676 3.184.157.6.347 1.137.452 1.432l18.566-.808c3.74-.068 7.42 1.2 11.27.3 1.692-.4 3.132 1.518 3.35 3.895a120.849 120.849 0 0 1 .894 12.607c-.07 7.27.763 14.576-.72 21.82-.4 1.97-.07 4.078-.122 6.117l-.833 34.08a70.582 70.582 0 0 0 1.024 9.509l1.527 11.218c.555 4.173.945 8.382 1.674 12.52a119.126 119.126 0 0 0 2.968 13.622 125.658 125.658 0 0 0 4.815 12.112l5.492 12.866c1.753 4.087.824 5.58-3.6 6-8.685.825-17.327 1.65-25.83 4-5.683 1.58-11.73 1.857-17.6 2.785-6.038.954-12.1 1.727-18.063 3.063-9.1 2.056-18.3 3.288-27.54 4.46-9.812 1.25-19.608 2.542-29.576 1.918l-19.93 2.013a33.933 33.933 0 0 1-6.941-.313q-11.244-1.405-22.462-3.02c-4.173-.6-8.338-1.293-12.46-2.152-6.1-1.275-12.26-2.4-18.185-4.242-2.776-.868-5.18-3.115-7.583-4.954-9.1-6.994-17.248-15.2-27.252-21.023-2.646-1.535-5.423-2.863-8-4.5-6.976-4.46-13.735-9.3-20.884-13.474-4.216-2.464-8.268-5.223-13.136-6.76-5.778-1.83-11.105-5.05-16.727-7.418-8.173-3.427-16.1-7.6-25.05-8.824a51.807 51.807 0 0 0-5.682-.217c-2.473-.06-4.5-.815-5.9-3.07a47.585 47.585 0 0 0-4.321-6 18.278 18.278 0 0 0-4.233-3.646zm-222.127 5.466c3.123-4.53 5.448-9.64 7.92-14.6l13.214-27a18.317 18.317 0 0 1 9.4-8.711c3.88-1.648 7.445-4.13 11.4-5.457a100.1 100.1 0 0 1 16.9-4.252c6.516-.98 12.72 1.155 18.593 3.878a87.267 87.267 0 0 1 7.9 4.616l7.826 4.763a93.273 93.273 0 0 1 17.1 13.405l17.126 16.268a36.991 36.991 0 0 0 3.193 2.273l6.932 5.266c4.113 3.22 7.922 6.933 12.346 9.63 7.766 4.737 14.455 10.793 21.57 16.32 1.492 1.162 3.114 2.16 4.65 3.262 2.577 1.866 5.232 3.644 7.67 5.674 2.082 1.736 2.342 3.228.6 5.276a39.368 39.368 0 0 1-6.7 6.125 6.555 6.555 0 0 1-4.165.928c-7.244-.633-14.445-1.856-21.7-2.073-4.27-.13-8.6 1.18-12.875 1.952a67.865 67.865 0 0 0-10.2 2.2c-4.745 1.657-9.413 3.4-12.12 8.45-2.212 4.12-3.028 8.46-3.714 12.884a8.449 8.449 0 0 0 .825 4.182 24.26 24.26 0 0 0 11.123 12.459c.876.477 1.657 1.1 3.158 2.117-1.5 1.57-2.525 2.768-3.67 3.826q-4.673 4.283-9.43 8.477a7.8 7.8 0 0 1-6.533 1.709c-2.56-.32-5.163-.27-7.748-.382a14 14 0 0 1-2.568-.173c-2.62-.65-3.4-1.8-2.082-4.035a44.678 44.678 0 0 1 6.637-9.118 22.5 22.5 0 0 0 6.316-14.047 11.859 11.859 0 0 0-5.466-10.819c-6.94-4.685-7.02-4.442-15.027-1.58-3.22 1.163-5.258 3.6-7.366 5.986a2.382 2.382 0 0 0-.174 2.265c.65.58 2 1.1 2.638.8a11.05 11.05 0 0 0 3.713-2.915 12.539 12.539 0 0 1 7.011-4.165c4.65-1.17 8.632 2.117 8.875 6.95.252 5.093-2.212 9.275-4.312 13.57-1.726 3.54-3.644 6.984-5.63 10.376a13.947 13.947 0 0 1-3.192 4.078c-6.3 4.876-13.2 8.555-21.153 9.917a20.881 20.881 0 0 1-3.609.034l-.46-.92c1.38-1.58 2.638-3.3 4.156-4.73 4.694-4.45 8.728-9.362 11.183-15.4 3.167-7.782-.364-15.5-8.207-18.307a13.811 13.811 0 0 0-8.069-.711c-3.818.868-4.356.035-5.6-3.86-1.744-5.44-4.416-10.23-10.984-11.33.73-2.412 2.273-2.3 3.852-1.78 5.405 1.735 10.715 3.783 16.2 5.232a44.767 44.767 0 0 0 10.23 1.145 59.833 59.833 0 0 0 9.127-.676 9.442 9.442 0 0 0 4.234-1.8c-6.247 0-12.563.563-18.723-.156-6.047-.712-12.4-1.58-17.5-6.5 3.106-2.637 5.9-4.85 8.5-7.26 2.612-2.395 5.05-4.98 7.574-7.488l-.607-.9a50.052 50.052 0 0 0-5.561 2.846c-3 2-5.8 4.312-8.763 6.377a58.066 58.066 0 0 1-17.352 7.93 15.026 15.026 0 0 0-2.065.651c-5.536 2.55-11.132 4.97-16.563 7.73-7.132 3.618-14.064 7.627-21.2 11.236a50.153 50.153 0 0 1-8.234 2.854c-7.244 2.2-14.567 4.156-22.228 3.688a31.812 31.812 0 0 1-6.307-1.467c-.964-.26-1.84-.92-2.812-1.1-5.24-.988-8.364-4.3-10.35-9.014-.738-1.76-.937-3.358.53-4.84 2.447-2.465 4.728-5.128 7.375-7.35 1.96-1.657 4.4-2.742 6.628-4.087l23.166-14.02c3.5-2.1 7.175-3.913 10.515-6.212a131.263 131.263 0 0 0 10.646-8.329c3.626-3.1 6.976-6.534 10.6-9.622 4.754-4.052 10-7.514 13.708-12.746 1.3-1.848 3.427-3.114 5.145-4.685 1.457-1.32 2.872-2.7 4.3-4.043l-.616-.815-18.03 11.322c-1.7-1.874-.833-3.253-.122-4.434l9.136-14.862c.477-.78.824-1.64 1.232-2.455l-.755-.607c-1.483 1.492-3.33 2.76-4.373 4.5-3.713 6.22-8.65 11.774-10.558 18.992a7.662 7.662 0 0 0-.625 2.082c.278 4.67-2.872 7.592-5.7 10.36-4.972 4.876-10.368 9.327-15.68 13.856-.9.78-2.246 1.067-4.233 1.96a20.789 20.789 0 0 1 .711-4.025c2.523-5.72 4.647-11.577 8.276-16.824zm166.816 44.3a42.157 42.157 0 0 1-3.071 3.609c-2.812 2.56-5.553 5.128-7.028 8.772a6.554 6.554 0 0 1-1.779 2.447c-4.217 3.54-8.294 7.305-12.84 10.376a10.891 10.891 0 0 1-12.337.2 49.616 49.616 0 0 0-5.04-2.6c-5.285-2.386-7.028-8.858-3.376-13.864 3.8-5.214 8.494-8.147 14.94-8.338l25.257-.84c1.38-.042 2.768.114 5.275.236zm-156 49.02c2.42-1.587 4.815-3.245 7.375-4.6l20.562-10.567c1.545-.772 3.462-.9 4.85-1.865a41.209 41.209 0 0 0 7-5.848c2.395-2.586 4.867-4.312 8.572-4.52 2.7-.147 5.3-1.4 8.017-1.865 5.188-.885 8.745 2.247 8.728 7.53a10.689 10.689 0 0 1-.321 3.462c-2.464 7.036-5.275 13.925-10.6 19.4a7.477 7.477 0 0 1-2.985 1.657c-7.348 2.395-14.628 5.058-22.107 6.915-4.884 1.215-10.073 1.24-15.13 1.8-.008-.12-.026-.243-.035-.364a16.568 16.568 0 0 0-2.628.017c-5.952.963-9.007-3.158-12.112-7-1.172-1.457-.834-3.1.814-4.156zm-2.8-4.928a49.721 49.721 0 0 1-6.7 1.978c-3.123.6-6.316.877-10.3 1.406l-11.253-2.256c-4.3-.9-8.172-6.325-7.045-12.528a5.018 5.018 0 0 1 2.3-2.89 9.934 9.934 0 0 1 4.182-1.11 43.207 43.207 0 0 0 14.637-4.1c5.284-2.386 10.732-4.45 15.834-7.167 4.347-2.3 8.25-5.413 12.45-8.008 3.636-2.238 6.993-4.633 11.878-4.58l12.112.173c4.407.087 7.3 3.3 6.507 7.765a58.824 58.824 0 0 1-3.175 10.29c-.347.92-1.658 1.5-2.586 2.152-4.65 3.2-9.206 6.568-14.03 9.474a53.837 53.837 0 0 1-9.188 3.9c-5.18 1.915-10.402 3.7-15.634 5.498zm-82.2-46.07q6.9-12.638 13.84-25.256l5.5-10.394a40.827 40.827 0 0 1 11.531-14c4.008-3.115 7.27-7.2 11.365-10.186 7.028-5.12 14.4-9.787 21.725-14.48 1.987-1.276 4.2-2.76 7.418-1.1-.868 1.605-1.587 3.106-2.464 4.5-.755 1.232-1.96 2.238-2.5 3.54-2.7 6.524-7.236 11.92-10.733 17.95-4.5 7.792-10.507 14.63-14.3 22.906-1.3 2.845-3.7 5.2-5.6 7.774a77.785 77.785 0 0 0-9.292 16.233 14.513 14.513 0 0 1-3.028 4.156c-1.84 1.925-3.583 3.817-4.234 6.515a6.5 6.5 0 0 1-1.205 2.3l-7 8.885-14.264 17.058c-1.952 2.35-1.943 3.313-.2 5.83.08.12.2.225.278.338 1.978 2.793 1.935 4.694-.13 5.9-1.648.963-4.85-.243-5.718-2.646a28.458 28.458 0 0 1-1.891-8.468 33.667 33.667 0 0 1 1.9-13.682l8.3-21.6a17.122 17.122 0 0 1 .683-2.056zm329 170.113c4.477 3.245 8.58 7 13.136 10.117a132.379 132.379 0 0 0 21.127 12.2c3.175 1.4 6.064 3.53 9.327 4.6 8.98 2.932 17.412 7.33 26.818 9.2 4.05.807 7.938 2.612 12.215 2.638.512 0 1.024.468 2.152 1.04-4.13 3.306-7.94 6.212-12.606 7.9-3.28 1.2-6.612 2.273-9.77 3.722a63.308 63.308 0 0 1-25.429 5.449c-7.844.173-15.67 1-23.5 1.5a18.191 18.191 0 0 1-2.177.053l-15.7-.773-33.915-2.6c-9.266-.807-18.576-1.3-27.78-2.56-12.97-1.77-25.83-4.338-38.792-6.108-7.157-.972-13.63-4.156-20.614-5.492l-33.924-6.047c-4.3-.755-8.606-1.457-12.936-2.013-3.6-.45-7.28-.382-10.837-1.04-6.715-1.25-13.36-2.9-20.05-4.3-10.984-2.3-22-4.043-33.3-4.078-4.026-.017-8.052-1.058-12.06-1.7-2.724-.442-5.423-1-8.138-1.518l-41.984-8.06-31.2-6.368c-4.12-.8-8.363-.964-12.536-1.562-5.735-.824-11.522-.937-17.275-2.1a123 123 0 0 0-33.047-2.126 12.418 12.418 0 0 0-5.024 1.363c-2.143 1.162-3.253.164-4.373-1.363-.25-.347-.373-.8-.633-1.145-2.707-3.722-3.462-8.693-7.436-11.635a3.209 3.209 0 0 1-1.006-1.917c-.668-4.078-3.47-6.95-5.535-10.264-3.384-5.44-6.76-10.9-9.77-16.536a31.76 31.76 0 0 0-6.447-8.147c-2.768-2.612-5.37-5.3-6.54-9.1-.86-2.8-2.717-5.015-4.564-7.288-3.957-4.885-7.445-10.16-11.53-14.915l-.27-.564-3.462-5.7c-.06-.2-.13-.4-.182-.6-.052.01-.1.01-.156.018l-68.18-112.383 62.468 2.508c0 .616 7.557.408 9.388.373l1.718.07-.1-.044 1.458.06 59.2 2.733c7.236.034 14.472 1.214 21.707 1.935 4.478.442 8.937 1.18 13.43 1.422 8.138.452 16.294.6 24.44.93 4.113.164 5.275 1.77 3.644 5.657-2.143 5.084-4.234 10.3-7.175 14.914a70.59 70.59 0 0 0-8.173 18.723c-1.258 4.373-1.015 9.205-1.25 13.847-.2 4.078-.426 8.234 1.492 12.034a55.009 55.009 0 0 0 4.312 7.479c2.117 2.95 2.143 4.824-.66 7.054a76.411 76.411 0 0 0-12.78 13.04 25.914 25.914 0 0 1-4.9 4.3l-14.22 10.8a13.184 13.184 0 0 0-2.065 2.6c2.04 2.4 4.26 1.848 6.247 1.04 4.295-1.762 8.45-3.835 12.72-5.657 5.9-2.5 11.74-5.17 17.786-7.2 3.236-1.093 6.855-1.2 10.325-1.423 4.26-.286 5.084-1 4.2-4.963a17.8 17.8 0 0 1 1.154-11.522c1.06-2.377 1.76-4.92 2.846-7.3.877-1.926 2.395-2.864 4.642-1.987a24.254 24.254 0 0 0 2.967.763c5.145 1.285 7.522.313 10.02-4.485 1.674-3.22 3-6.62 4.642-9.865a17.242 17.242 0 0 1 2.915-4.286c2.542-2.585 4.7-2.308 6.8.746a15.17 15.17 0 0 1 1.466 3.132l3.2 8.572c1.64 4.087 4.85 6.178 8.928 7.67 5.84 2.134 11.93 2.542 17.968 3.306a7.82 7.82 0 0 1 6.29 3.912c2.586 4.044 6.9 6.3 11.28 7.8a29.373 29.373 0 0 0 20.554-.339c1.63-.624 3.383-.937 4.954-1.666 4.382-2.04 8.728-3.1 13.413-.893 3.566 1.674 7.167.338 10.733-.278l9.023-1.536c3.583-.7 7.1-1.613 10.056-3.982a7.55 7.55 0 0 1 3.384-1.883c4.346-.512 8.467.9 13.23 1.4-.747 1.38-.963 2.317-1.553 2.76-5.9 4.468-11.4 9.448-17.822 13.318-4.442 2.672-8.172 6.524-12.224 9.83a5.083 5.083 0 0 0-1.744 5.136c.65 3.827.53 7.887 3.2 10.958l-3.8 7.123q-3.227 6.495 1.458 11.7a45.531 45.531 0 0 0 4.251 4.321 20.531 20.531 0 0 0 9.64 4.581 60.844 60.844 0 0 0 25.126-.1c3.08-.686 5.423.14 7.123 2.845a16 16 0 0 0 11.3 7.5l19.78 3.254a27.532 27.532 0 0 0 5.657-.217c2.325-.147 4.685-.676 6.95-.416 1.908.217 4.312.815 5.465 2.134 4.017 4.6 9.345 5.744 14.863 6.394a98.286 98.286 0 0 0 14.8.885c7.115-.225 14.22-.937 21.3-1.7a114.178 114.178 0 0 0 11.54-2.152c3.235-.7 5.8.13 7.6 2.916 5.426 8.4 13.452 13.93 21.338 19.65zm543.032-104.044c-.112 4.64-.6 9.283-.963 13.916a8.973 8.973 0 0 1-.676 2.534c-3.636 8.9-5.588 18.3-7.948 27.573-.555 2.186-2 4.13-2.793 6.263-1.215 3.254-2.3 6.57-3.314 9.892-2.5 8.025-1.693 16.423-2.682 24.614a19.707 19.707 0 0 1-1.561 6.238 6.186 6.186 0 0 1-3.54 2.881 115.614 115.614 0 0 1-13.6 2.854c-7.766 1.093-15.6 1.657-23.365 2.82a46.96 46.96 0 0 0-10.429 3.071l-28.63 12a114.212 114.212 0 0 1-23.461 6.742l-23.2 4.1a101.939 101.939 0 0 1-12.156 1.119c-11.07.4-22.175.2-33.2 1.067-6.446.52-12.763-.312-19.13-.13-2.464.07-4.92.45-7.384.607a27.935 27.935 0 0 1-3.912-.052c-2.022-.14-4.052-.364-6.074-.564l-22.983-2.36a143.61 143.61 0 0 1-14.689-1.953c-8.528-1.83-16.96-4.112-25.447-6.194l-18.22-4.46-40.023-10.932c-10.888-3.228-21.578-7.106-32.353-10.707a8.352 8.352 0 0 1-2-.841c-6.517-4.382-14.186-5.917-21.37-8.6a135.844 135.844 0 0 1-21.82-9.935c-4-2.377-7.87-5.006-11.835-7.46-3.175-1.97-3.253-2.177-1.605-5.882a4.578 4.578 0 0 0 .113-1.18 11.742 11.742 0 0 0-2.776-.3l-21.578 3.132a5.243 5.243 0 0 1-2.169.06c-4.7-1.44-9.214.417-13.812.608a137.226 137.226 0 0 1-15.7-.226c-5.934-.425-11.86-1.206-17.75-2.073-3.115-.46-6.36-.92-9.2-3.8l5.093-5.995a4.374 4.374 0 0 0-4.633.156l-35.494 18.012a88.008 88.008 0 0 1-24.371 8.216c-6.447 1.12-12.9 2.238-19.418 2.915a147.057 147.057 0 0 1-16.129.581c-1.813-.008-3.653-.92-5.423-1.553-2.68-.963-4.468-2.715-4.545-5.77-.087-3.262.7-5.952 3.92-7.652a103.067 103.067 0 0 1 26.7-9.336 18.24 18.24 0 0 0 3.357-.885c6.16-2.646 12.38-5.18 18.394-8.13 4.295-2.1 8.32-4.755 12.415-7.245 2.985-1.814 5.9-3.74 8.806-5.683l10.43-7.124c.313-.216.426-.7.78-1.327-.7-.33-1.37-.937-1.883-.824a15.319 15.319 0 0 0-4.1 1.432l-35.893 19.9a123.419 123.419 0 0 1-22.168 9.2c-5.874 1.7-11.73 3.3-17.3 5.787-2.9 1.292-5.805 2.55-7.765 5.4a6.17 6.17 0 0 1-3.67 2.082c-10.672 2.056-21.36 2.55-32.015-.156a8.237 8.237 0 0 1-5.241-3.592c-1.1-1.675-1.076-3.14.13-4.33a30.349 30.349 0 0 1 5.119-3.886c2.178-1.4 4.5-2.55 6.742-3.835.5-.287.928-.816 1.457-.946 6.256-1.5 11.062-5.735 16.494-8.8a17.013 17.013 0 0 1 1.978-.928c4.572-1.83 9.388-2.95 13.4-6.195 1.935-1.57 4.92-1.753 7.2-2.985 7.557-4.1 15.027-8.364 22.5-12.632 4.173-2.386 8.4-4.712 12.363-7.418 4.32-2.95 8.425-6.23 12.5-9.5 2.377-1.9 4.6-4.052 6.776-6.187a15.484 15.484 0 0 0 5.04-9.153 5.5 5.5 0 0 0-5.24 2.872c-2.152 3.488-5.448 5.613-8.572 8l-10.03 7.712a66.133 66.133 0 0 1-7.669 5.041l-23.218 12.12-26.8 13.778c-2.992 1.5-6.133 2.724-9.187 4.1q-9.54 4.306-19.053 8.65c-.66.3-1.32.893-1.98.893-4.9-.008-8.7 3.14-13.1 4.434-4.7 1.388-9.744 1.675-14.472 3-5.024 1.405-9.5-.156-14.1-1.5-3.956-1.17-5.76-3.618-5.952-7.634-.434-8.963-.295-8.954 7.835-12.833 5.25-2.5 10.264-5.483 15.426-8.155l15.6-7.913c3.115-1.675 6.507-3 9.813-6.238-1.64 0-2.5-.243-3.1.035-11.254 5.12-23.236 8.66-33.655 15.66a13.959 13.959 0 0 1-7.419 2.065c-4.364 0-5.865-3.167-4.4-7.193 1.405-3.826 4.936-5.214 7.7-7.374 3.766-2.924 8.086-5.137 11.964-7.93 3.176-2.282 6.013-5.033 9.085-7.47 2.5-1.978 5.223-3.687 7.687-5.717 2.446-2.013 4.572-4.433 7.053-6.4 6.74-5.362 12.945-11.28 19.13-17.274 6.047-5.848 12.684-11.08 19.044-16.615 2.96-2.577 5.735-5.4 8.84-7.8 4.816-3.722 9.865-7.14 14.758-10.776 4.3-3.2 8.642-6.386 12.737-9.847a74.914 74.914 0 0 1 17.83-11.67 46.49 46.49 0 0 0 7.608-4.3c5.9-4.094 12.45-4.12 18.82-2.35 10.8 2.985 21.508 6.4 32.067 10.177a40.7 40.7 0 0 1 11.244 6.647c4.868 3.843 10.42 6.368 15.87 9.05 10.75 5.3 21.257 10.958 31.035 17.934l22.766 16.163c3.392 2.5 6.533 5.388 8.494 9.275.764 1.5 1.84 2.785 3.653 2.742 3.245-.08 5.4 1.822 7.6 3.765.9.807 1.9 1.535 3.175 2.56 1.032-4.407-2.577-5.2-5-7.548a51.142 51.142 0 0 1 14.706 2.872 28.658 28.658 0 0 0 9.812 1.284 101.43 101.43 0 0 1 15.652 1.05 131.88 131.88 0 0 0 23.964 1.284 24.12 24.12 0 0 0 4.72-.859 88.258 88.258 0 0 1 19.816-2.186 119.416 119.416 0 0 0 17.8-1.6c9.04-1.354 18-3.28 27.043-4.685 5.883-.9 11.843-1.3 17.77-1.97l30.765-3.392c4.92-.5 9.865-.7 14.8-1.04a3.16 3.16 0 0 0 .868-.035c6.54-2.43 13.292-1.145 19.868-.694 7.93.555 15.973.92 23.443 4.442a31.043 31.043 0 0 0 8.46 2.057 26.519 26.519 0 0 1 10.029 4.077c6.7 4.165 13.77 6.976 22.185 4.9l-5.65-2.994-8.6-4.26c-2.716-1.38-5.353-2.94-8.13-4.173-2.195-.98-3.7-2.35-3.982-4.763-.217-1.874 1.535-4.2 4.242-5 3.332-.98 6.82-1.45 10.22-2.23 10.108-2.308 20.415-2.846 30.7-3.644 3.766-.295 7.5-.92 11.253-1.37 1.154-.138 2.317-.25 3.48-.3a100.114 100.114 0 0 0 19.444-2.238c3.34-.8 6.967-.33 10.463-.452l22.255-.772c2.888-.052 5.778.625 8.676.73 4.954.182 9.908.277 14.8-.9a27.244 27.244 0 0 1 6.056-.685l20.5-.034c4.4.016 5.553 1.127 6.915 5.144 2.75 8.12 3.453 16.494 3.47 24.98v19.28zM644.622 339.148c-1.732-.04-3.784-.66-5.3-.01-4.248 1.832-8.6 3.73-12.3 6.434-6.436 4.693-12.43 9.995-18.577 15.08a15.576 15.576 0 0 0-3.081 3.09 10.551 10.551 0 0 0-1.9 4.291 31.471 31.471 0 0 0 .044 6.988c.272 2.827 1.2 3.724 4.1 4.105a4.29 4.29 0 0 1 3.247 1.776 29.808 29.808 0 0 0 3.9 3.646c1.24 2.373-.624 3.755-1.663 5.395-2.57 4.057-5.475 7.9-7.9 12.048a29.364 29.364 0 0 0-2.439 6.968c-.208.745-.055 2.2.383 2.415 2.45 1.2 2.542 3.43 3.312 5.606a7.316 7.316 0 0 0 4.227 3.933c1.907.594 2.725-1.588 3.424-3.255.616-1.467 1.125-3.272 2.274-4.167 4.023-3.135 5.6-7.75 7.8-11.98 2.253-4.36 1.54-5.652-3.307-6.976-.22-.06-.36-.417-.673-.8 1.3-2.6 2.785-5.218 3.958-7.976a5.163 5.163 0 0 0 .216-3.625c-.7-1.638-2.4-1.308-3.85-.933-1.24.32-2.525 1.065-3.537-.8a63.56 63.56 0 0 1 5.312-6.15c3.546-3.22 7.36-6.146 11.047-9.214 1.872-1.557 3.282-3.493 2.813-6a5.774 5.774 0 0 1 .358-3.615 6.867 6.867 0 0 1 .761-1.269 3.187 3.187 0 0 0 .273-3.629c-1.358-2.9-.787-4.158 1.968-5.575a16.958 16.958 0 0 1 2.454-.919c2.08-.7 3.124-2 2.666-4.9zm-159.767 99.796a10.562 10.562 0 0 0 2.552 1.616c4.112 1.895 7.454.156 10.282-2.628 4.464-4.4 8.7-9.014 13.07-13.515a6.041 6.041 0 0 1 2.012-1.609 32.542 32.542 0 0 0 11.6-7.372 77.043 77.043 0 0 1 13.791-9.881c7.306-4.384 15.185-6.433 23.766-4.106a14.812 14.812 0 0 0 4.74.455 3.522 3.522 0 0 0 3.337-2.983 3.117 3.117 0 0 0-1.724-3.66 12.16 12.16 0 0 0-3.557-1.577c-2.577-.408-5.206-.48-7.813-.692-5.928-.807-11.225 1.6-16.616 3.305-10.728 3.388-21.18 7.338-29.686 15.15a39.744 39.744 0 0 1-7.558 5.892c-6.742 3.663-12.226 8.907-18.12 13.64-3.254 2.62-3.243 5.18-.078 7.965zm436.717 598.678c-.08-.04-.244.1-.653.285.665 2.88 2.7 3.8 5.04 4.445 10.088 2.8 20.195 2 30.22-.105 5.363-1.127 10.532-3.153 15.86-4.48l30.97-7.33c.84-.2 1.75-.082 2.6-.217 4.162-.65 8.345-1.2 12.47-2.04 6.246-1.27 12.412-2.96 18.683-4.08 4.993-.9 10.1-1.122 15.14-1.788a32.025 32.025 0 0 1 9.5.018c1.94.32 3.252 1.174 3.66 3.17l.473 2.255.833.137 2.432-5.254a42.675 42.675 0 0 0-5.118-3.623c-4.4-2.23-9.293-2.33-14.045-2.375-4.038-.037-8.077 1.076-12.127 1.176-8.942.22-17.583 2.377-26.255 4.065-12.12 2.358-24.076 5.574-36.1 8.423-11.872 2.812-23.473 6.78-35.693 8.123-6.04.663-12.042 1.984-17.9-.807z"/><path d="M540.617 471.477c2.763-2.12 4.968-5 7.82-6.96 6.916-4.752 11.38-11.572 15.975-18.264 1.34-1.95 3.064-4.4.786-7.515-3.273 1.665-5.987 3.42-7.484 6.374-3.664 7.23-10.644 10.738-17.052 14.456-5.672 3.3-12.05 5.8-19.012 5.537a11.292 11.292 0 0 0-3.393.744c-4.282 1.24-5.526.915-8.253-2.614-.97-1.254-1.6-2.762-2.486-4.092-.843-1.27-1.807-2.46-2.83-3.84-6.343 4.25-2.5 9-1.4 13.37a36.511 36.511 0 0 0-2.557 3.717c-1.486 2.843-.662 4.43 2.406 4.96q2.363.4 4.722.844c2.664.487 5.07 1.184 5.808 4.386.4 1.714 2.055 2.16 3.54 1.74 3.355-.948 6.932-1.644 9.886-3.36a129.632 129.632 0 0 0 13.534-9.485zM931.96 1011.16l2.263-2.06c4.646-4.194 9.076-8.78 16.023-8.808a3 3 0 0 0 1.229-.432c5.73-2.9 11.593-5.552 17.15-8.743a133.914 133.914 0 0 1 31.674-13.4c10.517-2.85 21.03-5.658 32.024-6.487 6.07-.458 12.1-1.484 18.235-1.492a92.861 92.861 0 0 0 9.461-.931q-.018-.5-.034-1a34.385 34.385 0 0 0-13.418-2.985 81.7 81.7 0 0 0-11.623.538c-6.794.618-13.617 1.124-20.348 2.184-12.6 1.985-24.35 6.92-36.325 11.05-6.782 2.34-12.952 5.928-19.122 9.5-7.543 4.38-15.227 8.533-22.585 13.2-2.6 1.65-4.52 4.442-6.555 6.876-1.177 1.4-.616 2.66.918 3.35a3.874 3.874 0 0 0 1.032-.371zM575.932 545.625a8.465 8.465 0 0 0-1.581-.724l-8.458-3.374c-3.715-1.332-7.5-2.47-11.533-1.943-2.682.35-5.08 2.66-4.92 4.835l2.107 2.8c-2.917 5.566-7.736 8.7-12.015 12.377a25.866 25.866 0 0 1-9.964 5.267 14.309 14.309 0 0 0-2.429.978c-8.083 4.012-16.155 7.788-25.267 9.288-6.72 1.106-13.2 3.454-20.2 3.038a6.181 6.181 0 0 0-3.842 1.58c-2.016 1.7-1.8 3.8.57 4.85a10.83 10.83 0 0 0 5.422.948 93.388 93.388 0 0 0 11.908-2.315c5.2-1.35 10.366-2.823 15.415-4.618 4.656-1.656 9.018-4.178 13.717-5.66 9.8-3.095 18.086-8.555 25.748-15.2 3.185-2.762 6.5-5.383 9.834-7.964 1.96-1.516 4.163-2.18 6.482-.666 3.052 1.993 5.95.086 8.833-.46 1.517-.286 1.523-2.127.172-3.036zm80.02-121.125c.4 2.426 2.077 3.5 4.37 2.667a3.89 3.89 0 0 0 2.6-4.11l-.007-9.37c4.18.083 4.276.016 6.652 3.393 1.153 1.64 2.56 1.74 4.2 1.46a3.136 3.136 0 0 0 2.675-3.035c.722-6.216-6.062-13.378-12.4-13.14-4.42.167-4.58.013-4.587-4.476 0-.583 0-1.167.035-1.75.356-6.474 8.355-11.553 14.452-9.3 2.953 1.1 4.7 3.32 6.232 5.84.893 1.472 1.83 2.687 3.828 1.78 1.857-.843 1.9-2.446 1.692-4.08-.463-3.835-5.084-9.56-8.768-10.1-5.048-.728-10.222-1-14.944 1.6a14.075 14.075 0 0 0-3.627 2.965c-5.656 6.38-6.787 13.888-5.34 22.03l2.947 17.606zM544.28 576.8c-1.692-.92-2.843.33-3.7 1.452-2.25 2.953-5.628 4.08-8.746 5.57a45.059 45.059 0 0 1-6.938 2.4c-2.918.843-5.863 1.628-8.84 2.23-2.557.52-5.18.7-7.76 1.12-1.858.3-3.357 1.2-3.573 3.263-.155 1.475 1.433 2.664 3.78 2.8 2.45.153 4.927 0 7.366.237 5.094.5 6.072 1.316 6.02 6.006v.875h-.04a3.793 3.793 0 0 0 .01.873c.324 1.33.26 3.242 1.117 3.854 1.65 1.182 3.373.018 4.535-1.4 2.154-2.646 5.2-2.907 8.22-3.468a30.432 30.432 0 0 0 5.865-1.6c3.246-1.32 3.925-2.4 3.127-5.73-1.086-4.524-1.357-8.913.5-13.283a3.547 3.547 0 0 0 .242-1.282c.033-1.427.398-3.055-1.186-3.917zm-60.138-13.132a22.612 22.612 0 0 0 10.356-4.179 13.254 13.254 0 0 1 7.268-2.314c6.545 0 11.646-3.085 16.55-6.748a10.969 10.969 0 0 0 2.98-3.693c1.367-2.644.048-5.025-2.913-5.4a8.4 8.4 0 0 0-3.872.289 34.61 34.61 0 0 0-7.461 3.509c-5.6 3.88-10.94 8.155-16.52 12.082a12.986 12.986 0 0 1-5.512 2.287c-4.7.622-9.295.2-13.288-2.888a15.792 15.792 0 0 0-4.143-2.393c-1.117-.406-2.98-.72-3.575-.13a5.182 5.182 0 0 0-1.13 3.879 5.919 5.919 0 0 0 4.956 5.419c3.412.634 6.878.975 10.32 1.446 1.993-.396 3.972-.897 5.98-1.174zm106.633-36.283c-1.9-2.225-4.468-2.44-6.037-.64-1.243 1.426-.714 4.13 1.018 5.748a10.539 10.539 0 0 1 2.5 2.855 37.614 37.614 0 0 1 3.757 18.5 33.419 33.419 0 0 0 .421 4.463c2.886-2.435 2.8-2.445 3.06-4.8.87-7.965-1.208-15.547-3-23.158a7.594 7.594 0 0 0-1.728-2.969zm30.397-76.985a9.339 9.339 0 0 0-1.137 2.561l-1.75 17.774c-.347 4.784-.484 9.558-2.314 14.1a28.407 28.407 0 0 0-.97 4.565c2.84-1.443 3.53-3.75 3.907-5.934 1.105-6.43 1.984-12.9 2.852-19.374.48-3.6.74-7.223 1.146-10.83.142-1.25.08-2.3-1.733-2.862zm-112.805 70.692c-1.878.264-3.67.6-4.886 3.077a15.988 15.988 0 0 0 3.634 1.274 23.07 23.07 0 0 1 11.261 4.141c1.467 1.005 2.813 1.62 4.1-.152a2.873 2.873 0 0 0-1.061-4.445c-4.072-2.1-8.1-4.587-13.048-3.895zm-21.062 587.132c-5.366 1.865-9.277 5.78-13.838 8.736-5.82 3.77-11.174 8.247-16.9 12.15-5.284 3.6-10.808 6.842-16.23 10.234-3.9 2.44-7.914 4.74-10.96 8.72 2.72 1.022 4.5-.228 6.34-1.388l26.608-16.624c3.192-2.014 6.3-4.163 9.382-6.346l16.9-12.136c3.5-2.482 7.127-4.8 9.806-9.42a15.445 15.445 0 0 0-3.071.957c-2.694 1.694-5.112 4.105-8.025 5.118zm325.16 101.853a92.662 92.662 0 0 0-11.441-7.137c-4.972-2.605-10.178-4.762-15.282-7.112q-.317.37-.63.74c.137.375.163.933.43 1.1q4.453 2.72 8.976 5.33c2.9 1.667 6.027 3 8.72 4.948 7.774 5.62 15.53 11.1 24.55 14.776a38.638 38.638 0 0 0 19.895 2.412c-2.922-.8-5.946-1.077-8.84-1.853-9.678-2.594-18.296-7.33-26.375-13.202zm49.23 14.093a57.169 57.169 0 0 1-9.741-5.6 75.121 75.121 0 0 1-9.406-8.409c-4.916-5.114-11.308-7.494-17.6-10.1a12.147 12.147 0 0 0-2.617-.468 6.147 6.147 0 0 0 2.639 3.05 97.526 97.526 0 0 1 22.62 16.712 29.649 29.649 0 0 0 7.384 5.151 118.182 118.182 0 0 0 12.724 5.492c4.017 1.477 8.194 2.517 12.3 3.75l.423-1.256c-1.58-.5-3.45-.617-4.692-1.562-4.25-3.237-9.337-4.557-14.034-6.76zm103.535-107.184c-7.7-4.007-16.138-4.474-24.622-4.286-.5.01-1 .72-2.062 1.534 1.513.474 2.38.828 3.28 1.013a49.057 49.057 0 0 1 6.4 1.237c5.474 1.925 10.886 4.038 16.267 6.215a20.3 20.3 0 0 1 5.3 2.945c2.36 1.945 5.093 2.535 8.14 2.85a31.6 31.6 0 0 0-12.703-11.509zm-81.8 95.868a103.6 103.6 0 0 0-13.1-7.021c-3.76-1.7-7.8-2.746-11.734-4.083 1.45 1.486 3.226 2.077 4.863 2.932 3.733 1.948 7.5 3.87 11.068 6.088 4.907 3.047 9.638 6.374 14.465 9.55 5.37 3.534 11.4 5.762 17.137 8.56 2.594 1.264 5.267 2.532 8.294 1.768l.4-1.014c-1.855-1.034-3.666-2.162-5.574-3.088-8.774-4.254-17.567-8.434-25.82-13.694zm37.05-2.838c-3.687-2.3-7.242-4.8-11-6.983-3.126-1.82-6.562-3.118-9.638-5.008-2.032-1.25-3.978-1.57-7.362-.976l4.545 2.45c5.585 3.04 11.55 5.3 16.493 9.608a125.309 125.309 0 0 0 13.775 9.835 67.329 67.329 0 0 0 8.469 4.438 6.478 6.478 0 0 0 5.825-.2c-1.5-1.02-2.412-1.686-3.367-2.275l-17.75-10.9zm-152.74-10.63c-4.145-2.7-8.373-5.255-12.614-7.8a12.282 12.282 0 0 0-2.821-.876l-.328.86c1.224.97 2.406 2 3.68 2.9l16.683 11.7c4.358 2.885 8.894 5.52 13.476 8.04 1.823 1 3.857 2.055 6.113 1.432l.435-1.082c-2.77-1.44-5.657-2.695-8.283-4.362-5.515-3.498-10.86-7.266-16.34-10.82zm174.678 1.053c-1.984 2.394-1.982 2.858.338 4.22a358.78 358.78 0 0 0 10.954 6.2 11.044 11.044 0 0 0 5.757 1.307c-4.332-6.078-11.054-8.066-17.05-11.718zm-291.417-14.688c8.12-3.18 12.38-10.718 9.1-16.878a40.188 40.188 0 0 1-9.1 16.878zM833.37 798.668a3.761 3.761 0 0 0 1.158-1.426 60.236 60.236 0 0 0 2.751-9.119l1.353-6.776 1.64-6.35c2.412-7.895 4.3-15.912 7.47-23.6 2.638-6.43 3.827-13.474 6.733-19.755 3.453-7.445 5.7-15.522 10.845-22.168a11.977 11.977 0 0 0 1.154-2.82c2.82-6.845 5.163-13.96 10.724-19.3a17.973 17.973 0 0 0 1.97-2.881c3.5-5.067 5.925-10.984 11.348-14.567a6.7 6.7 0 0 0 1.206-1.267c4.928-5.587 10.273-10.6 17.56-13.04 1.327-.443 3.08-.6 3.218-2.48.148-2.083-1.84-2.465-3.115-3.237a5.225 5.225 0 0 0-2.863-.347 13.279 13.279 0 0 0-9.092 4.625c-1.38 1.475-3.185 2.56-4.573 4.026-4.66 4.945-10.3 9-13.5 15.278q-1.207 2.373-2.48 4.705l-.368.68q-1.22 2.226-2.506 4.413-.235.4-.472.8-1.3 2.2-2.664 4.343l-.4.622a153 153 0 0 1-4.877 7.167c-2.247 3.106-3.393 7-5.032 10.56l-6 13.022c-1.987 4.52-3.948 9.06-5.727 13.665-2.1 5.415-4.043 10.9-5.96 16.364-1.345 3.826-2.577 7.687-3.774 11.556-1.293 4.165-2.638 8.32-3.7 12.546-1.275 5.058-2.447 10.16-3.323 15.3a37.122 37.122 0 0 0-.451 4.4l-.252 5.45.97.538c.307-.325.67-.62 1.02-.924zm24.27 74.5c-2.273 5.336.894 17.656 5.657 22.038 1.926-.512 3.653-1.362 3.158-3.792-1.38-6.804-2.707-13.665-8.815-18.246zM532.47 190.04a209.344 209.344 0 0 0-43.111 1.794 74.3 74.3 0 0 0-12.743 2.26 205.487 205.487 0 0 0-48.421 16.59 307.285 307.285 0 0 1 86.876-14.036l78.806 2.95c-19.057-5.962-41.194-8.518-61.18-9.2z"/></g></svg>