<?xml version="1.0" encoding="utf-8"?>
<!-- Generator: Adobe Illustrator 23.0.5, SVG Export Plug-In . SVG Version: 6.00 Build 0)  -->
<!DOCTYPE svg PUBLIC "-//W3C//DTD SVG 1.1//EN" "http://www.w3.org/Graphics/SVG/1.1/DTD/svg11.dtd" [
	<!ENTITY ns_extend "http://ns.adobe.com/Extensibility/1.0/">
	<!ENTITY ns_ai "http://ns.adobe.com/AdobeIllustrator/10.0/">
	<!ENTITY ns_graphs "http://ns.adobe.com/Graphs/1.0/">
	<!ENTITY ns_vars "http://ns.adobe.com/Variables/1.0/">
	<!ENTITY ns_imrep "http://ns.adobe.com/ImageReplacement/1.0/">
	<!ENTITY ns_sfw "http://ns.adobe.com/SaveForWeb/1.0/">
	<!ENTITY ns_custom "http://ns.adobe.com/GenericCustomNamespace/1.0/">
	<!ENTITY ns_adobe_xpath "http://ns.adobe.com/XPath/1.0/">
]>
<svg version="1.1" id="Layer_1" xmlns:x="&ns_extend;" xmlns:i="&ns_ai;" xmlns:graph="&ns_graphs;"
	 xmlns="http://www.w3.org/2000/svg" xmlns:xlink="http://www.w3.org/1999/xlink" x="0px" y="0px" viewBox="0 0 1198 1310.9"
	 style="enable-background:new 0 0 1198 1310.9;" xml:space="preserve">
<style type="text/css">
	.st0{fill:#F8A475;}
	.st1{fill:#373737;}
</style>
<metadata>
	<sfw  xmlns="&ns_sfw;">
		<slices></slices>
		<sliceSourceBounds  bottomLeftOrigin="true" height="1310.9" width="1198" x="2651" y="-3504.4"></sliceSourceBounds>
	</sfw>
</metadata>
<g>
	<path class="st0" d="M49,839.9c-0.2,0.2-0.4,0.4-0.6,0.6c2.7,14,5.8,27.8,9.5,41.3c0.3-0.5,0.7-1,1-1.5L49,839.9z"/>
	<path class="st0" d="M66.3,910L66.3,910C66.3,910,66.3,910,66.3,910L66.3,910z"/>
	<path class="st0" d="M67.2,805.1c5.6-6.4,10.4-13.1,16.8-18.1c12.4-9.6,23.2-18.4,36.2-27.5c9.5-6.7,21.4-12.1,32.8-16.4
		c1.3-0.5,2.6-1.1,4.3-2c2.6-1.3,5.1-2.7,7.7-4.1c0.6-0.3,1.3-0.7,1.9-1c2.4-1.3,4.8-2.6,7.1-3.9c0,0,0,0,0,0
		c-13.4-4.9-31.3-11.3-31.3-11.3c-9-3.6-16.9-7.5-22.7-15.3c-3.8-5.2-7.2-10.4-10.2-16.1c-0.7-1.3-1.3-2.6-1.9-3.9
		c-0.6-1.3-1.1-2.6-1.6-3.9c-2.9-7.8-4.1-15.6-4.1-23.8c0-4.9,0.5-10,1.4-15.2c0.5-3.3,1.7-6.3,1.8-9.4c0-1.1-0.1-2.1-0.4-3.3
		c-2.5-3.5-6.4-4.4-10.3-5.1c-13.9-2.5-26.5-6.9-38.4-14.2c0,0,0,0,0,0c-1.7-1.1-3.5-2.2-5.2-3.3c0,0,0,0,0,0
		c-8.7,39.9-13.2,81.3-13.2,123.8c0,33.7,2.9,66.6,8.4,98.7c3.9-5,7.8-9.7,12.5-14.3C62.7,811.8,64.3,808.5,67.2,805.1z"/>
	<path class="st0" d="M201,1133.5l-20.4-22.5c0,0-0.1,0-0.1,0c-0.1,0.1-0.2,0.1-0.3,0.2c6.7,7.7,13.5,15.2,20.6,22.5c0,0,0,0,0,0
		C200.8,1133.6,200.9,1133.5,201,1133.5z"/>
	<path class="st0" d="M343,1241.7c-0.5-0.3-1-0.6-1.5-0.8c0,0,0,0,0,0C342,1241.1,342.5,1241.4,343,1241.7z"/>
	<path class="st0" d="M332.9,1236c0.8,0.4,1.5,0.9,2.3,1.3c0,0,0,0-0.1,0C334.3,1236.9,333.6,1236.5,332.9,1236z"/>
	<path class="st0" d="M258.9,1186.4c-0.2-0.2-0.4-0.3-0.6-0.5c1,0.8,2,1.6,3,2.4c-0.7-0.6-1.5-1.1-2.2-1.7
		C259.1,1186.5,259,1186.4,258.9,1186.4z"/>
	<path class="st0" d="M267.8,1193.3c0.4,0.3,0.8,0.6,1.2,0.9C268.6,1193.9,268.3,1193.6,267.8,1193.3
		C267.9,1193.3,267.8,1193.3,267.8,1193.3z"/>
	<path class="st0" d="M243.5,1173.7c0.2,0.2,0.5,0.4,0.7,0.6c-0.2-0.2-0.4-0.4-0.6-0.5C243.5,1173.8,243.5,1173.7,243.5,1173.7z"/>
	<path class="st0" d="M221.1,1153.8c0.7,0.7,1.4,1.3,2.1,2c-0.5-0.5-1-1-1.5-1.4C221.5,1154.2,221.3,1154,221.1,1153.8z"/>
	<path class="st0" d="M274.1,1198c-0.3-0.2-0.5-0.4-0.8-0.6c1.1,0.8,2.2,1.6,3.3,2.4c-0.2-0.2-0.5-0.4-0.7-0.5
		C275.3,1198.8,274.7,1198.4,274.1,1198z"/>
	<path class="st0" d="M235.1,1166.5c-0.5-0.4-1-0.9-1.5-1.3c1.2,1,2.3,2,3.5,3.1c-0.3-0.2-0.5-0.5-0.8-0.7
		C235.9,1167.2,235.5,1166.8,235.1,1166.5z"/>
	<path class="st0" d="M226.6,1158.9c0.7,0.6,1.4,1.2,2,1.8c-0.3-0.3-0.6-0.6-1-0.9C227.4,1159.6,227,1159.2,226.6,1158.9z"/>
	<path class="st0" d="M282,1203.7c-0.3-0.2-0.6-0.4-0.9-0.7c1.1,0.8,2.1,1.5,3.2,2.2c-0.2-0.1-0.3-0.2-0.5-0.4
		C283.2,1204.5,282.6,1204.1,282,1203.7z"/>
	<path class="st0" d="M213.8,1146.8C213.7,1146.7,213.7,1146.7,213.8,1146.8c0.8,0.8,1.7,1.7,2.6,2.5
		C215.5,1148.5,214.7,1147.6,213.8,1146.8C213.8,1146.8,213.8,1146.8,213.8,1146.8z"/>
	<path class="st0" d="M316,1226.2c-0.1,0-0.1-0.1-0.2-0.1c0.9,0.6,1.8,1.1,2.7,1.6c-0.1-0.1-0.2-0.1-0.4-0.2
		C317.4,1227,316.7,1226.6,316,1226.2z"/>
	<path class="st0" d="M308,1221.1c-0.1-0.1-0.2-0.1-0.2-0.2c0.7,0.5,1.4,0.9,2.2,1.4c-0.3-0.2-0.6-0.4-0.9-0.6
		C308.7,1221.6,308.3,1221.4,308,1221.1z"/>
	<path class="st0" d="M372,1256.3c0.6,0.3,1.1,0.5,1.7,0.8c0,0,0,0,0,0C373.1,1256.8,372.6,1256.6,372,1256.3z"/>
	<path class="st0" d="M380.4,1260.2c0.3,0.1,0.6,0.3,0.9,0.4c0,0,0,0,0,0C381,1260.4,380.7,1260.3,380.4,1260.2z"/>
	<path class="st0" d="M386.6,1262.9c-0.5-0.2-1-0.4-1.5-0.7c0,0,0,0,0,0C385.6,1262.5,386.1,1262.7,386.6,1262.9z"/>
	<path class="st0" d="M206.4,1139.5L206.4,1139.5c-0.3-0.3-0.6-0.6-0.9-1C205.8,1138.9,206.1,1139.2,206.4,1139.5
		C206.4,1139.5,206.4,1139.5,206.4,1139.5z"/>
	<path class="st0" d="M431.6,1280.3c0.3,0.1,0.6,0.2,0.8,0.3C432.2,1280.5,431.9,1280.4,431.6,1280.3
		C431.6,1280.3,431.6,1280.3,431.6,1280.3z"/>
	<path class="st0" d="M964.7,664.5C964.7,664.5,964.7,664.5,964.7,664.5C964.7,664.4,964.7,664.5,964.7,664.5c0,2.4,0.1,4.9,0.1,7.3
		c0,0.2,0,0.4,0,0.7c0,2.5,0,4.9,0,7.4c0,0,0,0,0,0C965.5,672.9,965.5,667.5,964.7,664.5z"/>
	<path class="st0" d="M976.7,640.2c0.1-0.2,0.1-0.3,0.1-0.5c0,0,0-0.1,0-0.1c0-0.2,0-0.4-0.1-0.6c0-0.1,0-0.1,0-0.2
		c0-0.2-0.1-0.4-0.2-0.6c0-0.1-0.1-0.2-0.1-0.3c0-0.1-0.1-0.2-0.1-0.3c-0.1-0.2-0.2-0.4-0.3-0.7c0,0,0,0,0,0
		c0.4,1.9,0.7,3.3,0.6,3.4C976.7,640.4,976.7,640.3,976.7,640.2z"/>
	<path class="st0" d="M222.6,364.9c14.8,5.6,28.2,12.8,40.9,22.5c6.5,5,14,8.9,21.2,12.8c11.5,6.4,22.9,13.2,34.7,18.9
		c12.3,6,25.1,11,37.6,16.4c23.4,3,46.3,6,69.9,1.8c9.8-1.7,18.6-5,26.6-11.2c1.8-1.5,4.2-2.5,6.1-3.9c5.5-3.9,11.4-7.4,16.1-12.3
		c4.6-4.8,9-9.6,13.3-14.5c0.8-3.2,3.8-15,14.6-58.2l0-0.2c1-4.2,2.2-8.9,1.8-12.9c-0.6-6.2-4.8-10.9-9.5-15.6l-64.9-65.2
		c-9.7-9.8-20.7-20.9-27.5-35.9c-1.9-4.3-3.4-8.9-4.5-13.7C312.7,229,236.7,284.5,177,354.4c0,0,0,0,0,0
		C192.4,356.8,207.8,359.3,222.6,364.9z"/>
	<path class="st0" d="M896,221.9c-13,26.4-30.3,50.1-47.3,73.2l-1.5,2.1c-9.6,13.1-19,26.2-27.3,39.6c0.2,0.4,0.3,0.8,0.5,1.3
		c0.4,1.1-0.8,2-3,2.8c-13.2,21.8-23.6,44.5-28.3,69.7c-0.5,2.9,0.5,6.4,1.5,10.1c1.1,3.9,2.3,7.9,1.8,11.9c-0.2,1.9-1,6.7-3.5,9.6
		c-0.4,0.4-0.8,0.8-1.2,1.1c0,2.1,0,4.2,0,6.3c0,0.8,0,1.6,0,2.4c0,2,0.1,4.1,0.1,6.1c0,0.9,0,1.9,0.1,2.8c0,1.9,0.1,3.9,0.2,5.8
		c0,1,0.1,2.1,0.1,3.1c0.1,1.9,0.1,3.8,0.2,5.6c0,1.1,0.1,2.3,0.1,3.4c0.1,1.8,0.2,3.6,0.2,5.4c0.1,1.3,0.1,2.5,0.2,3.8
		c0.1,1.7,0.2,3.3,0.3,5c0.1,1.6,0.2,3.3,0.3,4.9c0.1,1.3,0.1,2.6,0.2,3.9c0.2,2.9,0.3,5.8,0.5,8.8c0.4,7.1,1.4,14.1,2.2,21.2
		c0.3,2.7,0.7,5.3,0.9,8c0.6,5.8,1.5,11.7,1.8,17.5c0.3,5.5,0.6,11,1,16.5c1.1,15.5,2.2,30.9,1.9,46.4c-0.3,16.7-2.6,32.8-7.5,48.1
		c0,0.1,0,0.2-0.1,0.2c-0.9,2.9-1.9,5.7-3,8.5c-4.1,10.5-9.4,20.5-16.2,30.1c-7,9.9-14,20.1-21.8,29.4c-3.7,4.5-7.9,8.3-12.4,11.7
		c-7.5,5.6-15.8,9.8-24.7,13.5c-14.7,6.1-29.1,5.9-44.7,4.6c-6-0.5-11.3-2.1-17.4-3.1c-2.3-0.4-4.5-0.8-6.8-0.8
		c-2.3,0-4.5,0.3-6.8,1.3c-0.1,0.1-0.1,0.2-0.1,0.3c-0.5,1.2-1,2.4-1.5,3.6c0,0.1-0.1,0.1-0.1,0.2c2.7,30.7,24,39.2,28.6,44.4
		c1-0.4,2.3-0.6,4-0.6c0,0,0,0,0.1,0c0.3,0,0.5,0,0.8,0c0,0,0.1,0,0.1,0c1.1,0.1,2.3,0.2,3.7,0.4c0.1,0,0.2,0,0.3,0
		c0.3,0,0.5,0.1,0.8,0.1c0.2,0,0.3,0.1,0.5,0.1c0.2,0,0.5,0.1,0.8,0.1c0.2,0,0.5,0.1,0.7,0.1s0.5,0.1,0.7,0.1
		c0.3,0.1,0.6,0.1,0.9,0.2c0.2,0,0.4,0.1,0.6,0.1c0.5,0.1,1,0.2,1.6,0.3c14,2.6,27.9,5.3,41.5,9.7c14.8,4.8,26.7,13.9,37.3,25
		c21.4,22.5,36.7,48,46.9,77.2c4.6,13.4,9.8,26.6,15,39.8c3.2,8.2,5.8,16.5,9.5,24.7c1.6,3.5,5.9,3.3,8.4,0.5
		c0.6-0.7,1.2-1.5,1.7-2.4c0.8-1.2,1.4-2.6,2.1-3.9c4.3-7.6,8.7-15.3,13-23c1.4-2.5,3.1-5.1,3.9-7.9c3.4-11.5,9.9-21.1,15.8-31.4
		c7.5-13.3,14.1-26.9,20.8-40.5c6.8-13.6,13-27.5,20.1-40.9c0.6-1.1,1.1-2.1,1.6-3.4c0.2-0.4,0.5-1.1,0.7-1.7
		c0.3-0.6,0.6-1.7,0.9-2.4c0,0,0.1,0.1,0.1,0.1c4.9-11.2,10-22.3,15-33.4c-0.1,0.1-0.1,0,0,0c0,0,0,0,0,0c0.2-0.1,0.1,0,0,0
		c0,0,0,0,0,0c0,0,0.1,0,0.2-0.1c0.6-0.3,0.7-1.9,1-2.8c2.9-8.2,5.3-16.5,6.9-25.1c0.8-4,1.2-8.2,2.6-12.1c7.1-19.8,8-40.1,9.9-60.9
		c1-10.6,1.9-20.9,2.8-31.5c0.9-10.2,1.5-20-0.5-30.1c-1.1-5.6-0.6-10.9,1.3-16.2c1.9-5.3,6.2-6.3,10.8-3.3c1.8,1.2,3.4,3.1,4.3,5
		c2.8,5.9,5.3,11.9,7.2,18.1c0,0,0,0,0,0c0.1,0.2,0,0.1,0.1,0.4c0.2,0.9,0.2,0.9,0.4,2c0.6,2.7,0.5,1.5,1.6,5.4
		c1.4,5.1,2,15.7,2.4,21.9c0.5,0,0.9,0,1.3,0c0.1,0,0.1,0,0.2,0c0.3,0,0.7,0,1,0c0.1,0,0.1,0,0.2,0c0.3,0,0.6,0,0.9-0.1
		c0,0,0.1,0,0.1,0c0.3,0,0.6-0.1,0.9-0.1c0,0,0.1,0,0.1,0c0.3-0.1,0.6-0.1,0.9-0.2c0,0,0,0,0,0c0.3-0.1,0.6-0.2,0.8-0.3c0,0,0,0,0,0
		c0.3-0.1,0.6-0.2,0.8-0.3c0,0,0,0,0,0c0.3-0.1,0.5-0.3,0.8-0.4l7.6-9.1c0,0,0,0,0-0.1c0.6-1,1.2-1.9,1.8-2.9
		c0.6-0.9,1.1-1.9,1.7-2.8c16.3-25.6,35.7-48.9,55.5-71.8c5.7-6.6,10.9-13.4,17.6-19.3c7.1-6.1,14.6-10.7,24.2-11.9
		c3.3-0.4,6.3,0.2,8.3,3.3c0.2,0.3,0.4,0.6,0.6,1c0,0.1,0.1,0.2,0.1,0.2c0.1,0.3,0.3,0.6,0.4,0.9c0.1,0.1,0.1,0.3,0.2,0.4
		c0.1,0.2,0.1,0.3,0.2,0.5c0.1,0.3,0.2,0.6,0.2,0.9c0,0.1,0,0.2,0,0.3c0.1,0.4,0.1,0.9,0.1,1.3c0.9,0.9,1.5,2,1.5,2v0c0,0,0,0,0,0
		c0.1-0.1,0.3-0.1,0.4-0.2c0.1,0,0.1,0,0.2-0.1c0.2-0.1,0.4-0.1,0.6-0.1c0.1,0,0.2,0,0.4,0c0.1,0,0.2,0,0.3,0c0.2,0,0.3,0,0.5,0
		c0.1,0,0.1,0,0.2,0c0.2,0,0.4,0.1,0.6,0.2c0.1,0,0.1,0.1,0.2,0.1c0.2,0.1,0.5,0.2,0.7,0.4c0.2,0.2,0.4,0.4,0.6,0.5
		c0.1,0.1,0.1,0.1,0.2,0.2c0.1,0.1,0.3,0.3,0.4,0.4c0.1,0.1,0.1,0.1,0.2,0.2c0.1,0.2,0.2,0.3,0.3,0.5c0,0,0.1,0.1,0.1,0.1
		c0.1,0.2,0.2,0.4,0.2,0.6c0,0.1,0,0.2,0.1,0.3c0,0.1,0.1,0.3,0.1,0.4c0,0.1,0,0.2,0,0.3c0,0.1,0,0.3,0,0.4c0,0.1,0,0.2,0,0.3
		c0,0,0,0,0,0c5.5-0.3,12.3,0.8,8.9,8.6c-0.4,0.9-0.9,2-1.5,3.4c0,0,0,0,0,0c0.2,0,0.4,0.1,0.7,0.1c2.5,0.7,3.9,5.3,2.4,8
		c-2.1,3.8-4.8,7.7-7.4,11.4c-1.8,2.6-4.3,4.8-5.7,7.6c-0.9,1.7-1.8,3.5-2.8,5.2c-0.3,0.5-0.6,1.1-0.9,1.6c-0.7,1.2-1.3,2.4-2,3.7
		c-0.3,0.6-0.6,1.1-0.9,1.7c-0.8,1.4-1.6,2.8-2.4,4.2c-0.4,0.8-0.9,1.5-1.3,2.3c-0.6,1-1.2,2.1-1.8,3.1c-0.6,1-1.2,2.1-1.8,3.1
		c-0.2,0.4-0.5,0.8-0.7,1.1c-1.5,2.6-3.1,5.1-4.6,7.7c1.8-1.9,3.6-3.7,5.3-5.5c3.5-4.6,7-8.5,9.1-9.5c0,0,0.1,0,0.1-0.1
		c12.9-13.3,22.2-22.5,20.7-19.5c-1.5,2.9-0.7,5.1-0.7,7.5c4.4-1.1,6.5,1.9,1.7,14.5c-11.3,30-14.6,34.2-14.5,36.7
		c0.1,2.5-1.1,6,0,7.1c0.6,0.6,4.2,0.8,7.1,1.6c1-0.6,1.9-1.1,2.9-1.7c3.9-2.2,8.6-3.7,12.9-4.7c5.5-1.3,8.9,1.7,7.4,7.3
		c-1.8,6.4-4.5,11.6-10.2,15.7c-6.1,4.5-12.4,9.4-18,14.9c-8.5,8.3-16.9,16.8-24.9,25.7c-6.4,7.2-12.1,15-18,22.6
		c-5.7,7.2-11.5,14.4-17.2,21.5c-19.5,24.5-36.5,50.7-52,77.9c-5.2,9.2-10,18.5-14.2,28.2c-0.4,1.6-0.8,3.3-1.4,4.9
		c0.4,0.3,0.8,0.5,1.2,0.7c0.1,0.1-0.2,0.3-0.1,0.4c0.5,0.9,1,1.7,0.1,2.5c-0.5,0.4-1.2,0.9-1.7,1.4c-1.4,3.6-2.8,7.2-4.1,10.9
		c-1,2.8-2.2,5.5-3,8.3c-4.9,17-10.1,33.7-16.8,50.2c-3.3,8-2.7,14.8,1.6,22.3c1,1.7,2,3.5,2.9,5.2c8.7,16.7,9.8,32.7,5,50.7
		c-5.5,20.7-13.3,39.9-22.6,59c-9.8,20-22.3,37.9-36,55.4c-12.8,16.3-27.4,30.6-44,43c-3.9,2.9-8.4,5.4-12.6,7.7
		c-12.4,6.8-24.2,5.8-35.8-1.5c-16.6-10.4-30.8-22.2-44.5-35.9c-7-7-13.2-14.7-20.1-21.7c-9.2-9.1-18-18-24.9-29
		c-4-6.3-7.2-13.2-10.9-19.7c-3.7-6.5-8.1-12.6-11.8-19.2c-8.6-15.7-18.1-30.9-26.6-46.8c-4.2-7.7-6.3-16.5-9.6-24.6
		c-0.9-2.2-1.9-4.5-3.4-6.3c-2.4-2.9-6.1-3.5-8.8-0.7c-2.7,2.8-5,6-6.9,9.3c-12.6,22.3-29.5,40.8-48.5,57.8
		c-15,13.4-32,23.7-49.5,33.6c-6.8,3.9-13.4,7.9-20.5,11.3c-12.5,5.9-24.5,10.9-38.2,13.5c-9.6,1.8-17.3,5.8-29,6
		c-0.6,1.8-1.1,3.6-1.8,5.4c-2.2,6.5-4.6,13.4-7.3,20.5c-0.7,1.8-1.3,3.6-2,5.4c-1.1,3-2.2,6-3.4,9c-0.6,1.5-1.1,3-1.7,4.5
		c-2.3,6.1-4.6,12.3-6.8,18.7c-9.7,27.4-18.1,56.6-18.7,84.2c0,0.1,0,0.2,0,0.3c0,1.6,0,3.2,0,4.9c0,0,0,0,0,0.1
		c58.3,19.7,120.7,30.3,185.6,30.3c320.3,0,579.9-259.6,579.9-579.9C1198,511.4,1075.9,320.3,896,221.9z"/>
	<path class="st0" d="M246.6,1058.3c9.8-10.1,20.1-19.9,29.6-30.5c4.5-5,8.1-11,11.1-17.1c11.8-24,19.6-49,22.9-75.5
		c1.7-13.6,3.7-27.2,5.9-40.7c0.3-1.7,1.1-3.6,1.7-5.2c1.6-8.2,1.4-16.5,0.4-23.9c-0.2,0-0.4,0-0.6-0.1c-12.8-0.6-27-1.3-39.3,0.5
		c-11.7,1.7-21.8,6.3-32,9.9c-10.2,3.7-18.2,7.2-27.7,11.5c-0.8,0.3-1.3,0.4-2.1,1c-19.9,16.7-37.6,33.6-58.7,49.8
		c-3.3,2.5-9,8.5-13.6,12.4c-7.4,6.1-17.1,12.6-25.7,18.5c-7.4,5-14.9,10.2-22.2,15.6c20.2,41.5,45.2,80.2,74.3,115.4
		c19.5-8.3,38.9-16.9,57.1-27.9C234.6,1068.2,241.1,1064,246.6,1058.3z"/>
	<path class="st0" d="M205.5,1138.5C205.5,1138.5,205.5,1138.5,205.5,1138.5c-1.6-1.6-3.2-3.3-4.8-4.9
		C202.3,1135.3,203.9,1136.9,205.5,1138.5z"/>
	<path class="st1" d="M488.1,548.6c-2.3-0.4-9.7-3.7-13,0.5c3.5,1.7,7.6,4.7,11.4,6s7,4.5,10.9,1.1
		C499.5,554.2,492.2,549.4,488.1,548.6z"/>
	<path class="st1" d="M1110.1,563.4c-0.1,0.3-0.3,0.5-0.5,0.8c-0.5,0.7-1,1.3-1.5,2c-4.2,6.7-8.4,12.8-14.1,18.4
		c-2.9,2.8-5.1,6.4-7.2,9.9c-8,13.3-16.1,26.6-24,40c-3.7,6.2-5.8,12.8-7.7,19.8c0.9,0.3,1.7,0.7,2.6,1c1.5-2.2,3.1-4.4,4.5-6.7
		c7.5-12.1,14.8-24.1,22.2-36.3c5.3-8.6,10.5-17,17.8-24.1c3.3-3.1,6.5-6.4,9.3-10c2.5-3.2,4.8-6.6,6.6-10.3
		c0.3-0.5,0.4-1.1,0.5-1.6c0,0,0,0,0,0c0-0.1,0-0.2,0-0.3c0-0.1,0-0.3,0-0.4c0-0.1,0-0.2,0-0.3c0-0.1,0-0.3-0.1-0.4
		c0-0.1,0-0.2-0.1-0.3c-0.1-0.2-0.1-0.4-0.2-0.6c0,0-0.1-0.1-0.1-0.1c-0.1-0.2-0.2-0.3-0.3-0.5c0-0.1-0.1-0.1-0.2-0.2
		c-0.1-0.1-0.2-0.3-0.4-0.4c-0.1-0.1-0.1-0.1-0.2-0.2c-0.2-0.2-0.4-0.4-0.6-0.5c-0.2-0.2-0.5-0.3-0.7-0.4c-0.1,0-0.1-0.1-0.2-0.1
		c-0.2-0.1-0.4-0.2-0.6-0.2c-0.1,0-0.1,0-0.2,0c-0.2,0-0.3,0-0.5,0c-0.1,0-0.2,0-0.3,0c-0.1,0-0.2,0-0.4,0c-0.2,0-0.4,0.1-0.6,0.1
		c-0.1,0-0.1,0-0.2,0.1c-0.1,0.1-0.3,0.1-0.4,0.2c-0.7,0.3-1.3,0.8-2,1.3C1110.5,563,1110.3,563.2,1110.1,563.4z"/>
	<path class="st1" d="M981.6,671.8C981.6,671.8,981.6,671.8,981.6,671.8C981.6,671.8,981.8,674.2,981.6,671.8z"/>
	<path class="st1" d="M933.2,799.5C933.2,799.5,933.2,799.5,933.2,799.5C933.2,799.5,933.1,799.5,933.2,799.5z"/>
	<path class="st1" d="M189.4,1106.6c9.6-4.9,19.1-9.9,28.6-15.1c18.6-10.1,34.8-23.1,50.8-36.9c3-2.6,5.3-5.8,7.8-8.7
		c1.9-2.2,3.8-4.5,5.7-6.7c8.3-9.8,15.1-20.3,19.9-32.2c6.6-16.1,11.3-32.2,13.5-49.4c2.5-20.6,3.2-40.7,4.8-61.6
		c0.2-2.1,0.3-5.4-2.6-6.5c-0.6,1.6-1.4,3.4-1.7,5.2c-2.2,13.5-4.2,27.2-5.9,40.7c-3.4,26.5-11.2,51.5-22.9,75.5
		c-3,6.1-6.6,12-11.1,17.1c-9.5,10.6-19.8,20.3-29.6,30.5c-5.5,5.7-12.1,9.9-18.8,13.9c-18.3,10.9-37.6,19.6-57.1,27.9
		c3.1,3.7,6.2,7.5,9.4,11.1c0,0,0,0,0,0c0.1-0.1,0.2-0.1,0.3-0.2C183.4,1109.5,186.4,1108.1,189.4,1106.6z"/>
	<path class="st1" d="M1121.4,581.4c-2.2,3.5-3.9,7.2-5.7,10.9c-2.4,4.9-4.4,10-6.8,14.9c-9.1,18.3-18.2,36.7-27.4,54.9
		c0.4,0.3,0.7,0.6,1.1,0.8c1-1.5,1.9-3.1,2.8-4.6c1.2-2.2,2.5-4.3,3.8-6.5l0,0.2c-0.5,0.7-3.8,6.3-3.1,12.9c0.7,6.6,0,0,0.9,0.7
		c0.9,0.7,3.6-0.7,6.7-4.5c3.1-3.8,8-10.8,12-16.5c4-5.6,20.7-23.5,24.2-28.2c1.3-1.8,1.7-3.3,1.7-4.7c0-2.4-0.8-4.6,0.7-7.5
		c1.5-3.1-7.8,6.2-20.7,19.5c-2.9,3-6,6.2-9.2,9.6c-1.8,1.8-3.5,3.7-5.3,5.5c0,0,0,0,0,0c1.5-2.6,3.1-5.1,4.6-7.7
		c0.2-0.4,0.5-0.8,0.7-1.1c0.6-1,1.2-2.1,1.8-3.1c0.6-1,1.2-2.1,1.8-3.1c0.4-0.8,0.9-1.5,1.3-2.3c0.8-1.4,1.6-2.8,2.4-4.2
		c0.3-0.6,0.6-1.1,0.9-1.7c0.7-1.2,1.4-2.4,2-3.7c0.3-0.5,0.6-1.1,0.9-1.6c0.9-1.7,1.9-3.4,2.8-5.2c1.4-2.8,3.9-5,5.7-7.6
		c2.6-3.7,5.3-7.6,7.4-11.4c1.5-2.7,0.1-7.3-2.4-8c-0.2-0.1-0.5-0.1-0.7-0.1C1123.7,577.7,1122.5,579.5,1121.4,581.4z"/>
	<path class="st1" d="M933.2,799.5C933.2,799.5,933.2,799.5,933.2,799.5C933.3,799.4,933.4,799.4,933.2,799.5z"/>
	<path class="st1" d="M578.2,446.3c1.8-0.7,3.6-1.7,5.1-2.9c9.6-8.3,20.4-12.6,32.5-15.4c4.4-1,6.8-3.5,8.8-7c2-3.4,0.9-6.9-2.6-8.6
		c-8.7-4.1-16.3-4.1-24.8,0.6c-2.3,1.1-4.8,1.7-6.9,3c-9.1,5.8-15.5,12.6-19.8,22.6c-1,2.3-0.8,4.8,1.1,6.7
		C573.4,447.3,575.8,447.3,578.2,446.3z"/>
	<path class="st1" d="M976.7,640.4C976.7,640.3,976.3,641.2,976.7,640.4L976.7,640.4z"/>
	<path class="st1" d="M501.1,453.2c14.4-8.9,27.3-18,39-30.3c2.2-2.4,3.1-5.9,4.2-9c0.4-1.1-0.2-2.9-1.1-3.8s-2.9-1.2-3.8-0.6
		c-3.3,2.1-6.3,4.4-9.1,7c-11.5,10.5-22.7,20.9-34.1,31.6c-1.3,1.2-2.4,4.1-3.2,5.7C495.3,453.8,499.3,454.3,501.1,453.2z"/>
	<path class="st1" d="M56.5,610.4C56.5,610.4,56.5,610.4,56.5,610.4c11.9,7.3,24.5,11.7,38.4,14.2c3.8,0.7,7.8,1.6,10.3,5.1
		c0.3,1.1,0.4,2.2,0.4,3.3c-0.1,3.2-1.2,6.1-1.8,9.4c-0.9,5.3-1.3,10.3-1.4,15.2c0,8.1,1.2,15.9,4.1,23.8c0.5,1.3,1,2.6,1.6,3.9
		c0.6,1.3,1.2,2.6,1.9,3.9c3,5.7,6.4,11,10.2,16.1c5.8,7.9,13.7,11.7,22.7,15.3c1.7,0.7,3.9,0.2,5.7-0.1c1.9-0.3,2.9-3,1.9-4.6
		c-0.9-1.3-2-2.1-3-3.1c-11.9-10.7-18.7-23-22.8-38.4c-2.6-9.7-2.8-19.2-2.6-29.1c0.1-6.9,1-13.7,0.4-20.5c-0.6-6.3-3-8-9.2-9.4
		c-10.6-2.3-22.1-4.2-32.8-7.1c-5.1-1.4-10.3-3.3-14.8-6.1c-13.8-8.5-23.4-20.2-31.4-34c-5-8.5-9.4-17.4-13.7-26
		c-4.3-8.6-6.5-17.4-6.7-26.8c-0.5-20,3.2-38.7,11.3-56.8c9.2-20.4,24.2-34.8,42.7-46.7c18.5-11.9,39.4-16.4,60.3-21.9
		c3.8-1,7.7-1,11.6-0.9c13.9,0.5,27.3,0.1,40.6,4.6c26.1,3.8,49.1,15.8,71.9,28.4c21.9,12.1,42.9,25.5,65.8,35.4
		c15.5,6.7,31.5,10.6,48.2,11.8c26.7,2,52.3-3.5,77.8-10.9c2.8-0.8,5.4-2.3,7.9-3.8c8.2-5.2,16.8-10,24.4-16.2
		c6.8-5.5,13.2-11.5,19-17.8c5.9-1.1,11.8-6,16.7-10.1c1.1-0.9,2.2-1.8,3.2-2.6c9.4-7.5,21.3-11.6,31.7-15.3l0.2-0.1
		c13.6-4.8,27.5-8.3,41.4-10.3c0.4-0.1,0.7-0.1,1.1-0.2c9.7-0.3,19.5-0.1,29.1,0.8c24,2.1,47.4,9.4,70,16.4
		c3.7,1.2,7.4,2.3,11.2,3.5c3.7,1.1,7.5,2.2,11.2,3.2c9.1,2.5,18.6,5.1,27.3,9.4c7.1,3.5,14.4,7.9,21.6,12.8
		c-0.2,0.7-0.4,1.4-0.8,2.1c0,0.1-0.1,0.2-0.1,0.3c1.2-0.1,2.4-0.3,3.6-0.5c2.5,1.8,5,3.6,7.5,5.5c0.9,0.7,1.7,1.3,2.6,2
		c0.9,0.7,1.8,1.5,2.8,2.2c-1.1,2.9-3.4,5.7-5.9,7.9c-3.3,2.9-7.5,4.6-11.1,7c-6.1,4-12.8,7.2-17.4,13.2
		c-11.8,15.2-18.2,31.5-20.8,50.7c-1.5,11,1.4,21.2,5.6,31.4c2.5,6.1,7.2,8.8,13.8,8.6c5.9-0.1,11.5-1.4,17-4s11.2-6,17-8.4
		c4.2-1.8,7.6-0.1,8.5,4.6c0.6,3.3,0.6,6.7,0.3,10.1c-0.3,3.1-0.3,5.3,1.1,8.3c1.5,3.4,2.2,7.4,2.5,11.3c1.9,22.1,0.2,44-5.2,65.4
		c-7,28-22.6,50.3-41.9,71.2c-1.3,1.4-3,2.6-4.7,3.5c-12,6.6-24,13.2-37.3,16.8c-22.6,6.1-44.3,4.8-66-3.6
		c-5.9-2.3-11.8-4.8-17.8-6.8c-15.2-5-28.1-13.1-40.8-22.6c-6.3-4.8-12.6-9.3-17.6-15.4c-8.2-10-14.6-20.5-22.1-31.1
		c-1.7-2.4-3.8-5.7-5.5-8.2c-0.8,1.4-2.8,4-2.6,5.6c0.4,3.1,1.3,5.7,2.7,8.2c10.6,18.6,20.6,36.5,36.3,51.3c1.8,1.7,3.7,3.3,5.2,5.1
		c7.7,9.2,17.1,15.8,27.3,21.8c7.2,4.2,15,7.8,21.9,12c7.3,4.5,9.2,8.8,6.3,17.1c-13.2,37.4-36.6,70.7-64.9,97.7
		c-14.6,14-18.5,10.3-27.1-3.8c-10.5-17.3-14.4-33.7-16.7-52.9c-1.2-9.9-1.5-19.5-2-29.3c-0.8-15.2-1-30.2-1.5-45.4
		c-0.6-19.2-1.2-37.9-5.3-56.8c-1.9-8.5-2.8-17.3-3.5-26.2c-0.4-4.1,0.8-7.5,4.1-10.3c2.1-1.8,4.4-4,5.5-6.6
		c3.1-6.8,1.3-12.4-5.9-15.1c-3.7-1.4-7.6-1.1-11.4-1.1c-6.9-0.1-13.7,0.3-20.1-2.8c-8.1-3.9-14.7-9.2-19.5-16.9
		c-11.8-18.5-14.6-37.4-9.6-58.7c2.7-11.4,8.8-19.3,19.9-23.5c9.5-3.6,17.8-0.4,25.3,6.5c1.8,1.6,5.3,2.4,7.9,2.7
		c1.9,0.2,3.8-2,2.9-3.8c-1.1-2.1-2.4-4.4-4.3-5.7c-5.7-3.8-12.8-5.6-19.2-6.5c-17.9-2.3-23.9,1.6-31.7,16.4
		c-9.3,17.7-9.2,33-5.3,51.4c2,9.4,5.5,17.6,8.8,26.5c2.4,6.6,6.3,12,11.3,16.9c6,6,12.9,10.1,20.8,13.4c8.7,3.6,12.7,9.5,13.9,18.7
		c0.6,4.4,0.7,8.8,1.1,13.2c0.5,5.9,0.6,11.7,1.1,17.6c3.2,38,4.2,76.2,4.1,114.3c0,31.4,9.8,59.4,27.2,85.2
		c6.3,9.4,13.5,9.8,21.9,2.5c11.2-9.6,22.1-20.6,32.7-31.5c12.3-12.7,23-26.4,30.1-42.9c0.6-1.3,1.4-2.6,2.1-3.8
		c6.6-12.1,12.1-24.5,16.2-37.6c0.5-1.7,1.1-3.2,1.7-4.7c0-0.1,0.1-0.1,0.1-0.2c0.5-1.2,1-2.4,1.5-3.6c0.1-0.1,0.1-0.2,0.1-0.3
		c2.3-1,4.5-1.3,6.8-1.3c2.3,0,4.5,0.4,6.8,0.8c6.1,1,11.5,2.6,17.4,3.1c15.6,1.3,30,1.5,44.7-4.6c8.9-3.7,17.3-7.9,24.7-13.5
		c4.5-3.3,8.6-7.2,12.4-11.7c7.8-9.3,14.8-19.5,21.8-29.4c6.8-9.6,12.1-19.6,16.2-30.1c1.1-2.8,2.1-5.7,3-8.5c0-0.1,0-0.2,0.1-0.2
		c4.9-15.3,7.2-31.4,7.5-48.1c0.3-15.5-0.9-31-1.9-46.4c-0.4-5.5-0.7-11-1-16.5c-0.3-5.9-1.2-11.7-1.8-17.5c-0.3-2.7-0.6-5.3-0.9-8
		c-0.9-7.1-1.8-14.1-2.2-21.2c-0.2-2.9-0.3-5.8-0.5-8.8c-0.1-1.3-0.1-2.6-0.2-3.9c-0.1-1.6-0.2-3.3-0.3-4.9c-0.1-1.7-0.2-3.3-0.3-5
		c-0.1-1.3-0.1-2.5-0.2-3.8c-0.1-1.8-0.2-3.6-0.2-5.4c-0.1-1.1-0.1-2.3-0.1-3.4c-0.1-1.9-0.1-3.8-0.2-5.6c0-1-0.1-2.1-0.1-3.1
		c-0.1-1.9-0.1-3.9-0.2-5.8c0-0.9,0-1.9-0.1-2.8c0-2-0.1-4.1-0.1-6.1c0-0.8,0-1.6,0-2.4c0-2.1,0-4.2,0-6.3c0.4-0.3,0.8-0.7,1.2-1.1
		c2.5-2.9,3.3-7.7,3.5-9.6c0.5-4-0.7-8-1.8-11.9c-1.1-3.7-2.1-7.2-1.5-10.1c4.7-25.2,15.1-47.9,28.3-69.7c0.8-1.4,1.7-2.7,2.5-4.1
		c8.4-13.4,17.7-26.5,27.3-39.6l1.5-2.1c17-23.1,34.3-46.7,47.3-73.2c7.3-14.9,13.2-30.7,16.9-47.8c3.6-17,6.4-42.2-0.8-65.8
		c-5.7-18.4-16.9-34-32.5-45c-28.6-20.2-63-19.8-96.2-19.4c-4.3,0.1-8.7,0.1-13.1,0.1c-23.7,0-50.9-1.8-72.9-16
		c-4.6-4.8-9.8-8.9-15.3-12.1C648-4.3,604.9-5.3,566.8,13.2l-1.2,0.6c-16.3,8.1-31.7,19.6-46.6,30.8c0,0-0.1,0.1-0.1,0.1
		c-14.9,11.2-30.4,22.7-46.7,30.6c-3.8,1.9-7.8,3.5-11.6,5.2l-0.4,0.2c-3.9,1.7-8.4,3.6-12.7,5.6c-5.6,2.6-11.1,6-16.3,9.9
		c-14.3,11.1-25.6,29.8-30.9,51.3c-3.9,16-4.2,32.2-1,46.3c1.1,4.8,2.6,9.5,4.5,13.7c6.8,15,17.7,26.1,27.5,35.9l64.9,65.2
		c4.7,4.7,8.9,9.4,9.5,15.6c0.4,4-0.8,8.7-1.8,12.9l0,0.2c-10.9,43.2-13.8,55-14.6,58.2c-4.3,4.9-8.8,9.7-13.3,14.5
		c-4.7,4.9-10.6,8.4-16.1,12.3c-2,1.4-4.3,2.4-6.1,3.9c-8,6.3-16.8,9.5-26.6,11.2c-23.6,4.2-46.5,1.2-69.9-1.8
		c-12.5-5.4-25.3-10.5-37.6-16.4c-11.9-5.8-23.2-12.6-34.7-18.9c-7.2-4-14.7-7.9-21.2-12.8c-12.7-9.7-26.2-16.8-40.9-22.5
		c-14.8-5.6-30.1-8.1-45.5-10.5c0,0,0,0,0,0c-14.8-2.3-29-1.5-43.5,1.2c-15.5,2.9-30.1,7.6-44.5,14c-16.3,7.2-31.4,15.3-44.6,27.7
		c-12.6,11.8-23.1,24.8-30.6,40.5c-3.2,6.6-5.3,13.6-6.3,20.9c-0.4,2.8-0.9,5.8-1.9,8.5c-4.2,10.7-5.7,21.6-5.5,33
		c0.4,27.9,6.1,54.2,21.3,78c7.8,12.2,18.1,21.3,30,29.1c0,0,0,0,0,0C53,608.3,54.7,609.4,56.5,610.4z M676.6,31.6
		c0.1,0.1,0.3,0.2,0.4,0.3c0.1,0.1,0.3,0.1,0.4,0.2c2.4,0.5,4.7,1.4,6.9,2.5c0.5,0.3,0.9,0.5,1.3,0.9c0.2,0.1,0.4,0.2,0.7,0.3
		c26.7,20,60.9,21.2,93.7,20.8l2.7,0c35-0.5,71.1-1,98.2,23.9c13,12,21.2,28.4,23.8,47.6c3.1,23.5-2.4,47.1-7.6,62.7
		c-12,36.2-33.9,65.9-55.1,94.7c-5.5,7.5-11.2,15.2-16.6,22.8c-18.7,26.6-43.9,67-48.9,112.9c-3-1.8-8.7-4.1-18.3-7.3
		c-1.6-0.5-2.8-1-3.3-1.2c-7.3-3-17-7-26.9-10.9c-27.2-10.7-63.3-23.7-100.4-29.1c-9.7-1-19.4-1.4-29.1-1.1
		c-20.6,0.7-41.2,4.5-61.4,11.3c-6,2-11.9,4.7-17.7,7.3c-4.3,2-8.8,4-13.2,5.7l-0.9,0.4c-0.1,0-0.2,0.1-0.3,0.2
		c-0.2,0.1-0.4,0.3-0.6,0.5c-1.5,0.8-3.1,1.6-4.8,2.6l12.9-50.2l2.8-9.2c123.6-63.3,226.7-24.9,277.2,3.7c0.5,0.3,1,0.3,1.5,0.1
		c0.5-0.2,0.8-0.6,0.9-1.1c0.4-3.5,0.9-7,1.5-10.5c0.1-0.5-0.1-1-0.6-1.3c-24.1-16.6-52.3-27.7-84-32.9c-26.1-4.3-54.6-4.6-84.7-0.9
		c-47.6,5.8-89.3,20.5-107.5,28.7c9.7-32.8,18.6-66.3,26.3-99.7c0.2-0.7-0.3-1.4-1-1.6c-0.7-0.2-1.6,0.1-1.9,0.8
		c-12.9,26-20.3,54.8-27.4,82.9c-23.1-22.5-46.3-45-69.4-67.6c-13.4-13.1-30.2-29.3-35.7-53c-6.3-26.6,3.7-59.8,23.3-77.2
		c10.2-9.2,21.8-13.7,34.1-18.6c6.6-2.6,13.4-5.3,19.9-8.7c12.1-6.4,23.4-15.7,34.4-24.7c7.1-5.8,14.4-11.8,21.9-17
		C586,12.3,636.8,8.6,676.6,31.6z M767,540.7c-3.6,2.7-8,0.6-8.7-3.7c-0.6-3.8,0.1-7.8-0.1-11.7c-0.2-5.1-0.8-9.7-5.2-13.1
		c-4.7-3.7-9.5-3.9-14.9-1.3c-1.1,0.5-2.7,0.3-3.9,0.2c-2.6-2-3.7-5.1-1.9-7.8c5.6-8.2,10.7-16.1,17-23.7c5-5.9,12-7.5,19.3-9.5
		c1.7-0.5,4.1,0.7,5.9,1.1c3.1,15.3,5.6,30.7,5.5,46.3C780,528,774.9,534.8,767,540.7z"/>
	<path class="st1" d="M505.6,477.7c5.7-3.3,10.8-6.3,16.4-9.6c5.2-3,9-6.8,11.7-12.2c-0.5-0.4-2.5-1.7-3-1.5
		c-12.3,6.3-24.1,12.4-36.1,19.1c-1.5,0.8-2.4,3.3-3.3,4.7C496.4,480.6,500.9,480.5,505.6,477.7z"/>
	<path class="st1" d="M503,489.7c-2.2,1.1-5.2,3.4-2.9,6.8c11.9,1.4,19-4,28.6-10.9c3.2-2.3,4.5-5.7,2.3-9.7
		C521.5,480.4,512.7,484.6,503,489.7z"/>
	<path class="st1" d="M722.6,615.6c-1.8,3.5-2.7,7.3-1.6,11.2c0.9,3.4,4.9,5.6,7.8,3.6c8.8-6,12.2-15.3,8.1-25
		c-4.7-10.9-12.9-17.7-21.5-25.4c-0.2-0.2-3,0.6-3.3,0.9c2.4,3.9,5.3,7.9,7.9,11.6C725.4,600.4,727,606.8,722.6,615.6z"/>
	<path class="st1" d="M654.7,689c0.7,0.3,2.5,1.4,3.7,1.9c13.2,4.8,24.7,6.8,38.6,6.2c3.7-0.1,9.3-2,11.9-4
		c8.1-6.4,14.2-15.9,13.3-26.7c-0.3-3.6-3.7-3.7-7.2-2c-8.6,4.1-19.1,7.2-28.5,8.6c-1.5,0.2-4,0.5-6.2,0.9
		c-9.5,1.5-20.2,1.7-29.5,5.1C645.8,680.7,650,686.8,654.7,689z"/>
	<path class="st1" d="M597.1,460.9c-12.9,9.1-22.6,19.8-24,36.2c-1.6,17.8,3,33.4,10.6,49.4c2.6,3.6,5.7,8.7,8.2,12.1
		c7.1,9.1,17.5,17.6,27.8,20.1c25.4,6.2,49.7-11.2,50.3-36.3c0.2-7.9-0.3-12.8-0.7-19.3c-0.9-17.4-6.5-31-17.6-44
		c-10.5-12.2-23.3-18.5-39-20.8C607.3,457.5,601.8,457.6,597.1,460.9z M650.8,500.2c4.7,4.8,6.5,11.7,8,18.2
		c-4.8,0.3-10-0.4-14.7,0.4c-4.8,0.9-7.9,3.1-9.5,7.9c-3.5,10.7-3.2,20.5,1,31.2c1.4,3.5,4.4,7.1,1.6,10.7
		c-3.2,4.2-7.8,2.6-11.9,1.4c-22.7-6.6-36.9-19.9-43.7-42.5c-1.4-4.6-2.9-9.4-3.8-14.1c-2-10.6,0.9-19,9.4-25.8
		c7.2-5.8,15-9.1,24.3-7.7C627.1,482.4,639.7,488.7,650.8,500.2z"/>
	<path class="st1" d="M432.4,1275.7c0-0.1,0-0.2,0-0.3c0.5-27.6,9-56.8,18.7-84.2c2.2-6.3,4.5-12.6,6.8-18.7c0.6-1.5,1.1-3,1.7-4.5
		c1.1-3,2.3-6,3.4-9c0.7-1.8,1.4-3.6,2-5.4c2.6-7.1,5.1-14,7.3-20.5c0.6-1.8,1.2-3.6,1.8-5.4c11.7-0.2,19.5-4.2,29-6
		c13.8-2.7,25.8-7.6,38.2-13.5c7.1-3.4,13.7-7.4,20.5-11.3c17.5-9.9,34.5-20.2,49.5-33.6c19-17,35.8-35.5,48.5-57.8
		c1.9-3.3,4.2-6.5,6.9-9.3c2.7-2.8,6.4-2.2,8.8,0.7c1.5,1.8,2.5,4.1,3.4,6.3c3.3,8.1,5.4,16.9,9.6,24.6c8.6,15.8,18,31,26.6,46.8
		c3.6,6.6,8,12.7,11.8,19.2c3.7,6.5,7,13.4,10.9,19.7c6.9,11,15.7,19.9,24.9,29c6.9,6.9,13.2,14.6,20.1,21.7
		c13.6,13.7,27.9,25.5,44.5,35.9c11.6,7.3,23.4,8.3,35.8,1.5c4.2-2.3,8.7-4.8,12.6-7.7c16.6-12.4,31.2-26.7,44-43
		c13.7-17.5,26.2-35.4,36-55.4c9.3-19.1,17.1-38.2,22.6-59c4.8-18,3.7-34.1-5-50.7c-0.9-1.7-1.9-3.5-2.9-5.2
		c-4.3-7.5-4.9-14.3-1.6-22.3c6.8-16.4,11.9-33.1,16.8-50.2c0.8-2.8,2-5.5,3-8.3c1.3-3.7,2.7-7.3,4.1-10.9c0.5-0.5,1.2-1,1.7-1.4
		c0.9-0.8,0.4-1.6-0.1-2.5c-0.1-0.1,0.2-0.3,0.1-0.4c-0.3-0.3-0.8-0.5-1.2-0.7c0.5-1.6,1-3.2,1.4-4.9c4.3-9.7,9-19,14.2-28.2
		c15.5-27.2,32.5-53.4,52-77.9c5.7-7.2,11.5-14.3,17.2-21.5c6-7.6,11.6-15.4,18-22.6c7.9-8.9,16.4-17.4,24.9-25.7
		c5.6-5.4,11.9-10.4,18-14.9c5.6-4.1,8.4-9.3,10.2-15.7c1.5-5.6-1.9-8.6-7.4-7.3c-4.3,1-8.9,2.5-12.9,4.7c-14,8-27.7,16.2-41.4,24.8
		c-2.6,1.6-4.2,4.4-6.1,7.2c-0.9,1.4-0.9,3.7,1.4,4.4c12.2-7,21.1-15.8,35.7-17.3c-1.3,2-2.8,5-4.3,6.6c-3.5,3.9-7.4,7-10.4,11
		c-13.1,17.2-25.8,34.6-38.8,51.9c-2.5,3.3-5.3,6.3-8,9.4c-3,3.5-6.5,6.6-9.1,10.3c-16.8,24.3-35.3,47-48.2,73.9
		c-1.6,3.3-4.2,6.5-8.4,7c-1.4-0.9-2.8-1.5-3.9-2.9c-3.2-4-5.8-8.1-8.7-12.4c-7.1-10.5-14.9-17.7-27.4-21.2
		c-1.3-0.4-2.7-0.7-3.9-1.4c-2.6-1.5-4.3-3.4-4.1-6.5c0-0.6,0.1-1.1,0.2-1.7c0.4-3.1,1-6.1,1.8-9.1c3.9-16,8.8-31.8,11.8-48
		c3.9-20.8,6.5-41.6,7.4-62.7c0.2-4.6,0.3-9.1,0.4-13.7c0-2.5,0-4.9,0-7.4c0-0.2,0-0.4,0-0.7c0-2.4,0-4.9-0.1-7.3
		c-0.1-6.8-0.4-13.5-0.7-20.3c-0.1-2.7,0-5.4,0.4-8.2c0.4-2.8,0.9-5.5,4.2-6.3s4.5,2.2,5.8,4.4c0.5,0.9,1.1,1.9,1.6,3c0,0,0,0,0,0
		c0.1,0.2,0.2,0.4,0.3,0.7c0,0.1,0.1,0.2,0.1,0.3c0,0.1,0.1,0.2,0.1,0.3c0.1,0.2,0.1,0.4,0.2,0.6c0,0.1,0,0.1,0,0.2
		c0,0.2,0.1,0.4,0.1,0.6c0,0,0,0.1,0,0.1c0,0.2,0,0.4-0.1,0.5c0,0.1,0,0.1-0.1,0.2c0,0,0,0.1-0.1,0.3c1.8,8,4.4,24,4.9,30.3
		c0,0.3,0,0.6,0.1,0.8c0.6,5.9,0.1,9.8,3.1,14.6c2.1-1.4,4.8-2.6,6.4-4.6c3-3.6,5.3-7.5,7.7-11.4c9.5-15.8,19.8-30.8,30.8-45.6
		c10.2-13.7,20.7-26.8,33.7-38c4.8-4.2,10.5-7.3,15.8-10.9c0.9-0.6,3.1-0.3,3.6,0.3c0.9,1.3,1.4,3.6,0.8,4.6
		c-6.4,10.3-12.8,20.2-20.1,29.6c-10.1,12.9-18.3,25.9-24.1,41.3c-0.2,0.5,0.9,1.7,1.2,2.1c3.9-6.1,7.4-12.5,11.8-18.2
		c11.9-15.3,22-31.7,34.5-46.4c5.3-6.3,10.6-12.6,16.5-18.3c1.7-1.6,3.4-3.3,4.8-5.1c0,0,0,0,0-0.1c0.6-1,1.2-1.9,2-2.7
		c0.7-1.3,1-2.6,1-3.9c0-0.4,0-0.9-0.1-1.3c0-0.1,0-0.2,0-0.3c-0.1-0.3-0.1-0.6-0.2-0.9c0-0.2-0.1-0.3-0.2-0.5
		c-0.1-0.1-0.1-0.3-0.2-0.4c-0.1-0.3-0.2-0.6-0.4-0.9c0-0.1-0.1-0.2-0.1-0.2c-0.2-0.3-0.4-0.6-0.6-1c-2-3.2-5-3.8-8.3-3.3
		c-9.5,1.3-17.1,5.8-24.2,11.9c-6.7,5.8-11.9,12.7-17.6,19.3c-19.9,22.9-39.2,46.3-55.5,71.8c-0.6,0.9-1.2,1.8-1.7,2.8
		c-0.6,1-1.2,2-1.8,2.9c0,0,0,0,0,0.1c-0.8,1.2-1.5,2.4-2.3,3.5c-2.2,3.1-3.9,5-6.1,6c0,0,0,0,0,0c-0.3,0.1-0.5,0.2-0.8,0.3
		c0,0,0,0,0,0c-0.3,0.1-0.6,0.2-0.8,0.3c0,0,0,0,0,0c-0.3,0.1-0.6,0.1-0.9,0.2c0,0-0.1,0-0.1,0c-0.3,0.1-0.6,0.1-0.9,0.1
		c0,0-0.1,0-0.1,0c-0.3,0-0.6,0.1-0.9,0.1c-0.1,0-0.1,0-0.2,0c-0.3,0-0.7,0-1,0c-0.1,0-0.1,0-0.2,0c-0.4,0-0.9,0-1.3,0
		c-0.4-6.2-1-16.8-2.4-21.9c-1.1-3.9-1-2.7-1.6-5.4c-0.2-1.1-0.2-1.1-0.4-2c-0.1-0.3,0-0.1-0.1-0.4c0,0,0,0,0,0
		c-1.9-6.3-4.5-12.2-7.2-18.1c-0.9-2-2.6-3.9-4.3-5c-4.6-3-8.9-2.1-10.8,3.3c-1.9,5.3-2.4,10.6-1.3,16.2c2,10.1,1.5,19.9,0.5,30.1
		c-1,10.6-1.8,20.9-2.8,31.5c-1.9,20.7-2.8,41-9.9,60.9c-1.4,3.8-1.9,8-2.6,12.1c-1.6,8.5-4.1,16.9-6.9,25.1c-0.3,1-0.4,2.5-1,2.8
		c-0.1,0-0.1,0.1-0.2,0.1c-5,11.1-10.1,22.2-15,33.4c0,0-0.1-0.1-0.1-0.1c-0.2,0.7-0.6,1.8-0.9,2.4c-0.3,0.6-0.5,1.3-0.7,1.7
		c-0.5,1.2-1,2.3-1.6,3.4c-7.1,13.5-13.3,27.3-20.1,40.9c-6.8,13.6-13.3,27.2-20.8,40.5c-5.8,10.3-12.3,19.8-15.8,31.4
		c-0.8,2.7-2.5,5.3-3.9,7.9c-4.3,7.7-8.7,15.3-13,23c-0.7,1.3-1.4,2.6-2.1,3.9c-0.5,0.8-1.1,1.7-1.7,2.4c-2.5,2.8-6.8,3-8.4-0.5
		c-3.7-8.1-6.3-16.4-9.5-24.7c-5.2-13.2-10.3-26.4-15-39.8c-10.2-29.2-25.5-54.7-46.9-77.2c-10.6-11.1-22.5-20.2-37.3-25
		c-13.5-4.4-27.5-7.1-41.5-9.7c-0.5-0.1-1.1-0.2-1.6-0.3c-0.2,0-0.4-0.1-0.6-0.1c-0.3-0.1-0.6-0.1-0.9-0.2c-0.2,0-0.5-0.1-0.7-0.1
		s-0.5-0.1-0.7-0.1c-0.3,0-0.5-0.1-0.8-0.1c-0.2,0-0.3-0.1-0.5-0.1c-0.3,0-0.5-0.1-0.8-0.1c-0.1,0-0.2,0-0.3,0
		c-1.4-0.2-2.6-0.3-3.7-0.4c0,0-0.1,0-0.1,0c-0.3,0-0.5,0-0.8,0c0,0,0,0-0.1,0c-1.6,0-2.9,0.2-4,0.6c-3.8,1.6-4.3,6.6-5.3,17.5
		c-0.4,4.2-0.6,8.9-1.3,13.2c-1.6,10-2.4,20.6-5.2,30.3c-5,17.3-10.4,34.8-16.4,51.6c-9.2,25.6-26,44-50.9,54.6
		c-9,3.8-14.3,1.7-19.6-5.9c-1.1-1.5-1.4-3.7-2.3-5.4c-4.8-9-9-18.5-14.6-27.1c-4-6.1-8.8-11.9-14.3-16.4
		c-7.1-5.8-13.3-5.9-21.4-1.8c-12.8,6.4-23.3,15.9-33.3,26c-4.5,4.5-8.4,9.6-13.1,13.9c-4,3.5-8,7.2-12.8,9.5
		c-8.1,4-15,2.2-20.5-4.9c-4.6-6-6.8-13.1-7-20.5c-0.6-21.1,0.2-41.8,4.5-62.6c4.5-21.5,12.1-42.3,19.8-62.8
		c4.1-11,8-22.2,13.3-32.6c7.9-15.6,17.8-30.9,25.9-45.9c3.9-7.2,3.8-11.4-2.1-17c-14.3-13.8-30.8-23.9-49.9-30.1
		c-17.9-5.7-36.1-8.7-54.6-10.6c-28.4-3-56.2-1.5-84.6,1.3c-14.7,1.5-29.5,3.9-43.7,9c-16.7,6-34.1,12.6-50,20.5
		c-10.1,5.1-19.9,10.6-29.7,16c0,0,0,0,0,0c-2.4,1.3-4.8,2.6-7.1,3.9c-0.6,0.4-1.3,0.7-1.9,1c-2.6,1.4-5.1,2.8-7.7,4.1
		c-1.8,0.9-3,1.5-4.3,2c-11.4,4.3-23.3,9.7-32.8,16.4c-13,9.1-23.8,17.9-36.2,27.5c-6.4,4.9-11.2,11.7-16.8,18.1
		c-2.9,3.3-4.5,6.6-8.3,10.3c-4.7,4.6-8.6,9.3-12.5,14.3c0.6,3.6,1.3,7.2,1.9,10.8c0.2-0.2,0.4-0.4,0.6-0.6
		c8.9-9.7,18.5-21,26.7-30.2c10.1-11.2,19.7-19.6,30.6-29.3c2-1.7,3.8-2.6,6-4.1c7-4.6,12.9-8.3,20.4-13c5.9-3.8,11-6.9,18.7-9.9
		c10.3-4,19.4-9.3,30.2-15.9c13.3-8.1,30.2-17.1,45.5-23.1c12.5-4.9,25.8-9.7,38.7-12.9c36.5-8.9,72.3-12.6,109.8-10.2
		c24.1,1.6,47.6,6,69.7,15.9c7.9,3.5,15.8,8.5,22.9,13c3.8,2.4,5.3,4.9,8.3,7.8c2.9,4.9,4.9,10,1.8,15c-1.8,2.9-2.9,5.3-4.9,7.6
		c-4.7,5.5-9.3,6.2-15.3,2.2c-4.9-3.2-9.1-7.5-13.6-11.3c-9.7-8.3-20.3-13.1-32.8-15.3c-10.7-1.9-21-4.2-31.4-6.3
		c-12.9-2.5-25.4-2.6-38.3-1.8c-14.7,0.8-29.2,1.9-43.8,3.8c-7.5,1-15,2.4-22.2,5c-17.2,6-33.7,13.5-50.2,21
		c-1.7,0.8-3.6,1.8-5.2,2.3c-14.1,4.8-29.1,13.7-41.5,20.1c-12,6.2-21.5,11-32.4,16.9c-3.5,1.9-5.7,3.7-8.6,5.7
		c-8.2,5.8-15.2,9.9-22.8,16.7c-7.8,7.1-13.5,12.9-20.2,22.7c-9.5,13.8-20.2,28.3-32,42.4c-1.7,2.1-3.5,4.4-5.1,6.9c0,0,0,0,0,0
		c1.3,4.8,2.7,9.6,4.1,14.4c0,0,0,0,0,0c1.4,4.6,2.8,9.2,4.3,13.8c0,0,0,0,0,0c3.8,11.8,8,23.4,12.5,34.8c0,0,0,0.1,0.1,0.1
		c0.9,2.3,1.9,4.7,2.8,7c0,0.1,0,0.1,0.1,0.2c2,4.8,4,9.5,6.1,14.2c0.1,0.1,0.1,0.3,0.2,0.4c1.2,2.6,2.3,5.2,3.5,7.8
		c0.3,0.6,0.6,1.3,0.9,1.9c1.3,2.7,2.6,5.5,3.9,8.2c0,0,0,0,0,0c7.3-5.4,14.8-10.6,22.2-15.6c8.6-5.9,18.4-12.3,25.7-18.5
		c4.6-3.9,10.3-9.9,13.6-12.4c21.1-16.3,38.8-33.1,58.7-49.8c0.8-0.6,1.3-0.7,2.1-1c9.6-4.2,17.5-7.8,27.7-11.5
		c10.2-3.7,20.4-8.3,32-9.9c12.3-1.8,26.5-1,39.3-0.5c0.6,0,1.5,0.1,2.1,0.5c3.7,2.1,6.7,2.4,10.6,0.8c1.3-0.5,2-0.8,3.7-0.5
		c5.6,1.1,8.6,3.9,8.7,10.5c0.2,18.4,0.5,38.2-1.2,56.7c-0.8,9-2.8,17.8-4.2,26.4c-5.3,33.2-16.1,64.1-31.3,94.1
		c-6.9,13.7-15.9,25.3-28.3,34.5c-12.1,8.9-25,16.7-37.8,24.5c-10.8,6.6-22.3,11.8-33.5,17.7c-1.8,1-3.7,1.9-5.5,2.9
		c-0.1,0-0.2,0.1-0.2,0.1c0,0,0,0,0,0c0,0,0,0,0,0c1.6,1.6,3.2,3.3,4.8,4.9c2.8,2.8,5.5,5.5,8.3,8.3c0.9,0.8,1.7,1.7,2.6,2.5
		c1.1,1.1,2.2,2.2,3.4,3.2c0.3,0.3,0.6,0.5,0.9,0.8c0.2,0.1,0.3,0.3,0.5,0.4c0.2,0.2,0.4,0.4,0.6,0.6c0.5,0.5,1,1,1.5,1.4
		c1.1,1,2.3,2.1,3.4,3.1c0.4,0.3,0.7,0.7,1.1,1c0.3,0.3,0.6,0.6,1,0.9c0.1,0.1,0.3,0.2,0.4,0.4c0.4,0.3,0.7,0.6,1.1,1
		c1.2,1,2.3,2.1,3.5,3.1c0.5,0.4,1,0.9,1.5,1.3c0.4,0.4,0.8,0.7,1.2,1.1c0.3,0.2,0.5,0.5,0.8,0.7c1.2,1.1,2.5,2.1,3.7,3.2
		c0.8,0.6,1.5,1.3,2.3,1.9c0.1,0.1,0.2,0.2,0.3,0.3c0,0,0.1,0.1,0.1,0.1c0.2,0.2,0.4,0.4,0.6,0.5c1.5,1.3,3,2.5,4.5,3.8
		c1.2,1,2.5,2.1,3.7,3.1c1.9,1.6,3.9,3.2,5.9,4.7c0.2,0.2,0.4,0.3,0.6,0.5c0.1,0.1,0.2,0.1,0.2,0.2c0.7,0.6,1.5,1.1,2.2,1.7
		c1.5,1.1,2.9,2.3,4.4,3.4c0.2,0.2,0.4,0.3,0.7,0.5c0.5,0.4,0.9,0.7,1.4,1.1c0,0,0,0,0,0c0.4,0.3,0.8,0.6,1.2,0.9
		c1.4,1.1,2.9,2.2,4.3,3.2c0.3,0.2,0.5,0.4,0.8,0.6c0.6,0.4,1.2,0.9,1.8,1.3c0.2,0.2,0.5,0.4,0.7,0.5c1.5,1.1,3,2.2,4.5,3.2
		c0.3,0.2,0.6,0.4,0.9,0.7c0.6,0.4,1.1,0.8,1.7,1.2c0.2,0.1,0.3,0.2,0.5,0.4c1.6,1.2,3.3,2.3,5,3.4c0.4,0.3,0.9,0.6,1.3,0.9
		c0.4,0.3,0.7,0.5,1.1,0.8c0.1,0.1,0.2,0.2,0.4,0.2c2.3,1.6,4.6,3.1,7,4.7c0.3,0.2,0.6,0.4,0.8,0.6c2.6,1.7,5.3,3.4,8,5.1
		c0.1,0.1,0.2,0.1,0.2,0.2c0.3,0.2,0.7,0.4,1,0.6c0.3,0.2,0.6,0.4,0.9,0.6c2,1.2,3.9,2.5,5.9,3.7c0.1,0,0.1,0.1,0.2,0.1
		c0.7,0.4,1.4,0.9,2.1,1.3c0.1,0.1,0.2,0.1,0.4,0.2c1.8,1.1,3.7,2.2,5.5,3.3c0.1,0,0.1,0.1,0.2,0.1c0.8,0.5,1.6,1,2.5,1.4
		c0.1,0,0.1,0.1,0.2,0.1c1.9,1.1,3.7,2.2,5.6,3.2c0,0,0.1,0.1,0.1,0.1c0.1,0,0.2,0.1,0.2,0.1c0.7,0.4,1.5,0.8,2.2,1.3c0,0,0,0,0.1,0
		c2.1,1.2,4.2,2.3,6.3,3.5c0,0,0,0,0,0c0,0,0,0,0,0c10.6,5.7,21.3,11.2,32.2,16.3c0,0,0,0,0,0c1.3,0.6,2.5,1.2,3.8,1.8c0,0,0,0,0,0
		c1,0.4,2,0.9,2.9,1.3c0.3,0.1,0.6,0.3,0.9,0.4c0,0,0,0,0,0c1.3,0.6,2.5,1.1,3.8,1.7c0,0,0,0,0,0c15.2,6.7,30.7,12.7,46.5,18.1
		c0.3,0.1,0.5,0.2,0.8,0.3c0,0,0,0,0,0c0,0,0,0,0-0.1C432.4,1278.9,432.4,1277.3,432.4,1275.7z M935.1,835.9c0.6-0.9,1.2-2.6,2-3.7
		c1.9-2.7,4.3-4.8,7.9-4.5c7,0.5,13.6,1.3,19,6.4c9.5,9,16.4,19.1,20.9,31.5c-1.3,5.9-2.6,12.4-6,17.5c-2.7,1.1-4.9,1-7.5-0.6
		c-0.5-0.3-1.1-0.8-1.9-1.4c-0.6-0.5-1.7-1.5-2.5-2.3c-6.8-6.9-13.8-13.8-20.1-21.3c-1.6-1.9-3-3.9-4.4-5.8
		c-3.3-2.7-6.8-3.8-9.9-7.3C931.8,843.5,934.2,837.4,935.1,835.9z M908.2,885.6c4.4-9.9,9.2-19.3,14.6-28.8
		c2.7-4.7,7.3-3.8,10.5,0.2c0.8,1.1,1.6,2.4,2.3,3.7c9,16.2,20.4,29,34.4,41.2c0.7,0.6,1.7,2.2,2.3,3.1c-1,4.6-1.4,9-3,13.4
		c-3.3,9.5-6.4,19.6-10.7,28.7c-3.3,7-7.9,7.6-14,3.2c-4.1-3-8.1-7-11.2-11.3c-4.4-5.8-8.1-12.2-11.6-18.6
		c-3.3-6-6.4-11.9-10.8-17.3C906.6,897.9,905.4,892,908.2,885.6z M842.6,999.2c11-15.2,20.3-30.9,29-47.4
		c7.1-13.5,14.3-26.7,21.6-39.9c1.2-2.1,2.7-4.1,4.3-5.8c2.1-2.1,6.1-2.2,7.7,0.3c5.5,8.6,7.9,16,4,25.9c-4,9.9-8,19.9-11.8,30
		c-5,13.4-11.1,25.7-19.1,37.8c-6.5,9.8-12,19.8-18,30.3c-3.2,5.5-6.3,11.3-12.7,14c-1.6-2.2-3.8-4.4-4.8-7
		c-1.7-4.5-2.7-9.5-4.5-13.8C834.6,1014,837,1007,842.6,999.2z"/>
	<path class="st1" d="M635.2,193.7c27.1,4.6,53.1,14.2,77.2,28.5l62.7,43.1c0.3,0.2,0.6,0.3,1,0.3c0.4,0,0.7-0.1,1-0.4
		c0.5-0.5,0.6-1.2,0.2-1.8c-13.8-17.7-32-32-45-40.9c-0.1-0.3-0.3-0.7-0.6-0.9c-11.4-8.3-23.6-15.1-36.3-20.1
		c-3.8-1.8-7.7-3.2-11.7-4.1c-15.5-4.7-31.8-6.9-48.2-6.5c0,0,0,0,0,0c-0.8,0-1.4,0.6-1.5,1.3C633.9,192.9,634.5,193.5,635.2,193.7z
		"/>
</g>
</svg>
