<svg version="1.1" id="Layer_1" xmlns="http://www.w3.org/2000/svg" x="0" y="0" viewBox="0 0 1334.1 1141.4" xml:space="preserve">
  <style>
    .st0{fill:#fff}.st1{fill:#373737}
  </style>
  <path class="st0" d="M1291.1 707.6c-.2-.2-.4-.4-.7-.5-2.3-1.5-4.8-2.1-7.5-2-5.9.1-11.7 0-17.6.1-3.2.1-6.4.6-9.6.8-3.8.3-7.7.5-11.5.6-.7 0-1.2-.1-1.7-.4-.7-.4-1-1.2-.9-2.2.1-1.8.3-3.6.4-5.4.3-4.2.7-8.5.8-12.7.1-5.1 0-10.1-.1-15.2-.1-9.5-.9-19-2.2-28.4-1.7-12.9-4.4-25.5-7.1-38.2-2.7-13.1-5.8-26-9.8-38.8-2.2-6.9-3.8-14-5.7-21.1-1.3-4.9-2.4-9.8-4.2-14.5-3.4-9.1-7.4-18-10.8-27.1-4.8-12.6-10.9-24.4-19-35.1-5.7-7.5-12-14.1-20.1-19.1-6.8-4.2-14.3-7-22-8.1-6.1-.9-12.6-.5-18.8.1-12.5 1.2-23.9 6.1-34.9 11.6-8 4-15.2 9.2-22.4 14.5-5.6 4.1-10.1 9.3-14.7 14.4-8.4 9.2-14.6 19.9-19 31.5-4 10.4-7 21.1-9.3 32-.2 1.2-.6 2.4-1.3 3.3-1.1 1.4-1.4 2.7-1.3 4.5.1 1.4-.5 2.8-.8 4.1-3 12.4-6.4 24.7-9 37.1-2.3 10.9-5.4 21.6-8.6 32.2-3 10-8.4 18.8-16.1 25.9-1 0-1.8.2-2.6 0-7.1-1.8-14.5-1.6-21.7-2-13.3-.9-26.7-1.1-40-1.7h-1.2c-6.8-1.2-13.7-.9-20.6-1-19.4-.3-38.9 0-58.3 1.1-10.5.6-21 .8-31.5 1.5-8.1.5-16.1 1.6-24.1 2.5-8.6.9-17.3 1.7-26 2.6-6.6.7-13.3 1.4-19.9 2.3-4.8.6-9.6 1.3-14.4 2-4 .6-7.9 1.5-11.9 2.3-1.1-1-.8-2.1.1-2.8l12.2-5.9c.7-.2 1.3-.4 1.8-.9l2.8-1.4c2.2-.4 4-1.5 5.7-2.8l9.3-4.6c.4-.1.9-.3 1.3-.5.2-.1.4-.2.5-.4l3.7-1.8c.4-.1.9-.2 1.3-.4 7-3.1 14-6.4 21-9.5 3.5-1.5 7.1-2.9 10.7-4.2 3.8-1.4 7.7-2.4 11.4-4.1 8.8-4.2 17.9-7.4 27.2-10.4 8.7-2.8 17.3-5.6 25.9-8.4 3.1-1 6.3-1.8 9.2-3 3-1.3 5.1-3 4.4-6.1-.1-.7-.4-1.6-.9-2.5-1.9-3.6-3.5-7.3-5.3-10.9-7.3-15.2-12.7-31-17.9-47-1.4-4.4-2.7-8.9-4.1-13.3-.1-.3-.1-.5-.2-.7-.6-2.7.2-4.9 1.9-7.2 2.5-3.2 4.7-6.6 7-9.9 2.4-3.6 3.3-7.4 2.5-11.5-.1-.6-.3-1.2-.5-1.8-.1-.3-.1-.5-.2-.8-.7-2.5-.5-5.1.6-7.5 1.7-3.7 2-7.3 1.2-10.8-.5-2.2-1.5-4.3-2.9-6.5-.7-.9-1.1-2.1-1.4-3.4-.1-.6-.2-1.2-.3-1.7-.2-1.5-.4-3-.7-4.4-1.1-4.4-3.1-8.4-6.9-11.5-.9-.7-1.5-1.6-1.8-2.6-.1-.5-.2-1-.2-1.6 0-.8 0-1.6-.1-2.4-.1-.4-.2-.7-.3-1.1-1.6-6.5-4.7-12.2-11.3-15-5-2.1-10.4-3.3-16-2.9-1 .1-2 .3-3 .3-1.8.1-3.1-.7-3.8-2.4-.8-2-1.5-4.1-2-6.1 0-.1 0-.1-.1-.2-1.2-5.1-2.2-10.3-3.4-15.4-2.3-9.7-4.3-19.4-4-29.4.3-9.7 0-19.4 2.1-29 .4-1.9.7-3.7.9-5.6v-.1c1.2-9.4 6.9-37.7 6.9-37.7 2.9-10.9 5.8-21.7 8.7-32.4 0-.1.1-.2.1-.3.2-.6.3-1.1.5-1.7.1-.4.2-.7.2-.9.3-1.6.8-2.9 1.3-3.9l.5-.5c.3-.2.4-.5.5-.8.1-.2.1-.4.1-.6 0-.9-.5-1.9-1.5-2.4-4.3-1.8-8.8-1.2-15.2-1.5-4.6.5-11.3 1-17.9 1.9-4 .5-8 1.4-11.9 2.4-3.9.9-7.8 2-11.7 3.1-.6.2-1.2.3-1.8.5h-.2c3.3-11.8 4-24.6.5-36.4-.1-.2-.1-.4-.2-.5-.2-.5-.3-1.1-.5-1.6 0-.1-.1-.2-.1-.3-4.4-12.4-13.1-22.5-23.8-29.9-23.2-16.2-52-18.3-79.3-21.6l-2.4-.3c-19-2.4-39.5-6.4-55.7-17-3.4-3.3-7.2-6.3-11.3-8.7-25.2-15.3-57.3-20-85.9-12.5l-.9.2c-12.3 3.3-24 8.8-35.4 14.1-11.4 5.4-23.3 10.9-35.8 14.2-3 .8-6.1 1.4-9.2 2.1-3.2.7-6.4 1.4-9.6 2.2-4.2 1-8.3 2.5-12.2 4.4-10.7 5.3-19.2 15.4-23.4 27.7-2.7 8.1-3.3 16.5-1.9 24.3.4 2 .8 3.9 1.5 5.8.7 2.1 1.5 4.1 2.5 6 4.9 9.6 13.1 17.3 20.3 24.1l48.5 45.8c3 2.8 5.8 5.7 6.9 8.9.2.6.4 1.3.4 2 .3 2.6-.7 5.5-1.6 8l-6.1 17.9-1.8 5.1c-13.6 5.4-28.5 11.6-34.9 15.8-.4.2-.7.4-1.1.6-8 4.5-15.7 9.4-23.2 14.7-7.3 5.1-14.7 10.1-21.4 15.9-9.2 7.9-18.5 15.7-27.6 23.7-2.3 2-4.6 3.1-7.5 3.5-6.6 1-13.1 2.2-19.8 2.9-5.1.5-10.1.5-15.1.4-4.4-.1-8.9-.2-13.3-.4s-8.9-.1-13.3-.9c-6.6-1.1-13-2.9-19.5-4.2-12-2.5-23.3-6.6-32.5-15.2l-1.4-1.4c-.4-.5-.9-.9-1.3-1.4-2.4-2.8-4.2-6-5-9.8-.4-1.8-.8-3.5-1.4-5.2-.1-.2-.2-.3-.4-.4-.4-.3-1-.5-1.5-.7-.4-.1-1 .5-1.4.9-.3.3-.5.7-.5 1.1 0 3.4-1.8 6.2-2.9 9.2-1.5 4.4-2.5 8.9-3.1 13.6-.7 5.4-.9 10.9-2 16.2-1.8 8.8-2.3 17.6-2.8 26.5-.5 10.3-.6 20.6-.4 30.9.2 8.1.9 16.2 1.9 24.2 1.3 10.2 3.3 20.4 5.9 30.4 2.7 10.4 4.9 20.9 9.6 30.6.3.7.4 1.5.6 2.5-1.1 1-2.2 1.9-3.2 2.8-2.8 2.7-5.8 5.1-7.5 8.7-3.6 7.5-3.7 15.3-1.1 23 1.2 3.5 1.4 6.3.2 9.9-2.2 6.1-2.4 12.4 2.2 17.8 1.5 1.7 1.7 3.5 1.4 5.6-.3 2.2-.4 4.4-.4 6.7-.1 3.6.9 6.7 3 9.1.7.8 1.6 1.6 2.7 2.3.4.2.7.5 1 .8 1.2 1.1 1.8 2.5 2 4.2.4 2.5 1.2 5.1 3.1 7l.1.1c3.8 3.7 8 6.9 13.5 7.7 6.2.9 12.3 2.4 18.7.9.6-.1 1.2-.1 1.8-.2 1.1-.1 2 .2 2.7.8.4.4.8.9 1.1 1.5 3.4 7.6 7.8 14.6 12.4 21.5 2.2 3.2 4.7 6.1 7 9.2 2.8 3.7 5.9 7.2 9.2 10.4 3.5 3.4 7.1 6.6 11 9.6 5.7 4.5 11.9 8.4 18.1 12.1 16.2 9.8 33.8 15.3 52.6 16.8 9.7.8 19.4 1.2 28.9-1.3 1.6-.4 3.3-.6 5.1.5.1.1.2.1.3.2-1.1 2.2-3.1 3.1-5 4.2-4.6 2.6-9.3 4.9-13.7 7.7-8.7 5.5-17.5 11-25.9 16.8-11.6 8.1-23.1 16.4-34.5 24.8-8 5.9-15.6 12.2-23.4 18.4-4.6 3.7-9.1 7.4-13.5 11.2-2.9 2.5-5.6 5.3-8.4 7.9-4.3 4.2-8.7 8.5-13 12.8-2.7 2.7-5 5.8-7.9 8.4-7 6.4-12.4 14-16.9 22.1-6.2 11.1-5.8 19 1.1 27.7 3.6 4.6 7.2 9.1 11.3 13.3 2.4 2.5 5 4.9 7.8 7.1 7.6 6.1 15.4 11.8 24.9 14.8 1 .3 1.9.8 2.8 1.2.3.1.6.3.8.5.6.5.9 1.1.7 1.8-.2.8-.9 1.8-1.7 2.2-2.2 1-4.6 1.6-6.8 2.4-47.2 18.6-94.3 37.3-141.6 55.8-8.1 3.2-15.7 7.5-23.4 11.5-2.9 1.5-5.8 3-8.6 4.5-4.5 2.4-9 4.6-13.3 7.2-6.5 3.8-12.7 8-19.2 11.7-7.1 4.1-13.1 9.4-19.2 14.8-1.9 1.7-3.4 4-5 6.1-2 2.5-2.2 5.7-2.3 8.7-.1 1.5.4 2.9 1.5 4.1.4.4.8.8 1.2 1.1 1.3.9 2.7 1.8 3.9 2.8 8.6 6.6 18.5 9.9 29 11.7 5.4.9 10.9 1.1 16.3 1.6 18.2 1.5 36.4 1.3 54.6-.2 12.3-1 24.5-2.9 36.7-4.7 16.2-2.4 32.3-5.5 48.2-9.1 32.3-7.4 64.1-16.7 95.1-28.5 1.3-.5 2.7-1.2 4-1.3 2.9-.2 5.4-1.5 8.1-2.5 2.3-.9 4.5-1.7 6.8-2.6 5.9-2.1 11.9-4 17.7-6.3 12.8-5 25.7-9.9 38.2-15.5 14-6.2 28.2-12.2 42.4-17.9 1.3-.6 2.7-1.4 4.5-.6.1.1.2.1.3.2-.3 1.7-1.1 3.4-.9 5.1.3 2.8-.8 5.1-2 7.5-3.4 6.7-5.9 13.8-6.2 21.4-.6 12.8.6 25.4 6.6 37.2 2.6 5.2 5.7 9.7 9.5 13.6s8.3 7.2 13.5 9.7c6.2 3 12.3 6.1 19.4 6.7 3 .3 6 .9 9 1.3 12.9 1.7 25.4 0 37.3-5.4 9.2-4.2 16.9-10.6 22.8-18.6 10-13.6 12.5-29.2 10.3-45.6-1.3-9.6-5.2-18.3-10.6-26.2-1.4-2-2-3.8-1.5-6.2.9-4.2.5-8.4-.6-12.6-.6-2.3-1-4.8-1.3-7.2-.1-.7.3-1.7.8-2.1 1.2-1.1 3.4-.8 4.6.3.3.2.5.5.6.8.9 2.3 1.5 4.6 2.3 6.9 1.9 5.2 4.7 9.9 8.4 13.8 1.3 1.3 2.7 2.6 4.2 3.7 5.8 4.4 12.4 7.6 19.6 9.4 7.9 2 15.9 2.5 24.1 2.3 12.1-.3 23.5-3.2 34.2-9 10.1-5.5 16.7-13.9 20.8-24.4 2.3-5.8 3.9-11.9 4.5-17.9 1.9-1.6 3.9-1.8 5.9-2.1 10.6-1.8 21.1-3.4 31.7-5.5 8.3-1.6 16.5-3.7 24.8-5.6 24-5.6 48-11.1 71.9-17 17.3-4.2 34.5-8.6 51.4-14.1 17.7-5.7 35.5-11 53.2-16.6 14.1-4.5 28-9.2 42-13.8 8.8-2.9 17.8-5.4 26.5-8.6 16.1-5.9 32.1-12.2 48.1-18.4 9.4-3.6 18.8-7.3 28.2-11 7.3-2.9 14.6-5.9 21.9-8.9 6.2-2.5 12.4-5 18.5-7.6 8.2-3.6 16.3-7.2 24.3-11 2.1-1 4.1-1.4 6.4-.8 3.7 1 7.5 1.6 11.2 2.7 10 3.2 20.1 6.2 30.3 8.5 1.1.2 2 .6 2.6 1.2.8.7 1.3 1.8 1.5 3.3.8 5.7 3.2 10.6 7.1 14.6.9 1 2 1.9 3.1 2.7 7 5.5 14.7 9.2 24 8.6 1-.1 2 0 3 .1 4.1.1 8-.7 11.7-2.7l6.3-3.6c4.7-2.5 7.6-6.6 9.9-11.2 2.2-4.4 2.8-9.3 3.6-14.1.1-.6-.1-1.2-.1-1.8-.9-8.3-3.7-15.6-9.4-21.9-.6-.7-1.2-1.3-1.9-1.9-4.4-4.3-9.6-7.3-15.6-8.2-10.8-1.7-21.1-.1-29.5 7.6-2 1.9-4.3 2.3-6.7 1.6-4.3-1.1-8.6-2.4-12.8-3.7-.5-.2-1-.4-1.4-.8-.3-.4-.5-.8-.4-1.6.6-.5 1.2-1.3 2.1-1.9 3.4-2.2 6.7-4.5 10.4-6.3 9.1-4.5 17.4-10.3 25.3-16.5 2.9-2.2 5.7-4.6 8.2-7.2 5.9-6.4 11.8-12.8 16.7-20 1.2-1.7 2.5-3.1 4.4-4 1.7-.7 3.3-1.6 4.9-2.4 8.1-4.5 16.4-8.9 24.4-13.6 5.9-3.5 11.6-7.4 17.2-11.3 5.8-4 11.5-8.3 17.1-12.5 1-.7 1.8-1.6 2.6-2.6.6-1.7.4-3.4-1-4.8z"/>
  <path class="st0" d="M749.2 977.9v-.2l-.5.1zM776.9 1024.7l.2-.2.2-.1h-.2z"/>
  <g>
    <path class="st1" d="M793 294.9c.7 0 1.3.1 1.8.1.7-1.4 1.7-2.6 2.9-3.5 2.9-10.9 5.8-21.7 8.7-32.4 0-.1.1-.2.1-.3.3-1.1.6-2.1.8-3.2-7.7 12.1-11.8 25.4-14.3 39.3z"/>
    <path class="st1" d="M1291.1 707.6c-.2-.2-.4-.4-.7-.5-2.3-1.5-4.8-2.1-7.5-2-5.9.1-11.7 0-17.6.1-3.2.1-6.4.6-9.6.8-3.8.3-7.7.5-11.5.6-.7 0-1.2-.1-1.7-.4-.7-.4-1-1.2-.9-2.2.1-1.8.3-3.6.4-5.4.3-4.2.7-8.5.8-12.7.1-5.1 0-10.1-.1-15.2-.1-9.5-.9-19-2.2-28.4-1.7-12.9-4.4-25.5-7.1-38.2-2.7-13.1-5.8-26-9.8-38.8-2.2-6.9-3.8-14-5.7-21.1-1.3-4.9-2.4-9.8-4.2-14.5-3.4-9.1-7.4-18-10.8-27.1-4.8-12.6-10.9-24.4-19-35.1-5.7-7.5-12-14.1-20.1-19.1-6.8-4.2-14.3-7-22-8.1-6.1-.9-12.6-.5-18.8.1-12.5 1.2-23.9 6.1-34.9 11.6-8 4-15.2 9.2-22.4 14.5-5.6 4.1-10.1 9.3-14.7 14.4-8.4 9.2-14.6 19.9-19 31.5-4 10.4-7 21.1-9.3 32-.2 1.2-.6 2.4-1.3 3.3-1.1 1.4-1.4 2.7-1.3 4.5.1 1.4-.5 2.8-.8 4.1-3 12.4-6.4 24.7-9 37.1-2.3 10.9-5.4 21.6-8.6 32.2-3 10-8.4 18.8-16.1 25.9-1 0-1.8.2-2.6 0-7.1-1.8-14.5-1.6-21.7-2-13.3-.9-26.7-1.1-40-1.7h-1.2c-6.8-1.2-13.7-.9-20.6-1-19.4-.3-38.9 0-58.3 1.1-10.5.6-21 .8-31.5 1.5-8.1.5-16.1 1.6-24.1 2.5-8.6.9-17.3 1.7-26 2.6-6.6.7-13.3 1.4-19.9 2.3-4.8.6-9.6 1.3-14.4 2-4 .6-7.9 1.5-11.9 2.3-1.2-1.1-.7-2.3.3-3 .6-.4 1.1-.8 1.7-1.1 1.4-.8 2.8-1.6 4.1-2.3-.3-.3-.7-.7-1.2-1.3 6.4-10.7 13-21 22.4-29.3 9.4-8.4 17.8-17.7 24.2-28.6 2.5-4.2 5.7-7.9 9.5-11 4.4-3.6 9-6.9 13.5-10.4 4.2-3.2 8.5-6.2 12.5-9.6 6.8-5.8 11.7-12.9 13.1-21.9.4-2.6.5-5.2.5-7.9 0-2.2.7-3.9 2.5-5.2 3.9-2.9 7.7-5.9 11.6-8.8.4-.3 1.1-.3 2.1-.4.6 1.5 1.2 2.9 1.7 4.4 1.8 5.8 3.1 11.8 5.2 17.4 5.8 15.3 11.1 30.9 18 45.7.8 1.6 1.4 3.4 2 5.1.5 1.5-.1 2.9-1.5 3.6-.9.5-1.8.9-2.8 1.2-7.3 2.6-14.6 5-21.8 7.6-11 4-22 8.1-33 12.3-6 2.3-12 4.9-17.9 7.5-10 4.5-19.9 9-29.8 13.6-.8.4-1.4 1.1-2 1.7 1.3-.2 2.7-.2 3.8-.7 7-3.1 14-6.4 21-9.5 3.5-1.5 7.1-2.9 10.7-4.2 3.8-1.4 7.7-2.4 11.4-4.1 8.8-4.2 17.9-7.4 27.2-10.4 8.7-2.8 17.3-5.6 25.9-8.4 3.1-1 6.3-1.8 9.2-3 3-1.3 5.1-3 4.4-6.1-.1-.7-.4-1.6-.9-2.5-1.9-3.6-3.5-7.3-5.3-10.9-7.3-15.2-12.7-31-17.9-47-1.4-4.4-2.7-8.9-4.1-13.3-.1-.3-.1-.5-.2-.7-.6-2.7.2-4.9 1.9-7.2 2.5-3.2 4.7-6.6 7-9.9 2.4-3.6 3.3-7.4 2.5-11.5-.1-.6-.3-1.2-.5-1.8-.1-.3-.1-.5-.2-.8-.7-2.5-.5-5.1.6-7.5 1.7-3.7 2-7.3 1.2-10.8-.5-2.2-1.5-4.3-2.9-6.5-.7-.9-1.1-2.1-1.4-3.4-.1-.6-.2-1.2-.3-1.7-.2-1.5-.4-3-.7-4.4-1.1-4.4-3.1-8.4-6.9-11.5-.9-.7-1.5-1.6-1.8-2.6-.1-.5-.2-1-.2-1.6 0-.8 0-1.6-.1-2.4-.1-.4-.2-.7-.3-1.1-1.6-6.5-4.7-12.2-11.3-15-5-2.1-10.4-3.3-16-2.9-1 .1-2 .3-3 .3-1.8.1-3.1-.7-3.8-2.4-.8-2-1.5-4.1-2-6.1 0-.1 0-.1-.1-.2-1.2-5.1-2.2-10.3-3.4-15.4-2.3-9.7-4.3-19.4-4-29.4.3-9.7 0-19.4 2.1-29 .7-3.4 1.1-6.8 1.5-10.2.1-.9 0-2.1-1.8-1.6-.7 4.1-1.4 8.2-2.2 12.4-2.3 12-3.8 24-4 36.2-.1 5.2.6 10.5 1.1 15.7.9 9.7 2.2 19.3 5.9 28.5.8 2.1 1.5 4.2 2.1 6.4.3.9.2 1.9.3 3.2-1.9 0-3.5.1-5 .1-8.3 0-15.5 4.4-13.1 14.9.6 2.8 1.2 5.6 2.3 8.1 1.4 3.1 1.1 5.9-.1 8.8-.5 1.1-1.2 2.2-1.5 3.3-1.3 3.8-2.7 7.6-3.6 11.6-1.1 4.8-.8 9.7.8 14.4.3.9.5 1.8.9 3-2.8.9-5.3 1.5-7.8 2.5-2.6 1-4.8 2.7-7.6 3.5-.9-1.3-1.4-2.4-2.2-3.2-1.4-1.4-2.8-3-4.6-3.8-5.4-2.4-10.9-4-17.1-2.8-4.8.9-9.6 1.2-14.4-.5-1.1-.4-2.4-.5-3.6-.8-10-2.3-19.6-1.5-29.1 2.5-2.2.9-4.6 1.4-7 1.7-8.3 1-16.4 2.6-24.1 5.8-6.1 2.5-11.9 5.2-15.7 10.8-1.1 1.6-2.7 2.4-4.5 2.8-1.6.3-3.2.7-4.8 1-1.9.3-3.1-.8-2.8-2.8.2-1.2.6-2.4.8-3.6 2.2-12.4 5.9-24.4 9.5-36.4 1.1-3.9 2.7-7.6 4.4-11.3.6-1.4 1.8-2.9 3.1-3.5 5.9-2.7 9.3-7.7 12.5-12.8.8-1.3 1.7-2.7 2.3-3.8.6-.1 1-.3 1.3-.3.6-5.7 1.8-11.3 3.2-16.9-.7-.4-1.4-.9-2-1.4-8-6.8-17.1-12.2-26.1-17.5 2 3 3.9 6.3 5.5 9.7 1 2 1.5 4 .9 6.2-2.2-1-3-3.1-4-5-2.3-4.4-5.7-7.8-9.5-10.9-.7-.6-1.7-.9-2.6-1.5-.1 1.6-.3 2.9-.4 4.4-1.7-.4-3-.7-4.6-1.1.3 2.5 1.3 4.2 2.2 5.9.9 1.7 2.6 3.2 1.7 5.5-2.4-.5-3.2-2.6-4.6-4-1.7-1.6-2.2-2-4.9-2.9 1.5 4.4 5.8 7.5 5.6 13.1-1.2-.7-1.9-1-2.4-1.5-1.3-1.3-2.3-2.8-3.6-4.1-.4-.4-1-1.5-2-.2.7 1.5 1.5 3.2 2.2 4.8s2.1 3.1.9 5.1c-.9.2-1.8.3-3 .6.7 1.3 1.3 2.3 1.8 3.4 2.1 4.2 3.3 8.7 3.8 13.3.1 1.1-.2 2.5-1.8 2.6-.7.1-1.5 0-2.4 0-.5 6.1-.9 11.9-1.3 17.7-.1 1.2.2 2.4.4 3.6.1.3.5.8.8.8.5 0 1.4-.2 1.5-.5.6-1.7 1.1-3.4 1.6-5.2.3-1.1.5-2.2.7-3.6 4.1 1 6.3-.3 7.7-4.1.8-2.2 2.6-4 4.1-5.9.2-.3 1.2-.4 1.6-.2.4.3.7 1.1.6 1.5-1 2.4-2.1 4.8-3.1 7.2-5 12-8.1 24.6-9.9 37.4-.9 6.4-2.4 12.7-2.5 19.3 0 2-.9 3.5-2.7 4.4-.9.5-1.8 1-2.6 1.6-3.3 2.6-6.9 5-8.9 9-1.6 3.2-4.1 4.6-7.6 5.1-6.5 1.1-12.3 4-17.7 7.6-5.3 3.5-8.7 8.4-11.1 14.1-.8 2-1 4.3-1.7 6.4-.3 1.1-.8 2.4-1.7 3.1-1.6 1.2-3.2 2.6-5.4 2.3-1.1-.2-1.2.3-1.6 1.1-.6 1.2-1.5 2.4-2.4 3.4-4.4 4.9-7.7 10.4-9.8 16.6-.4 1.1-1 2.1-1.6 3.5-1.5-.7-2.8-1.1-4-1.9-3.4-2.2-6.7-4.4-10.2-6.6-2.7-1.7-5.6-3.3-8.2-5.1-8.8-6.1-17.5-12.3-26.2-18.6-4.9-3.6-9.5-7.5-14.2-11.4-4.1-3.3-8.2-6.6-12.2-10-.6-.5-.8-1.6-1.2-2.5 2.3-1.4 4.5-1.8 6.7-2.2 3.2-.5 6.3-.8 8.8 2.3 1.5 1.9 3.7 1.6 5.2-.3 1.7-2.2 3.1-4.7 4.5-7.1 1.5-2.4 2.7-5 4.4-7.2 2.5-3.2 5.4-6 8.2-8.9.8-.8 1.8-1.4 2.7-2.1 3.8 2.1.8 6.9 4.1 9 .4-1.8.9-3.6 1.1-5.4.6-4.4 1.1-8.8 1.5-13.3.1-.8-.7-1.6-1.1-2.4-7.1 3.9-7.5 7.2-28.3 9.1 4.1 3.4 9.3 2.9 14 5.2-1.4 1.3-2.4 2.4-3.4 3.2-3.9 2.9-7.9 5.6-11.9 8.5-6.5 4.8-13.8 7.3-21.7 8.6-5.8 1-9.8-1-13.4-5.1s-6.7-8.7-9.3-13.5c-3.5-6.5-7.7-12.3-13-17.4-.6-.6-1-1.6-1.7-2.8 1.7-.2 2.9-.6 4-.5 4.6.5 8.8-1.1 13-2.5 2.9-1 3.9-2.5 3.7-5.5-.2-4.1-2-7.4-5.7-9.4-6.2-3.4-12.4-2.5-18.6 0 1.6.5 3.2.5 4.7.7 4 .7 8 1.4 11.9 2.3 1.9.4 3.3 1.8 3.4 3.8.1 2.1-1.3 3.3-3 4.2-.7.4-1.5.6-2.3.9-3.6 1.4-7.4 2-11.3 2-3.2 0-6.4.3-9.6.8-3.8.5-7.7.6-11.5 0-8.4-1.2-16.8-2.7-25.1-4.4-7.7-1.6-15.4-3.5-23-5.3-1.8-.4-3.5-1-5.2-1.7-3.7-1.4-5.9-4.1-7-7.8-.6-2 .3-3.8 2.3-4.3 1.7-.4 3.6-.6 5.4-.4 6.7.5 13.3.2 20-.7 2.6-.4 5.3-.3 7.8-.8 6.2-1.1 12.3-2.5 18.4-3.8.2 0 .4-.1.6-.2 4.7-1.9 9.4-3.8 14-5.8 1.2-.5 2.5-1.4 3.3-2.5 3-3.9 5.1-8.1 4.8-13.4-.4-5.8-.7-11.7-1-17.6-.5-9.5-.3-19 .1-28.5.2-4 1.5-7.9 2.4-11.8.6-2.6 1.3-5.1 2-7.6.5-1.9 1.1-3.8 1.7-5.7 3.7-1.4 7.6-2.3 11.6-2.3.7-.3 1.3-.5 1.7-.7 3.8-1.7 7.6-3.3 11.5-4.7 7.2-2.3 14.5-4 21.9-5.1 10.4-1.6 21-2.4 31.6-2.3h1c7.4.7 14.8 1.8 22.2 3.3 5.2 1 10.4 2.3 15.5 3.7-.2.1-.4.2-.6.2-1.9.5-4 .7-5.9 1.3-3.8 1.2-7.8 1.9-11.3 3.9-.2.1-.2.7-.3 1.4 1.4.3 2.8.7 5.1 1.2-2.8 2.1-5.1 3.8-7.4 5.5 2.2-.3 4.5-.5 6.7-.8 1-.1 2-.2 3-.2.3 0 .7.4.7.7.1.3 0 .9-.3 1.1-2.3 1.1-4.7 2.2-7 3.3-1.1.6-2.2 1.3-3.2 1.9 1.5-.1 2.9-.1 4.4-.4 5.2-1 10.3-2.1 15.4-3.1.8-.2 1.8.2 3.1.4-.6.9-.9 1.5-1.3 1.7-1.3.6-2.7 1-4 1.5-6.4 2.5-12.8 5-19.1 7.6-1.4.6-2.5 1.7-4.3 2.9 3.3.8 5.6-.2 7.7-1.1 6.9-3.1 14.4-4.1 21.7-5.6 1.1-.2 2.3.1 4.2.2-1 1-1.4 1.7-2.1 2-1.1.5-2.3.8-3.4 1.2-6.3 2.3-12.6 4.5-18.8 6.8-1.9.7-3.9 1.3-5.1 3.6 9.1-1 17.5-5.3 27.6-5.2-1.4 1.2-2 2.1-2.7 2.3-4.2 1.5-8.4 2.9-12.7 4.2-4.1 1.3-7.8 3.2-11.5 5.3-.7.4-1.8.9-1.4 2.3.6 0 1.2.1 1.7 0 2.2-.5 4.3-1.1 6.4-1.7 1.7-.5 3.4-1.2 5.2-1.6 1-.2 2 .2 1.6 2-5.2 2.9-11.3 4.6-16 9.1 2.2 1.2 3.8.6 5.5-.1 2.8-1 5.7-1.9 8.7-2.7.6-.2 1.3.2 2.4.4-.8.8-1.1 1.4-1.6 1.6-3.1 1.4-6.3 2.8-9.4 4.2-1.6.8-3.2 1.8-4.6 2.8-.3.2-.5 1.1-.4 1.6.2.5.9 1.1 1.3 1 1.6-.2 3.2-.5 4.7-.9 1.9-.5 3.6-1.8 5.9-1.2-.2 2.1-1.9 2.6-3.1 3.4-1.8 1.2-3.7 2.4-5.5 3.7-.2.2-.3.9-.2 1.1.3.4.8.8 1.3 1 .3.2.8.1 1.2 0 5.4-1.5 11-2.4 16.2-4.7 3.5-1.6 5.6-3.8 6.9-7.1 1.7-4.6 1.7-4.6 6-1.2 1.1-1.4 2.4-2.7 3.3-4.1 4.5-7.2 11.8-8.9 19.5-9 5-.1 9.8 1.7 14.4 4.3 6.6 3.8 10.4 9.1 11.1 16.9.9 9.8-1.3 18.4-8.1 25.8-3.1 3.4-6 7.2-8.8 10.8-1 1.3-1.7 2.8-2.4 4.2-.6 1.3-1 2.6-1.6 3.9-2.7 6-6.8 10-14 9.4-1-.1-2.1 0-2.5 1.4.2.4.4 1.1.8 1.4 4.2 2.8 8.8 3.8 13.9 3.2 4.2-.5 7.3-2.5 9.2-6.1 1.3-2.5 2.3-5.2 3.1-7.9.6-2 1.2-3.8 2.7-5.3 5.7-5.3 9.8-11.8 12.9-18.9 3.8-8.5 4.6-17.3 1.4-26-4.2-11.8-12.2-20.3-25.8-22.2-1.9-.3-4-.1-5.8-1.7.5-.6.8-1.3 1.2-1.3 3-.6 6-1.1 8.9-1.6 3-.5 6-1 8.9-1.5.3-.1.5-.6.6-.8.6-2.3-3.4-1.5-2.5-4.4 3.1-.7 6.5-1.3 9.8-2.1.9-.3 1.5-.9 1.1-2.2 4.7 1.5 9.4 3.1 13.9 5.1 5.3 2.4 10.5 5.1 15.2 8.5 3.2 2.3 6 5.2 9.2 7.6 3.2 2.5 6.8 4 10.3 6 0-.1.1-.2.1-.2-.3-.9-.5-1.9-.4-3 .1-3.8.4-7.7 1.3-11.5V389v-.3c-.2-.7-.4-1.4-.5-2 6.6-25.9 26.4-45.6 45.1-63.5 18.6-17.7 38.2-36 47.8-60.2 8.2-2.3 16.5-4.3 24.9-5.9 6.6-1.2 13.1-2.4 19.8-3.2 5.6-.6 11-2.6 16.8-1.4.3.1.7-.4 1-.7.3-.2.4-.5.5-.8.4-1.1-.1-2.4-1.4-3-4.3-1.8-8.8-1.2-15.2-1.5-4.6.5-11.3 1-17.9 1.9-4 .5-8 1.4-11.9 2.4-3.9.9-7.8 2-11.7 3.1-.6.2-1.2.3-1.8.5h-.2c3.3-11.8 4-24.6.5-36.4-.1-.2-.1-.4-.2-.5-.2-.5-.3-1.1-.5-1.6 0-.1-.1-.2-.1-.3-4.4-12.4-13.1-22.5-23.8-29.9-23.2-16.2-52-18.3-79.3-21.6l-2.4-.3c-19-2.4-39.5-6.4-55.7-17-3.4-3.3-7.2-6.3-11.3-8.7-25.2-15.3-57.3-20-85.9-12.5l-.9.2c-12.3 3.3-24 8.8-35.4 14.1-11.4 5.4-23.3 10.9-35.8 14.2-3 .8-6.1 1.4-9.2 2.1-3.2.7-6.4 1.4-9.6 2.2-4.2 1-8.3 2.5-12.2 4.4-10.7 5.3-19.2 15.4-23.4 27.7-2.7 8.1-3.3 16.5-1.9 24.3.4 2 .8 3.9 1.5 5.8.7 2.1 1.5 4.1 2.5 6 4.9 9.6 13.1 17.3 20.3 24.1l48.5 45.8c3 2.8 5.8 5.7 6.9 8.9.2.6.4 1.3.4 2 .3 2.6-.7 5.5-1.6 8l-6.1 17.9L429 350c-1.5 4.4-2.2 9-4 13.4 0 .1-.1.3-.2.4-2.2 2.5-3.3 5.5-4.5 8.4-1.3 3-2.1 6.1-3.3 9.1-1.1 2.9-.7 6.2-2.4 9.1-.5 2.8-1 5.6-1.4 8.3 0 .2-.1.3-.1.4l.1.1c.1 1.2.4 2.6.2 4-1 5.2-.8 10.5-.8 15.7 0 4.3-.1 8.5-.2 12.8-.1 7.4-3.5 12.6-10.1 15.9-7.3 3.6-15 6.1-22.8 8.1-10 2.6-20.3 3.5-30.5 4.8-2.8.3-5 1.3-7 3.3-1.6 1.6-2.1 3.4-1.6 5.5.6 2.7 1.9 5 4.1 6.6 2.4 1.7 5.1 3.2 7.8 4.6 1.7.9 3 1.9 3.9 3.6 6.2 11.8 12.5 23.6 18.9 35.3 4.1 7.5 8.5 14.7 12.7 22.1 1.4 2.5 2.7 5 3.9 7.5 4.8 10.5 10.6 20.5 17.1 30.1 2.1 3.2 4.2 6.4 6.4 9.6.5.7 1.3 1.1 2 1.6-.8-1.7-1.4-3.5-2.3-5.1-4.2-6.9-8.5-13.8-12.6-20.7-2.3-3.8-4.5-7.7-6.4-11.7-4.5-9.8-10.3-18.8-15.5-28.2-1.5-2.7-3-5.3-4.4-8-4.8-8.9-9.6-17.8-14.3-26.8l-2-4c.5-1.6 1.5-1.8 2.5-1.6 1.4.2 2.7.7 4.1 1 13.4 3.1 26.8 6.1 40.2 9.2 3.3.8 6.7 1.3 10.1 2 4.1.9 7.5 2.9 10.2 6.2 2.4 3 4.9 5.9 7.1 9.1 3.6 5.1 7.2 10.2 11.4 15 3 3.4 6.6 5.5 11.1 5.4 3.1-.1 5.4 1 7.3 3.5 2.8 3.5 5.8 6.8 8.7 10.1.9 1.1 1.8 2.2 2.9 3.1 6.8 5.8 13.4 11.8 20.5 17.2 10 7.6 20.4 14.6 30.6 21.9 4.3 3 8.7 6 12.8 9.1 1.9 1.4 3.5 3.3 5.1 5.1.8.9 0 2.6-1.2 2.8-1.4.2-2.8.3-4.2.3-10.9-.2-21.2 2.8-31.4 6.1-8.9 2.9-17.6 6.1-26.4 9-13.6 4.5-27.2 4-40.4-1.1-8.3-3.2-16.7-4.8-25.5-4.3-5.9.3-11.7.8-17.6.9-7.9.1-15.8.1-23.5-1.7-4.7-1.1-9.5-1.9-14.3-2.6-7-1.1-14.1 0-21.2 0-2.6 0-5.3.2-7.9.2-6.9.1-13.7-.7-20.3-3.1-2.8-1-5.8-1.8-8.7-2.5-4.2-1-8.5-1.1-12.4 1.2-3 1.8-6.1 2-9.3 1.6-2.6-.4-5.2-.7-7.8-1.2-1.9-.4-2.8-1.5-2.9-3.4-.1-1.8 0-3.6 0-5.5 0-6.1-2.1-11.6-6.4-15.9-2.8-2.9-6-5.4-9-8.1-.5-.4-1-.7-1.5-1.1-2.8-2.4-3.4-4.8-2-8.1.6-1.3 1.3-2.5 2-3.8 1.7-3.1 2.5-6.4 3-9.8.9-7.2-3.1-9.9-7.8-11-3.4-.8-6.8-.4-10 1.3-6.3 3.3-10.9 8.3-13.9 14.8-2.1 4.5-3.2 9.1-2.9 14.1.3 6.3 0 6.5-6.5 5.3l-1.8-.3c-3.8-.5-5.9-2.6-7.3-6.2-4.1-10.4-7.7-20.9-10.1-31.8-1.9-8.7-4.4-17.3-6.6-25.9-2.2-8.5-2.9-17.1-4-25.8-1.9-14.9-1.1-29.9-1-44.9 0-4 .5-8.1 1.1-12.1 1.7-12.8 1.8-25.8 4.8-38.5.5-2.2.9-4.4 1.5-6.5.3-.8 1-1.5 1.5-2.1 1.9.1 2.5 1.4 2.8 2.5 1.9 6.5 6.1 11.1 11.2 15.5 7.4 6.4 16 10.2 25.1 13 13.2 4 26.7 6.7 40.4 8.4 12.2 1.5 24.6 1.5 36.9-.1 3.8-.5 7.6-1.1 11.4-1.7 4-.6 4.8-.3 6.7 3.4 4 7.9 8 15.9 12 23.9.4.7.8 1.3 1.2 2 1.2-.8.4-1.5.1-2.1-3.9-8.2-7.7-16.5-11.6-24.7-.4-.9-.9-1.8-1.4-2.7-.6-1.4-.6-2.8.4-4 1.1-1.4 2.2-2.9 3.4-4.2 7-7.7 14.7-14.4 22.4-21.3 10-8.9 20.8-16.7 32.1-23.9 3.5-2.3 7.2-4.4 10.8-6.5.5-2 1.1-3.9 1.7-5.7-8.4 4.7-16.4 9.8-24.3 15.3-7.3 5.1-14.7 10.1-21.4 15.9-9.2 7.9-18.5 15.7-27.6 23.7-2.3 2-4.6 3.1-7.5 3.5-6.6 1-13.1 2.2-19.8 2.9-5.1.5-10.1.5-15.1.4-4.4-.1-8.9-.2-13.3-.4s-8.9-.1-13.3-.9c-6.6-1.1-13-2.9-19.5-4.2-12-2.5-23.3-6.6-32.5-15.2l-1.4-1.4c-.4-.5-.9-.9-1.3-1.4-2.4-2.8-4.2-6-5-9.8-.4-1.8-.8-3.5-1.4-5.2-.1-.2-.2-.3-.4-.4-.4-.3-1-.5-1.5-.7-.4-.1-1 .5-1.4.9-.3.3-.5.7-.5 1.1 0 3.4-1.8 6.2-2.9 9.2-1.5 4.4-2.5 8.9-3.1 13.6-.7 5.4-.9 10.9-2 16.2-1.8 8.8-2.3 17.6-2.8 26.5-.5 10.3-.6 20.6-.4 30.9.2 8.1.9 16.2 1.9 24.2 1.3 10.2 3.3 20.4 5.9 30.4 2.7 10.4 4.9 20.9 9.6 30.6.3.7.4 1.5.6 2.5-1.1 1-2.2 1.9-3.2 2.8-2.8 2.7-5.8 5.1-7.5 8.7-3.6 7.5-3.7 15.3-1.1 23 1.2 3.5 1.4 6.3.2 9.9-2.2 6.1-2.4 12.4 2.2 17.8 1.5 1.7 1.7 3.5 1.4 5.6-.3 2.2-.4 4.4-.4 6.7-.1 3.6.9 6.7 3 9.1.7.8 1.6 1.6 2.7 2.3.4.2.7.5 1 .8 1.2 1.1 1.8 2.5 2 4.2.4 2.5 1.2 5.1 3.1 7l.1.1c3.8 3.7 8 6.9 13.5 7.7 6.2.9 12.3 2.4 18.7.9.6-.1 1.2-.1 1.8-.2 1.1-.1 2 .2 2.7.8.4.4.8.9 1.1 1.5 3.4 7.6 7.8 14.6 12.4 21.5 2.2 3.2 4.7 6.1 7 9.2 2.8 3.7 5.9 7.2 9.2 10.4 3.5 3.4 7.1 6.6 11 9.6 5.7 4.5 11.9 8.4 18.1 12.1 16.2 9.8 33.8 15.3 52.6 16.8 9.7.8 19.4 1.2 28.9-1.3 1.6-.4 3.3-.6 5.1.5.1.1.2.1.3.2-1.1 2.2-3.1 3.1-5 4.2-4.6 2.6-9.3 4.9-13.7 7.7-8.7 5.5-17.5 11-25.9 16.8-11.6 8.1-23.1 16.4-34.5 24.8-8 5.9-15.6 12.2-23.4 18.4-4.6 3.7-9.1 7.4-13.5 11.2-2.9 2.5-5.6 5.3-8.4 7.9-4.3 4.2-8.7 8.5-13 12.8-2.7 2.7-5 5.8-7.9 8.4-7 6.4-12.4 14-16.9 22.1-6.2 11.1-5.8 19 1.1 27.7 3.6 4.6 7.2 9.1 11.3 13.3 2.4 2.5 5 4.9 7.8 7.1 7.6 6.1 15.4 11.8 24.9 14.8 1 .3 1.9.8 2.8 1.2.3.1.6.3.8.5.6.5.9 1.1.7 1.8-.2.8-.9 1.8-1.7 2.2-2.2 1-4.6 1.6-6.8 2.4-47.2 18.6-94.3 37.3-141.6 55.8-8.1 3.2-15.7 7.5-23.4 11.5-2.9 1.5-5.8 3-8.6 4.5-4.5 2.4-9 4.6-13.3 7.2-6.5 3.8-12.7 8-19.2 11.7-7.1 4.1-13.1 9.4-19.2 14.8-1.9 1.7-3.4 4-5 6.1-2 2.5-2.2 5.7-2.3 8.7-.1 1.5.4 2.9 1.5 4.1.4.4.8.8 1.2 1.1 1.3.9 2.7 1.8 3.9 2.8 8.6 6.6 18.5 9.9 29 11.7 5.4.9 10.9 1.1 16.3 1.6 18.2 1.5 36.4 1.3 54.6-.2 12.3-1 24.5-2.9 36.7-4.7 16.2-2.4 32.3-5.5 48.2-9.1 32.3-7.4 64.1-16.7 95.1-28.5 1.3-.5 2.7-1.2 4-1.3 2.9-.2 5.4-1.5 8.1-2.5 2.3-.9 4.5-1.7 6.8-2.6 5.9-2.1 11.9-4 17.7-6.3 12.8-5 25.7-9.9 38.2-15.5 14-6.2 28.2-12.2 42.4-17.9 1.3-.6 2.7-1.4 4.5-.6.1.1.2.1.3.2-.3 1.7-1.1 3.4-.9 5.1.3 2.8-.8 5.1-2 7.5-3.4 6.7-5.9 13.8-6.2 21.4-.6 12.8.6 25.4 6.6 37.2 2.6 5.2 5.7 9.7 9.5 13.6s8.3 7.2 13.5 9.7c6.2 3 12.3 6.1 19.4 6.7 3 .3 6 .9 9 1.3 12.9 1.7 25.4 0 37.3-5.4 9.2-4.2 16.9-10.6 22.8-18.6 10-13.6 12.5-29.2 10.3-45.6-1.3-9.6-5.2-18.3-10.6-26.2-1.4-2-2-3.8-1.5-6.2.9-4.2.5-8.4-.6-12.6-.6-2.3-1-4.8-1.3-7.2-.1-.7.3-1.7.8-2.1 1.2-1.1 3.4-.8 4.6.3.3.2.5.5.6.8.9 2.3 1.5 4.6 2.3 6.9 1.9 5.2 4.7 9.9 8.4 13.8 1.3 1.3 2.7 2.6 4.2 3.7 5.8 4.4 12.4 7.6 19.6 9.4 7.9 2 15.9 2.5 24.1 2.3 12.1-.3 23.5-3.2 34.2-9 10.1-5.5 16.7-13.9 20.8-24.4 2.3-5.8 3.9-11.9 4.5-17.9 1.9-1.6 3.9-1.8 5.9-2.1 10.6-1.8 21.1-3.4 31.7-5.5 8.3-1.6 16.5-3.7 24.8-5.6 24-5.6 48-11.1 71.9-17 17.3-4.2 34.5-8.6 51.4-14.1 17.7-5.7 35.5-11 53.2-16.6 14.1-4.5 28-9.2 42-13.8 8.8-2.9 17.8-5.4 26.5-8.6 16.1-5.9 32.1-12.2 48.1-18.4 9.4-3.6 18.8-7.3 28.2-11 7.3-2.9 14.6-5.9 21.9-8.9 6.2-2.5 12.4-5 18.5-7.6 8.2-3.6 16.3-7.2 24.3-11 2.1-1 4.1-1.4 6.4-.8 3.7 1 7.5 1.6 11.2 2.7 10 3.2 20.1 6.2 30.3 8.5 1.1.2 2 .6 2.6 1.2.8.7 1.3 1.8 1.5 3.3.8 5.7 3.2 10.6 7.1 14.6.9 1 2 1.9 3.1 2.7 7 5.5 14.7 9.2 24 8.6 1-.1 2 0 3 .1 4.1.1 8-.7 11.7-2.7l6.3-3.6c4.7-2.5 7.6-6.6 9.9-11.2 2.2-4.4 2.8-9.3 3.6-14.1.1-.6-.1-1.2-.1-1.8-.9-8.3-3.7-15.6-9.4-21.9-.6-.7-1.2-1.3-1.9-1.9-4.4-4.3-9.6-7.3-15.6-8.2-10.8-1.7-21.1-.1-29.5 7.6-2 1.9-4.3 2.3-6.7 1.6-4.3-1.1-8.6-2.4-12.8-3.7-.5-.2-1-.4-1.4-.8-.3-.4-.5-.8-.4-1.6.6-.5 1.2-1.3 2.1-1.9 3.4-2.2 6.7-4.5 10.4-6.3 9.1-4.5 17.4-10.3 25.3-16.5 2.9-2.2 5.7-4.6 8.2-7.2 5.9-6.4 11.8-12.8 16.7-20 1.2-1.7 2.5-3.1 4.4-4 1.7-.7 3.3-1.6 4.9-2.4 8.1-4.5 16.4-8.9 24.4-13.6 5.9-3.5 11.6-7.4 17.2-11.3 5.8-4 11.5-8.3 17.1-12.5 1-.7 1.8-1.6 2.6-2.6.6-1.9.4-3.6-1-5zM779.7 454.7c2-3.4 2.8-6.6 1-10.8 2.1-.7 3.4-1.1 4.7-1.5 3.4-1.1 3.6-1.5 3.5-5.8-1.4-.4-1.5.9-2 1.5-1.3 1.5-2.9 2.2-4.8 2-4.3-.5-5.5-2.3-4.9-6 .4-2.4.8-4.9 4.1-5.6.9.8 1.9 1.7 3 2.5.9.7 1.9 1.4 3.4 2.3-.5-1.9-.9-3.4-1.3-5.1 3.5-.8 5.8.7 7.8 2.8 3.3 3.5 5.1 7.7 5.1 12.6 0 1.6.1 3.2.4 4.8.1.4.8 1 1.3 1.1s1.2-.3 1.5-.7c.6-.8 1-1.8 1.4-2.7.9-2.5 1.9-4.9 2.7-7.4.5-1.7.9-3.5 1-5.3.1-2.9-1.1-4.7-4-5.2-3.1-.5-3.9-2.4-4.2-5-.3-2.5.8-3.7 3.4-3.9 7.2-.6 13.6 1.1 19.3 5.6 3.2 2.5 4.5 5.6 4.1 9.5-.1 1.4-.5 2.8-.7 4.2s-.3 2.8-.2 4.2c.2 1.8 1.5 2.8 3.4 2.7.4 0 .8-.2 1.2-.2 3.2-.2 5 1 5.6 4 .2 1.2.3 2.4.2 3.6-.2 1.8-.4 3.6-.8 5.4-.5 2.5.3 4.2 2.7 5.4 3.4 1.7 4 3.3 2.9 6.7-.4 1.3-1.2 2.6-1.6 3.9-1.1 3.2-1.5 6.3.5 9.3.3.5.7 1 .9 1.6 1.2 3.6 1.7 7.1-.9 10.3-1 1.3-1.9 2.6-3 3.8-2.9 3.1-5.7 6.3-8.7 9.3-4.4 4.3-9.4 7.5-16 8.5-.8-1.2-1.7-2.2-2.2-3.4-3.5-8.1-9.5-14-16.4-19.1-3.3-2.4-6.9-4.1-11.1-4.5-1.2-.1-2.3-.5-3.3-.7-.4-.6-.7-.9-.7-1.3-.2-7.1-.4-14.1-.5-21.2-.5-4.1.1-8.5 2.2-12.2zm21.9-23.5c.5-.6.7-.9 1-1.3.3.4.7.8.8 1.2.1.3-.3.6-.4 1-.4-.3-.8-.5-1.4-.9zM491.4 127.8c1.5-.4 3-.6 4.5-.9-1.8.4-3.6.7-5.4 1.2l.9-.3zm-91 32.9c.6-.2 1.3-.3 1.9-.4-1.5.4-3 .8-4.6 1.2 1-.3 1.8-.6 2.7-.8zM445.3 323l2.3-5.6c94.8-26.9 173.1 6.7 211.1 28.9.3-2.1.7-4.2 1.2-6.2-77.8-53.4-189.1-34.1-209.8-28.8 7.9-19.6 15.1-39.5 21.4-59.6-10.1 14.8-16.1 32-21.9 48.9-17.8-16.3-35.6-32.6-53.4-49-11.2-10.3-22.9-21.3-26.8-36-4.6-16.9 3.4-36.5 18.6-45.3 12.4-7.2 27.5-7.4 41.3-11.5 15.1-4.5 28.3-13.7 42.8-19.8 32.4-13.8 71.3-11.1 101.6 6.9.1.1.2.1.3.2 1.9.6 3.8 1.4 5.5 2.3.4.2.7.5 1.1.7h.2c20 14.9 45.9 18.7 70.2 21.6 26.7 3.1 55.8 6 76.9 24.5 9.5 8.3 16 19.1 17.9 31.7 1.9 12.7-1.1 26-6.3 37.6-11.9 26.4-35.4 44.6-55.4 64.5-18 17.9-34.8 39.5-38 65.3.1-.9-12.2-5.6-13.5-6.2-4.5-2.3-8.7-5.3-13.3-7.2-3.6-1.4-7.4-2.6-11.2-3.8-1.5-.5-3.1-1.1-4.6-1.6-10.6-4.1-21-8.6-31.4-12.9-22.5-9.3-44.8-15.8-69.1-17.2-20.6-1.2-41.4.9-61.3 6.5l-.7.1c-.2.1-.3.1-.5.2-2.1.6-4.1 1.2-6.1 1.9l10.9-31.1zm774.8 496.3c4.9 5.2 7.2 14.1 2.5 21.1-.5.7-1.7 1.4-2.4 1.2-.8-.2-1.6-1.2-1.9-2-.3-1.1-.3-2.4-.2-3.6.1-1 .5-1.9.7-2.9-.9-1.6-1.7-3.2-2.6-4.9-3.7.6-5.3-2.1-7.1-4.6.1-.6.1-1.2.3-1.7 2-5.6 6.6-6.8 10.7-2.6zm-11.9-5.7c.6-.9 2.6-.8 3.2.1.7 1.1-.2 1.7-1.1 2.3-.7.4-1.3.8-3.3 2 .6-2.3.6-3.5 1.2-4.4zM554.4 599.7c.4-2.8 1.1-5.6 1.3-8.4.4-4.5 1.4-8.8 2.7-13 .9-3 2.6-5.5 4.3-8 1.4-2 3.2-3.1 5.7-1.7.5.3 1.1.2 1.7.2 5.1-6 9.1-12.5 13.1-19 2.7-4.6 6.5-8.2 10.5-11.6 1.7-1.4 3.6-2.7 6.1-1.5 1.5.8 2.8-.1 4-.8 3.5-2.1 6.9-4.2 10.3-6.3.9-.5 1.7-1.1 2.4-1.8 3.8-4 8.4-7 12.9-10.1 2.1-1.5 4.1-3.1 7-3.4 1.5-.1 2.9-1.3 4.2-2.3 4.4-3.3 9.1-6 14.1-8.3 3.7-1.7 7.1-3.8 10.8-5.6 3.6-1.8 7.4-3 11.5-3.6 5.6-.9 11.1-2 16.8-2.2 4.4-.2 8.7-1.6 13.1-2.5 2.6-.5 5.2-.7 7.8-1.2 2.9-.6 5.4-.9 7.9 1.5 1 .9 3 .8 4.6.9 4.6.2 9.3.2 13.9.6 3.9.3 7.3 1.8 10.4 4.4-1.1 2.6-4.1.8-5.4 3.1.3.4.6 1.3 1.1 1.5 2.8 1.2 5.7 2.1 8.5 3.2 3.2 1.3 6.4 2.5 9.5 4 2.8 1.4 4.6 3.9 5.7 6.9.3.9 0 1.3-1.7 2.9-1-1.2-1.9-2.5-2.8-3.6-.7.1-1.2 0-1.4.3-2 2-4 4-5.9 6.1-4.2 4.9-8.5 9.8-12.5 14.8-1.9 2.4-4.2 3.1-7 2.3-3.1-.9-6.2-1.9-9.3-2.8-3.1-.8-6.2-1.6-9.4-2.1-6.2-.9-12.4-1.5-18.7-1.3-12 .4-23.8 2.2-35.1 6.3-.8.3-1.5.7-2.3.8-7.1 1.1-13.4 4.4-20 6.9-6.6 2.6-13 5.4-19.3 8.9-4.8 2.7-9.5 5.2-14.1 8.3-.9.6-2.1.9-4.3 1.9.4-2.5.6-3.8.8-5.3-.6.1-1.2.1-1.6.4-1.3.9-1.4 2.4-1.3 3.8.3 2.3-.7 3.9-2.5 5.2-.5.3-.9.8-1.4 1.1-9 6.1-16.1 14.1-23.1 22.3-3.7 4.3-6.6 9.2-8.9 14.4-.5 1.1-1.1 2.1-1.8 3.1-.1.2-.8.2-1.1.1-.3-.1-.9-.5-.9-.7 0-1.6.2-3.2.1-4.7 0-.5-.6-1.1-1.1-1.2-.4-.1-1.3.3-1.4.6-.5 1.3-.9 2.6-1.3 4-2.5.9-4.5-.2-6.3-1.4-.7-.5-1.1-1.7-1.2-2.6-.3-1.4.1-2.6.3-3.8zM674.1 658c-1.7-9.6-4.3-18.9-8.3-27.8-3.2-7.2-6.3-14.5-11.4-20.7-1.4-1.7-2.2-3.8-3.6-6.3 3.9-2.5 7.4-4 11.1-4.9 2.2-.5 3.7.3 4.8 2.7 1.7 3.9 3.2 7.9 4.9 11.8 6.4 15 10.7 30.5 12.6 46.7 1 8.7.8 17.4-.8 26-.1.6-.2 1.2-.4 1.8-1.3 4.9-4.3 7.3-9.6 7.7-.7 0-1.6-1-1.4-1.7 2.7-7.1 2.8-14.6 3.1-22.1.2-4.4-.3-8.7-1-13.2zm-14.8 36.7c-.2 5.4-1.2 6.6-6.5 7.9-1.1.3-2.3 0-3.9 0-.2-1.8-.6-3.4-.6-4.9-.2-11.9-3.9-22.6-10.3-32.5-5.4-8.4-11.2-16.4-19.1-22.6-8.4-6.6-16.9-13.2-27-17.2-.4-.1-.8-.3-1.1-.4-2.3-1-3.3-2.3-2.7-3.4 1.1-1.7 2.8-1.5 4.3-1.2 2.9.7 5.9 1.4 8.7 2.5 4.7 1.8 9.4 3.7 13.9 6 9.4 4.8 18 11 25.2 18.7 7.8 8.3 13.6 17.9 16.8 29.1 1.9 6 2.5 11.9 2.3 18zm-158 48.5c-.3.9-.8 2.1-1.6 2.4-5.4 1.9-10.8 4.3-17.2 3 .5-.9.5-1.2.7-1.2 5.1-2.2 10.2-4.6 15.4-6.7 1.9-.8 3.3.7 2.7 2.5zm-292-85.4c-2.6-.7-4.8-2.1-6.6-4-1.7-1.8-1.8-3.2-.6-5.5 2.5-4.8 2.5-4.8-2.5-7.7-1.2-.7-2.3-1.6-3.5-2.4-3.2-2-4-4.8-3.2-8.6 4.2-1.1 5.5-4.2 5.5-8.3-1.6-2.5-4.4-3.9-6.8-5.8-3-2.3-4.1-5.4-3.7-9.1.2-2.1 1.3-3.1 3.6-3.3h.6c3.9-.4 5.3-3 3-6.1-1.1-1.5-2.5-2.7-3.6-4.1-3.4-4.2-5.8-8.8-4.8-14.5.7-3.9 2.1-7.4 5.3-9.5 2.5.1 4.6.3 6.8.4 2.1.1 3.2.7 3.2 2.7 0 3.6 2.1 4.8 5.1 5.6 4.3 1.1 8.5 2.5 12.8 3.9 2.7.9 5.4 1.5 8.4.3.6-2.8-.4-5.3-1.6-7.5-6.7-12 1.1-27.7 16.1-31.1 3.3-.8 7.1 1.8 7.8 5.2.2 1 .3 2 .3 3s-.2 2-.3 3.1c-1.1.3-2.1.4-2.9.9-1.2.9-2.4 1.9-3.8 1.3-1.2-.4-2.3-1.4-3.7-2.4-.2.9-.5 1.8-.5 2.7.2 3.3.6 3.5 4 3.7.6 0 1.1.2 2.1.4-.1 1-.2 2-.4 2.9-.6 2.3-.2 4.4.7 6.5.7 1.7 1.8 3 3.4 4 4.5 2.9 8 6.6 10.5 11.5 2.1 4.2 2.8 8.4 2.7 12.9 0 .8-.2 1.6-.3 2.4-.7 7.1-.2 7.9 6.2 10.5 2.2.9 4.6 1.7 6.8 2.5 3.4 1.3 3.8 2.3 2.3 5.4-.4.7-.7 1.4-1.2 2.1-4.3 6.9-6.2 14.4-6.2 22.5 0 1.9.6 4.1-1.1 6.1h-15.8c-2.4 3.5-6.1 4.6-9.7 6-11.3 4.5-22.8 4.6-34.4 1.4zm174.1 86.8c-1.7.1-3.6.4-5.4.4-11.5.2-23.1.5-34.4-2.2-9.6-2.3-19.5-3.9-28.9-7.1-1.9-.7-3.8-1.4-5.6-2.3-9.7-4.7-19.1-9.8-27.9-16-4.3-3-8.2-6.6-12.2-10-7.6-6.5-13.4-14.6-18.9-22.9-3-4.5-5.1-9.7-7.5-14.5-.3-.7-.2-1.6-.3-2.5 3.3-2 6.6-4 9.8-5.9 1.6-.9 3.1-1.9 4.6-2.9s3-1.1 4.6-.4c3 1.3 6 2.5 9 3.7 1.3 2.9 2.7 5.8 3.8 8.8 2.2 5.6 5.6 10.3 9.9 14.4 1.5 1.4 3.1 2.5 5.2 3.1 2.7.8 5.4 1.8 8.1 2.6 3.1.9 6.3 1.6 9.4 2.3.4.1.8.1 1.2.2 11.6 3.1 23.5 4.3 35.2 6.3 9.4 1.6 18.8 2.7 28.2 4.2 9.6 1.5 19.2 2.6 28.8 4.6 8.7 1.8 17.6 2.9 26.4 4.2 10.8 1.6 21.6 3.2 32.4 4.7 3.6.5 7.2.9 10.8 1.3 7.6 1 15.1 2.1 22.4 4.1.3 1.7-.7 2.1-1.6 2.4-2.9.9-5.8 1.8-8.8 2.4-9.7 2.2-19.3 4.6-29 6.4-10.3 1.9-20.7 3.7-31.2 4.8-8 .8-16.2.5-24.3.3-3.2-.1-6.4-1.1-9.5-2-5.5-1.8-9.5-5.3-10.7-11.3-.1-.5-.5-1-1.2-2.8-1.7 4.9-1.5 8.4-.2 11.9.9 2.4 2.7 4 4.8 5.3 1.5.9 3.1 1.7 5.2 2.9-1.1.7-1.6 1.4-2.2 1.5zM309 806.5c.4-.2.9-.3 1.3-.4-.3.4-.5.8-.8 1.1-.1.1-.5-.1-.8-.2.1-.2.1-.5.3-.5zm-34.1 25.9c.4-.3 1-.6 1.5-.6.7 0 .3 1.1-.8 1.6-.4.2-1 .2-1.5.3.2-.5.4-1 .8-1.3zm-6.3 82.7c-1-1.5-1.9-2.8-2.8-4.1-1.5-.8-2.1.9-3.4 1.3-.9-.8-1.8-1.7-2.9-2.7-.9.5-1.8 1-2.9 1.6-.9-.8-1.9-1.8-3.3-3-.7.5-1.4 1-2.2 1.6-.4-.1-.9-.1-1.1-.4-1.1-1.5-2.1-3.1-4.4-2.2-4.8-1.5-9.6-2.9-14.3-4.4-1-.3-1.9-.6-2.9-.9-.9-.2-2.1 1-1.9 1.9.2 1 .5 1.9.9 2.9.4 1.1.8 2.3 1.2 3.4 0 .1-.2.3-.4.8-4-3.3-7.2-6.9-8.2-12.1-.7-3.3.2-6.5 1.9-9.3 6-9.6 12.1-19.1 20.4-27.1 3.3-3.2 6.5-6.7 9.7-10.1 3.7-4 7.7-7.7 12-11.1 1.7-1.4 3.3-2.9 5.1-4.3 1.5-1.2 2.8-2.8 4.9-3.1-.4 1.8-1.9 2.9-3.1 4.1-8.7 8.5-17.5 16.9-25.8 25.6-6.7 7-12.6 14.8-18.1 22.8-.7 1-1.4 2-1.8 3.1-.2.6 0 1.8.4 2.1.5.3 1.6.1 2.2-.3 1.6-1.3 3-2.7 4.4-4.1 5.3-5.3 10.5-10.6 16-15.8 2.5-2.3 5.4-4.2 8.1-6.3 4.5-3.4 9.1-6.7 13.5-10.3 10.6-8.7 21.8-16.8 33-24.7 2.3-1.6 4.4-3.5 7.6-4.3 0 1.6.3 3-.1 4.3-1.1 4.1-2.4 8.1-3.5 12.2-.6 2.2-2 3.3-4 4.2-9.6 4-18.4 9.2-27.1 14.8-4.4 2.8-8.8 5.8-13.2 8.6-8.6 5.4-16.6 11.6-24.5 17.9-.9.8-1.9 1.5-2.7 2.4-.9.9-.4 2.6.9 2.9.6.1 1.2.4 1.8.3 4.8-.3 9.7.1 14.1-2.5.7-.4 2.1.5 3.3.8.7-.9 1.5-1.7 2.3-2.7.9.5 1.8.9 3.1 1.6.5-.8 1-1.5 1.7-2.5.8.7 1.7 1.4 2.8 2.3.5-.9 1.2-1.7 1.4-2.5.6-2.9.9-5.9 1.8-8.9 1.1 3.7 1 7.6 2.7 11 2.3 0 1.2-2.5 2.9-3 .8.9 1.7 1.9 2.9 3.3.9-2.4 1.6-4.3 2.6-6.9 1.4 2.1 2.5 3.7 3.6 5.4 2.4-1.1 1.1-3.8 2.7-5.5 2.4 1.6 1.1 5.1 3.5 6.8 2.4-1.5 1.3-4.9 3.6-6.8 1.4 1.5 2.1 4 4.9 3.6.8 1.2 1.6 2.3 2.3 3.4 2 .6 1.6-2 3-2.3.3.2.8.4.8.7 1.3 6.3 2.4 12.7 3.8 19 .6 2.9 1.7 5.8 2.7 9h-4l-1.2 4.5c-.3 0-.8.1-1-.1-1.9-1.5-2.2-4.4-5.1-5.4-.7 1.1-1.5 2.2-2.4 3.7-1.5-1.5-2.8-2.8-4.4-4.3-1 1.2-1.7 2.1-2.5 3-2.3-.4-2-3.5-4.6-4-.6 1.3-1.3 2.6-2 4-.4-.1-.9-.1-1.1-.3-1.2-1.6-2.4-3.2-3.9-5.3-1 1.8-1.7 3.1-2.5 4.5-.5-.2-1.2-.3-1.5-.6-1-1.4-1.9-3-3-4.6-1 1.4-1.7 2.3-2.7 3.4zm193.1 99.4c-.7 1.6-2.1.7-3.2.7h-.2c-1.2.1-2 .3-2.8.2-.5-.1-1.1-.6-1.2-1.1-.3-1 .4-1.5 1.3-1.6 1-.1 2-.2 3-.1 2.1 0 3.5.9 3.1 1.9zm12.8-2.5c-.2-.2-.5-.4-.7-.6.2-.2.4-.4.7-.5.1 0 .4.2.4.3-.1.3-.3.6-.4.8zm4.9-3c-.2-.1-.3-.5-.5-.8.3-.1.7-.4.9-.3.2.1.3.6.4.9-.2.1-.6.3-.8.2zm3.2-19.3c-.2.3-.3.5-.5.8 0 0-13 16.7-27.1 19.8-2.5.5-4.5.8-6.2.8.1.4.2.8.4 1.1-.5.3-.7.5-1 .6-.2-.4-.7-.9-.6-1.3 0-.2.2-.3.5-.4-7.3-.2-7.7-4.7-7.9-5-.1-.2-.3-.4-.4-.7.4-.3.9-.6 1.4-.9 2.2-1.1 4.3-2.3 6.5-3.2 9.2-3.6 18.1-7.9 27.1-12 2-.9 4.2-1.5 6.3-2 .4-.1 1.2.4 1.5.8.2.3.3 1.2 0 1.6zm3.3 18.9c-.4-.3-.7-.8-1.1-1.2.3-.2.8-.6.9-.5.5.2.8.7 1.3 1.1-.4.4-.9.7-1.1.6zm20.1 55.3c-.1.1-.3 0-.9-.1.1-2.7.8-5.2 2.6-7.4.2-.3.6-.5 1-.6.3-.1.9-.1 1.1.1.3.4.8 1.2.7 1.4-1.5 2.2-2.5 4.8-4.5 6.6zm1.8-13.7l1.2-.6c.2.5.4 1 .6 1.4-.4.2-.9.5-1 .5-.3-.4-.6-.8-.8-1.3zm9.3-48.1c-.6-.2-1.5-.6-1.6-1.1s.6-1.2 1.3-2.4c.6 1.2 1.1 1.7 1.2 2.3 0 .4-.7 1.2-.9 1.2zm165.3-64.2c-.2-.4-.5-.7-.7-1.1.3-.1.7-.4.9-.3.2.1.3.5.5.8-.2.1-.5.4-.7.6zm223-54.6c-.2-.1-.3-.6-.4-.9.3-.1.7-.4.9-.3.3.1.3.6.5.9-.3.1-.7.3-1 .3zm44.4-14.5v-.9c.8-.1 1.5-.3 2.3-.2.5 0 1 .4 2.8 1.1h-5.1zm20.1-.7c-.1-.2-.3-.4-.3-.5.2-.2.5-.4.8-.7.1.1.2.3.3.4-.2.4-.5.6-.8.8zm36.9-14.5c-.2.1-.6-.2-.9-.3.1-.3.2-.8.4-.8.3-.1.6.2 1 .3-.2.2-.3.7-.5.8zm29.6-11.8c-.1.1-.3-.1-.4-.1.3-.1.6-.3.9-.4l-.5.5zm1.8-.8h-.9c.2-.3.4-.6.6-.7.2-.1.5.3.8.4-.2.1-.3.3-.5.3zm24-4.3c-.2.6-.8 1.1-1.4 1.8-.5-.8-1.1-1.5-1-1.6.4-.5 1-.9 1.6-1.3.2.3.9.8.8 1.1zm83.2-17.1c-.1 0-.4-.2-.4-.3.1-.3.2-.5.4-.7.2.2.5.4.7.6-.3.1-.5.3-.7.4zm43.8 35c2.3-.7 2.3-.7 6 1.4-2.8.8-4.1-.4-6-1.4zm9-3.6c-.2 0-.5-.6-.5-1 .1-1.2.9-1.6 2.3-1.6.2.5.7 1 .6 1.3-.4 1.1-1.3 1.5-2.4 1.3zm6.1-33.6c-1.1 2.6-4 4-6.7 3.3-.3-.1-.4-.6-.7-1.2 1.3-1.1 2.5-2.4 4-3.3.7-.4 1.9-.3 2.8-.2.3.1.8 1.1.6 1.4zm-14.3-3.5c2-1 4-1.9 6-2.6 1.5-.5 3.1-.5 3.6-.6 1.3.1 1.5.1 1.7.1 1.8.1 3.1.9 2.5 1.5-.8 1-1.9.6-2.8.2-1.9-.9-3.6-.4-5.2.6-1.6.9-3 2-4.6 2.9-.8.5-1.6.3-1.9-.6.1-.4.4-1.3.7-1.5zm4.3 6.6c-.2.5-.3 1.2-.7 1.5-.6.4-1.4.4-2.1.5-.6-1.4-.2-2.4.8-2.8.5-.1 1.3.5 2 .8zm-26.9-.6c1.4.3 2.7.8 4.1 1.1 4.3.8 8.4.8 11.6-2.9.9-1.1 2-1.2 3.2 0 0 .5 0 1.1-.1 1.7-.2 1.1-.9 2.5-.5 3.4.7 1.4 1.9 2.8 3.2 3.4 2.3 1.2 4.9 1.9 7.4 2.7 2.5.9 4.8 2.1 6.4 4.3 1.4 1.9 1.7 4.4-1.1 6.2-3 1.8-6.1 2.6-9.2 1.1-8.1-3.9-17-5.1-25.4-7.8-3.5-1.1-7-1.9-10.5-3-.9-.3-1.7-1-2.8-1.6 1-1.8 1.8-3.4 2.9-4.8 2.8-3.7 6.5-4.9 10.8-3.8zm51.6-80.6c-1.1 2.4-2.3 4.8-3.6 7-8.5 14.7-19.7 27.2-33.1 37.6-8.6 6.7-17.8 12.7-28 16.9-1.1.4-2.2.7-3.2.9-1.2-1.1-.8-2.1-.4-3 .5-1.1 1.1-2.2 1.8-3.2 1.7-2.4 2.6-4.9 3-7.8.4-2.8 1.2-5.5 1.8-8.1-.7-1.8-2.2-1.7-3.6-1.9-14.5-1.8-29.1-1.6-43.7-1.4-13.4.2-26.7 1.7-39.9 3.4-16.9 2.2-33.7 4.3-50.5 6.7-7.4 1.1-14.7 2.7-22 4.3-9.1 1.9-18.2 3.9-27.3 6.1-13.2 3.2-26.2 6.9-39.1 11.2-8.1 2.7-16.2 5.2-24.3 7.8-4 1.3-8 2.8-12 4.3-13.1 4.9-26.2 9.7-38.9 15.6-8.1 3.7-16.2 7.3-24.3 11.1l-26.4 12.3c-5.3 2.5-10.2 5.6-15.2 8.6.4 1.4 1.4 1 1.9.7 5.5-3.9 12-5.8 18.1-8.5 15-6.6 30.1-13 45.3-19.2 12.3-5.1 24.7-10.3 37.3-14.7 17.5-6.2 35.3-11.9 53-17.5 8.3-2.6 16.8-4.6 25.3-6.6 15.6-3.5 31.2-7 46.9-10.1 9.1-1.8 18.4-3.1 27.6-4.3 12.8-1.6 25.7-3.4 38.6-4.2 10.5-.7 21-.5 31.6-.2 8.3.2 16.5 1.2 24.8 1.8 1.8.1 3.6.4 5.1.6.8 1.5.3 2.4-.7 2.9-2.1 1.1-4.3 2.1-6.6 3-10.5 4.3-21 8.5-31.5 12.7-5.4 2.2-10.9 4.4-16.3 6.6-10.2 4.1-20.8 6.6-31.3 9.6-11.9 3.4-23.9 6.2-35.7 9.9-17.2 5.3-34.5 10.3-52 14.7-1.4.3-2.7.7-4.1 1-13.5 2.7-26.8 6.2-40.1 9.9-6.4 1.8-13 3-19.5 4.4-14 3-28.1 6.2-42.1 9-15.7 3.2-31.3 6.3-47 9-8 1.4-16.1 2-24.1 2.9-4.8.6-9.7 1-14.5 1.5-4.7.5-4.7.5-8.9-1.3-.4.8-1.2 1.7-1.2 2.5 0 .9.7 2 1.4 2.5 3.3 2.5 7.2 3.7 11.2 4.3 7.2 1 14.4 1.7 21.8.9 8.4-1 16.9-1.4 25.4-2 1.6-.1 3.2.1 5.4.1-.3.4-.5.8-.6 1.1-17.2 46.2-136.1 48.1-136.1 48.1l7.4-9.9c.4-1.1 1.1-2 2.2-2.9 3.9-3.5 7.9-6.7 11.1-11 2-2.7 5.1-4.5 7.7-6.7 1.2-1.1 2.4-2.2 3.2-3.5 1.6-2.6 3.7-4.6 6.2-6.5 4.2-3.2 8-6.8 12-10.2.8-.7 1.4-1.4 2-2.3 1.3-1.9 2.6-3.9 4.4-6.6-3.4.4-6 .7-8.5 1.1-13.6 2.3-26.9 5.5-40.3 9-17.8 4.7-35.1 11-52.7 16.5-19.4 6-37.9 14.1-57 20.9-12.2 4.4-24 9.7-36.1 14.4-9.2 3.7-18.5 7.1-27.7 10.8-14.7 5.9-29.3 11.9-43.9 17.8-7.5 3.1-15 6.1-22.5 9.2l-26.4 10.8c-15.9 6.5-31.9 13-47.9 19.3-12.2 4.8-24.6 9.4-36.8 14.2-9.2 3.6-18.3 7.7-27.6 11.2-20.3 7.5-40.7 14.7-61.1 22.1-10.5 3.8-21.2 6.9-32 9.5-9.4 2.3-18.9 4.6-28.3 6.8-11.8 2.8-23.7 5.4-35.7 6.9-9.4 1.1-18.8 2.6-28.3 3.9-1.6.2-3.2.4-4.8.5-12.1.5-24.3 1.1-36.4 1.3-6.7.1-13.3.4-20-.7-2.8-.5-5.7-.3-8.5-.4-9.5-.6-19-1.3-28.3-3.6-2.5-.6-5-1.6-7.4-2.8-2.6-1.3-3.4-3.2-2.9-6 .4-2.1 1.3-3.9 2.9-5.2 3.5-2.8 6.8-5.7 10.5-8.2 7.1-4.7 14.2-9.4 21.5-13.7 15.5-9.1 31.2-18 47.8-25 13-5.5 25.9-11.5 38.9-17 7.8-3.3 15.9-6 23.8-9.1l19.8-7.8c6.4-2.6 12.7-5.3 19.1-7.9 11.6-4.7 23.2-9.5 34.9-14.2 10.3-4.2 20.7-8.2 31-12.4 8.3-3.3 16.5-6.6 24.8-10 1.5-.6 3-1.3 4.5-1.9 12.2-4.3 24.4-8.6 36.6-13 7.6-2.8 15.1-5.8 22.7-8.6 8.5-3.1 17.1-6.2 25.7-9.2 9.5-3.4 19.1-6.6 28.7-10 1.3-.5 2.6-1 4-1.4 18.5-5.1 36.8-11.3 55.6-15.1 7.3-1.5 14.6-3.5 21.9-5 8.5-1.8 17.1-3.3 25.6-5 13.9-2.7 28-4.5 42.1-5.6 13.3-1 26.6-2.4 39.9-3.1 11.7-.6 23.5-.5 35.2-.5 18 0 35.9 2.3 53.8 4.4 10.1 1.2 19.9 3.7 29.9 4.9 4.3.6 8.7 1.6 14.2 1.2-16.4-5-31.8-8.7-47.7-10.8-11.6-1.5-23.3-3.3-35-3.5-10.5-.2-21-1.3-31.5-.3-2.8.3-5.7.1-8.5.2-14.6.3-29.1 1.5-43.6 3.3-5.8.7-11.7 1-17.5 1.6-7.8.8-15.7 1.6-23.5 2.8-8.4 1.3-16.8 2.8-25.1 4.5-13.7 2.7-27.4 5.4-41 8.6-11.4 2.7-22.7 6.1-34 9.1-11.4 3-22.6 6.5-33.6 10.4-20.6 7.3-41.4 14.1-61.6 22.3-5.4 2.2-11 4.2-16.5 6.2-.8.3-1.5.5-2.3.7-2.9.7-4 .2-5.4-2.5-3.2-6.1-5.7-12.6-7.5-19.2-1.7-6-3.4-12.1-4.4-18.3-1.2-7-1.9-14-1.4-21.1.3-4.2.5-8.5.7-12.7.4-8.9 2.3-17.6 4.5-26.3 1.1-4.1 2-8.2 3.3-12.3.9-2.9 2.3-5.6 3.4-8.4.6-1.5 1.2-2.9 1.8-4.5-2.7-1.6-4.9-.9-7.1.3-1.5.8-2.6 2.3-4.5 2.3 3-3.8 6.9-6.5 10.6-9.3 1.2-.9 2.6-.4 3.6.7.7-.7 1.5-1.3 2-2.2 2.2-3.8 5.5-6.4 9.1-8.7 10.8-7.2 22.3-13.2 33.8-19.1 6.8-3.6 13.6-7.1 20.5-10.6 3.6-1.8 7.3-3.5 10.9-5.3s7.3-3.5 10.9-5.4c6-3.2 12.3-5 19.1-5.4 5.2-.3 10.5-1 15.7-1.6 5-.6 10-1.3 15.1-1.9 1.5-.2 3.2-.6 4.9.8-.8 2.4-2.8 3.7-4.7 5.1-4.2 3-7.5 6.7-10.8 10.6-1.3 1.5-.6 3.3 1.4 3.5s4.1.4 6 .1c7.6-1.3 15.1-2.8 22.7-4.3 1.2-.2 2.4-.6 3.6-.7 9.1-1 17.8-3.5 26.7-5.7 13.8-3.4 27.6-6.3 41.4-9.8 18.8-4.7 37.6-9.8 56.4-14.8 10.4-2.8 20.7-5.6 31-8.5 6.2-1.8 12.4-3.8 18.6-5.7 11.1-3.3 22.2-6.3 33.2-9.8 14.6-4.6 28.2-11.1 40.6-20.1 3.3-2.4 6.4-4.9 8.5-8.2-1-5.1-1-5.1-3.8-8.6 2.3-1.6 5-1.6 7.4-1.9 5.6-.7 11.3-1 16.9-1.5 4.6-.4 9.3-.9 13.9-1.3 14.5-1.1 29.1-2.2 43.6-3.2 3.8-.3 7.7-.3 11.5-.3 8.3-.1 16.6-.3 24.9-.8 10.5-.6 21.1-.7 31.6-.4 16.4.4 32.8 1.5 49.1 1.9 12.8.3 25.4 1.7 38.1 2.8.4 0 .8 0 1.2.1.9.4 2.1.6 2.5 1.3.7 1.3-.5 2.2-1.4 3-4 3.8-8.7 6.6-13.7 8.9-.7.3-1.4.6-2 .9-.2 1.4.6 1.6 1.3 1.9.6.2 1.2.4 1.8.5 7 .7 14 1.7 21.3 1.8 1.6-2.4 3.5-4.3 5.8-6 3.7-2.8 6.4-6.8 8.8-10.7 2.6-4.1 4.6-8.5 6.6-13 5.4-12.1 8.3-24.9 11.3-37.7 1.2-5.1 2.7-10.2 3.8-15.3 1.1-5.3 1.9-10.8 2.9-16.1.8-4.4 1.7-8.7 2.7-13.1 1.4-6.5 3.1-13 4.4-19.5 2.7-14 6.9-27.5 13.1-40.3 5.2-10.8 11.2-21.2 20-29.5 8.5-8.1 17.9-15.3 28.1-21.1 8.7-4.9 18.3-7.7 28.2-8.7 4.4-.4 8.9-.8 13.3-.9 5.5-.1 10.9.4 16 2.9 2 1 4.2 1.3 6.3 2.1 9.2 3.6 16 10.4 21.5 18.2 7.1 9.9 13.8 20.1 17.9 31.6 3 8.6 6.2 17.1 8.4 26 1.7 7.1 4.1 14 5.9 21 4.9 19.2 10.6 38.2 14.2 57.7 2.1 11.3 4.4 22.7 6.3 34 .8 4.4 1 8.9 1.2 13.3.5 10.1.9 20.2.4 30.3-.6 12.7-2.8 25-6.5 37-2.4 7.5-4.2 15.2-7.6 22.4zm-905.4 77c.1-.3.4-.6.7-.8.1-.1.4.3 1.3.8-.6.3-1.1.6-1.6.7-.1 0-.5-.5-.4-.7zM1286 712.1c-1.7 1.4-3.5 2.7-5.4 3.9-9 5.4-18 10.8-27.1 16-6.3 3.6-12.7 7.1-19 10.6-1 .6-2.2.8-4.3 1.6.4-4.7 2.8-7.6 4-11 1.2-3.6 2.7-7.2 3.8-10.8 1-3.5 1.6-7 2.5-10.9 1.1 0 2.1-.2 3 0 4.7.7 9.2-.4 13.8-1.1 8-1.1 16.1-1.6 24.1-1.8 1.8 0 3.6-.5 5.6 1.1-.3.7-.3 1.9-1 2.4z"/>
    <path class="st1" d="M576.9 414.1c3.3-3.1 7.6-1.9 12.1-2.6-1.8-3.6-2.9-4.6-6.3-4.9-8-1.2-16.8 1.7-21.1 10.7-1.7 3.5-2.7 7.2-1.7 11.2.5 1.8 1.2 3.5 2.8 4.6 1.6 1.2 3.3 1.3 5.3.6.9-1.4 1.7-2.9 2.6-4.4 3.8 1.9 4.9 2.9 5.7 4.7 1.8 4.2-.7 8.1-5.9 9.1-.9.2-2-.3-2.6.9-.3.8.5 1.9 2.2 2.4 1.3.3 2.8.6 4.1.4 6.1-1.2 10.1-5.2 12.7-10.4 3.4-7-1.3-15.3-9-16.7-1.1-.2-2.2-.5-3.3-.7-.5-2.5 1.1-3.7 2.4-4.9zM435.7 432.9c.4 3.2 2 5.8 5.2 6.8 4.3 1.4 8.7.9 12-2 4.4-3.9 8.1-8.5 8.9-14.7.4-3.2.6-6.4.8-8.8 0-1.6.1-2.4.1-3.2-.8-5.5-2.9-10.3-8.5-12.2s-11-1.5-15.8 2.8c-6.6 5.9-7.4 15-3.8 23.2.7 1.5 1.4 2.8 1.2 4.5-.1 1.2-.3 2.4-.1 3.6zm.1-17.1c.2-2 .8-4 1.4-5.9.3-1 .8-1.9 1.4-2.7 2.2-3 5-4.8 8.8-4.3s6.1 3 7.6 6.3c.4.9.7 1.9.8 2.9.2 3.8.4 7.7.4 11.5.1.9-.5 1.8-1 3.2-1.1-1-1.9-1.5-2.7-2-1.1-.9-2.1-2-3.3-2.7-2.8-1.6-5-1-6.5 1.9-.7 1.4-1.4 2.8-2.3 4.7-1.3-1.7.4-3.1-.4-4.2-4.3-2.8-4.9-3.8-4.2-8.7zM921 951.6c5.9-1.8 11.9-3.6 17.7-5.4 1.2-.4 2.9-.4 3.3-2.2-.4-.7-.9-.9-1.5-.9-.5 0-1.1.2-1.5.3-5.4 1.6-10.9 3-16.2 5-11.6 4.4-23.6 7-35.5 10.3-15.9 4.4-32.1 8.2-48.1 12.3-10 2.6-19.9 5.3-29.8 8-1.9.5-4.2.8-6.3 3.1.3-.1.6-.1.9-.2.6-.1 1.1-.2 1.5-.3.7-.1 1.3-.2 1.8-.4 4.1-1 8.2-2.2 12.3-3.2 10.2-2.4 20.4-4.7 30.6-7.2 7.2-1.8 14.4-3.9 21.6-5.8 13.6-3.5 27.5-6.3 40.9-10.8 2.7-.8 5.5-1.7 8.3-2.6zM451.9 377.3c3.3 1.1 6.1 3.4 9.1 5.1 1.8-1.3 1.6-3 1.3-4.5-.6-3.2-1.6-6.2-3.3-9-2.5-4.3-5.9-6.1-10.6-4.7-7.9 2.4-14.9 6.2-16.8 15.5 3.1-2.3 6.4-3.7 10.2-3.7 3.4.1 6.9.2 10.1 1.3zM1072.1 388c.3-.1.5-.1.8-.2 10.3-2.9 20.5-6 30.8-9 10.5-3 21-6 31.5-8.9 10.7-3 21.5-5.7 32.2-8.8 9.3-2.7 18.5-5.7 27.8-8.6 1.3-.4 2.5-.9 3.7-1.4 0 0-.1 0-.1-.1-.6-.3-1.1-.5-1.6-.5h-.5-.1c-.2 0-.4.1-.7.2-1 .3-2.1.6-3.1.9l-10.8 3c-2.9.8-5.9 1.6-8.8 2.5-4.1 1.1-8.1 2.3-12.2 3.5-6.2 1.8-12.5 3.6-18.7 5.4-8.5 2.4-17.1 4.6-25.7 7-1.4.4-2.7.7-4.1 1.1-8 2.3-15.9 4.8-23.8 7.2-2.1.7-4.2 1.3-6.3 2-2.6.8-5.1 1.6-7.7 2.4-2.1.7-4.2 1.3-6.3 2-.2.1-.4.1-.6.2h-.1c-.6.3-1.2.7-1.8 1.1v.1c.2 0 .4-.1.5-.1 1.9-.4 3.8-.6 5.7-1zM890.5 289.4c-2.7.6-5.2 1.7-7.5 3.5 1.6-.1 3.2 0 4.7-.2 6.9-1.5 13.8-3 20.7-4.6 6.5-1.5 12.9-3.3 19.4-4.7 14.6-3.2 29-7.1 43.3-11.5.9-.3 2.3-.1 2.5-2-2.1.2-4.2.2-6.1.6-5.9 1.2-11.8 2.4-17.7 3.8-10.8 2.7-21.5 5.5-32.3 8.2-9 2.3-18 4.7-27 6.9zM952.7 291.8l-.1.1.1.1c2-.1 4.1-.1 6-.5 12.4-2.8 24.8-5.7 37.2-8.7 7.7-1.9 15.2-4 22.9-6 3.9-1 7.8-1.8 11.9-1.9 5.3-.1 10.3-1.6 15.5-3.8-.1 0-.1-.1-.2-.1-3.1-2.7-6.2-2.5-9.2-1.8-4.7 1-9.4 2.2-14.1 3.4-9.6 2.5-19.1 5.1-28.7 7.7-4.7 1.2-9.5 2.1-14.1 3.6-6.9 2.3-14 4-21 5.8-2 .5-4.4.7-6.2 2.1zM995.6 937.8c-1.4.1-2.3.1-3.2.4-6.7 1.9-13.5 3.8-20.1 5.8-.1 0-.1 0-.2.1-14.4 4.6-28.8 9.3-43.2 13.9-7.9 2.5-15.8 4.9-23.6 7.5-1.1.3-2.3.5-3.2 1.2.1.2.2.4.2.7 1.2-.2 2.4-.3 3.6-.6 5.8-1.5 11.6-3.4 17.5-4.7 13-3 25.5-7.5 38.3-11.3 10-3 19.9-6.6 29.8-10 1.5-.5 3.1-.9 4.1-3zM1163.8 429.8h.2c.9.1 1.9.1 2.8-.1 11.1-2.3 22.1-4.7 33.1-7.2 9.4-2.1 18.8-4.5 28.2-6.8 2.8-.7 5.6-1.5 8-3 .1 0 .1-.1.2-.1-6.7.4-13.2 1.6-19.6 3-6.6 1.6-13.2 3.2-19.8 4.7-4 .9-8 1.9-12 2.9-7.2 1.8-14.3 3.6-21.1 6.6zM863.2 229.6c.1 0 .1 0 0 0 2.7-.7 5.3-1.4 7.9-2 7.8-2 15.5-4.1 23.2-6.3 3.7-1 7.2-2.2 10.8-3.4 1.2-.4 2.4-.8 3.6-1.3l1.5-.6c1.5-.6 3-1.4 4.5-2.1-3.4-.2-6.5.5-9.6 1.4-7.2 2.1-14.4 4.1-21.6 6.1-9.1 2.6-18.4 4.8-27.2 8.3-.8.3-1.4.8-2.1 1.3h.3c2.9-.4 5.8-.7 8.7-1.4zM936.7 322.4c-8.6 1.9-17.3 3.8-25.9 6-9 2.4-17.8 5.4-26.9 7.3-2.8.6-5.8 1-9.2 3.3 8.3-1.6 15.7-2.8 22.9-4.4 7.1-1.6 14.1-3.5 21.1-5.5 7.1-2.1 14.5-2.9 21.3-6.6-1.1 0-2.2-.3-3.3-.1zM838.3 963c-.8-.1-1.4-.4-1.9-.4-18.4 4.7-36.7 9.4-55 14.1-.7.2-1.3.6-3.3 1.5h.1c2.1 0 2.9.2 3.6 0 18.3-4.6 36.6-9.3 54.9-14 .5-.1.9-.7 1.6-1.2zM1210.3 361.5c4-.9 8-1.9 12-2.9.2 0 .3-.1.5-.1 2.7-.7 5.4-1.4 8-2.1 5.8-1.6 11.6-3.4 17.4-5.1 1.1-.3 2.4-.7 2.1-2.7-2.7-.1-5.1 1-7.5 1.7-6.3 1.9-12.7 3.8-19.1 5.7-5.4 1.6-10.9 3-16.4 4.3-.9.2-1.9.4-2.8.7-.1.1-.3.1-.4.2-.5.3-1 .6-1.4 1.1 0 0 0 .1-.1.1 2.7-.3 5.3-.3 7.7-.9zM1202.7 362.4h-.2l.1.1.1-.1zM498 541.3c-2.3.5-4.6 1.1-7 1.6.6 2.4 2.2 3.5 4.2 4 2.6.6 5.2.6 7.8-.1.6-.2 1.6-1 1.6-1.5.1-.9-.3-2.1-.9-2.7-1.6-1.5-3.6-1.7-5.7-1.3zM1243.3 422.1c1.1.3 1.8.7 2.5.6 4.7-.8 9.5-1.6 14.2-2.5.8-.1 1.7-.4 2.2-.9s.5-1.4 1-2.7c-8.2 1-15.6 3.1-19.8 5.4 0 .1-.1.1-.1.1zM609.8 460.2c-.6 3.3-1.9 6.6-1.2 11.3 3.4-3.7 3.6-7.4 3.7-11.2 0-.4-.8-1.1-1.2-1.1-.4 0-1.2.6-1.3 1zM913.8 224.9c5.5-.2 10.8-2.1 16-3.5.5-.1 1.1-.5.8-1.2-.1-.2-.2-.5-.4-.8-1.4.3-3 .5-4.5 1-4 1.6-8.3 1.9-11.9 4.5-.1 0 0 0 0 0zM913.4 225.1c.1-.1.2-.1.3-.2h-.4l.1.2zM1211.2 348.1c.1 0 .2-.1.3-.2l2.6-1.3s.1 0 .1-.1c-5.9.5-8.5 1.2-11.5 3.4 3.2-.1 5.3-.4 7.9-1.6.2 0 .4-.1.6-.2zM1214.5 346.5c.2-.1.3-.1.5-.2h-.7.1c-.1 0-.1.1-.2.1.1.1.2.1.3.1zM1064.6 389.2c-4.4.1-8.6 1.2-12.4 3.4 4.4-.3 8.5-1.1 12.4-3.4zM738.1 645.4s-.1.1-.2.1c.1 0 .2 0 .2-.1zM728.9 650.3c3.7-.3 6.5-2.3 9.1-4.7-3.7.4-6.5 2.2-9.1 4.7zM728.9 650.3h-.4l.2.1s.1-.1.2-.1zM1197.7 363.6h-.3c-3 .1-5.9.5-8.6 2.1v.2c3.1-.2 6.2-.6 8.9-2 0-.1-.1-.2 0-.3zM747.9 640.6c-3.1.5-4.5 1.2-6.9 3.5 1.9-.6 3.8-1.1 5.6-1.8.6-.2.9-1.1 1.3-1.7zM747.9 640.6s.1 0 0 0zM741 644.1c-.1 0-.2.1-.3.1s-.1.1-.2.1h.3l.2-.2zM728.3 650.5c-1.4.7-2.9 1.3-4.4 2.1 1.8-.1 3.4-.5 4.4-2.1z"/>
    <path class="st1" d="M728.3 650.5c.1 0 .2-.1.3-.1l-.1-.1c0 .1-.1.1-.2.2zM1217.8 346.1c0-.2-.1-.5-.1-.7-.9.3-1.7.6-2.6.9h-.1.1c.8 0 1.7-.1 2.7-.2zM738.3 645.2c-.1 0-.2.1-.2.1l.1.1c0-.1.1-.1.1-.2zM738.3 645.2c.7-.3 1.4-.6 2.2-.9-.8 0-1.6.2-2.2.9zM749.2 977.9v-.2l-.5.1zM723.5 652.9l.2-.2c.1 0 .2-.1.3-.1h-.4l-.1.3zM776.9 1024.7l.2-.2.2-.1h-.2zM1213.2 731.6c0 .1.1.2.1.3v-.1c.1.1.3.1.4.2l-.3-.3c-.1 0-.1-.1-.2-.1zM1041 682h.4c-.1 0-.2-.1-.4 0zM1209.3 727.6c-5.5-3-10.8-6.3-16.5-8.9-12.6-5.7-25.8-9.6-38.9-13.5-17-5.1-34.3-9.1-51.6-13.2-3.1-.7-6.2-1.6-9.4-2.2-11.5-2.1-23-4.2-34.5-6-5.6-.9-11.3-1.2-17-1.8.8.4 1.5.9 2.3 1.1 7.7 1.4 15.5 2.6 23.2 4 8 1.4 16 2.6 23.8 4.4 11.6 2.6 23.1 5.7 34.6 8.7 18.2 4.7 36 10.7 53.8 16.5 8.5 2.7 16.5 6.5 24.4 10.6 3.1 1.6 6.5 2.8 9.7 4.3-.7-1.9-2.2-3-3.9-4zM1040.5 681.8c-3.8-1.2-7.7-1.8-12.4-1.9 4.4 2.3 8.4 1.8 12.4 1.9zM1040.5 681.8c.1 0 .2.1.3.1l.2-.1h-.5zM323.8 799.7l.1.1c.4-.8.7-1.7 1.1-2.5.1 0-.1-.1-.1-.1-.4.8-.7 1.7-1.1 2.5z"/>
    <path class="st1" d="M323.9 799.9l-.1-.2c-.1.1-.1.3-.2.4.1-.1.2-.2.3-.2zM422.4 597.9c0-.1 0-.1 0 0-.4-1.5-1.1-2.5-2.4-3.3.2 1.5.6 2.9 2.4 3.3h-.1c0 .1.1.2.1.2v-.2c.1 0 0 0 0 0zM417.4 590.7c.4.8.7 1.7 1.1 2.5l.1-.1c-.4-.8-.7-1.7-1.2-2.4zM423.6 600.3c-.1-.1-.2-.1-.3-.2 0 .1.1.2.1.3l.2-.1zM423.3 600.1c-.3-.7-.6-1.3-.9-2 0 .9.2 1.6.9 2zM423.8 601c0-.1-.1-.4-.1-.6-.1-.1-.2.1-.2.1.2.4.5.7.3.5zM418.7 593.1c.3.5.8 1 1.2 1.4l.1.1v-.2l-1.3-1.3zM597 565.2c.8-.7 1.4-1.4 1.1-2.5-.2-.9-1.9-.9-3 .2-1.2 1.2-2.4 2.5-3.4 4-.4.7-.2 1.8-.3 3.8 2.6-2.5 4.2-4 5.6-5.5zM583.7 565.8c-3.2-.6-4.6.7-5.8 2.5s-1.3 2.3-.3 4.6c1.8-2.1 3.6-4.2 6.1-7.1zM605.1 552.6c-2.2-1.4-3.8-.7-5.1.5-1.2 1.1-2.6 2.3-1.6 5 2.3-2.1 4.8-3.3 6.7-5.5zM587.6 570.7c-4 .4-5 1.7-5 6 4-3.5 4-3.5 5-6zM611.6 549.7c1.4-1.4 2.8-2.8 4.9-4.8-3-.5-4.2.8-5.1 2.3-.5.8-.9 1.7.2 2.5zM615.6 554.1c0 .2.5.4 1.1.8l2.1-4.2c-2.7-.2-2.9 0-3.2 3.4zM630.5 543.7c-3.2.6-3.2.6-3.6 4.1 1.2-1.8 3-2.1 3.6-4.1zM590.2 559.2c.4-.6 1-1.4 0-1.9-.3-.1-1.2.2-1.5.6-.5.7-.8 1.6-1.1 2.4.4.3.9.6 1.4.9.4-.6.8-1.3 1.2-2zM577.5 582.3c-3.2 1.1-3.6 2.8-3 5.8 1.1-2.2 1.8-3.6 3-5.8zM633.9 536.2c.6-.4 1.1-1 1.6-1.5-.3-.2-.6-.5-.9-.8-.5.5-1.1 1-1.6 1.5-.1.1-.1.5 0 .5.3.2.7.4.9.3zM561.9 593.3c-.4-.3-.5-.4-.7-.6-.4.6-.8 1.1-1.2 1.7l.4.3c.5-.4 1-.9 1.5-1.4zM641.7 540.1c.1 0-.1-.3-.1-.5-.2.1-.5.3-.8.4 0 .1.1.3.1.5.2-.1.5-.2.8-.4zM571.9 580.8c-.1 0-.1 0-.2.1 0 .1.1.2.1.2 0-.1 0-.2.1-.3zM573.1 579.2c-.3.1-.8.1-.9.3-.2.4-.3.9-.3 1.3.4-.2.9-.4 1.2-.7.1-.1 0-.6 0-.9zM564.5 582.3l.2-.3-.4.2c0 .2-.1.3-.1.5.1-.1.2-.2.3-.4zM564.2 582.7c-.1.1-.2.2-.3.4-.1.1 0 .3.1.4.1-.2.1-.5.2-.8zM566.6 594.8c-.2.1-.3.3-.4.5-.1.1.1.3.1.4l.3-.9zM567.1 594.2l-.3.2c-.1.1-.1.3-.2.4.1-.1.2-.2.3-.2l.2-.4zM571.7 581c-.1.2-.1.3-.2.5l.3-.3-.1-.2zM269.1 700.3c.1 0 .3.1.4.1 0-.1-.1-.1-.1-.2l-.3.1zM376.7 716.4c-3.5-.6-3.6-.6-5.5.3-4.3 2-8.8 3-13.5 3-1 0-2 .3-3 .4-11.3 1.1-22.6 1.4-33.9-.2-18-2.5-34.3-9-49.4-18.9-.6-.3-1.2-.5-1.9-.6 1.9 3.4 5 5.6 8.3 7.5 8.4 4.8 16.7 9.8 26.1 12.7 4.2 1.3 8.4 2.6 12.7 3.9 11.1 3.3 22.2 5.5 34 4.1 9.4-1.1 17.4-4.8 24.9-10.2.5-.4.7-1.3 1.2-2zM268.7 699.9c.1.1.3.2.4.4l.1-.2c-.2-.1-.3-.1-.5-.2zM796.3 464.7c.9-3 2.6-5.8 2.2-9.2-2.5.4-3 2.3-3.7 3.9-.8 1.8-1.3 3.8 0 5.9.5-.2 1.4-.4 1.5-.6zM1200.2 834.5c-1.3-1.6-3-2.4-5.3-1.4 1.6 1.9 3 3.5 4.7 5.4 2.1-1.6 1.5-2.9.6-4zM612.3 267.8v-.3c-8.5-6.1-17.5-11.3-27-15.5-2.8-1.4-5.7-2.6-8.7-3.5-11.6-4.3-23.7-7.2-36-8.5 20.6 5.4 40.3 13.8 58.5 24.9l47.1 32.1c-9.4-11-21.9-21.1-33.9-29.2z"/>
  </g>
  <g>
    <path class="st1" d="M793 294.9c.7 0 1.3.1 1.8.1.7-1.4 1.7-2.6 2.9-3.5 2.9-10.9 5.8-21.7 8.7-32.4 0-.1.1-.2.1-.3.3-1.1.6-2.1.8-3.2-7.7 12.1-11.8 25.4-14.3 39.3z"/>
    <path class="st1" d="M1291.1 707.6c-.2-.2-.4-.4-.7-.5-2.3-1.5-4.8-2.1-7.5-2-5.9.1-11.7 0-17.6.1-3.2.1-6.4.6-9.6.8-3.8.3-7.7.5-11.5.6-.7 0-1.2-.1-1.7-.4-.7-.4-1-1.2-.9-2.2.1-1.8.3-3.6.4-5.4.3-4.2.7-8.5.8-12.7.1-5.1 0-10.1-.1-15.2-.1-9.5-.9-19-2.2-28.4-1.7-12.9-4.4-25.5-7.1-38.2-2.7-13.1-5.8-26-9.8-38.8-2.2-6.9-3.8-14-5.7-21.1-1.3-4.9-2.4-9.8-4.2-14.5-3.4-9.1-7.4-18-10.8-27.1-4.8-12.6-10.9-24.4-19-35.1-5.7-7.5-12-14.1-20.1-19.1-6.8-4.2-14.3-7-22-8.1-6.1-.9-12.6-.5-18.8.1-12.5 1.2-23.9 6.1-34.9 11.6-8 4-15.2 9.2-22.4 14.5-5.6 4.1-10.1 9.3-14.7 14.4-8.4 9.2-14.6 19.9-19 31.5-4 10.4-7 21.1-9.3 32-.2 1.2-.6 2.4-1.3 3.3-1.1 1.4-1.4 2.7-1.3 4.5.1 1.4-.5 2.8-.8 4.1-3 12.4-6.4 24.7-9 37.1-2.3 10.9-5.4 21.6-8.6 32.2-3 10-8.4 18.8-16.1 25.9-1 0-1.8.2-2.6 0-7.1-1.8-14.5-1.6-21.7-2-13.3-.9-26.7-1.1-40-1.7h-1.2c-6.8-1.2-13.7-.9-20.6-1-19.4-.3-38.9 0-58.3 1.1-10.5.6-21 .8-31.5 1.5-8.1.5-16.1 1.6-24.1 2.5-8.6.9-17.3 1.7-26 2.6-6.6.7-13.3 1.4-19.9 2.3-4.8.6-9.6 1.3-14.4 2-4 .6-7.9 1.5-11.9 2.3-1.2-1.1-.7-2.3.3-3 .6-.4 1.1-.8 1.7-1.1 1.4-.8 2.8-1.6 4.1-2.3-.3-.3-.7-.7-1.2-1.3 6.4-10.7 13-21 22.4-29.3 9.4-8.4 17.8-17.7 24.2-28.6 2.5-4.2 5.7-7.9 9.5-11 4.4-3.6 9-6.9 13.5-10.4 4.2-3.2 8.5-6.2 12.5-9.6 6.8-5.8 11.7-12.9 13.1-21.9.4-2.6.5-5.2.5-7.9 0-2.2.7-3.9 2.5-5.2 3.9-2.9 7.7-5.9 11.6-8.8.4-.3 1.1-.3 2.1-.4.6 1.5 1.2 2.9 1.7 4.4 1.8 5.8 3.1 11.8 5.2 17.4 5.8 15.3 11.1 30.9 18 45.7.8 1.6 1.4 3.4 2 5.1.5 1.5-.1 2.9-1.5 3.6-.9.5-1.8.9-2.8 1.2-7.3 2.6-14.6 5-21.8 7.6-11 4-22 8.1-33 12.3-6 2.3-12 4.9-17.9 7.5-10 4.5-19.9 9-29.8 13.6-.8.4-1.4 1.1-2 1.7 1.3-.2 2.7-.2 3.8-.7 7-3.1 14-6.4 21-9.5 3.5-1.5 7.1-2.9 10.7-4.2 3.8-1.4 7.7-2.4 11.4-4.1 8.8-4.2 17.9-7.4 27.2-10.4 8.7-2.8 17.3-5.6 25.9-8.4 3.1-1 6.3-1.8 9.2-3 3-1.3 5.1-3 4.4-6.1-.1-.7-.4-1.6-.9-2.5-1.9-3.6-3.5-7.3-5.3-10.9-7.3-15.2-12.7-31-17.9-47-1.4-4.4-2.7-8.9-4.1-13.3-.1-.3-.1-.5-.2-.7-.6-2.7.2-4.9 1.9-7.2 2.5-3.2 4.7-6.6 7-9.9 2.4-3.6 3.3-7.4 2.5-11.5-.1-.6-.3-1.2-.5-1.8-.1-.3-.1-.5-.2-.8-.7-2.5-.5-5.1.6-7.5 1.7-3.7 2-7.3 1.2-10.8-.5-2.2-1.5-4.3-2.9-6.5-.7-.9-1.1-2.1-1.4-3.4-.1-.6-.2-1.2-.3-1.7-.2-1.5-.4-3-.7-4.4-1.1-4.4-3.1-8.4-6.9-11.5-.9-.7-1.5-1.6-1.8-2.6-.1-.5-.2-1-.2-1.6 0-.8 0-1.6-.1-2.4-.1-.4-.2-.7-.3-1.1-1.6-6.5-4.7-12.2-11.3-15-5-2.1-10.4-3.3-16-2.9-1 .1-2 .3-3 .3-1.8.1-3.1-.7-3.8-2.4-.8-2-1.5-4.1-2-6.1 0-.1 0-.1-.1-.2-1.2-5.1-2.2-10.3-3.4-15.4-2.3-9.7-4.3-19.4-4-29.4.3-9.7 0-19.4 2.1-29 .7-3.4 1.1-6.8 1.5-10.2.1-.9 0-2.1-1.8-1.6-.7 4.1-1.4 8.2-2.2 12.4-2.3 12-3.8 24-4 36.2-.1 5.2.6 10.5 1.1 15.7.9 9.7 2.2 19.3 5.9 28.5.8 2.1 1.5 4.2 2.1 6.4.3.9.2 1.9.3 3.2-1.9 0-3.5.1-5 .1-8.3 0-15.5 4.4-13.1 14.9.6 2.8 1.2 5.6 2.3 8.1 1.4 3.1 1.1 5.9-.1 8.8-.5 1.1-1.2 2.2-1.5 3.3-1.3 3.8-2.7 7.6-3.6 11.6-1.1 4.8-.8 9.7.8 14.4.3.9.5 1.8.9 3-2.8.9-5.3 1.5-7.8 2.5-2.6 1-4.8 2.7-7.6 3.5-.9-1.3-1.4-2.4-2.2-3.2-1.4-1.4-2.8-3-4.6-3.8-5.4-2.4-10.9-4-17.1-2.8-4.8.9-9.6 1.2-14.4-.5-1.1-.4-2.4-.5-3.6-.8-10-2.3-19.6-1.5-29.1 2.5-2.2.9-4.6 1.4-7 1.7-8.3 1-16.4 2.6-24.1 5.8-6.1 2.5-11.9 5.2-15.7 10.8-1.1 1.6-2.7 2.4-4.5 2.8-1.6.3-3.2.7-4.8 1-1.9.3-3.1-.8-2.8-2.8.2-1.2.6-2.4.8-3.6 2.2-12.4 5.9-24.4 9.5-36.4 1.1-3.9 2.7-7.6 4.4-11.3.6-1.4 1.8-2.9 3.1-3.5 5.9-2.7 9.3-7.7 12.5-12.8.8-1.3 1.7-2.7 2.3-3.8.6-.1 1-.3 1.3-.3.6-5.7 1.8-11.3 3.2-16.9-.7-.4-1.4-.9-2-1.4-8-6.8-17.1-12.2-26.1-17.5 2 3 3.9 6.3 5.5 9.7 1 2 1.5 4 .9 6.2-2.2-1-3-3.1-4-5-2.3-4.4-5.7-7.8-9.5-10.9-.7-.6-1.7-.9-2.6-1.5-.1 1.6-.3 2.9-.4 4.4-1.7-.4-3-.7-4.6-1.1.3 2.5 1.3 4.2 2.2 5.9.9 1.7 2.6 3.2 1.7 5.5-2.4-.5-3.2-2.6-4.6-4-1.7-1.6-2.2-2-4.9-2.9 1.5 4.4 5.8 7.5 5.6 13.1-1.2-.7-1.9-1-2.4-1.5-1.3-1.3-2.3-2.8-3.6-4.1-.4-.4-1-1.5-2-.2.7 1.5 1.5 3.2 2.2 4.8s2.1 3.1.9 5.1c-.9.2-1.8.3-3 .6.7 1.3 1.3 2.3 1.8 3.4 2.1 4.2 3.3 8.7 3.8 13.3.1 1.1-.2 2.5-1.8 2.6-.7.1-1.5 0-2.4 0-.5 6.1-.9 11.9-1.3 17.7-.1 1.2.2 2.4.4 3.6.1.3.5.8.8.8.5 0 1.4-.2 1.5-.5.6-1.7 1.1-3.4 1.6-5.2.3-1.1.5-2.2.7-3.6 4.1 1 6.3-.3 7.7-4.1.8-2.2 2.6-4 4.1-5.9.2-.3 1.2-.4 1.6-.2.4.3.7 1.1.6 1.5-1 2.4-2.1 4.8-3.1 7.2-5 12-8.1 24.6-9.9 37.4-.9 6.4-2.4 12.7-2.5 19.3 0 2-.9 3.5-2.7 4.4-.9.5-1.8 1-2.6 1.6-3.3 2.6-6.9 5-8.9 9-1.6 3.2-4.1 4.6-7.6 5.1-6.5 1.1-12.3 4-17.7 7.6-5.3 3.5-8.7 8.4-11.1 14.1-.8 2-1 4.3-1.7 6.4-.3 1.1-.8 2.4-1.7 3.1-1.6 1.2-3.2 2.6-5.4 2.3-1.1-.2-1.2.3-1.6 1.1-.6 1.2-1.5 2.4-2.4 3.4-4.4 4.9-7.7 10.4-9.8 16.6-.4 1.1-1 2.1-1.6 3.5-1.5-.7-2.8-1.1-4-1.9-3.4-2.2-6.7-4.4-10.2-6.6-2.7-1.7-5.6-3.3-8.2-5.1-8.8-6.1-17.5-12.3-26.2-18.6-4.9-3.6-9.5-7.5-14.2-11.4-4.1-3.3-8.2-6.6-12.2-10-.6-.5-.8-1.6-1.2-2.5 2.3-1.4 4.5-1.8 6.7-2.2 3.2-.5 6.3-.8 8.8 2.3 1.5 1.9 3.7 1.6 5.2-.3 1.7-2.2 3.1-4.7 4.5-7.1 1.5-2.4 2.7-5 4.4-7.2 2.5-3.2 5.4-6 8.2-8.9.8-.8 1.8-1.4 2.7-2.1 3.8 2.1.8 6.9 4.1 9 .4-1.8.9-3.6 1.1-5.4.6-4.4 1.1-8.8 1.5-13.3.1-.8-.7-1.6-1.1-2.4-7.1 3.9-7.5 7.2-28.3 9.1 4.1 3.4 9.3 2.9 14 5.2-1.4 1.3-2.4 2.4-3.4 3.2-3.9 2.9-7.9 5.6-11.9 8.5-6.5 4.8-13.8 7.3-21.7 8.6-5.8 1-9.8-1-13.4-5.1s-6.7-8.7-9.3-13.5c-3.5-6.5-7.7-12.3-13-17.4-.6-.6-1-1.6-1.7-2.8 1.7-.2 2.9-.6 4-.5 4.6.5 8.8-1.1 13-2.5 2.9-1 3.9-2.5 3.7-5.5-.2-4.1-2-7.4-5.7-9.4-6.2-3.4-12.4-2.5-18.6 0 1.6.5 3.2.5 4.7.7 4 .7 8 1.4 11.9 2.3 1.9.4 3.3 1.8 3.4 3.8.1 2.1-1.3 3.3-3 4.2-.7.4-1.5.6-2.3.9-3.6 1.4-7.4 2-11.3 2-3.2 0-6.4.3-9.6.8-3.8.5-7.7.6-11.5 0-8.4-1.2-16.8-2.7-25.1-4.4-7.7-1.6-15.4-3.5-23-5.3-1.8-.4-3.5-1-5.2-1.7-3.7-1.4-5.9-4.1-7-7.8-.6-2 .3-3.8 2.3-4.3 1.7-.4 3.6-.6 5.4-.4 6.7.5 13.3.2 20-.7 2.6-.4 5.3-.3 7.8-.8 6.2-1.1 12.3-2.5 18.4-3.8.2 0 .4-.1.6-.2 4.7-1.9 9.4-3.8 14-5.8 1.2-.5 2.5-1.4 3.3-2.5 3-3.9 5.1-8.1 4.8-13.4-.4-5.8-.7-11.7-1-17.6-.5-9.5-.3-19 .1-28.5.2-4 1.5-7.9 2.4-11.8.6-2.6 1.3-5.1 2-7.6.5-1.9 1.1-3.8 1.7-5.7 3.7-1.4 7.6-2.3 11.6-2.3.7-.3 1.3-.5 1.7-.7 3.8-1.7 7.6-3.3 11.5-4.7 7.2-2.3 14.5-4 21.9-5.1 10.4-1.6 21-2.4 31.6-2.3h1c7.4.7 14.8 1.8 22.2 3.3 5.2 1 10.4 2.3 15.5 3.7-.2.1-.4.2-.6.2-1.9.5-4 .7-5.9 1.3-3.8 1.2-7.8 1.9-11.3 3.9-.2.1-.2.7-.3 1.4 1.4.3 2.8.7 5.1 1.2-2.8 2.1-5.1 3.8-7.4 5.5 2.2-.3 4.5-.5 6.7-.8 1-.1 2-.2 3-.2.3 0 .7.4.7.7.1.3 0 .9-.3 1.1-2.3 1.1-4.7 2.2-7 3.3-1.1.6-2.2 1.3-3.2 1.9 1.5-.1 2.9-.1 4.4-.4 5.2-1 10.3-2.1 15.4-3.1.8-.2 1.8.2 3.1.4-.6.9-.9 1.5-1.3 1.7-1.3.6-2.7 1-4 1.5-6.4 2.5-12.8 5-19.1 7.6-1.4.6-2.5 1.7-4.3 2.9 3.3.8 5.6-.2 7.7-1.1 6.9-3.1 14.4-4.1 21.7-5.6 1.1-.2 2.3.1 4.2.2-1 1-1.4 1.7-2.1 2-1.1.5-2.3.8-3.4 1.2-6.3 2.3-12.6 4.5-18.8 6.8-1.9.7-3.9 1.3-5.1 3.6 9.1-1 17.5-5.3 27.6-5.2-1.4 1.2-2 2.1-2.7 2.3-4.2 1.5-8.4 2.9-12.7 4.2-4.1 1.3-7.8 3.2-11.5 5.3-.7.4-1.8.9-1.4 2.3.6 0 1.2.1 1.7 0 2.2-.5 4.3-1.1 6.4-1.7 1.7-.5 3.4-1.2 5.2-1.6 1-.2 2 .2 1.6 2-5.2 2.9-11.3 4.6-16 9.1 2.2 1.2 3.8.6 5.5-.1 2.8-1 5.7-1.9 8.7-2.7.6-.2 1.3.2 2.4.4-.8.8-1.1 1.4-1.6 1.6-3.1 1.4-6.3 2.8-9.4 4.2-1.6.8-3.2 1.8-4.6 2.8-.3.2-.5 1.1-.4 1.6.2.5.9 1.1 1.3 1 1.6-.2 3.2-.5 4.7-.9 1.9-.5 3.6-1.8 5.9-1.2-.2 2.1-1.9 2.6-3.1 3.4-1.8 1.2-3.7 2.4-5.5 3.7-.2.2-.3.9-.2 1.1.3.4.8.8 1.3 1 .3.2.8.1 1.2 0 5.4-1.5 11-2.4 16.2-4.7 3.5-1.6 5.6-3.8 6.9-7.1 1.7-4.6 1.7-4.6 6-1.2 1.1-1.4 2.4-2.7 3.3-4.1 4.5-7.2 11.8-8.9 19.5-9 5-.1 9.8 1.7 14.4 4.3 6.6 3.8 10.4 9.1 11.1 16.9.9 9.8-1.3 18.4-8.1 25.8-3.1 3.4-6 7.2-8.8 10.8-1 1.3-1.7 2.8-2.4 4.2-.6 1.3-1 2.6-1.6 3.9-2.7 6-6.8 10-14 9.4-1-.1-2.1 0-2.5 1.4.2.4.4 1.1.8 1.4 4.2 2.8 8.8 3.8 13.9 3.2 4.2-.5 7.3-2.5 9.2-6.1 1.3-2.5 2.3-5.2 3.1-7.9.6-2 1.2-3.8 2.7-5.3 5.7-5.3 9.8-11.8 12.9-18.9 3.8-8.5 4.6-17.3 1.4-26-4.2-11.8-12.2-20.3-25.8-22.2-1.9-.3-4-.1-5.8-1.7.5-.6.8-1.3 1.2-1.3 3-.6 6-1.1 8.9-1.6 3-.5 6-1 8.9-1.5.3-.1.5-.6.6-.8.6-2.3-3.4-1.5-2.5-4.4 3.1-.7 6.5-1.3 9.8-2.1.9-.3 1.5-.9 1.1-2.2 4.7 1.5 9.4 3.1 13.9 5.1 5.3 2.4 10.5 5.1 15.2 8.5 3.2 2.3 6 5.2 9.2 7.6 3.2 2.5 6.8 4 10.3 6 0-.1.1-.2.1-.2-.3-.9-.5-1.9-.4-3 .1-3.8.4-7.7 1.3-11.5V389v-.3c-.2-.7-.4-1.4-.5-2 6.6-25.9 26.4-45.6 45.1-63.5 18.6-17.7 38.2-36 47.8-60.2 8.2-2.3 16.5-4.3 24.9-5.9 6.6-1.2 13.1-2.4 19.8-3.2 5.6-.6 11-2.6 16.8-1.4.3.1.7-.4 1-.7.3-.2.4-.5.5-.8.4-1.1-.1-2.4-1.4-3-4.3-1.8-8.8-1.2-15.2-1.5-4.6.5-11.3 1-17.9 1.9-4 .5-8 1.4-11.9 2.4-3.9.9-7.8 2-11.7 3.1-.6.2-1.2.3-1.8.5h-.2c3.3-11.8 4-24.6.5-36.4-.1-.2-.1-.4-.2-.5-.2-.5-.3-1.1-.5-1.6 0-.1-.1-.2-.1-.3-4.4-12.4-13.1-22.5-23.8-29.9-23.2-16.2-52-18.3-79.3-21.6l-2.4-.3c-19-2.4-39.5-6.4-55.7-17-3.4-3.3-7.2-6.3-11.3-8.7-25.2-15.3-57.3-20-85.9-12.5l-.9.2c-12.3 3.3-24 8.8-35.4 14.1-11.4 5.4-23.3 10.9-35.8 14.2-3 .8-6.1 1.4-9.2 2.1-3.2.7-6.4 1.4-9.6 2.2-4.2 1-8.3 2.5-12.2 4.4-10.7 5.3-19.2 15.4-23.4 27.7-2.7 8.1-3.3 16.5-1.9 24.3.4 2 .8 3.9 1.5 5.8.7 2.1 1.5 4.1 2.5 6 4.9 9.6 13.1 17.3 20.3 24.1l48.5 45.8c3 2.8 5.8 5.7 6.9 8.9.2.6.4 1.3.4 2 .3 2.6-.7 5.5-1.6 8l-6.1 17.9L429 350c-1.5 4.4-2.2 9-4 13.4 0 .1-.1.3-.2.4-2.2 2.5-3.3 5.5-4.5 8.4-1.3 3-2.1 6.1-3.3 9.1-1.1 2.9-.7 6.2-2.4 9.1-.5 2.8-1 5.6-1.4 8.3 0 .2-.1.3-.1.4l.1.1c.1 1.2.4 2.6.2 4-1 5.2-.8 10.5-.8 15.7 0 4.3-.1 8.5-.2 12.8-.1 7.4-3.5 12.6-10.1 15.9-7.3 3.6-15 6.1-22.8 8.1-10 2.6-20.3 3.5-30.5 4.8-2.8.3-5 1.3-7 3.3-1.6 1.6-2.1 3.4-1.6 5.5.6 2.7 1.9 5 4.1 6.6 2.4 1.7 5.1 3.2 7.8 4.6 1.7.9 3 1.9 3.9 3.6 6.2 11.8 12.5 23.6 18.9 35.3 4.1 7.5 8.5 14.7 12.7 22.1 1.4 2.5 2.7 5 3.9 7.5 4.8 10.5 10.6 20.5 17.1 30.1 2.1 3.2 4.2 6.4 6.4 9.6.5.7 1.3 1.1 2 1.6-.8-1.7-1.4-3.5-2.3-5.1-4.2-6.9-8.5-13.8-12.6-20.7-2.3-3.8-4.5-7.7-6.4-11.7-4.5-9.8-10.3-18.8-15.5-28.2-1.5-2.7-3-5.3-4.4-8-4.8-8.9-9.6-17.8-14.3-26.8l-2-4c.5-1.6 1.5-1.8 2.5-1.6 1.4.2 2.7.7 4.1 1 13.4 3.1 26.8 6.1 40.2 9.2 3.3.8 6.7 1.3 10.1 2 4.1.9 7.5 2.9 10.2 6.2 2.4 3 4.9 5.9 7.1 9.1 3.6 5.1 7.2 10.2 11.4 15 3 3.4 6.6 5.5 11.1 5.4 3.1-.1 5.4 1 7.3 3.5 2.8 3.5 5.8 6.8 8.7 10.1.9 1.1 1.8 2.2 2.9 3.1 6.8 5.8 13.4 11.8 20.5 17.2 10 7.6 20.4 14.6 30.6 21.9 4.3 3 8.7 6 12.8 9.1 1.9 1.4 3.5 3.3 5.1 5.1.8.9 0 2.6-1.2 2.8-1.4.2-2.8.3-4.2.3-10.9-.2-21.2 2.8-31.4 6.1-8.9 2.9-17.6 6.1-26.4 9-13.6 4.5-27.2 4-40.4-1.1-8.3-3.2-16.7-4.8-25.5-4.3-5.9.3-11.7.8-17.6.9-7.9.1-15.8.1-23.5-1.7-4.7-1.1-9.5-1.9-14.3-2.6-7-1.1-14.1 0-21.2 0-2.6 0-5.3.2-7.9.2-6.9.1-13.7-.7-20.3-3.1-2.8-1-5.8-1.8-8.7-2.5-4.2-1-8.5-1.1-12.4 1.2-3 1.8-6.1 2-9.3 1.6-2.6-.4-5.2-.7-7.8-1.2-1.9-.4-2.8-1.5-2.9-3.4-.1-1.8 0-3.6 0-5.5 0-6.1-2.1-11.6-6.4-15.9-2.8-2.9-6-5.4-9-8.1-.5-.4-1-.7-1.5-1.1-2.8-2.4-3.4-4.8-2-8.1.6-1.3 1.3-2.5 2-3.8 1.7-3.1 2.5-6.4 3-9.8.9-7.2-3.1-9.9-7.8-11-3.4-.8-6.8-.4-10 1.3-6.3 3.3-10.9 8.3-13.9 14.8-2.1 4.5-3.2 9.1-2.9 14.1.3 6.3 0 6.5-6.5 5.3l-1.8-.3c-3.8-.5-5.9-2.6-7.3-6.2-4.1-10.4-7.7-20.9-10.1-31.8-1.9-8.7-4.4-17.3-6.6-25.9-2.2-8.5-2.9-17.1-4-25.8-1.9-14.9-1.1-29.9-1-44.9 0-4 .5-8.1 1.1-12.1 1.7-12.8 1.8-25.8 4.8-38.5.5-2.2.9-4.4 1.5-6.5.3-.8 1-1.5 1.5-2.1 1.9.1 2.5 1.4 2.8 2.5 1.9 6.5 6.1 11.1 11.2 15.5 7.4 6.4 16 10.2 25.1 13 13.2 4 26.7 6.7 40.4 8.4 12.2 1.5 24.6 1.5 36.9-.1 3.8-.5 7.6-1.1 11.4-1.7 4-.6 4.8-.3 6.7 3.4 4 7.9 8 15.9 12 23.9.4.7.8 1.3 1.2 2 1.2-.8.4-1.5.1-2.1-3.9-8.2-7.7-16.5-11.6-24.7-.4-.9-.9-1.8-1.4-2.7-.6-1.4-.6-2.8.4-4 1.1-1.4 2.2-2.9 3.4-4.2 7-7.7 14.7-14.4 22.4-21.3 10-8.9 20.8-16.7 32.1-23.9 3.5-2.3 7.2-4.4 10.8-6.5.5-2 1.1-3.9 1.7-5.7-8.4 4.7-16.4 9.8-24.3 15.3-7.3 5.1-14.7 10.1-21.4 15.9-9.2 7.9-18.5 15.7-27.6 23.7-2.3 2-4.6 3.1-7.5 3.5-6.6 1-13.1 2.2-19.8 2.9-5.1.5-10.1.5-15.1.4-4.4-.1-8.9-.2-13.3-.4s-8.9-.1-13.3-.9c-6.6-1.1-13-2.9-19.5-4.2-12-2.5-23.3-6.6-32.5-15.2l-1.4-1.4c-.4-.5-.9-.9-1.3-1.4-2.4-2.8-4.2-6-5-9.8-.4-1.8-.8-3.5-1.4-5.2-.1-.2-.2-.3-.4-.4-.4-.3-1-.5-1.5-.7-.4-.1-1 .5-1.4.9-.3.3-.5.7-.5 1.1 0 3.4-1.8 6.2-2.9 9.2-1.5 4.4-2.5 8.9-3.1 13.6-.7 5.4-.9 10.9-2 16.2-1.8 8.8-2.3 17.6-2.8 26.5-.5 10.3-.6 20.6-.4 30.9.2 8.1.9 16.2 1.9 24.2 1.3 10.2 3.3 20.4 5.9 30.4 2.7 10.4 4.9 20.9 9.6 30.6.3.7.4 1.5.6 2.5-1.1 1-2.2 1.9-3.2 2.8-2.8 2.7-5.8 5.1-7.5 8.7-3.6 7.5-3.7 15.3-1.1 23 1.2 3.5 1.4 6.3.2 9.9-2.2 6.1-2.4 12.4 2.2 17.8 1.5 1.7 1.7 3.5 1.4 5.6-.3 2.2-.4 4.4-.4 6.7-.1 3.6.9 6.7 3 9.1.7.8 1.6 1.6 2.7 2.3.4.2.7.5 1 .8 1.2 1.1 1.8 2.5 2 4.2.4 2.5 1.2 5.1 3.1 7l.1.1c3.8 3.7 8 6.9 13.5 7.7 6.2.9 12.3 2.4 18.7.9.6-.1 1.2-.1 1.8-.2 1.1-.1 2 .2 2.7.8.4.4.8.9 1.1 1.5 3.4 7.6 7.8 14.6 12.4 21.5 2.2 3.2 4.7 6.1 7 9.2 2.8 3.7 5.9 7.2 9.2 10.4 3.5 3.4 7.1 6.6 11 9.6 5.7 4.5 11.9 8.4 18.1 12.1 16.2 9.8 33.8 15.3 52.6 16.8 9.7.8 19.4 1.2 28.9-1.3 1.6-.4 3.3-.6 5.1.5.1.1.2.1.3.2-1.1 2.2-3.1 3.1-5 4.2-4.6 2.6-9.3 4.9-13.7 7.7-8.7 5.5-17.5 11-25.9 16.8-11.6 8.1-23.1 16.4-34.5 24.8-8 5.9-15.6 12.2-23.4 18.4-4.6 3.7-9.1 7.4-13.5 11.2-2.9 2.5-5.6 5.3-8.4 7.9-4.3 4.2-8.7 8.5-13 12.8-2.7 2.7-5 5.8-7.9 8.4-7 6.4-12.4 14-16.9 22.1-6.2 11.1-5.8 19 1.1 27.7 3.6 4.6 7.2 9.1 11.3 13.3 2.4 2.5 5 4.9 7.8 7.1 7.6 6.1 15.4 11.8 24.9 14.8 1 .3 1.9.8 2.8 1.2.3.1.6.3.8.5.6.5.9 1.1.7 1.8-.2.8-.9 1.8-1.7 2.2-2.2 1-4.6 1.6-6.8 2.4-47.2 18.6-94.3 37.3-141.6 55.8-8.1 3.2-15.7 7.5-23.4 11.5-2.9 1.5-5.8 3-8.6 4.5-4.5 2.4-9 4.6-13.3 7.2-6.5 3.8-12.7 8-19.2 11.7-7.1 4.1-13.1 9.4-19.2 14.8-1.9 1.7-3.4 4-5 6.1-2 2.5-2.2 5.7-2.3 8.7-.1 1.5.4 2.9 1.5 4.1.4.4.8.8 1.2 1.1 1.3.9 2.7 1.8 3.9 2.8 8.6 6.6 18.5 9.9 29 11.7 5.4.9 10.9 1.1 16.3 1.6 18.2 1.5 36.4 1.3 54.6-.2 12.3-1 24.5-2.9 36.7-4.7 16.2-2.4 32.3-5.5 48.2-9.1 32.3-7.4 64.1-16.7 95.1-28.5 1.3-.5 2.7-1.2 4-1.3 2.9-.2 5.4-1.5 8.1-2.5 2.3-.9 4.5-1.7 6.8-2.6 5.9-2.1 11.9-4 17.7-6.3 12.8-5 25.7-9.9 38.2-15.5 14-6.2 28.2-12.2 42.4-17.9 1.3-.6 2.7-1.4 4.5-.6.1.1.2.1.3.2-.3 1.7-1.1 3.4-.9 5.1.3 2.8-.8 5.1-2 7.5-3.4 6.7-5.9 13.8-6.2 21.4-.6 12.8.6 25.4 6.6 37.2 2.6 5.2 5.7 9.7 9.5 13.6s8.3 7.2 13.5 9.7c6.2 3 12.3 6.1 19.4 6.7 3 .3 6 .9 9 1.3 12.9 1.7 25.4 0 37.3-5.4 9.2-4.2 16.9-10.6 22.8-18.6 10-13.6 12.5-29.2 10.3-45.6-1.3-9.6-5.2-18.3-10.6-26.2-1.4-2-2-3.8-1.5-6.2.9-4.2.5-8.4-.6-12.6-.6-2.3-1-4.8-1.3-7.2-.1-.7.3-1.7.8-2.1 1.2-1.1 3.4-.8 4.6.3.3.2.5.5.6.8.9 2.3 1.5 4.6 2.3 6.9 1.9 5.2 4.7 9.9 8.4 13.8 1.3 1.3 2.7 2.6 4.2 3.7 5.8 4.4 12.4 7.6 19.6 9.4 7.9 2 15.9 2.5 24.1 2.3 12.1-.3 23.5-3.2 34.2-9 10.1-5.5 16.7-13.9 20.8-24.4 2.3-5.8 3.9-11.9 4.5-17.9 1.9-1.6 3.9-1.8 5.9-2.1 10.6-1.8 21.1-3.4 31.7-5.5 8.3-1.6 16.5-3.7 24.8-5.6 24-5.6 48-11.1 71.9-17 17.3-4.2 34.5-8.6 51.4-14.1 17.7-5.7 35.5-11 53.2-16.6 14.1-4.5 28-9.2 42-13.8 8.8-2.9 17.8-5.4 26.5-8.6 16.1-5.9 32.1-12.2 48.1-18.4 9.4-3.6 18.8-7.3 28.2-11 7.3-2.9 14.6-5.9 21.9-8.9 6.2-2.5 12.4-5 18.5-7.6 8.2-3.6 16.3-7.2 24.3-11 2.1-1 4.1-1.4 6.4-.8 3.7 1 7.5 1.6 11.2 2.7 10 3.2 20.1 6.2 30.3 8.5 1.1.2 2 .6 2.6 1.2.8.7 1.3 1.8 1.5 3.3.8 5.7 3.2 10.6 7.1 14.6.9 1 2 1.9 3.1 2.7 7 5.5 14.7 9.2 24 8.6 1-.1 2 0 3 .1 4.1.1 8-.7 11.7-2.7l6.3-3.6c4.7-2.5 7.6-6.6 9.9-11.2 2.2-4.4 2.8-9.3 3.6-14.1.1-.6-.1-1.2-.1-1.8-.9-8.3-3.7-15.6-9.4-21.9-.6-.7-1.2-1.3-1.9-1.9-4.4-4.3-9.6-7.3-15.6-8.2-10.8-1.7-21.1-.1-29.5 7.6-2 1.9-4.3 2.3-6.7 1.6-4.3-1.1-8.6-2.4-12.8-3.7-.5-.2-1-.4-1.4-.8-.3-.4-.5-.8-.4-1.6.6-.5 1.2-1.3 2.1-1.9 3.4-2.2 6.7-4.5 10.4-6.3 9.1-4.5 17.4-10.3 25.3-16.5 2.9-2.2 5.7-4.6 8.2-7.2 5.9-6.4 11.8-12.8 16.7-20 1.2-1.7 2.5-3.1 4.4-4 1.7-.7 3.3-1.6 4.9-2.4 8.1-4.5 16.4-8.9 24.4-13.6 5.9-3.5 11.6-7.4 17.2-11.3 5.8-4 11.5-8.3 17.1-12.5 1-.7 1.8-1.6 2.6-2.6.6-1.9.4-3.6-1-5zM779.7 454.7c2-3.4 2.8-6.6 1-10.8 2.1-.7 3.4-1.1 4.7-1.5 3.4-1.1 3.6-1.5 3.5-5.8-1.4-.4-1.5.9-2 1.5-1.3 1.5-2.9 2.2-4.8 2-4.3-.5-5.5-2.3-4.9-6 .4-2.4.8-4.9 4.1-5.6.9.8 1.9 1.7 3 2.5.9.7 1.9 1.4 3.4 2.3-.5-1.9-.9-3.4-1.3-5.1 3.5-.8 5.8.7 7.8 2.8 3.3 3.5 5.1 7.7 5.1 12.6 0 1.6.1 3.2.4 4.8.1.4.8 1 1.3 1.1s1.2-.3 1.5-.7c.6-.8 1-1.8 1.4-2.7.9-2.5 1.9-4.9 2.7-7.4.5-1.7.9-3.5 1-5.3.1-2.9-1.1-4.7-4-5.2-3.1-.5-3.9-2.4-4.2-5-.3-2.5.8-3.7 3.4-3.9 7.2-.6 13.6 1.1 19.3 5.6 3.2 2.5 4.5 5.6 4.1 9.5-.1 1.4-.5 2.8-.7 4.2s-.3 2.8-.2 4.2c.2 1.8 1.5 2.8 3.4 2.7.4 0 .8-.2 1.2-.2 3.2-.2 5 1 5.6 4 .2 1.2.3 2.4.2 3.6-.2 1.8-.4 3.6-.8 5.4-.5 2.5.3 4.2 2.7 5.4 3.4 1.7 4 3.3 2.9 6.7-.4 1.3-1.2 2.6-1.6 3.9-1.1 3.2-1.5 6.3.5 9.3.3.5.7 1 .9 1.6 1.2 3.6 1.7 7.1-.9 10.3-1 1.3-1.9 2.6-3 3.8-2.9 3.1-5.7 6.3-8.7 9.3-4.4 4.3-9.4 7.5-16 8.5-.8-1.2-1.7-2.2-2.2-3.4-3.5-8.1-9.5-14-16.4-19.1-3.3-2.4-6.9-4.1-11.1-4.5-1.2-.1-2.3-.5-3.3-.7-.4-.6-.7-.9-.7-1.3-.2-7.1-.4-14.1-.5-21.2-.5-4.1.1-8.5 2.2-12.2zm21.9-23.5c.5-.6.7-.9 1-1.3.3.4.7.8.8 1.2.1.3-.3.6-.4 1-.4-.3-.8-.5-1.4-.9zM491.4 127.8c1.5-.4 3-.6 4.5-.9-1.8.4-3.6.7-5.4 1.2l.9-.3zm-91 32.9c.6-.2 1.3-.3 1.9-.4-1.5.4-3 .8-4.6 1.2 1-.3 1.8-.6 2.7-.8zM445.3 323l2.3-5.6c94.8-26.9 173.1 6.7 211.1 28.9.3-2.1.7-4.2 1.2-6.2-77.8-53.4-189.1-34.1-209.8-28.8 7.9-19.6 15.1-39.5 21.4-59.6-10.1 14.8-16.1 32-21.9 48.9-17.8-16.3-35.6-32.6-53.4-49-11.2-10.3-22.9-21.3-26.8-36-4.6-16.9 3.4-36.5 18.6-45.3 12.4-7.2 27.5-7.4 41.3-11.5 15.1-4.5 28.3-13.7 42.8-19.8 32.4-13.8 71.3-11.1 101.6 6.9.1.1.2.1.3.2 1.9.6 3.8 1.4 5.5 2.3.4.2.7.5 1.1.7h.2c20 14.9 45.9 18.7 70.2 21.6 26.7 3.1 55.8 6 76.9 24.5 9.5 8.3 16 19.1 17.9 31.7 1.9 12.7-1.1 26-6.3 37.6-11.9 26.4-35.4 44.6-55.4 64.5-18 17.9-34.8 39.5-38 65.3.1-.9-12.2-5.6-13.5-6.2-4.5-2.3-8.7-5.3-13.3-7.2-3.6-1.4-7.4-2.6-11.2-3.8-1.5-.5-3.1-1.1-4.6-1.6-10.6-4.1-21-8.6-31.4-12.9-22.5-9.3-44.8-15.8-69.1-17.2-20.6-1.2-41.4.9-61.3 6.5l-.7.1c-.2.1-.3.1-.5.2-2.1.6-4.1 1.2-6.1 1.9l10.9-31.1zm774.8 496.3c4.9 5.2 7.2 14.1 2.5 21.1-.5.7-1.7 1.4-2.4 1.2-.8-.2-1.6-1.2-1.9-2-.3-1.1-.3-2.4-.2-3.6.1-1 .5-1.9.7-2.9-.9-1.6-1.7-3.2-2.6-4.9-3.7.6-5.3-2.1-7.1-4.6.1-.6.1-1.2.3-1.7 2-5.6 6.6-6.8 10.7-2.6zm-11.9-5.7c.6-.9 2.6-.8 3.2.1.7 1.1-.2 1.7-1.1 2.3-.7.4-1.3.8-3.3 2 .6-2.3.6-3.5 1.2-4.4zM554.4 599.7c.4-2.8 1.1-5.6 1.3-8.4.4-4.5 1.4-8.8 2.7-13 .9-3 2.6-5.5 4.3-8 1.4-2 3.2-3.1 5.7-1.7.5.3 1.1.2 1.7.2 5.1-6 9.1-12.5 13.1-19 2.7-4.6 6.5-8.2 10.5-11.6 1.7-1.4 3.6-2.7 6.1-1.5 1.5.8 2.8-.1 4-.8 3.5-2.1 6.9-4.2 10.3-6.3.9-.5 1.7-1.1 2.4-1.8 3.8-4 8.4-7 12.9-10.1 2.1-1.5 4.1-3.1 7-3.4 1.5-.1 2.9-1.3 4.2-2.3 4.4-3.3 9.1-6 14.1-8.3 3.7-1.7 7.1-3.8 10.8-5.6 3.6-1.8 7.4-3 11.5-3.6 5.6-.9 11.1-2 16.8-2.2 4.4-.2 8.7-1.6 13.1-2.5 2.6-.5 5.2-.7 7.8-1.2 2.9-.6 5.4-.9 7.9 1.5 1 .9 3 .8 4.6.9 4.6.2 9.3.2 13.9.6 3.9.3 7.3 1.8 10.4 4.4-1.1 2.6-4.1.8-5.4 3.1.3.4.6 1.3 1.1 1.5 2.8 1.2 5.7 2.1 8.5 3.2 3.2 1.3 6.4 2.5 9.5 4 2.8 1.4 4.6 3.9 5.7 6.9.3.9 0 1.3-1.7 2.9-1-1.2-1.9-2.5-2.8-3.6-.7.1-1.2 0-1.4.3-2 2-4 4-5.9 6.1-4.2 4.9-8.5 9.8-12.5 14.8-1.9 2.4-4.2 3.1-7 2.3-3.1-.9-6.2-1.9-9.3-2.8-3.1-.8-6.2-1.6-9.4-2.1-6.2-.9-12.4-1.5-18.7-1.3-12 .4-23.8 2.2-35.1 6.3-.8.3-1.5.7-2.3.8-7.1 1.1-13.4 4.4-20 6.9-6.6 2.6-13 5.4-19.3 8.9-4.8 2.7-9.5 5.2-14.1 8.3-.9.6-2.1.9-4.3 1.9.4-2.5.6-3.8.8-5.3-.6.1-1.2.1-1.6.4-1.3.9-1.4 2.4-1.3 3.8.3 2.3-.7 3.9-2.5 5.2-.5.3-.9.8-1.4 1.1-9 6.1-16.1 14.1-23.1 22.3-3.7 4.3-6.6 9.2-8.9 14.4-.5 1.1-1.1 2.1-1.8 3.1-.1.2-.8.2-1.1.1-.3-.1-.9-.5-.9-.7 0-1.6.2-3.2.1-4.7 0-.5-.6-1.1-1.1-1.2-.4-.1-1.3.3-1.4.6-.5 1.3-.9 2.6-1.3 4-2.5.9-4.5-.2-6.3-1.4-.7-.5-1.1-1.7-1.2-2.6-.3-1.4.1-2.6.3-3.8zM674.1 658c-1.7-9.6-4.3-18.9-8.3-27.8-3.2-7.2-6.3-14.5-11.4-20.7-1.4-1.7-2.2-3.8-3.6-6.3 3.9-2.5 7.4-4 11.1-4.9 2.2-.5 3.7.3 4.8 2.7 1.7 3.9 3.2 7.9 4.9 11.8 6.4 15 10.7 30.5 12.6 46.7 1 8.7.8 17.4-.8 26-.1.6-.2 1.2-.4 1.8-1.3 4.9-4.3 7.3-9.6 7.7-.7 0-1.6-1-1.4-1.7 2.7-7.1 2.8-14.6 3.1-22.1.2-4.4-.3-8.7-1-13.2zm-14.8 36.7c-.2 5.4-1.2 6.6-6.5 7.9-1.1.3-2.3 0-3.9 0-.2-1.8-.6-3.4-.6-4.9-.2-11.9-3.9-22.6-10.3-32.5-5.4-8.4-11.2-16.4-19.1-22.6-8.4-6.6-16.9-13.2-27-17.2-.4-.1-.8-.3-1.1-.4-2.3-1-3.3-2.3-2.7-3.4 1.1-1.7 2.8-1.5 4.3-1.2 2.9.7 5.9 1.4 8.7 2.5 4.7 1.8 9.4 3.7 13.9 6 9.4 4.8 18 11 25.2 18.7 7.8 8.3 13.6 17.9 16.8 29.1 1.9 6 2.5 11.9 2.3 18zm-158 48.5c-.3.9-.8 2.1-1.6 2.4-5.4 1.9-10.8 4.3-17.2 3 .5-.9.5-1.2.7-1.2 5.1-2.2 10.2-4.6 15.4-6.7 1.9-.8 3.3.7 2.7 2.5zm-292-85.4c-2.6-.7-4.8-2.1-6.6-4-1.7-1.8-1.8-3.2-.6-5.5 2.5-4.8 2.5-4.8-2.5-7.7-1.2-.7-2.3-1.6-3.5-2.4-3.2-2-4-4.8-3.2-8.6 4.2-1.1 5.5-4.2 5.5-8.3-1.6-2.5-4.4-3.9-6.8-5.8-3-2.3-4.1-5.4-3.7-9.1.2-2.1 1.3-3.1 3.6-3.3h.6c3.9-.4 5.3-3 3-6.1-1.1-1.5-2.5-2.7-3.6-4.1-3.4-4.2-5.8-8.8-4.8-14.5.7-3.9 2.1-7.4 5.3-9.5 2.5.1 4.6.3 6.8.4 2.1.1 3.2.7 3.2 2.7 0 3.6 2.1 4.8 5.1 5.6 4.3 1.1 8.5 2.5 12.8 3.9 2.7.9 5.4 1.5 8.4.3.6-2.8-.4-5.3-1.6-7.5-6.7-12 1.1-27.7 16.1-31.1 3.3-.8 7.1 1.8 7.8 5.2.2 1 .3 2 .3 3s-.2 2-.3 3.1c-1.1.3-2.1.4-2.9.9-1.2.9-2.4 1.9-3.8 1.3-1.2-.4-2.3-1.4-3.7-2.4-.2.9-.5 1.8-.5 2.7.2 3.3.6 3.5 4 3.7.6 0 1.1.2 2.1.4-.1 1-.2 2-.4 2.9-.6 2.3-.2 4.4.7 6.5.7 1.7 1.8 3 3.4 4 4.5 2.9 8 6.6 10.5 11.5 2.1 4.2 2.8 8.4 2.7 12.9 0 .8-.2 1.6-.3 2.4-.7 7.1-.2 7.9 6.2 10.5 2.2.9 4.6 1.7 6.8 2.5 3.4 1.3 3.8 2.3 2.3 5.4-.4.7-.7 1.4-1.2 2.1-4.3 6.9-6.2 14.4-6.2 22.5 0 1.9.6 4.1-1.1 6.1h-15.8c-2.4 3.5-6.1 4.6-9.7 6-11.3 4.5-22.8 4.6-34.4 1.4zm174.1 86.8c-1.7.1-3.6.4-5.4.4-11.5.2-23.1.5-34.4-2.2-9.6-2.3-19.5-3.9-28.9-7.1-1.9-.7-3.8-1.4-5.6-2.3-9.7-4.7-19.1-9.8-27.9-16-4.3-3-8.2-6.6-12.2-10-7.6-6.5-13.4-14.6-18.9-22.9-3-4.5-5.1-9.7-7.5-14.5-.3-.7-.2-1.6-.3-2.5 3.3-2 6.6-4 9.8-5.9 1.6-.9 3.1-1.9 4.6-2.9s3-1.1 4.6-.4c3 1.3 6 2.5 9 3.7 1.3 2.9 2.7 5.8 3.8 8.8 2.2 5.6 5.6 10.3 9.9 14.4 1.5 1.4 3.1 2.5 5.2 3.1 2.7.8 5.4 1.8 8.1 2.6 3.1.9 6.3 1.6 9.4 2.3.4.1.8.1 1.2.2 11.6 3.1 23.5 4.3 35.2 6.3 9.4 1.6 18.8 2.7 28.2 4.2 9.6 1.5 19.2 2.6 28.8 4.6 8.7 1.8 17.6 2.9 26.4 4.2 10.8 1.6 21.6 3.2 32.4 4.7 3.6.5 7.2.9 10.8 1.3 7.6 1 15.1 2.1 22.4 4.1.3 1.7-.7 2.1-1.6 2.4-2.9.9-5.8 1.8-8.8 2.4-9.7 2.2-19.3 4.6-29 6.4-10.3 1.9-20.7 3.7-31.2 4.8-8 .8-16.2.5-24.3.3-3.2-.1-6.4-1.1-9.5-2-5.5-1.8-9.5-5.3-10.7-11.3-.1-.5-.5-1-1.2-2.8-1.7 4.9-1.5 8.4-.2 11.9.9 2.4 2.7 4 4.8 5.3 1.5.9 3.1 1.7 5.2 2.9-1.1.7-1.6 1.4-2.2 1.5zM309 806.5c.4-.2.9-.3 1.3-.4-.3.4-.5.8-.8 1.1-.1.1-.5-.1-.8-.2.1-.2.1-.5.3-.5zm-34.1 25.9c.4-.3 1-.6 1.5-.6.7 0 .3 1.1-.8 1.6-.4.2-1 .2-1.5.3.2-.5.4-1 .8-1.3zm-6.3 82.7c-1-1.5-1.9-2.8-2.8-4.1-1.5-.8-2.1.9-3.4 1.3-.9-.8-1.8-1.7-2.9-2.7-.9.5-1.8 1-2.9 1.6-.9-.8-1.9-1.8-3.3-3-.7.5-1.4 1-2.2 1.6-.4-.1-.9-.1-1.1-.4-1.1-1.5-2.1-3.1-4.4-2.2-4.8-1.5-9.6-2.9-14.3-4.4-1-.3-1.9-.6-2.9-.9-.9-.2-2.1 1-1.9 1.9.2 1 .5 1.9.9 2.9.4 1.1.8 2.3 1.2 3.4 0 .1-.2.3-.4.8-4-3.3-7.2-6.9-8.2-12.1-.7-3.3.2-6.5 1.9-9.3 6-9.6 12.1-19.1 20.4-27.1 3.3-3.2 6.5-6.7 9.7-10.1 3.7-4 7.7-7.7 12-11.1 1.7-1.4 3.3-2.9 5.1-4.3 1.5-1.2 2.8-2.8 4.9-3.1-.4 1.8-1.9 2.9-3.1 4.1-8.7 8.5-17.5 16.9-25.8 25.6-6.7 7-12.6 14.8-18.1 22.8-.7 1-1.4 2-1.8 3.1-.2.6 0 1.8.4 2.1.5.3 1.6.1 2.2-.3 1.6-1.3 3-2.7 4.4-4.1 5.3-5.3 10.5-10.6 16-15.8 2.5-2.3 5.4-4.2 8.1-6.3 4.5-3.4 9.1-6.7 13.5-10.3 10.6-8.7 21.8-16.8 33-24.7 2.3-1.6 4.4-3.5 7.6-4.3 0 1.6.3 3-.1 4.3-1.1 4.1-2.4 8.1-3.5 12.2-.6 2.2-2 3.3-4 4.2-9.6 4-18.4 9.2-27.1 14.8-4.4 2.8-8.8 5.8-13.2 8.6-8.6 5.4-16.6 11.6-24.5 17.9-.9.8-1.9 1.5-2.7 2.4-.9.9-.4 2.6.9 2.9.6.1 1.2.4 1.8.3 4.8-.3 9.7.1 14.1-2.5.7-.4 2.1.5 3.3.8.7-.9 1.5-1.7 2.3-2.7.9.5 1.8.9 3.1 1.6.5-.8 1-1.5 1.7-2.5.8.7 1.7 1.4 2.8 2.3.5-.9 1.2-1.7 1.4-2.5.6-2.9.9-5.9 1.8-8.9 1.1 3.7 1 7.6 2.7 11 2.3 0 1.2-2.5 2.9-3 .8.9 1.7 1.9 2.9 3.3.9-2.4 1.6-4.3 2.6-6.9 1.4 2.1 2.5 3.7 3.6 5.4 2.4-1.1 1.1-3.8 2.7-5.5 2.4 1.6 1.1 5.1 3.5 6.8 2.4-1.5 1.3-4.9 3.6-6.8 1.4 1.5 2.1 4 4.9 3.6.8 1.2 1.6 2.3 2.3 3.4 2 .6 1.6-2 3-2.3.3.2.8.4.8.7 1.3 6.3 2.4 12.7 3.8 19 .6 2.9 1.7 5.8 2.7 9h-4l-1.2 4.5c-.3 0-.8.1-1-.1-1.9-1.5-2.2-4.4-5.1-5.4-.7 1.1-1.5 2.2-2.4 3.7-1.5-1.5-2.8-2.8-4.4-4.3-1 1.2-1.7 2.1-2.5 3-2.3-.4-2-3.5-4.6-4-.6 1.3-1.3 2.6-2 4-.4-.1-.9-.1-1.1-.3-1.2-1.6-2.4-3.2-3.9-5.3-1 1.8-1.7 3.1-2.5 4.5-.5-.2-1.2-.3-1.5-.6-1-1.4-1.9-3-3-4.6-1 1.4-1.7 2.3-2.7 3.4zm193.1 99.4c-.7 1.6-2.1.7-3.2.7h-.2c-1.2.1-2 .3-2.8.2-.5-.1-1.1-.6-1.2-1.1-.3-1 .4-1.5 1.3-1.6 1-.1 2-.2 3-.1 2.1 0 3.5.9 3.1 1.9zm12.8-2.5c-.2-.2-.5-.4-.7-.6.2-.2.4-.4.7-.5.1 0 .4.2.4.3-.1.3-.3.6-.4.8zm4.9-3c-.2-.1-.3-.5-.5-.8.3-.1.7-.4.9-.3.2.1.3.6.4.9-.2.1-.6.3-.8.2zm3.2-19.3c-.2.3-.3.5-.5.8 0 0-13 16.7-27.1 19.8-2.5.5-4.5.8-6.2.8.1.4.2.8.4 1.1-.5.3-.7.5-1 .6-.2-.4-.7-.9-.6-1.3 0-.2.2-.3.5-.4-7.3-.2-7.7-4.7-7.9-5-.1-.2-.3-.4-.4-.7.4-.3.9-.6 1.4-.9 2.2-1.1 4.3-2.3 6.5-3.2 9.2-3.6 18.1-7.9 27.1-12 2-.9 4.2-1.5 6.3-2 .4-.1 1.2.4 1.5.8.2.3.3 1.2 0 1.6zm3.3 18.9c-.4-.3-.7-.8-1.1-1.2.3-.2.8-.6.9-.5.5.2.8.7 1.3 1.1-.4.4-.9.7-1.1.6zm20.1 55.3c-.1.1-.3 0-.9-.1.1-2.7.8-5.2 2.6-7.4.2-.3.6-.5 1-.6.3-.1.9-.1 1.1.1.3.4.8 1.2.7 1.4-1.5 2.2-2.5 4.8-4.5 6.6zm1.8-13.7l1.2-.6c.2.5.4 1 .6 1.4-.4.2-.9.5-1 .5-.3-.4-.6-.8-.8-1.3zm9.3-48.1c-.6-.2-1.5-.6-1.6-1.1s.6-1.2 1.3-2.4c.6 1.2 1.1 1.7 1.2 2.3 0 .4-.7 1.2-.9 1.2zm165.3-64.2c-.2-.4-.5-.7-.7-1.1.3-.1.7-.4.9-.3.2.1.3.5.5.8-.2.1-.5.4-.7.6zm223-54.6c-.2-.1-.3-.6-.4-.9.3-.1.7-.4.9-.3.3.1.3.6.5.9-.3.1-.7.3-1 .3zm44.4-14.5v-.9c.8-.1 1.5-.3 2.3-.2.5 0 1 .4 2.8 1.1h-5.1zm20.1-.7c-.1-.2-.3-.4-.3-.5.2-.2.5-.4.8-.7.1.1.2.3.3.4-.2.4-.5.6-.8.8zm36.9-14.5c-.2.1-.6-.2-.9-.3.1-.3.2-.8.4-.8.3-.1.6.2 1 .3-.2.2-.3.7-.5.8zm29.6-11.8c-.1.1-.3-.1-.4-.1.3-.1.6-.3.9-.4l-.5.5zm1.8-.8h-.9c.2-.3.4-.6.6-.7.2-.1.5.3.8.4-.2.1-.3.3-.5.3zm24-4.3c-.2.6-.8 1.1-1.4 1.8-.5-.8-1.1-1.5-1-1.6.4-.5 1-.9 1.6-1.3.2.3.9.8.8 1.1zm83.2-17.1c-.1 0-.4-.2-.4-.3.1-.3.2-.5.4-.7.2.2.5.4.7.6-.3.1-.5.3-.7.4zm43.8 35c2.3-.7 2.3-.7 6 1.4-2.8.8-4.1-.4-6-1.4zm9-3.6c-.2 0-.5-.6-.5-1 .1-1.2.9-1.6 2.3-1.6.2.5.7 1 .6 1.3-.4 1.1-1.3 1.5-2.4 1.3zm6.1-33.6c-1.1 2.6-4 4-6.7 3.3-.3-.1-.4-.6-.7-1.2 1.3-1.1 2.5-2.4 4-3.3.7-.4 1.9-.3 2.8-.2.3.1.8 1.1.6 1.4zm-14.3-3.5c2-1 4-1.9 6-2.6 1.5-.5 3.1-.5 3.6-.6 1.3.1 1.5.1 1.7.1 1.8.1 3.1.9 2.5 1.5-.8 1-1.9.6-2.8.2-1.9-.9-3.6-.4-5.2.6-1.6.9-3 2-4.6 2.9-.8.5-1.6.3-1.9-.6.1-.4.4-1.3.7-1.5zm4.3 6.6c-.2.5-.3 1.2-.7 1.5-.6.4-1.4.4-2.1.5-.6-1.4-.2-2.4.8-2.8.5-.1 1.3.5 2 .8zm-26.9-.6c1.4.3 2.7.8 4.1 1.1 4.3.8 8.4.8 11.6-2.9.9-1.1 2-1.2 3.2 0 0 .5 0 1.1-.1 1.7-.2 1.1-.9 2.5-.5 3.4.7 1.4 1.9 2.8 3.2 3.4 2.3 1.2 4.9 1.9 7.4 2.7 2.5.9 4.8 2.1 6.4 4.3 1.4 1.9 1.7 4.4-1.1 6.2-3 1.8-6.1 2.6-9.2 1.1-8.1-3.9-17-5.1-25.4-7.8-3.5-1.1-7-1.9-10.5-3-.9-.3-1.7-1-2.8-1.6 1-1.8 1.8-3.4 2.9-4.8 2.8-3.7 6.5-4.9 10.8-3.8zm51.6-80.6c-1.1 2.4-2.3 4.8-3.6 7-8.5 14.7-19.7 27.2-33.1 37.6-8.6 6.7-17.8 12.7-28 16.9-1.1.4-2.2.7-3.2.9-1.2-1.1-.8-2.1-.4-3 .5-1.1 1.1-2.2 1.8-3.2 1.7-2.4 2.6-4.9 3-7.8.4-2.8 1.2-5.5 1.8-8.1-.7-1.8-2.2-1.7-3.6-1.9-14.5-1.8-29.1-1.6-43.7-1.4-13.4.2-26.7 1.7-39.9 3.4-16.9 2.2-33.7 4.3-50.5 6.7-7.4 1.1-14.7 2.7-22 4.3-9.1 1.9-18.2 3.9-27.3 6.1-13.2 3.2-26.2 6.9-39.1 11.2-8.1 2.7-16.2 5.2-24.3 7.8-4 1.3-8 2.8-12 4.3-13.1 4.9-26.2 9.7-38.9 15.6-8.1 3.7-16.2 7.3-24.3 11.1l-26.4 12.3c-5.3 2.5-10.2 5.6-15.2 8.6.4 1.4 1.4 1 1.9.7 5.5-3.9 12-5.8 18.1-8.5 15-6.6 30.1-13 45.3-19.2 12.3-5.1 24.7-10.3 37.3-14.7 17.5-6.2 35.3-11.9 53-17.5 8.3-2.6 16.8-4.6 25.3-6.6 15.6-3.5 31.2-7 46.9-10.1 9.1-1.8 18.4-3.1 27.6-4.3 12.8-1.6 25.7-3.4 38.6-4.2 10.5-.7 21-.5 31.6-.2 8.3.2 16.5 1.2 24.8 1.8 1.8.1 3.6.4 5.1.6.8 1.5.3 2.4-.7 2.9-2.1 1.1-4.3 2.1-6.6 3-10.5 4.3-21 8.5-31.5 12.7-5.4 2.2-10.9 4.4-16.3 6.6-10.2 4.1-20.8 6.6-31.3 9.6-11.9 3.4-23.9 6.2-35.7 9.9-17.2 5.3-34.5 10.3-52 14.7-1.4.3-2.7.7-4.1 1-13.5 2.7-26.8 6.2-40.1 9.9-6.4 1.8-13 3-19.5 4.4-14 3-28.1 6.2-42.1 9-15.7 3.2-31.3 6.3-47 9-8 1.4-16.1 2-24.1 2.9-4.8.6-9.7 1-14.5 1.5-4.7.5-4.7.5-8.9-1.3-.4.8-1.2 1.7-1.2 2.5 0 .9.7 2 1.4 2.5 3.3 2.5 7.2 3.7 11.2 4.3 7.2 1 14.4 1.7 21.8.9 8.4-1 16.9-1.4 25.4-2 1.6-.1 3.2.1 5.4.1-.3.4-.5.8-.6 1.1-17.2 46.2-136.1 48.1-136.1 48.1l7.4-9.9c.4-1.1 1.1-2 2.2-2.9 3.9-3.5 7.9-6.7 11.1-11 2-2.7 5.1-4.5 7.7-6.7 1.2-1.1 2.4-2.2 3.2-3.5 1.6-2.6 3.7-4.6 6.2-6.5 4.2-3.2 8-6.8 12-10.2.8-.7 1.4-1.4 2-2.3 1.3-1.9 2.6-3.9 4.4-6.6-3.4.4-6 .7-8.5 1.1-13.6 2.3-26.9 5.5-40.3 9-17.8 4.7-35.1 11-52.7 16.5-19.4 6-37.9 14.1-57 20.9-12.2 4.4-24 9.7-36.1 14.4-9.2 3.7-18.5 7.1-27.7 10.8-14.7 5.9-29.3 11.9-43.9 17.8-7.5 3.1-15 6.1-22.5 9.2l-26.4 10.8c-15.9 6.5-31.9 13-47.9 19.3-12.2 4.8-24.6 9.4-36.8 14.2-9.2 3.6-18.3 7.7-27.6 11.2-20.3 7.5-40.7 14.7-61.1 22.1-10.5 3.8-21.2 6.9-32 9.5-9.4 2.3-18.9 4.6-28.3 6.8-11.8 2.8-23.7 5.4-35.7 6.9-9.4 1.1-18.8 2.6-28.3 3.9-1.6.2-3.2.4-4.8.5-12.1.5-24.3 1.1-36.4 1.3-6.7.1-13.3.4-20-.7-2.8-.5-5.7-.3-8.5-.4-9.5-.6-19-1.3-28.3-3.6-2.5-.6-5-1.6-7.4-2.8-2.6-1.3-3.4-3.2-2.9-6 .4-2.1 1.3-3.9 2.9-5.2 3.5-2.8 6.8-5.7 10.5-8.2 7.1-4.7 14.2-9.4 21.5-13.7 15.5-9.1 31.2-18 47.8-25 13-5.5 25.9-11.5 38.9-17 7.8-3.3 15.9-6 23.8-9.1l19.8-7.8c6.4-2.6 12.7-5.3 19.1-7.9 11.6-4.7 23.2-9.5 34.9-14.2 10.3-4.2 20.7-8.2 31-12.4 8.3-3.3 16.5-6.6 24.8-10 1.5-.6 3-1.3 4.5-1.9 12.2-4.3 24.4-8.6 36.6-13 7.6-2.8 15.1-5.8 22.7-8.6 8.5-3.1 17.1-6.2 25.7-9.2 9.5-3.4 19.1-6.6 28.7-10 1.3-.5 2.6-1 4-1.4 18.5-5.1 36.8-11.3 55.6-15.1 7.3-1.5 14.6-3.5 21.9-5 8.5-1.8 17.1-3.3 25.6-5 13.9-2.7 28-4.5 42.1-5.6 13.3-1 26.6-2.4 39.9-3.1 11.7-.6 23.5-.5 35.2-.5 18 0 35.9 2.3 53.8 4.4 10.1 1.2 19.9 3.7 29.9 4.9 4.3.6 8.7 1.6 14.2 1.2-16.4-5-31.8-8.7-47.7-10.8-11.6-1.5-23.3-3.3-35-3.5-10.5-.2-21-1.3-31.5-.3-2.8.3-5.7.1-8.5.2-14.6.3-29.1 1.5-43.6 3.3-5.8.7-11.7 1-17.5 1.6-7.8.8-15.7 1.6-23.5 2.8-8.4 1.3-16.8 2.8-25.1 4.5-13.7 2.7-27.4 5.4-41 8.6-11.4 2.7-22.7 6.1-34 9.1-11.4 3-22.6 6.5-33.6 10.4-20.6 7.3-41.4 14.1-61.6 22.3-5.4 2.2-11 4.2-16.5 6.2-.8.3-1.5.5-2.3.7-2.9.7-4 .2-5.4-2.5-3.2-6.1-5.7-12.6-7.5-19.2-1.7-6-3.4-12.1-4.4-18.3-1.2-7-1.9-14-1.4-21.1.3-4.2.5-8.5.7-12.7.4-8.9 2.3-17.6 4.5-26.3 1.1-4.1 2-8.2 3.3-12.3.9-2.9 2.3-5.6 3.4-8.4.6-1.5 1.2-2.9 1.8-4.5-2.7-1.6-4.9-.9-7.1.3-1.5.8-2.6 2.3-4.5 2.3 3-3.8 6.9-6.5 10.6-9.3 1.2-.9 2.6-.4 3.6.7.7-.7 1.5-1.3 2-2.2 2.2-3.8 5.5-6.4 9.1-8.7 10.8-7.2 22.3-13.2 33.8-19.1 6.8-3.6 13.6-7.1 20.5-10.6 3.6-1.8 7.3-3.5 10.9-5.3s7.3-3.5 10.9-5.4c6-3.2 12.3-5 19.1-5.4 5.2-.3 10.5-1 15.7-1.6 5-.6 10-1.3 15.1-1.9 1.5-.2 3.2-.6 4.9.8-.8 2.4-2.8 3.7-4.7 5.1-4.2 3-7.5 6.7-10.8 10.6-1.3 1.5-.6 3.3 1.4 3.5s4.1.4 6 .1c7.6-1.3 15.1-2.8 22.7-4.3 1.2-.2 2.4-.6 3.6-.7 9.1-1 17.8-3.5 26.7-5.7 13.8-3.4 27.6-6.3 41.4-9.8 18.8-4.7 37.6-9.8 56.4-14.8 10.4-2.8 20.7-5.6 31-8.5 6.2-1.8 12.4-3.8 18.6-5.7 11.1-3.3 22.2-6.3 33.2-9.8 14.6-4.6 28.2-11.1 40.6-20.1 3.3-2.4 6.4-4.9 8.5-8.2-1-5.1-1-5.1-3.8-8.6 2.3-1.6 5-1.6 7.4-1.9 5.6-.7 11.3-1 16.9-1.5 4.6-.4 9.3-.9 13.9-1.3 14.5-1.1 29.1-2.2 43.6-3.2 3.8-.3 7.7-.3 11.5-.3 8.3-.1 16.6-.3 24.9-.8 10.5-.6 21.1-.7 31.6-.4 16.4.4 32.8 1.5 49.1 1.9 12.8.3 25.4 1.7 38.1 2.8.4 0 .8 0 1.2.1.9.4 2.1.6 2.5 1.3.7 1.3-.5 2.2-1.4 3-4 3.8-8.7 6.6-13.7 8.9-.7.3-1.4.6-2 .9-.2 1.4.6 1.6 1.3 1.9.6.2 1.2.4 1.8.5 7 .7 14 1.7 21.3 1.8 1.6-2.4 3.5-4.3 5.8-6 3.7-2.8 6.4-6.8 8.8-10.7 2.6-4.1 4.6-8.5 6.6-13 5.4-12.1 8.3-24.9 11.3-37.7 1.2-5.1 2.7-10.2 3.8-15.3 1.1-5.3 1.9-10.8 2.9-16.1.8-4.4 1.7-8.7 2.7-13.1 1.4-6.5 3.1-13 4.4-19.5 2.7-14 6.9-27.5 13.1-40.3 5.2-10.8 11.2-21.2 20-29.5 8.5-8.1 17.9-15.3 28.1-21.1 8.7-4.9 18.3-7.7 28.2-8.7 4.4-.4 8.9-.8 13.3-.9 5.5-.1 10.9.4 16 2.9 2 1 4.2 1.3 6.3 2.1 9.2 3.6 16 10.4 21.5 18.2 7.1 9.9 13.8 20.1 17.9 31.6 3 8.6 6.2 17.1 8.4 26 1.7 7.1 4.1 14 5.9 21 4.9 19.2 10.6 38.2 14.2 57.7 2.1 11.3 4.4 22.7 6.3 34 .8 4.4 1 8.9 1.2 13.3.5 10.1.9 20.2.4 30.3-.6 12.7-2.8 25-6.5 37-2.4 7.5-4.2 15.2-7.6 22.4zm-905.4 77c.1-.3.4-.6.7-.8.1-.1.4.3 1.3.8-.6.3-1.1.6-1.6.7-.1 0-.5-.5-.4-.7zM1286 712.1c-1.7 1.4-3.5 2.7-5.4 3.9-9 5.4-18 10.8-27.1 16-6.3 3.6-12.7 7.1-19 10.6-1 .6-2.2.8-4.3 1.6.4-4.7 2.8-7.6 4-11 1.2-3.6 2.7-7.2 3.8-10.8 1-3.5 1.6-7 2.5-10.9 1.1 0 2.1-.2 3 0 4.7.7 9.2-.4 13.8-1.1 8-1.1 16.1-1.6 24.1-1.8 1.8 0 3.6-.5 5.6 1.1-.3.7-.3 1.9-1 2.4z"/>
    <path class="st1" d="M576.9 414.1c3.3-3.1 7.6-1.9 12.1-2.6-1.8-3.6-2.9-4.6-6.3-4.9-8-1.2-16.8 1.7-21.1 10.7-1.7 3.5-2.7 7.2-1.7 11.2.5 1.8 1.2 3.5 2.8 4.6 1.6 1.2 3.3 1.3 5.3.6.9-1.4 1.7-2.9 2.6-4.4 3.8 1.9 4.9 2.9 5.7 4.7 1.8 4.2-.7 8.1-5.9 9.1-.9.2-2-.3-2.6.9-.3.8.5 1.9 2.2 2.4 1.3.3 2.8.6 4.1.4 6.1-1.2 10.1-5.2 12.7-10.4 3.4-7-1.3-15.3-9-16.7-1.1-.2-2.2-.5-3.3-.7-.5-2.5 1.1-3.7 2.4-4.9zM435.7 432.9c.4 3.2 2 5.8 5.2 6.8 4.3 1.4 8.7.9 12-2 4.4-3.9 8.1-8.5 8.9-14.7.4-3.2.6-6.4.8-8.8 0-1.6.1-2.4.1-3.2-.8-5.5-2.9-10.3-8.5-12.2s-11-1.5-15.8 2.8c-6.6 5.9-7.4 15-3.8 23.2.7 1.5 1.4 2.8 1.2 4.5-.1 1.2-.3 2.4-.1 3.6zm.1-17.1c.2-2 .8-4 1.4-5.9.3-1 .8-1.9 1.4-2.7 2.2-3 5-4.8 8.8-4.3s6.1 3 7.6 6.3c.4.9.7 1.9.8 2.9.2 3.8.4 7.7.4 11.5.1.9-.5 1.8-1 3.2-1.1-1-1.9-1.5-2.7-2-1.1-.9-2.1-2-3.3-2.7-2.8-1.6-5-1-6.5 1.9-.7 1.4-1.4 2.8-2.3 4.7-1.3-1.7.4-3.1-.4-4.2-4.3-2.8-4.9-3.8-4.2-8.7zM921 951.6c5.9-1.8 11.9-3.6 17.7-5.4 1.2-.4 2.9-.4 3.3-2.2-.4-.7-.9-.9-1.5-.9-.5 0-1.1.2-1.5.3-5.4 1.6-10.9 3-16.2 5-11.6 4.4-23.6 7-35.5 10.3-15.9 4.4-32.1 8.2-48.1 12.3-10 2.6-19.9 5.3-29.8 8-1.9.5-4.2.8-6.3 3.1.3-.1.6-.1.9-.2.6-.1 1.1-.2 1.5-.3.7-.1 1.3-.2 1.8-.4 4.1-1 8.2-2.2 12.3-3.2 10.2-2.4 20.4-4.7 30.6-7.2 7.2-1.8 14.4-3.9 21.6-5.8 13.6-3.5 27.5-6.3 40.9-10.8 2.7-.8 5.5-1.7 8.3-2.6zM451.9 377.3c3.3 1.1 6.1 3.4 9.1 5.1 1.8-1.3 1.6-3 1.3-4.5-.6-3.2-1.6-6.2-3.3-9-2.5-4.3-5.9-6.1-10.6-4.7-7.9 2.4-14.9 6.2-16.8 15.5 3.1-2.3 6.4-3.7 10.2-3.7 3.4.1 6.9.2 10.1 1.3zM1072.1 388c.3-.1.5-.1.8-.2 10.3-2.9 20.5-6 30.8-9 10.5-3 21-6 31.5-8.9 10.7-3 21.5-5.7 32.2-8.8 9.3-2.7 18.5-5.7 27.8-8.6 1.3-.4 2.5-.9 3.7-1.4 0 0-.1 0-.1-.1-.6-.3-1.1-.5-1.6-.5h-.5-.1c-.2 0-.4.1-.7.2-1 .3-2.1.6-3.1.9l-10.8 3c-2.9.8-5.9 1.6-8.8 2.5-4.1 1.1-8.1 2.3-12.2 3.5-6.2 1.8-12.5 3.6-18.7 5.4-8.5 2.4-17.1 4.6-25.7 7-1.4.4-2.7.7-4.1 1.1-8 2.3-15.9 4.8-23.8 7.2-2.1.7-4.2 1.3-6.3 2-2.6.8-5.1 1.6-7.7 2.4-2.1.7-4.2 1.3-6.3 2-.2.1-.4.1-.6.2h-.1c-.6.3-1.2.7-1.8 1.1v.1c.2 0 .4-.1.5-.1 1.9-.4 3.8-.6 5.7-1zM890.5 289.4c-2.7.6-5.2 1.7-7.5 3.5 1.6-.1 3.2 0 4.7-.2 6.9-1.5 13.8-3 20.7-4.6 6.5-1.5 12.9-3.3 19.4-4.7 14.6-3.2 29-7.1 43.3-11.5.9-.3 2.3-.1 2.5-2-2.1.2-4.2.2-6.1.6-5.9 1.2-11.8 2.4-17.7 3.8-10.8 2.7-21.5 5.5-32.3 8.2-9 2.3-18 4.7-27 6.9zM952.7 291.8l-.1.1.1.1c2-.1 4.1-.1 6-.5 12.4-2.8 24.8-5.7 37.2-8.7 7.7-1.9 15.2-4 22.9-6 3.9-1 7.8-1.8 11.9-1.9 5.3-.1 10.3-1.6 15.5-3.8-.1 0-.1-.1-.2-.1-3.1-2.7-6.2-2.5-9.2-1.8-4.7 1-9.4 2.2-14.1 3.4-9.6 2.5-19.1 5.1-28.7 7.7-4.7 1.2-9.5 2.1-14.1 3.6-6.9 2.3-14 4-21 5.8-2 .5-4.4.7-6.2 2.1zM995.6 937.8c-1.4.1-2.3.1-3.2.4-6.7 1.9-13.5 3.8-20.1 5.8-.1 0-.1 0-.2.1-14.4 4.6-28.8 9.3-43.2 13.9-7.9 2.5-15.8 4.9-23.6 7.5-1.1.3-2.3.5-3.2 1.2.1.2.2.4.2.7 1.2-.2 2.4-.3 3.6-.6 5.8-1.5 11.6-3.4 17.5-4.7 13-3 25.5-7.5 38.3-11.3 10-3 19.9-6.6 29.8-10 1.5-.5 3.1-.9 4.1-3zM1163.8 429.8h.2c.9.1 1.9.1 2.8-.1 11.1-2.3 22.1-4.7 33.1-7.2 9.4-2.1 18.8-4.5 28.2-6.8 2.8-.7 5.6-1.5 8-3 .1 0 .1-.1.2-.1-6.7.4-13.2 1.6-19.6 3-6.6 1.6-13.2 3.2-19.8 4.7-4 .9-8 1.9-12 2.9-7.2 1.8-14.3 3.6-21.1 6.6zM863.2 229.6c.1 0 .1 0 0 0 2.7-.7 5.3-1.4 7.9-2 7.8-2 15.5-4.1 23.2-6.3 3.7-1 7.2-2.2 10.8-3.4 1.2-.4 2.4-.8 3.6-1.3l1.5-.6c1.5-.6 3-1.4 4.5-2.1-3.4-.2-6.5.5-9.6 1.4-7.2 2.1-14.4 4.1-21.6 6.1-9.1 2.6-18.4 4.8-27.2 8.3-.8.3-1.4.8-2.1 1.3h.3c2.9-.4 5.8-.7 8.7-1.4zM936.7 322.4c-8.6 1.9-17.3 3.8-25.9 6-9 2.4-17.8 5.4-26.9 7.3-2.8.6-5.8 1-9.2 3.3 8.3-1.6 15.7-2.8 22.9-4.4 7.1-1.6 14.1-3.5 21.1-5.5 7.1-2.1 14.5-2.9 21.3-6.6-1.1 0-2.2-.3-3.3-.1zM838.3 963c-.8-.1-1.4-.4-1.9-.4-18.4 4.7-36.7 9.4-55 14.1-.7.2-1.3.6-3.3 1.5h.1c2.1 0 2.9.2 3.6 0 18.3-4.6 36.6-9.3 54.9-14 .5-.1.9-.7 1.6-1.2zM1210.3 361.5c4-.9 8-1.9 12-2.9.2 0 .3-.1.5-.1 2.7-.7 5.4-1.4 8-2.1 5.8-1.6 11.6-3.4 17.4-5.1 1.1-.3 2.4-.7 2.1-2.7-2.7-.1-5.1 1-7.5 1.7-6.3 1.9-12.7 3.8-19.1 5.7-5.4 1.6-10.9 3-16.4 4.3-.9.2-1.9.4-2.8.7-.1.1-.3.1-.4.2-.5.3-1 .6-1.4 1.1 0 0 0 .1-.1.1 2.7-.3 5.3-.3 7.7-.9zM1202.7 362.4h-.2l.1.1.1-.1zM498 541.3c-2.3.5-4.6 1.1-7 1.6.6 2.4 2.2 3.5 4.2 4 2.6.6 5.2.6 7.8-.1.6-.2 1.6-1 1.6-1.5.1-.9-.3-2.1-.9-2.7-1.6-1.5-3.6-1.7-5.7-1.3zM1243.3 422.1c1.1.3 1.8.7 2.5.6 4.7-.8 9.5-1.6 14.2-2.5.8-.1 1.7-.4 2.2-.9s.5-1.4 1-2.7c-8.2 1-15.6 3.1-19.8 5.4 0 .1-.1.1-.1.1zM609.8 460.2c-.6 3.3-1.9 6.6-1.2 11.3 3.4-3.7 3.6-7.4 3.7-11.2 0-.4-.8-1.1-1.2-1.1-.4 0-1.2.6-1.3 1zM913.8 224.9c5.5-.2 10.8-2.1 16-3.5.5-.1 1.1-.5.8-1.2-.1-.2-.2-.5-.4-.8-1.4.3-3 .5-4.5 1-4 1.6-8.3 1.9-11.9 4.5-.1 0 0 0 0 0zM913.4 225.1c.1-.1.2-.1.3-.2h-.4l.1.2zM1211.2 348.1c.1 0 .2-.1.3-.2l2.6-1.3s.1 0 .1-.1c-5.9.5-8.5 1.2-11.5 3.4 3.2-.1 5.3-.4 7.9-1.6.2 0 .4-.1.6-.2zM1214.5 346.5c.2-.1.3-.1.5-.2h-.7.1c-.1 0-.1.1-.2.1.1.1.2.1.3.1zM1064.6 389.2c-4.4.1-8.6 1.2-12.4 3.4 4.4-.3 8.5-1.1 12.4-3.4zM738.1 645.4s-.1.1-.2.1c.1 0 .2 0 .2-.1zM728.9 650.3c3.7-.3 6.5-2.3 9.1-4.7-3.7.4-6.5 2.2-9.1 4.7zM728.9 650.3h-.4l.2.1s.1-.1.2-.1zM1197.7 363.6h-.3c-3 .1-5.9.5-8.6 2.1v.2c3.1-.2 6.2-.6 8.9-2 0-.1-.1-.2 0-.3zM747.9 640.6c-3.1.5-4.5 1.2-6.9 3.5 1.9-.6 3.8-1.1 5.6-1.8.6-.2.9-1.1 1.3-1.7zM747.9 640.6s.1 0 0 0zM741 644.1c-.1 0-.2.1-.3.1s-.1.1-.2.1h.3l.2-.2zM728.3 650.5c-1.4.7-2.9 1.3-4.4 2.1 1.8-.1 3.4-.5 4.4-2.1z"/>
    <path class="st1" d="M728.3 650.5c.1 0 .2-.1.3-.1l-.1-.1c0 .1-.1.1-.2.2zM1217.8 346.1c0-.2-.1-.5-.1-.7-.9.3-1.7.6-2.6.9h-.1.1c.8 0 1.7-.1 2.7-.2zM738.3 645.2c-.1 0-.2.1-.2.1l.1.1c0-.1.1-.1.1-.2zM738.3 645.2c.7-.3 1.4-.6 2.2-.9-.8 0-1.6.2-2.2.9zM749.2 977.9v-.2l-.5.1zM723.5 652.9l.2-.2c.1 0 .2-.1.3-.1h-.4l-.1.3zM776.9 1024.7l.2-.2.2-.1h-.2zM1213.2 731.6c0 .1.1.2.1.3v-.1c.1.1.3.1.4.2l-.3-.3c-.1 0-.1-.1-.2-.1zM1041 682h.4c-.1 0-.2-.1-.4 0zM1209.3 727.6c-5.5-3-10.8-6.3-16.5-8.9-12.6-5.7-25.8-9.6-38.9-13.5-17-5.1-34.3-9.1-51.6-13.2-3.1-.7-6.2-1.6-9.4-2.2-11.5-2.1-23-4.2-34.5-6-5.6-.9-11.3-1.2-17-1.8.8.4 1.5.9 2.3 1.1 7.7 1.4 15.5 2.6 23.2 4 8 1.4 16 2.6 23.8 4.4 11.6 2.6 23.1 5.7 34.6 8.7 18.2 4.7 36 10.7 53.8 16.5 8.5 2.7 16.5 6.5 24.4 10.6 3.1 1.6 6.5 2.8 9.7 4.3-.7-1.9-2.2-3-3.9-4zM1040.5 681.8c-3.8-1.2-7.7-1.8-12.4-1.9 4.4 2.3 8.4 1.8 12.4 1.9zM1040.5 681.8c.1 0 .2.1.3.1l.2-.1h-.5zM323.8 799.7l.1.1c.4-.8.7-1.7 1.1-2.5.1 0-.1-.1-.1-.1-.4.8-.7 1.7-1.1 2.5z"/>
    <path class="st1" d="M323.9 799.9l-.1-.2c-.1.1-.1.3-.2.4.1-.1.2-.2.3-.2zM422.4 597.9c0-.1 0-.1 0 0-.4-1.5-1.1-2.5-2.4-3.3.2 1.5.6 2.9 2.4 3.3h-.1c0 .1.1.2.1.2v-.2c.1 0 0 0 0 0zM417.4 590.7c.4.8.7 1.7 1.1 2.5l.1-.1c-.4-.8-.7-1.7-1.2-2.4zM423.6 600.3c-.1-.1-.2-.1-.3-.2 0 .1.1.2.1.3l.2-.1zM423.3 600.1c-.3-.7-.6-1.3-.9-2 0 .9.2 1.6.9 2zM423.8 601c0-.1-.1-.4-.1-.6-.1-.1-.2.1-.2.1.2.4.5.7.3.5zM418.7 593.1c.3.5.8 1 1.2 1.4l.1.1v-.2l-1.3-1.3zM597 565.2c.8-.7 1.4-1.4 1.1-2.5-.2-.9-1.9-.9-3 .2-1.2 1.2-2.4 2.5-3.4 4-.4.7-.2 1.8-.3 3.8 2.6-2.5 4.2-4 5.6-5.5zM583.7 565.8c-3.2-.6-4.6.7-5.8 2.5s-1.3 2.3-.3 4.6c1.8-2.1 3.6-4.2 6.1-7.1zM605.1 552.6c-2.2-1.4-3.8-.7-5.1.5-1.2 1.1-2.6 2.3-1.6 5 2.3-2.1 4.8-3.3 6.7-5.5zM587.6 570.7c-4 .4-5 1.7-5 6 4-3.5 4-3.5 5-6zM611.6 549.7c1.4-1.4 2.8-2.8 4.9-4.8-3-.5-4.2.8-5.1 2.3-.5.8-.9 1.7.2 2.5zM615.6 554.1c0 .2.5.4 1.1.8l2.1-4.2c-2.7-.2-2.9 0-3.2 3.4zM630.5 543.7c-3.2.6-3.2.6-3.6 4.1 1.2-1.8 3-2.1 3.6-4.1zM590.2 559.2c.4-.6 1-1.4 0-1.9-.3-.1-1.2.2-1.5.6-.5.7-.8 1.6-1.1 2.4.4.3.9.6 1.4.9.4-.6.8-1.3 1.2-2zM577.5 582.3c-3.2 1.1-3.6 2.8-3 5.8 1.1-2.2 1.8-3.6 3-5.8zM633.9 536.2c.6-.4 1.1-1 1.6-1.5-.3-.2-.6-.5-.9-.8-.5.5-1.1 1-1.6 1.5-.1.1-.1.5 0 .5.3.2.7.4.9.3zM561.9 593.3c-.4-.3-.5-.4-.7-.6-.4.6-.8 1.1-1.2 1.7l.4.3c.5-.4 1-.9 1.5-1.4zM641.7 540.1c.1 0-.1-.3-.1-.5-.2.1-.5.3-.8.4 0 .1.1.3.1.5.2-.1.5-.2.8-.4zM571.9 580.8c-.1 0-.1 0-.2.1 0 .1.1.2.1.2 0-.1 0-.2.1-.3zM573.1 579.2c-.3.1-.8.1-.9.3-.2.4-.3.9-.3 1.3.4-.2.9-.4 1.2-.7.1-.1 0-.6 0-.9zM564.5 582.3l.2-.3-.4.2c0 .2-.1.3-.1.5.1-.1.2-.2.3-.4zM564.2 582.7c-.1.1-.2.2-.3.4-.1.1 0 .3.1.4.1-.2.1-.5.2-.8zM566.6 594.8c-.2.1-.3.3-.4.5-.1.1.1.3.1.4l.3-.9zM567.1 594.2l-.3.2c-.1.1-.1.3-.2.4.1-.1.2-.2.3-.2l.2-.4zM571.7 581c-.1.2-.1.3-.2.5l.3-.3-.1-.2zM269.1 700.3c.1 0 .3.1.4.1 0-.1-.1-.1-.1-.2l-.3.1zM376.7 716.4c-3.5-.6-3.6-.6-5.5.3-4.3 2-8.8 3-13.5 3-1 0-2 .3-3 .4-11.3 1.1-22.6 1.4-33.9-.2-18-2.5-34.3-9-49.4-18.9-.6-.3-1.2-.5-1.9-.6 1.9 3.4 5 5.6 8.3 7.5 8.4 4.8 16.7 9.8 26.1 12.7 4.2 1.3 8.4 2.6 12.7 3.9 11.1 3.3 22.2 5.5 34 4.1 9.4-1.1 17.4-4.8 24.9-10.2.5-.4.7-1.3 1.2-2zM268.7 699.9c.1.1.3.2.4.4l.1-.2c-.2-.1-.3-.1-.5-.2zM796.3 464.7c.9-3 2.6-5.8 2.2-9.2-2.5.4-3 2.3-3.7 3.9-.8 1.8-1.3 3.8 0 5.9.5-.2 1.4-.4 1.5-.6zM1200.2 834.5c-1.3-1.6-3-2.4-5.3-1.4 1.6 1.9 3 3.5 4.7 5.4 2.1-1.6 1.5-2.9.6-4zM612.3 267.8v-.3c-8.5-6.1-17.5-11.3-27-15.5-2.8-1.4-5.7-2.6-8.7-3.5-11.6-4.3-23.7-7.2-36-8.5 20.6 5.4 40.3 13.8 58.5 24.9l47.1 32.1c-9.4-11-21.9-21.1-33.9-29.2z"/>
  </g>
</svg>
