<?xml version="1.0" encoding="utf-8"?>
<!-- Generator: Adobe Illustrator 23.0.5, SVG Export Plug-In . SVG Version: 6.00 Build 0)  -->
<!DOCTYPE svg PUBLIC "-//W3C//DTD SVG 1.1//EN" "http://www.w3.org/Graphics/SVG/1.1/DTD/svg11.dtd" [
	<!ENTITY ns_extend "http://ns.adobe.com/Extensibility/1.0/">
	<!ENTITY ns_ai "http://ns.adobe.com/AdobeIllustrator/10.0/">
	<!ENTITY ns_graphs "http://ns.adobe.com/Graphs/1.0/">
	<!ENTITY ns_vars "http://ns.adobe.com/Variables/1.0/">
	<!ENTITY ns_imrep "http://ns.adobe.com/ImageReplacement/1.0/">
	<!ENTITY ns_sfw "http://ns.adobe.com/SaveForWeb/1.0/">
	<!ENTITY ns_custom "http://ns.adobe.com/GenericCustomNamespace/1.0/">
	<!ENTITY ns_adobe_xpath "http://ns.adobe.com/XPath/1.0/">
]>
<svg version="1.1"
	 id="Layer_1" xmlns:x="&ns_extend;" xmlns:i="&ns_ai;" xmlns:graph="&ns_graphs;" xmlns:v="https://vecta.io/nano"
	 xmlns="http://www.w3.org/2000/svg" xmlns:xlink="http://www.w3.org/1999/xlink" x="0px" y="0px" viewBox="0 0 1334.1 1141.4"
	 style="enable-background:new 0 0 1334.1 1141.4;" xml:space="preserve">
<style type="text/css">
	.st0{opacity:0.5;}
	.st1{fill:#F7B99A;}
	.st2{fill:#FFFFFF;}
	.st3{fill:#636363;}
</style>
<metadata>
	<sfw  xmlns="&ns_sfw;">
		<slices></slices>
		<sliceSourceBounds  bottomLeftOrigin="true" height="681.9" width="1209" x="63.2" y="239.8"></sliceSourceBounds>
	</sfw>
</metadata>
<g class="st0">
	<path class="st1" d="M1004.5,314.2c-1,2-2.1,3.7-3.4,5.2c-0.3,0.4-0.7,0.8-1,1.1c-2.7,2.8-5.9,4.7-10.2,6.3
		c-0.3,0.1-0.6,0.2-0.8,0.3c-0.8,0.3-1.7,0.6-2.5,0.8c-0.3,0.1-0.6,0.2-1,0.3c-1,0.3-2.1,0.6-3.3,0.9c-1.3,0.4-2.8,0.7-4.3,1.1
		c-3,0.7-6,1.6-8.9,2.5c-4.3,1.4-8.4,2.9-12.4,4.7c-3.9,1.7-7.7,3.6-11.2,5.7c-1.6,1-3.2,2-4.8,3c-3.4,2.3-6.6,4.8-9.6,7.5
		c-1.4,1.3-2.7,2.5-4,3.9c-1.7,1.8-3.3,3.7-4.9,5.6c-0.3,0.4-0.6,0.7-0.9,1.1c-0.1,0.1-0.1,0.1-0.2,0.2c-0.3,0.3-0.5,0.6-0.8,0.9
		l-0.1,0.1c-2,2.1-4.2,3.9-6.2,5.1c-3.6,5.7-9.9,15.9-16.3,26c1.7,1.2,3,2.3,3.6,3.2l0,0c0.1,0.2,0.2,0.3,0.3,0.5l0,0
		c0.1,0.1,0.1,0.3,0.2,0.4v0.1c0,0.1,0,0.2,0,0.3c0,0.1,0,0.2,0,0.3c0,0.3,0.2,0.5,0.5,0.8c0.2,0.2,0.4,0.3,0.7,0.5
		c0.7,0.4,1.8,0.9,3.1,1.3c0.3,0.1,0.6,0.2,0.9,0.3c0.6,0.2,1.3,0.3,2,0.5c0.4,0.1,0.7,0.2,1.1,0.3c1.1,0.3,2.4,0.5,3.8,0.8
		c2.3,0.4,4.9,0.8,7.8,1.3c0.7,0.1,1.3,0.2,2,0.3c1.7,0.2,3.5,0.5,5.4,0.7c0.2,0,0.3,0,0.5,0.1c2.6,0.3,5.4,0.6,8.4,0.9
		c0.9,0.1,1.8,0.2,2.7,0.3c1.1,0.1,2.2,0.2,3.3,0.3c2.9,0.3,5.6,0.5,8.2,0.7c0.9,0.1,1.9,0.1,2.8,0.2c1.6,0.1,3.1,0.2,4.5,0.3
		c0.9,0.1,1.7,0.1,2.5,0.1c3.7,0.2,7,0.2,10.2,0.2c0.6,0,1.3,0,1.9,0c1.2,0,2.4-0.1,3.6-0.2c0.6,0,1.2-0.1,1.7-0.1
		c1.2-0.1,2.3-0.2,3.4-0.4s2.2-0.3,3.4-0.5c0.5-0.1,1-0.2,1.6-0.3c0.9-0.5,1.7-1.1,2.4-1.9c1,0.3,1.9,0.5,2.8,0.8
		c1.1-0.3,2.3-0.6,3.5-0.9c3-0.8,6.1-1.8,9.5-2.9c4.9-1.6,9.9-3.4,14.7-5.2c2.2-0.8,4.3-1.6,6.3-2.4c0.4-0.2,0.8-0.3,1.2-0.5
		c0.8-0.3,1.6-0.6,2.3-0.9c4.9-2,8.9-3.7,11.1-4.9c2.4-1.3,5.5-2.9,8.7-4.4c1.6-0.8,3.3-1.6,4.9-2.3c1.3-0.6,2.6-1.2,3.8-1.8
		c0.4-0.2,0.8-0.3,1.1-0.5c0.6-0.3,1.3-0.6,1.8-0.8c3.5-1.5,7.3-3.4,11-5.6c-0.5-0.2-0.9-0.5-1.2-0.6c-2.7,0.6-5,0-7.4-0.7
		c0.1-0.8,0.1-1.4,0.2-2c1-0.2,1.8-0.3,3-0.5c-1.8-1.7-3.6-2-5.5-2.4c-0.4,0.3-0.9,0.7-1.4,1.1c-0.5-0.8-0.9-1.5-1.4-2.3
		c0.6-0.4,0.9-0.6,1.3-0.8c0.4,0.2,0.7,0.4,1,0.7c0.7-0.5,1.3-0.9,2-1.3c0.5,0.7,0.9,1.3,1.3,1.8c1.2,0,2.2,0,3.2,0
		c0.7-0.9,1.3-1.6,1.8-2.3c1.7,1,0.7,2.4,0.9,3.6c0.5,0.1,0.8,0.1,1.2,0.2c1.3-1.2,0.5-3.4,2.3-4.2c1.8-0.3,1.5,1.7,2.6,2.3
		c0.4-0.1,1-0.2,1.5-0.2c0.4-0.9,0.8-1.7,1.2-2.6c-0.6-0.6-1.2-1.3-1.5-1.6c-0.1-1.4-0.2-2.4-0.3-3.6c1-1,1.7-2.5,3.6-2.5
		c0.7,1.3-1.8,2.3-0.2,3.6c0.7-0.4,1.4-0.9,2.2-1.4c0.7,2-1.2,3.5-0.6,5.1c1,0.9,1.9,1.8,2.9,2.7c1.3-0.9,2.6-1.9,3.8-2.8
		c0.1-0.4,0.3-0.8,0.4-1.1c-0.2-0.5-0.4-1-0.6-1.4c1.7-0.6,3.2-1.1,4.7-1.7c0.2,0,0.4,0,0.6,0c1-0.8,1.9-1.7,2.7-2.4
		c0.4-0.4,0.7-0.7,1.1-1.1c0.1-0.1,0.1-0.1,0.2-0.2c-0.2-0.1-0.3-0.2-0.5-0.2c0.5-0.5,1-1,1.6-1.5c0-0.7,0-1.3-0.2-1.9
		s-0.7-1.2-1.1-1.9c1.9-0.5,3.6-1,5.2-1.4c0.1-0.2,0.1-0.4,0.1-0.6c0.1-0.5,0.2-1,0.4-1.5c0.1-0.2,0.2-0.4,0.3-0.6
		c-0.1-0.5-0.2-1-0.4-1.5c-0.5-1.5-1-3.1-1.4-4.7c-0.5-2.3,1.1-3.6,3.3-3c0.5,0.1,0.9,0.2,1,0.2c2.4-1,4.4-1.9,6.4-2.7
		c0.4-0.5,0.9-1,1.3-1.5c0.3,0.2,0.6,0.3,0.9,0.4c0.2-0.2,0.4-0.3,0.6-0.5s0.4-0.3,0.6-0.4c0-0.3-0.2-0.6-0.4-0.8
		c-0.7-0.8-0.7-1.6,0-2.4c0.2-0.3,0.3-0.7,0.5-1c-0.2-0.1-2.4-1.3-2.6-1.4c0.8-1.4,1.6-2.8,2.6-4.5c0-0.3-0.1-1-0.2-1.6
		c-0.8-0.4-1.5-0.7-2.2-1.1c-0.1-1.6-0.2-3.1-0.3-4.8c0.3-0.9,0.6-2,0.9-3c1-0.8,1.9-1.6,2.6-2.2c0.2-1.5-0.5-2.2-1.5-2.6
		c-0.7-0.3-1.4-0.4-2.1-0.6c-0.9-0.3-1.8-0.8-2.6-1.1c-0.1-0.9-0.2-1.6-0.4-2.5c-0.9-0.4-1.8-0.8-2.6-1.2c-1.1,0.3-1.9,0.6-2.8,0.9
		c-3.5-1.1-7-1.1-10.6-0.6c-0.3-0.8-0.6-1.5-0.8-2.1c-0.4-0.9-1-1.5-2-1.6c-1.6-0.1-3.2-0.4-5,0.3c-0.1,1.4-0.3,2.8-0.4,4.4
		c-3.4,0.1-6.9,0.9-10.1-1c-0.2-0.7-0.4-1.2-0.4-1.5c-2.5-0.4-4.8-0.9-7.2-1.1c-1.9-0.2-3.9,0.1-5.8,0.1c-0.6,0-1.3,0.1-1.9,0.2
		c-1.2,0.2-2.5,0.5-3.7,0.7c-0.9,0.3-1.8,0.2-2.6,0.3c-1.1,0.1-1.4,1.2-2.2,1.8c-0.6,0.4-1.5,0.7-2.2,0.7c-1,0.1-2,0-2.9-0.2
		c-1-0.2-2-0.6-3-0.9c-1,0.6-1.9,1.3-2.9,1.8c-0.6,0.3-1.3,0.6-1.8,0.4c-1.9-0.7-3.7,0.3-5.7,0.3c-0.4,1.1-0.9,2.2-1.4,3.6
		c-0.6,0-1.4,0.1-2.2,0.1c0-0.8,0-1.4,0-2c-1.5-1-2.6-0.2-3.7,0.5c-1.5,0.5-3.2-0.8-4.8,0.5c0.3,0.6,0.5,1.3,0.8,2.1
		c-0.6,0.2-1,0.3-1.5,0.4c-0.5-0.8-1-1.6-1.5-2.4c-3.9-0.3-7.6,0.1-11.4,0.6c-0.6,0.5-1.2,0.9-1.8,1.4c-0.2-0.1-0.4-0.1-0.6-0.1
		c-0.4,1-0.8,1.9-1.2,2.7C1005,313.2,1004.7,313.7,1004.5,314.2z M958.1,374.9c0.4-0.4,0.8-0.7,1.3-1.2c0.2,0.5,0.6,0.9,0.5,1.1
		C959.5,375.6,959,375.8,958.1,374.9z M962.5,375.7c-0.4-0.3-0.7-0.6-1.1-0.9c0.4-0.4,0.6-0.7,1-1.1c0.4,0.3,0.7,0.6,1.2,1.1
		C963.1,375.1,962.9,375.4,962.5,375.7z M969,374c-0.4,0.1-0.9,0-1.3,0c-0.4-1.5-0.7-2.9-1.2-4.9c0.3-0.2,0.9-0.7,1.8-1.5
		c0.5,2.2,0.9,4,1.3,5.9C969.4,373.8,969.2,374,969,374z M991.5,388.3c-0.2,0.1-0.5,0-0.7,0c-4.2-0.4-8.4,0.2-12.6,0
		c-0.4,0-0.8-0.2-1.3-0.3c0-0.1,0-0.3,0-0.4c0.5-0.1,1-0.2,1.5-0.3c3.6-0.2,7.3-0.4,10.9-0.6c1.8-0.1,3.5-0.3,5.3-0.4
		c0.5,0,1,0.3,1.7,0.5C994.5,387.5,993,387.9,991.5,388.3z M1091.2,351.8c0.8,2.1-2.1,1.1-1.9,2.6c-0.6-0.3-0.8-0.4-1-0.5
		c0-0.1,0.1-0.3,0.1-0.4C1089.6,353.4,1089.4,351.2,1091.2,351.8z M1090.5,343.7c-0.3,0.6-0.7,1.3-1,1.9c-1.8-0.3-1.8-0.3-2.7-1.5
		C1087.7,342.3,1088.4,342.2,1090.5,343.7z M1081,355c-0.9,0.7-1.8,1.3-2.9,2.1c-0.4-0.7-0.6-1.3-1-2c1.3-0.7,2.4-1.3,3.9-2
		C1081,353.9,1081,354.4,1081,355z M1079.6,345c-1,1-1.8,0.8-3,0.3C1077.7,344.5,1078.5,344.7,1079.6,345z M1072.1,357.5
		c0.5,0.3,0.9,0.6,1.3,0.8c-0.1,1.2-0.2,2.4-0.3,3.7c-0.3,0.5-0.8,1.1-1.4,1.9c-1.1-1.5-0.1-2.5,0.3-3.8c-0.5-0.6-0.8-1-1.2-1.5
		C1071.3,358.3,1071.7,357.9,1072.1,357.5z M1054.9,366.4c1,1.1,2.7,1.7,2.1,3.7c-0.7,0.5-1.5,1-2.3,1.5c-1-1,0.1-1.5,0.3-2.2
		C1054.3,368.6,1053.7,367.6,1054.9,366.4z M1050.8,361c0.6,0.3,1.1,0.6,1.7,0.9c-0.1,0.4-0.2,0.7-0.4,0.9c-0.8,0.9-1.6,0.6-2.4-0.3
		C1050.1,362,1050.5,361.6,1050.8,361z M1048,358c1,0.4,1.6,1,1,1.9c-0.8,1.1-1.7,0.4-2.5-0.2C1046.5,358.7,1047.1,358.3,1048,358z
		 M1050.3,368.6c0.7,0.1,1.2-1.6,2.2-0.3c-0.2,0.7-0.6,1.5-0.7,2.2s-0.1,1.4-0.1,1.9c-1.3,1.4-2.5,0-3.5,0.4c0-0.6,0-1.2-0.1-1.8
		c-0.1-0.6-0.3-1.2-0.4-2c-0.6-0.4-1.4-0.9-2.3-1.5c0.4-0.5,0.7-0.9,0.9-1.2C1047.6,367.2,1048.9,367.9,1050.3,368.6z M1045.6,362.5
		c0.1,0.2,0.2,0.3,0.2,0.5c-0.2,0.3-0.5,0.6-0.8,1c-0.4-0.4-0.6-0.8-1.1-1.3C1044.6,362.6,1045.1,362.5,1045.6,362.5z M1042.5,360.2
		c-1.6,0.3-1.7-0.4-1.9-1.4C1041.6,358.8,1041.8,359.5,1042.5,360.2z M1042.2,362.9c-0.1,0.2-0.1,0.3-0.2,0.5
		c-0.5-0.2-0.9-0.3-1.4-0.5c0-0.1,0.1-0.3,0.1-0.4C1041.3,362.6,1041.7,362.7,1042.2,362.9z M1037.4,361.1c0,0.8,0,1.9,0,3.1
		c-1.5,0.5-1.9-0.2-2.2-1.2C1036,362.3,1036.7,361.7,1037.4,361.1z M1039.2,370.9c-0.8-0.5-1.2-0.8-1.8-1.1c0.4-0.5,0.8-0.9,0.8-0.9
		c2-0.5,3.5-0.9,5.4-1.4c0.6,0.5,1.6,1.2,2.3,2.1c0.6,1,0.9,2.2,1.3,3.3c-0.5,0.9-1.3,0.9-2.3,0.5c-0.4-0.6-0.8-1.2-1.3-1.9
		c-2.5,0.2-4.8,1.1-6.8,2.7c-0.5-0.2-0.8-0.3-1-0.5c-0.3-0.3-0.5-0.6-0.8-1C1036.4,372.2,1037.7,371.6,1039.2,370.9z M1027.3,364.5
		c0.6,0,1.1,0,1.7,0c-0.1,1.1-0.7,1.3-1.7,1.2C1027.3,365.2,1027.3,365,1027.3,364.5z M1027.2,369.4c1,0.4,1.7,0.7,2.4,0.9
		c0.8,0.2,1.7,0,1.9,1.3c-0.5,0.1-0.9,0.2-1.4,0.2c-0.6,0-1.4-0.1-1.9,0.1c-1.7,0.6-3.3,0.6-4.8-0.7c-0.4,0.6-0.7,1-1.1,1.6
		c-0.6,0-1.2-0.1-1.8-0.1c-0.3-1.2,0.2-1.8,1.2-1.7C1023.7,371,1025.4,369.8,1027.2,369.4z M1022.6,365c0.4,0.4,0.7,0.7,0.9,1
		c-0.1,0.2-0.1,0.5-0.2,0.5c-1.6,0.6-3.1,0.3-5.3-0.1C1019.8,364.8,1021.4,365.8,1022.6,365z M1016.4,371.6c0.8,0.9,0.6,1.6-0.2,2.6
		c-0.5-0.6-0.8-1-1.3-1.6C1015.4,372.2,1015.9,371.9,1016.4,371.6z M999.8,368.8c-0.4,0-0.8,0-1.1,0c-0.2,0-0.4-0.1-0.8-0.2
		c0.2-0.4,0.4-0.8,0.7-1.3c0.6,0.4,1,0.8,1.5,1.1C1000,368.5,999.9,368.6,999.8,368.8z M1001.5,363.3c-0.1-0.1-0.1-0.2-0.2-0.4
		c0.3-0.2,0.6-0.3,0.9-0.5c0.1,0.2,0.2,0.3,0.2,0.5C1002.1,363,1001.8,363.2,1001.5,363.3z M1007.8,367.7c-1.6,0-3.1,0-4.7,0
		c1.6-0.2,3.1-0.6,4.7-0.5C1007.8,367.3,1007.8,367.5,1007.8,367.7z"/>
	<path class="st1" d="M978.7,229.2c1,1,1.9,2.2,2.7,3.4c0.6,1,1.5,2.1,2.6,3.4c0.4,0.4,0.7,0.8,1.1,1.2c0.8,0.8,1.6,1.7,2.5,2.6
		c1.4,1.3,2.9,2.7,4.4,4.1c1.6,1.4,3.2,2.7,4.9,4c2.2,1.7,4.5,3.3,6.7,4.8l4.2,2.7l11.8,7.6l0,0l0,0l-5.4,20.8
		c1.5-0.4,3.1-0.5,4.6-0.8c0.6,0.6,1,1.1,1.6,1.6c2.1-0.4,4.1-0.8,6.4-1.3c1.3-2.3,4.1-2.5,6.1-3.4c1.5-1.4,1.1-2.8,0.7-4.1
		c0.7-1.3,1.3-2.4,1.9-3.5c-1.9-3-1.9-4.6-0.5-10.1c-0.7-0.4-1.5-0.8-2.3-1.2c0-0.4,0-0.8,0-1.2c0.6-0.3,1.1-0.6,1.6-0.9
		c-0.1-0.9-0.2-1.7-0.3-2.4c0.6-0.7,1-1.3,1.6-2c-0.7-2-0.9-4.2-2.6-5.9c0.5-0.7,0.9-1.2,1.1-1.5c0.5-1.7,0.9-3,1.4-4.4
		c-0.8-1.4-1.5-2.9-2.2-4.1c0.1-1.8,0.2-3.4,0.3-4.9c-0.7-0.4-1.3-0.8-1.8-1.1c0.2-1.4-0.4-2.3-1.3-3c-0.4-0.3-0.9-0.5-1.1-0.9
		c-1-1.9-2.7-2.2-4.6-2.2c-1.4,0-2.8,0-4.3,0c0-0.6,0-1,0-1.5c-0.8-0.2-1.6-0.4-2.4-0.4c-2.4-0.2-4.9,0.2-7.3,0.3
		c-5.6,0.4-11.2,0.5-16.9,0.6c-1,0-2,0-2.9,0c-3.2,0.1-6.4-0.3-9.4,0.9c-0.2,0.1-0.5,0.1-0.7,0.1c-1.4,0.2-2.9,0.4-4.3,0.6
		C977.4,227.8,978.1,228.4,978.7,229.2C978.7,229.1,978.7,229.1,978.7,229.2z M1009.9,225.6c0.5,0.3,1,0.5,1.6,0.8
		c-0.2,0.4-0.3,0.7-0.5,0.8c-0.9,0.6-1.4,0.2-1.9-0.7C1009.3,226.3,1009.6,226,1009.9,225.6z"/>
	<path class="st1" d="M1272.2,495.8c-0.3-1.2-0.2-2.4-0.1-3.6c0-0.8,0-1.6-0.1-2.4c-0.3-1.6-0.7-3.3-1.1-5.2c-0.6-0.4-1.5-1-2.3-1.6
		c-0.2-0.7-0.4-1.3-0.6-2c-1.3-0.2-2.5-0.4-4.1-0.6c0.1-0.8,0-1.6,0.3-2.1c1-1.8,0.7-3.6,0.5-5.5c-2-1.4-3.3-3.2-2.5-6
		c0.9-0.6,1.8-1.2,2.7-1.8c0.3-0.8,0.6-1.5,1-2.3c1-0.1,2-0.3,3-0.4c0.3-0.6,0.6-1.2,0.8-1.4c-0.1-1.4-0.2-2.4-0.3-3.2
		c1-0.9,1.7-1.5,2.5-2.2c-0.1-0.1-0.3-0.1-0.4-0.2c0.1-2.3,0.2-4.6,0.3-6.9c-0.7-0.3-1.1-0.6-1.7-0.9c0.6-0.4,1.1-0.7,1.6-1
		c0.1-3,0.3-5.9,0.4-9.3c-0.1-0.2-0.4-0.9-0.8-1.5c-0.3-0.7-0.6-1.5-1-2.3c-0.8-0.2-1.6-0.4-2.1-0.5c-0.4-0.8-0.5-1.7-1-2.1
		c-1.9-1.7-3.7-3.7-6.7-3.3c-0.6,0.1-1.1,0-1.7,0.1c-2.2,0.2-4.4,0.3-6.7,0.5c-0.7-1.5-0.8-3.1-1.2-4.8c-0.5-0.3-1-0.6-1.6-0.8
		c-1.8-0.6-3.7-0.6-5.6-0.5c-2.5,0.2-5,0.3-7.4,0.5c-1.7-1.7-3.6-2.1-5.7-2.1c-2,0.1-4.1,0-6.1,0c-1.1,0-2.1,0.1-3.2,0.3
		c-3.1,0.4-6.3,0.9-9.4,1.3c-2.6,0.3-5.2,0.5-7.7,0.8c-1,0.1-1.8,0-2.1-1.3c0.3-0.3,0.6-0.7,0.9-1c2.9,0.7,3,0.7,3.4-0.8
		c-1.1-0.4-2.7-0.3-2.7-2.1c0.9-1.1,1.8-2.1,2.6-3c2.4,0.1,4.6-0.3,6.4-1.3c0.9-2.6,0.3-5,0.2-7.4c0-1-0.6-1.6-1.4-2
		c-1-0.1-1.8-0.2-2.7-0.3c-0.2-1-0.3-1.8-0.5-2.6c-0.6-0.7-1.2-1.4-1.8-2.1c0.8-0.7,2.1-0.2,2.3-1.5c-0.3-1-1.2-0.9-2-0.9
		c-1.1,0-2.1-0.1-2.5-1.1c0.1-1.4,0.2-2.6,0.2-3.6c-1.9-1.3-3.5-2.3-5.1-3.4c-1.1-0.4-2.3-0.8-3.5-0.8c-3.5,0.1-7,0.2-10.5,0.6
		c-2.6,0.3-5.2,0.7-7.8,1.1c0.2,0.2,0.4,0.4,0.6,0.6c0.7,0.7,1.3,1.5,1.8,2.3c0.8,1.2,1.3,2.6,1.6,4.1c0.1,0.4,0.1,0.7,0.1,1.1
		s0,0.7,0,1.1v0.1c0,0.7-0.1,1.5-0.2,2.2c-0.1,0.8-0.3,1.5-0.6,2.3c-0.2,0.8-0.5,1.6-0.8,2.3c-0.3,0.8-0.6,1.5-0.9,2.3
		c-0.2,0.5-0.4,1-0.7,1.5c-0.3,0.6-0.6,1.2-0.9,1.9c-0.2,0.4-0.3,0.7-0.5,1.1c-0.3,0.7-0.6,1.4-0.9,2c-1,2.6-2.1,5.1-3.2,7.7
		c-1.3,2.8-2.7,5.6-4.3,8.2c-0.4,0.7-0.9,1.4-1.4,2.1c0,0.1-0.1,0.1-0.1,0.2c-1,1.4-2.3,2.3-3.6,2.9c-2.1,0.9-4.6,1-7.1,0.9
		s-5.1-0.4-7.5-0.3c-4.1,0.2-8.2,0.3-12.3,0.5c-4.1,0.1-8.2,0.3-12.3,0.4c-5.6,0.2-11.3,0.7-17.1,1.6c-1,0.2-1.9,0.3-2.9,0.5
		c-2.9,0.5-5.8,1.1-8.8,1.8s-5.9,1.5-8.8,2.3c-3.9,1.1-7.8,2.4-11.7,3.9c-4.9,1.8-9.7,3.8-14.4,6c-1.9,0.9-3.8,1.8-5.6,2.8
		c-0.9,0.5-1.9,1-2.8,1.4c-1.5,0.8-3,1.6-4.5,2.5c-0.7,0.4-1.3,0.8-2,1.1c-1.1,0.7-2.2,1.3-3.3,2c-0.7,0.4-1.4,0.8-2,1.3
		c-2.3,1.5-4.5,2.9-6.7,4.5c-4.7,3.3-10.8,7.4-17.1,11.6c-1.8,1.2-3.6,2.4-5.4,3.5c-2.7,1.7-5.3,3.4-7.9,5.1c-1.4,0.9-2.7,1.7-4,2.5
		c-0.6,0.4-1.2,0.7-1.8,1.1c-1.2,0.8-2.4,1.5-3.5,2.2l-19.9,12c0.1,0,0.4,0.3,0.8,0.9c0.2,0.2,0.4,0.5,0.7,0.8
		c0.2,0.3,0.5,0.7,0.8,1c0.1,0.2,0.3,0.4,0.4,0.6c0.4,0.5,0.8,1.1,1.2,1.6c0.1,0.2,0.3,0.4,0.4,0.6c0.3,0.4,0.5,0.7,0.8,1.1
		c0.4,0.5,0.7,1,1.1,1.4s0.7,1,1.1,1.4c0.9,1.2,1.7,2.3,2.5,3.3c0.6,0.8,1.1,1.5,1.5,2.1s0.7,1,0.9,1.2c3.2,4.1,6.7,8.1,10.5,11.6
		c0.1,0.1,0.3,0.2,0.4,0.3c1.1,1,2.2,1.9,3.4,2.8c0.1,0.1,0.3,0.2,0.4,0.3c2,1.5,3.9,3.4,4.6,5.8c0,0.1,0,0.1,0.1,0.2
		c0.1,0.5,0.2,1,0.3,1.4c0.1,0.5,0.2,1.1,0.3,1.6c0.1,0.7,0.2,1.5,0.4,2.2c0.2,1,0.4,1.9,0.7,2.9c0.3,0.9,0.6,1.8,1.1,2.7
		c1.3,2.7,2.9,5.2,4.5,7.7c3,4.7,6.4,9.2,9.8,13.5c1.2,1.5,2.3,2.9,3.5,4.3c2.5,3,5.1,6.2,7.9,9.4c0.6,0.6,1.1,1.3,1.7,1.9
		c1.1,1.3,2.3,2.5,3.5,3.7c4.8,4.9,10.1,9.2,15.8,11.9c3.9,1.8,8.4,5,13.1,9.3c3.3,3,6.8,6.6,10.2,10.5c1.2,1.4,2.4,2.9,3.6,4.4
		c1.5,1.8,2.9,3.7,4.3,5.6c0.1,0.2,0.2,0.3,0.4,0.5c0.5,0.7,1,1.3,1.4,2c0.5,0.7,0.9,1.3,1.4,2c0.3,0.4,0.6,0.9,0.9,1.3
		c0.6,0.8,1.1,1.6,1.6,2.4c1.6,2.4,3,4.5,4.1,6.5c0.4,0.8,0.8,1.5,1.2,2.2c0.2,0.4,0.4,0.7,0.5,1c1.6,3.4,2.4,6.1,2.4,8.7
		c0,0.8-0.1,1.6-0.2,2.4c-0.1,0.9-0.4,1.8-0.7,2.7c-0.1,0.2-0.1,0.5-0.2,0.7c-0.1,0.4-0.3,0.8-0.4,1.2c-0.3,0.8-0.6,1.6-0.9,2.3
		c-0.1,0.2-0.1,0.4-0.2,0.6c-0.5,1.4-0.9,2.6-1,3.6c0,0.2,0,0.3,0,0.5s0,0.3,0,0.5c0.1,2.1,1.7,3.2,5.5,4.2c1.4,0.4,3.1,0.7,5.1,1.1
		c-0.1-0.3-0.2-0.7-0.4-1c0.5-0.3,0.8-0.7,1.2-0.8c1.7-0.5,3.4-1,5.2-1.4c1.3-0.3,2.7-0.5,4.1-0.6c1.6-0.1,3.3,0.1,4.7-0.9
		c0.2-0.2,0.6-0.1,1-0.1c3.2,0.2,6.2-1.1,9.5-1.9c0.5,0.1,1.2,0.3,1.9,0.5c0-0.1,0-0.2,0-0.2c2.2-0.1,4.4-0.3,6.5-0.4
		c0.9-0.5,1.7-1,2.5-1.5c0.9,0.4,1.7,0.7,2.2,0.9c0.9-0.3,1.6-0.7,2.3-0.8c1.6-0.3,3.2-0.5,4.6-0.7c1.3,0,2.8,0.4,3.8-0.1
		c2.4-1.3,5-0.9,7.3-1.4c1.4,0.8,0.2,1.7,0.5,2.8c1.2,0.1,2.5,0.2,3.7,0.4c0-0.1,0-0.2,0-0.3c0.7,0.3,1.3,0.6,1.8,0.8
		c1.2-0.2,2.3-0.6,3.1-0.4c2.1,0.6,4.2,0.2,6.3,0c1.3-0.2,2.5-0.3,3.8,0c0.5,0.1,1,0,1.5-0.1c2.3-0.5,4.5-1.1,6.9-1.1
		c1.8,0,3.7-0.1,5.6-0.3c1-0.1,2-0.4,3.1-0.6c1.4-0.3,2.8-0.7,4.3-0.9c2.3-0.3,4.5-0.4,6.8-0.5c1.3-0.1,2.4-0.5,3.1-1.6
		c0.5-1.1,1.1-2.1,1.6-3.3c0.3-2.6,0.6-5.3,1-8.4c-0.4-1.3-0.9-3-1.4-4.5c0.4-1,0.7-1.7,1-2.6c-0.7-0.4-1.3-0.8-2.1-1.3
		c-0.1-2.1-0.3-4.2-0.3-6.4c0-1.1,0.1-2.3,0-3.4c-0.2-2.1-0.2-4.2,0.4-6.3c0.1-0.5,0-1.1,0-1.8c-0.8-0.1-1.5-0.3-2.2-0.4
		c-0.3-1.8-0.3-1.8,0.5-2.8c0.8-0.9,1.5-1.8,1-3.2c-1-0.5-2.1-1-3.1-1.5c0.1-1.9,0.9-3.3,2.6-4.5c0.7-0.5,1.3-1,1-2.4
		c-0.3-0.2-0.9-0.5-1.6-0.9c-0.4-1.7,2.2-2.6,0.9-4.1c-2.2,0.3-2.2,0.3-3.6-0.2c0.3-0.8,0.6-1.6,0.9-2.2c-0.1-1.4-0.3-2.6-0.3-3.8
		c0-1.5-0.2-2.7-1.5-3.6c-0.4-0.3-0.6-0.9-0.8-1.4c-0.7-0.4-1.4-0.9-2-1.3c0-0.6,0-1.1,0-1.5c-1.9-0.6-2.6,1-4,1.9
		c-0.7-0.7-1.4-1.4-2-1.9c0.7-3.1,0.7-3.1-0.9-5.1c-1.8,0.2-3.8,0.5-5.7,0.7c-0.1,1.2-0.2,2.1-0.4,3c-1.8-0.6-3.3-0.3-4.1,0.3
		c-3.7,0.7-6.6-0.2-9.3-1.5c-1.1-2.8-0.8-5.2,1.3-7.6c0.8,0,1.8,0,3,0c0.4-0.2,1.1-0.7,1.8-0.7c1.6,0.1,3-0.4,4.5-1
		c0.5-0.2,1.1,0.1,1.7,0.2c0,0.2,0.1,0.3,0.1,0.5c-0.8,0.6-1.6,1.1-2.5,1.7c1.1,1.5,2.6,1.6,4.2,0.9c-0.3,1.1-1.7,1.5-0.9,2.9
		c0.8-0.6,1.4-1.1,2.1-1.6c-0.1-1.3-0.2-2.5-0.2-3.6s-1-2.2-0.3-3.7c0.6,0.8,1,1.4,1.6,2.1c0.5-1,1-1.9,1.5-2.9
		c0.7,0.1,1.3,0.1,2.1,0.2c0-0.6,0-1.1,0-1.5c-1.7-0.4-3.5,0.2-5.2-0.6c1.4-1.8,3-1.7,4.7-1.1c0.4-0.4,0.7-0.8,1.3-1.4
		c0.4,0.9,0.7,1.5,1,2.4c0.9-1.4-0.4-3.3,1.5-4.4c1.7,2,0.5,5,3,6.7c-1.2,0.7-2.1,1.3-3,1.9c0.2,1.7,0.4,2.3,1.6,3.9
		c0.5-0.7,0.9-1.3,1.2-1.8c0.9-0.2,1.8-0.4,2.8-0.6c-0.4-0.8-0.6-1.2-0.9-1.8c0.8-0.4,1.5-0.8,2.2-1.1c0.2-0.8,0.4-1.5,0.6-2.4
		c2.2,0.5,4-0.2,5.8-1.3c1.6,0.5,3.2,0.9,4.7,1.3c0.5,0.6,1,1.1,1.5,1.7c0.3-0.4,0.6-0.7,0.8-0.9c-0.6-1.7-1.2-3.3-1.8-5
		c-0.6,0.1-1.3,0.3-2,0.4c-1.8-0.8-1.4-2.6-2.2-4.4c0.6-0.3,1.3-0.6,1.9-1c-0.6-1.6-1.2-2.7-2.2-3.5c0.5-0.6,0.9-1.3,1.3-1.9
		c-0.1-0.6-0.2-1-0.3-1.5c1.3-0.6,2.4-1.3,3.8-0.7c0.4,0.2,1-0.3,1.2-0.4c0-1.4,0-2.5,0-3.8c-0.2-0.4-0.5-0.9-0.7-1.4
		c0.4-1.7,2.1-0.8,2.9-1.7c-1.3-1-2.7-1.8-3.3-3.3c-0.1-0.3-0.8-0.3-1.2-0.5c-0.3,0.6-0.5,1.1-0.8,1.7c-0.8,0.1-1.5,0.5-2.2-0.9
		c0.6-0.3,1.3-0.6,1.9-0.9c-0.3-1.5-0.5-2.6-0.8-3.7c-0.6,0.3-1.1,0.4-1.7,0.7c-0.1-1.4-0.1-2.5-0.3-3.6c-0.2-1.2-1.2-2.2-0.5-3.6
		c0.7-0.3,1.4-0.7,2.1-1c2.6,0.6,5.1,1,7.7,0c1-0.4,2.2-0.5,3.4-0.7c0.8-0.4,1.6-0.9,2.5-1.4c0.5,0.8,1,1.5,1.5,2.2
		c0.8-0.6,1.5-1.1,2.3-1.7c0.6,0.5,1.3,1,1.8,1.4c0.3,0,0.5,0.1,0.6,0c1.9-1.3,4-0.9,6.1-0.9c0.6,0,1.1-0.1,1.7-0.1
		c0.2,0,0.4-0.2,0.7-0.4c0.2-0.5,0.4-1,0.6-1.6c2.3-0.9,3.3-3,4.6-4.9c0.4-0.5,0.6-1.5,0.4-2.1c-0.7-2.1-0.5-4,0.6-5.8
		c-0.7-0.8-1.3-1.6-1.7-2.1c1-2.1,1.9-4,2.9-6.1c1.2,0.3,2.6,0.6,3.9,1c0.6-0.5,1.2-1,1.9-1.5c1.1,0,2.3-0.1,3.4,0
		c1.6,0.1,3-0.3,4.3-1.4c0.6-0.6,1.5-0.9,2.3-1.3c0.5-0.3,0.9-0.6,1.3-0.9c-0.5-2-1.5-3.8-0.6-5.7c-0.5-0.7-1-1.3-1.5-1.9
		c0.1-0.8,0.1-1.5,0.2-2.4c0.8,0.1,1.3,0.1,2,0.2c0.6-2.2,0.4-4.2-0.6-6.2C1271.4,497.3,1271.8,496.5,1272.2,495.8z M1210.1,410
		c0.5,0.6,0.8,0.9,1.1,1.2c-0.1,0.2-0.2,0.4-0.3,0.5c-0.5,0-1.1,0.1-1.6,0.1c-0.1-0.2-0.2-0.5-0.3-0.7
		C1209.2,410.9,1209.5,410.6,1210.1,410z M1207.8,617.6c0.2-0.6,0.4-0.6,1.9-0.5c0.4,1.1,0.9,2.2-0.4,3
		C1207.7,619.2,1207.3,618.6,1207.8,617.6z M1198.6,597.4c0,0.6,0,1,0,1.5c-1.9,0.5-1.9,0.5-2.7-0.8
		C1196.8,597,1197.7,597.3,1198.6,597.4z M1172.8,586.9c0.2,0.1,0.4,0.1,0.7,0.2c-0.7,0.8-1.2,0.8-1.9-0.4
		C1172.2,586.8,1172.5,586.8,1172.8,586.9z M1147.8,598.5c-0.3,0.4-0.4,0.9-0.6,1c-1.2,0.4-2.4,0.5-3.9-0.1
		C1144.8,598.3,1146.1,598.1,1147.8,598.5z M1129.4,668.8c0.5,0.3,1,0.5,1.7,0.8c-1.3,1-2.5,0.8-4.2,0.3
		C1128,669.4,1128.7,669.1,1129.4,668.8z M1129.3,674.4c-2,0.3-4,0.6-6.3,0.9c0.2-0.9,0.7-1,1.3-1c1.6,0.1,3-0.5,4.2-1.6
		c1.5,0.2,2.2,1,2.9,2.6C1130.4,674.8,1129.8,674.6,1129.3,674.4z M1137.3,674.2c-1,0-2,0-2.9,0.5c-0.7,0.3-1,0-2.2-1.3
		c0.2-0.4,0.4-0.9,0.7-1.4c1.7-0.2,3.2-0.5,4.9-0.7c0.3,0.8,0.6,1.4,0.9,2.1C1138.1,673.7,1137.7,674.2,1137.3,674.2z M1136.2,669.2
		c0-0.4,0-0.7,0-1.1c1-0.4,1.9-0.4,2.8,0.4C1138.1,669.6,1137.2,669.3,1136.2,669.2z M1161.1,670.2c-0.7,0.3-1.4,0.4-2.1,0.5
		c-1.6,0.2-3.2,0.5-4.8,0.5c-1.6,0.1-3.3-0.1-4.7,0.9c-0.2,0.2-0.6,0.1-1,0.1c-1.9-0.1-3.7,0-5.6,1.2c-0.8-0.8-1.4-1.4-2.4-2.4
		c1.7,0,2.9,0,4.5,0c0.9-1.1,2.5-0.8,4.1-0.7c1.9,0.1,3.8,0,5.7-0.4c2.3-0.5,4.6-0.5,7.2-0.8C1161.7,669.6,1161.5,670,1161.1,670.2z
		 M1163,669.8c0.5-0.6,0.9-0.9,1.4-1.5c0.3,0.6,0.5,1.1,0.9,2.1C1164.1,670.1,1163.7,670,1163,669.8z M1166.6,674.3
		c-0.3-0.4-0.7-0.7-1.1-1.2c0.4-0.5,0.8-0.9,1.2-1.3c1,0.3,2,0.6,3.3,0.9C1168.7,673.3,1167.8,673.7,1166.6,674.3z M1180.9,598.3
		c-0.2,1.1-1.1,1.3-1.9,1.6c-3.6,1.2-7,1.6-9.1,0.8c1.4-2,4.2-0.9,5.8-2.4c-0.2-0.2-0.3-0.4-0.3-0.4c-2.2,0.8-4.7-0.1-6.9,1.1
		c-0.5,0.2-1.1,0.2-1.7,0.3c-3,0.3-6,0.7-9,0.9c-1.4,0.1-2.7,0-3.9,0c-1.2-1.5-0.4-2.6,0-3.7c0.4,0,0.8-0.1,1.7-0.2
		c-1.5-0.5-2.6-0.8-3.8-1.3c1.6-1.2,3.1-2.3,4.9-3.6c0.4,0,1.3,0.1,2.3,0.2c-0.1,1-0.2,1.6-0.3,2.5c2.7-0.1,5.3-0.3,8.1-0.4
		c0.1-0.9,0.2-1.7,0.3-2.5c0.1-0.1,0.2-0.3,0.3-0.3c2.4-0.5,4.7-1.1,7.1-1.5c0.9-0.1,1.8,0.4,2.6,0.6c0.2,1.4,0.6,2.5,0.6,3.7
		c0,1-0.3,2-0.5,3.4C1177.7,598.5,1179.8,597.1,1180.9,598.3z M1185.7,581.7c-1.2,0.9-1.2,0.9-3.4,0.6
		C1183.4,581,1184.6,581.8,1185.7,581.7z M1181.7,586c0.6-0.8,1.4-1,2.3-1c1.4,0,2.7,0.1,4-0.8c0.4-0.3,1.2,0,1.8,0
		C1188.1,586.1,1184,586.8,1181.7,586z M1187.1,546.8c0.7,0,1.2,0.1,2,0.1c-0.4,1-0.8,1.4-1.8,1.1
		C1187.2,547.8,1187.1,547.4,1187.1,546.8z M1188.7,431.1c0.7-0.8,1.3-0.7,2.2-0.2C1190.2,431.9,1189.4,431.5,1188.7,431.1z
		 M1198.1,547.6c-0.1-0.2-0.2-0.5-0.3-1.1c0.7-0.1,1.3-0.1,1.9-0.2C1199.6,547.5,1199.1,547.8,1198.1,547.6z M1198.2,430.9
		c0.5-0.7,0.8-1.2,1.4-2c0.3,0.8,0.5,1.3,0.8,2C1199.5,430.9,1199,430.9,1198.2,430.9z M1203,428.1c0.3,0.5,0.4,0.7,0.7,1.1
		c-0.7,0.1-1.2,0.2-1.7,0.3c-0.1-0.1-0.1-0.3-0.2-0.4C1202.2,428.9,1202.5,428.5,1203,428.1z M1201,503.9c0.5-1,1.4-0.8,2.2-0.8
		C1202.6,504.8,1202.6,504.8,1201,503.9z M1206,502.6c-0.9,0.2-1.8,0.3-2.7,0.4c0.2-1.9,1.8-1.5,2.9-1.8
		C1206.8,501.9,1206.6,502.5,1206,502.6z M1219.3,557.9c0.6,0.5,1,0.9,1.5,1.3c-0.6,0.4-1.1,0.8-1.7,1.2c-0.4-0.4-0.7-0.7-1.2-1.1
		C1218.4,558.9,1218.8,558.5,1219.3,557.9z M1213,501.4c1-1.3,1-1.3,2.3-0.6C1214.8,501.8,1214.1,501.7,1213,501.4z M1217.4,568.8
		c-0.6,1.4-0.6,1.5-2.6,1.3C1215.2,568.7,1216.3,568.8,1217.4,568.8z M1225.4,474.8c-1.2,0.8-1.2,0.8-2.2,0
		C1223.9,474.8,1224.6,474.8,1225.4,474.8z M1219.5,535.3c0.2-0.3,0.2-0.6,0.3-0.6c0.7-0.1,0.7-0.1,1.5,0.6
		C1220.6,535.3,1220.1,535.3,1219.5,535.3z M1221.7,504.1c-0.8,0.2-1.7,0-3,0c0.9-1.8,2.2-1.8,3.3-1.9c5.1-0.8,5.5-0.7,6.8,0.2
		C1226.5,502.9,1224.1,503.5,1221.7,504.1z M1232.5,503.8c0.8-0.7,1.3-1.1,2.1-1.8c0.4,0.6,0.7,1.1,1,1.6
		C1234.6,504.8,1233.7,504.2,1232.5,503.8z M1234.2,499.4c-0.3-0.9,0.1-1.4,0.9-1.6c1-0.2,1.4,0.1,2.2,1.5
		C1235.9,499.8,1235.9,499.8,1234.2,499.4z M1266.6,501.1c-0.3,0-0.7-0.1-1.3-0.1c0.4-0.7,0.7-1.2,1-1.7c0.1,0.1,0.3,0.2,0.4,0.3
		C1266.7,500,1266.7,500.4,1266.6,501.1z"/>
	<path class="st1" d="M115.4,795.2c-0.3,0-0.6,0.1-0.8,0.1c-0.3-0.5-0.4-0.8-0.5-1c0.1-0.2,0.2-0.4,0.3-0.4c0.1,0,0.1,0,0.2,0
		c-3.5-4.9-6.5-10.5-8.8-16.4c-0.3-0.7-0.6-1.5-0.8-2.2c-1.3-3.7-2.3-7.6-3-11.5c-0.1-0.8-0.2-1.6-0.3-2.3c-0.4-3.1-0.6-6.2-0.4-9.3
		c0-0.9,0.1-1.7,0.2-2.6c0.1-1.3,0.3-2.6,0.5-4c0.2-1.1,0.4-2.2,0.7-3.2c1.5-5.8,4.1-11.2,8.2-16.1c0.6-0.8,1.3-1.5,2-2.3
		c1.5-1.7,3.1-3.3,4.7-4.8c0.9-0.9,1.9-1.8,2.9-2.7c0.1-0.1,0.3-0.3,0.4-0.4c7.5-6.7,16.1-12.5,24.5-17.7
		c7.6-4.7,15.5-9.1,23.6-13.2c4.1-2,8.2-4,12.3-5.8c7.8-3.5,15.8-6.6,23.9-9.3c1.2-0.4,2.4-0.8,3.7-1.2c7.6-2.4,15.3-4.5,23.1-6.1
		c2.6-0.5,5.2-1.1,7.8-1.5c2.2-0.4,4.4-0.7,6.7-1c1.9-0.3,3.7-0.5,5.4-0.8c1.1-0.2,2.2-0.4,3.3-0.6c1.1-0.2,2.1-0.4,3.1-0.6
		c1.3-0.3,2.6-0.6,3.9-0.9c0.2-0.1,0.4-0.1,0.6-0.2c0.8-0.2,1.5-0.4,2.3-0.6c0.8-0.2,1.6-0.5,2.4-0.8c0.5-0.2,1-0.3,1.4-0.5
		c0.9-0.3,1.7-0.7,2.6-1.1c0.2-0.1,0.4-0.2,0.6-0.3c0.6-0.3,1.1-0.5,1.7-0.8c0.3-0.2,0.6-0.3,0.9-0.5c3.4-1.9,6.3-4.3,9.1-7.2
		c1.9-2,3.9-3.8,6.1-5.4c2.2-1.7,4.5-3.2,6.9-4.5c1.2-0.7,2.4-1.3,3.7-1.9c1.2-0.6,2.5-1.2,3.8-1.7c2.5-1,5.1-1.9,7.7-2.6
		c0.5-0.1,1-0.3,1.5-0.4c1.1-0.3,2.1-0.6,3.2-1c2.2-0.7,4.3-1.5,6.4-2.5c0.5-0.2,1-0.5,1.5-0.7c0.9-0.4,1.7-0.8,2.6-1.3
		c1.2-0.7,2.5-1.3,3.7-2.1c0.5-0.3,1-0.6,1.5-0.9c1.4-0.9,2.9-1.8,4.3-2.8c0.4-0.3,0.7-0.5,1.1-0.8c7.8-5.5,15-12,21.4-18.7
		c0.5-0.5,1-1,1.5-1.6c2.5-2.6,4.8-5.2,7.1-7.8c3.9-4.5,7.8-9,11.7-13.6c1.9-2.3,3.8-4.6,5.8-6.9c3.8-4.6,7.6-9.2,11.4-13.8
		c1.9-2.3,3.8-4.6,5.7-6.9c5.7-6.9,11.3-13.9,16.9-20.9c2.7-3.4,5.5-6.7,8.2-10.1c4.8-5.9,9.6-11.8,14.5-17.6
		c3.5-4.2,7.1-8.5,10.6-12.7c2.2-2.6,4.5-5.2,6.7-7.8c1.7-2,3.5-4,5.2-6c5.3-5.9,10.6-11.8,16.1-17.5c3.7-3.8,7.4-7.6,11.2-11.3
		c18.9-18.6,39.3-35.6,61.6-49.9c32.7-20.9,73.2-38.3,114.7-46.5c3.6-0.7,7.1-1.4,10.7-1.9c4.8-0.8,9.5-1.4,14.3-1.9
		c1.3-0.1,2.6-0.3,3.9-0.4c2.2-0.2,4.4-0.4,6.6-0.5c1.3-0.1,2.5-0.2,3.8-0.2c3.6-0.2,7.1-0.3,10.6-0.3c2.4,0,4.7,0,7,0.1
		c4.7,0.1,9.3,0.4,14,0.9c10.4,1,20.6,2.8,30.5,5.5c3.2,0.9,6.4,1.8,9.8,2.8c2.5,0.8,5,1.5,7.6,2.3c3.4,1,6.9,2,10.3,2.9
		c8.7,2.3,17.6,4.1,26.3,4.3c1.7,0,3.5,0,5.2-0.1s3.4-0.3,5.1-0.5c1.9-0.3,3.7-0.6,5.6-1.1c4-1,7.9-2.5,11.7-4.7
		c4.3-2.5,10.7-7.4,17.2-13.2c0.8-0.7,1.7-1.5,2.5-2.2c4.4-4,8.8-8.3,12.5-12.4c2.6-2.8,4.8-5.3,6.8-7.6c2.7-3.2,4.8-5.9,6.6-8.7
		c0.7-1.2,1.4-2.3,2-3.5c1.2-2.4,2.2-4.9,3-7.7c0.6-1.9,1.1-3.9,1.5-6.1c0.8-3.9,1.6-8.5,2.4-14.2c0.9-5.8,2.1-11.8,3.4-17.4
		c0.7-2.8,1.3-5.4,2-7.9c0.5-1.6,0.9-3.2,1.4-4.6c1.2-3.6,2.3-6.4,3.3-8.1c0.2-0.3,0.3-0.5,0.5-0.8c0.6-1,1.3-1.9,2-2.9
		c0.2-0.3,0.4-0.5,0.6-0.8c0.2-0.3,0.4-0.5,0.7-0.8c-1.8-0.3-3.7-0.7-5.5-0.9c-0.6-0.1-1.2,0.2-1.7,0.4c-0.2,0.9-0.4,1.6-0.5,2.3
		c-0.7,0-1.2,0-1.7,0c-0.7-0.6-1.1-1.9-2.4-1c0.3,0.5,0.5,1,0.8,1.5c-2.1,1.6-4.3,1-6.5,0.9c-0.2,0.3-0.5,0.7-0.5,0.8
		c-2,0.5-3.7,1-5.3,1.2c-2,0.2-3.8,0.6-5.6,1.5c-0.5,0.2-1.1,0.2-1.7,0.1c-2.9-0.3-5.8,0.6-8.6,0.9c-3.6,0.4-7,2.2-10.7,1.2
		c-0.1,0-0.3,0.1-0.5,0.1c-3.2,0.4-6.4,0.8-9.6,1.3c-1.8,0.3-3.5,0.7-5.2,1c-0.5,0.1-0.9,0-1.4,0.1c-2.1,0.4-4.4,0.5-6.4,1.3
		c-1.4,0.6-2.8,0.5-4.2,0.7c-0.5,0.1-1,0-1.4,0c-3.8,0.4-7.4,1.9-11.2,1.9c-0.2,0-0.5,0.1-0.7,0.2c-1.9,0.6-3.8,0.8-5.8,0.8
		c-0.8,0-1.6,0.1-2.3,0.5c-1.3,0.7-2.4,0.7-3.7-0.1c-0.5-0.3-1.2-0.3-1.7-0.5c-0.8,2.2-1.1,2.3-4.2,1.7c-1.2,0.7-2.4,1.1-3.9,0.4
		c-0.3-0.1-0.7-0.1-1,0c-2.1,0.8-4.2,0.3-6.3,0.5c-1,0.1-1.9,0.2-2.8,0.6c-1.7,0.7-3.4,1.2-4.9,0.5c-2.7,0.7-5.2,1.4-7.6,2
		c-1.2,0.3-2.4,0.2-3.6,0.5c-3.7,0.9-7.4,1.8-11.1,2.8c-4,1.1-8.2,1.2-12,3c-0.1,0-0.2,0-0.2,0c-1.2,0.4-2.5,0.8-3.6,1.2
		c-0.3,0.6-0.6,1.1-0.9,1.8c-2.9-0.8-5.6,0-8.1,1.5c-0.4,0.2-0.9,0.3-1.4,0.4c-2.8,0.8-5.7,1.2-8.6,1.8c-3.8,0.8-7.7,1.2-11.6,1.6
		c-3.4,0.4-6.8,0.4-10.2,0.5c-0.7,0-1.4,0.2-2.1,0.4c-3,0.8-6,0.6-9,0.6c-0.7,0-1.3-0.2-1.3-1.1c1-0.4,2.1-0.9,3-1.2
		c0.2-0.8,0.4-1.5,0.6-2.2c1.8,0,3.3,0.4,4.1,1.8c3.6-0.6,6.9-1,10.3-1.7c1.7-0.3,3.2-1,5-0.5c0.2,0.1,0.5,0,0.7-0.1
		c1.2-0.6,2.8-0.6,3.7-1.9c0.5,0.3,0.8,0.4,1.1,0.7c0.1,0.1,0.1,0.4,0.2,0.8c-0.8,0.3-1.6,0.7-2.6,1.1c0.4,0.4,0.6,0.9,0.8,0.9
		c0.6,0,1.3,0,1.9-0.2c2.2-0.7,3.8-2.4,5.4-3.5c0.5-1.4,0.8-2.6,1.2-3.7c0.9-0.2,1.7-0.4,2.6-0.5c0-0.4-0.1-0.7-0.1-1.1
		c-1.8-0.1-3.8,0-4.1-2.4c0.3-1.1,0.6-2.1,0.9-3.3c-1.8-0.2-3.2-0.4-4.5-0.6c-0.9-1.6,0-2.7,0.2-3.8c0.6-2.9,1.5-5.7,1.3-8.7
		c-0.1-2.1-1-3.7-2.9-4.7c-1.2-0.6-2.2-1.5-3.5-2.3c-0.3,0-0.8,0-1.3-0.1c-0.2-1.5,0.9-2.1,1.7-2.6c1.2-0.7,2-1.6,2.5-2.7
		c0-1.3,0-2.5,0-3.7c-1-0.7-1.9-1-3-1.1c-0.7,0-1.5-0.1-2.1-0.5c-3.7-2.1-7.7-1.6-11.7-1.2c-1.2,0.1-2.4,0.5-3.5-0.4
		c0-0.5-0.1-0.9-0.1-1.5c-1,0.2-1.9,0.3-2.8,0.5c-3.4,0.8-6.7,2-10.2,2.4c-5.2,0.7-10.3,2.1-15.5,2.5c-2.2,0.2-4.4,0.3-6.6,0.5
		c-2,0.2-4,0.4-6,0.9c-3.5,0.8-6.9,1.8-10.4,2.5c-5.1,1-10.2,1.8-15.4,2.6c-3.8,0.6-7.5,1.2-11.3,1.9c-2.4,0.4-4.7,1-7.6,1.7
		c-1-0.4-2.5-0.1-4.1,0.4c-3.1,1-6.4,0.9-9.6,1.3c-1.4,0.2-3,0-4.3,0.5c-2.3,1-4.6,1.4-7.1,1.5c-2.4,0.2-4.9,0.3-6.9,2
		c-0.6,0.5-1.7,0.8-2.5,0.8c-2.3,0.1-4.4,0.4-6.7,0.9c-5.2,1.2-10.5,2-15.8,2.9c-2.6,0.5-5.3,1.1-7.9,1.4c-2.3,0.2-4.5,0.5-6.7,1
		c-2.6,0.6-5.1,1.7-7.8,1.2c-0.3-0.1-0.6,0.2-0.9,0.3c-0.2,0.1-0.4,0.2-1,0.5c0.9,0.5,1.5,0.8,2.1,1.2c-1.4,1.5-2.8,1.4-4.1,1.7
		c-2.4,0.6-5,0.5-7.2,2c-0.4,0.3-1.1,0.5-1.4,0.3c-1.4-0.7-2.5,0.1-3.8,0.6c-0.5-0.8-1-1.6-1.5-2.4c-0.5,0.1-1.1,0.2-1.6,0.3
		c-0.2,0.8-0.4,1.5-0.5,2.2c-1.7,1.7-3.5,1.8-5.5,1.2c0.1-1.4,1.4-0.9,2.1-1.5c-1.3,0-2.4-0.2-3.4,0c-4,0.8-8.1,1.8-12.1,2.7
		c-0.2,0.1-0.5,0.1-0.7,0.1c-1.9-0.2-3.4,0.8-4.8,1.6c-0.1,0.7-0.1,1.2-0.1,1.7c-2.7,0.5-5.9-0.9-7.4,2.4c-1,0.4-1.9,0.8-2.8,1.2
		c-0.6-0.7-1.1-1.3-1.5-1.8c-1.5,0.1-1.6,1.4-2,2.2c-0.8-0.1-1.5-0.3-2.2-0.4c-0.4,0.7-0.6,1.2-0.9,1.7c-0.9-0.1-1.7-0.2-2.4-0.2
		c-0.8,0.7-0.5,2.1-1.9,2.2c-0.2-0.4-0.3-0.7-0.5-1.1c-0.2-0.3-0.3-0.7-0.5-1.1c-2.8,0.2-5,1.4-7.2,2.5c-0.4,1.4,0.3,3.2-1.8,3.8
		c-0.3-0.5-0.6-1.1-0.8-1.7c-0.2-0.6-0.2-1.2-0.3-1.9c-3.6,0.7-7.2,0.6-10.3,2.3c-0.5,1.3,0.4,3-1.6,3.7c-0.4-0.5-0.7-0.9-1.1-1.4
		c0.3-0.7,0.6-1.2,0.9-1.9c-0.7-0.1-1.2-0.3-1.6-0.3c-1.8,0.4-3.6,0.8-5.5,1.2c-1.2,0.2-1.9,0.9-2.3,1.9c-0.1,0.2-0.3,0.3-0.4,0.3
		c-0.5-0.4-0.9-0.8-1.2-1.1c-2.3,0.5-4.6,0.9-6.8,1.5c-1.3,0.3-2.5,1.2-3.8,1.4c-3.5,0.4-6.8,1.8-10.1,2.8c-0.9,0.3-2,0.1-2.8,0.6
		c-1.6,0.9-3.2,1.1-4.9,1.1c-1.7,1-6.4,2.8-8.3,2.6c-0.4,0.5-0.8,1.1-1.3,1.8c-2.2,0.5-4.3,0.9-6.6,1.4c-0.5-0.3-1.1-0.6-1.7-0.9
		c-1.1,0.5-2.1,0.9-2.8,1.2c-0.6,0.8-1.1,1.5-1.5,2.2c-1.2,0.1-2.2,0.1-3.1,0.2c-0.6,0.6-1.1,1.2-1.7,1.8c-0.4-0.9-0.7-1.6-1-2.2
		c-1.7,0.4-3.1,0.6-4.3,0.9c-0.7-0.7-1.1-1.1-1.5-1.4c-1.5,0.6-0.5,2.1-1.4,2.7c-1.4,1-2.9,2.1-4.6,3.3c-0.5-1.1-0.9-2.1-1.3-3
		c-0.1,0-0.3,0.1-0.4,0.1c0,1.3,0,2.7,0,4.2c-0.5,0-0.9-0.1-1.2-0.1c-0.5-1.3-1-2.4-1.5-3.7c-0.4,1-0.7,1.8-0.8,2.2
		c-1.8,0.9-3.2,1.6-4.9,2.4c-0.5-0.1-1.3-0.2-2.1-0.4c-0.5,0.8-0.9,1.4-1.3,2c-0.8-0.5-1.5-0.9-2.5-1.4c-0.6,0.7-1.1,1.4-1.8,2.2
		c-0.7,0.1-1.6,0.1-2.2,0.5c-2.1,1.2-4.2,1.6-6.4,0.2c-0.5,0.7-0.8,1.3-1.2,1.8c-2.2,0.3-3.9-0.7-5.6-1.7c-0.4,0.3-0.7,0.5-1.3,1
		c0.8,0.4,1.3,0.6,1.9,0.9c-2,1.9-3.1-0.3-4.4-0.3c-3.9,3.5-4.6,3.5-8.8,0.5c-0.1,1.1-0.2,2.2-0.4,3.5c-1.1-0.1-1.9-0.2-2.8-0.3
		c-0.5,0.6-1.1,1.2-1.7,1.8c-1.2-1.1-0.2-3-1.8-3.7c-1.5,0.3-0.5,1.9-1.3,2.7c-0.9,0-1.9,0-3.2,0c0.6,0.9,1,1.6,1.5,2.4
		c-1.2,1.4-2.4-0.3-3.4,0c-0.4-0.9-0.8-1.6-1.1-2.3c-1.2,0.4-1.3,1.1-1,2c0.1,0.2-0.1,0.4-0.2,0.8c-0.6,0-1.3,0-1.9,0
		c-0.4-0.7-0.7-1.4-1.1-2.2c-1.2,0.8-2.2,1.6-3.4,2.4c-0.6-0.4-1.1-0.9-1.7-1.3c-0.6,0.2-1.1,0.4-1.6,0.6c-0.3,1.9,1.6,1.9,2.3,2.8
		c-0.9,0.9-0.9,0.9-2.7,0.8c-0.5-0.9-1.1-1.8-1.7-2.7c-1.1,0.3-2.2,0.9-3.2,0.9c-3.3-0.3-6.3,0.6-9.4,1.4c-1.6,0.4-3.1,1-4.6,1.6
		c-0.5,0.2-1.1,0.4-1.6,0.5c-4.8,1.1-9.7,2.2-14.5,3.4c-2.7,0.7-5.3,1.6-7.9,2.5c-0.7,0.2-1.3,0.6-1.9,0.9c-0.1,1.1-0.2,1.9-0.3,2.8
		c-1.1,0.8-2.2,1.4-3.6,0.8c0.1-0.7,0.2-1.3,0.3-2c-1.5-0.1-2.9-0.4-4.2,0.3c-1.7,0.9-3.6,1.1-5.4,1.5c-1.7,0.4-3.5,0.8-5,1.8
		c0.4,2.3,0.1,3.4-0.8,3.5c-0.5-0.3-1-0.7-1.3-1c-0.1-0.7-0.1-1.2-0.2-1.7c-1.4-0.1-2.5,0.2-3.7,1.2c0.9,0.6,1.6,1.1,2.5,1.7
		c-0.9,0.9-2.4,0.5-2.9,2c-1.7-0.3-3.5,1.5-5.2-0.3c-0.4,0.8-0.6,1.4-1,2.1c-0.8-0.8-0.7-2-2.2-2.2c-1.5,0.7-1.5,2.6-2.6,4.1
		c-0.8-0.9-1.4-1.6-2.1-2.5c-0.3,0-0.6-0.2-0.9-0.1c-1.8,0.8-3.6,0.9-5.5,1c-0.7,0-1.4,0.3-2.1,0.6c-1.1,0.5-2.1,0.8-3.3,0.8
		c-1.3,0-2.5,0.5-3.6,1.3c0.3,0.9,0.6,1.7,1,2.6c-0.5,0.6-0.9,1.2-1.3,1.6c-0.5,1,0.1,2.2-1.1,2.7c-0.3-0.2-0.6-0.4-1-0.6
		c-0.4,0.3-0.9,0.7-1.3,1.1c-0.6-0.5-1.2-0.9-1.7-1.3c-0.3,0.2-0.6,0.3-0.7,0.5c-0.4,1.5-1.1,2.5-2.8,2.5c-0.2,0-0.4,0.2-0.6,0.4
		c-1.1,0.7-2.2,1.4-3.6,2.3c-0.7,0.8-0.5,2.7-2.1,3.3c-1,0.6-2.4-0.2-2.9,1.4c0.4,0.5,0.8,1.1,1.4,1.8c-0.7,0.8-1.4,1.6-2,2.3
		c0.5,0.5,1,1,1.3,1.3c-0.3,1.4-0.9,2.5-0.6,3.4c0.4,1.3,0.7,2.8,2.2,3.6c0.4,0.2,0.5,0.8,0.7,1.2c-1.6,0.9-3,1.7-4.4,2.6
		c1,1.4,2.4,1.3,4.1,1.6c-1.3,0.8-2.2,1.4-3.3,2.1c0.6,1,1.2,2,1.7,2.8c-0.3,0.8-0.5,1.5-0.8,2.2c0.8,0.5,1.4,0.9,2,1.3
		c-2.6,1.4-2.6,1.4-2.6,2.4c0.9,0.3,1.8,0.5,2.5,0.8c-0.2,2.8,0,5.3,1.1,7.5c-0.7,0.7-1.4,1.2-2.2,1.9c1.9,1,3.9,0.3,5.3,1.1
		c1.1,1.6-0.7,2.5-0.6,3.8c0.5,0.6,0.9,1.1,1.3,1.7c0.3,1.4,0,2.7-0.8,3.8c-1,1.3-0.7,2.6,0,3.9c0.7,1.4,1.3,2.9,2,4.4
		c0.2,0.4,0.3,0.8,0.6,1.1c1.1,1.5,2.2,3,3.3,4.5c1.3,0.7,2.8-1.1,4.4,0.2c-0.8,0.6-1.5,1.1-2.1,1.6c0.4,1.3,0.7,2.1,0.9,2.8
		c1.6,0.9,1.6,0.8,2.9,0.6c1.8-0.3,3.6-0.4,5.3-0.7c1.3-0.2,2.5-0.6,3.7-1.2c2.4-1.1,4.6-2.6,7.4-2.7c0.2,0,0.5,0,0.7-0.1
		c1.4-1.1,3.2-1.1,4.8-1.5c1.4-0.3,2.4-0.2,3.7,0.4c-0.6,0.5-1,1-1.5,1.4c0.1,0.1,0.1,0.2,0.2,0.4c1.1-0.3,2.1-0.6,3.2-0.9
		c-0.1-1.3-0.8-2.4,0.5-3.5c0.5,0,1.1-0.1,1.7-0.2c0.3-0.4,0.5-0.9,0.9-1c2-0.9,4-1.7,5.9-2.5c1.2,1.1,2.2,2,3.3,3
		c0.2-0.8,0.4-1.4,0.6-2c-0.5-0.6-0.9-1.2-1.4-1.8c0.3-0.5,0.6-1,1-1.5c0.7,0.6,1.3,1,1.8,1.5c0.8,0,1.6,0.1,2.5,0.1
		c0.6,0.8,1.2,1.5,1.8,2.3c0.7,0,1.4-0.1,2.2-0.1c0.4-0.7,0.7-1.4,0.9-1.8c-0.2-1.1-0.3-1.9-0.5-2.6c0.9-1,1.8-0.9,2.8-0.7
		c0.6,0.6,1.1,1.2,1.7,1.9c2.1,0.2,3.8-1.8,5.9-0.8c-0.5,0.6-0.8,1.3-1.4,1.8c-0.7,0.5-1.5,0.9-2.3,1.3c-0.3,0.5-0.6,1-1,1.6
		c-0.8-0.1-1.5-0.1-2.3-0.2c-0.2,0.5-0.5,1-0.7,1.5c-3.3,0.7-6.3,2.6-9.9,2.1c-1.3,2.1-3.5,2.4-5.6,3c-2.7,0.7-5.5,1.6-8.2,2.5
		c-1.1,0.3-2.2,0.7-2.4,2.1c-0.1,1.6,1.5,1.8,2.2,2.9c0.3,1.3,0.6,2.7,0.9,4.2c2,1.5,2.3,3.7,2.2,6c0.6,0.9,1.4,1.5,1.3,2.9
		c-1.4,0.7-2.9,1.4-4.4,2.2c-1.8,1-2.2,2.6-1.1,4.3c0.2,0.3,0.5,0.5,0.7,0.8c-0.9,0.4-1.8,0.6-2.2,1.2c-0.5,0.6-0.7,1.6-1,2.3
		c-2.2,0.3-2.2,0.3-3.1,1.3c-0.3,2.9-0.6,5.4-0.9,7.8c0.9,0.5,1.6,0.9,2.5,1.4c-5,3.2-10.3,4.3-15.9,5.5c-0.3,0.3-0.9,0.7-1.5,1.2
		c-0.5-0.1-0.9-0.1-1.3-0.2c-0.4-0.1-0.8-0.2-0.9-0.3c-1.1,0.5-2,1-3.3,1.6c-0.4,0.6-1,1.6-2.5,1.2c-0.4-0.6-0.9-1.2-1.4-2
		c-1.3,0.4-2.5,0.9-3.7,1.2c-6.2,1.7-12.4,3.4-18.3,6c-1,0.5-2.1,0.9-3.2,1.1c-5.5,1.1-10.8,3-16,5c-3,1.2-6.1,2.2-8.8,4.2
		c-0.8,0.6-1.9,1.1-2.9,1.1c-2.1,0.1-3.5,1.1-4.5,2.7c-0.9,0.4-1.7,0.8-2.4,1.1c-0.2,0.8-0.4,1.4-0.6,2.1c-0.4-0.3-0.6-0.4-0.8-0.5
		c-1.2,0.8-2.3,1.7-3.8,2.7c-0.2,0.5-0.4,1.4-0.9,2.1c-0.7,1.1-0.7,2-0.4,3.2c0.2,1.2,0.1,2.6,0.1,3.8c0,0.1-0.2,0.2-0.5,0.3
		c-0.5-0.4-1-0.9-1.5-1.4c-0.8,1-1.6,1.8-2.4,2.8c0.9,1.2,1.7,2.4,2.8,4c-0.6,0.3-1.3,0.7-2.2,1.1c1.2,1.4,2.4,2.2,3,3.3
		c0.6,1.2,0.7,2.6,1,3.9c-0.6,0.8-1.1,1.4-1.7,2.1c3,0.9,3,0.9,4,2c-0.5,0.6-0.9,1.3-1.4,1.9c0,0.8,0.1,1.5,0.1,2.1
		c1.3,1.5,2.5,2.9,3.5,4.1c1.4,0.4,2.5-0.1,3.9,0.6c-1.2,0.6-2,1-2.9,1.5c-0.1,1.8-0.1,1.8,0.9,2.8c0.9,0.9,1.7,1.8,1.9,3.3
		c-0.4,0.5-0.8,1.2-1.2,1.8c0.2,1.3,0.3,2.6,0.5,3.8c0.6,0.5,1.2,1,1.7,1.5c-0.2,0.9-0.4,1.6-0.5,2.4c0.8,1.4,1.6,2.8,2.5,4.3
		c-1.4,0.7-2.7,1.4-4.1,2.2c0.9,1.5,3,0.8,4,1.9c0.8,1.6-0.7,2.4-1.4,3.8c1,1.5,2.1,3.1,3.3,4.9c0,1.1,0,2.6,0,4.5
		c-0.1,0.3-0.4,1.1-0.7,1.7c0.7,2,2.7,1.9,3.9,2.8c0.3,0.6,0.5,1.1,0.8,1.5c1.7,0,3.2,0,4.6,0c0.9-0.7,1.7-1.3,2.4-1.9
		c0.6-0.6,1.9-0.7,1.8-2.2c-0.6,0-1.1,0.1-1.6,0.1c-0.2,0-0.4-0.2-0.7-0.5c0.4-0.4,0.7-0.7,1-1c2.3,0.6,4.2-0.2,6.2-1
		c0.7,0.2,1.3,0.5,2.1,0.8c2.2-2.4,5.2-2.5,8.2-2.5c1.5-2.5,4.2-2.4,6.7-2.6c-0.1-0.9-0.1-1.5-0.2-2c1.7-1.5,4-2.3,6-2
		c-0.2,1.6-0.2,1.6,0.7,2.5c1.1-0.7,0.4-1.7,0.5-2.7c1.4,0,2.7,0.6,4.1,0c0.3-0.1,0.8,0.3,1,0.4c0.8-0.3,1.5-0.8,2.2-0.7
		c1.8,0.1,3.3-0.5,4.9-1.2c0.1-1.1,0.2-2.1,0.3-3.2c0.6-0.4,1.1-0.8,1.4-1c1.9,0.5,3.5,1,5.3,1.5c1.1,0.6,1.6,1.8,1.7,2.9
		c1,0.9,1.9,1.6,2.8,2.4c-0.2,1.5-0.3,2.8-0.5,4.2s1.3,2.7,0.6,3.8c-1.4,0.9-2.7,1.3-3.1,2.2c-1,2.1-2.6,3.5-4.1,5.1
		c-0.1,0.1-0.1,0.3-0.2,0.7c0.4,0.2,1,0.5,1.6,0.8c-0.5,0.5-0.6,0.7-0.7,0.7c-4.7,0.7-9.2,2.2-13.7,3.5c-4,1.1-8,2.4-12,3.5
		c-3.5,0.9-6.9,1.9-10.2,3.2c-2.7,1.1-5.6,1.9-8.4,2.6c-2.4,0.6-4.8,0.7-7.2,1.1c-2.8,0.4-4.9,1.9-6.8,3.1c-0.2,1.3-0.4,2.1-0.6,3
		c-0.8,0.2-1.4,0.4-2.3,0.7c0.3-1.1,0.6-1.9,0.8-2.7c-2.1-0.3-2.5,1.1-2.9,2c-1.1,1-2,1.7-2.8,2.4c0.4,0.7,0.7,1.2,1,1.7
		c-0.8,1.7-3.5,0.6-3.7,3c0.3,0.3,0.6,0.6,0.9,0.8c0.7-0.3,1.3-0.6,2-0.9c0.3,0.7,0.5,1.2,0.9,1.9c-0.8,0.3-1.4,0.5-2,0.7
		c-0.4,0.2-1,0.3-1.3,0.6c-1.1,1.1-2.3,1.5-3.8,1.5c-0.4,0-0.7,0.3-1.1,0.4c0,1.9,0,3.7,0,6c1.4,1.1,3.1,2.6,4.9,4.1
		c0.2,0.5,0.2,1.2,0.6,1.6c0.6,0.7,0.7,1.2,0.1,2.1c-1,0-2.2,0.1-3.3,0c-1.9-0.1-2.8,1-3.5,2.5c-0.2,0.4-0.3,0.9-0.3,1.1
		c-2.5,0.5-4.7,1-6.8,1.5c-1.6,0-3.1-0.3-4.5,0c-9.8,2.2-19.5,4.6-28.9,8.1c-1.9,0.7-3.9,1.2-5.7,2.1c-2.9,1.6-6.1,2.8-8.7,4.9
		c-0.5,0.4-1.1,0.6-1.7,0.9c-0.9,0.4-1.6,0.8-1.6,2.1c0.7,0.6,1.4,1.3,2.2,2c-1,1.9-3.9,1.1-4.8,3.6c0,1,0.1,2.2,0.2,3.7
		c-0.9,0.6-1.9,1.3-2.8,2c-0.7,1.4-1.1,2.8-0.2,4.2c1.3,2,1.8,4.1,2.2,6.3c0.6,0.4,1.1,0.8,1.6,1.2c-0.5,1-1,1.9-1.5,2.9
		c1,0.6,1.8,1.1,2.6,1.6c-0.3,1.5-0.6,2.8-0.9,4c0.3,1,0.6,2,0.9,2.9c0.3,0.8,0.5,1.9,1.1,2.4c2,1.9,2.7,4.5,3.2,7
		c0.4,2.2,0.8,4.1,3,5.1c0,1,0.1,1.9,0.1,2.8c1.5,2.5,4.5,3.1,6,5.1c2.1,0.5,4.2-0.7,5.5,1.2c-0.4,1.2-0.7,2.3-1,3.3
		c-1.7,0.7-1.7,0.7-4.3,0.4c0.2-0.5,0.4-1,0.6-1.5c-2.2-1.5-4.4-1-6.5,1.2c0.1,0.5,0.1,1.1,0.2,1.6c-0.4,0.4-0.8,0.8-1.3,1.2
		c-0.7-0.3-1.3-0.7-1.9-1c-0.7,0.3-1.4,0.6-2,0.9c-0.7-0.1-1.3-0.2-1.6-0.2c-1.2,0.9-1.9,1.9-2.9,2.2c-2.7,0.9-4.6,3-7.1,3.8
		c-0.3,0.6-0.5,0.9-0.6,1.3c-0.8,2.5-1.7,4.9-2.5,7.4c-0.2,0.5-0.2,1.1-0.1,1.7c0.3,1.3,0.7,2.7,1,3.9c3.3,3.4,3.3,3.4,4.6,7.4
		c-0.1,0.7-0.3,1.4-0.5,2.3c0.9,1,2,2,2.6,3.1c0.9,1.6,2.1,2.1,3.6,1.7c1.5,1.3-0.1,2.6,0.3,3.8c1.1,0.9,2.1,1.9,3.3,3
		c0,1.8-1.8,3.5-0.6,5.7c2.1,0.1,3.4,1.7,4.8,3c-0.6,1.7-1.1,3.4-1.7,5c0.9,0.6,1.6,1.1,2.2,1.5c0.6,3-1.9,4.5-2.3,6.9
		c0.6,1.3,1.2,2.6,1.8,3.9c0.5,1,1,2,1.5,3.1c0.8,1.7,2.4,3,2.2,5.1c0,0.1,0.2,0.3,0.2,0.4c0.6,0.2,1.2,0.4,1.9,0.6
		c0.3,0.8,0.7,1.5,0.9,2.3c0.6,2.3,5.3,4.9,7.3,4.6c1.4-0.2,2.9-0.6,4.3-0.8c1-0.2,1.9-0.4,2.9-0.5c0.2,0,0.3,0.2,0.6,0.4
		c-0.4,0.6-0.8,1.1-1.1,1.5c0.7,0.8,1.4,1.6,2,2.3c-0.3,1-0.6,1.7-0.9,2.6c1.2,0.8,2.4,1.3,3.7,1.3c3.4,0,6.8-0.1,10.3-0.4
		c1.3-0.1,2.6-0.3,3.9-0.5c-1.7-1.9-3.4-3.8-4.9-5.8C115.8,795.7,115.6,795.4,115.4,795.2z M915.3,237.8c-1,0.1-1.7,0.2-1.8-1.1
		C914.1,237.1,914.6,237.4,915.3,237.8z M698.2,274.6c-1.6,0.1-3.2,0.2-4.8-0.8c0.1-0.3,0.3-0.6,0.5-1c1.9,0.4,3.7,0.7,5.6,1
		c0,0.1,0,0.3,0,0.4C699.1,274.3,698.7,274.6,698.2,274.6z M698,266.4c0.8-0.1,0.8,0.1,1.1,1.7c-1.3,0.1-2.5,0.2-3.8,0.3
		c0.4,1.4,1.2,1.5,2.1,1.2c1-0.3,1.9-0.6,3.1-0.5c-0.5,0.8-0.9,1.5-1.3,2c-1.4-0.1-2.8-0.2-4.1-0.3c0,0.1,0,0.2,0,0.3
		c-0.5-0.3-1-0.5-1.5-0.8c-0.3-0.9-0.5-1.7-0.8-2.5c0.3-0.3,0.4-0.7,0.7-0.8C695,266.8,696.5,266.5,698,266.4z M693.4,262.2
		c0.7,1.6-0.3,2-1.1,2.6c-0.3-0.2-0.6-0.4-1-0.7C692.1,263.5,692.7,262.9,693.4,262.2z M687,272.9c0.6-0.8,1.2-1.6,2-2.6
		c0.8,0.2,1.4,1,1.9,1.7c-0.2,1.4-1.4,0.9-2.4,1.6c0.9,0.5,1.7,0.9,2.7,1.4c-0.7,0.8-1.6,1.2-2.7,1
		C686.9,275.3,686.8,274.1,687,272.9z M463.1,274c0.3,0.7,0.8,1.2,0.7,1.6c-0.2,0.7-0.6,1.4-1.2,2.4c-0.5-0.8-1-1.1-1.1-1.6
		C461.3,275.5,461.4,275.4,463.1,274z M341,389.3c1.9,0.6,3.5,0.9,5-0.6c0.5-0.5,1.2-0.3,2,0.3c0,0.6,0.1,1.3,0.1,2
		c-2.5,0.3-4.8,0.6-7.1,1c-0.2,1-0.3,1.6-0.4,2.3c-0.5-0.1-1-0.2-1.6-0.3c0.2-0.7,0.4-1.3,0.6-1.9c-0.2-0.4-0.5-0.8-0.8-1.5
		C339.5,390.1,340.3,389.7,341,389.3z M314.7,396.9c-0.6,0.8-1.1,0.9-1.8,0C313.6,396.9,314.1,396.9,314.7,396.9z M315.1,400
		c-0.6,1-1.5,0.7-2.5,0.6C313.7,399.4,313.7,399.4,315.1,400z M208.9,343.1c0.2-1.1,0.3-1.6,0.5-2.5c0.5,0.6,0.7,0.8,1.1,1.2
		C210,342.2,209.7,342.5,208.9,343.1z M249.7,328.3c0.5-1.6,0.5-1.6,2.4-1.5C251.7,328.5,251.7,328.5,249.7,328.3z M288.9,404.8
		c0.1-1.2,1-1.2,1.8-1.6c0.2,0.6,0.4,1,0.6,1.4C290.5,405.3,289.7,405.1,288.9,404.8z M289.2,399.1c0.9,0.7,1.8,1.4,2.7,2.1
		c0.5-0.4,1-0.7,1.5-1.1c0.3,0.3,0.6,0.6,0.8,0.9c-0.9,1.8-2.7,0.4-3.8,1.5c-0.8-0.8-1.5-1.5-2.3-2.3
		C288.6,399.8,288.9,399.5,289.2,399.1z M286.2,393c0.6,0.6,0.8,1,1.2,1.3C286.1,394.6,286.1,394.6,286.2,393z M283.1,393.4
		c0.5,1.1,0.4,2.1,0,3.4C281.6,395.2,281.6,394.6,283.1,393.4z M281.4,401.1c1.1-0.3,2.1-0.4,3.5-0.7c0.2,0.3,0.5,0.8,0.9,1.3
		c-1.1,0.5-2.1,0.9-3.1,1.3c-0.1,0.9-0.2,1.6-0.4,2.7c-1.8-0.8-2-2.3-2.9-3.7C280.1,401.7,280.7,401.3,281.4,401.1z M276.8,401
		c0.7,0.5,1.1,0.8,1.6,1.3c-0.8,1.1-1.4,1.7-2.8,0.8C276.1,402.4,276.4,401.8,276.8,401z M271.9,408.5c0.7-0.6,1.6-1.3,2.7-2.2
		c0.3,0,1.1,0,1.9,0c-0.6,0.8-1.1,1.4-1.6,2c-0.5,0.5-1,1-1.5,1.5c-2.1,0.4-3.6-0.3-5.3-0.8C269.3,407.4,270.4,408.4,271.9,408.5z
		 M266.8,409.6c0.1,0.1,0.3,0.2,0.4,0.3c-0.2,0.5-0.4,0.9-0.7,1.5c-0.5-0.2-0.8-0.4-1.4-0.7C265.9,410.3,266.4,410,266.8,409.6z
		 M193.7,558.6c0.2-0.3,0.3-0.5,0.6-1c0.6,0.5,1.2,1,1.9,1.7C195.1,559.6,194.3,559.6,193.7,558.6z M220.3,587.4
		c-0.7-0.3-1.4-0.5-2.2-0.8c-0.4,0.6-0.8,1.2-1.2,1.9c-1.2-0.5-1.4-1.1-0.8-2.1c1.4-0.4,2.8-0.7,4.2-1.1
		C221.2,586.1,221.2,586.1,220.3,587.4z M216.5,558.9c0.8-0.2,1.3-0.3,1.7-0.4C218.1,559.5,217.7,559.6,216.5,558.9z M218.3,558.5
		c0.9-0.9,0.9-0.9,2.3-0.5C219.9,558.8,219.1,558.5,218.3,558.5z M228.1,583.8c1.1-0.3,1.5,0.5,1.9,1.2c-0.4,1-1,1.3-1.8,0.8
		C227.4,585.2,227.4,584.5,228.1,583.8z M219.5,552.8c0.5,0.4,1,0.8,1.7,1.3c0.6-0.5,1.3-1,1.8-1.4c1-0.1,1.9-0.3,2.9-0.4
		c0.2,0.2,0.4,0.4,0.7,0.7c-1.2,0.7-2.3,1.3-3.5,2c-1-0.1-2.1-0.1-3.7-0.2c-0.2-0.2-0.9-0.6-1.8-1.2
		C218.4,553.3,218.9,553,219.5,552.8z M214,553.1c0.3-0.2,0.7-0.2,1.7-0.4c-0.7,0.8-0.9,1.1-1.5,1.7
		C214.1,553.7,213.9,553.1,214,553.1z M213.5,557.3c1.8-1.8,2.8-2.1,4.6-1c-1.3,0.7-2.5,1.4-3.8,2.2
		C213.9,558.1,213.7,557.7,213.5,557.3z M201.8,589.9c3.4-1.4,4.1-1.6,5.7-0.7c-1.1,0.6-2.2,1.2-3.1,1.6c-1.2-0.2-2.2-0.4-3.2-0.4
		c-0.9,0.1-1.8,0.7-2.8-0.2C199.5,588.9,200.7,589.9,201.8,589.9z M192,590.6c1,0.2,2,0.4,3.2,0.7c-1.1,1.2-2.1,1.2-3.3,0.8
		c-0.5,0.4-1,0.8-1.6,1.3c-0.4-0.3-0.7-0.6-1.1-1C190.1,591.7,190.9,591.2,192,590.6z M186.4,590.9c0.1,0.1,0.1,0.2,0.2,0.3
		c-0.5,0.5-0.9,1-1.6,1.7c-0.3-0.3-0.5-0.6-0.9-1C185.1,591.5,185.8,591.2,186.4,590.9z M163.3,629.5c0.5,0.4,0.9,0.8,1.4,1.2
		c-1.1,1.2-1.9,0.6-3-0.1C162.3,630.3,162.8,629.9,163.3,629.5z M129,698.7c0.3,0.3,0.6,0.5,1,0.8c-0.2,0.3-0.3,0.6-0.5,0.6
		c-0.6,0-1.2,0-1.8-0.1c0-0.1-0.1-0.3-0.1-0.4C128,699.4,128.5,699.1,129,698.7z M119,700.3c1.3-0.1,2.4-0.2,3.5-0.9
		c1.2-0.7,2.7-1,4.5-0.4c-0.5,0.5-0.7,1-1.2,1.2c-2.4,0.7-4.8,1.3-7.2,2c-0.3,0.1-0.8-0.1-1.6-0.2
		C117.9,701.2,118.4,700.7,119,700.3z M88.2,761.9c-0.9-0.5-1.7-1-2.4-1.3c-0.9,0.1-1.7,0.2-2.6,0.3c0.2-1.7,1.5-1.6,2.3-2
		c1-0.4,1.9-0.1,2.7,0.6C88.2,760.1,88.2,760.9,88.2,761.9z M109.5,700.4c1.1,1.1,1.9,2.1,3.1,3.4c-1.9,0.4-3.3,0.6-4.7-0.3
		C108.4,702.5,108.9,701.6,109.5,700.4z M100,706.9c-0.7-0.8-1.1-1.3-1.5-1.8c-1.4,0.5-2.6,0.9-4,1.4c-0.8-1.4-0.1-2.2,1-3
		c1,0.1,2.2,0.1,3.4,0.2c0.6-0.4,1.4-1,2.2-1.5c0.5,0.3,0.9,0.6,1.2,0.8C102.5,705,100.1,705,100,706.9z"/>
	<path class="st1" d="M235.4,414.4L235.4,414.4C235.4,414.3,235.4,414.3,235.4,414.4c-0.1,0-0.1,0-0.1,0
		C235.4,414.4,235.4,414.4,235.4,414.4z"/>
	<path class="st1" d="M235.5,417.6c1.8,0.5,2.9-1.3,4.5-1.1c0.5-0.9,1-1.7,1.4-2.4c-2.1,0.1-4.1,0.2-6,0.2
		C236.3,415.4,235.2,416.5,235.5,417.6z"/>
	<path class="st1" d="M1220.4,566.6c0.2,1.5,0.4,2.6,0.6,3.9c0.9,0.9,1.8,0.9,2.7-0.3c-1-1.3-0.1-2.5,0.4-3.7
		C1222.7,565.2,1221.6,566.3,1220.4,566.6z"/>
	<path class="st1" d="M1218,583.4c0.1,1.1,1.8,1.5,0.9,3.2c1.1-0.1,1.7-0.2,2.3-0.3c0-1,0-1.9,0-2.7
		C1220,582.9,1219.1,582.8,1218,583.4z"/>
	<path class="st1" d="M1210.2,397.3c0.3,0.3,0.7,0.7,1,0.9c0,0.7,0.1,1.3,0.1,2c1.3-1.3,1.3-1.3,1.5-3.4
		C1211.1,396.1,1210.4,396.2,1210.2,397.3z"/>
	<path class="st1" d="M199.6,562.2c-1.1,0.6-2.2,1.3-3.4,1.9c1.2,0.7,1.2,0.7,2.3,0.5C199.7,562.9,199.7,562.9,199.6,562.2z"/>
	<path class="st1" d="M717,221.1c0-0.1,0-0.3-0.1-0.4c-2.2,0.2-4.5,0.3-6.7,0.5c0,0.1,0,0.2,0,0.4c0.7,0.2,1.3,0.4,1.6,0.5
		C713.8,221.7,715.4,221.4,717,221.1z"/>
	<path class="st1" d="M1210.6,393.6c0.3,0,0.5-0.6,0.9-1c-2.9-0.6-3.1-0.6-4,1C1208.8,393.7,1209.7,393.7,1210.6,393.6z"/>
	<path class="st1" d="M208.8,560.5c-0.2-0.8-0.8-1.1-1.7-0.7c0,0.6,0,1.3,0,2.2C208.4,561.9,209,561.5,208.8,560.5z"/>
	<path class="st1" d="M191.1,565.2c0.3,0.2,0.5,0.5,0.9,0.9c0.7-0.7,1.2-1.2,1.7-1.7C192.3,563.9,192.3,563.9,191.1,565.2z"/>
	<path class="st1" d="M225.4,419.8c0.9,0,1.7-0.1,2.6-0.1C226.9,417.8,226.6,417.9,225.4,419.8z"/>
	<path class="st1" d="M1215.6,584.2c-0.5-0.4-0.9-0.7-1.5-1.1c0,1,0,1.8,0,3C1214.8,585.3,1215.1,584.8,1215.6,584.2z"/>
	<path class="st1" d="M184.9,563.5c0.1,0.8,0.2,1.4,0.3,2.6c0.7-1,1.1-1.5,1.6-2.3C186.1,563.7,185.6,563.6,184.9,563.5z"/>
	<path class="st1" d="M249.3,412.5c-1.3,1-1.3,1-0.4,2.2C249.7,414.1,249.8,413.4,249.3,412.5z"/>
	<path class="st1" d="M1222.9,577.4c0.5,0.3,0.9,0.5,1.5,0.8c0.4-0.5,0.8-0.9,1.2-1.3C1224.1,576.8,1224.1,576.8,1222.9,577.4z"/>
	<path class="st1" d="M205.5,558c1.2,0.5,1.2,0.5,1.7-0.7C206.4,557,205.9,557.2,205.5,558z"/>
	<path class="st1" d="M242.8,416.3c0.5,0.5,0.7,0.8,1.4,1.4c0.2-1.2,0.3-1.7,0.5-2.7C243.9,415.6,243.6,415.8,242.8,416.3z"/>
	<path class="st1" d="M204.3,561.1c-0.8,0.5-0.9,1-0.1,1.6C205,561.8,205,561.8,204.3,561.1z"/>
	<path class="st1" d="M390.5,289.4c-0.4,0.3-0.7,0.5-1.5,1.1C390.7,290.7,390.7,290.7,390.5,289.4z"/>
	<path class="st1" d="M537.8,252.8c-1-0.1-1.4,0.4-1.7,1.2C537.1,254.1,537.6,253.8,537.8,252.8z"/>
	<path class="st1" d="M1080.1,300.5c-0.3-0.5-0.5-1-1.4-0.1c0.4,0.3,0.8,0.5,1.1,0.7C1079.9,300.9,1080,300.7,1080.1,300.5z"/>
	<path class="st1" d="M1199.4,584.6c0,0.6,0,1.1,0,1.8C1200.4,585.6,1200.2,585.2,1199.4,584.6z"/>
	<path class="st1" d="M173.2,569.6c-1.4,0.9-1.4,0.9-0.6,1.5C172.8,570.7,172.9,570.4,173.2,569.6z"/>
	<path class="st1" d="M232.5,330.4c-0.9,0-0.9,0-0.7,1.1C232.1,331.1,232.3,330.8,232.5,330.4z"/>
	<path class="st2" d="M1178.4,389.7c-0.2-0.2-0.4-0.4-0.6-0.6c-3.7-3.7-9.1-6.5-12.1-10.3c-0.9-1.2-1.6-2.4-2.1-3.6
		c0.5,1.3,1.2,2.5,2.1,3.6C1168.9,382.8,1174.6,385.7,1178.4,389.7z"/>
	<path class="st2" d="M1122.3,329.3c0.6-0.3,1.2-0.7,1.8-0.9C1123.5,328.7,1122.9,329,1122.3,329.3z"/>
	<path class="st2" d="M1008.3,304.7c-0.3,1-0.6,1.9-1,2.8C1007.7,306.6,1008,305.6,1008.3,304.7z"/>
	<path class="st2" d="M389.8,883.1c-10.2-1.3-20.4-2.8-30.5-4.3C369.5,880.3,379.6,881.7,389.8,883.1z"/>
	<path class="st2" d="M1150,332.7c2.2,1.1,4.1,2.3,5.8,3.7C1154.1,335.1,1152.2,333.9,1150,332.7z"/>
	<path class="st2" d="M1126.3,327.6c0.5-0.2,1.1-0.3,1.6-0.4C1127.4,327.3,1126.9,327.4,1126.3,327.6z"/>
	<path class="st2" d="M1124.1,328.4c0.1,0,0.2-0.1,0.3-0.1C1124.3,328.3,1124.2,328.4,1124.1,328.4z"/>
	<path class="st2" d="M301.7,868.3c-7.5-1.6-15-3.2-22.5-5C286.6,865.1,294.1,866.8,301.7,868.3z"/>
	<path class="st2" d="M969,222.8c0.6,0.2,1.2,0.5,1.7,0.7C970.1,223.3,969.6,223,969,222.8z"/>
	<path class="st2" d="M356.9,878.4c-12.6-2-25.2-4.1-37.7-6.5C331.8,874.2,344.3,876.4,356.9,878.4z"/>
	<path class="st2" d="M926.5,229.3c1-0.7,2-1.3,3-2C928.5,227.9,927.5,228.6,926.5,229.3z"/>
	<path class="st2" d="M958.5,220.5c2.4,0.2,4.7,0.6,7,1.2C963.3,221.1,960.9,220.7,958.5,220.5z"/>
	<path class="st2" d="M1009.9,299.9c-0.3,1.2-0.7,2.3-1,3.4C1009.2,302.1,1009.5,301,1009.9,299.9z"/>
	<path class="st2" d="M1109.6,339.7c-0.9,1-1.8,2-2.5,3C1107.9,341.7,1108.7,340.7,1109.6,339.7z"/>
	<path class="st2" d="M1142.6,329.7c2.8,0.9,5.2,1.9,7.4,3.1C1147.8,331.6,1145.3,330.6,1142.6,329.7c-5.6-1.9-9.5-2.8-12.9-2.7
		C1133.1,326.9,1137,327.8,1142.6,329.7z"/>
	<path class="st2" d="M1159.2,339.9c-0.7-0.9-1.6-1.8-2.5-2.7C1157.7,338.1,1158.5,339,1159.2,339.9z"/>
	<path class="st2" d="M1162.6,368.4c0-1.7,0.3-3.4,0.5-5.2c0.3-1.7,0.5-3.3,0.6-4.9c-0.1,1.5-0.3,3.2-0.6,4.9
		C1162.9,364.9,1162.7,366.7,1162.6,368.4z"/>
	<path class="st2" d="M1162.7,370.3c0-0.7,0-1.3,0-2C1162.6,369,1162.6,369.7,1162.7,370.3z"/>
	<path class="st2" d="M1107.1,342.7c-0.5,0.7-1,1.4-1.4,2C1106.1,344.1,1106.6,343.4,1107.1,342.7z"/>
	<path class="st2" d="M1163.9,355.3c0,1-0.1,2-0.1,3C1163.8,357.3,1163.9,356.3,1163.9,355.3z"/>
	<path class="st2" d="M987.8,409.5c-0.5,0.1-1,0.2-1.6,0.3c3.3-0.6,6.7-1.3,10.2-2.3c-1.2,0.3-2.3,0.6-3.5,0.9
		C991.2,408.8,989.5,409.2,987.8,409.5z"/>
	<path class="st2" d="M1111.8,337.5C1111.8,337.4,1111.8,337.4,1111.8,337.5C1111.8,337.4,1111.8,337.4,1111.8,337.5z"/>
	<path class="st2" d="M1163.7,351.3c0.1,0.8,0.2,1.7,0.2,2.6C1163.8,353,1163.8,352.2,1163.7,351.3z"/>
	<path class="st2" d="M839.3,895.6c-3.6,0.3-7.2,0.6-10.8,0.8C832.1,896.1,835.7,895.8,839.3,895.6z"/>
	<path class="st2" d="M1183.6,777.5c4.6-9.7,6.8-20.2,5.9-31.4c-0.4-4.7-2.1-9.7-4.9-14.6c2.8,5,4.5,9.9,4.9,14.6
		C1190.5,757.3,1188.2,767.8,1183.6,777.5z"/>
	<path class="st2" d="M1173.4,716.8c0.9,0.9,1.7,1.8,2.5,2.7C1175.1,718.6,1174.3,717.7,1173.4,716.8z"/>
	<path class="st2" d="M1179.3,723.5c2,2.6,3.8,5.3,5.3,7.9C1183.2,728.8,1181.4,726.2,1179.3,723.5z"/>
	<path class="st2" d="M1148,697.2c1.5,0.9,3,1.8,4.4,2.7C1151,699,1149.5,698.1,1148,697.2z"/>
	<path class="st2" d="M1183.6,777.5c-1.8,3.7-3.9,7.3-6.2,10.8C1179.8,784.8,1181.9,781.2,1183.6,777.5z"/>
	<path class="st2" d="M1044.8,785.2c22.7-2.5,43.8-17,49.4-34.1c4.6-13.9,4.1-15-8.6-23c-7.4-4.6-20.2-9.5-28.6-10.8
		c-24.4-3.9-67.3,0.7-87.8,9.4c-19.6,8.3-22.5,11.3-16.3,16.7c2,1.7,2.4,10.5,0.9,19.5l-2.7,16.4l39.5,3.8
		C1012.4,785.1,1036.7,786.1,1044.8,785.2z"/>
	<path class="st2" d="M1134.6,690.5c2.3,1,4.6,2.1,6.8,3.2C1139.2,692.5,1136.9,691.5,1134.6,690.5z"/>
	<path class="st2" d="M447.2,889.6c-4.9-0.5-9.8-1-14.7-1.5C437.4,888.6,442.3,889.1,447.2,889.6z"/>
	<path class="st2" d="M881.4,800.2c36.6-12.3,53.8-23.4,55.7-36c2.1-14.2-2.9-23-19.9-34.7c-22.1-15.3-43.8-17.4-80.1-7.8
		c-53.4,14.1-72,45.7-41,69.8c5.8,4.5,20.9,9.6,35.9,12.1C853.1,807.2,862.5,806.5,881.4,800.2z"/>
	<path class="st2" d="M765.8,899.8c-17.6,0.7-35.2,1.2-52.8,1.5C730.6,901,748.2,900.5,765.8,899.8z"/>
	<path class="st2" d="M695.7,901.5c-5.8,0-11.6,0.1-17.3,0.1C684.1,901.6,689.9,901.6,695.7,901.5z"/>
	<path class="st2" d="M1163.9,804.2c-1.2,1.2-2.5,2.4-3.8,3.6C1161.3,806.7,1162.6,805.5,1163.9,804.2z"/>
	<path class="st2" d="M1172.8,794.5c-1.1,1.3-2.2,2.7-3.4,4C1170.6,797.1,1171.7,795.8,1172.8,794.5z"/>
	<path class="st2" d="M1177.4,788.3c-1,1.4-2,2.8-3,4.1C1175.5,791.1,1176.5,789.7,1177.4,788.3z"/>
	<path class="st2" d="M1163.9,804.2c1.9-1.9,3.7-3.8,5.5-5.7C1167.7,800.4,1165.8,802.3,1163.9,804.2z"/>
	<path class="st2" d="M918.3,236.8c-0.2,0.3-0.4,0.5-0.6,0.8C917.9,237.3,918.1,237.1,918.3,236.8z"/>
	<path class="st2" d="M911.9,249.3c-0.5,1.4-0.9,3-1.4,4.6C911,252.3,911.5,250.8,911.9,249.3z"/>
	<path class="st2" d="M910.6,253.9c-0.7,2.5-1.4,5.1-2,7.9C909.2,259,909.9,256.4,910.6,253.9z"/>
	<path class="st2" d="M796.7,356.7c-3.5-0.9-6.9-1.9-10.3-2.9C789.8,354.8,793.2,355.8,796.7,356.7z"/>
	<path class="st2" d="M978.7,229.1c-0.6-0.7-1.3-1.3-2-1.8c-0.3-0.2-0.6-0.5-0.8-0.7C976.8,227.4,977.8,228.2,978.7,229.1z"/>
	<path class="st2" d="M922.4,363.2c1.5-1.9,3.1-3.8,4.9-5.6C925.5,359.4,923.9,361.3,922.4,363.2z"/>
	<path class="st2" d="M901.2,299.5c-0.8,2.8-1.8,5.3-3,7.7C899.4,304.8,900.4,302.3,901.2,299.5z"/>
	<path class="st2" d="M838.9,359.4c-1.8,0.5-3.7,0.8-5.6,1.1C835.2,360.2,837,359.8,838.9,359.4z"/>
	<path class="st2" d="M902.7,293.4c-0.5,2.2-1,4.3-1.5,6.1C901.7,297.6,902.2,295.6,902.7,293.4z"/>
	<path class="st2" d="M870.3,339.3c-0.8,0.8-1.7,1.5-2.5,2.2C868.6,340.8,869.5,340,870.3,339.3z"/>
	<path class="st2" d="M833.3,360.5c-1.7,0.2-3.4,0.4-5.1,0.5C829.9,360.9,831.6,360.7,833.3,360.5z"/>
	<polygon class="st2" points="1007.9,255.3 1019.7,262.9 1019.7,262.9 	"/>
	<path class="st2" d="M823,361c-8.7-0.2-17.6-2-26.3-4.3C805.4,359,814.3,360.8,823,361z"/>
	<path class="st2" d="M1004.5,314.2c0.3-0.5,0.5-1.1,0.8-1.6C1005,313.2,1004.7,313.7,1004.5,314.2z"/>
	<path class="st2" d="M938.2,408.9c0.9,0.1,1.8,0.2,2.7,0.3c1.1,0.1,2.2,0.2,3.3,0.3c-1.1-0.1-2.2-0.2-3.3-0.3
		C939.9,409.1,939,409,938.2,408.9z"/>
	<path class="st2" d="M927.3,357.6c1.3-1.3,2.6-2.6,4-3.9C929.9,355,928.5,356.3,927.3,357.6z"/>
	<path class="st2" d="M1098.3,356.8c0.7-0.7,1.4-1.5,2-2.2c-0.6,0.6-1.2,1.3-1.8,2C1098.5,356.6,1098.4,356.7,1098.3,356.8z"/>
	<path class="st2" d="M982.3,329.2c-1.3,0.4-2.8,0.7-4.3,1.1c-3,0.7-6,1.6-8.9,2.5c2.9-0.9,5.8-1.7,8.9-2.5
		C979.5,329.9,981,329.6,982.3,329.2z"/>
	<path class="st2" d="M724.6,342.3c-2.3-0.1-4.7-0.1-7-0.1C719.9,342.2,722.2,342.3,724.6,342.3z"/>
	<path class="st2" d="M1103.7,349.5c-0.3,1-1,2.2-2,3.5c1.2-1.6,2-3,2.2-4.1c0.1-0.5,0.2-1,0.4-1.5c-0.2,0.5-0.4,1-0.4,1.5
		C1103.8,349.1,1103.7,349.3,1103.7,349.5z"/>
	<path class="st2" d="M1000.1,320.6c0.3-0.4,0.7-0.7,1-1.1C1000.8,319.8,1000.4,320.2,1000.1,320.6z"/>
	<path class="st2" d="M985.6,328.3c0.3-0.1,0.6-0.2,1-0.3C986.2,328.1,985.9,328.2,985.6,328.3z"/>
	<path class="st2" d="M940.9,346.2c1.6-1,3.1-2.1,4.8-3C944,344.1,942.4,345.2,940.9,346.2z"/>
	<path class="st2" d="M987.6,239.8c-0.9-0.9-1.8-1.8-2.5-2.6C985.9,238,986.7,238.9,987.6,239.8z"/>
	<path class="st2" d="M978.7,229.2c1,1,1.9,2.2,2.7,3.4c0.6,1,1.5,2.1,2.6,3.4c-1.1-1.2-1.9-2.4-2.6-3.4
		C980.6,231.3,979.7,230.2,978.7,229.2z"/>
	<path class="st2" d="M989.1,327.2c0.3-0.1,0.6-0.2,0.8-0.3C989.7,327,989.4,327.1,989.1,327.2z"/>
	<path class="st2" d="M331.9,620.5c-0.5,0.3-1,0.6-1.5,0.9C330.9,621.1,331.4,620.8,331.9,620.5z"/>
	<path class="st2" d="M902.7,293.4c0.8-3.9,1.6-8.5,2.4-14.2c0.9-5.8,2.1-11.8,3.4-17.4c-1.3,5.6-2.5,11.6-3.4,17.4
		C904.3,284.8,903.6,289.4,902.7,293.4z"/>
	<path class="st2" d="M480.1,455.2c3.7-3.8,7.4-7.6,11.2-11.3C487.5,447.6,483.8,451.4,480.1,455.2z"/>
	<path class="st2" d="M303.8,631.9c2.5-1,5.1-1.9,7.7-2.6c0.5-0.1,1-0.3,1.5-0.4c-0.5,0.1-1,0.3-1.5,0.4
		C308.9,630,306.3,630.9,303.8,631.9z"/>
	<path class="st2" d="M823,361c1.7,0,3.5,0,5.2-0.1C826.4,361.1,824.7,361.1,823,361z"/>
	<path class="st2" d="M491.3,443.9c18.9-18.6,39.3-35.6,61.6-49.9c32.7-20.9,73.2-38.3,114.7-46.5c-41.5,8.3-82.1,25.6-114.7,46.5
		C530.6,408.3,510.2,425.3,491.3,443.9z"/>
	<path class="st2" d="M239.5,661.3c2.2-0.4,4.4-0.7,6.7-1c1.9-0.3,3.7-0.5,5.4-0.8c-1.7,0.3-3.5,0.5-5.4,0.8
		C243.9,660.6,241.7,661,239.5,661.3z"/>
	<path class="st2" d="M102.5,742.4c-0.3,1.1-0.5,2.1-0.7,3.2C102,744.5,102.3,743.5,102.5,742.4z"/>
	<path class="st2" d="M112.7,724c1.5-1.7,3.1-3.3,4.7-4.8C115.7,720.7,114.2,722.4,112.7,724z"/>
	<path class="st2" d="M101.3,749.6c-0.1,0.9-0.1,1.7-0.2,2.6C101.2,751.3,101.2,750.4,101.3,749.6z"/>
	<path class="st2" d="M1093.3,715.5c31.1,24.9,3.8,59.9-22.8,74c-31,16.4-69.1,18.4-102.6,9.6c-20.1-5.3-27.2-5.7-30.5-2
		c-2.4,2.7-19.7,9.8-38.6,15.7c-32,10-36.5,10.3-68.8,5.1c-26.5-4.3-36.9-7.8-44.3-14.6c-9.4-8.6-10.4-8.8-28.5-4.1
		c-10.3,2.7-26.3,4.9-35.5,5c-12.9,0.1-19.1,2.8-26.9,11.7c-11.5,13.2-19.5,16.3-55.2,21.6c-36.2,5.3-76.4,1.6-95.6-9
		c-15.6-8.6-15.7-8.6-33,2.6c-31,20-107.8,15.4-145.2-8.7c-16.9-10.9-21.2-12.1-34.5-10c-54.1,8.5-88.8-3.5-114.8-39.7
		c-14.5-20.1-16.4-25.5-14.2-39.1c3.3-20.2,19.1-33,54.4-44c20.6-6.4,24.5-8.9,19-12.1c-4.7-2.7-22.8,1.1-56.4,11.8
		c-36.3,11.6-88,27.5-95.6,71.4c-5.1,29.9,40.5,43.3,61.4,51.1c86.9,32.3,181.5,45.6,272.7,57.3c61.1,7.8,122.1,13.3,183.9,14.3
		c95.6,1.5,191.3-5.5,285.7-20.9c44.8-7.3,89.1-16.8,132.6-29.7c27.9-8.3,58.1-17.7,81.7-35.4c21.2-15.9,36.3-43.3,30.4-55.4
		c-4.4-9.1-28.1-25.5-53.5-37C1080.4,687.8,1066.1,693.7,1093.3,715.5z"/>
	<path class="st2" d="M1109.8,682.9c5.9,1,11.9,2.7,17.8,4.8C1121.7,685.6,1115.8,683.9,1109.8,682.9c-0.9-0.2-1.7-0.3-2.4-0.4
		c-2-0.4-3.7-0.7-5.1-1.1C1104.2,681.9,1106.7,682.3,1109.8,682.9z"/>
	<path class="st2" d="M255.3,713.7c-9.1-1.3-29.7,11.7-34.7,21.9c-5.7,11.6,12.7,37.7,33.2,47.1c26.3,12.1,39.4,14.7,67.7,13.5
		c10-0.4,10.2-0.9,5.6-11.1c-6.2-14.1,3.2-45.3,17-56.2c8.4-6.6,9.1-8.6,4.7-12.4c-15.9-13.8-68.3-18.2-81.4-6.8
		C264.3,712.4,258.9,714.2,255.3,713.7z"/>
	<path class="st2" d="M703.1,342.7c-2.2,0.1-4.4,0.3-6.6,0.5C698.7,343.1,700.9,342.9,703.1,342.7z"/>
	<path class="st2" d="M306,681.9c13.4,0.7,24.3,4.7,42.9,15.9c22.6,13.6,25.8,14.6,35,10.6c16.1-7,62.3-9.6,83-4.7
		c5.8,1.4,11.8,2.6,17.8,2.5c0.6,0,1.4-0.2,1.5-0.7c0.1-0.3-0.1-0.6-0.2-0.9c-4.2-8.7-12.8-14.7-17.3-23.2c-0.4-0.8-0.7-1.9,0-2.3
		c0.5-0.3,1.1-0.1,1.6,0.2c3.5,1.8,6.3,4.7,9,7.5c6.8,7.4,13.1,15.4,19.6,23.1c3.3,3.9,6,8.7,10.5,11.1c2.4,1.3,4.9,2.1,7.4,3.2
		c5.6,2.3,10.5,7.9,16.3,9.3c6.5,1.6,16.3-7.3,21.2-10.7c19.9-14,44.6-25.9,69.5-25.1c25.2,0.8,48.9,12.9,69.8,25.4
		c10.6,6.3,21.3,28.2,22.8,46.6c1.1,12.9,4.3,14.2,27.4,10.5c9-1.4,18.8-2.1,21.8-1.6c3.8,0.7,6.7-5,9.4-18.9
		c2.2-11,6.1-23.3,8.8-27.3c4.4-6.8,3.7-6.8-6.8,0.1c-30.1,19.5-72.1,0.3-111.6-51.3c-7.4-9.7-12.3-18.4-11-19.4
		c1.4-1,20.5,11.3,42.4,27.4c23.9,17.5,45.1,30.1,52.8,31.4c14.4,2.3,34.5-1.9,35.4-7.4c1.2-7.2-8.4-17.8-12.2-23.1
		c-20.5-28.3-44-56.7-72.1-77.6c-48.2-35.9-128.3-38.5-165.3,15.9c-11.8,17.3-16.7,39.4-16.1,60.1c0.2,6.3,0.7,13.3-3.3,18.3
		c-0.7,0.8-1.6,1.6-2.6,1.8c-2.8,0.4-4.3-3.1-4.7-5.9c-3.9-25.5-0.6-52,9-75.9c9.1-22.7,25.6-48.3,46.2-62.2
		c19.4-13.1,47.5-10.7,69.6-9.4c21.9,1.3,42.8,10.3,60.7,22.4c17.5,11.8,33,26.7,47.6,42c28.9,30.3,42.3,52.2,49.9,81.4
		c2.9,11.1,6.7,18.8,8.4,17s14-7.8,27.1-13.4c31.3-13.3,63.2-11,93.7,6.6l20.5,11.9l14-9.5c17.9-12.1,59.5-19.5,85.9-15.1
		c25.6,4.2,34.1-1.3,37.9-24.2c3.5-21.4-4.6-33-34.8-49.2c-24.3-13.1-49.5-45.1-67.1-85.3c-10.5-24.1-17.3-28.3-23.3-14.5
		c-3.6,8.2-12.8,14.2-19.3,20c-7.3,6.5-14.7,13-22.4,19c-15.6,12.3-32.5,23.1-51.2,29.9c-12.5,4.5-26.1,9.9-39.4,11.1
		c-34.4,2.9-77.1-14.7-66.2-27.2c1.9-2.2,4.9-2.8,6.6-1.3c9.6,8.3,35.5,11.9,57.7,7.9c35-6.2,71.4-27.4,102.9-59.9
		c22.3-23,40.6-36.8,72.7-55.1c17.4-9.9,38-22.7,45.8-28.5c23.5-17.6,51.2-25.7,85.5-25.2c13.7,0.2,33,5.5,33.9-13.9
		c0.2-3.6-0.8-7.4-3.4-10c-5.9-5.9-10.4-7.1-11.3-16.4c-0.7-7.1,1.5-14.2,0.4-21.3c-1-6.7-6.5-8.5-12.3-10c-11.5-3-13.3-2.2-17.2,8
		c-5,13.4-19.1,24.9-56.5,46.4c-24,13.8-48.8,24.5-76.5,27.8c-26.5,3.2-53.2,0.8-79.7-1.4c-11.4-1-22.7-1.7-34.1-2.3
		c-37.4-1.7-76.9-1.9-112.3,12.1c-26.9,10.6-50.7,30.5-62.7,57.2c-2.1,4.6-8.9,24.2-15.8,23.2c-2.5-0.4-3.3-3.5-3.4-5.9
		c-0.6-12.7,2.9-25.4,8.5-36.8c12.6-25.4,37.4-54.8,65.9-62.3c26.7-7,52-10.5,79.9-11l28.9-0.5l-43.4-12c-57.6-16-99.4-17.6-151-5.9
		c-30.8,7-62.5,15.1-90.7,29.6C528.5,434,493,474.9,460.4,513.2c-10.2,12-21.2,23.4-31.7,35.2c-22.5,25.1-47.1,47-72.7,68.6
		c0,0-21.5,23.9-35.4,24.1c-13.9,0.3-25.2,18.3-25.7,20.2c-0.9,2.9-1.8,5.8-2.8,8.3L288,681L306,681.9z"/>
	<path class="st2" d="M602.6,717.7c-18.4,4.5-34.2,15.8-52.4,21.1c-1.9,0.5-3.8,1.1-5.2,2.4c-2.3,2.2-2.4,6-1.5,9.1
		c1.5,4.9,3.9,9.4,5.1,14.4c1.2,5.2,1.9,10.8,1.7,16.1c-0.1,5.1-1.3,10.7-5.2,14c-4.5,3.8-10.1,7.5-7.2,14.4
		c3.5,8.4,19.1,7.4,26.5,8.2c18.7,2.1,37.8,3.7,56.6,3.1c44.8-1.2,75.5-17.9,79.7-43.3C708.7,728.2,639,708.7,602.6,717.7z"/>
	<path class="st2" d="M509.7,812.7c12.8-9,21.7-22.3,21.4-39c-0.7-29.8-26.1-45.8-83.7-52.6c-32.3-3.8-42.8-3.4-61.7,2.8
		c-27,8.8-51.7,30.8-50.4,44.9c2.7,29.6,62.6,56.3,129.4,57.6C479.6,826.7,496.7,821.9,509.7,812.7z"/>
	<path class="st2" d="M911.9,249.3c1.2-3.6,2.3-6.4,3.3-8.1c0.2-0.3,0.3-0.5,0.5-0.8c-0.2,0.3-0.3,0.5-0.5,0.8
		C914.2,242.9,913.1,245.8,911.9,249.3z"/>
	<path class="st2" d="M337.3,617c-0.4,0.3-0.7,0.5-1.1,0.8C336.6,617.5,336.9,617.2,337.3,617z"/>
	<path class="st2" d="M418.7,526.9c-5.6,7-11.3,13.9-16.9,20.9C407.4,540.8,413.1,533.8,418.7,526.9z"/>
	<path class="st2" d="M921.3,364.5c0.1-0.1,0.1-0.1,0.2-0.2C921.4,364.4,921.4,364.5,921.3,364.5z"/>
	<path class="st2" d="M322.6,625.5c-2.1,0.9-4.2,1.8-6.4,2.5C318.4,627.3,320.5,626.4,322.6,625.5z"/>
	<path class="st2" d="M326.7,623.5c-0.9,0.5-1.7,0.9-2.6,1.3C325,624.4,325.8,623.9,326.7,623.5z"/>
	<path class="st2" d="M678.4,345.5c-3.6,0.6-7.1,1.2-10.7,1.9C671.2,346.8,674.8,346.1,678.4,345.5z"/>
	<path class="st2" d="M452,486.5c-3.6,4.2-7.1,8.4-10.6,12.7C444.9,494.9,448.4,490.7,452,486.5z"/>
	<path class="st2" d="M426.9,516.8c-2.7,3.4-5.5,6.7-8.2,10.1C421.4,523.5,424.1,520.2,426.9,516.8z"/>
	<path class="st2" d="M262.3,657.3c-0.2,0.1-0.4,0.1-0.6,0.2C261.9,657.4,262.1,657.4,262.3,657.3z"/>
	<path class="st2" d="M239.5,661.3c-2.6,0.4-5.2,1-7.8,1.5C234.3,662.3,236.9,661.8,239.5,661.3z"/>
	<path class="st2" d="M120.6,716.1c-0.1,0.1-0.3,0.3-0.4,0.4C120.4,716.4,120.5,716.2,120.6,716.1z"/>
	<path class="st2" d="M208.6,668.9c-1.2,0.4-2.5,0.8-3.7,1.2C206.2,669.7,207.4,669.3,208.6,668.9z"/>
	<path class="st2" d="M300,633.6c-1.2,0.6-2.5,1.2-3.7,1.9C297.5,634.8,298.8,634.2,300,633.6z"/>
	<path class="st2" d="M303.8,631.9c-1.3,0.5-2.5,1.1-3.8,1.7C301.2,633,302.5,632.4,303.8,631.9z"/>
	<path class="st2" d="M271.6,654c-0.2,0.1-0.4,0.2-0.6,0.3C271.2,654.2,271.4,654.1,271.6,654z"/>
	<path class="st2" d="M268.4,655.4c-0.5,0.2-1,0.4-1.4,0.5C267.5,655.7,267.9,655.6,268.4,655.4z"/>
	<path class="st2" d="M996.5,407.5c3-0.8,6.1-1.8,9.5-2.9c4.9-1.6,9.9-3.4,14.7-5.2c-4.8,1.8-9.9,3.6-14.7,5.2
		C1002.5,405.7,999.4,406.7,996.5,407.5z"/>
	<path class="st2" d="M1006.7,548.4c0.2,1,0.4,1.9,0.7,2.9C1007.1,550.3,1006.8,549.4,1006.7,548.4z"/>
	<path class="st2" d="M1036,590.8c1.1,1.3,2.3,2.5,3.5,3.7C1038.3,593.3,1037.1,592.1,1036,590.8z"/>
	<path class="st2" d="M1078.6,626.1c1.2,1.4,2.4,2.9,3.6,4.4C1081,629,1079.8,627.5,1078.6,626.1z"/>
	<path class="st2" d="M1086.8,636.7c0.5,0.7,1,1.3,1.4,2C1087.8,638,1087.3,637.3,1086.8,636.7z"/>
	<path class="st2" d="M984,518.9c0.6,0.8,1.1,1.5,1.5,2.1C985.1,520.4,984.5,519.7,984,518.9z"/>
	<path class="st2" d="M1006,544.6c0.1,0.5,0.2,1.1,0.3,1.6C1006.2,545.7,1006.1,545.2,1006,544.6z"/>
	<path class="st2" d="M997.2,534.1c1.1,1,2.2,1.9,3.4,2.8C999.5,536,998.3,535.1,997.2,534.1z"/>
	<path class="st2" d="M1096.7,676.7c0-0.2,0-0.3,0-0.5C1096.8,676.3,1096.7,676.5,1096.7,676.7z"/>
	<path class="st2" d="M1098,672c-0.1,0.2-0.1,0.4-0.2,0.6C1097.8,672.4,1097.9,672.2,1098,672z"/>
	<path class="st2" d="M980.4,514.2c0.4,0.5,0.7,1,1.1,1.4C981.1,515.1,980.8,514.6,980.4,514.2z"/>
	<path class="st2" d="M1089.6,640.6c0.3,0.4,0.6,0.9,0.9,1.3C1090.2,641.5,1089.9,641,1089.6,640.6z"/>
	<path class="st2" d="M1099.5,667.8c-0.1,0.2-0.1,0.5-0.2,0.7C1099.4,668.3,1099.4,668.1,1099.5,667.8z"/>
	<path class="st2" d="M1100.4,662.7c0,0.8-0.1,1.6-0.2,2.4C1100.3,664.3,1100.4,663.5,1100.4,662.7z"/>
	<path class="st2" d="M1034.3,588.9c-2.8-3.2-5.4-6.4-7.9-9.4c-1.2-1.4-2.4-2.9-3.5-4.3c1.2,1.5,2.3,2.9,3.5,4.3
		C1028.8,582.5,1031.5,585.7,1034.3,588.9z"/>
	<path class="st2" d="M1096.2,650.8c0.4,0.8,0.8,1.5,1.2,2.2C1097.1,652.3,1096.7,651.5,1096.2,650.8z"/>
	<path class="st2" d="M1104.5,438.5c-2.9,0.5-5.8,1.1-8.8,1.8C1098.6,439.6,1101.6,439,1104.5,438.5z"/>
	<path class="st2" d="M1173.3,421.7c-1.3,2.8-2.7,5.6-4.3,8.2C1170.6,427.3,1172,424.5,1173.3,421.7z"/>
	<path class="st2" d="M1181.1,402.9c-0.2,0.8-0.5,1.6-0.8,2.3C1180.6,404.5,1180.9,403.7,1181.1,402.9z"/>
	<path class="st2" d="M1179.4,407.5c-0.2,0.5-0.4,1-0.7,1.5C1179,408.5,1179.2,408,1179.4,407.5z"/>
	<path class="st2" d="M1178.4,389.7c0.7,0.7,1.3,1.5,1.8,2.3C1179.7,391.2,1179.1,390.4,1178.4,389.7z"/>
	<path class="st2" d="M1182,398.4c0,0.7-0.1,1.5-0.2,2.2C1181.8,399.9,1181.9,399.1,1182,398.4z"/>
	<path class="st2" d="M1181.9,397.2c0,0.4,0,0.7,0,1.1C1182,397.9,1182,397.6,1181.9,397.2z"/>
	<path class="st2" d="M1016.6,479.7c-1.8,1.2-3.6,2.4-5.4,3.5C1013,482.1,1014.8,480.9,1016.6,479.7z"/>
	<path class="st2" d="M1003.4,488.3c-1.4,0.9-2.7,1.7-4,2.5C1000.7,490,1002,489.1,1003.4,488.3z"/>
	<path class="st2" d="M1052.3,456.8c-1.5,0.8-3,1.6-4.5,2.5C1049.3,458.4,1050.8,457.6,1052.3,456.8z"/>
	<path class="st2" d="M978.5,511.6c0.3,0.4,0.5,0.7,0.8,1.1C979.1,512.3,978.8,512,978.5,511.6z"/>
	<path class="st2" d="M976.9,509.4c0.4,0.5,0.8,1.1,1.2,1.6C977.7,510.5,977.3,509.9,976.9,509.4z"/>
	<path class="st2" d="M979.4,512.7c0.4,0.5,0.7,1,1.1,1.4C980.1,513.7,979.7,513.2,979.4,512.7z"/>
	<path class="st2" d="M1045.8,460.4c-1.1,0.7-2.2,1.3-3.3,2C1043.6,461.7,1044.7,461,1045.8,460.4z"/>
	<path class="st2" d="M955.1,410.4c-0.9-0.1-1.8-0.1-2.8-0.2C953.3,410.3,954.2,410.3,955.1,410.4z"/>
	<path class="st2" d="M962.1,410.9c-0.8,0-1.7-0.1-2.5-0.1C960.4,410.8,961.3,410.8,962.1,410.9z"/>
	<path class="st2" d="M982.9,410.3c-1.1,0.1-2.3,0.3-3.4,0.4C980.6,410.6,981.8,410.4,982.9,410.3z"/>
	<path class="st2" d="M929.8,407.9c-0.2,0-0.3,0-0.5-0.1C929.4,407.9,929.6,407.9,929.8,407.9z"/>
	<path class="st2" d="M1055.3,384c-1.6,0.7-3.2,1.5-4.9,2.3C1052,385.5,1053.7,384.7,1055.3,384z"/>
	<path class="st2" d="M1027,397c-2,0.8-4.2,1.6-6.3,2.4C1022.9,398.6,1025,397.8,1027,397z"/>
	<path class="st2" d="M923.9,407.2c-0.7-0.1-1.4-0.2-2-0.3C922.5,407,923.2,407.1,923.9,407.2z"/>
	<path class="st2" d="M1030.5,395.6c-0.8,0.3-1.5,0.6-2.3,0.9C1029,396.2,1029.8,395.9,1030.5,395.6z"/>
	<path class="st2" d="M921.9,406.9c-2.9-0.4-5.5-0.8-7.8-1.3C916.3,406.1,918.9,406.5,921.9,406.9z"/>
	<path class="st2" d="M908.7,372.3c-7.4-1.2-7.5-1.1,5-20.4c12.1-18.8,33.8-35.5,57.2-44c16.3-6,22.4-13.4,25.4-31.2
		c1.1-6.3-0.8-9.4-6.4-10.3c-4.3-0.7-11-7.4-14.8-14.8c-8.6-16.8-25.8-21.1-36.3-9c-3.9,4.4-10.2,20.3-14,35.3
		c-3.8,15.2-12.1,34.7-18.6,44.2c-10.7,15.5-40.8,45.8-49.9,50.2c-2,1,7.6,6.9,21.3,13.2c8.5,3.8,15.9,8,20.2,11.1
		c6.4-10.1,12.7-20.3,16.3-26C912.1,371.9,910.1,372.5,908.7,372.3z"/>
	<path class="st2" d="M901.5,399.8L901.5,399.8L901.5,399.8z"/>
	<path class="st2" d="M901.9,400.3L901.9,400.3L901.9,400.3z"/>
	<path class="st2" d="M902,400.7L902,400.7L902,400.7z"/>
	<path class="st2" d="M1107.4,438c5.8-0.9,11.5-1.5,17.1-1.6c4.1-0.1,8.2-0.2,12.3-0.4c-4.1,0.1-8.2,0.3-12.3,0.4
		C1118.9,436.6,1113.2,437.1,1107.4,438z"/>
	<path class="st2" d="M920.4,365.5l0.1-0.1C920.5,365.4,920.5,365.5,920.4,365.5z"/>
	<path class="st2" d="M1060.2,381.7c-0.4,0.2-0.7,0.3-1.1,0.5C1059.5,382.1,1059.8,381.9,1060.2,381.7z"/>
	<path class="st2" d="M1006,544.6c-0.1-0.5-0.2-0.9-0.3-1.4c0-0.1,0-0.1-0.1-0.2c0,0.1,0,0.1,0.1,0.2
		C1005.8,543.7,1005.9,544.2,1006,544.6z"/>
	<path class="st2" d="M1149.1,435.6c-4.1,0.2-8.2,0.3-12.3,0.5C1140.9,435.9,1145,435.8,1149.1,435.6c2.3-0.1,4.9,0.2,7.5,0.3
		C1154.1,435.8,1151.5,435.5,1149.1,435.6z"/>
	<path class="st2" d="M996.9,533.7c-3.9-3.5-7.3-7.5-10.5-11.6c-0.2-0.2-0.5-0.6-0.9-1.2c0.4,0.6,0.7,1,0.9,1.2
		C989.5,526.3,993,530.2,996.9,533.7z"/>
	<path class="st2" d="M974.1,506.1L974.1,506.1l19.9-12c1.1-0.7,2.3-1.4,3.5-2.2c-1.2,0.8-2.4,1.5-3.5,2.2L974.1,506.1z"/>
	<path class="st2" d="M1016.6,479.7c6.3-4.1,12.3-8.2,17.1-11.6c2.2-1.5,4.4-3,6.7-4.5c-2.3,1.5-4.5,2.9-6.7,4.5
		C1029,471.5,1022.9,475.6,1016.6,479.7z"/>
	<path class="st2" d="M1163.8,435c1.4-0.6,2.6-1.5,3.6-2.9C1166.4,433.5,1165.1,434.4,1163.8,435z"/>
	<path class="st3" d="M1102.3,681.4c-3.8-1-5.4-2.1-5.5-4.2c0-0.2,0-0.3,0-0.5s0-0.3,0-0.5c0.1-1,0.5-2.2,1-3.6
		c0.1-0.2,0.1-0.4,0.2-0.6c0.3-0.7,0.5-1.5,0.9-2.3c0.2-0.4,0.3-0.8,0.4-1.2c0.1-0.2,0.2-0.5,0.2-0.7c0.3-0.9,0.5-1.8,0.7-2.7
		c0.1-0.8,0.2-1.6,0.2-2.4c0-2.6-0.8-5.3-2.4-8.7c-0.2-0.3-0.3-0.7-0.5-1c-0.4-0.7-0.8-1.4-1.2-2.2c-1.1-1.9-2.5-4.1-4.1-6.5
		c-0.5-0.8-1.1-1.6-1.6-2.4c-0.3-0.4-0.6-0.9-0.9-1.3c-0.4-0.6-0.9-1.3-1.4-2c-0.5-0.6-0.9-1.3-1.4-2c-0.1-0.2-0.2-0.3-0.4-0.5
		c-1.4-1.9-2.8-3.8-4.3-5.6c-1.2-1.5-2.4-3-3.6-4.4c-3.4-3.9-6.8-7.5-10.2-10.5c-4.7-4.2-9.2-7.4-13.1-9.3c-5.7-2.6-11-7-15.8-11.9
		c-1.2-1.2-2.4-2.5-3.5-3.7c-0.6-0.6-1.1-1.3-1.7-1.9c-2.8-3.2-5.4-6.4-7.9-9.4c-1.2-1.4-2.4-2.9-3.5-4.3c-3.5-4.4-6.8-8.8-9.8-13.5
		c-1.6-2.5-3.2-5-4.5-7.7c-0.5-0.9-0.8-1.8-1.1-2.7c-0.3-1-0.5-1.9-0.7-2.9c-0.1-0.7-0.3-1.5-0.4-2.2c-0.1-0.5-0.2-1.1-0.3-1.6
		s-0.2-0.9-0.3-1.4c0-0.1,0-0.1-0.1-0.2c-0.6-2.4-2.6-4.2-4.6-5.8c-0.1-0.1-0.3-0.2-0.4-0.3c-1.2-0.9-2.3-1.8-3.4-2.8
		c-0.1-0.1-0.3-0.2-0.4-0.3c-3.9-3.5-7.3-7.5-10.5-11.6c-0.2-0.2-0.5-0.6-0.9-1.2s-0.9-1.3-1.5-2.1c-0.7-1-1.6-2.1-2.5-3.3
		c-0.4-0.5-0.7-1-1.1-1.4s-0.7-1-1.1-1.4c-0.3-0.4-0.6-0.7-0.8-1.1c-0.1-0.2-0.3-0.4-0.4-0.6c-0.4-0.6-0.8-1.1-1.2-1.6
		c-0.2-0.2-0.3-0.4-0.4-0.6c-0.3-0.4-0.6-0.7-0.8-1s-0.5-0.6-0.7-0.8c-0.5-0.6-0.8-0.9-0.8-0.9l0,0l19.9-12c1.1-0.7,2.3-1.4,3.5-2.2
		c0.6-0.4,1.2-0.7,1.8-1.1c1.3-0.8,2.6-1.6,4-2.5c2.5-1.6,5.2-3.3,7.9-5.1c1.8-1.2,3.6-2.3,5.4-3.5c6.3-4.1,12.3-8.2,17.1-11.6
		c2.2-1.5,4.4-3,6.7-4.5c0.7-0.4,1.4-0.9,2-1.3c1.1-0.7,2.2-1.3,3.3-2c0.7-0.4,1.3-0.8,2-1.1c1.5-0.8,3-1.7,4.5-2.5
		c0.9-0.5,1.9-1,2.8-1.4c1.9-0.9,3.7-1.9,5.6-2.8c4.7-2.2,9.6-4.2,14.4-6c3.9-1.4,7.8-2.7,11.7-3.9c2.9-0.9,5.9-1.6,8.8-2.3
		s5.9-1.3,8.8-1.8c1-0.2,1.9-0.3,2.9-0.5c5.8-0.9,11.5-1.5,17.1-1.6c4.1-0.1,8.2-0.2,12.3-0.4c4.1-0.1,8.2-0.3,12.3-0.5
		c2.3-0.1,4.9,0.2,7.5,0.3c2.5,0.1,5,0,7.1-0.9c1.4-0.6,2.6-1.5,3.6-2.9c0-0.1,0.1-0.1,0.1-0.2c0.5-0.7,1-1.4,1.4-2.1
		c1.7-2.6,3.1-5.4,4.3-8.2c1.2-2.5,2.2-5.1,3.2-7.7c0.3-0.7,0.6-1.3,0.9-2c0.2-0.4,0.3-0.7,0.5-1.1c0.3-0.6,0.6-1.2,0.9-1.9
		c0.2-0.5,0.4-1,0.7-1.5c0.3-0.8,0.7-1.5,0.9-2.3s0.6-1.5,0.8-2.3c0.2-0.8,0.4-1.6,0.6-2.3c0.1-0.7,0.2-1.5,0.2-2.2v-0.1
		c0-0.4,0-0.8,0-1.1c0-0.4-0.1-0.7-0.1-1.1c-0.3-1.5-0.8-2.8-1.6-4.1c-0.5-0.8-1.1-1.6-1.8-2.3c-3.7-4-9.5-6.9-12.6-10.9
		c-0.9-1.2-1.6-2.4-2.1-3.6s-0.8-2.5-0.9-3.9c0-0.3-0.1-0.7-0.1-1c0-0.7,0-1.3,0-2c0-1.7,0.3-3.4,0.5-5.2c0.3-1.7,0.5-3.3,0.6-4.9
		c0.1-1,0.1-2,0.1-3c0-0.5,0-1,0-1.4c0-0.9-0.1-1.8-0.2-2.6c-0.1-0.9-0.2-1.8-0.4-2.7c-0.2-0.8-0.4-1.6-0.7-2.4
		c-0.3-0.8-0.6-1.5-0.9-2.2c-0.7-1.4-1.5-2.8-2.5-4c-0.7-0.9-1.6-1.8-2.5-2.7c-0.3-0.3-0.6-0.6-1-0.8c-1.7-1.4-3.6-2.6-5.8-3.7
		s-4.7-2.1-7.4-3.1c-5.6-1.9-9.5-2.8-12.9-2.7c-0.6,0-1.2,0.1-1.8,0.2c-0.5,0.1-1.1,0.2-1.6,0.4c-0.7,0.2-1.3,0.4-2,0.7
		c-0.1,0-0.2,0.1-0.3,0.1l0,0c-0.6,0.3-1.2,0.6-1.8,0.9c-1.7,0.9-3.4,2.2-5.4,3.7c-0.2,0.2-0.4,0.3-0.6,0.4s-0.4,0.3-0.6,0.5
		c-1.3,1.1-2.7,2.2-3.9,3.4l0,0c-0.7,0.7-1.5,1.5-2.1,2.2c-0.9,1-1.8,2-2.5,3c-0.5,0.7-1,1.4-1.4,2c-0.5,0.7-0.9,1.4-1.2,2.1
		c-0.1,0.2-0.2,0.4-0.3,0.6c-0.2,0.5-0.4,1-0.4,1.5c-0.2,1.1-0.9,2.5-2.2,4.1c-0.4,0.5-0.8,1-1.3,1.6c-0.6,0.7-1.3,1.4-2,2.2
		c-0.3,0.3-0.7,0.7-1.1,1.1c-0.8,0.8-1.7,1.6-2.7,2.4c-1.6,1.4-3.3,2.8-5.1,4.2c-1.2,0.9-2.5,1.9-3.8,2.8c-4,2.8-8.3,5.6-12.6,8.1
		c-3.7,2.1-7.5,4-11,5.6c-0.6,0.2-1.2,0.5-1.8,0.8c-0.4,0.2-0.7,0.3-1.1,0.5c-1.2,0.5-2.5,1.1-3.8,1.8c-1.6,0.7-3.2,1.5-4.9,2.3
		c-3.2,1.6-6.3,3.1-8.7,4.4c-2.2,1.2-6.2,2.9-11.1,4.9c-0.8,0.3-1.5,0.6-2.3,0.9c-0.4,0.2-0.8,0.3-1.2,0.5c-2,0.8-4.2,1.6-6.3,2.4
		c-4.8,1.8-9.9,3.6-14.7,5.2c-3.4,1.1-6.5,2.1-9.5,2.9c-3.5,1-6.9,1.7-10.2,2.3c-1.1,0.2-2.2,0.4-3.4,0.5s-2.3,0.3-3.4,0.4
		c-0.6,0.1-1.2,0.1-1.7,0.1c-1.2,0.1-2.4,0.1-3.6,0.2c-0.6,0-1.2,0-1.9,0c-3.1,0.1-6.5,0-10.2-0.2c-0.8,0-1.7-0.1-2.5-0.1
		c-1.5-0.1-3-0.2-4.5-0.3c-0.9-0.1-1.8-0.1-2.8-0.2c-2.6-0.2-5.3-0.5-8.2-0.7c-1.1-0.1-2.2-0.2-3.3-0.3c-0.9-0.1-1.8-0.2-2.7-0.3
		c-3-0.3-5.8-0.6-8.4-0.9c-0.2,0-0.3,0-0.5-0.1c-1.9-0.2-3.7-0.5-5.4-0.7c-0.7-0.1-1.4-0.2-2-0.3c-2.9-0.4-5.5-0.8-7.8-1.3
		c-1.4-0.3-2.6-0.5-3.8-0.8c-0.4-0.1-0.7-0.2-1.1-0.3c-0.7-0.2-1.4-0.3-2-0.5c-0.3-0.1-0.6-0.2-0.9-0.3c-1.4-0.4-2.4-0.9-3.1-1.3
		c-0.3-0.2-0.5-0.3-0.7-0.5c-0.3-0.3-0.4-0.5-0.5-0.8c0-0.1,0-0.2,0-0.3c0-0.1,0-0.2,0-0.3V400c0-0.1-0.1-0.2-0.2-0.4l0,0
		c-0.1-0.1-0.2-0.3-0.3-0.5l0,0c-0.7-0.9-1.9-1.9-3.6-3.2c-4.4-3.1-11.8-7.3-20.2-11.1c-13.8-6.3-23.4-12.2-21.3-13.2
		c9.1-4.4,39.2-34.7,49.9-50.2c6.6-9.5,14.8-29.1,18.6-44.2c3.8-14.9,10.1-30.8,14-35.3c10.6-12,27.7-7.8,36.3,9
		c3.8,7.4,10.5,14,14.8,14.8c5.5,0.9,7.4,4,6.4,10.3c-3,17.8-9.1,25.3-25.4,31.2c-23.4,8.5-45,25.2-57.2,44
		c-12.5,19.4-12.5,19.2-5,20.4c1.4,0.2,3.4-0.4,5.5-1.7c2-1.2,4.2-3,6.2-5.1l0.1-0.1c0.3-0.3,0.5-0.6,0.8-0.9
		c0.1-0.1,0.1-0.1,0.2-0.2c0.3-0.4,0.6-0.7,0.9-1.1c1.5-1.9,3.1-3.8,4.9-5.6c1.3-1.3,2.6-2.6,4-3.9c2.9-2.7,6.1-5.2,9.6-7.5
		c1.6-1,3.1-2.1,4.8-3c3.5-2.1,7.2-4,11.2-5.7c3.9-1.7,8.1-3.3,12.4-4.7c2.9-0.9,5.8-1.7,8.9-2.5c1.5-0.4,2.9-0.7,4.3-1.1
		c1.1-0.3,2.2-0.6,3.3-0.9c0.3-0.1,0.6-0.2,1-0.3c0.9-0.3,1.7-0.6,2.5-0.8c0.3-0.1,0.6-0.2,0.8-0.3c4.3-1.6,7.5-3.5,10.2-6.3
		c0.3-0.4,0.7-0.7,1-1.1c1.2-1.5,2.3-3.2,3.4-5.2c0.3-0.5,0.5-1.1,0.8-1.6c0.4-0.9,0.8-1.8,1.2-2.7c0.3-0.8,0.6-1.6,0.9-2.5
		c0.3-0.9,0.6-1.8,1-2.8c0.2-0.5,0.3-1,0.5-1.5c0.3-1.1,0.7-2.2,1-3.4c1.3-4.5,2.7-9.7,4.4-15.9l0.1-0.2l5.4-20.8l0,0l-11.8-7.6
		l-4.2-2.7c-2.2-1.4-4.5-3-6.7-4.8c-1.7-1.3-3.3-2.6-4.9-4c-1.6-1.4-3.1-2.7-4.4-4.1c-0.9-0.9-1.8-1.8-2.5-2.6
		c-0.4-0.4-0.8-0.8-1.1-1.2c-1.1-1.2-1.9-2.4-2.6-3.4c-0.8-1.2-1.7-2.4-2.7-3.4c0,0,0,0-0.1-0.1c-0.9-0.9-1.8-1.7-2.8-2.5
		c-1.6-1.2-3.3-2.2-5.1-3c-0.6-0.3-1.1-0.5-1.7-0.7c-1.1-0.4-2.3-0.8-3.5-1.1c-2.2-0.6-4.6-1-7-1.2c-0.8-0.1-1.6-0.1-2.4-0.1
		c-1.6,0-3.3,0-4.9,0.1c-1.7,0.1-3.3,0.3-5,0.6c-5,0.9-9.9,2.5-14.4,4.9c-0.8,0.4-1.5,0.8-2.2,1.2c-1,0.6-2,1.3-3,2
		c-2.8,2-5.3,4.2-7.5,6.8c-0.2,0.3-0.5,0.5-0.7,0.8s-0.4,0.5-0.6,0.8c-0.7,0.9-1.4,1.9-2,2.9c-0.2,0.3-0.3,0.5-0.5,0.8
		c-1,1.7-2.1,4.5-3.3,8.1c-0.5,1.4-0.9,3-1.4,4.6c-0.7,2.5-1.4,5.1-2,7.9c-1.3,5.6-2.5,11.6-3.4,17.4c-0.9,5.6-1.6,10.2-2.4,14.2
		c-0.5,2.2-1,4.3-1.5,6.1c-0.8,2.8-1.8,5.3-3,7.7c-0.6,1.2-1.3,2.4-2,3.5c-1.7,2.7-3.9,5.5-6.6,8.7c-1.9,2.3-4.2,4.7-6.8,7.6
		c-3.7,4.1-8.1,8.3-12.5,12.4c-0.8,0.8-1.7,1.5-2.5,2.2c-6.5,5.8-12.9,10.7-17.2,13.2c-3.8,2.2-7.7,3.7-11.7,4.7
		c-1.8,0.5-3.7,0.8-5.6,1.1c-1.7,0.2-3.4,0.4-5.1,0.5c-1.7,0.1-3.5,0.1-5.2,0.1c-8.7-0.2-17.6-2-26.3-4.3c-3.5-0.9-6.9-1.9-10.3-2.9
		c-2.6-0.8-5.1-1.5-7.6-2.3c-3.3-1-6.6-2-9.8-2.8c-9.9-2.7-20.1-4.5-30.5-5.5c-4.6-0.4-9.3-0.7-14-0.9c-2.3-0.1-4.7-0.1-7-0.1
		c-3.5,0-7.1,0.1-10.6,0.3c-1.3,0.1-2.5,0.1-3.8,0.2c-2.2,0.1-4.4,0.3-6.6,0.5c-1.3,0.1-2.6,0.2-3.9,0.4c-4.8,0.5-9.5,1.1-14.3,1.9
		c-3.6,0.6-7.1,1.2-10.7,1.9c-41.5,8.3-82.1,25.6-114.7,46.5c-22.3,14.3-42.7,31.3-61.6,49.9c-3.8,3.7-7.5,7.5-11.2,11.3
		c-5.5,5.7-10.9,11.6-16.1,17.5c-1.8,2-3.5,4-5.2,6c-2.3,2.6-4.5,5.2-6.7,7.8c-3.6,4.2-7.1,8.4-10.6,12.7
		c-4.9,5.9-9.7,11.7-14.5,17.6c-2.7,3.4-5.5,6.7-8.2,10.1c-5.6,7-11.3,13.9-16.9,20.9c-1.9,2.3-3.8,4.6-5.7,6.9
		c-3.8,4.6-7.6,9.2-11.4,13.8c-1.9,2.3-3.8,4.6-5.8,6.9c-3.9,4.6-7.7,9.1-11.7,13.6c-2.2,2.5-4.6,5.2-7.1,7.8c-0.5,0.5-1,1-1.5,1.6
		c-6.4,6.6-13.7,13.2-21.4,18.7c-0.4,0.3-0.7,0.5-1.1,0.8c-1.4,1-2.8,1.9-4.3,2.8c-0.5,0.3-1,0.6-1.5,0.9c-1.2,0.7-2.5,1.4-3.7,2.1
		c-0.9,0.5-1.7,0.9-2.6,1.3c-0.5,0.2-1,0.5-1.5,0.7c-2.1,0.9-4.2,1.8-6.4,2.5c-1.1,0.4-2.1,0.7-3.2,1c-0.5,0.1-1,0.3-1.5,0.4
		c-2.6,0.7-5.2,1.6-7.7,2.6c-1.3,0.5-2.5,1.1-3.8,1.7s-2.5,1.2-3.7,1.9c-2.4,1.4-4.7,2.9-6.9,4.5c-2.2,1.7-4.2,3.5-6.1,5.4
		c-2.8,2.9-5.7,5.3-9.1,7.2c-0.3,0.2-0.6,0.3-0.9,0.5c-0.5,0.3-1.1,0.6-1.7,0.8c-0.2,0.1-0.4,0.2-0.6,0.3c-0.8,0.4-1.7,0.7-2.6,1.1
		c-0.5,0.2-1,0.4-1.4,0.5c-0.8,0.3-1.6,0.5-2.4,0.8c-0.7,0.2-1.5,0.4-2.3,0.6c-0.2,0.1-0.4,0.1-0.6,0.2c-1.2,0.3-2.5,0.6-3.9,0.9
		c-1,0.2-2,0.4-3.1,0.6c-1.1,0.2-2.1,0.4-3.3,0.6c-1.7,0.3-3.5,0.5-5.4,0.8c-2.2,0.3-4.4,0.6-6.7,1c-2.6,0.4-5.2,1-7.8,1.5
		c-7.7,1.6-15.4,3.7-23.1,6.1c-1.2,0.4-2.5,0.8-3.7,1.2c-8.1,2.7-16.1,5.8-23.9,9.3c-4.2,1.8-8.3,3.8-12.3,5.8
		c-8.1,4.1-16,8.5-23.6,13.2c-8.4,5.2-17,11-24.5,17.7c-0.1,0.1-0.3,0.3-0.4,0.4c-1,0.9-1.9,1.8-2.9,2.7c-1.6,1.6-3.2,3.2-4.7,4.8
		c-0.7,0.7-1.3,1.5-2,2.3c-4.1,4.9-6.7,10.4-8.2,16.1c-0.3,1.1-0.5,2.1-0.7,3.2c-0.2,1.3-0.4,2.6-0.5,4c-0.1,0.9-0.1,1.7-0.2,2.6
		c-0.1,3.1,0,6.2,0.4,9.3c0.1,0.8,0.2,1.6,0.3,2.3c0.7,3.9,1.7,7.7,3,11.5c0.3,0.7,0.5,1.5,0.8,2.2c2.3,5.9,5.3,11.4,8.8,16.4
		c0.3,0.4,0.6,0.9,0.9,1.3c0.2,0.2,0.3,0.5,0.5,0.7c1.5,2,3.2,4,4.9,5.8c7.9,8.5,17.8,15.5,28.9,21.4c1.4,0.7,2.7,1.4,4.1,2.1
		c16.7,8.3,35.5,14.3,53.7,19.3c1.5,0.4,3,0.8,4.5,1.2c12,3.3,23.6,6.1,33.9,9c11,3.1,22.1,5.9,33.2,8.5c7.5,1.8,15,3.4,22.5,5
		c2.7,0.6,5.4,1.1,8,1.6c3.2,0.6,6.4,1.3,9.6,1.9c12.5,2.4,25.1,4.5,37.7,6.5c0.8,0.1,1.6,0.2,2.4,0.4c10.2,1.6,20.3,3,30.5,4.3
		c8.5,1.1,17,2.2,25.5,3.1c2.7,0.3,5.4,0.6,8.2,0.9c3,0.3,6,0.7,9,1c4.9,0.5,9.8,1,14.7,1.5c19.3,1.9,38.7,3.6,57.9,5.1
		c57.6,4.6,115.4,6.9,173.2,6.9c5.8,0,11.6,0,17.3-0.1c5.8,0,11.6-0.1,17.3-0.2c17.6-0.3,35.2-0.8,52.8-1.5
		c5.5-0.2,11.1-0.5,16.6-0.7c15.4-0.7,30.8-1.6,46.1-2.7c3.6-0.3,7.2-0.5,10.8-0.8c9.1-0.7,18.2-1.5,27.3-2.4
		c3.1-0.3,6.2-0.6,9.3-0.9c6.2-0.6,12.4-1.3,18.7-2.1c3.1-0.4,6.2-0.7,9.3-1.1c59-7.4,117.3-18.8,174.1-36.7
		c8.1-2.5,17.3-5.9,26.7-10.1c1.6-0.7,3.2-1.4,4.8-2.2c4-1.9,8-3.9,12-6c1.6-0.9,3.2-1.7,4.8-2.6c4-2.2,8-4.6,11.8-7.1
		c0.8-0.5,1.5-1,2.3-1.5c2.3-1.5,4.6-3.1,6.8-4.7c0.7-0.5,1.5-1.1,2.2-1.6c1.5-1.1,2.9-2.2,4.3-3.4c2.1-1.7,4.2-3.5,6.2-5.3
		c1.3-1.2,2.6-2.4,3.8-3.6l0.1-0.1c1.9-1.9,3.7-3.8,5.5-5.7c1.2-1.3,2.3-2.6,3.4-4c0.5-0.7,1.1-1.3,1.6-2c1-1.4,2-2.7,3-4.1
		c2.4-3.5,4.5-7.1,6.2-10.8c4.6-9.7,6.8-20.2,5.9-31.4c-0.4-4.7-2.1-9.7-4.9-14.6c-1.5-2.6-3.3-5.3-5.3-7.9
		c-1.1-1.4-2.2-2.7-3.4-4.1c-0.8-0.9-1.7-1.8-2.5-2.7c-5.9-6.1-13.1-11.8-21-16.8c-1.4-0.9-2.9-1.8-4.4-2.7
		c-2.2-1.2-4.4-2.4-6.6-3.6c-2.2-1.1-4.5-2.2-6.8-3.2s-4.6-1.9-7-2.8c-5.9-2.1-11.8-3.8-17.8-4.8
		C1106.7,682.3,1104.2,681.9,1102.3,681.4z M292.4,669.3c0.9-2.5,1.9-5.4,2.8-8.3c0.5-1.9,11.8-19.9,25.7-20.2
		c13.9-0.3,35.4-24.1,35.4-24.1c25.6-21.6,50.2-43.5,72.7-68.6c10.5-11.8,21.5-23.2,31.7-35.2c32.6-38.3,68.1-79.2,113.5-102.6
		c28.2-14.5,59.9-22.6,90.7-29.6c51.6-11.7,93.4-10,151,5.9l43.4,12l-28.9,0.5c-28,0.5-53.2,4-79.9,11
		c-28.5,7.5-53.3,36.9-65.9,62.3c-5.6,11.4-9.1,24.1-8.5,36.8c0.1,2.5,0.9,5.6,3.4,5.9c6.9,1,13.7-18.6,15.8-23.2
		c12-26.6,35.8-46.6,62.7-57.2c35.4-14,74.9-13.7,112.3-12.1c11.4,0.5,22.8,1.3,34.1,2.3c26.5,2.2,53.2,4.6,79.7,1.4
		c27.7-3.3,52.5-14,76.5-27.8c37.5-21.5,51.5-33.1,56.5-46.4c3.8-10.2,5.7-11.1,17.2-8c5.8,1.5,11.3,3.3,12.3,10
		c1.1,7.1-1.1,14.2-0.4,21.3c0.9,9.3,5.4,10.5,11.3,16.4c2.6,2.6,3.5,6.4,3.4,10c-0.9,19.4-20.2,14.1-33.9,13.9
		c-34.3-0.5-62,7.7-85.5,25.2c-7.7,5.8-28.3,18.6-45.8,28.5c-32.2,18.3-50.4,32.1-72.7,55.1c-31.5,32.5-67.9,53.6-102.9,59.9
		c-22.2,3.9-48.1,0.4-57.7-7.9c-1.7-1.5-4.7-0.9-6.6,1.3C744.9,590.4,787.6,608,822,605c13.4-1.1,26.9-6.5,39.4-11.1
		c18.7-6.8,35.6-17.6,51.2-29.9c7.7-6.1,15.1-12.5,22.4-19c6.5-5.9,15.8-11.8,19.3-20c6-13.8,12.7-9.5,23.3,14.5
		c17.6,40.2,42.8,72.2,67.1,85.3c30.1,16.2,38.3,27.7,34.8,49.2c-3.8,22.9-12.3,28.4-37.9,24.2c-26.4-4.3-68,3-85.9,15.1l-14,9.5
		L921.1,711c-30.4-17.7-62.4-19.9-93.7-6.6c-13.2,5.6-25.4,11.7-27.1,13.4c-1.7,1.8-5.5-5.9-8.4-17c-7.6-29.2-21-51.2-49.9-81.4
		c-14.5-15.3-30-30.1-47.6-42c-18-12.1-38.9-21.1-60.7-22.4c-22.1-1.3-50.2-3.7-69.6,9.4c-20.6,13.9-37.1,39.5-46.2,62.2
		c-9.6,23.9-12.9,50.4-9,75.9c0.4,2.8,1.9,6.3,4.7,5.9c1.1-0.2,1.9-1,2.6-1.8c4-4.9,3.5-11.9,3.3-18.3c-0.6-20.8,4.3-42.8,16.1-60.1
		c37-54.5,117.1-51.8,165.3-15.9c28.2,21,51.7,49.4,72.1,77.6c3.8,5.2,13.4,15.8,12.2,23.1c-0.9,5.6-21.1,9.8-35.4,7.4
		c-7.7-1.3-28.9-13.8-52.8-31.4c-22-16.1-41-28.4-42.4-27.4s3.5,9.7,11,19.4c39.5,51.5,81.6,70.8,111.6,51.3
		c10.5-6.8,11.1-6.8,6.8-0.1c-2.6,4.1-6.6,16.4-8.8,27.3c-2.8,13.9-5.6,19.6-9.4,18.9c-3-0.6-12.8,0.1-21.8,1.6
		c-23.1,3.6-26.4,2.4-27.4-10.5c-1.5-18.4-12.2-40.3-22.8-46.6c-21-12.5-44.6-24.6-69.8-25.4c-24.8-0.8-49.5,11.1-69.5,25.1
		c-4.9,3.4-14.7,12.3-21.2,10.7c-5.7-1.4-10.7-7-16.3-9.3c-2.5-1-5-1.9-7.4-3.2c-4.5-2.5-7.2-7.3-10.5-11.1
		c-6.5-7.7-12.7-15.6-19.6-23.1c-2.7-2.9-5.5-5.8-9-7.5c-0.5-0.3-1.1-0.5-1.6-0.2c-0.7,0.5-0.5,1.6,0,2.3
		c4.6,8.5,13.1,14.5,17.3,23.2c0.1,0.3,0.3,0.6,0.2,0.9c-0.1,0.6-0.9,0.7-1.5,0.7c-6,0.1-12-1.1-17.8-2.5c-20.7-4.9-67-2.2-83,4.7
		c-9.2,4-12.4,3.1-35-10.6c-18.6-11.2-29.4-15.2-42.9-15.9l-18-0.9L292.4,669.3z M796.1,791.5c-31-24.1-12.5-55.7,41-69.8
		c36.3-9.6,58-7.5,80.1,7.8c16.9,11.7,22,20.6,19.9,34.7c-1.9,12.5-19.1,23.7-55.7,36c-18.8,6.3-28.3,7-49.3,3.4
		C817,801.1,801.9,796,796.1,791.5z M953.9,762.9c1.5-9,1.1-17.8-0.9-19.5c-6.2-5.4-3.3-8.4,16.3-16.7c20.5-8.7,63.4-13.3,87.8-9.4
		c8.3,1.3,21.2,6.2,28.6,10.8c12.8,8,13.2,9.1,8.6,23c-5.6,17.1-26.6,31.6-49.4,34.1c-8.1,0.9-32.5-0.1-54.2-2.2l-39.5-3.8
		L953.9,762.9z M621,820.6c-18.8,0.5-37.9-1-56.6-3.1c-7.4-0.8-23.1,0.2-26.5-8.2c-2.8-6.9,2.7-10.7,7.2-14.4
		c3.9-3.3,5.1-8.9,5.2-14c0.1-5.3-0.5-10.9-1.7-16.1c-1.2-5-3.6-9.5-5.1-14.4c-0.9-3.1-0.9-6.9,1.5-9.1c1.4-1.3,3.3-1.9,5.2-2.4
		c18.2-5.3,34-16.6,52.4-21.1c36.4-9,106.2,10.4,98.1,59.6C696.5,802.8,665.9,819.4,621,820.6z M464.7,826.4
		c-66.8-1.3-126.8-28-129.4-57.6c-1.3-14.2,23.4-36.2,50.4-44.9c19-6.2,29.4-6.6,61.7-2.8c57.6,6.9,83,22.8,83.7,52.6
		c0.4,16.7-8.6,29.9-21.4,39C496.7,821.9,479.6,826.7,464.7,826.4z M348.8,716.5c4.4,3.8,3.7,5.8-4.7,12.4
		c-13.8,10.9-23.3,42.1-17,56.2c4.6,10.3,4.3,10.7-5.6,11.1c-28.3,1.2-41.4-1.4-67.7-13.5c-20.5-9.4-38.9-35.6-33.2-47.1
		c5-10.2,25.6-23.2,34.7-21.9c3.6,0.5,9.1-1.3,12.2-4C280.5,698.3,332.9,702.7,348.8,716.5z M1172,742c5.8,12.1-9.2,39.5-30.4,55.4
		c-23.6,17.7-53.8,27.1-81.7,35.4c-43.5,12.9-87.9,22.4-132.6,29.7C832.9,878,737.2,885,641.6,883.4c-61.8-1-122.8-6.5-183.9-14.3
		c-91.2-11.7-185.8-25-272.7-57.3c-20.9-7.8-66.5-21.2-61.4-51.1c7.5-43.9,59.3-59.8,95.6-71.4c33.6-10.8,51.7-14.6,56.4-11.8
		c5.5,3.2,1.5,5.7-19,12.1c-35.2,11-51.1,23.8-54.4,44c-2.2,13.6-0.3,19,14.2,39.1c26,36.2,60.8,48.2,114.8,39.7
		c13.3-2.1,17.6-0.8,34.5,10c37.4,24.1,114.2,28.7,145.2,8.7c17.3-11.2,17.4-11.2,33-2.6c19.3,10.6,59.4,14.3,95.6,9
		c35.7-5.3,43.7-8.4,55.2-21.6c7.8-8.9,14-11.6,26.9-11.7c9.2,0,25.2-2.3,35.5-5c18.1-4.7,19.1-4.5,28.5,4.1
		c7.5,6.8,17.9,10.3,44.3,14.6c32.3,5.3,36.8,5,68.8-5.1c18.8-5.9,36.2-12.9,38.6-15.7c3.3-3.8,10.5-3.3,30.5,2
		c33.5,8.8,71.6,6.8,102.6-9.6c26.6-14.1,54-49.1,22.8-74c-27.2-21.8-12.9-27.7,25.2-10.5C1144,716.6,1167.6,732.9,1172,742z"/>
</g>
</svg>
