<svg width="100px" id="Layer_1" data-name="Layer 1" xmlns="http://www.w3.org/2000/svg" viewBox="0 0 757.706 627.986"><defs><style>.cls-1{fill:#fff;}</style></defs><title>logo-simple</title><path class="cls-1" d="M423.732,277.549c-15.988-11.526-35.942-16.458-55.861-15.595-25.4,1.1-50.735,11.619-67.726,29.9-8.069,8.683-12.592,20.422-3.473,30.181q27.2,29.112,54.246,58.349,18.222,19.748,36.326,39.609,11.892-8.321,23.855-16.545c11.511-8.41,24.3-18.711,33.938-30.845,7.766-9.766,13.5-20.716,14.913-32.811C463.056,313.1,443.43,291.754,423.732,277.549Z"/><path class="cls-1" d="M751.985,293.457c-5.871-50.3-24.886-97.092-56.512-139.071a334.049,334.049,0,0,0-40.8-44.836c-42.024-38.617-95.07-68.681-153.4-86.941a412.714,412.714,0,0,0-118.8-19.25c-83.406-.94-170.818,25.7-239.822,73.066-36.594,25.121-66.787,55.016-89.739,88.855A281.086,281.086,0,0,0,6.434,285.1c-6.009,43.085-.767,86.067,15.581,127.754C37.327,451.9,62.354,488.477,94.392,518.644A365.258,365.258,0,0,0,180.548,578.6a424.633,424.633,0,0,0,103.566,36.009,467.317,467.317,0,0,0,91.4,10.015q2.619.03,5.243.03c13.29,0,26.7-.566,39.948-1.687a446.5,446.5,0,0,0,114.1-24.7,391.1,391.1,0,0,0,78.768-38.726c3.245-2.1,6.445-4.233,9.558-6.383l3.92-2.74c2.655-1.871,5.373-3.861,8.275-6.057,8.148-6.127,16.074-12.655,23.554-19.4,33.282-29.979,59.382-66.672,75.5-106.135q.2-.453.372-.918C751.109,377.5,756.906,335.626,751.985,293.457ZM638.8,502.675c-6.827,6.154-14.062,12.112-21.539,17.734-1.534,1.161-2.989,2.239-4.408,3.272C577.2,505.834,546.973,484.59,508.2,470.565c-1.67-.609-3.35-1.189-5.05-1.77-9.64,6.78-33.28,24.311-42.87,31.181,9.991,12.1,39.944,47.135,60.405,71.459a417.514,417.514,0,0,1-102.507,21.636c-14.035,1.188-28.275,1.708-42.321,1.552a437.337,437.337,0,0,1-85.533-9.368q-5.906-1.247-11.735-2.66c-6.414-6.7-13.264-13.836-20.379-21.25-37.19-38.689-81.55-84.58-107.78-111.349-25.21-25.761-35.51-54.85-35.51-84.261,0-60.23,43.2-121.8,90.05-158.9,60.11-44.62,126.01-82.62,198.48-91.77a218.025,218.025,0,0,1,24.77-1.709c48.85-.63,98.24,14.949,137.49,47.209,17.46,14.361,34.86,31.371,47.58,51,8.91,13.74,15.53,28.77,18.27,45.071.27,1.619.51,3.23.71,4.84,4.63,36.15-7.48,68.589-26.56,100.109q5.31,2.327,10.81,4.781c28.264,12.6,59.738,27.521,90.076,41.157l-.062.152C692.106,442.909,668.7,475.747,638.8,502.675Z"/></svg>