<svg width="100%" id="Layer_1" data-name="Layer 1" xmlns="http://www.w3.org/2000/svg" viewBox="0 0 757.706 627.986"><defs><style>.cls-1{fill:#ffdac3;}</style></defs><title>logo-img-holder</title><path class="cls-1" d="M511.705,484.542c-10.305,7.248-35.573,25.985-45.824,33.329,11.266,13.639,46.283,54.578,68.078,80.563q1.347,1.6,2.629,3.132a392.592,392.592,0,0,0,79.184-38.919q6.879-4.442,13.554-9.182h.011q4.185-2.951,8.262-6.05c-41.975-19.849-75.955-44.872-120.5-60.981C515.317,485.783,513.522,485.162,511.705,484.542Z"/><path class="cls-1" d="M426.819,280.119C409.73,267.8,388.4,262.528,367.11,263.45c-27.146,1.175-54.231,12.419-72.393,31.961-8.625,9.281-13.46,21.829-3.712,32.261q29.077,31.117,57.984,62.369,19.478,21.107,38.829,42.337,12.711-8.892,25.5-17.684c12.3-8.99,25.969-20,36.276-32.97,8.3-10.439,14.434-22.144,15.941-35.072C468.853,318.12,447.874,295.3,426.819,280.119Z"/><path class="cls-1" d="M697.383,161.617a332.616,332.616,0,0,0-40.747-44.765c-43.386-39.87-97.419-69.628-154.477-87.489A418.244,418.244,0,0,0,382.453,9.951C216.581,8.091,29.588,114.511,4.972,291.029c-12.154,87.137,24.05,171.163,87.19,230.615a366,366,0,0,0,86.4,60.1,428.76,428.76,0,0,0,104.474,36.311c-9.855-10.315-21.154-22.095-33.147-34.59-39.752-41.356-87.169-90.407-115.206-119.022-26.947-27.535-37.956-58.629-37.956-90.065,0-64.38,46.176-130.192,96.254-169.848,64.252-47.695,134.692-88.313,212.155-98.093a233.009,233.009,0,0,1,26.477-1.828c52.216-.673,105.009,15.98,146.963,50.463,18.663,15.349,37.262,33.531,50.858,54.514,9.524,14.686,16.6,30.752,19.529,48.175.289,1.731.545,3.452.759,5.173,4.949,38.641-8,73.316-28.39,107.008q5.676,2.486,11.555,5.109c31.628,14.1,67.019,30.923,100.84,46.038.011,0,.021.01.031.01.845.385,1.689.759,2.534,1.133,15.563-38.288,22.126-80.049,17.135-122.816C747.354,247.4,727.131,201.1,697.383,161.617Z"/></svg>