<?xml version="1.0" encoding="utf-8"?>
<!-- Generator: Adobe Illustrator 23.0.5, SVG Export Plug-In . SVG Version: 6.00 Build 0)  -->
<!DOCTYPE svg PUBLIC "-//W3C//DTD SVG 1.1//EN" "http://www.w3.org/Graphics/SVG/1.1/DTD/svg11.dtd" [
	<!ENTITY ns_extend "http://ns.adobe.com/Extensibility/1.0/">
	<!ENTITY ns_ai "http://ns.adobe.com/AdobeIllustrator/10.0/">
	<!ENTITY ns_graphs "http://ns.adobe.com/Graphs/1.0/">
	<!ENTITY ns_vars "http://ns.adobe.com/Variables/1.0/">
	<!ENTITY ns_imrep "http://ns.adobe.com/ImageReplacement/1.0/">
	<!ENTITY ns_sfw "http://ns.adobe.com/SaveForWeb/1.0/">
	<!ENTITY ns_custom "http://ns.adobe.com/GenericCustomNamespace/1.0/">
	<!ENTITY ns_adobe_xpath "http://ns.adobe.com/XPath/1.0/">
]>
<svg version="1.1" id="Layer_1" xmlns:x="&ns_extend;" xmlns:i="&ns_ai;" xmlns:graph="&ns_graphs;"
	 xmlns="http://www.w3.org/2000/svg" xmlns:xlink="http://www.w3.org/1999/xlink" x="0px" y="0px" viewBox="0 0 1065.4 988.4"
	 style="enable-background:new 0 0 1065.4 988.4;" xml:space="preserve">
<style type="text/css">
	.st0{fill:#FFDAC3;}
</style>
<metadata>
	<sfw  xmlns="&ns_sfw;">
		<slices></slices>
		<sliceSourceBounds  bottomLeftOrigin="true" height="487.8" width="603.6" x="2948.2" y="97.2"></sliceSourceBounds>
	</sfw>
</metadata>
<title>logo-img-holder</title>
<g>
	<path class="st0" d="M639.3,603.9c-8.3,5.8-28.5,20.8-36.8,26.7c9,10.9,37.1,43.8,54.6,64.6c0.7,0.9,1.4,1.7,2.1,2.5
		c22.3-8,43.6-18.5,63.5-31.2c3.7-2.4,7.3-4.8,10.9-7.4h0c2.2-1.6,4.4-3.2,6.6-4.9c-33.7-15.9-60.9-36-96.7-48.9
		C642.2,604.9,640.7,604.4,639.3,603.9z"/>
	<path class="st0" d="M571.2,439.9c-13.7-9.9-30.8-14.1-47.9-13.4c-21.8,0.9-43.5,10-58.1,25.6c-6.9,7.4-10.8,17.5-3,25.9
		c15.5,16.6,31.1,33.3,46.5,50c10.4,11.3,20.8,22.6,31.1,34c6.8-4.8,13.6-9.5,20.5-14.2c9.9-7.2,20.8-16,29.1-26.4
		c6.7-8.4,11.6-17.8,12.8-28.1C604.9,470.4,588.1,452.1,571.2,439.9z"/>
	<path class="st0" d="M788.2,344.9c-9.8-12.9-20.7-25-32.7-35.9c-34.8-32-78.1-55.9-123.9-70.2c-31.1-9.8-63.4-15.1-96-15.6
		c-133.1-1.5-283.1,83.9-302.8,225.5c-9.7,69.9,19.3,137.3,69.9,185c20.7,19.3,44,35.6,69.3,48.2c26.6,13.3,54.7,23.1,83.8,29.1
		c-7.9-8.3-17-17.7-26.6-27.7c-31.9-33.2-69.9-72.5-92.4-95.5c-21.6-22.1-30.4-47-30.4-72.2c0-51.6,37-104.4,77.2-136.2
		c51.5-38.3,108-70.8,170.2-78.7c7-0.9,14.1-1.4,21.2-1.5c41.9-0.5,84.2,12.8,117.9,40.5c15,12.3,29.9,26.9,40.8,43.7
		c7.6,11.8,13.3,24.7,15.7,38.6c0.2,1.4,0.4,2.8,0.6,4.1c4,31-6.4,58.8-22.8,85.8c3,1.3,6.1,2.7,9.3,4.1
		c25.4,11.3,53.8,24.8,80.9,36.9c0,0,0,0,0,0c0.7,0.3,1.4,0.6,2,0.9c12.5-30.7,17.7-64.2,13.7-98.5
		C828.3,413.7,812.1,376.5,788.2,344.9z"/>
</g>
</svg>
